%TF.GenerationSoftware,KiCad,Pcbnew,10.0.5*%
%TF.CreationDate,2026-08-01T00:29:04+08:00*%
%TF.ProjectId,wfoc,77666f63-2e6b-4696-9361-645f70636258,rev?*%
%TF.SameCoordinates,Original*%
%TF.FileFunction,Legend,Top*%
%TF.FilePolarity,Positive*%
%FSLAX46Y46*%
G04 Gerber Fmt 4.6, Leading zero omitted, Abs format (unit mm)*
G04 Created by KiCad (PCBNEW 10.0.5) date 2026-08-01 00:29:04*
%MOMM*%
%LPD*%
G01*
G04 APERTURE LIST*
G04 Aperture macros list*
%AMRoundRect*
0 Rectangle with rounded corners*
0 $1 Rounding radius*
0 $2 $3 $4 $5 $6 $7 $8 $9 X,Y pos of 4 corners*
0 Add a 4 corners polygon primitive as box body*
4,1,4,$2,$3,$4,$5,$6,$7,$8,$9,$2,$3,0*
0 Add four circle primitives for the rounded corners*
1,1,$1+$1,$2,$3*
1,1,$1+$1,$4,$5*
1,1,$1+$1,$6,$7*
1,1,$1+$1,$8,$9*
0 Add four rect primitives between the rounded corners*
20,1,$1+$1,$2,$3,$4,$5,0*
20,1,$1+$1,$4,$5,$6,$7,0*
20,1,$1+$1,$6,$7,$8,$9,0*
20,1,$1+$1,$8,$9,$2,$3,0*%
G04 Aperture macros list end*
%ADD10C,0.100000*%
%ADD11C,0.062500*%
%ADD12C,0.250000*%
%ADD13C,0.150000*%
%ADD14C,0.120000*%
%ADD15C,0.600000*%
%ADD16C,0.500000*%
%ADD17RoundRect,0.135000X-0.135000X-0.185000X0.135000X-0.185000X0.135000X0.185000X-0.135000X0.185000X0*%
%ADD18RoundRect,0.250000X1.000000X-1.950000X1.000000X1.950000X-1.000000X1.950000X-1.000000X-1.950000X0*%
%ADD19RoundRect,0.250000X0.350000X-0.850000X0.350000X0.850000X-0.350000X0.850000X-0.350000X-0.850000X0*%
%ADD20RoundRect,0.249997X2.650003X-2.950003X2.650003X2.950003X-2.650003X2.950003X-2.650003X-2.950003X0*%
%ADD21RoundRect,0.225000X0.250000X-0.225000X0.250000X0.225000X-0.250000X0.225000X-0.250000X-0.225000X0*%
%ADD22RoundRect,0.200000X-0.200000X-0.275000X0.200000X-0.275000X0.200000X0.275000X-0.200000X0.275000X0*%
%ADD23RoundRect,0.200000X0.200000X0.275000X-0.200000X0.275000X-0.200000X-0.275000X0.200000X-0.275000X0*%
%ADD24RoundRect,0.250000X-1.000000X1.950000X-1.000000X-1.950000X1.000000X-1.950000X1.000000X1.950000X0*%
%ADD25RoundRect,0.225000X-0.225000X-0.250000X0.225000X-0.250000X0.225000X0.250000X-0.225000X0.250000X0*%
%ADD26RoundRect,0.200000X0.275000X-0.200000X0.275000X0.200000X-0.275000X0.200000X-0.275000X-0.200000X0*%
%ADD27RoundRect,0.135000X0.135000X0.185000X-0.135000X0.185000X-0.135000X-0.185000X0.135000X-0.185000X0*%
%ADD28RoundRect,0.250000X0.312500X0.625000X-0.312500X0.625000X-0.312500X-0.625000X0.312500X-0.625000X0*%
%ADD29RoundRect,0.225000X0.225000X0.250000X-0.225000X0.250000X-0.225000X-0.250000X0.225000X-0.250000X0*%
%ADD30RoundRect,0.250000X0.450000X-0.262500X0.450000X0.262500X-0.450000X0.262500X-0.450000X-0.262500X0*%
%ADD31RoundRect,0.175000X0.460000X0.175000X-0.460000X0.175000X-0.460000X-0.175000X0.460000X-0.175000X0*%
%ADD32R,2.413000X3.302000*%
%ADD33R,3.000000X2.350000*%
%ADD34RoundRect,0.225000X-0.250000X0.225000X-0.250000X-0.225000X0.250000X-0.225000X0.250000X0.225000X0*%
%ADD35RoundRect,0.250000X-0.475000X0.250000X-0.475000X-0.250000X0.475000X-0.250000X0.475000X0.250000X0*%
%ADD36RoundRect,0.200000X-0.275000X0.200000X-0.275000X-0.200000X0.275000X-0.200000X0.275000X0.200000X0*%
%ADD37RoundRect,0.250001X0.462499X0.624999X-0.462499X0.624999X-0.462499X-0.624999X0.462499X-0.624999X0*%
%ADD38RoundRect,0.100000X0.100000X-0.637500X0.100000X0.637500X-0.100000X0.637500X-0.100000X-0.637500X0*%
%ADD39RoundRect,0.250000X-0.750000X0.750000X-0.750000X-0.750000X0.750000X-0.750000X0.750000X0.750000X0*%
%ADD40C,2.000000*%
%ADD41RoundRect,0.150000X0.150000X-0.675000X0.150000X0.675000X-0.150000X0.675000X-0.150000X-0.675000X0*%
%ADD42RoundRect,0.050000X0.050000X-0.230000X0.050000X0.230000X-0.050000X0.230000X-0.050000X-0.230000X0*%
%ADD43RoundRect,0.050000X0.230000X-0.050000X0.230000X0.050000X-0.230000X0.050000X-0.230000X-0.050000X0*%
%ADD44R,1.500000X1.500000*%
%ADD45RoundRect,0.150000X-0.587500X-0.150000X0.587500X-0.150000X0.587500X0.150000X-0.587500X0.150000X0*%
%ADD46C,0.800000*%
%ADD47C,4.000000*%
%ADD48C,0.500000*%
%ADD49C,0.600000*%
%ADD50C,3.000000*%
G04 APERTURE END LIST*
D10*
X118250000Y-107500000D02*
X119750000Y-107500000D01*
X119750000Y-111500000D01*
X118250000Y-111500000D01*
X118250000Y-107500000D01*
X123500000Y-110500000D02*
X131500000Y-110500000D01*
X131500000Y-112000000D01*
X123500000Y-112000000D01*
X123500000Y-110500000D01*
D11*
X123098260Y-102945750D02*
X123141118Y-102960035D01*
X123141118Y-102960035D02*
X123212546Y-102960035D01*
X123212546Y-102960035D02*
X123241118Y-102945750D01*
X123241118Y-102945750D02*
X123255403Y-102931464D01*
X123255403Y-102931464D02*
X123269689Y-102902892D01*
X123269689Y-102902892D02*
X123269689Y-102874321D01*
X123269689Y-102874321D02*
X123255403Y-102845750D01*
X123255403Y-102845750D02*
X123241118Y-102831464D01*
X123241118Y-102831464D02*
X123212546Y-102817178D01*
X123212546Y-102817178D02*
X123155403Y-102802892D01*
X123155403Y-102802892D02*
X123126832Y-102788607D01*
X123126832Y-102788607D02*
X123112546Y-102774321D01*
X123112546Y-102774321D02*
X123098260Y-102745750D01*
X123098260Y-102745750D02*
X123098260Y-102717178D01*
X123098260Y-102717178D02*
X123112546Y-102688607D01*
X123112546Y-102688607D02*
X123126832Y-102674321D01*
X123126832Y-102674321D02*
X123155403Y-102660035D01*
X123155403Y-102660035D02*
X123226832Y-102660035D01*
X123226832Y-102660035D02*
X123269689Y-102674321D01*
X123369689Y-102660035D02*
X123441117Y-102960035D01*
X123441117Y-102960035D02*
X123498260Y-102745750D01*
X123498260Y-102745750D02*
X123555403Y-102960035D01*
X123555403Y-102960035D02*
X123626832Y-102660035D01*
X123912546Y-102931464D02*
X123898260Y-102945750D01*
X123898260Y-102945750D02*
X123855403Y-102960035D01*
X123855403Y-102960035D02*
X123826831Y-102960035D01*
X123826831Y-102960035D02*
X123783974Y-102945750D01*
X123783974Y-102945750D02*
X123755403Y-102917178D01*
X123755403Y-102917178D02*
X123741117Y-102888607D01*
X123741117Y-102888607D02*
X123726831Y-102831464D01*
X123726831Y-102831464D02*
X123726831Y-102788607D01*
X123726831Y-102788607D02*
X123741117Y-102731464D01*
X123741117Y-102731464D02*
X123755403Y-102702892D01*
X123755403Y-102702892D02*
X123783974Y-102674321D01*
X123783974Y-102674321D02*
X123826831Y-102660035D01*
X123826831Y-102660035D02*
X123855403Y-102660035D01*
X123855403Y-102660035D02*
X123898260Y-102674321D01*
X123898260Y-102674321D02*
X123912546Y-102688607D01*
X124183974Y-102960035D02*
X124041117Y-102960035D01*
X124041117Y-102960035D02*
X124041117Y-102660035D01*
X124283974Y-102960035D02*
X124283974Y-102660035D01*
X124455403Y-102960035D02*
X124326831Y-102788607D01*
X124455403Y-102660035D02*
X124283974Y-102831464D01*
X128598260Y-106945750D02*
X128641118Y-106960035D01*
X128641118Y-106960035D02*
X128712546Y-106960035D01*
X128712546Y-106960035D02*
X128741118Y-106945750D01*
X128741118Y-106945750D02*
X128755403Y-106931464D01*
X128755403Y-106931464D02*
X128769689Y-106902892D01*
X128769689Y-106902892D02*
X128769689Y-106874321D01*
X128769689Y-106874321D02*
X128755403Y-106845750D01*
X128755403Y-106845750D02*
X128741118Y-106831464D01*
X128741118Y-106831464D02*
X128712546Y-106817178D01*
X128712546Y-106817178D02*
X128655403Y-106802892D01*
X128655403Y-106802892D02*
X128626832Y-106788607D01*
X128626832Y-106788607D02*
X128612546Y-106774321D01*
X128612546Y-106774321D02*
X128598260Y-106745750D01*
X128598260Y-106745750D02*
X128598260Y-106717178D01*
X128598260Y-106717178D02*
X128612546Y-106688607D01*
X128612546Y-106688607D02*
X128626832Y-106674321D01*
X128626832Y-106674321D02*
X128655403Y-106660035D01*
X128655403Y-106660035D02*
X128726832Y-106660035D01*
X128726832Y-106660035D02*
X128769689Y-106674321D01*
X128869689Y-106660035D02*
X128941117Y-106960035D01*
X128941117Y-106960035D02*
X128998260Y-106745750D01*
X128998260Y-106745750D02*
X129055403Y-106960035D01*
X129055403Y-106960035D02*
X129126832Y-106660035D01*
X129241117Y-106960035D02*
X129241117Y-106660035D01*
X129241117Y-106660035D02*
X129312546Y-106660035D01*
X129312546Y-106660035D02*
X129355403Y-106674321D01*
X129355403Y-106674321D02*
X129383974Y-106702892D01*
X129383974Y-106702892D02*
X129398260Y-106731464D01*
X129398260Y-106731464D02*
X129412546Y-106788607D01*
X129412546Y-106788607D02*
X129412546Y-106831464D01*
X129412546Y-106831464D02*
X129398260Y-106888607D01*
X129398260Y-106888607D02*
X129383974Y-106917178D01*
X129383974Y-106917178D02*
X129355403Y-106945750D01*
X129355403Y-106945750D02*
X129312546Y-106960035D01*
X129312546Y-106960035D02*
X129241117Y-106960035D01*
D10*
X124446741Y-109957419D02*
X124399122Y-109933609D01*
X124399122Y-109933609D02*
X124327693Y-109933609D01*
X124327693Y-109933609D02*
X124256265Y-109957419D01*
X124256265Y-109957419D02*
X124208646Y-110005038D01*
X124208646Y-110005038D02*
X124184836Y-110052657D01*
X124184836Y-110052657D02*
X124161027Y-110147895D01*
X124161027Y-110147895D02*
X124161027Y-110219323D01*
X124161027Y-110219323D02*
X124184836Y-110314561D01*
X124184836Y-110314561D02*
X124208646Y-110362180D01*
X124208646Y-110362180D02*
X124256265Y-110409800D01*
X124256265Y-110409800D02*
X124327693Y-110433609D01*
X124327693Y-110433609D02*
X124375312Y-110433609D01*
X124375312Y-110433609D02*
X124446741Y-110409800D01*
X124446741Y-110409800D02*
X124470550Y-110385990D01*
X124470550Y-110385990D02*
X124470550Y-110219323D01*
X124470550Y-110219323D02*
X124375312Y-110219323D01*
X124684836Y-110433609D02*
X124684836Y-109933609D01*
X124684836Y-109933609D02*
X124970550Y-110433609D01*
X124970550Y-110433609D02*
X124970550Y-109933609D01*
X125208646Y-110433609D02*
X125208646Y-109933609D01*
X125208646Y-109933609D02*
X125327694Y-109933609D01*
X125327694Y-109933609D02*
X125399122Y-109957419D01*
X125399122Y-109957419D02*
X125446741Y-110005038D01*
X125446741Y-110005038D02*
X125470551Y-110052657D01*
X125470551Y-110052657D02*
X125494360Y-110147895D01*
X125494360Y-110147895D02*
X125494360Y-110219323D01*
X125494360Y-110219323D02*
X125470551Y-110314561D01*
X125470551Y-110314561D02*
X125446741Y-110362180D01*
X125446741Y-110362180D02*
X125399122Y-110409800D01*
X125399122Y-110409800D02*
X125327694Y-110433609D01*
X125327694Y-110433609D02*
X125208646Y-110433609D01*
X126113408Y-109933609D02*
X126399122Y-109933609D01*
X126256265Y-110433609D02*
X126256265Y-109933609D01*
X126518169Y-109933609D02*
X126851502Y-110433609D01*
X126851502Y-109933609D02*
X126518169Y-110433609D01*
X126946741Y-106957419D02*
X126899122Y-106933609D01*
X126899122Y-106933609D02*
X126827693Y-106933609D01*
X126827693Y-106933609D02*
X126756265Y-106957419D01*
X126756265Y-106957419D02*
X126708646Y-107005038D01*
X126708646Y-107005038D02*
X126684836Y-107052657D01*
X126684836Y-107052657D02*
X126661027Y-107147895D01*
X126661027Y-107147895D02*
X126661027Y-107219323D01*
X126661027Y-107219323D02*
X126684836Y-107314561D01*
X126684836Y-107314561D02*
X126708646Y-107362180D01*
X126708646Y-107362180D02*
X126756265Y-107409800D01*
X126756265Y-107409800D02*
X126827693Y-107433609D01*
X126827693Y-107433609D02*
X126875312Y-107433609D01*
X126875312Y-107433609D02*
X126946741Y-107409800D01*
X126946741Y-107409800D02*
X126970550Y-107385990D01*
X126970550Y-107385990D02*
X126970550Y-107219323D01*
X126970550Y-107219323D02*
X126875312Y-107219323D01*
X127184836Y-107433609D02*
X127184836Y-106933609D01*
X127184836Y-106933609D02*
X127470550Y-107433609D01*
X127470550Y-107433609D02*
X127470550Y-106933609D01*
X127708646Y-107433609D02*
X127708646Y-106933609D01*
X127708646Y-106933609D02*
X127827694Y-106933609D01*
X127827694Y-106933609D02*
X127899122Y-106957419D01*
X127899122Y-106957419D02*
X127946741Y-107005038D01*
X127946741Y-107005038D02*
X127970551Y-107052657D01*
X127970551Y-107052657D02*
X127994360Y-107147895D01*
X127994360Y-107147895D02*
X127994360Y-107219323D01*
X127994360Y-107219323D02*
X127970551Y-107314561D01*
X127970551Y-107314561D02*
X127946741Y-107362180D01*
X127946741Y-107362180D02*
X127899122Y-107409800D01*
X127899122Y-107409800D02*
X127827694Y-107433609D01*
X127827694Y-107433609D02*
X127708646Y-107433609D01*
X127470550Y-110433609D02*
X127303884Y-110195514D01*
X127184836Y-110433609D02*
X127184836Y-109933609D01*
X127184836Y-109933609D02*
X127375312Y-109933609D01*
X127375312Y-109933609D02*
X127422931Y-109957419D01*
X127422931Y-109957419D02*
X127446741Y-109981228D01*
X127446741Y-109981228D02*
X127470550Y-110028847D01*
X127470550Y-110028847D02*
X127470550Y-110100276D01*
X127470550Y-110100276D02*
X127446741Y-110147895D01*
X127446741Y-110147895D02*
X127422931Y-110171704D01*
X127422931Y-110171704D02*
X127375312Y-110195514D01*
X127375312Y-110195514D02*
X127184836Y-110195514D01*
X127637217Y-109933609D02*
X127970550Y-110433609D01*
X127970550Y-109933609D02*
X127637217Y-110433609D01*
X128637217Y-109933609D02*
X128946741Y-109933609D01*
X128946741Y-109933609D02*
X128780074Y-110124085D01*
X128780074Y-110124085D02*
X128851503Y-110124085D01*
X128851503Y-110124085D02*
X128899122Y-110147895D01*
X128899122Y-110147895D02*
X128922931Y-110171704D01*
X128922931Y-110171704D02*
X128946741Y-110219323D01*
X128946741Y-110219323D02*
X128946741Y-110338371D01*
X128946741Y-110338371D02*
X128922931Y-110385990D01*
X128922931Y-110385990D02*
X128899122Y-110409800D01*
X128899122Y-110409800D02*
X128851503Y-110433609D01*
X128851503Y-110433609D02*
X128708646Y-110433609D01*
X128708646Y-110433609D02*
X128661027Y-110409800D01*
X128661027Y-110409800D02*
X128637217Y-110385990D01*
X129161026Y-110385990D02*
X129184836Y-110409800D01*
X129184836Y-110409800D02*
X129161026Y-110433609D01*
X129161026Y-110433609D02*
X129137217Y-110409800D01*
X129137217Y-110409800D02*
X129161026Y-110385990D01*
X129161026Y-110385990D02*
X129161026Y-110433609D01*
X129351502Y-109933609D02*
X129661026Y-109933609D01*
X129661026Y-109933609D02*
X129494359Y-110124085D01*
X129494359Y-110124085D02*
X129565788Y-110124085D01*
X129565788Y-110124085D02*
X129613407Y-110147895D01*
X129613407Y-110147895D02*
X129637216Y-110171704D01*
X129637216Y-110171704D02*
X129661026Y-110219323D01*
X129661026Y-110219323D02*
X129661026Y-110338371D01*
X129661026Y-110338371D02*
X129637216Y-110385990D01*
X129637216Y-110385990D02*
X129613407Y-110409800D01*
X129613407Y-110409800D02*
X129565788Y-110433609D01*
X129565788Y-110433609D02*
X129422931Y-110433609D01*
X129422931Y-110433609D02*
X129375312Y-110409800D01*
X129375312Y-110409800D02*
X129351502Y-110385990D01*
X129827692Y-110100276D02*
X129946740Y-110433609D01*
X129946740Y-110433609D02*
X130065787Y-110100276D01*
X130684836Y-110433609D02*
X130684836Y-109933609D01*
X130684836Y-109933609D02*
X130875312Y-109933609D01*
X130875312Y-109933609D02*
X130922931Y-109957419D01*
X130922931Y-109957419D02*
X130946741Y-109981228D01*
X130946741Y-109981228D02*
X130970550Y-110028847D01*
X130970550Y-110028847D02*
X130970550Y-110100276D01*
X130970550Y-110100276D02*
X130946741Y-110147895D01*
X130946741Y-110147895D02*
X130922931Y-110171704D01*
X130922931Y-110171704D02*
X130875312Y-110195514D01*
X130875312Y-110195514D02*
X130684836Y-110195514D01*
X131184836Y-110433609D02*
X131184836Y-109933609D01*
X131184836Y-109933609D02*
X131375312Y-109933609D01*
X131375312Y-109933609D02*
X131422931Y-109957419D01*
X131422931Y-109957419D02*
X131446741Y-109981228D01*
X131446741Y-109981228D02*
X131470550Y-110028847D01*
X131470550Y-110028847D02*
X131470550Y-110100276D01*
X131470550Y-110100276D02*
X131446741Y-110147895D01*
X131446741Y-110147895D02*
X131422931Y-110171704D01*
X131422931Y-110171704D02*
X131375312Y-110195514D01*
X131375312Y-110195514D02*
X131184836Y-110195514D01*
X131684836Y-110433609D02*
X131684836Y-109933609D01*
X131684836Y-109933609D02*
X131851503Y-110290752D01*
X131851503Y-110290752D02*
X132018169Y-109933609D01*
X132018169Y-109933609D02*
X132018169Y-110433609D01*
D12*
X118402568Y-106864619D02*
X118402568Y-105864619D01*
X118402568Y-106340809D02*
X118973996Y-106340809D01*
X118973996Y-106864619D02*
X118973996Y-105864619D01*
X119878758Y-106864619D02*
X119878758Y-106340809D01*
X119878758Y-106340809D02*
X119831139Y-106245571D01*
X119831139Y-106245571D02*
X119735901Y-106197952D01*
X119735901Y-106197952D02*
X119545425Y-106197952D01*
X119545425Y-106197952D02*
X119450187Y-106245571D01*
X119878758Y-106817000D02*
X119783520Y-106864619D01*
X119783520Y-106864619D02*
X119545425Y-106864619D01*
X119545425Y-106864619D02*
X119450187Y-106817000D01*
X119450187Y-106817000D02*
X119402568Y-106721761D01*
X119402568Y-106721761D02*
X119402568Y-106626523D01*
X119402568Y-106626523D02*
X119450187Y-106531285D01*
X119450187Y-106531285D02*
X119545425Y-106483666D01*
X119545425Y-106483666D02*
X119783520Y-106483666D01*
X119783520Y-106483666D02*
X119878758Y-106436047D01*
X120497806Y-106864619D02*
X120402568Y-106817000D01*
X120402568Y-106817000D02*
X120354949Y-106721761D01*
X120354949Y-106721761D02*
X120354949Y-105864619D01*
X121021616Y-106864619D02*
X120926378Y-106817000D01*
X120926378Y-106817000D02*
X120878759Y-106721761D01*
X120878759Y-106721761D02*
X120878759Y-105864619D01*
D13*
X118357142Y-104954819D02*
X118023809Y-104478628D01*
X117785714Y-104954819D02*
X117785714Y-103954819D01*
X117785714Y-103954819D02*
X118166666Y-103954819D01*
X118166666Y-103954819D02*
X118261904Y-104002438D01*
X118261904Y-104002438D02*
X118309523Y-104050057D01*
X118309523Y-104050057D02*
X118357142Y-104145295D01*
X118357142Y-104145295D02*
X118357142Y-104288152D01*
X118357142Y-104288152D02*
X118309523Y-104383390D01*
X118309523Y-104383390D02*
X118261904Y-104431009D01*
X118261904Y-104431009D02*
X118166666Y-104478628D01*
X118166666Y-104478628D02*
X117785714Y-104478628D01*
X118690476Y-103954819D02*
X119309523Y-103954819D01*
X119309523Y-103954819D02*
X118976190Y-104335771D01*
X118976190Y-104335771D02*
X119119047Y-104335771D01*
X119119047Y-104335771D02*
X119214285Y-104383390D01*
X119214285Y-104383390D02*
X119261904Y-104431009D01*
X119261904Y-104431009D02*
X119309523Y-104526247D01*
X119309523Y-104526247D02*
X119309523Y-104764342D01*
X119309523Y-104764342D02*
X119261904Y-104859580D01*
X119261904Y-104859580D02*
X119214285Y-104907200D01*
X119214285Y-104907200D02*
X119119047Y-104954819D01*
X119119047Y-104954819D02*
X118833333Y-104954819D01*
X118833333Y-104954819D02*
X118738095Y-104907200D01*
X118738095Y-104907200D02*
X118690476Y-104859580D01*
X120166666Y-103954819D02*
X119976190Y-103954819D01*
X119976190Y-103954819D02*
X119880952Y-104002438D01*
X119880952Y-104002438D02*
X119833333Y-104050057D01*
X119833333Y-104050057D02*
X119738095Y-104192914D01*
X119738095Y-104192914D02*
X119690476Y-104383390D01*
X119690476Y-104383390D02*
X119690476Y-104764342D01*
X119690476Y-104764342D02*
X119738095Y-104859580D01*
X119738095Y-104859580D02*
X119785714Y-104907200D01*
X119785714Y-104907200D02*
X119880952Y-104954819D01*
X119880952Y-104954819D02*
X120071428Y-104954819D01*
X120071428Y-104954819D02*
X120166666Y-104907200D01*
X120166666Y-104907200D02*
X120214285Y-104859580D01*
X120214285Y-104859580D02*
X120261904Y-104764342D01*
X120261904Y-104764342D02*
X120261904Y-104526247D01*
X120261904Y-104526247D02*
X120214285Y-104431009D01*
X120214285Y-104431009D02*
X120166666Y-104383390D01*
X120166666Y-104383390D02*
X120071428Y-104335771D01*
X120071428Y-104335771D02*
X119880952Y-104335771D01*
X119880952Y-104335771D02*
X119785714Y-104383390D01*
X119785714Y-104383390D02*
X119738095Y-104431009D01*
X119738095Y-104431009D02*
X119690476Y-104526247D01*
X155559580Y-100366666D02*
X155607200Y-100414285D01*
X155607200Y-100414285D02*
X155654819Y-100557142D01*
X155654819Y-100557142D02*
X155654819Y-100652380D01*
X155654819Y-100652380D02*
X155607200Y-100795237D01*
X155607200Y-100795237D02*
X155511961Y-100890475D01*
X155511961Y-100890475D02*
X155416723Y-100938094D01*
X155416723Y-100938094D02*
X155226247Y-100985713D01*
X155226247Y-100985713D02*
X155083390Y-100985713D01*
X155083390Y-100985713D02*
X154892914Y-100938094D01*
X154892914Y-100938094D02*
X154797676Y-100890475D01*
X154797676Y-100890475D02*
X154702438Y-100795237D01*
X154702438Y-100795237D02*
X154654819Y-100652380D01*
X154654819Y-100652380D02*
X154654819Y-100557142D01*
X154654819Y-100557142D02*
X154702438Y-100414285D01*
X154702438Y-100414285D02*
X154750057Y-100366666D01*
X155654819Y-99890475D02*
X155654819Y-99699999D01*
X155654819Y-99699999D02*
X155607200Y-99604761D01*
X155607200Y-99604761D02*
X155559580Y-99557142D01*
X155559580Y-99557142D02*
X155416723Y-99461904D01*
X155416723Y-99461904D02*
X155226247Y-99414285D01*
X155226247Y-99414285D02*
X154845295Y-99414285D01*
X154845295Y-99414285D02*
X154750057Y-99461904D01*
X154750057Y-99461904D02*
X154702438Y-99509523D01*
X154702438Y-99509523D02*
X154654819Y-99604761D01*
X154654819Y-99604761D02*
X154654819Y-99795237D01*
X154654819Y-99795237D02*
X154702438Y-99890475D01*
X154702438Y-99890475D02*
X154750057Y-99938094D01*
X154750057Y-99938094D02*
X154845295Y-99985713D01*
X154845295Y-99985713D02*
X155083390Y-99985713D01*
X155083390Y-99985713D02*
X155178628Y-99938094D01*
X155178628Y-99938094D02*
X155226247Y-99890475D01*
X155226247Y-99890475D02*
X155273866Y-99795237D01*
X155273866Y-99795237D02*
X155273866Y-99604761D01*
X155273866Y-99604761D02*
X155226247Y-99509523D01*
X155226247Y-99509523D02*
X155178628Y-99461904D01*
X155178628Y-99461904D02*
X155083390Y-99414285D01*
X151805057Y-72070238D02*
X151757438Y-72165476D01*
X151757438Y-72165476D02*
X151662200Y-72260714D01*
X151662200Y-72260714D02*
X151519342Y-72403571D01*
X151519342Y-72403571D02*
X151471723Y-72498809D01*
X151471723Y-72498809D02*
X151471723Y-72594047D01*
X151709819Y-72546428D02*
X151662200Y-72641666D01*
X151662200Y-72641666D02*
X151566961Y-72736904D01*
X151566961Y-72736904D02*
X151376485Y-72784523D01*
X151376485Y-72784523D02*
X151043152Y-72784523D01*
X151043152Y-72784523D02*
X150852676Y-72736904D01*
X150852676Y-72736904D02*
X150757438Y-72641666D01*
X150757438Y-72641666D02*
X150709819Y-72546428D01*
X150709819Y-72546428D02*
X150709819Y-72355952D01*
X150709819Y-72355952D02*
X150757438Y-72260714D01*
X150757438Y-72260714D02*
X150852676Y-72165476D01*
X150852676Y-72165476D02*
X151043152Y-72117857D01*
X151043152Y-72117857D02*
X151376485Y-72117857D01*
X151376485Y-72117857D02*
X151566961Y-72165476D01*
X151566961Y-72165476D02*
X151662200Y-72260714D01*
X151662200Y-72260714D02*
X151709819Y-72355952D01*
X151709819Y-72355952D02*
X151709819Y-72546428D01*
X151709819Y-71165476D02*
X151709819Y-71736904D01*
X151709819Y-71451190D02*
X150709819Y-71451190D01*
X150709819Y-71451190D02*
X150852676Y-71546428D01*
X150852676Y-71546428D02*
X150947914Y-71641666D01*
X150947914Y-71641666D02*
X150995533Y-71736904D01*
X129929580Y-102441666D02*
X129977200Y-102489285D01*
X129977200Y-102489285D02*
X130024819Y-102632142D01*
X130024819Y-102632142D02*
X130024819Y-102727380D01*
X130024819Y-102727380D02*
X129977200Y-102870237D01*
X129977200Y-102870237D02*
X129881961Y-102965475D01*
X129881961Y-102965475D02*
X129786723Y-103013094D01*
X129786723Y-103013094D02*
X129596247Y-103060713D01*
X129596247Y-103060713D02*
X129453390Y-103060713D01*
X129453390Y-103060713D02*
X129262914Y-103013094D01*
X129262914Y-103013094D02*
X129167676Y-102965475D01*
X129167676Y-102965475D02*
X129072438Y-102870237D01*
X129072438Y-102870237D02*
X129024819Y-102727380D01*
X129024819Y-102727380D02*
X129024819Y-102632142D01*
X129024819Y-102632142D02*
X129072438Y-102489285D01*
X129072438Y-102489285D02*
X129120057Y-102441666D01*
X129024819Y-101536904D02*
X129024819Y-102013094D01*
X129024819Y-102013094D02*
X129501009Y-102060713D01*
X129501009Y-102060713D02*
X129453390Y-102013094D01*
X129453390Y-102013094D02*
X129405771Y-101917856D01*
X129405771Y-101917856D02*
X129405771Y-101679761D01*
X129405771Y-101679761D02*
X129453390Y-101584523D01*
X129453390Y-101584523D02*
X129501009Y-101536904D01*
X129501009Y-101536904D02*
X129596247Y-101489285D01*
X129596247Y-101489285D02*
X129834342Y-101489285D01*
X129834342Y-101489285D02*
X129929580Y-101536904D01*
X129929580Y-101536904D02*
X129977200Y-101584523D01*
X129977200Y-101584523D02*
X130024819Y-101679761D01*
X130024819Y-101679761D02*
X130024819Y-101917856D01*
X130024819Y-101917856D02*
X129977200Y-102013094D01*
X129977200Y-102013094D02*
X129929580Y-102060713D01*
X144974642Y-80724819D02*
X144641309Y-80248628D01*
X144403214Y-80724819D02*
X144403214Y-79724819D01*
X144403214Y-79724819D02*
X144784166Y-79724819D01*
X144784166Y-79724819D02*
X144879404Y-79772438D01*
X144879404Y-79772438D02*
X144927023Y-79820057D01*
X144927023Y-79820057D02*
X144974642Y-79915295D01*
X144974642Y-79915295D02*
X144974642Y-80058152D01*
X144974642Y-80058152D02*
X144927023Y-80153390D01*
X144927023Y-80153390D02*
X144879404Y-80201009D01*
X144879404Y-80201009D02*
X144784166Y-80248628D01*
X144784166Y-80248628D02*
X144403214Y-80248628D01*
X145355595Y-79820057D02*
X145403214Y-79772438D01*
X145403214Y-79772438D02*
X145498452Y-79724819D01*
X145498452Y-79724819D02*
X145736547Y-79724819D01*
X145736547Y-79724819D02*
X145831785Y-79772438D01*
X145831785Y-79772438D02*
X145879404Y-79820057D01*
X145879404Y-79820057D02*
X145927023Y-79915295D01*
X145927023Y-79915295D02*
X145927023Y-80010533D01*
X145927023Y-80010533D02*
X145879404Y-80153390D01*
X145879404Y-80153390D02*
X145307976Y-80724819D01*
X145307976Y-80724819D02*
X145927023Y-80724819D01*
X146260357Y-79724819D02*
X146879404Y-79724819D01*
X146879404Y-79724819D02*
X146546071Y-80105771D01*
X146546071Y-80105771D02*
X146688928Y-80105771D01*
X146688928Y-80105771D02*
X146784166Y-80153390D01*
X146784166Y-80153390D02*
X146831785Y-80201009D01*
X146831785Y-80201009D02*
X146879404Y-80296247D01*
X146879404Y-80296247D02*
X146879404Y-80534342D01*
X146879404Y-80534342D02*
X146831785Y-80629580D01*
X146831785Y-80629580D02*
X146784166Y-80677200D01*
X146784166Y-80677200D02*
X146688928Y-80724819D01*
X146688928Y-80724819D02*
X146403214Y-80724819D01*
X146403214Y-80724819D02*
X146307976Y-80677200D01*
X146307976Y-80677200D02*
X146260357Y-80629580D01*
X121182142Y-98384819D02*
X120848809Y-97908628D01*
X120610714Y-98384819D02*
X120610714Y-97384819D01*
X120610714Y-97384819D02*
X120991666Y-97384819D01*
X120991666Y-97384819D02*
X121086904Y-97432438D01*
X121086904Y-97432438D02*
X121134523Y-97480057D01*
X121134523Y-97480057D02*
X121182142Y-97575295D01*
X121182142Y-97575295D02*
X121182142Y-97718152D01*
X121182142Y-97718152D02*
X121134523Y-97813390D01*
X121134523Y-97813390D02*
X121086904Y-97861009D01*
X121086904Y-97861009D02*
X120991666Y-97908628D01*
X120991666Y-97908628D02*
X120610714Y-97908628D01*
X122134523Y-98384819D02*
X121563095Y-98384819D01*
X121848809Y-98384819D02*
X121848809Y-97384819D01*
X121848809Y-97384819D02*
X121753571Y-97527676D01*
X121753571Y-97527676D02*
X121658333Y-97622914D01*
X121658333Y-97622914D02*
X121563095Y-97670533D01*
X122467857Y-97384819D02*
X123086904Y-97384819D01*
X123086904Y-97384819D02*
X122753571Y-97765771D01*
X122753571Y-97765771D02*
X122896428Y-97765771D01*
X122896428Y-97765771D02*
X122991666Y-97813390D01*
X122991666Y-97813390D02*
X123039285Y-97861009D01*
X123039285Y-97861009D02*
X123086904Y-97956247D01*
X123086904Y-97956247D02*
X123086904Y-98194342D01*
X123086904Y-98194342D02*
X123039285Y-98289580D01*
X123039285Y-98289580D02*
X122991666Y-98337200D01*
X122991666Y-98337200D02*
X122896428Y-98384819D01*
X122896428Y-98384819D02*
X122610714Y-98384819D01*
X122610714Y-98384819D02*
X122515476Y-98337200D01*
X122515476Y-98337200D02*
X122467857Y-98289580D01*
X134025057Y-74030238D02*
X133977438Y-74125476D01*
X133977438Y-74125476D02*
X133882200Y-74220714D01*
X133882200Y-74220714D02*
X133739342Y-74363571D01*
X133739342Y-74363571D02*
X133691723Y-74458809D01*
X133691723Y-74458809D02*
X133691723Y-74554047D01*
X133929819Y-74506428D02*
X133882200Y-74601666D01*
X133882200Y-74601666D02*
X133786961Y-74696904D01*
X133786961Y-74696904D02*
X133596485Y-74744523D01*
X133596485Y-74744523D02*
X133263152Y-74744523D01*
X133263152Y-74744523D02*
X133072676Y-74696904D01*
X133072676Y-74696904D02*
X132977438Y-74601666D01*
X132977438Y-74601666D02*
X132929819Y-74506428D01*
X132929819Y-74506428D02*
X132929819Y-74315952D01*
X132929819Y-74315952D02*
X132977438Y-74220714D01*
X132977438Y-74220714D02*
X133072676Y-74125476D01*
X133072676Y-74125476D02*
X133263152Y-74077857D01*
X133263152Y-74077857D02*
X133596485Y-74077857D01*
X133596485Y-74077857D02*
X133786961Y-74125476D01*
X133786961Y-74125476D02*
X133882200Y-74220714D01*
X133882200Y-74220714D02*
X133929819Y-74315952D01*
X133929819Y-74315952D02*
X133929819Y-74506428D01*
X132929819Y-73744523D02*
X132929819Y-73125476D01*
X132929819Y-73125476D02*
X133310771Y-73458809D01*
X133310771Y-73458809D02*
X133310771Y-73315952D01*
X133310771Y-73315952D02*
X133358390Y-73220714D01*
X133358390Y-73220714D02*
X133406009Y-73173095D01*
X133406009Y-73173095D02*
X133501247Y-73125476D01*
X133501247Y-73125476D02*
X133739342Y-73125476D01*
X133739342Y-73125476D02*
X133834580Y-73173095D01*
X133834580Y-73173095D02*
X133882200Y-73220714D01*
X133882200Y-73220714D02*
X133929819Y-73315952D01*
X133929819Y-73315952D02*
X133929819Y-73601666D01*
X133929819Y-73601666D02*
X133882200Y-73696904D01*
X133882200Y-73696904D02*
X133834580Y-73744523D01*
X149954819Y-81942857D02*
X149478628Y-82276190D01*
X149954819Y-82514285D02*
X148954819Y-82514285D01*
X148954819Y-82514285D02*
X148954819Y-82133333D01*
X148954819Y-82133333D02*
X149002438Y-82038095D01*
X149002438Y-82038095D02*
X149050057Y-81990476D01*
X149050057Y-81990476D02*
X149145295Y-81942857D01*
X149145295Y-81942857D02*
X149288152Y-81942857D01*
X149288152Y-81942857D02*
X149383390Y-81990476D01*
X149383390Y-81990476D02*
X149431009Y-82038095D01*
X149431009Y-82038095D02*
X149478628Y-82133333D01*
X149478628Y-82133333D02*
X149478628Y-82514285D01*
X148954819Y-81609523D02*
X148954819Y-80990476D01*
X148954819Y-80990476D02*
X149335771Y-81323809D01*
X149335771Y-81323809D02*
X149335771Y-81180952D01*
X149335771Y-81180952D02*
X149383390Y-81085714D01*
X149383390Y-81085714D02*
X149431009Y-81038095D01*
X149431009Y-81038095D02*
X149526247Y-80990476D01*
X149526247Y-80990476D02*
X149764342Y-80990476D01*
X149764342Y-80990476D02*
X149859580Y-81038095D01*
X149859580Y-81038095D02*
X149907200Y-81085714D01*
X149907200Y-81085714D02*
X149954819Y-81180952D01*
X149954819Y-81180952D02*
X149954819Y-81466666D01*
X149954819Y-81466666D02*
X149907200Y-81561904D01*
X149907200Y-81561904D02*
X149859580Y-81609523D01*
X149050057Y-80609523D02*
X149002438Y-80561904D01*
X149002438Y-80561904D02*
X148954819Y-80466666D01*
X148954819Y-80466666D02*
X148954819Y-80228571D01*
X148954819Y-80228571D02*
X149002438Y-80133333D01*
X149002438Y-80133333D02*
X149050057Y-80085714D01*
X149050057Y-80085714D02*
X149145295Y-80038095D01*
X149145295Y-80038095D02*
X149240533Y-80038095D01*
X149240533Y-80038095D02*
X149383390Y-80085714D01*
X149383390Y-80085714D02*
X149954819Y-80657142D01*
X149954819Y-80657142D02*
X149954819Y-80038095D01*
X147974642Y-80724819D02*
X147641309Y-80248628D01*
X147403214Y-80724819D02*
X147403214Y-79724819D01*
X147403214Y-79724819D02*
X147784166Y-79724819D01*
X147784166Y-79724819D02*
X147879404Y-79772438D01*
X147879404Y-79772438D02*
X147927023Y-79820057D01*
X147927023Y-79820057D02*
X147974642Y-79915295D01*
X147974642Y-79915295D02*
X147974642Y-80058152D01*
X147974642Y-80058152D02*
X147927023Y-80153390D01*
X147927023Y-80153390D02*
X147879404Y-80201009D01*
X147879404Y-80201009D02*
X147784166Y-80248628D01*
X147784166Y-80248628D02*
X147403214Y-80248628D01*
X148355595Y-79820057D02*
X148403214Y-79772438D01*
X148403214Y-79772438D02*
X148498452Y-79724819D01*
X148498452Y-79724819D02*
X148736547Y-79724819D01*
X148736547Y-79724819D02*
X148831785Y-79772438D01*
X148831785Y-79772438D02*
X148879404Y-79820057D01*
X148879404Y-79820057D02*
X148927023Y-79915295D01*
X148927023Y-79915295D02*
X148927023Y-80010533D01*
X148927023Y-80010533D02*
X148879404Y-80153390D01*
X148879404Y-80153390D02*
X148307976Y-80724819D01*
X148307976Y-80724819D02*
X148927023Y-80724819D01*
X149403214Y-80724819D02*
X149593690Y-80724819D01*
X149593690Y-80724819D02*
X149688928Y-80677200D01*
X149688928Y-80677200D02*
X149736547Y-80629580D01*
X149736547Y-80629580D02*
X149831785Y-80486723D01*
X149831785Y-80486723D02*
X149879404Y-80296247D01*
X149879404Y-80296247D02*
X149879404Y-79915295D01*
X149879404Y-79915295D02*
X149831785Y-79820057D01*
X149831785Y-79820057D02*
X149784166Y-79772438D01*
X149784166Y-79772438D02*
X149688928Y-79724819D01*
X149688928Y-79724819D02*
X149498452Y-79724819D01*
X149498452Y-79724819D02*
X149403214Y-79772438D01*
X149403214Y-79772438D02*
X149355595Y-79820057D01*
X149355595Y-79820057D02*
X149307976Y-79915295D01*
X149307976Y-79915295D02*
X149307976Y-80153390D01*
X149307976Y-80153390D02*
X149355595Y-80248628D01*
X149355595Y-80248628D02*
X149403214Y-80296247D01*
X149403214Y-80296247D02*
X149498452Y-80343866D01*
X149498452Y-80343866D02*
X149688928Y-80343866D01*
X149688928Y-80343866D02*
X149784166Y-80296247D01*
X149784166Y-80296247D02*
X149831785Y-80248628D01*
X149831785Y-80248628D02*
X149879404Y-80153390D01*
X143025057Y-73530238D02*
X142977438Y-73625476D01*
X142977438Y-73625476D02*
X142882200Y-73720714D01*
X142882200Y-73720714D02*
X142739342Y-73863571D01*
X142739342Y-73863571D02*
X142691723Y-73958809D01*
X142691723Y-73958809D02*
X142691723Y-74054047D01*
X142929819Y-74006428D02*
X142882200Y-74101666D01*
X142882200Y-74101666D02*
X142786961Y-74196904D01*
X142786961Y-74196904D02*
X142596485Y-74244523D01*
X142596485Y-74244523D02*
X142263152Y-74244523D01*
X142263152Y-74244523D02*
X142072676Y-74196904D01*
X142072676Y-74196904D02*
X141977438Y-74101666D01*
X141977438Y-74101666D02*
X141929819Y-74006428D01*
X141929819Y-74006428D02*
X141929819Y-73815952D01*
X141929819Y-73815952D02*
X141977438Y-73720714D01*
X141977438Y-73720714D02*
X142072676Y-73625476D01*
X142072676Y-73625476D02*
X142263152Y-73577857D01*
X142263152Y-73577857D02*
X142596485Y-73577857D01*
X142596485Y-73577857D02*
X142786961Y-73625476D01*
X142786961Y-73625476D02*
X142882200Y-73720714D01*
X142882200Y-73720714D02*
X142929819Y-73815952D01*
X142929819Y-73815952D02*
X142929819Y-74006428D01*
X142025057Y-73196904D02*
X141977438Y-73149285D01*
X141977438Y-73149285D02*
X141929819Y-73054047D01*
X141929819Y-73054047D02*
X141929819Y-72815952D01*
X141929819Y-72815952D02*
X141977438Y-72720714D01*
X141977438Y-72720714D02*
X142025057Y-72673095D01*
X142025057Y-72673095D02*
X142120295Y-72625476D01*
X142120295Y-72625476D02*
X142215533Y-72625476D01*
X142215533Y-72625476D02*
X142358390Y-72673095D01*
X142358390Y-72673095D02*
X142929819Y-73244523D01*
X142929819Y-73244523D02*
X142929819Y-72625476D01*
X156002319Y-79442857D02*
X155526128Y-79776190D01*
X156002319Y-80014285D02*
X155002319Y-80014285D01*
X155002319Y-80014285D02*
X155002319Y-79633333D01*
X155002319Y-79633333D02*
X155049938Y-79538095D01*
X155049938Y-79538095D02*
X155097557Y-79490476D01*
X155097557Y-79490476D02*
X155192795Y-79442857D01*
X155192795Y-79442857D02*
X155335652Y-79442857D01*
X155335652Y-79442857D02*
X155430890Y-79490476D01*
X155430890Y-79490476D02*
X155478509Y-79538095D01*
X155478509Y-79538095D02*
X155526128Y-79633333D01*
X155526128Y-79633333D02*
X155526128Y-80014285D01*
X155097557Y-79061904D02*
X155049938Y-79014285D01*
X155049938Y-79014285D02*
X155002319Y-78919047D01*
X155002319Y-78919047D02*
X155002319Y-78680952D01*
X155002319Y-78680952D02*
X155049938Y-78585714D01*
X155049938Y-78585714D02*
X155097557Y-78538095D01*
X155097557Y-78538095D02*
X155192795Y-78490476D01*
X155192795Y-78490476D02*
X155288033Y-78490476D01*
X155288033Y-78490476D02*
X155430890Y-78538095D01*
X155430890Y-78538095D02*
X156002319Y-79109523D01*
X156002319Y-79109523D02*
X156002319Y-78490476D01*
X155335652Y-77633333D02*
X156002319Y-77633333D01*
X154954700Y-77871428D02*
X155668985Y-78109523D01*
X155668985Y-78109523D02*
X155668985Y-77490476D01*
X157779819Y-79442857D02*
X157303628Y-79776190D01*
X157779819Y-80014285D02*
X156779819Y-80014285D01*
X156779819Y-80014285D02*
X156779819Y-79633333D01*
X156779819Y-79633333D02*
X156827438Y-79538095D01*
X156827438Y-79538095D02*
X156875057Y-79490476D01*
X156875057Y-79490476D02*
X156970295Y-79442857D01*
X156970295Y-79442857D02*
X157113152Y-79442857D01*
X157113152Y-79442857D02*
X157208390Y-79490476D01*
X157208390Y-79490476D02*
X157256009Y-79538095D01*
X157256009Y-79538095D02*
X157303628Y-79633333D01*
X157303628Y-79633333D02*
X157303628Y-80014285D01*
X156875057Y-79061904D02*
X156827438Y-79014285D01*
X156827438Y-79014285D02*
X156779819Y-78919047D01*
X156779819Y-78919047D02*
X156779819Y-78680952D01*
X156779819Y-78680952D02*
X156827438Y-78585714D01*
X156827438Y-78585714D02*
X156875057Y-78538095D01*
X156875057Y-78538095D02*
X156970295Y-78490476D01*
X156970295Y-78490476D02*
X157065533Y-78490476D01*
X157065533Y-78490476D02*
X157208390Y-78538095D01*
X157208390Y-78538095D02*
X157779819Y-79109523D01*
X157779819Y-79109523D02*
X157779819Y-78490476D01*
X157208390Y-77919047D02*
X157160771Y-78014285D01*
X157160771Y-78014285D02*
X157113152Y-78061904D01*
X157113152Y-78061904D02*
X157017914Y-78109523D01*
X157017914Y-78109523D02*
X156970295Y-78109523D01*
X156970295Y-78109523D02*
X156875057Y-78061904D01*
X156875057Y-78061904D02*
X156827438Y-78014285D01*
X156827438Y-78014285D02*
X156779819Y-77919047D01*
X156779819Y-77919047D02*
X156779819Y-77728571D01*
X156779819Y-77728571D02*
X156827438Y-77633333D01*
X156827438Y-77633333D02*
X156875057Y-77585714D01*
X156875057Y-77585714D02*
X156970295Y-77538095D01*
X156970295Y-77538095D02*
X157017914Y-77538095D01*
X157017914Y-77538095D02*
X157113152Y-77585714D01*
X157113152Y-77585714D02*
X157160771Y-77633333D01*
X157160771Y-77633333D02*
X157208390Y-77728571D01*
X157208390Y-77728571D02*
X157208390Y-77919047D01*
X157208390Y-77919047D02*
X157256009Y-78014285D01*
X157256009Y-78014285D02*
X157303628Y-78061904D01*
X157303628Y-78061904D02*
X157398866Y-78109523D01*
X157398866Y-78109523D02*
X157589342Y-78109523D01*
X157589342Y-78109523D02*
X157684580Y-78061904D01*
X157684580Y-78061904D02*
X157732200Y-78014285D01*
X157732200Y-78014285D02*
X157779819Y-77919047D01*
X157779819Y-77919047D02*
X157779819Y-77728571D01*
X157779819Y-77728571D02*
X157732200Y-77633333D01*
X157732200Y-77633333D02*
X157684580Y-77585714D01*
X157684580Y-77585714D02*
X157589342Y-77538095D01*
X157589342Y-77538095D02*
X157398866Y-77538095D01*
X157398866Y-77538095D02*
X157303628Y-77585714D01*
X157303628Y-77585714D02*
X157256009Y-77633333D01*
X157256009Y-77633333D02*
X157208390Y-77728571D01*
X133159580Y-75166666D02*
X133207200Y-75214285D01*
X133207200Y-75214285D02*
X133254819Y-75357142D01*
X133254819Y-75357142D02*
X133254819Y-75452380D01*
X133254819Y-75452380D02*
X133207200Y-75595237D01*
X133207200Y-75595237D02*
X133111961Y-75690475D01*
X133111961Y-75690475D02*
X133016723Y-75738094D01*
X133016723Y-75738094D02*
X132826247Y-75785713D01*
X132826247Y-75785713D02*
X132683390Y-75785713D01*
X132683390Y-75785713D02*
X132492914Y-75738094D01*
X132492914Y-75738094D02*
X132397676Y-75690475D01*
X132397676Y-75690475D02*
X132302438Y-75595237D01*
X132302438Y-75595237D02*
X132254819Y-75452380D01*
X132254819Y-75452380D02*
X132254819Y-75357142D01*
X132254819Y-75357142D02*
X132302438Y-75214285D01*
X132302438Y-75214285D02*
X132350057Y-75166666D01*
X133254819Y-74690475D02*
X133254819Y-74499999D01*
X133254819Y-74499999D02*
X133207200Y-74404761D01*
X133207200Y-74404761D02*
X133159580Y-74357142D01*
X133159580Y-74357142D02*
X133016723Y-74261904D01*
X133016723Y-74261904D02*
X132826247Y-74214285D01*
X132826247Y-74214285D02*
X132445295Y-74214285D01*
X132445295Y-74214285D02*
X132350057Y-74261904D01*
X132350057Y-74261904D02*
X132302438Y-74309523D01*
X132302438Y-74309523D02*
X132254819Y-74404761D01*
X132254819Y-74404761D02*
X132254819Y-74595237D01*
X132254819Y-74595237D02*
X132302438Y-74690475D01*
X132302438Y-74690475D02*
X132350057Y-74738094D01*
X132350057Y-74738094D02*
X132445295Y-74785713D01*
X132445295Y-74785713D02*
X132683390Y-74785713D01*
X132683390Y-74785713D02*
X132778628Y-74738094D01*
X132778628Y-74738094D02*
X132826247Y-74690475D01*
X132826247Y-74690475D02*
X132873866Y-74595237D01*
X132873866Y-74595237D02*
X132873866Y-74404761D01*
X132873866Y-74404761D02*
X132826247Y-74309523D01*
X132826247Y-74309523D02*
X132778628Y-74261904D01*
X132778628Y-74261904D02*
X132683390Y-74214285D01*
X138032142Y-80424819D02*
X137698809Y-79948628D01*
X137460714Y-80424819D02*
X137460714Y-79424819D01*
X137460714Y-79424819D02*
X137841666Y-79424819D01*
X137841666Y-79424819D02*
X137936904Y-79472438D01*
X137936904Y-79472438D02*
X137984523Y-79520057D01*
X137984523Y-79520057D02*
X138032142Y-79615295D01*
X138032142Y-79615295D02*
X138032142Y-79758152D01*
X138032142Y-79758152D02*
X137984523Y-79853390D01*
X137984523Y-79853390D02*
X137936904Y-79901009D01*
X137936904Y-79901009D02*
X137841666Y-79948628D01*
X137841666Y-79948628D02*
X137460714Y-79948628D01*
X138365476Y-79424819D02*
X138984523Y-79424819D01*
X138984523Y-79424819D02*
X138651190Y-79805771D01*
X138651190Y-79805771D02*
X138794047Y-79805771D01*
X138794047Y-79805771D02*
X138889285Y-79853390D01*
X138889285Y-79853390D02*
X138936904Y-79901009D01*
X138936904Y-79901009D02*
X138984523Y-79996247D01*
X138984523Y-79996247D02*
X138984523Y-80234342D01*
X138984523Y-80234342D02*
X138936904Y-80329580D01*
X138936904Y-80329580D02*
X138889285Y-80377200D01*
X138889285Y-80377200D02*
X138794047Y-80424819D01*
X138794047Y-80424819D02*
X138508333Y-80424819D01*
X138508333Y-80424819D02*
X138413095Y-80377200D01*
X138413095Y-80377200D02*
X138365476Y-80329580D01*
X139603571Y-79424819D02*
X139698809Y-79424819D01*
X139698809Y-79424819D02*
X139794047Y-79472438D01*
X139794047Y-79472438D02*
X139841666Y-79520057D01*
X139841666Y-79520057D02*
X139889285Y-79615295D01*
X139889285Y-79615295D02*
X139936904Y-79805771D01*
X139936904Y-79805771D02*
X139936904Y-80043866D01*
X139936904Y-80043866D02*
X139889285Y-80234342D01*
X139889285Y-80234342D02*
X139841666Y-80329580D01*
X139841666Y-80329580D02*
X139794047Y-80377200D01*
X139794047Y-80377200D02*
X139698809Y-80424819D01*
X139698809Y-80424819D02*
X139603571Y-80424819D01*
X139603571Y-80424819D02*
X139508333Y-80377200D01*
X139508333Y-80377200D02*
X139460714Y-80329580D01*
X139460714Y-80329580D02*
X139413095Y-80234342D01*
X139413095Y-80234342D02*
X139365476Y-80043866D01*
X139365476Y-80043866D02*
X139365476Y-79805771D01*
X139365476Y-79805771D02*
X139413095Y-79615295D01*
X139413095Y-79615295D02*
X139460714Y-79520057D01*
X139460714Y-79520057D02*
X139508333Y-79472438D01*
X139508333Y-79472438D02*
X139603571Y-79424819D01*
X127750892Y-84432119D02*
X127417559Y-83955928D01*
X127179464Y-84432119D02*
X127179464Y-83432119D01*
X127179464Y-83432119D02*
X127560416Y-83432119D01*
X127560416Y-83432119D02*
X127655654Y-83479738D01*
X127655654Y-83479738D02*
X127703273Y-83527357D01*
X127703273Y-83527357D02*
X127750892Y-83622595D01*
X127750892Y-83622595D02*
X127750892Y-83765452D01*
X127750892Y-83765452D02*
X127703273Y-83860690D01*
X127703273Y-83860690D02*
X127655654Y-83908309D01*
X127655654Y-83908309D02*
X127560416Y-83955928D01*
X127560416Y-83955928D02*
X127179464Y-83955928D01*
X128703273Y-84432119D02*
X128131845Y-84432119D01*
X128417559Y-84432119D02*
X128417559Y-83432119D01*
X128417559Y-83432119D02*
X128322321Y-83574976D01*
X128322321Y-83574976D02*
X128227083Y-83670214D01*
X128227083Y-83670214D02*
X128131845Y-83717833D01*
X129608035Y-83432119D02*
X129131845Y-83432119D01*
X129131845Y-83432119D02*
X129084226Y-83908309D01*
X129084226Y-83908309D02*
X129131845Y-83860690D01*
X129131845Y-83860690D02*
X129227083Y-83813071D01*
X129227083Y-83813071D02*
X129465178Y-83813071D01*
X129465178Y-83813071D02*
X129560416Y-83860690D01*
X129560416Y-83860690D02*
X129608035Y-83908309D01*
X129608035Y-83908309D02*
X129655654Y-84003547D01*
X129655654Y-84003547D02*
X129655654Y-84241642D01*
X129655654Y-84241642D02*
X129608035Y-84336880D01*
X129608035Y-84336880D02*
X129560416Y-84384500D01*
X129560416Y-84384500D02*
X129465178Y-84432119D01*
X129465178Y-84432119D02*
X129227083Y-84432119D01*
X129227083Y-84432119D02*
X129131845Y-84384500D01*
X129131845Y-84384500D02*
X129084226Y-84336880D01*
X150558333Y-104429580D02*
X150510714Y-104477200D01*
X150510714Y-104477200D02*
X150367857Y-104524819D01*
X150367857Y-104524819D02*
X150272619Y-104524819D01*
X150272619Y-104524819D02*
X150129762Y-104477200D01*
X150129762Y-104477200D02*
X150034524Y-104381961D01*
X150034524Y-104381961D02*
X149986905Y-104286723D01*
X149986905Y-104286723D02*
X149939286Y-104096247D01*
X149939286Y-104096247D02*
X149939286Y-103953390D01*
X149939286Y-103953390D02*
X149986905Y-103762914D01*
X149986905Y-103762914D02*
X150034524Y-103667676D01*
X150034524Y-103667676D02*
X150129762Y-103572438D01*
X150129762Y-103572438D02*
X150272619Y-103524819D01*
X150272619Y-103524819D02*
X150367857Y-103524819D01*
X150367857Y-103524819D02*
X150510714Y-103572438D01*
X150510714Y-103572438D02*
X150558333Y-103620057D01*
X150891667Y-103524819D02*
X151558333Y-103524819D01*
X151558333Y-103524819D02*
X151129762Y-104524819D01*
X152524819Y-106142857D02*
X152048628Y-106476190D01*
X152524819Y-106714285D02*
X151524819Y-106714285D01*
X151524819Y-106714285D02*
X151524819Y-106333333D01*
X151524819Y-106333333D02*
X151572438Y-106238095D01*
X151572438Y-106238095D02*
X151620057Y-106190476D01*
X151620057Y-106190476D02*
X151715295Y-106142857D01*
X151715295Y-106142857D02*
X151858152Y-106142857D01*
X151858152Y-106142857D02*
X151953390Y-106190476D01*
X151953390Y-106190476D02*
X152001009Y-106238095D01*
X152001009Y-106238095D02*
X152048628Y-106333333D01*
X152048628Y-106333333D02*
X152048628Y-106714285D01*
X151620057Y-105761904D02*
X151572438Y-105714285D01*
X151572438Y-105714285D02*
X151524819Y-105619047D01*
X151524819Y-105619047D02*
X151524819Y-105380952D01*
X151524819Y-105380952D02*
X151572438Y-105285714D01*
X151572438Y-105285714D02*
X151620057Y-105238095D01*
X151620057Y-105238095D02*
X151715295Y-105190476D01*
X151715295Y-105190476D02*
X151810533Y-105190476D01*
X151810533Y-105190476D02*
X151953390Y-105238095D01*
X151953390Y-105238095D02*
X152524819Y-105809523D01*
X152524819Y-105809523D02*
X152524819Y-105190476D01*
X151524819Y-104571428D02*
X151524819Y-104476190D01*
X151524819Y-104476190D02*
X151572438Y-104380952D01*
X151572438Y-104380952D02*
X151620057Y-104333333D01*
X151620057Y-104333333D02*
X151715295Y-104285714D01*
X151715295Y-104285714D02*
X151905771Y-104238095D01*
X151905771Y-104238095D02*
X152143866Y-104238095D01*
X152143866Y-104238095D02*
X152334342Y-104285714D01*
X152334342Y-104285714D02*
X152429580Y-104333333D01*
X152429580Y-104333333D02*
X152477200Y-104380952D01*
X152477200Y-104380952D02*
X152524819Y-104476190D01*
X152524819Y-104476190D02*
X152524819Y-104571428D01*
X152524819Y-104571428D02*
X152477200Y-104666666D01*
X152477200Y-104666666D02*
X152429580Y-104714285D01*
X152429580Y-104714285D02*
X152334342Y-104761904D01*
X152334342Y-104761904D02*
X152143866Y-104809523D01*
X152143866Y-104809523D02*
X151905771Y-104809523D01*
X151905771Y-104809523D02*
X151715295Y-104761904D01*
X151715295Y-104761904D02*
X151620057Y-104714285D01*
X151620057Y-104714285D02*
X151572438Y-104666666D01*
X151572438Y-104666666D02*
X151524819Y-104571428D01*
X121082142Y-96929580D02*
X121034523Y-96977200D01*
X121034523Y-96977200D02*
X120891666Y-97024819D01*
X120891666Y-97024819D02*
X120796428Y-97024819D01*
X120796428Y-97024819D02*
X120653571Y-96977200D01*
X120653571Y-96977200D02*
X120558333Y-96881961D01*
X120558333Y-96881961D02*
X120510714Y-96786723D01*
X120510714Y-96786723D02*
X120463095Y-96596247D01*
X120463095Y-96596247D02*
X120463095Y-96453390D01*
X120463095Y-96453390D02*
X120510714Y-96262914D01*
X120510714Y-96262914D02*
X120558333Y-96167676D01*
X120558333Y-96167676D02*
X120653571Y-96072438D01*
X120653571Y-96072438D02*
X120796428Y-96024819D01*
X120796428Y-96024819D02*
X120891666Y-96024819D01*
X120891666Y-96024819D02*
X121034523Y-96072438D01*
X121034523Y-96072438D02*
X121082142Y-96120057D01*
X122034523Y-97024819D02*
X121463095Y-97024819D01*
X121748809Y-97024819D02*
X121748809Y-96024819D01*
X121748809Y-96024819D02*
X121653571Y-96167676D01*
X121653571Y-96167676D02*
X121558333Y-96262914D01*
X121558333Y-96262914D02*
X121463095Y-96310533D01*
X122510714Y-97024819D02*
X122701190Y-97024819D01*
X122701190Y-97024819D02*
X122796428Y-96977200D01*
X122796428Y-96977200D02*
X122844047Y-96929580D01*
X122844047Y-96929580D02*
X122939285Y-96786723D01*
X122939285Y-96786723D02*
X122986904Y-96596247D01*
X122986904Y-96596247D02*
X122986904Y-96215295D01*
X122986904Y-96215295D02*
X122939285Y-96120057D01*
X122939285Y-96120057D02*
X122891666Y-96072438D01*
X122891666Y-96072438D02*
X122796428Y-96024819D01*
X122796428Y-96024819D02*
X122605952Y-96024819D01*
X122605952Y-96024819D02*
X122510714Y-96072438D01*
X122510714Y-96072438D02*
X122463095Y-96120057D01*
X122463095Y-96120057D02*
X122415476Y-96215295D01*
X122415476Y-96215295D02*
X122415476Y-96453390D01*
X122415476Y-96453390D02*
X122463095Y-96548628D01*
X122463095Y-96548628D02*
X122510714Y-96596247D01*
X122510714Y-96596247D02*
X122605952Y-96643866D01*
X122605952Y-96643866D02*
X122796428Y-96643866D01*
X122796428Y-96643866D02*
X122891666Y-96596247D01*
X122891666Y-96596247D02*
X122939285Y-96548628D01*
X122939285Y-96548628D02*
X122986904Y-96453390D01*
X141024819Y-84367857D02*
X140548628Y-84701190D01*
X141024819Y-84939285D02*
X140024819Y-84939285D01*
X140024819Y-84939285D02*
X140024819Y-84558333D01*
X140024819Y-84558333D02*
X140072438Y-84463095D01*
X140072438Y-84463095D02*
X140120057Y-84415476D01*
X140120057Y-84415476D02*
X140215295Y-84367857D01*
X140215295Y-84367857D02*
X140358152Y-84367857D01*
X140358152Y-84367857D02*
X140453390Y-84415476D01*
X140453390Y-84415476D02*
X140501009Y-84463095D01*
X140501009Y-84463095D02*
X140548628Y-84558333D01*
X140548628Y-84558333D02*
X140548628Y-84939285D01*
X140120057Y-83986904D02*
X140072438Y-83939285D01*
X140072438Y-83939285D02*
X140024819Y-83844047D01*
X140024819Y-83844047D02*
X140024819Y-83605952D01*
X140024819Y-83605952D02*
X140072438Y-83510714D01*
X140072438Y-83510714D02*
X140120057Y-83463095D01*
X140120057Y-83463095D02*
X140215295Y-83415476D01*
X140215295Y-83415476D02*
X140310533Y-83415476D01*
X140310533Y-83415476D02*
X140453390Y-83463095D01*
X140453390Y-83463095D02*
X141024819Y-84034523D01*
X141024819Y-84034523D02*
X141024819Y-83415476D01*
X140024819Y-83082142D02*
X140024819Y-82415476D01*
X140024819Y-82415476D02*
X141024819Y-82844047D01*
X121902083Y-84432119D02*
X121568750Y-83955928D01*
X121330655Y-84432119D02*
X121330655Y-83432119D01*
X121330655Y-83432119D02*
X121711607Y-83432119D01*
X121711607Y-83432119D02*
X121806845Y-83479738D01*
X121806845Y-83479738D02*
X121854464Y-83527357D01*
X121854464Y-83527357D02*
X121902083Y-83622595D01*
X121902083Y-83622595D02*
X121902083Y-83765452D01*
X121902083Y-83765452D02*
X121854464Y-83860690D01*
X121854464Y-83860690D02*
X121806845Y-83908309D01*
X121806845Y-83908309D02*
X121711607Y-83955928D01*
X121711607Y-83955928D02*
X121330655Y-83955928D01*
X122378274Y-84432119D02*
X122568750Y-84432119D01*
X122568750Y-84432119D02*
X122663988Y-84384500D01*
X122663988Y-84384500D02*
X122711607Y-84336880D01*
X122711607Y-84336880D02*
X122806845Y-84194023D01*
X122806845Y-84194023D02*
X122854464Y-84003547D01*
X122854464Y-84003547D02*
X122854464Y-83622595D01*
X122854464Y-83622595D02*
X122806845Y-83527357D01*
X122806845Y-83527357D02*
X122759226Y-83479738D01*
X122759226Y-83479738D02*
X122663988Y-83432119D01*
X122663988Y-83432119D02*
X122473512Y-83432119D01*
X122473512Y-83432119D02*
X122378274Y-83479738D01*
X122378274Y-83479738D02*
X122330655Y-83527357D01*
X122330655Y-83527357D02*
X122283036Y-83622595D01*
X122283036Y-83622595D02*
X122283036Y-83860690D01*
X122283036Y-83860690D02*
X122330655Y-83955928D01*
X122330655Y-83955928D02*
X122378274Y-84003547D01*
X122378274Y-84003547D02*
X122473512Y-84051166D01*
X122473512Y-84051166D02*
X122663988Y-84051166D01*
X122663988Y-84051166D02*
X122759226Y-84003547D01*
X122759226Y-84003547D02*
X122806845Y-83955928D01*
X122806845Y-83955928D02*
X122854464Y-83860690D01*
X122357142Y-105454819D02*
X122023809Y-104978628D01*
X121785714Y-105454819D02*
X121785714Y-104454819D01*
X121785714Y-104454819D02*
X122166666Y-104454819D01*
X122166666Y-104454819D02*
X122261904Y-104502438D01*
X122261904Y-104502438D02*
X122309523Y-104550057D01*
X122309523Y-104550057D02*
X122357142Y-104645295D01*
X122357142Y-104645295D02*
X122357142Y-104788152D01*
X122357142Y-104788152D02*
X122309523Y-104883390D01*
X122309523Y-104883390D02*
X122261904Y-104931009D01*
X122261904Y-104931009D02*
X122166666Y-104978628D01*
X122166666Y-104978628D02*
X121785714Y-104978628D01*
X123214285Y-104788152D02*
X123214285Y-105454819D01*
X122976190Y-104407200D02*
X122738095Y-105121485D01*
X122738095Y-105121485D02*
X123357142Y-105121485D01*
X124166666Y-104788152D02*
X124166666Y-105454819D01*
X123928571Y-104407200D02*
X123690476Y-105121485D01*
X123690476Y-105121485D02*
X124309523Y-105121485D01*
X119857142Y-102454819D02*
X119523809Y-101978628D01*
X119285714Y-102454819D02*
X119285714Y-101454819D01*
X119285714Y-101454819D02*
X119666666Y-101454819D01*
X119666666Y-101454819D02*
X119761904Y-101502438D01*
X119761904Y-101502438D02*
X119809523Y-101550057D01*
X119809523Y-101550057D02*
X119857142Y-101645295D01*
X119857142Y-101645295D02*
X119857142Y-101788152D01*
X119857142Y-101788152D02*
X119809523Y-101883390D01*
X119809523Y-101883390D02*
X119761904Y-101931009D01*
X119761904Y-101931009D02*
X119666666Y-101978628D01*
X119666666Y-101978628D02*
X119285714Y-101978628D01*
X120190476Y-101454819D02*
X120809523Y-101454819D01*
X120809523Y-101454819D02*
X120476190Y-101835771D01*
X120476190Y-101835771D02*
X120619047Y-101835771D01*
X120619047Y-101835771D02*
X120714285Y-101883390D01*
X120714285Y-101883390D02*
X120761904Y-101931009D01*
X120761904Y-101931009D02*
X120809523Y-102026247D01*
X120809523Y-102026247D02*
X120809523Y-102264342D01*
X120809523Y-102264342D02*
X120761904Y-102359580D01*
X120761904Y-102359580D02*
X120714285Y-102407200D01*
X120714285Y-102407200D02*
X120619047Y-102454819D01*
X120619047Y-102454819D02*
X120333333Y-102454819D01*
X120333333Y-102454819D02*
X120238095Y-102407200D01*
X120238095Y-102407200D02*
X120190476Y-102359580D01*
X121380952Y-101883390D02*
X121285714Y-101835771D01*
X121285714Y-101835771D02*
X121238095Y-101788152D01*
X121238095Y-101788152D02*
X121190476Y-101692914D01*
X121190476Y-101692914D02*
X121190476Y-101645295D01*
X121190476Y-101645295D02*
X121238095Y-101550057D01*
X121238095Y-101550057D02*
X121285714Y-101502438D01*
X121285714Y-101502438D02*
X121380952Y-101454819D01*
X121380952Y-101454819D02*
X121571428Y-101454819D01*
X121571428Y-101454819D02*
X121666666Y-101502438D01*
X121666666Y-101502438D02*
X121714285Y-101550057D01*
X121714285Y-101550057D02*
X121761904Y-101645295D01*
X121761904Y-101645295D02*
X121761904Y-101692914D01*
X121761904Y-101692914D02*
X121714285Y-101788152D01*
X121714285Y-101788152D02*
X121666666Y-101835771D01*
X121666666Y-101835771D02*
X121571428Y-101883390D01*
X121571428Y-101883390D02*
X121380952Y-101883390D01*
X121380952Y-101883390D02*
X121285714Y-101931009D01*
X121285714Y-101931009D02*
X121238095Y-101978628D01*
X121238095Y-101978628D02*
X121190476Y-102073866D01*
X121190476Y-102073866D02*
X121190476Y-102264342D01*
X121190476Y-102264342D02*
X121238095Y-102359580D01*
X121238095Y-102359580D02*
X121285714Y-102407200D01*
X121285714Y-102407200D02*
X121380952Y-102454819D01*
X121380952Y-102454819D02*
X121571428Y-102454819D01*
X121571428Y-102454819D02*
X121666666Y-102407200D01*
X121666666Y-102407200D02*
X121714285Y-102359580D01*
X121714285Y-102359580D02*
X121761904Y-102264342D01*
X121761904Y-102264342D02*
X121761904Y-102073866D01*
X121761904Y-102073866D02*
X121714285Y-101978628D01*
X121714285Y-101978628D02*
X121666666Y-101931009D01*
X121666666Y-101931009D02*
X121571428Y-101883390D01*
X148357142Y-109454819D02*
X148023809Y-108978628D01*
X147785714Y-109454819D02*
X147785714Y-108454819D01*
X147785714Y-108454819D02*
X148166666Y-108454819D01*
X148166666Y-108454819D02*
X148261904Y-108502438D01*
X148261904Y-108502438D02*
X148309523Y-108550057D01*
X148309523Y-108550057D02*
X148357142Y-108645295D01*
X148357142Y-108645295D02*
X148357142Y-108788152D01*
X148357142Y-108788152D02*
X148309523Y-108883390D01*
X148309523Y-108883390D02*
X148261904Y-108931009D01*
X148261904Y-108931009D02*
X148166666Y-108978628D01*
X148166666Y-108978628D02*
X147785714Y-108978628D01*
X149309523Y-109454819D02*
X148738095Y-109454819D01*
X149023809Y-109454819D02*
X149023809Y-108454819D01*
X149023809Y-108454819D02*
X148928571Y-108597676D01*
X148928571Y-108597676D02*
X148833333Y-108692914D01*
X148833333Y-108692914D02*
X148738095Y-108740533D01*
X149880952Y-108883390D02*
X149785714Y-108835771D01*
X149785714Y-108835771D02*
X149738095Y-108788152D01*
X149738095Y-108788152D02*
X149690476Y-108692914D01*
X149690476Y-108692914D02*
X149690476Y-108645295D01*
X149690476Y-108645295D02*
X149738095Y-108550057D01*
X149738095Y-108550057D02*
X149785714Y-108502438D01*
X149785714Y-108502438D02*
X149880952Y-108454819D01*
X149880952Y-108454819D02*
X150071428Y-108454819D01*
X150071428Y-108454819D02*
X150166666Y-108502438D01*
X150166666Y-108502438D02*
X150214285Y-108550057D01*
X150214285Y-108550057D02*
X150261904Y-108645295D01*
X150261904Y-108645295D02*
X150261904Y-108692914D01*
X150261904Y-108692914D02*
X150214285Y-108788152D01*
X150214285Y-108788152D02*
X150166666Y-108835771D01*
X150166666Y-108835771D02*
X150071428Y-108883390D01*
X150071428Y-108883390D02*
X149880952Y-108883390D01*
X149880952Y-108883390D02*
X149785714Y-108931009D01*
X149785714Y-108931009D02*
X149738095Y-108978628D01*
X149738095Y-108978628D02*
X149690476Y-109073866D01*
X149690476Y-109073866D02*
X149690476Y-109264342D01*
X149690476Y-109264342D02*
X149738095Y-109359580D01*
X149738095Y-109359580D02*
X149785714Y-109407200D01*
X149785714Y-109407200D02*
X149880952Y-109454819D01*
X149880952Y-109454819D02*
X150071428Y-109454819D01*
X150071428Y-109454819D02*
X150166666Y-109407200D01*
X150166666Y-109407200D02*
X150214285Y-109359580D01*
X150214285Y-109359580D02*
X150261904Y-109264342D01*
X150261904Y-109264342D02*
X150261904Y-109073866D01*
X150261904Y-109073866D02*
X150214285Y-108978628D01*
X150214285Y-108978628D02*
X150166666Y-108931009D01*
X150166666Y-108931009D02*
X150071428Y-108883390D01*
X159954819Y-84642857D02*
X159478628Y-84976190D01*
X159954819Y-85214285D02*
X158954819Y-85214285D01*
X158954819Y-85214285D02*
X158954819Y-84833333D01*
X158954819Y-84833333D02*
X159002438Y-84738095D01*
X159002438Y-84738095D02*
X159050057Y-84690476D01*
X159050057Y-84690476D02*
X159145295Y-84642857D01*
X159145295Y-84642857D02*
X159288152Y-84642857D01*
X159288152Y-84642857D02*
X159383390Y-84690476D01*
X159383390Y-84690476D02*
X159431009Y-84738095D01*
X159431009Y-84738095D02*
X159478628Y-84833333D01*
X159478628Y-84833333D02*
X159478628Y-85214285D01*
X159050057Y-84261904D02*
X159002438Y-84214285D01*
X159002438Y-84214285D02*
X158954819Y-84119047D01*
X158954819Y-84119047D02*
X158954819Y-83880952D01*
X158954819Y-83880952D02*
X159002438Y-83785714D01*
X159002438Y-83785714D02*
X159050057Y-83738095D01*
X159050057Y-83738095D02*
X159145295Y-83690476D01*
X159145295Y-83690476D02*
X159240533Y-83690476D01*
X159240533Y-83690476D02*
X159383390Y-83738095D01*
X159383390Y-83738095D02*
X159954819Y-84309523D01*
X159954819Y-84309523D02*
X159954819Y-83690476D01*
X158954819Y-82785714D02*
X158954819Y-83261904D01*
X158954819Y-83261904D02*
X159431009Y-83309523D01*
X159431009Y-83309523D02*
X159383390Y-83261904D01*
X159383390Y-83261904D02*
X159335771Y-83166666D01*
X159335771Y-83166666D02*
X159335771Y-82928571D01*
X159335771Y-82928571D02*
X159383390Y-82833333D01*
X159383390Y-82833333D02*
X159431009Y-82785714D01*
X159431009Y-82785714D02*
X159526247Y-82738095D01*
X159526247Y-82738095D02*
X159764342Y-82738095D01*
X159764342Y-82738095D02*
X159859580Y-82785714D01*
X159859580Y-82785714D02*
X159907200Y-82833333D01*
X159907200Y-82833333D02*
X159954819Y-82928571D01*
X159954819Y-82928571D02*
X159954819Y-83166666D01*
X159954819Y-83166666D02*
X159907200Y-83261904D01*
X159907200Y-83261904D02*
X159859580Y-83309523D01*
X153929580Y-97367857D02*
X153977200Y-97415476D01*
X153977200Y-97415476D02*
X154024819Y-97558333D01*
X154024819Y-97558333D02*
X154024819Y-97653571D01*
X154024819Y-97653571D02*
X153977200Y-97796428D01*
X153977200Y-97796428D02*
X153881961Y-97891666D01*
X153881961Y-97891666D02*
X153786723Y-97939285D01*
X153786723Y-97939285D02*
X153596247Y-97986904D01*
X153596247Y-97986904D02*
X153453390Y-97986904D01*
X153453390Y-97986904D02*
X153262914Y-97939285D01*
X153262914Y-97939285D02*
X153167676Y-97891666D01*
X153167676Y-97891666D02*
X153072438Y-97796428D01*
X153072438Y-97796428D02*
X153024819Y-97653571D01*
X153024819Y-97653571D02*
X153024819Y-97558333D01*
X153024819Y-97558333D02*
X153072438Y-97415476D01*
X153072438Y-97415476D02*
X153120057Y-97367857D01*
X154024819Y-96415476D02*
X154024819Y-96986904D01*
X154024819Y-96701190D02*
X153024819Y-96701190D01*
X153024819Y-96701190D02*
X153167676Y-96796428D01*
X153167676Y-96796428D02*
X153262914Y-96891666D01*
X153262914Y-96891666D02*
X153310533Y-96986904D01*
X153358152Y-95558333D02*
X154024819Y-95558333D01*
X152977200Y-95796428D02*
X153691485Y-96034523D01*
X153691485Y-96034523D02*
X153691485Y-95415476D01*
X152882142Y-86289580D02*
X152834523Y-86337200D01*
X152834523Y-86337200D02*
X152691666Y-86384819D01*
X152691666Y-86384819D02*
X152596428Y-86384819D01*
X152596428Y-86384819D02*
X152453571Y-86337200D01*
X152453571Y-86337200D02*
X152358333Y-86241961D01*
X152358333Y-86241961D02*
X152310714Y-86146723D01*
X152310714Y-86146723D02*
X152263095Y-85956247D01*
X152263095Y-85956247D02*
X152263095Y-85813390D01*
X152263095Y-85813390D02*
X152310714Y-85622914D01*
X152310714Y-85622914D02*
X152358333Y-85527676D01*
X152358333Y-85527676D02*
X152453571Y-85432438D01*
X152453571Y-85432438D02*
X152596428Y-85384819D01*
X152596428Y-85384819D02*
X152691666Y-85384819D01*
X152691666Y-85384819D02*
X152834523Y-85432438D01*
X152834523Y-85432438D02*
X152882142Y-85480057D01*
X153834523Y-86384819D02*
X153263095Y-86384819D01*
X153548809Y-86384819D02*
X153548809Y-85384819D01*
X153548809Y-85384819D02*
X153453571Y-85527676D01*
X153453571Y-85527676D02*
X153358333Y-85622914D01*
X153358333Y-85622914D02*
X153263095Y-85670533D01*
X154167857Y-85384819D02*
X154834523Y-85384819D01*
X154834523Y-85384819D02*
X154405952Y-86384819D01*
X120857142Y-109784819D02*
X120523809Y-109308628D01*
X120285714Y-109784819D02*
X120285714Y-108784819D01*
X120285714Y-108784819D02*
X120666666Y-108784819D01*
X120666666Y-108784819D02*
X120761904Y-108832438D01*
X120761904Y-108832438D02*
X120809523Y-108880057D01*
X120809523Y-108880057D02*
X120857142Y-108975295D01*
X120857142Y-108975295D02*
X120857142Y-109118152D01*
X120857142Y-109118152D02*
X120809523Y-109213390D01*
X120809523Y-109213390D02*
X120761904Y-109261009D01*
X120761904Y-109261009D02*
X120666666Y-109308628D01*
X120666666Y-109308628D02*
X120285714Y-109308628D01*
X121714285Y-109118152D02*
X121714285Y-109784819D01*
X121476190Y-108737200D02*
X121238095Y-109451485D01*
X121238095Y-109451485D02*
X121857142Y-109451485D01*
X122142857Y-108784819D02*
X122809523Y-108784819D01*
X122809523Y-108784819D02*
X122380952Y-109784819D01*
X161304819Y-111055357D02*
X160828628Y-111388690D01*
X161304819Y-111626785D02*
X160304819Y-111626785D01*
X160304819Y-111626785D02*
X160304819Y-111245833D01*
X160304819Y-111245833D02*
X160352438Y-111150595D01*
X160352438Y-111150595D02*
X160400057Y-111102976D01*
X160400057Y-111102976D02*
X160495295Y-111055357D01*
X160495295Y-111055357D02*
X160638152Y-111055357D01*
X160638152Y-111055357D02*
X160733390Y-111102976D01*
X160733390Y-111102976D02*
X160781009Y-111150595D01*
X160781009Y-111150595D02*
X160828628Y-111245833D01*
X160828628Y-111245833D02*
X160828628Y-111626785D01*
X160638152Y-110198214D02*
X161304819Y-110198214D01*
X160257200Y-110436309D02*
X160971485Y-110674404D01*
X160971485Y-110674404D02*
X160971485Y-110055357D01*
X160304819Y-109483928D02*
X160304819Y-109388690D01*
X160304819Y-109388690D02*
X160352438Y-109293452D01*
X160352438Y-109293452D02*
X160400057Y-109245833D01*
X160400057Y-109245833D02*
X160495295Y-109198214D01*
X160495295Y-109198214D02*
X160685771Y-109150595D01*
X160685771Y-109150595D02*
X160923866Y-109150595D01*
X160923866Y-109150595D02*
X161114342Y-109198214D01*
X161114342Y-109198214D02*
X161209580Y-109245833D01*
X161209580Y-109245833D02*
X161257200Y-109293452D01*
X161257200Y-109293452D02*
X161304819Y-109388690D01*
X161304819Y-109388690D02*
X161304819Y-109483928D01*
X161304819Y-109483928D02*
X161257200Y-109579166D01*
X161257200Y-109579166D02*
X161209580Y-109626785D01*
X161209580Y-109626785D02*
X161114342Y-109674404D01*
X161114342Y-109674404D02*
X160923866Y-109722023D01*
X160923866Y-109722023D02*
X160685771Y-109722023D01*
X160685771Y-109722023D02*
X160495295Y-109674404D01*
X160495295Y-109674404D02*
X160400057Y-109626785D01*
X160400057Y-109626785D02*
X160352438Y-109579166D01*
X160352438Y-109579166D02*
X160304819Y-109483928D01*
X120857142Y-107784819D02*
X120523809Y-107308628D01*
X120285714Y-107784819D02*
X120285714Y-106784819D01*
X120285714Y-106784819D02*
X120666666Y-106784819D01*
X120666666Y-106784819D02*
X120761904Y-106832438D01*
X120761904Y-106832438D02*
X120809523Y-106880057D01*
X120809523Y-106880057D02*
X120857142Y-106975295D01*
X120857142Y-106975295D02*
X120857142Y-107118152D01*
X120857142Y-107118152D02*
X120809523Y-107213390D01*
X120809523Y-107213390D02*
X120761904Y-107261009D01*
X120761904Y-107261009D02*
X120666666Y-107308628D01*
X120666666Y-107308628D02*
X120285714Y-107308628D01*
X121714285Y-107118152D02*
X121714285Y-107784819D01*
X121476190Y-106737200D02*
X121238095Y-107451485D01*
X121238095Y-107451485D02*
X121857142Y-107451485D01*
X122714285Y-106784819D02*
X122238095Y-106784819D01*
X122238095Y-106784819D02*
X122190476Y-107261009D01*
X122190476Y-107261009D02*
X122238095Y-107213390D01*
X122238095Y-107213390D02*
X122333333Y-107165771D01*
X122333333Y-107165771D02*
X122571428Y-107165771D01*
X122571428Y-107165771D02*
X122666666Y-107213390D01*
X122666666Y-107213390D02*
X122714285Y-107261009D01*
X122714285Y-107261009D02*
X122761904Y-107356247D01*
X122761904Y-107356247D02*
X122761904Y-107594342D01*
X122761904Y-107594342D02*
X122714285Y-107689580D01*
X122714285Y-107689580D02*
X122666666Y-107737200D01*
X122666666Y-107737200D02*
X122571428Y-107784819D01*
X122571428Y-107784819D02*
X122333333Y-107784819D01*
X122333333Y-107784819D02*
X122238095Y-107737200D01*
X122238095Y-107737200D02*
X122190476Y-107689580D01*
X159500000Y-107946009D02*
X159833333Y-107946009D01*
X159976190Y-108469819D02*
X159500000Y-108469819D01*
X159500000Y-108469819D02*
X159500000Y-107469819D01*
X159500000Y-107469819D02*
X159976190Y-107469819D01*
X160928571Y-107517438D02*
X160833333Y-107469819D01*
X160833333Y-107469819D02*
X160690476Y-107469819D01*
X160690476Y-107469819D02*
X160547619Y-107517438D01*
X160547619Y-107517438D02*
X160452381Y-107612676D01*
X160452381Y-107612676D02*
X160404762Y-107707914D01*
X160404762Y-107707914D02*
X160357143Y-107898390D01*
X160357143Y-107898390D02*
X160357143Y-108041247D01*
X160357143Y-108041247D02*
X160404762Y-108231723D01*
X160404762Y-108231723D02*
X160452381Y-108326961D01*
X160452381Y-108326961D02*
X160547619Y-108422200D01*
X160547619Y-108422200D02*
X160690476Y-108469819D01*
X160690476Y-108469819D02*
X160785714Y-108469819D01*
X160785714Y-108469819D02*
X160928571Y-108422200D01*
X160928571Y-108422200D02*
X160976190Y-108374580D01*
X160976190Y-108374580D02*
X160976190Y-108041247D01*
X160976190Y-108041247D02*
X160785714Y-108041247D01*
X161928571Y-108469819D02*
X161357143Y-108469819D01*
X161642857Y-108469819D02*
X161642857Y-107469819D01*
X161642857Y-107469819D02*
X161547619Y-107612676D01*
X161547619Y-107612676D02*
X161452381Y-107707914D01*
X161452381Y-107707914D02*
X161357143Y-107755533D01*
X162880952Y-108469819D02*
X162309524Y-108469819D01*
X162595238Y-108469819D02*
X162595238Y-107469819D01*
X162595238Y-107469819D02*
X162500000Y-107612676D01*
X162500000Y-107612676D02*
X162404762Y-107707914D01*
X162404762Y-107707914D02*
X162309524Y-107755533D01*
X163357143Y-108469819D02*
X163547619Y-108469819D01*
X163547619Y-108469819D02*
X163642857Y-108422200D01*
X163642857Y-108422200D02*
X163690476Y-108374580D01*
X163690476Y-108374580D02*
X163785714Y-108231723D01*
X163785714Y-108231723D02*
X163833333Y-108041247D01*
X163833333Y-108041247D02*
X163833333Y-107660295D01*
X163833333Y-107660295D02*
X163785714Y-107565057D01*
X163785714Y-107565057D02*
X163738095Y-107517438D01*
X163738095Y-107517438D02*
X163642857Y-107469819D01*
X163642857Y-107469819D02*
X163452381Y-107469819D01*
X163452381Y-107469819D02*
X163357143Y-107517438D01*
X163357143Y-107517438D02*
X163309524Y-107565057D01*
X163309524Y-107565057D02*
X163261905Y-107660295D01*
X163261905Y-107660295D02*
X163261905Y-107898390D01*
X163261905Y-107898390D02*
X163309524Y-107993628D01*
X163309524Y-107993628D02*
X163357143Y-108041247D01*
X163357143Y-108041247D02*
X163452381Y-108088866D01*
X163452381Y-108088866D02*
X163642857Y-108088866D01*
X163642857Y-108088866D02*
X163738095Y-108041247D01*
X163738095Y-108041247D02*
X163785714Y-107993628D01*
X163785714Y-107993628D02*
X163833333Y-107898390D01*
X164214286Y-107565057D02*
X164261905Y-107517438D01*
X164261905Y-107517438D02*
X164357143Y-107469819D01*
X164357143Y-107469819D02*
X164595238Y-107469819D01*
X164595238Y-107469819D02*
X164690476Y-107517438D01*
X164690476Y-107517438D02*
X164738095Y-107565057D01*
X164738095Y-107565057D02*
X164785714Y-107660295D01*
X164785714Y-107660295D02*
X164785714Y-107755533D01*
X164785714Y-107755533D02*
X164738095Y-107898390D01*
X164738095Y-107898390D02*
X164166667Y-108469819D01*
X164166667Y-108469819D02*
X164785714Y-108469819D01*
X165690476Y-108469819D02*
X165214286Y-108469819D01*
X165214286Y-108469819D02*
X165214286Y-107469819D01*
X166547619Y-108469819D02*
X165976191Y-108469819D01*
X166261905Y-108469819D02*
X166261905Y-107469819D01*
X166261905Y-107469819D02*
X166166667Y-107612676D01*
X166166667Y-107612676D02*
X166071429Y-107707914D01*
X166071429Y-107707914D02*
X165976191Y-107755533D01*
X138032142Y-85384819D02*
X137698809Y-84908628D01*
X137460714Y-85384819D02*
X137460714Y-84384819D01*
X137460714Y-84384819D02*
X137841666Y-84384819D01*
X137841666Y-84384819D02*
X137936904Y-84432438D01*
X137936904Y-84432438D02*
X137984523Y-84480057D01*
X137984523Y-84480057D02*
X138032142Y-84575295D01*
X138032142Y-84575295D02*
X138032142Y-84718152D01*
X138032142Y-84718152D02*
X137984523Y-84813390D01*
X137984523Y-84813390D02*
X137936904Y-84861009D01*
X137936904Y-84861009D02*
X137841666Y-84908628D01*
X137841666Y-84908628D02*
X137460714Y-84908628D01*
X138365476Y-84384819D02*
X138984523Y-84384819D01*
X138984523Y-84384819D02*
X138651190Y-84765771D01*
X138651190Y-84765771D02*
X138794047Y-84765771D01*
X138794047Y-84765771D02*
X138889285Y-84813390D01*
X138889285Y-84813390D02*
X138936904Y-84861009D01*
X138936904Y-84861009D02*
X138984523Y-84956247D01*
X138984523Y-84956247D02*
X138984523Y-85194342D01*
X138984523Y-85194342D02*
X138936904Y-85289580D01*
X138936904Y-85289580D02*
X138889285Y-85337200D01*
X138889285Y-85337200D02*
X138794047Y-85384819D01*
X138794047Y-85384819D02*
X138508333Y-85384819D01*
X138508333Y-85384819D02*
X138413095Y-85337200D01*
X138413095Y-85337200D02*
X138365476Y-85289580D01*
X139317857Y-84384819D02*
X139936904Y-84384819D01*
X139936904Y-84384819D02*
X139603571Y-84765771D01*
X139603571Y-84765771D02*
X139746428Y-84765771D01*
X139746428Y-84765771D02*
X139841666Y-84813390D01*
X139841666Y-84813390D02*
X139889285Y-84861009D01*
X139889285Y-84861009D02*
X139936904Y-84956247D01*
X139936904Y-84956247D02*
X139936904Y-85194342D01*
X139936904Y-85194342D02*
X139889285Y-85289580D01*
X139889285Y-85289580D02*
X139841666Y-85337200D01*
X139841666Y-85337200D02*
X139746428Y-85384819D01*
X139746428Y-85384819D02*
X139460714Y-85384819D01*
X139460714Y-85384819D02*
X139365476Y-85337200D01*
X139365476Y-85337200D02*
X139317857Y-85289580D01*
X160517142Y-81454819D02*
X160183809Y-80978628D01*
X159945714Y-81454819D02*
X159945714Y-80454819D01*
X159945714Y-80454819D02*
X160326666Y-80454819D01*
X160326666Y-80454819D02*
X160421904Y-80502438D01*
X160421904Y-80502438D02*
X160469523Y-80550057D01*
X160469523Y-80550057D02*
X160517142Y-80645295D01*
X160517142Y-80645295D02*
X160517142Y-80788152D01*
X160517142Y-80788152D02*
X160469523Y-80883390D01*
X160469523Y-80883390D02*
X160421904Y-80931009D01*
X160421904Y-80931009D02*
X160326666Y-80978628D01*
X160326666Y-80978628D02*
X159945714Y-80978628D01*
X160850476Y-80454819D02*
X161469523Y-80454819D01*
X161469523Y-80454819D02*
X161136190Y-80835771D01*
X161136190Y-80835771D02*
X161279047Y-80835771D01*
X161279047Y-80835771D02*
X161374285Y-80883390D01*
X161374285Y-80883390D02*
X161421904Y-80931009D01*
X161421904Y-80931009D02*
X161469523Y-81026247D01*
X161469523Y-81026247D02*
X161469523Y-81264342D01*
X161469523Y-81264342D02*
X161421904Y-81359580D01*
X161421904Y-81359580D02*
X161374285Y-81407200D01*
X161374285Y-81407200D02*
X161279047Y-81454819D01*
X161279047Y-81454819D02*
X160993333Y-81454819D01*
X160993333Y-81454819D02*
X160898095Y-81407200D01*
X160898095Y-81407200D02*
X160850476Y-81359580D01*
X162421904Y-81454819D02*
X161850476Y-81454819D01*
X162136190Y-81454819D02*
X162136190Y-80454819D01*
X162136190Y-80454819D02*
X162040952Y-80597676D01*
X162040952Y-80597676D02*
X161945714Y-80692914D01*
X161945714Y-80692914D02*
X161850476Y-80740533D01*
X125750892Y-93932119D02*
X125417559Y-93455928D01*
X125179464Y-93932119D02*
X125179464Y-92932119D01*
X125179464Y-92932119D02*
X125560416Y-92932119D01*
X125560416Y-92932119D02*
X125655654Y-92979738D01*
X125655654Y-92979738D02*
X125703273Y-93027357D01*
X125703273Y-93027357D02*
X125750892Y-93122595D01*
X125750892Y-93122595D02*
X125750892Y-93265452D01*
X125750892Y-93265452D02*
X125703273Y-93360690D01*
X125703273Y-93360690D02*
X125655654Y-93408309D01*
X125655654Y-93408309D02*
X125560416Y-93455928D01*
X125560416Y-93455928D02*
X125179464Y-93455928D01*
X126703273Y-93932119D02*
X126131845Y-93932119D01*
X126417559Y-93932119D02*
X126417559Y-92932119D01*
X126417559Y-92932119D02*
X126322321Y-93074976D01*
X126322321Y-93074976D02*
X126227083Y-93170214D01*
X126227083Y-93170214D02*
X126131845Y-93217833D01*
X127655654Y-93932119D02*
X127084226Y-93932119D01*
X127369940Y-93932119D02*
X127369940Y-92932119D01*
X127369940Y-92932119D02*
X127274702Y-93074976D01*
X127274702Y-93074976D02*
X127179464Y-93170214D01*
X127179464Y-93170214D02*
X127084226Y-93217833D01*
X141754819Y-105116666D02*
X141754819Y-105592856D01*
X141754819Y-105592856D02*
X140754819Y-105592856D01*
X141754819Y-104259523D02*
X141754819Y-104830951D01*
X141754819Y-104545237D02*
X140754819Y-104545237D01*
X140754819Y-104545237D02*
X140897676Y-104640475D01*
X140897676Y-104640475D02*
X140992914Y-104735713D01*
X140992914Y-104735713D02*
X141040533Y-104830951D01*
X160954819Y-110967857D02*
X160478628Y-111301190D01*
X160954819Y-111539285D02*
X159954819Y-111539285D01*
X159954819Y-111539285D02*
X159954819Y-111158333D01*
X159954819Y-111158333D02*
X160002438Y-111063095D01*
X160002438Y-111063095D02*
X160050057Y-111015476D01*
X160050057Y-111015476D02*
X160145295Y-110967857D01*
X160145295Y-110967857D02*
X160288152Y-110967857D01*
X160288152Y-110967857D02*
X160383390Y-111015476D01*
X160383390Y-111015476D02*
X160431009Y-111063095D01*
X160431009Y-111063095D02*
X160478628Y-111158333D01*
X160478628Y-111158333D02*
X160478628Y-111539285D01*
X160954819Y-110015476D02*
X160954819Y-110586904D01*
X160954819Y-110301190D02*
X159954819Y-110301190D01*
X159954819Y-110301190D02*
X160097676Y-110396428D01*
X160097676Y-110396428D02*
X160192914Y-110491666D01*
X160192914Y-110491666D02*
X160240533Y-110586904D01*
X159954819Y-109682142D02*
X159954819Y-109015476D01*
X159954819Y-109015476D02*
X160954819Y-109444047D01*
X142032142Y-66524819D02*
X141698809Y-66048628D01*
X141460714Y-66524819D02*
X141460714Y-65524819D01*
X141460714Y-65524819D02*
X141841666Y-65524819D01*
X141841666Y-65524819D02*
X141936904Y-65572438D01*
X141936904Y-65572438D02*
X141984523Y-65620057D01*
X141984523Y-65620057D02*
X142032142Y-65715295D01*
X142032142Y-65715295D02*
X142032142Y-65858152D01*
X142032142Y-65858152D02*
X141984523Y-65953390D01*
X141984523Y-65953390D02*
X141936904Y-66001009D01*
X141936904Y-66001009D02*
X141841666Y-66048628D01*
X141841666Y-66048628D02*
X141460714Y-66048628D01*
X142889285Y-65858152D02*
X142889285Y-66524819D01*
X142651190Y-65477200D02*
X142413095Y-66191485D01*
X142413095Y-66191485D02*
X143032142Y-66191485D01*
X143365476Y-65620057D02*
X143413095Y-65572438D01*
X143413095Y-65572438D02*
X143508333Y-65524819D01*
X143508333Y-65524819D02*
X143746428Y-65524819D01*
X143746428Y-65524819D02*
X143841666Y-65572438D01*
X143841666Y-65572438D02*
X143889285Y-65620057D01*
X143889285Y-65620057D02*
X143936904Y-65715295D01*
X143936904Y-65715295D02*
X143936904Y-65810533D01*
X143936904Y-65810533D02*
X143889285Y-65953390D01*
X143889285Y-65953390D02*
X143317857Y-66524819D01*
X143317857Y-66524819D02*
X143936904Y-66524819D01*
X153289580Y-107941666D02*
X153337200Y-107989285D01*
X153337200Y-107989285D02*
X153384819Y-108132142D01*
X153384819Y-108132142D02*
X153384819Y-108227380D01*
X153384819Y-108227380D02*
X153337200Y-108370237D01*
X153337200Y-108370237D02*
X153241961Y-108465475D01*
X153241961Y-108465475D02*
X153146723Y-108513094D01*
X153146723Y-108513094D02*
X152956247Y-108560713D01*
X152956247Y-108560713D02*
X152813390Y-108560713D01*
X152813390Y-108560713D02*
X152622914Y-108513094D01*
X152622914Y-108513094D02*
X152527676Y-108465475D01*
X152527676Y-108465475D02*
X152432438Y-108370237D01*
X152432438Y-108370237D02*
X152384819Y-108227380D01*
X152384819Y-108227380D02*
X152384819Y-108132142D01*
X152384819Y-108132142D02*
X152432438Y-107989285D01*
X152432438Y-107989285D02*
X152480057Y-107941666D01*
X152384819Y-107084523D02*
X152384819Y-107274999D01*
X152384819Y-107274999D02*
X152432438Y-107370237D01*
X152432438Y-107370237D02*
X152480057Y-107417856D01*
X152480057Y-107417856D02*
X152622914Y-107513094D01*
X152622914Y-107513094D02*
X152813390Y-107560713D01*
X152813390Y-107560713D02*
X153194342Y-107560713D01*
X153194342Y-107560713D02*
X153289580Y-107513094D01*
X153289580Y-107513094D02*
X153337200Y-107465475D01*
X153337200Y-107465475D02*
X153384819Y-107370237D01*
X153384819Y-107370237D02*
X153384819Y-107179761D01*
X153384819Y-107179761D02*
X153337200Y-107084523D01*
X153337200Y-107084523D02*
X153289580Y-107036904D01*
X153289580Y-107036904D02*
X153194342Y-106989285D01*
X153194342Y-106989285D02*
X152956247Y-106989285D01*
X152956247Y-106989285D02*
X152861009Y-107036904D01*
X152861009Y-107036904D02*
X152813390Y-107084523D01*
X152813390Y-107084523D02*
X152765771Y-107179761D01*
X152765771Y-107179761D02*
X152765771Y-107370237D01*
X152765771Y-107370237D02*
X152813390Y-107465475D01*
X152813390Y-107465475D02*
X152861009Y-107513094D01*
X152861009Y-107513094D02*
X152956247Y-107560713D01*
X135039580Y-100121607D02*
X135087200Y-100169226D01*
X135087200Y-100169226D02*
X135134819Y-100312083D01*
X135134819Y-100312083D02*
X135134819Y-100407321D01*
X135134819Y-100407321D02*
X135087200Y-100550178D01*
X135087200Y-100550178D02*
X134991961Y-100645416D01*
X134991961Y-100645416D02*
X134896723Y-100693035D01*
X134896723Y-100693035D02*
X134706247Y-100740654D01*
X134706247Y-100740654D02*
X134563390Y-100740654D01*
X134563390Y-100740654D02*
X134372914Y-100693035D01*
X134372914Y-100693035D02*
X134277676Y-100645416D01*
X134277676Y-100645416D02*
X134182438Y-100550178D01*
X134182438Y-100550178D02*
X134134819Y-100407321D01*
X134134819Y-100407321D02*
X134134819Y-100312083D01*
X134134819Y-100312083D02*
X134182438Y-100169226D01*
X134182438Y-100169226D02*
X134230057Y-100121607D01*
X135134819Y-99169226D02*
X135134819Y-99740654D01*
X135134819Y-99454940D02*
X134134819Y-99454940D01*
X134134819Y-99454940D02*
X134277676Y-99550178D01*
X134277676Y-99550178D02*
X134372914Y-99645416D01*
X134372914Y-99645416D02*
X134420533Y-99740654D01*
X134230057Y-98788273D02*
X134182438Y-98740654D01*
X134182438Y-98740654D02*
X134134819Y-98645416D01*
X134134819Y-98645416D02*
X134134819Y-98407321D01*
X134134819Y-98407321D02*
X134182438Y-98312083D01*
X134182438Y-98312083D02*
X134230057Y-98264464D01*
X134230057Y-98264464D02*
X134325295Y-98216845D01*
X134325295Y-98216845D02*
X134420533Y-98216845D01*
X134420533Y-98216845D02*
X134563390Y-98264464D01*
X134563390Y-98264464D02*
X135134819Y-98835892D01*
X135134819Y-98835892D02*
X135134819Y-98216845D01*
X120136069Y-88825157D02*
X119659878Y-89158490D01*
X120136069Y-89396585D02*
X119136069Y-89396585D01*
X119136069Y-89396585D02*
X119136069Y-89015633D01*
X119136069Y-89015633D02*
X119183688Y-88920395D01*
X119183688Y-88920395D02*
X119231307Y-88872776D01*
X119231307Y-88872776D02*
X119326545Y-88825157D01*
X119326545Y-88825157D02*
X119469402Y-88825157D01*
X119469402Y-88825157D02*
X119564640Y-88872776D01*
X119564640Y-88872776D02*
X119612259Y-88920395D01*
X119612259Y-88920395D02*
X119659878Y-89015633D01*
X119659878Y-89015633D02*
X119659878Y-89396585D01*
X120136069Y-87872776D02*
X120136069Y-88444204D01*
X120136069Y-88158490D02*
X119136069Y-88158490D01*
X119136069Y-88158490D02*
X119278926Y-88253728D01*
X119278926Y-88253728D02*
X119374164Y-88348966D01*
X119374164Y-88348966D02*
X119421783Y-88444204D01*
X119136069Y-87015633D02*
X119136069Y-87206109D01*
X119136069Y-87206109D02*
X119183688Y-87301347D01*
X119183688Y-87301347D02*
X119231307Y-87348966D01*
X119231307Y-87348966D02*
X119374164Y-87444204D01*
X119374164Y-87444204D02*
X119564640Y-87491823D01*
X119564640Y-87491823D02*
X119945592Y-87491823D01*
X119945592Y-87491823D02*
X120040830Y-87444204D01*
X120040830Y-87444204D02*
X120088450Y-87396585D01*
X120088450Y-87396585D02*
X120136069Y-87301347D01*
X120136069Y-87301347D02*
X120136069Y-87110871D01*
X120136069Y-87110871D02*
X120088450Y-87015633D01*
X120088450Y-87015633D02*
X120040830Y-86968014D01*
X120040830Y-86968014D02*
X119945592Y-86920395D01*
X119945592Y-86920395D02*
X119707497Y-86920395D01*
X119707497Y-86920395D02*
X119612259Y-86968014D01*
X119612259Y-86968014D02*
X119564640Y-87015633D01*
X119564640Y-87015633D02*
X119517021Y-87110871D01*
X119517021Y-87110871D02*
X119517021Y-87301347D01*
X119517021Y-87301347D02*
X119564640Y-87396585D01*
X119564640Y-87396585D02*
X119612259Y-87444204D01*
X119612259Y-87444204D02*
X119707497Y-87491823D01*
X154357142Y-82954819D02*
X154023809Y-82478628D01*
X153785714Y-82954819D02*
X153785714Y-81954819D01*
X153785714Y-81954819D02*
X154166666Y-81954819D01*
X154166666Y-81954819D02*
X154261904Y-82002438D01*
X154261904Y-82002438D02*
X154309523Y-82050057D01*
X154309523Y-82050057D02*
X154357142Y-82145295D01*
X154357142Y-82145295D02*
X154357142Y-82288152D01*
X154357142Y-82288152D02*
X154309523Y-82383390D01*
X154309523Y-82383390D02*
X154261904Y-82431009D01*
X154261904Y-82431009D02*
X154166666Y-82478628D01*
X154166666Y-82478628D02*
X153785714Y-82478628D01*
X154738095Y-82050057D02*
X154785714Y-82002438D01*
X154785714Y-82002438D02*
X154880952Y-81954819D01*
X154880952Y-81954819D02*
X155119047Y-81954819D01*
X155119047Y-81954819D02*
X155214285Y-82002438D01*
X155214285Y-82002438D02*
X155261904Y-82050057D01*
X155261904Y-82050057D02*
X155309523Y-82145295D01*
X155309523Y-82145295D02*
X155309523Y-82240533D01*
X155309523Y-82240533D02*
X155261904Y-82383390D01*
X155261904Y-82383390D02*
X154690476Y-82954819D01*
X154690476Y-82954819D02*
X155309523Y-82954819D01*
X156166666Y-81954819D02*
X155976190Y-81954819D01*
X155976190Y-81954819D02*
X155880952Y-82002438D01*
X155880952Y-82002438D02*
X155833333Y-82050057D01*
X155833333Y-82050057D02*
X155738095Y-82192914D01*
X155738095Y-82192914D02*
X155690476Y-82383390D01*
X155690476Y-82383390D02*
X155690476Y-82764342D01*
X155690476Y-82764342D02*
X155738095Y-82859580D01*
X155738095Y-82859580D02*
X155785714Y-82907200D01*
X155785714Y-82907200D02*
X155880952Y-82954819D01*
X155880952Y-82954819D02*
X156071428Y-82954819D01*
X156071428Y-82954819D02*
X156166666Y-82907200D01*
X156166666Y-82907200D02*
X156214285Y-82859580D01*
X156214285Y-82859580D02*
X156261904Y-82764342D01*
X156261904Y-82764342D02*
X156261904Y-82526247D01*
X156261904Y-82526247D02*
X156214285Y-82431009D01*
X156214285Y-82431009D02*
X156166666Y-82383390D01*
X156166666Y-82383390D02*
X156071428Y-82335771D01*
X156071428Y-82335771D02*
X155880952Y-82335771D01*
X155880952Y-82335771D02*
X155785714Y-82383390D01*
X155785714Y-82383390D02*
X155738095Y-82431009D01*
X155738095Y-82431009D02*
X155690476Y-82526247D01*
X141857142Y-83284819D02*
X141523809Y-82808628D01*
X141285714Y-83284819D02*
X141285714Y-82284819D01*
X141285714Y-82284819D02*
X141666666Y-82284819D01*
X141666666Y-82284819D02*
X141761904Y-82332438D01*
X141761904Y-82332438D02*
X141809523Y-82380057D01*
X141809523Y-82380057D02*
X141857142Y-82475295D01*
X141857142Y-82475295D02*
X141857142Y-82618152D01*
X141857142Y-82618152D02*
X141809523Y-82713390D01*
X141809523Y-82713390D02*
X141761904Y-82761009D01*
X141761904Y-82761009D02*
X141666666Y-82808628D01*
X141666666Y-82808628D02*
X141285714Y-82808628D01*
X142238095Y-82380057D02*
X142285714Y-82332438D01*
X142285714Y-82332438D02*
X142380952Y-82284819D01*
X142380952Y-82284819D02*
X142619047Y-82284819D01*
X142619047Y-82284819D02*
X142714285Y-82332438D01*
X142714285Y-82332438D02*
X142761904Y-82380057D01*
X142761904Y-82380057D02*
X142809523Y-82475295D01*
X142809523Y-82475295D02*
X142809523Y-82570533D01*
X142809523Y-82570533D02*
X142761904Y-82713390D01*
X142761904Y-82713390D02*
X142190476Y-83284819D01*
X142190476Y-83284819D02*
X142809523Y-83284819D01*
X143190476Y-82380057D02*
X143238095Y-82332438D01*
X143238095Y-82332438D02*
X143333333Y-82284819D01*
X143333333Y-82284819D02*
X143571428Y-82284819D01*
X143571428Y-82284819D02*
X143666666Y-82332438D01*
X143666666Y-82332438D02*
X143714285Y-82380057D01*
X143714285Y-82380057D02*
X143761904Y-82475295D01*
X143761904Y-82475295D02*
X143761904Y-82570533D01*
X143761904Y-82570533D02*
X143714285Y-82713390D01*
X143714285Y-82713390D02*
X143142857Y-83284819D01*
X143142857Y-83284819D02*
X143761904Y-83284819D01*
X151789580Y-99917857D02*
X151837200Y-99965476D01*
X151837200Y-99965476D02*
X151884819Y-100108333D01*
X151884819Y-100108333D02*
X151884819Y-100203571D01*
X151884819Y-100203571D02*
X151837200Y-100346428D01*
X151837200Y-100346428D02*
X151741961Y-100441666D01*
X151741961Y-100441666D02*
X151646723Y-100489285D01*
X151646723Y-100489285D02*
X151456247Y-100536904D01*
X151456247Y-100536904D02*
X151313390Y-100536904D01*
X151313390Y-100536904D02*
X151122914Y-100489285D01*
X151122914Y-100489285D02*
X151027676Y-100441666D01*
X151027676Y-100441666D02*
X150932438Y-100346428D01*
X150932438Y-100346428D02*
X150884819Y-100203571D01*
X150884819Y-100203571D02*
X150884819Y-100108333D01*
X150884819Y-100108333D02*
X150932438Y-99965476D01*
X150932438Y-99965476D02*
X150980057Y-99917857D01*
X151884819Y-98965476D02*
X151884819Y-99536904D01*
X151884819Y-99251190D02*
X150884819Y-99251190D01*
X150884819Y-99251190D02*
X151027676Y-99346428D01*
X151027676Y-99346428D02*
X151122914Y-99441666D01*
X151122914Y-99441666D02*
X151170533Y-99536904D01*
X150884819Y-98346428D02*
X150884819Y-98251190D01*
X150884819Y-98251190D02*
X150932438Y-98155952D01*
X150932438Y-98155952D02*
X150980057Y-98108333D01*
X150980057Y-98108333D02*
X151075295Y-98060714D01*
X151075295Y-98060714D02*
X151265771Y-98013095D01*
X151265771Y-98013095D02*
X151503866Y-98013095D01*
X151503866Y-98013095D02*
X151694342Y-98060714D01*
X151694342Y-98060714D02*
X151789580Y-98108333D01*
X151789580Y-98108333D02*
X151837200Y-98155952D01*
X151837200Y-98155952D02*
X151884819Y-98251190D01*
X151884819Y-98251190D02*
X151884819Y-98346428D01*
X151884819Y-98346428D02*
X151837200Y-98441666D01*
X151837200Y-98441666D02*
X151789580Y-98489285D01*
X151789580Y-98489285D02*
X151694342Y-98536904D01*
X151694342Y-98536904D02*
X151503866Y-98584523D01*
X151503866Y-98584523D02*
X151265771Y-98584523D01*
X151265771Y-98584523D02*
X151075295Y-98536904D01*
X151075295Y-98536904D02*
X150980057Y-98489285D01*
X150980057Y-98489285D02*
X150932438Y-98441666D01*
X150932438Y-98441666D02*
X150884819Y-98346428D01*
X124182142Y-98024819D02*
X123848809Y-97548628D01*
X123610714Y-98024819D02*
X123610714Y-97024819D01*
X123610714Y-97024819D02*
X123991666Y-97024819D01*
X123991666Y-97024819D02*
X124086904Y-97072438D01*
X124086904Y-97072438D02*
X124134523Y-97120057D01*
X124134523Y-97120057D02*
X124182142Y-97215295D01*
X124182142Y-97215295D02*
X124182142Y-97358152D01*
X124182142Y-97358152D02*
X124134523Y-97453390D01*
X124134523Y-97453390D02*
X124086904Y-97501009D01*
X124086904Y-97501009D02*
X123991666Y-97548628D01*
X123991666Y-97548628D02*
X123610714Y-97548628D01*
X125134523Y-98024819D02*
X124563095Y-98024819D01*
X124848809Y-98024819D02*
X124848809Y-97024819D01*
X124848809Y-97024819D02*
X124753571Y-97167676D01*
X124753571Y-97167676D02*
X124658333Y-97262914D01*
X124658333Y-97262914D02*
X124563095Y-97310533D01*
X125991666Y-97358152D02*
X125991666Y-98024819D01*
X125753571Y-96977200D02*
X125515476Y-97691485D01*
X125515476Y-97691485D02*
X126134523Y-97691485D01*
X122996069Y-92175157D02*
X122519878Y-92508490D01*
X122996069Y-92746585D02*
X121996069Y-92746585D01*
X121996069Y-92746585D02*
X121996069Y-92365633D01*
X121996069Y-92365633D02*
X122043688Y-92270395D01*
X122043688Y-92270395D02*
X122091307Y-92222776D01*
X122091307Y-92222776D02*
X122186545Y-92175157D01*
X122186545Y-92175157D02*
X122329402Y-92175157D01*
X122329402Y-92175157D02*
X122424640Y-92222776D01*
X122424640Y-92222776D02*
X122472259Y-92270395D01*
X122472259Y-92270395D02*
X122519878Y-92365633D01*
X122519878Y-92365633D02*
X122519878Y-92746585D01*
X122996069Y-91222776D02*
X122996069Y-91794204D01*
X122996069Y-91508490D02*
X121996069Y-91508490D01*
X121996069Y-91508490D02*
X122138926Y-91603728D01*
X122138926Y-91603728D02*
X122234164Y-91698966D01*
X122234164Y-91698966D02*
X122281783Y-91794204D01*
X122091307Y-90841823D02*
X122043688Y-90794204D01*
X122043688Y-90794204D02*
X121996069Y-90698966D01*
X121996069Y-90698966D02*
X121996069Y-90460871D01*
X121996069Y-90460871D02*
X122043688Y-90365633D01*
X122043688Y-90365633D02*
X122091307Y-90318014D01*
X122091307Y-90318014D02*
X122186545Y-90270395D01*
X122186545Y-90270395D02*
X122281783Y-90270395D01*
X122281783Y-90270395D02*
X122424640Y-90318014D01*
X122424640Y-90318014D02*
X122996069Y-90889442D01*
X122996069Y-90889442D02*
X122996069Y-90270395D01*
X140261905Y-110954819D02*
X140261905Y-109954819D01*
X140261905Y-109954819D02*
X140500000Y-109954819D01*
X140500000Y-109954819D02*
X140642857Y-110002438D01*
X140642857Y-110002438D02*
X140738095Y-110097676D01*
X140738095Y-110097676D02*
X140785714Y-110192914D01*
X140785714Y-110192914D02*
X140833333Y-110383390D01*
X140833333Y-110383390D02*
X140833333Y-110526247D01*
X140833333Y-110526247D02*
X140785714Y-110716723D01*
X140785714Y-110716723D02*
X140738095Y-110811961D01*
X140738095Y-110811961D02*
X140642857Y-110907200D01*
X140642857Y-110907200D02*
X140500000Y-110954819D01*
X140500000Y-110954819D02*
X140261905Y-110954819D01*
X141785714Y-110954819D02*
X141214286Y-110954819D01*
X141500000Y-110954819D02*
X141500000Y-109954819D01*
X141500000Y-109954819D02*
X141404762Y-110097676D01*
X141404762Y-110097676D02*
X141309524Y-110192914D01*
X141309524Y-110192914D02*
X141214286Y-110240533D01*
X149829819Y-90624404D02*
X150639342Y-90624404D01*
X150639342Y-90624404D02*
X150734580Y-90576785D01*
X150734580Y-90576785D02*
X150782200Y-90529166D01*
X150782200Y-90529166D02*
X150829819Y-90433928D01*
X150829819Y-90433928D02*
X150829819Y-90243452D01*
X150829819Y-90243452D02*
X150782200Y-90148214D01*
X150782200Y-90148214D02*
X150734580Y-90100595D01*
X150734580Y-90100595D02*
X150639342Y-90052976D01*
X150639342Y-90052976D02*
X149829819Y-90052976D01*
X149829819Y-89672023D02*
X149829819Y-89052976D01*
X149829819Y-89052976D02*
X150210771Y-89386309D01*
X150210771Y-89386309D02*
X150210771Y-89243452D01*
X150210771Y-89243452D02*
X150258390Y-89148214D01*
X150258390Y-89148214D02*
X150306009Y-89100595D01*
X150306009Y-89100595D02*
X150401247Y-89052976D01*
X150401247Y-89052976D02*
X150639342Y-89052976D01*
X150639342Y-89052976D02*
X150734580Y-89100595D01*
X150734580Y-89100595D02*
X150782200Y-89148214D01*
X150782200Y-89148214D02*
X150829819Y-89243452D01*
X150829819Y-89243452D02*
X150829819Y-89529166D01*
X150829819Y-89529166D02*
X150782200Y-89624404D01*
X150782200Y-89624404D02*
X150734580Y-89672023D01*
X119367142Y-103954819D02*
X119033809Y-103478628D01*
X118795714Y-103954819D02*
X118795714Y-102954819D01*
X118795714Y-102954819D02*
X119176666Y-102954819D01*
X119176666Y-102954819D02*
X119271904Y-103002438D01*
X119271904Y-103002438D02*
X119319523Y-103050057D01*
X119319523Y-103050057D02*
X119367142Y-103145295D01*
X119367142Y-103145295D02*
X119367142Y-103288152D01*
X119367142Y-103288152D02*
X119319523Y-103383390D01*
X119319523Y-103383390D02*
X119271904Y-103431009D01*
X119271904Y-103431009D02*
X119176666Y-103478628D01*
X119176666Y-103478628D02*
X118795714Y-103478628D01*
X119700476Y-102954819D02*
X120319523Y-102954819D01*
X120319523Y-102954819D02*
X119986190Y-103335771D01*
X119986190Y-103335771D02*
X120129047Y-103335771D01*
X120129047Y-103335771D02*
X120224285Y-103383390D01*
X120224285Y-103383390D02*
X120271904Y-103431009D01*
X120271904Y-103431009D02*
X120319523Y-103526247D01*
X120319523Y-103526247D02*
X120319523Y-103764342D01*
X120319523Y-103764342D02*
X120271904Y-103859580D01*
X120271904Y-103859580D02*
X120224285Y-103907200D01*
X120224285Y-103907200D02*
X120129047Y-103954819D01*
X120129047Y-103954819D02*
X119843333Y-103954819D01*
X119843333Y-103954819D02*
X119748095Y-103907200D01*
X119748095Y-103907200D02*
X119700476Y-103859580D01*
X120652857Y-102954819D02*
X121319523Y-102954819D01*
X121319523Y-102954819D02*
X120890952Y-103954819D01*
X124608333Y-95429580D02*
X124560714Y-95477200D01*
X124560714Y-95477200D02*
X124417857Y-95524819D01*
X124417857Y-95524819D02*
X124322619Y-95524819D01*
X124322619Y-95524819D02*
X124179762Y-95477200D01*
X124179762Y-95477200D02*
X124084524Y-95381961D01*
X124084524Y-95381961D02*
X124036905Y-95286723D01*
X124036905Y-95286723D02*
X123989286Y-95096247D01*
X123989286Y-95096247D02*
X123989286Y-94953390D01*
X123989286Y-94953390D02*
X124036905Y-94762914D01*
X124036905Y-94762914D02*
X124084524Y-94667676D01*
X124084524Y-94667676D02*
X124179762Y-94572438D01*
X124179762Y-94572438D02*
X124322619Y-94524819D01*
X124322619Y-94524819D02*
X124417857Y-94524819D01*
X124417857Y-94524819D02*
X124560714Y-94572438D01*
X124560714Y-94572438D02*
X124608333Y-94620057D01*
X125465476Y-94858152D02*
X125465476Y-95524819D01*
X125227381Y-94477200D02*
X124989286Y-95191485D01*
X124989286Y-95191485D02*
X125608333Y-95191485D01*
X150082142Y-105884819D02*
X149748809Y-105408628D01*
X149510714Y-105884819D02*
X149510714Y-104884819D01*
X149510714Y-104884819D02*
X149891666Y-104884819D01*
X149891666Y-104884819D02*
X149986904Y-104932438D01*
X149986904Y-104932438D02*
X150034523Y-104980057D01*
X150034523Y-104980057D02*
X150082142Y-105075295D01*
X150082142Y-105075295D02*
X150082142Y-105218152D01*
X150082142Y-105218152D02*
X150034523Y-105313390D01*
X150034523Y-105313390D02*
X149986904Y-105361009D01*
X149986904Y-105361009D02*
X149891666Y-105408628D01*
X149891666Y-105408628D02*
X149510714Y-105408628D01*
X151034523Y-105884819D02*
X150463095Y-105884819D01*
X150748809Y-105884819D02*
X150748809Y-104884819D01*
X150748809Y-104884819D02*
X150653571Y-105027676D01*
X150653571Y-105027676D02*
X150558333Y-105122914D01*
X150558333Y-105122914D02*
X150463095Y-105170533D01*
X151510714Y-105884819D02*
X151701190Y-105884819D01*
X151701190Y-105884819D02*
X151796428Y-105837200D01*
X151796428Y-105837200D02*
X151844047Y-105789580D01*
X151844047Y-105789580D02*
X151939285Y-105646723D01*
X151939285Y-105646723D02*
X151986904Y-105456247D01*
X151986904Y-105456247D02*
X151986904Y-105075295D01*
X151986904Y-105075295D02*
X151939285Y-104980057D01*
X151939285Y-104980057D02*
X151891666Y-104932438D01*
X151891666Y-104932438D02*
X151796428Y-104884819D01*
X151796428Y-104884819D02*
X151605952Y-104884819D01*
X151605952Y-104884819D02*
X151510714Y-104932438D01*
X151510714Y-104932438D02*
X151463095Y-104980057D01*
X151463095Y-104980057D02*
X151415476Y-105075295D01*
X151415476Y-105075295D02*
X151415476Y-105313390D01*
X151415476Y-105313390D02*
X151463095Y-105408628D01*
X151463095Y-105408628D02*
X151510714Y-105456247D01*
X151510714Y-105456247D02*
X151605952Y-105503866D01*
X151605952Y-105503866D02*
X151796428Y-105503866D01*
X151796428Y-105503866D02*
X151891666Y-105456247D01*
X151891666Y-105456247D02*
X151939285Y-105408628D01*
X151939285Y-105408628D02*
X151986904Y-105313390D01*
X129857142Y-67024819D02*
X129523809Y-66548628D01*
X129285714Y-67024819D02*
X129285714Y-66024819D01*
X129285714Y-66024819D02*
X129666666Y-66024819D01*
X129666666Y-66024819D02*
X129761904Y-66072438D01*
X129761904Y-66072438D02*
X129809523Y-66120057D01*
X129809523Y-66120057D02*
X129857142Y-66215295D01*
X129857142Y-66215295D02*
X129857142Y-66358152D01*
X129857142Y-66358152D02*
X129809523Y-66453390D01*
X129809523Y-66453390D02*
X129761904Y-66501009D01*
X129761904Y-66501009D02*
X129666666Y-66548628D01*
X129666666Y-66548628D02*
X129285714Y-66548628D01*
X130714285Y-66358152D02*
X130714285Y-67024819D01*
X130476190Y-65977200D02*
X130238095Y-66691485D01*
X130238095Y-66691485D02*
X130857142Y-66691485D01*
X131761904Y-67024819D02*
X131190476Y-67024819D01*
X131476190Y-67024819D02*
X131476190Y-66024819D01*
X131476190Y-66024819D02*
X131380952Y-66167676D01*
X131380952Y-66167676D02*
X131285714Y-66262914D01*
X131285714Y-66262914D02*
X131190476Y-66310533D01*
X125127083Y-84336880D02*
X125079464Y-84384500D01*
X125079464Y-84384500D02*
X124936607Y-84432119D01*
X124936607Y-84432119D02*
X124841369Y-84432119D01*
X124841369Y-84432119D02*
X124698512Y-84384500D01*
X124698512Y-84384500D02*
X124603274Y-84289261D01*
X124603274Y-84289261D02*
X124555655Y-84194023D01*
X124555655Y-84194023D02*
X124508036Y-84003547D01*
X124508036Y-84003547D02*
X124508036Y-83860690D01*
X124508036Y-83860690D02*
X124555655Y-83670214D01*
X124555655Y-83670214D02*
X124603274Y-83574976D01*
X124603274Y-83574976D02*
X124698512Y-83479738D01*
X124698512Y-83479738D02*
X124841369Y-83432119D01*
X124841369Y-83432119D02*
X124936607Y-83432119D01*
X124936607Y-83432119D02*
X125079464Y-83479738D01*
X125079464Y-83479738D02*
X125127083Y-83527357D01*
X125460417Y-83432119D02*
X126079464Y-83432119D01*
X126079464Y-83432119D02*
X125746131Y-83813071D01*
X125746131Y-83813071D02*
X125888988Y-83813071D01*
X125888988Y-83813071D02*
X125984226Y-83860690D01*
X125984226Y-83860690D02*
X126031845Y-83908309D01*
X126031845Y-83908309D02*
X126079464Y-84003547D01*
X126079464Y-84003547D02*
X126079464Y-84241642D01*
X126079464Y-84241642D02*
X126031845Y-84336880D01*
X126031845Y-84336880D02*
X125984226Y-84384500D01*
X125984226Y-84384500D02*
X125888988Y-84432119D01*
X125888988Y-84432119D02*
X125603274Y-84432119D01*
X125603274Y-84432119D02*
X125508036Y-84384500D01*
X125508036Y-84384500D02*
X125460417Y-84336880D01*
X152789580Y-84867857D02*
X152837200Y-84915476D01*
X152837200Y-84915476D02*
X152884819Y-85058333D01*
X152884819Y-85058333D02*
X152884819Y-85153571D01*
X152884819Y-85153571D02*
X152837200Y-85296428D01*
X152837200Y-85296428D02*
X152741961Y-85391666D01*
X152741961Y-85391666D02*
X152646723Y-85439285D01*
X152646723Y-85439285D02*
X152456247Y-85486904D01*
X152456247Y-85486904D02*
X152313390Y-85486904D01*
X152313390Y-85486904D02*
X152122914Y-85439285D01*
X152122914Y-85439285D02*
X152027676Y-85391666D01*
X152027676Y-85391666D02*
X151932438Y-85296428D01*
X151932438Y-85296428D02*
X151884819Y-85153571D01*
X151884819Y-85153571D02*
X151884819Y-85058333D01*
X151884819Y-85058333D02*
X151932438Y-84915476D01*
X151932438Y-84915476D02*
X151980057Y-84867857D01*
X152884819Y-83915476D02*
X152884819Y-84486904D01*
X152884819Y-84201190D02*
X151884819Y-84201190D01*
X151884819Y-84201190D02*
X152027676Y-84296428D01*
X152027676Y-84296428D02*
X152122914Y-84391666D01*
X152122914Y-84391666D02*
X152170533Y-84486904D01*
X151884819Y-83058333D02*
X151884819Y-83248809D01*
X151884819Y-83248809D02*
X151932438Y-83344047D01*
X151932438Y-83344047D02*
X151980057Y-83391666D01*
X151980057Y-83391666D02*
X152122914Y-83486904D01*
X152122914Y-83486904D02*
X152313390Y-83534523D01*
X152313390Y-83534523D02*
X152694342Y-83534523D01*
X152694342Y-83534523D02*
X152789580Y-83486904D01*
X152789580Y-83486904D02*
X152837200Y-83439285D01*
X152837200Y-83439285D02*
X152884819Y-83344047D01*
X152884819Y-83344047D02*
X152884819Y-83153571D01*
X152884819Y-83153571D02*
X152837200Y-83058333D01*
X152837200Y-83058333D02*
X152789580Y-83010714D01*
X152789580Y-83010714D02*
X152694342Y-82963095D01*
X152694342Y-82963095D02*
X152456247Y-82963095D01*
X152456247Y-82963095D02*
X152361009Y-83010714D01*
X152361009Y-83010714D02*
X152313390Y-83058333D01*
X152313390Y-83058333D02*
X152265771Y-83153571D01*
X152265771Y-83153571D02*
X152265771Y-83344047D01*
X152265771Y-83344047D02*
X152313390Y-83439285D01*
X152313390Y-83439285D02*
X152361009Y-83486904D01*
X152361009Y-83486904D02*
X152456247Y-83534523D01*
X152857142Y-66524819D02*
X152523809Y-66048628D01*
X152285714Y-66524819D02*
X152285714Y-65524819D01*
X152285714Y-65524819D02*
X152666666Y-65524819D01*
X152666666Y-65524819D02*
X152761904Y-65572438D01*
X152761904Y-65572438D02*
X152809523Y-65620057D01*
X152809523Y-65620057D02*
X152857142Y-65715295D01*
X152857142Y-65715295D02*
X152857142Y-65858152D01*
X152857142Y-65858152D02*
X152809523Y-65953390D01*
X152809523Y-65953390D02*
X152761904Y-66001009D01*
X152761904Y-66001009D02*
X152666666Y-66048628D01*
X152666666Y-66048628D02*
X152285714Y-66048628D01*
X153714285Y-65858152D02*
X153714285Y-66524819D01*
X153476190Y-65477200D02*
X153238095Y-66191485D01*
X153238095Y-66191485D02*
X153857142Y-66191485D01*
X154142857Y-65524819D02*
X154761904Y-65524819D01*
X154761904Y-65524819D02*
X154428571Y-65905771D01*
X154428571Y-65905771D02*
X154571428Y-65905771D01*
X154571428Y-65905771D02*
X154666666Y-65953390D01*
X154666666Y-65953390D02*
X154714285Y-66001009D01*
X154714285Y-66001009D02*
X154761904Y-66096247D01*
X154761904Y-66096247D02*
X154761904Y-66334342D01*
X154761904Y-66334342D02*
X154714285Y-66429580D01*
X154714285Y-66429580D02*
X154666666Y-66477200D01*
X154666666Y-66477200D02*
X154571428Y-66524819D01*
X154571428Y-66524819D02*
X154285714Y-66524819D01*
X154285714Y-66524819D02*
X154190476Y-66477200D01*
X154190476Y-66477200D02*
X154142857Y-66429580D01*
X120857142Y-100359580D02*
X120809523Y-100407200D01*
X120809523Y-100407200D02*
X120666666Y-100454819D01*
X120666666Y-100454819D02*
X120571428Y-100454819D01*
X120571428Y-100454819D02*
X120428571Y-100407200D01*
X120428571Y-100407200D02*
X120333333Y-100311961D01*
X120333333Y-100311961D02*
X120285714Y-100216723D01*
X120285714Y-100216723D02*
X120238095Y-100026247D01*
X120238095Y-100026247D02*
X120238095Y-99883390D01*
X120238095Y-99883390D02*
X120285714Y-99692914D01*
X120285714Y-99692914D02*
X120333333Y-99597676D01*
X120333333Y-99597676D02*
X120428571Y-99502438D01*
X120428571Y-99502438D02*
X120571428Y-99454819D01*
X120571428Y-99454819D02*
X120666666Y-99454819D01*
X120666666Y-99454819D02*
X120809523Y-99502438D01*
X120809523Y-99502438D02*
X120857142Y-99550057D01*
X121238095Y-99550057D02*
X121285714Y-99502438D01*
X121285714Y-99502438D02*
X121380952Y-99454819D01*
X121380952Y-99454819D02*
X121619047Y-99454819D01*
X121619047Y-99454819D02*
X121714285Y-99502438D01*
X121714285Y-99502438D02*
X121761904Y-99550057D01*
X121761904Y-99550057D02*
X121809523Y-99645295D01*
X121809523Y-99645295D02*
X121809523Y-99740533D01*
X121809523Y-99740533D02*
X121761904Y-99883390D01*
X121761904Y-99883390D02*
X121190476Y-100454819D01*
X121190476Y-100454819D02*
X121809523Y-100454819D01*
X122428571Y-99454819D02*
X122523809Y-99454819D01*
X122523809Y-99454819D02*
X122619047Y-99502438D01*
X122619047Y-99502438D02*
X122666666Y-99550057D01*
X122666666Y-99550057D02*
X122714285Y-99645295D01*
X122714285Y-99645295D02*
X122761904Y-99835771D01*
X122761904Y-99835771D02*
X122761904Y-100073866D01*
X122761904Y-100073866D02*
X122714285Y-100264342D01*
X122714285Y-100264342D02*
X122666666Y-100359580D01*
X122666666Y-100359580D02*
X122619047Y-100407200D01*
X122619047Y-100407200D02*
X122523809Y-100454819D01*
X122523809Y-100454819D02*
X122428571Y-100454819D01*
X122428571Y-100454819D02*
X122333333Y-100407200D01*
X122333333Y-100407200D02*
X122285714Y-100359580D01*
X122285714Y-100359580D02*
X122238095Y-100264342D01*
X122238095Y-100264342D02*
X122190476Y-100073866D01*
X122190476Y-100073866D02*
X122190476Y-99835771D01*
X122190476Y-99835771D02*
X122238095Y-99645295D01*
X122238095Y-99645295D02*
X122285714Y-99550057D01*
X122285714Y-99550057D02*
X122333333Y-99502438D01*
X122333333Y-99502438D02*
X122428571Y-99454819D01*
X142909580Y-107670713D02*
X142957200Y-107718332D01*
X142957200Y-107718332D02*
X143004819Y-107861189D01*
X143004819Y-107861189D02*
X143004819Y-107956427D01*
X143004819Y-107956427D02*
X142957200Y-108099284D01*
X142957200Y-108099284D02*
X142861961Y-108194522D01*
X142861961Y-108194522D02*
X142766723Y-108242141D01*
X142766723Y-108242141D02*
X142576247Y-108289760D01*
X142576247Y-108289760D02*
X142433390Y-108289760D01*
X142433390Y-108289760D02*
X142242914Y-108242141D01*
X142242914Y-108242141D02*
X142147676Y-108194522D01*
X142147676Y-108194522D02*
X142052438Y-108099284D01*
X142052438Y-108099284D02*
X142004819Y-107956427D01*
X142004819Y-107956427D02*
X142004819Y-107861189D01*
X142004819Y-107861189D02*
X142052438Y-107718332D01*
X142052438Y-107718332D02*
X142100057Y-107670713D01*
X143004819Y-106718332D02*
X143004819Y-107289760D01*
X143004819Y-107004046D02*
X142004819Y-107004046D01*
X142004819Y-107004046D02*
X142147676Y-107099284D01*
X142147676Y-107099284D02*
X142242914Y-107194522D01*
X142242914Y-107194522D02*
X142290533Y-107289760D01*
X143004819Y-105765951D02*
X143004819Y-106337379D01*
X143004819Y-106051665D02*
X142004819Y-106051665D01*
X142004819Y-106051665D02*
X142147676Y-106146903D01*
X142147676Y-106146903D02*
X142242914Y-106242141D01*
X142242914Y-106242141D02*
X142290533Y-106337379D01*
X141182142Y-99524819D02*
X140848809Y-99048628D01*
X140610714Y-99524819D02*
X140610714Y-98524819D01*
X140610714Y-98524819D02*
X140991666Y-98524819D01*
X140991666Y-98524819D02*
X141086904Y-98572438D01*
X141086904Y-98572438D02*
X141134523Y-98620057D01*
X141134523Y-98620057D02*
X141182142Y-98715295D01*
X141182142Y-98715295D02*
X141182142Y-98858152D01*
X141182142Y-98858152D02*
X141134523Y-98953390D01*
X141134523Y-98953390D02*
X141086904Y-99001009D01*
X141086904Y-99001009D02*
X140991666Y-99048628D01*
X140991666Y-99048628D02*
X140610714Y-99048628D01*
X141563095Y-98620057D02*
X141610714Y-98572438D01*
X141610714Y-98572438D02*
X141705952Y-98524819D01*
X141705952Y-98524819D02*
X141944047Y-98524819D01*
X141944047Y-98524819D02*
X142039285Y-98572438D01*
X142039285Y-98572438D02*
X142086904Y-98620057D01*
X142086904Y-98620057D02*
X142134523Y-98715295D01*
X142134523Y-98715295D02*
X142134523Y-98810533D01*
X142134523Y-98810533D02*
X142086904Y-98953390D01*
X142086904Y-98953390D02*
X141515476Y-99524819D01*
X141515476Y-99524819D02*
X142134523Y-99524819D01*
X143086904Y-99524819D02*
X142515476Y-99524819D01*
X142801190Y-99524819D02*
X142801190Y-98524819D01*
X142801190Y-98524819D02*
X142705952Y-98667676D01*
X142705952Y-98667676D02*
X142610714Y-98762914D01*
X142610714Y-98762914D02*
X142515476Y-98810533D01*
X122357142Y-106954819D02*
X122023809Y-106478628D01*
X121785714Y-106954819D02*
X121785714Y-105954819D01*
X121785714Y-105954819D02*
X122166666Y-105954819D01*
X122166666Y-105954819D02*
X122261904Y-106002438D01*
X122261904Y-106002438D02*
X122309523Y-106050057D01*
X122309523Y-106050057D02*
X122357142Y-106145295D01*
X122357142Y-106145295D02*
X122357142Y-106288152D01*
X122357142Y-106288152D02*
X122309523Y-106383390D01*
X122309523Y-106383390D02*
X122261904Y-106431009D01*
X122261904Y-106431009D02*
X122166666Y-106478628D01*
X122166666Y-106478628D02*
X121785714Y-106478628D01*
X122690476Y-105954819D02*
X123309523Y-105954819D01*
X123309523Y-105954819D02*
X122976190Y-106335771D01*
X122976190Y-106335771D02*
X123119047Y-106335771D01*
X123119047Y-106335771D02*
X123214285Y-106383390D01*
X123214285Y-106383390D02*
X123261904Y-106431009D01*
X123261904Y-106431009D02*
X123309523Y-106526247D01*
X123309523Y-106526247D02*
X123309523Y-106764342D01*
X123309523Y-106764342D02*
X123261904Y-106859580D01*
X123261904Y-106859580D02*
X123214285Y-106907200D01*
X123214285Y-106907200D02*
X123119047Y-106954819D01*
X123119047Y-106954819D02*
X122833333Y-106954819D01*
X122833333Y-106954819D02*
X122738095Y-106907200D01*
X122738095Y-106907200D02*
X122690476Y-106859580D01*
X124214285Y-105954819D02*
X123738095Y-105954819D01*
X123738095Y-105954819D02*
X123690476Y-106431009D01*
X123690476Y-106431009D02*
X123738095Y-106383390D01*
X123738095Y-106383390D02*
X123833333Y-106335771D01*
X123833333Y-106335771D02*
X124071428Y-106335771D01*
X124071428Y-106335771D02*
X124166666Y-106383390D01*
X124166666Y-106383390D02*
X124214285Y-106431009D01*
X124214285Y-106431009D02*
X124261904Y-106526247D01*
X124261904Y-106526247D02*
X124261904Y-106764342D01*
X124261904Y-106764342D02*
X124214285Y-106859580D01*
X124214285Y-106859580D02*
X124166666Y-106907200D01*
X124166666Y-106907200D02*
X124071428Y-106954819D01*
X124071428Y-106954819D02*
X123833333Y-106954819D01*
X123833333Y-106954819D02*
X123738095Y-106907200D01*
X123738095Y-106907200D02*
X123690476Y-106859580D01*
X121123569Y-91169204D02*
X121933092Y-91169204D01*
X121933092Y-91169204D02*
X122028330Y-91121585D01*
X122028330Y-91121585D02*
X122075950Y-91073966D01*
X122075950Y-91073966D02*
X122123569Y-90978728D01*
X122123569Y-90978728D02*
X122123569Y-90788252D01*
X122123569Y-90788252D02*
X122075950Y-90693014D01*
X122075950Y-90693014D02*
X122028330Y-90645395D01*
X122028330Y-90645395D02*
X121933092Y-90597776D01*
X121933092Y-90597776D02*
X121123569Y-90597776D01*
X121218807Y-90169204D02*
X121171188Y-90121585D01*
X121171188Y-90121585D02*
X121123569Y-90026347D01*
X121123569Y-90026347D02*
X121123569Y-89788252D01*
X121123569Y-89788252D02*
X121171188Y-89693014D01*
X121171188Y-89693014D02*
X121218807Y-89645395D01*
X121218807Y-89645395D02*
X121314045Y-89597776D01*
X121314045Y-89597776D02*
X121409283Y-89597776D01*
X121409283Y-89597776D02*
X121552140Y-89645395D01*
X121552140Y-89645395D02*
X122123569Y-90216823D01*
X122123569Y-90216823D02*
X122123569Y-89597776D01*
X123119583Y-93882119D02*
X122786250Y-93405928D01*
X122548155Y-93882119D02*
X122548155Y-92882119D01*
X122548155Y-92882119D02*
X122929107Y-92882119D01*
X122929107Y-92882119D02*
X123024345Y-92929738D01*
X123024345Y-92929738D02*
X123071964Y-92977357D01*
X123071964Y-92977357D02*
X123119583Y-93072595D01*
X123119583Y-93072595D02*
X123119583Y-93215452D01*
X123119583Y-93215452D02*
X123071964Y-93310690D01*
X123071964Y-93310690D02*
X123024345Y-93358309D01*
X123024345Y-93358309D02*
X122929107Y-93405928D01*
X122929107Y-93405928D02*
X122548155Y-93405928D01*
X123452917Y-92882119D02*
X124119583Y-92882119D01*
X124119583Y-92882119D02*
X123691012Y-93882119D01*
X141039580Y-100142857D02*
X141087200Y-100190476D01*
X141087200Y-100190476D02*
X141134819Y-100333333D01*
X141134819Y-100333333D02*
X141134819Y-100428571D01*
X141134819Y-100428571D02*
X141087200Y-100571428D01*
X141087200Y-100571428D02*
X140991961Y-100666666D01*
X140991961Y-100666666D02*
X140896723Y-100714285D01*
X140896723Y-100714285D02*
X140706247Y-100761904D01*
X140706247Y-100761904D02*
X140563390Y-100761904D01*
X140563390Y-100761904D02*
X140372914Y-100714285D01*
X140372914Y-100714285D02*
X140277676Y-100666666D01*
X140277676Y-100666666D02*
X140182438Y-100571428D01*
X140182438Y-100571428D02*
X140134819Y-100428571D01*
X140134819Y-100428571D02*
X140134819Y-100333333D01*
X140134819Y-100333333D02*
X140182438Y-100190476D01*
X140182438Y-100190476D02*
X140230057Y-100142857D01*
X141134819Y-99190476D02*
X141134819Y-99761904D01*
X141134819Y-99476190D02*
X140134819Y-99476190D01*
X140134819Y-99476190D02*
X140277676Y-99571428D01*
X140277676Y-99571428D02*
X140372914Y-99666666D01*
X140372914Y-99666666D02*
X140420533Y-99761904D01*
X140134819Y-98857142D02*
X140134819Y-98238095D01*
X140134819Y-98238095D02*
X140515771Y-98571428D01*
X140515771Y-98571428D02*
X140515771Y-98428571D01*
X140515771Y-98428571D02*
X140563390Y-98333333D01*
X140563390Y-98333333D02*
X140611009Y-98285714D01*
X140611009Y-98285714D02*
X140706247Y-98238095D01*
X140706247Y-98238095D02*
X140944342Y-98238095D01*
X140944342Y-98238095D02*
X141039580Y-98285714D01*
X141039580Y-98285714D02*
X141087200Y-98333333D01*
X141087200Y-98333333D02*
X141134819Y-98428571D01*
X141134819Y-98428571D02*
X141134819Y-98714285D01*
X141134819Y-98714285D02*
X141087200Y-98809523D01*
X141087200Y-98809523D02*
X141039580Y-98857142D01*
X125738095Y-100954819D02*
X125738095Y-101764342D01*
X125738095Y-101764342D02*
X125785714Y-101859580D01*
X125785714Y-101859580D02*
X125833333Y-101907200D01*
X125833333Y-101907200D02*
X125928571Y-101954819D01*
X125928571Y-101954819D02*
X126119047Y-101954819D01*
X126119047Y-101954819D02*
X126214285Y-101907200D01*
X126214285Y-101907200D02*
X126261904Y-101859580D01*
X126261904Y-101859580D02*
X126309523Y-101764342D01*
X126309523Y-101764342D02*
X126309523Y-100954819D01*
X127309523Y-101954819D02*
X126738095Y-101954819D01*
X127023809Y-101954819D02*
X127023809Y-100954819D01*
X127023809Y-100954819D02*
X126928571Y-101097676D01*
X126928571Y-101097676D02*
X126833333Y-101192914D01*
X126833333Y-101192914D02*
X126738095Y-101240533D01*
X163283333Y-77429580D02*
X163235714Y-77477200D01*
X163235714Y-77477200D02*
X163092857Y-77524819D01*
X163092857Y-77524819D02*
X162997619Y-77524819D01*
X162997619Y-77524819D02*
X162854762Y-77477200D01*
X162854762Y-77477200D02*
X162759524Y-77381961D01*
X162759524Y-77381961D02*
X162711905Y-77286723D01*
X162711905Y-77286723D02*
X162664286Y-77096247D01*
X162664286Y-77096247D02*
X162664286Y-76953390D01*
X162664286Y-76953390D02*
X162711905Y-76762914D01*
X162711905Y-76762914D02*
X162759524Y-76667676D01*
X162759524Y-76667676D02*
X162854762Y-76572438D01*
X162854762Y-76572438D02*
X162997619Y-76524819D01*
X162997619Y-76524819D02*
X163092857Y-76524819D01*
X163092857Y-76524819D02*
X163235714Y-76572438D01*
X163235714Y-76572438D02*
X163283333Y-76620057D01*
X163854762Y-76953390D02*
X163759524Y-76905771D01*
X163759524Y-76905771D02*
X163711905Y-76858152D01*
X163711905Y-76858152D02*
X163664286Y-76762914D01*
X163664286Y-76762914D02*
X163664286Y-76715295D01*
X163664286Y-76715295D02*
X163711905Y-76620057D01*
X163711905Y-76620057D02*
X163759524Y-76572438D01*
X163759524Y-76572438D02*
X163854762Y-76524819D01*
X163854762Y-76524819D02*
X164045238Y-76524819D01*
X164045238Y-76524819D02*
X164140476Y-76572438D01*
X164140476Y-76572438D02*
X164188095Y-76620057D01*
X164188095Y-76620057D02*
X164235714Y-76715295D01*
X164235714Y-76715295D02*
X164235714Y-76762914D01*
X164235714Y-76762914D02*
X164188095Y-76858152D01*
X164188095Y-76858152D02*
X164140476Y-76905771D01*
X164140476Y-76905771D02*
X164045238Y-76953390D01*
X164045238Y-76953390D02*
X163854762Y-76953390D01*
X163854762Y-76953390D02*
X163759524Y-77001009D01*
X163759524Y-77001009D02*
X163711905Y-77048628D01*
X163711905Y-77048628D02*
X163664286Y-77143866D01*
X163664286Y-77143866D02*
X163664286Y-77334342D01*
X163664286Y-77334342D02*
X163711905Y-77429580D01*
X163711905Y-77429580D02*
X163759524Y-77477200D01*
X163759524Y-77477200D02*
X163854762Y-77524819D01*
X163854762Y-77524819D02*
X164045238Y-77524819D01*
X164045238Y-77524819D02*
X164140476Y-77477200D01*
X164140476Y-77477200D02*
X164188095Y-77429580D01*
X164188095Y-77429580D02*
X164235714Y-77334342D01*
X164235714Y-77334342D02*
X164235714Y-77143866D01*
X164235714Y-77143866D02*
X164188095Y-77048628D01*
X164188095Y-77048628D02*
X164140476Y-77001009D01*
X164140476Y-77001009D02*
X164045238Y-76953390D01*
X135300595Y-96533569D02*
X135300595Y-97343092D01*
X135300595Y-97343092D02*
X135348214Y-97438330D01*
X135348214Y-97438330D02*
X135395833Y-97485950D01*
X135395833Y-97485950D02*
X135491071Y-97533569D01*
X135491071Y-97533569D02*
X135681547Y-97533569D01*
X135681547Y-97533569D02*
X135776785Y-97485950D01*
X135776785Y-97485950D02*
X135824404Y-97438330D01*
X135824404Y-97438330D02*
X135872023Y-97343092D01*
X135872023Y-97343092D02*
X135872023Y-96533569D01*
X136776785Y-96866902D02*
X136776785Y-97533569D01*
X136538690Y-96485950D02*
X136300595Y-97200235D01*
X136300595Y-97200235D02*
X136919642Y-97200235D01*
X156082142Y-86289580D02*
X156034523Y-86337200D01*
X156034523Y-86337200D02*
X155891666Y-86384819D01*
X155891666Y-86384819D02*
X155796428Y-86384819D01*
X155796428Y-86384819D02*
X155653571Y-86337200D01*
X155653571Y-86337200D02*
X155558333Y-86241961D01*
X155558333Y-86241961D02*
X155510714Y-86146723D01*
X155510714Y-86146723D02*
X155463095Y-85956247D01*
X155463095Y-85956247D02*
X155463095Y-85813390D01*
X155463095Y-85813390D02*
X155510714Y-85622914D01*
X155510714Y-85622914D02*
X155558333Y-85527676D01*
X155558333Y-85527676D02*
X155653571Y-85432438D01*
X155653571Y-85432438D02*
X155796428Y-85384819D01*
X155796428Y-85384819D02*
X155891666Y-85384819D01*
X155891666Y-85384819D02*
X156034523Y-85432438D01*
X156034523Y-85432438D02*
X156082142Y-85480057D01*
X157034523Y-86384819D02*
X156463095Y-86384819D01*
X156748809Y-86384819D02*
X156748809Y-85384819D01*
X156748809Y-85384819D02*
X156653571Y-85527676D01*
X156653571Y-85527676D02*
X156558333Y-85622914D01*
X156558333Y-85622914D02*
X156463095Y-85670533D01*
X157605952Y-85813390D02*
X157510714Y-85765771D01*
X157510714Y-85765771D02*
X157463095Y-85718152D01*
X157463095Y-85718152D02*
X157415476Y-85622914D01*
X157415476Y-85622914D02*
X157415476Y-85575295D01*
X157415476Y-85575295D02*
X157463095Y-85480057D01*
X157463095Y-85480057D02*
X157510714Y-85432438D01*
X157510714Y-85432438D02*
X157605952Y-85384819D01*
X157605952Y-85384819D02*
X157796428Y-85384819D01*
X157796428Y-85384819D02*
X157891666Y-85432438D01*
X157891666Y-85432438D02*
X157939285Y-85480057D01*
X157939285Y-85480057D02*
X157986904Y-85575295D01*
X157986904Y-85575295D02*
X157986904Y-85622914D01*
X157986904Y-85622914D02*
X157939285Y-85718152D01*
X157939285Y-85718152D02*
X157891666Y-85765771D01*
X157891666Y-85765771D02*
X157796428Y-85813390D01*
X157796428Y-85813390D02*
X157605952Y-85813390D01*
X157605952Y-85813390D02*
X157510714Y-85861009D01*
X157510714Y-85861009D02*
X157463095Y-85908628D01*
X157463095Y-85908628D02*
X157415476Y-86003866D01*
X157415476Y-86003866D02*
X157415476Y-86194342D01*
X157415476Y-86194342D02*
X157463095Y-86289580D01*
X157463095Y-86289580D02*
X157510714Y-86337200D01*
X157510714Y-86337200D02*
X157605952Y-86384819D01*
X157605952Y-86384819D02*
X157796428Y-86384819D01*
X157796428Y-86384819D02*
X157891666Y-86337200D01*
X157891666Y-86337200D02*
X157939285Y-86289580D01*
X157939285Y-86289580D02*
X157986904Y-86194342D01*
X157986904Y-86194342D02*
X157986904Y-86003866D01*
X157986904Y-86003866D02*
X157939285Y-85908628D01*
X157939285Y-85908628D02*
X157891666Y-85861009D01*
X157891666Y-85861009D02*
X157796428Y-85813390D01*
X120857142Y-108784819D02*
X120523809Y-108308628D01*
X120285714Y-108784819D02*
X120285714Y-107784819D01*
X120285714Y-107784819D02*
X120666666Y-107784819D01*
X120666666Y-107784819D02*
X120761904Y-107832438D01*
X120761904Y-107832438D02*
X120809523Y-107880057D01*
X120809523Y-107880057D02*
X120857142Y-107975295D01*
X120857142Y-107975295D02*
X120857142Y-108118152D01*
X120857142Y-108118152D02*
X120809523Y-108213390D01*
X120809523Y-108213390D02*
X120761904Y-108261009D01*
X120761904Y-108261009D02*
X120666666Y-108308628D01*
X120666666Y-108308628D02*
X120285714Y-108308628D01*
X121714285Y-108118152D02*
X121714285Y-108784819D01*
X121476190Y-107737200D02*
X121238095Y-108451485D01*
X121238095Y-108451485D02*
X121857142Y-108451485D01*
X122666666Y-107784819D02*
X122476190Y-107784819D01*
X122476190Y-107784819D02*
X122380952Y-107832438D01*
X122380952Y-107832438D02*
X122333333Y-107880057D01*
X122333333Y-107880057D02*
X122238095Y-108022914D01*
X122238095Y-108022914D02*
X122190476Y-108213390D01*
X122190476Y-108213390D02*
X122190476Y-108594342D01*
X122190476Y-108594342D02*
X122238095Y-108689580D01*
X122238095Y-108689580D02*
X122285714Y-108737200D01*
X122285714Y-108737200D02*
X122380952Y-108784819D01*
X122380952Y-108784819D02*
X122571428Y-108784819D01*
X122571428Y-108784819D02*
X122666666Y-108737200D01*
X122666666Y-108737200D02*
X122714285Y-108689580D01*
X122714285Y-108689580D02*
X122761904Y-108594342D01*
X122761904Y-108594342D02*
X122761904Y-108356247D01*
X122761904Y-108356247D02*
X122714285Y-108261009D01*
X122714285Y-108261009D02*
X122666666Y-108213390D01*
X122666666Y-108213390D02*
X122571428Y-108165771D01*
X122571428Y-108165771D02*
X122380952Y-108165771D01*
X122380952Y-108165771D02*
X122285714Y-108213390D01*
X122285714Y-108213390D02*
X122238095Y-108261009D01*
X122238095Y-108261009D02*
X122190476Y-108356247D01*
X146204580Y-99867857D02*
X146252200Y-99915476D01*
X146252200Y-99915476D02*
X146299819Y-100058333D01*
X146299819Y-100058333D02*
X146299819Y-100153571D01*
X146299819Y-100153571D02*
X146252200Y-100296428D01*
X146252200Y-100296428D02*
X146156961Y-100391666D01*
X146156961Y-100391666D02*
X146061723Y-100439285D01*
X146061723Y-100439285D02*
X145871247Y-100486904D01*
X145871247Y-100486904D02*
X145728390Y-100486904D01*
X145728390Y-100486904D02*
X145537914Y-100439285D01*
X145537914Y-100439285D02*
X145442676Y-100391666D01*
X145442676Y-100391666D02*
X145347438Y-100296428D01*
X145347438Y-100296428D02*
X145299819Y-100153571D01*
X145299819Y-100153571D02*
X145299819Y-100058333D01*
X145299819Y-100058333D02*
X145347438Y-99915476D01*
X145347438Y-99915476D02*
X145395057Y-99867857D01*
X146299819Y-98915476D02*
X146299819Y-99486904D01*
X146299819Y-99201190D02*
X145299819Y-99201190D01*
X145299819Y-99201190D02*
X145442676Y-99296428D01*
X145442676Y-99296428D02*
X145537914Y-99391666D01*
X145537914Y-99391666D02*
X145585533Y-99486904D01*
X145299819Y-98010714D02*
X145299819Y-98486904D01*
X145299819Y-98486904D02*
X145776009Y-98534523D01*
X145776009Y-98534523D02*
X145728390Y-98486904D01*
X145728390Y-98486904D02*
X145680771Y-98391666D01*
X145680771Y-98391666D02*
X145680771Y-98153571D01*
X145680771Y-98153571D02*
X145728390Y-98058333D01*
X145728390Y-98058333D02*
X145776009Y-98010714D01*
X145776009Y-98010714D02*
X145871247Y-97963095D01*
X145871247Y-97963095D02*
X146109342Y-97963095D01*
X146109342Y-97963095D02*
X146204580Y-98010714D01*
X146204580Y-98010714D02*
X146252200Y-98058333D01*
X146252200Y-98058333D02*
X146299819Y-98153571D01*
X146299819Y-98153571D02*
X146299819Y-98391666D01*
X146299819Y-98391666D02*
X146252200Y-98486904D01*
X146252200Y-98486904D02*
X146204580Y-98534523D01*
X147305057Y-78070238D02*
X147257438Y-78165476D01*
X147257438Y-78165476D02*
X147162200Y-78260714D01*
X147162200Y-78260714D02*
X147019342Y-78403571D01*
X147019342Y-78403571D02*
X146971723Y-78498809D01*
X146971723Y-78498809D02*
X146971723Y-78594047D01*
X147209819Y-78546428D02*
X147162200Y-78641666D01*
X147162200Y-78641666D02*
X147066961Y-78736904D01*
X147066961Y-78736904D02*
X146876485Y-78784523D01*
X146876485Y-78784523D02*
X146543152Y-78784523D01*
X146543152Y-78784523D02*
X146352676Y-78736904D01*
X146352676Y-78736904D02*
X146257438Y-78641666D01*
X146257438Y-78641666D02*
X146209819Y-78546428D01*
X146209819Y-78546428D02*
X146209819Y-78355952D01*
X146209819Y-78355952D02*
X146257438Y-78260714D01*
X146257438Y-78260714D02*
X146352676Y-78165476D01*
X146352676Y-78165476D02*
X146543152Y-78117857D01*
X146543152Y-78117857D02*
X146876485Y-78117857D01*
X146876485Y-78117857D02*
X147066961Y-78165476D01*
X147066961Y-78165476D02*
X147162200Y-78260714D01*
X147162200Y-78260714D02*
X147209819Y-78355952D01*
X147209819Y-78355952D02*
X147209819Y-78546428D01*
X146209819Y-77260714D02*
X146209819Y-77451190D01*
X146209819Y-77451190D02*
X146257438Y-77546428D01*
X146257438Y-77546428D02*
X146305057Y-77594047D01*
X146305057Y-77594047D02*
X146447914Y-77689285D01*
X146447914Y-77689285D02*
X146638390Y-77736904D01*
X146638390Y-77736904D02*
X147019342Y-77736904D01*
X147019342Y-77736904D02*
X147114580Y-77689285D01*
X147114580Y-77689285D02*
X147162200Y-77641666D01*
X147162200Y-77641666D02*
X147209819Y-77546428D01*
X147209819Y-77546428D02*
X147209819Y-77355952D01*
X147209819Y-77355952D02*
X147162200Y-77260714D01*
X147162200Y-77260714D02*
X147114580Y-77213095D01*
X147114580Y-77213095D02*
X147019342Y-77165476D01*
X147019342Y-77165476D02*
X146781247Y-77165476D01*
X146781247Y-77165476D02*
X146686009Y-77213095D01*
X146686009Y-77213095D02*
X146638390Y-77260714D01*
X146638390Y-77260714D02*
X146590771Y-77355952D01*
X146590771Y-77355952D02*
X146590771Y-77546428D01*
X146590771Y-77546428D02*
X146638390Y-77641666D01*
X146638390Y-77641666D02*
X146686009Y-77689285D01*
X146686009Y-77689285D02*
X146781247Y-77736904D01*
%TO.C,R36*%
D14*
X118836359Y-104880000D02*
X119143641Y-104880000D01*
X118836359Y-104120000D02*
X119143641Y-104120000D01*
%TO.C,C9*%
X166860000Y-104495563D02*
X166860000Y-94840000D01*
X166860000Y-94840000D02*
X163010000Y-94840000D01*
X165795563Y-105560000D02*
X166860000Y-104495563D01*
X165795563Y-105560000D02*
X163010000Y-105560000D01*
X158740000Y-107050000D02*
X158740000Y-105800000D01*
X158115000Y-106425000D02*
X159365000Y-106425000D01*
X157204437Y-105560000D02*
X159990000Y-105560000D01*
X157204437Y-105560000D02*
X156140000Y-104495563D01*
X156140000Y-104495563D02*
X156140000Y-94840000D01*
X156140000Y-94840000D02*
X159990000Y-94840000D01*
%TO.C,Q1*%
X152025000Y-70325000D02*
X152025000Y-76745000D01*
X152025000Y-76745000D02*
X152295000Y-76745000D01*
X158925000Y-70325000D02*
X158925000Y-76745000D01*
X158925000Y-76745000D02*
X158655000Y-76745000D01*
X152335000Y-78475000D02*
X151865000Y-78815000D01*
X151865000Y-78135000D01*
X152335000Y-78475000D01*
G36*
X152335000Y-78475000D02*
G01*
X151865000Y-78815000D01*
X151865000Y-78135000D01*
X152335000Y-78475000D01*
G37*
%TO.C,C5*%
X130490000Y-102415580D02*
X130490000Y-102134420D01*
X131510000Y-102415580D02*
X131510000Y-102134420D01*
%TO.C,R23*%
X145380242Y-81177500D02*
X145854758Y-81177500D01*
X145380242Y-82222500D02*
X145854758Y-82222500D01*
%TO.C,R13*%
X122062258Y-95977500D02*
X121587742Y-95977500D01*
X122062258Y-97022500D02*
X121587742Y-97022500D01*
%TO.C,Q3*%
X134525000Y-70825000D02*
X134525000Y-77245000D01*
X134525000Y-77245000D02*
X134795000Y-77245000D01*
X141425000Y-70825000D02*
X141425000Y-77245000D01*
X141425000Y-77245000D02*
X141155000Y-77245000D01*
X134835000Y-78975000D02*
X134365000Y-79315000D01*
X134365000Y-78635000D01*
X134835000Y-78975000D01*
G36*
X134835000Y-78975000D02*
G01*
X134365000Y-79315000D01*
X134365000Y-78635000D01*
X134835000Y-78975000D01*
G37*
%TO.C,R32*%
X148437742Y-82977500D02*
X148912258Y-82977500D01*
X148437742Y-84022500D02*
X148912258Y-84022500D01*
%TO.C,R29*%
X148380242Y-81177500D02*
X148854758Y-81177500D01*
X148380242Y-82222500D02*
X148854758Y-82222500D01*
%TO.C,Q2*%
X143525000Y-70325000D02*
X143525000Y-76745000D01*
X143525000Y-76745000D02*
X143795000Y-76745000D01*
X150425000Y-70325000D02*
X150425000Y-76745000D01*
X150425000Y-76745000D02*
X150155000Y-76745000D01*
X143835000Y-78475000D02*
X143365000Y-78815000D01*
X143365000Y-78135000D01*
X143835000Y-78475000D01*
G36*
X143835000Y-78475000D02*
G01*
X143365000Y-78815000D01*
X143365000Y-78135000D01*
X143835000Y-78475000D01*
G37*
%TO.C,R24*%
X154762742Y-80477500D02*
X155237258Y-80477500D01*
X154762742Y-81522500D02*
X155237258Y-81522500D01*
%TO.C,R28*%
X157762742Y-80477500D02*
X158237258Y-80477500D01*
X157762742Y-81522500D02*
X158237258Y-81522500D01*
%TO.C,C9*%
X121140000Y-70704437D02*
X121140000Y-80360000D01*
X121140000Y-80360000D02*
X124990000Y-80360000D01*
X122204437Y-69640000D02*
X121140000Y-70704437D01*
X122204437Y-69640000D02*
X124990000Y-69640000D01*
X129260000Y-68150000D02*
X129260000Y-69400000D01*
X129885000Y-68775000D02*
X128635000Y-68775000D01*
X130795563Y-69640000D02*
X128010000Y-69640000D01*
X130795563Y-69640000D02*
X131860000Y-70704437D01*
X131860000Y-70704437D02*
X131860000Y-80360000D01*
X131860000Y-80360000D02*
X128010000Y-80360000D01*
%TO.C,R30*%
X138437742Y-80877500D02*
X138912258Y-80877500D01*
X138437742Y-81922500D02*
X138912258Y-81922500D01*
%TO.C,R15*%
X128156492Y-84884800D02*
X128631008Y-84884800D01*
X128156492Y-85929800D02*
X128631008Y-85929800D01*
%TO.C,C7*%
X150584420Y-104990000D02*
X150865580Y-104990000D01*
X150584420Y-106010000D02*
X150865580Y-106010000D01*
%TO.C,R20*%
X152977500Y-105737258D02*
X152977500Y-105262742D01*
X154022500Y-105737258D02*
X154022500Y-105262742D01*
%TO.C,C19*%
X121584420Y-97490000D02*
X121865580Y-97490000D01*
X121584420Y-98510000D02*
X121865580Y-98510000D01*
%TO.C,R27*%
X141477500Y-83962258D02*
X141477500Y-83487742D01*
X142522500Y-83962258D02*
X142522500Y-83487742D01*
%TO.C,R9*%
X121831492Y-84884800D02*
X122306008Y-84884800D01*
X121831492Y-85929800D02*
X122306008Y-85929800D01*
%TO.C,R44*%
X123143641Y-104620000D02*
X122836359Y-104620000D01*
X123143641Y-105380000D02*
X122836359Y-105380000D01*
%TO.C,R38*%
X120356359Y-101620000D02*
X120663641Y-101620000D01*
X120356359Y-102380000D02*
X120663641Y-102380000D01*
%TO.C,R18*%
X151227064Y-109590000D02*
X149772936Y-109590000D01*
X151227064Y-111410000D02*
X149772936Y-111410000D01*
%TO.C,R25*%
X158977500Y-84237258D02*
X158977500Y-83762742D01*
X160022500Y-84237258D02*
X160022500Y-83762742D01*
%TO.C,C14*%
X154490000Y-96865580D02*
X154490000Y-96584420D01*
X155510000Y-96865580D02*
X155510000Y-96584420D01*
%TO.C,C17*%
X153665580Y-83990000D02*
X153384420Y-83990000D01*
X153665580Y-85010000D02*
X153384420Y-85010000D01*
%TO.C,R47*%
X121346359Y-110120000D02*
X121653641Y-110120000D01*
X121346359Y-110880000D02*
X121653641Y-110880000D01*
%TO.C,R40*%
X161765000Y-110639564D02*
X161765000Y-110185436D01*
X163235000Y-110639564D02*
X163235000Y-110185436D01*
%TO.C,R45*%
X121346359Y-108120000D02*
X121653641Y-108120000D01*
X121346359Y-108880000D02*
X121653641Y-108880000D01*
%TO.C,EG1192L1*%
X154200000Y-106890000D02*
X158100000Y-106890000D01*
X158100000Y-111920000D02*
X154200000Y-111920000D01*
X161990000Y-111315000D02*
X162320000Y-111075000D01*
X162320000Y-111555000D01*
X161990000Y-111315000D01*
G36*
X162320000Y-111555000D02*
G01*
X161990000Y-111315000D01*
X162320000Y-111075000D01*
X162320000Y-111555000D01*
G37*
%TO.C,R33*%
X138912258Y-82977500D02*
X138437742Y-82977500D01*
X138912258Y-84022500D02*
X138437742Y-84022500D01*
%TO.C,R31*%
X160922742Y-80477500D02*
X161397258Y-80477500D01*
X160922742Y-81522500D02*
X161397258Y-81522500D01*
%TO.C,R11*%
X126156492Y-94384800D02*
X126631008Y-94384800D01*
X126156492Y-95429800D02*
X126631008Y-95429800D01*
%TO.C,L1*%
X142090000Y-107800000D02*
X142090000Y-102100000D01*
X142700000Y-101490000D02*
X143550000Y-101490000D01*
X143550000Y-108410000D02*
X142700000Y-108410000D01*
X147450000Y-101490000D02*
X148300000Y-101490000D01*
X148250000Y-108410000D02*
X147450000Y-108410000D01*
X148910000Y-102100000D02*
X148910000Y-107750000D01*
X142090000Y-102100000D02*
G75*
G02*
X142700000Y-101490000I610000J0D01*
G01*
X142700000Y-108410000D02*
G75*
G02*
X142090000Y-107800000I0J610000D01*
G01*
X148300000Y-101490000D02*
G75*
G02*
X148910000Y-102100000I0J-610000D01*
G01*
X148910000Y-107750000D02*
G75*
G02*
X148250000Y-108410000I-660002J2D01*
G01*
%TO.C,R17*%
X159977500Y-110562258D02*
X159977500Y-110087742D01*
X161022500Y-110562258D02*
X161022500Y-110087742D01*
%TO.C,R42*%
X142437742Y-66977500D02*
X142912258Y-66977500D01*
X142437742Y-68022500D02*
X142912258Y-68022500D01*
%TO.C,C6*%
X150990000Y-107634420D02*
X150990000Y-107915580D01*
X152010000Y-107634420D02*
X152010000Y-107915580D01*
%TO.C,C12*%
X132265000Y-99217498D02*
X132265000Y-99740002D01*
X133735000Y-99217498D02*
X133735000Y-99740002D01*
%TO.C,R16*%
X120588750Y-88419558D02*
X120588750Y-87945042D01*
X121633750Y-88419558D02*
X121633750Y-87945042D01*
%TO.C,R26*%
X154762742Y-81977500D02*
X155237258Y-81977500D01*
X154762742Y-83022500D02*
X155237258Y-83022500D01*
%TO.C,R22*%
X142737258Y-80877500D02*
X142262742Y-80877500D01*
X142737258Y-81922500D02*
X142262742Y-81922500D01*
%TO.C,C10*%
X149490000Y-99134420D02*
X149490000Y-99415580D01*
X150510000Y-99134420D02*
X150510000Y-99415580D01*
%TO.C,R14*%
X124587742Y-98477500D02*
X125062258Y-98477500D01*
X124587742Y-99522500D02*
X125062258Y-99522500D01*
%TO.C,R12*%
X120588750Y-91295042D02*
X120588750Y-91769558D01*
X121633750Y-91295042D02*
X121633750Y-91769558D01*
%TO.C,D1*%
X143900000Y-111635000D02*
X147960000Y-111635000D01*
X147960000Y-109365000D02*
X143900000Y-109365000D01*
X147960000Y-111635000D02*
X147960000Y-109365000D01*
%TO.C,U3*%
X151190000Y-92172500D02*
X151190000Y-87552500D01*
X157960000Y-87552500D02*
X157960000Y-92172500D01*
X151645000Y-93722500D02*
X151885000Y-94052500D01*
X151405000Y-94052500D01*
X151645000Y-93722500D01*
G36*
X151885000Y-94052500D02*
G01*
X151405000Y-94052500D01*
X151645000Y-93722500D01*
X151885000Y-94052500D01*
G37*
%TO.C,R37*%
X119856359Y-103120000D02*
X120163641Y-103120000D01*
X119856359Y-103880000D02*
X120163641Y-103880000D01*
%TO.C,C4*%
X124634420Y-95990000D02*
X124915580Y-95990000D01*
X124634420Y-97010000D02*
X124915580Y-97010000D01*
%TO.C,R19*%
X150962258Y-103477500D02*
X150487742Y-103477500D01*
X150962258Y-104522500D02*
X150487742Y-104522500D01*
%TO.C,R41*%
X130262742Y-67477500D02*
X130737258Y-67477500D01*
X130262742Y-68522500D02*
X130737258Y-68522500D01*
%TO.C,C3*%
X125153170Y-84897300D02*
X125434330Y-84897300D01*
X125153170Y-85917300D02*
X125434330Y-85917300D01*
%TO.C,C16*%
X150490000Y-84084420D02*
X150490000Y-84365580D01*
X151510000Y-84084420D02*
X151510000Y-84365580D01*
%TO.C,R43*%
X153262742Y-66977500D02*
X153737258Y-66977500D01*
X153262742Y-68022500D02*
X153737258Y-68022500D01*
%TO.C,C20*%
X123865580Y-99990000D02*
X123584420Y-99990000D01*
X123865580Y-101010000D02*
X123584420Y-101010000D01*
%TO.C,C11*%
X133060000Y-108987856D02*
X131610000Y-108987856D01*
X133060000Y-109027856D02*
X131627000Y-109027856D01*
X133060000Y-109067856D02*
X131644000Y-109067856D01*
X133060000Y-109107856D02*
X131662000Y-109107856D01*
X133060000Y-109147856D02*
X131680000Y-109147856D01*
X133060000Y-109187856D02*
X131698000Y-109187856D01*
X133060000Y-109227856D02*
X131717000Y-109227856D01*
X133060000Y-109267856D02*
X131736000Y-109267856D01*
X133060000Y-109307856D02*
X131756000Y-109307856D01*
X133060000Y-109347856D02*
X131776000Y-109347856D01*
X133060000Y-109387856D02*
X131796000Y-109387856D01*
X133060000Y-109427856D02*
X131817000Y-109427856D01*
X133060000Y-109467856D02*
X131839000Y-109467856D01*
X133060000Y-109507856D02*
X131861000Y-109507856D01*
X133060000Y-109547856D02*
X131883000Y-109547856D01*
X133060000Y-109587856D02*
X131906000Y-109587856D01*
X133060000Y-109627856D02*
X131929000Y-109627856D01*
X133060000Y-109667856D02*
X131953000Y-109667856D01*
X133060000Y-109707856D02*
X131977000Y-109707856D01*
X133060000Y-109747856D02*
X132002000Y-109747856D01*
X133060000Y-109787856D02*
X132028000Y-109787856D01*
X133060000Y-109827856D02*
X132053000Y-109827856D01*
X133060000Y-109867856D02*
X132080000Y-109867856D01*
X133060000Y-109907856D02*
X132107000Y-109907856D01*
X133060000Y-109947856D02*
X132134000Y-109947856D01*
X133060000Y-109987856D02*
X132162000Y-109987856D01*
X133060000Y-110027856D02*
X132191000Y-110027856D01*
X133060000Y-110067856D02*
X132220000Y-110067856D01*
X133060000Y-110107856D02*
X132250000Y-110107856D01*
X133060000Y-110147856D02*
X132280000Y-110147856D01*
X133060000Y-110187856D02*
X132312000Y-110187856D01*
X133060000Y-110227856D02*
X132343000Y-110227856D01*
X133060000Y-110267856D02*
X132376000Y-110267856D01*
X133060000Y-110307856D02*
X132409000Y-110307856D01*
X133060000Y-110347856D02*
X132442000Y-110347856D01*
X133060000Y-110387856D02*
X132477000Y-110387856D01*
X133060000Y-110427856D02*
X132512000Y-110427856D01*
X133060000Y-110467856D02*
X132548000Y-110467856D01*
X133060000Y-110507856D02*
X132584000Y-110507856D01*
X133060000Y-110547856D02*
X132622000Y-110547856D01*
X133060000Y-110587856D02*
X132660000Y-110587856D01*
X133060000Y-110627856D02*
X132699000Y-110627856D01*
X133060000Y-110667856D02*
X132739000Y-110667856D01*
X133060000Y-110707856D02*
X132780000Y-110707856D01*
X133060000Y-110747856D02*
X132822000Y-110747856D01*
X133060000Y-110787856D02*
X132865000Y-110787856D01*
X133060000Y-110827856D02*
X132909000Y-110827856D01*
X133060000Y-110867856D02*
X132953000Y-110867856D01*
X133060000Y-110907856D02*
X132999000Y-110907856D01*
X135060000Y-108307856D02*
X131383000Y-108307856D01*
X135060000Y-108347856D02*
X131393000Y-108347856D01*
X135060000Y-108387856D02*
X131404000Y-108387856D01*
X135060000Y-108427856D02*
X131415000Y-108427856D01*
X135060000Y-108467856D02*
X131427000Y-108467856D01*
X135060000Y-108507856D02*
X131439000Y-108507856D01*
X135060000Y-108547856D02*
X131451000Y-108547856D01*
X135060000Y-108587856D02*
X131463000Y-108587856D01*
X135060000Y-108627856D02*
X131476000Y-108627856D01*
X135060000Y-108667856D02*
X131490000Y-108667856D01*
X135060000Y-108707856D02*
X131503000Y-108707856D01*
X135060000Y-108747856D02*
X131518000Y-108747856D01*
X135060000Y-108787856D02*
X131532000Y-108787856D01*
X135060000Y-108827856D02*
X131547000Y-108827856D01*
X135060000Y-108867856D02*
X131562000Y-108867856D01*
X135060000Y-108907856D02*
X131578000Y-108907856D01*
X135060000Y-108947856D02*
X131594000Y-108947856D01*
X136899000Y-112107856D02*
X135701000Y-112107856D01*
X137162000Y-112067856D02*
X135438000Y-112067856D01*
X137362000Y-112027856D02*
X135238000Y-112027856D01*
X137530000Y-111987856D02*
X135070000Y-111987856D01*
X137677000Y-111947856D02*
X134923000Y-111947856D01*
X137809000Y-111907856D02*
X134791000Y-111907856D01*
X137930000Y-111867856D02*
X134670000Y-111867856D01*
X138042000Y-111827856D02*
X134558000Y-111827856D01*
X138146000Y-111787856D02*
X134454000Y-111787856D01*
X138244000Y-111747856D02*
X134356000Y-111747856D01*
X138337000Y-111707856D02*
X134263000Y-111707856D01*
X138424000Y-111667856D02*
X134176000Y-111667856D01*
X138508000Y-111627856D02*
X134092000Y-111627856D01*
X138588000Y-111587856D02*
X134012000Y-111587856D01*
X138665000Y-111547856D02*
X133935000Y-111547856D01*
X138739000Y-111507856D02*
X133861000Y-111507856D01*
X138810000Y-111467856D02*
X133790000Y-111467856D01*
X138878000Y-111427856D02*
X135540000Y-111427856D01*
X138944000Y-111387856D02*
X135540000Y-111387856D01*
X139008000Y-111347856D02*
X135540000Y-111347856D01*
X139070000Y-111307856D02*
X135540000Y-111307856D01*
X139130000Y-111267856D02*
X135540000Y-111267856D01*
X139175000Y-101548210D02*
X139175000Y-102548210D01*
X139188000Y-111227856D02*
X135540000Y-111227856D01*
X139245000Y-111187856D02*
X135540000Y-111187856D01*
X139300000Y-111147856D02*
X135540000Y-111147856D01*
X139353000Y-111107856D02*
X135540000Y-111107856D01*
X139405000Y-111067856D02*
X135540000Y-111067856D01*
X139456000Y-111027856D02*
X135540000Y-111027856D01*
X139505000Y-110987856D02*
X135540000Y-110987856D01*
X139554000Y-110947856D02*
X135540000Y-110947856D01*
X139601000Y-110907856D02*
X135540000Y-110907856D01*
X139647000Y-110867856D02*
X135540000Y-110867856D01*
X139675000Y-102048210D02*
X138675000Y-102048210D01*
X139691000Y-110827856D02*
X135540000Y-110827856D01*
X139735000Y-110787856D02*
X135540000Y-110787856D01*
X139778000Y-110747856D02*
X137540000Y-110747856D01*
X139820000Y-110707856D02*
X137540000Y-110707856D01*
X139861000Y-110667856D02*
X137540000Y-110667856D01*
X139901000Y-110627856D02*
X137540000Y-110627856D01*
X139940000Y-110587856D02*
X137540000Y-110587856D01*
X139978000Y-110547856D02*
X137540000Y-110547856D01*
X140016000Y-110507856D02*
X137540000Y-110507856D01*
X140052000Y-110467856D02*
X137540000Y-110467856D01*
X140088000Y-110427856D02*
X137540000Y-110427856D01*
X140123000Y-110387856D02*
X137540000Y-110387856D01*
X140158000Y-110347856D02*
X137540000Y-110347856D01*
X140191000Y-110307856D02*
X137540000Y-110307856D01*
X140224000Y-110267856D02*
X137540000Y-110267856D01*
X140257000Y-110227856D02*
X137540000Y-110227856D01*
X140288000Y-110187856D02*
X137540000Y-110187856D01*
X140320000Y-110147856D02*
X137540000Y-110147856D01*
X140350000Y-110107856D02*
X137540000Y-110107856D01*
X140380000Y-110067856D02*
X137540000Y-110067856D01*
X140409000Y-110027856D02*
X137540000Y-110027856D01*
X140438000Y-109987856D02*
X137540000Y-109987856D01*
X140466000Y-109947856D02*
X137540000Y-109947856D01*
X140493000Y-109907856D02*
X137540000Y-109907856D01*
X140520000Y-109867856D02*
X137540000Y-109867856D01*
X140547000Y-109827856D02*
X137540000Y-109827856D01*
X140572000Y-109787856D02*
X137540000Y-109787856D01*
X140598000Y-109747856D02*
X137540000Y-109747856D01*
X140623000Y-109707856D02*
X137540000Y-109707856D01*
X140647000Y-109667856D02*
X137540000Y-109667856D01*
X140671000Y-109627856D02*
X137540000Y-109627856D01*
X140694000Y-109587856D02*
X137540000Y-109587856D01*
X140717000Y-109547856D02*
X137540000Y-109547856D01*
X140739000Y-109507856D02*
X137540000Y-109507856D01*
X140761000Y-109467856D02*
X137540000Y-109467856D01*
X140783000Y-109427856D02*
X137540000Y-109427856D01*
X140804000Y-109387856D02*
X137540000Y-109387856D01*
X140824000Y-109347856D02*
X137540000Y-109347856D01*
X140844000Y-109307856D02*
X137540000Y-109307856D01*
X140864000Y-109267856D02*
X137540000Y-109267856D01*
X140883000Y-109227856D02*
X137540000Y-109227856D01*
X140902000Y-109187856D02*
X137540000Y-109187856D01*
X140920000Y-109147856D02*
X137540000Y-109147856D01*
X140938000Y-109107856D02*
X137540000Y-109107856D01*
X140956000Y-109067856D02*
X137540000Y-109067856D01*
X140973000Y-109027856D02*
X137540000Y-109027856D01*
X140990000Y-108987856D02*
X137540000Y-108987856D01*
X141006000Y-108947856D02*
X137540000Y-108947856D01*
X141022000Y-108907856D02*
X137540000Y-108907856D01*
X141038000Y-108867856D02*
X137540000Y-108867856D01*
X141053000Y-108827856D02*
X137540000Y-108827856D01*
X141068000Y-108787856D02*
X137540000Y-108787856D01*
X141082000Y-108747856D02*
X137540000Y-108747856D01*
X141097000Y-108707856D02*
X137540000Y-108707856D01*
X141110000Y-108667856D02*
X137540000Y-108667856D01*
X141124000Y-108627856D02*
X137540000Y-108627856D01*
X141137000Y-108587856D02*
X137540000Y-108587856D01*
X141149000Y-108547856D02*
X137540000Y-108547856D01*
X141161000Y-108507856D02*
X137540000Y-108507856D01*
X141173000Y-108467856D02*
X137540000Y-108467856D01*
X141185000Y-108427856D02*
X137540000Y-108427856D01*
X141196000Y-108387856D02*
X137540000Y-108387856D01*
X141207000Y-108347856D02*
X137540000Y-108347856D01*
X141217000Y-108307856D02*
X137540000Y-108307856D01*
X141228000Y-108267856D02*
X131372000Y-108267856D01*
X141237000Y-108227856D02*
X131363000Y-108227856D01*
X141247000Y-108187856D02*
X131353000Y-108187856D01*
X141256000Y-108147856D02*
X131344000Y-108147856D01*
X141265000Y-108107856D02*
X131335000Y-108107856D01*
X141273000Y-108067856D02*
X131327000Y-108067856D01*
X141281000Y-108027856D02*
X131319000Y-108027856D01*
X141289000Y-107987856D02*
X131311000Y-107987856D01*
X141297000Y-107947856D02*
X131303000Y-107947856D01*
X141304000Y-107907856D02*
X131296000Y-107907856D01*
X141311000Y-107867856D02*
X131289000Y-107867856D01*
X141317000Y-107827856D02*
X131283000Y-107827856D01*
X141323000Y-107787856D02*
X131277000Y-107787856D01*
X141329000Y-107747856D02*
X131271000Y-107747856D01*
X141335000Y-107707856D02*
X131265000Y-107707856D01*
X141340000Y-107667856D02*
X131260000Y-107667856D01*
X141345000Y-107627856D02*
X131255000Y-107627856D01*
X141349000Y-107587856D02*
X131251000Y-107587856D01*
X141354000Y-107547856D02*
X131246000Y-107547856D01*
X141357000Y-107507856D02*
X131243000Y-107507856D01*
X141361000Y-107467856D02*
X131239000Y-107467856D01*
X141364000Y-107427856D02*
X131236000Y-107427856D01*
X141367000Y-107387856D02*
X131233000Y-107387856D01*
X141370000Y-107347856D02*
X131230000Y-107347856D01*
X141372000Y-107307856D02*
X131228000Y-107307856D01*
X141374000Y-107267856D02*
X131226000Y-107267856D01*
X141376000Y-107227856D02*
X131224000Y-107227856D01*
X141377000Y-107187856D02*
X131223000Y-107187856D01*
X141379000Y-107107856D02*
X131221000Y-107107856D01*
X141379000Y-107147856D02*
X131221000Y-107147856D01*
X141380000Y-107027856D02*
X131220000Y-107027856D01*
X141380000Y-107067856D02*
X131220000Y-107067856D01*
X139560000Y-103079844D02*
G75*
G02*
X138013098Y-102202952I-3260000J-3948012D01*
G01*
%TO.C,R21*%
X141587742Y-99977500D02*
X142062258Y-99977500D01*
X141587742Y-101022500D02*
X142062258Y-101022500D01*
%TO.C,R35*%
X122937742Y-105977500D02*
X123412258Y-105977500D01*
X122937742Y-107022500D02*
X123412258Y-107022500D01*
%TO.C,U2*%
X122508750Y-90407300D02*
X122508750Y-88457300D01*
X122508750Y-90407300D02*
X122508750Y-92357300D01*
X127628750Y-90407300D02*
X127628750Y-88457300D01*
X127628750Y-90407300D02*
X127628750Y-92357300D01*
X122603750Y-93107300D02*
X122273750Y-93347300D01*
X122273750Y-92867300D01*
X122603750Y-93107300D01*
G36*
X122603750Y-93107300D02*
G01*
X122273750Y-93347300D01*
X122273750Y-92867300D01*
X122603750Y-93107300D01*
G37*
%TO.C,R7*%
X123048992Y-94334800D02*
X123523508Y-94334800D01*
X123048992Y-95379800D02*
X123523508Y-95379800D01*
%TO.C,C13*%
X138265000Y-99238748D02*
X138265000Y-99761252D01*
X139735000Y-99238748D02*
X139735000Y-99761252D01*
%TO.C,U1*%
X124940000Y-102490000D02*
X125390000Y-102490000D01*
X124940000Y-102940000D02*
X124940000Y-102490000D01*
X124940000Y-105710000D02*
X124940000Y-105260000D01*
X125390000Y-105710000D02*
X124940000Y-105710000D01*
X127710000Y-102490000D02*
X128160000Y-102490000D01*
X128160000Y-102490000D02*
X128160000Y-102940000D01*
X128160000Y-105260000D02*
X128160000Y-105710000D01*
X128160000Y-105710000D02*
X127710000Y-105710000D01*
X125750000Y-106240000D02*
X125990000Y-106570000D01*
X125510000Y-106570000D01*
X125750000Y-106240000D01*
G36*
X125990000Y-106570000D02*
G01*
X125510000Y-106570000D01*
X125750000Y-106240000D01*
X125990000Y-106570000D01*
G37*
%TO.C,C8*%
X164084420Y-77990000D02*
X164365580Y-77990000D01*
X164084420Y-79010000D02*
X164365580Y-79010000D01*
%TO.C,U4*%
X135302500Y-97918750D02*
X136822500Y-97918750D01*
X135302500Y-97968750D02*
X135302500Y-97918750D01*
X135302500Y-99868750D02*
X135302500Y-99088750D01*
X135302500Y-101038750D02*
X135302500Y-100988750D01*
X136822500Y-97918750D02*
X136822500Y-98918750D01*
X136822500Y-100038750D02*
X136822500Y-101038750D01*
X136822500Y-101038750D02*
X135302500Y-101038750D01*
X134762500Y-99098750D02*
X135002500Y-99428750D01*
X134522500Y-99428750D01*
X134762500Y-99098750D01*
G36*
X135002500Y-99428750D02*
G01*
X134522500Y-99428750D01*
X134762500Y-99098750D01*
X135002500Y-99428750D01*
G37*
%TO.C,C18*%
X156865580Y-83990000D02*
X156584420Y-83990000D01*
X156865580Y-85010000D02*
X156584420Y-85010000D01*
%TO.C,R46*%
X121346359Y-109120000D02*
X121653641Y-109120000D01*
X121346359Y-109880000D02*
X121653641Y-109880000D01*
%TO.C,C15*%
X146765000Y-99365580D02*
X146765000Y-99084420D01*
X147785000Y-99365580D02*
X147785000Y-99084420D01*
%TD*%
%LPC*%
D15*
X124300000Y-102000000D02*
G75*
G02*
X123700000Y-102000000I-300000J0D01*
G01*
X123700000Y-102000000D02*
G75*
G02*
X124300000Y-102000000I300000J0D01*
G01*
D16*
X128250000Y-106500000D02*
G75*
G02*
X127750000Y-106500000I-250000J0D01*
G01*
X127750000Y-106500000D02*
G75*
G02*
X128250000Y-106500000I250000J0D01*
G01*
D17*
%TO.C,R36*%
X119500000Y-104500000D03*
X118480000Y-104500000D03*
%TD*%
D18*
%TO.C,C9*%
X161500000Y-96000000D03*
X161500000Y-104400000D03*
%TD*%
D19*
%TO.C,Q1*%
X153195000Y-78475000D03*
D20*
X155475000Y-72175000D03*
D19*
X157755000Y-78475000D03*
%TD*%
D21*
%TO.C,C5*%
X131000000Y-103050000D03*
X131000000Y-101500000D03*
%TD*%
D22*
%TO.C,R23*%
X144792500Y-81700000D03*
X146442500Y-81700000D03*
%TD*%
D23*
%TO.C,R13*%
X122650000Y-96500000D03*
X121000000Y-96500000D03*
%TD*%
D19*
%TO.C,Q3*%
X135695000Y-78975000D03*
D20*
X137975000Y-72675000D03*
D19*
X140255000Y-78975000D03*
%TD*%
D22*
%TO.C,R32*%
X147850000Y-83500000D03*
X149500000Y-83500000D03*
%TD*%
%TO.C,R29*%
X147792500Y-81700000D03*
X149442500Y-81700000D03*
%TD*%
D19*
%TO.C,Q2*%
X144695000Y-78475000D03*
D20*
X146975000Y-72175000D03*
D19*
X149255000Y-78475000D03*
%TD*%
D22*
%TO.C,R24*%
X154175000Y-81000000D03*
X155825000Y-81000000D03*
%TD*%
%TO.C,R28*%
X157175000Y-81000000D03*
X158825000Y-81000000D03*
%TD*%
D24*
%TO.C,C9*%
X126500000Y-70800000D03*
X126500000Y-79200000D03*
%TD*%
D22*
%TO.C,R30*%
X137850000Y-81400000D03*
X139500000Y-81400000D03*
%TD*%
%TO.C,R15*%
X127568750Y-85407300D03*
X129218750Y-85407300D03*
%TD*%
D25*
%TO.C,C7*%
X149950000Y-105500000D03*
X151500000Y-105500000D03*
%TD*%
D26*
%TO.C,R20*%
X153500000Y-106325000D03*
X153500000Y-104675000D03*
%TD*%
D25*
%TO.C,C19*%
X120950000Y-98000000D03*
X122500000Y-98000000D03*
%TD*%
D26*
%TO.C,R27*%
X142000000Y-84550000D03*
X142000000Y-82900000D03*
%TD*%
D22*
%TO.C,R9*%
X121243750Y-85407300D03*
X122893750Y-85407300D03*
%TD*%
D27*
%TO.C,R44*%
X123500000Y-105000000D03*
X122480000Y-105000000D03*
%TD*%
D17*
%TO.C,R38*%
X120000000Y-102000000D03*
X121020000Y-102000000D03*
%TD*%
D28*
%TO.C,R18*%
X151962500Y-110500000D03*
X149037500Y-110500000D03*
%TD*%
D26*
%TO.C,R25*%
X159500000Y-84825000D03*
X159500000Y-83175000D03*
%TD*%
D21*
%TO.C,C14*%
X155000000Y-97500000D03*
X155000000Y-95950000D03*
%TD*%
D29*
%TO.C,C17*%
X154300000Y-84500000D03*
X152750000Y-84500000D03*
%TD*%
D17*
%TO.C,R47*%
X120990000Y-110500000D03*
X122010000Y-110500000D03*
%TD*%
D30*
%TO.C,R40*%
X162500000Y-111325000D03*
X162500000Y-109500000D03*
%TD*%
D17*
%TO.C,R45*%
X120990000Y-108500000D03*
X122010000Y-108500000D03*
%TD*%
D31*
%TO.C,EG1192L1*%
X158650000Y-111310000D03*
X158650000Y-110040000D03*
X158650000Y-108770000D03*
X158650000Y-107500000D03*
X153650000Y-107500000D03*
X153650000Y-108770000D03*
X153650000Y-110040000D03*
X153650000Y-111310000D03*
D32*
X156150000Y-109405000D03*
%TD*%
D23*
%TO.C,R33*%
X139500000Y-83500000D03*
X137850000Y-83500000D03*
%TD*%
D22*
%TO.C,R31*%
X160335000Y-81000000D03*
X161985000Y-81000000D03*
%TD*%
%TO.C,R11*%
X125568750Y-94907300D03*
X127218750Y-94907300D03*
%TD*%
D33*
%TO.C,L1*%
X145500000Y-108000000D03*
X145500000Y-101900000D03*
%TD*%
D26*
%TO.C,R17*%
X160500000Y-111150000D03*
X160500000Y-109500000D03*
%TD*%
D22*
%TO.C,R42*%
X141850000Y-67500000D03*
X143500000Y-67500000D03*
%TD*%
D34*
%TO.C,C6*%
X151500000Y-107000000D03*
X151500000Y-108550000D03*
%TD*%
D35*
%TO.C,C12*%
X133000000Y-98528750D03*
X133000000Y-100428750D03*
%TD*%
D26*
%TO.C,R16*%
X121111250Y-89007300D03*
X121111250Y-87357300D03*
%TD*%
D22*
%TO.C,R26*%
X154175000Y-82500000D03*
X155825000Y-82500000D03*
%TD*%
D23*
%TO.C,R22*%
X143325000Y-81400000D03*
X141675000Y-81400000D03*
%TD*%
D34*
%TO.C,C10*%
X150000000Y-98500000D03*
X150000000Y-100050000D03*
%TD*%
D22*
%TO.C,R14*%
X124000000Y-99000000D03*
X125650000Y-99000000D03*
%TD*%
D36*
%TO.C,R12*%
X121111250Y-90707300D03*
X121111250Y-92357300D03*
%TD*%
D37*
%TO.C,D1*%
X146987500Y-110500000D03*
X144012500Y-110500000D03*
%TD*%
D38*
%TO.C,U3*%
X151650000Y-92725000D03*
X152300000Y-92725000D03*
X152950000Y-92725000D03*
X153600000Y-92725000D03*
X154250000Y-92725000D03*
X154900000Y-92725000D03*
X155550000Y-92725000D03*
X156200000Y-92725000D03*
X156850000Y-92725000D03*
X157500000Y-92725000D03*
X157500000Y-87000000D03*
X156850000Y-87000000D03*
X156200000Y-87000000D03*
X155550000Y-87000000D03*
X154900000Y-87000000D03*
X154250000Y-87000000D03*
X153600000Y-87000000D03*
X152950000Y-87000000D03*
X152300000Y-87000000D03*
X151650000Y-87000000D03*
%TD*%
D17*
%TO.C,R37*%
X119500000Y-103500000D03*
X120520000Y-103500000D03*
%TD*%
D25*
%TO.C,C4*%
X124000000Y-96500000D03*
X125550000Y-96500000D03*
%TD*%
D23*
%TO.C,R19*%
X151550000Y-104000000D03*
X149900000Y-104000000D03*
%TD*%
D22*
%TO.C,R41*%
X129675000Y-68000000D03*
X131325000Y-68000000D03*
%TD*%
D25*
%TO.C,C3*%
X124518750Y-85407300D03*
X126068750Y-85407300D03*
%TD*%
D34*
%TO.C,C16*%
X151000000Y-83450000D03*
X151000000Y-85000000D03*
%TD*%
D22*
%TO.C,R43*%
X152675000Y-67500000D03*
X154325000Y-67500000D03*
%TD*%
D29*
%TO.C,C20*%
X124500000Y-100500000D03*
X122950000Y-100500000D03*
%TD*%
D39*
%TO.C,C11*%
X138300000Y-103855712D03*
X136300000Y-104527856D03*
D40*
X136300000Y-109527856D03*
X134300000Y-110200000D03*
%TD*%
D22*
%TO.C,R21*%
X141000000Y-100500000D03*
X142650000Y-100500000D03*
%TD*%
%TO.C,R35*%
X122350000Y-106500000D03*
X124000000Y-106500000D03*
%TD*%
D41*
%TO.C,U2*%
X123163750Y-93032300D03*
X124433750Y-93032300D03*
X125703750Y-93032300D03*
X126973750Y-93032300D03*
X126973750Y-87782300D03*
X125703750Y-87782300D03*
X124433750Y-87782300D03*
X123163750Y-87782300D03*
%TD*%
D22*
%TO.C,R7*%
X122461250Y-94857300D03*
X124111250Y-94857300D03*
%TD*%
D35*
%TO.C,C13*%
X139000000Y-98550000D03*
X139000000Y-100450000D03*
%TD*%
D42*
%TO.C,U1*%
X125750000Y-105550000D03*
X126150000Y-105550000D03*
X126550000Y-105550000D03*
X126950000Y-105550000D03*
X127350000Y-105550000D03*
D43*
X128000000Y-104900000D03*
X128000000Y-104500000D03*
X128000000Y-104100000D03*
X128000000Y-103700000D03*
X128000000Y-103300000D03*
D42*
X127350000Y-102650000D03*
X126950000Y-102650000D03*
X126550000Y-102650000D03*
X126150000Y-102650000D03*
X125750000Y-102650000D03*
D43*
X125100000Y-103300000D03*
X125100000Y-103700000D03*
X125100000Y-104100000D03*
X125100000Y-104500000D03*
X125100000Y-104900000D03*
D44*
X126550000Y-104100000D03*
%TD*%
D25*
%TO.C,C8*%
X163450000Y-78500000D03*
X165000000Y-78500000D03*
%TD*%
D45*
%TO.C,U4*%
X135125000Y-98528750D03*
X135125000Y-100428750D03*
X137000000Y-99478750D03*
%TD*%
D29*
%TO.C,C18*%
X157500000Y-84500000D03*
X155950000Y-84500000D03*
%TD*%
D17*
%TO.C,R46*%
X120990000Y-109500000D03*
X122010000Y-109500000D03*
%TD*%
D21*
%TO.C,C15*%
X147275000Y-100000000D03*
X147275000Y-98450000D03*
%TD*%
D46*
X158500000Y-94000000D03*
X159500000Y-93000000D03*
X158500000Y-93000000D03*
X157000000Y-95500000D03*
D47*
X163000000Y-85500000D03*
D46*
X126000000Y-73500000D03*
X153000000Y-76000000D03*
X126500000Y-71000000D03*
X162000000Y-68500000D03*
X131500000Y-70500000D03*
X134000000Y-75500000D03*
X162000000Y-71500000D03*
X134500000Y-70500000D03*
X166500000Y-70000000D03*
X127500000Y-73500000D03*
X163500000Y-71500000D03*
X127500000Y-75500000D03*
X126000000Y-75500000D03*
X130000000Y-70500000D03*
X165000000Y-68500000D03*
X163500000Y-68500000D03*
X166500000Y-68500000D03*
X162000000Y-70000000D03*
X129500000Y-73500000D03*
D47*
X163000000Y-74500000D03*
D46*
X134000000Y-76500000D03*
X165000000Y-70000000D03*
X144000000Y-76500000D03*
X163500000Y-70000000D03*
X133000000Y-70500000D03*
X165000000Y-71500000D03*
X133000000Y-76500000D03*
X133000000Y-75500000D03*
X166500000Y-71500000D03*
X129500000Y-75500000D03*
X128500000Y-70500000D03*
X159000000Y-78500000D03*
D47*
X157000000Y-66000000D03*
D46*
X156500000Y-78500000D03*
X160000000Y-79500000D03*
X158000000Y-77500000D03*
X158000000Y-79500000D03*
X156500000Y-77500000D03*
X159000000Y-77500000D03*
X160000000Y-77500000D03*
X160000000Y-78500000D03*
X159000000Y-79500000D03*
X158000000Y-78500000D03*
X156500000Y-79500000D03*
D48*
X129950000Y-107099999D03*
D49*
X129000000Y-111149997D03*
D46*
X152500000Y-80500000D03*
X163500000Y-82000000D03*
X147000000Y-91500000D03*
X140000000Y-91500000D03*
X163500000Y-80500000D03*
X163000000Y-89500000D03*
X141000000Y-91500000D03*
X163000000Y-88500000D03*
X164000000Y-90500000D03*
X160000000Y-91500000D03*
X163000000Y-91500000D03*
X162000000Y-89500000D03*
X133000000Y-84000000D03*
D50*
X165500000Y-65500000D03*
D46*
X133000000Y-78500000D03*
X136000000Y-91425000D03*
X161500000Y-66000000D03*
X130500000Y-84000000D03*
X161500000Y-83000000D03*
X138000000Y-91500000D03*
X149000000Y-91500000D03*
X144000000Y-91500000D03*
X162000000Y-91500000D03*
X137000000Y-91500000D03*
X148000000Y-91500000D03*
D50*
X166000000Y-110700000D03*
D46*
X133000000Y-81500000D03*
D49*
X126950000Y-106950000D03*
D46*
X158500000Y-86000000D03*
X161000000Y-91500000D03*
X154000000Y-64000000D03*
X161500000Y-64500000D03*
X163000000Y-83000000D03*
X145000000Y-91500000D03*
X133000000Y-79500000D03*
X143000000Y-91500000D03*
X133000000Y-83000000D03*
X152000000Y-64000000D03*
X146000000Y-91500000D03*
X163000000Y-90500000D03*
X139000000Y-91500000D03*
X152500000Y-81500000D03*
X162000000Y-88500000D03*
D50*
X119800000Y-65300000D03*
D46*
X150500000Y-90500000D03*
X150500000Y-89500000D03*
X164000000Y-83000000D03*
X150500000Y-91500000D03*
X150500000Y-64000000D03*
X162000000Y-90500000D03*
X159000000Y-89000000D03*
X159000000Y-90000000D03*
X164000000Y-89500000D03*
X164000000Y-88500000D03*
D48*
X125000000Y-111000000D03*
D46*
X164000000Y-91500000D03*
X135000000Y-91500000D03*
X133000000Y-80500000D03*
X138500000Y-79000000D03*
X141500000Y-80000000D03*
X141500000Y-78000000D03*
X142000000Y-79000000D03*
X138500000Y-78000000D03*
X140500000Y-80000000D03*
X140500000Y-78000000D03*
D47*
X138500000Y-66600000D03*
D46*
X139500000Y-80000000D03*
X141000000Y-79000000D03*
X139500000Y-78000000D03*
X140250000Y-79000000D03*
X139500000Y-79000000D03*
X138500000Y-80000000D03*
X143500000Y-87000000D03*
X144000000Y-85500000D03*
X143500000Y-84500000D03*
X148500000Y-86000000D03*
X145500000Y-83000000D03*
X142500000Y-86500000D03*
X146000000Y-87000000D03*
X144500000Y-84500000D03*
X147500000Y-85000000D03*
X145000000Y-86500000D03*
X146000000Y-86000000D03*
X148500000Y-85000000D03*
X146500000Y-84000000D03*
X147480025Y-87019975D03*
X145000000Y-85000000D03*
X149500000Y-86000000D03*
X148500000Y-79500000D03*
X147500000Y-79500000D03*
X149500000Y-77500000D03*
D47*
X147000000Y-66300000D03*
D46*
X149500000Y-78500000D03*
X150500000Y-77500000D03*
X149500000Y-79500000D03*
X148500000Y-78500000D03*
X147500000Y-77500000D03*
X147500000Y-78500000D03*
X150500000Y-79500000D03*
X150500000Y-78500000D03*
X148500000Y-77500000D03*
X119000000Y-108000000D03*
X119000000Y-111000000D03*
X135500000Y-82500000D03*
X135000000Y-84500000D03*
X140000000Y-86500000D03*
X139000000Y-85500000D03*
X136000000Y-84500000D03*
X138000000Y-85500000D03*
X137500000Y-86500000D03*
X136000000Y-83500000D03*
X135000000Y-83500000D03*
X137000000Y-85500000D03*
X135000000Y-85500000D03*
X136500000Y-86500000D03*
X140500000Y-85000000D03*
X136500000Y-82500000D03*
X139000000Y-86500000D03*
X135500000Y-86500000D03*
X136000000Y-85500000D03*
X119000000Y-109500000D03*
D49*
X126249997Y-111149997D03*
X127500000Y-111149997D03*
X131000000Y-111149997D03*
%LPD*%
M02*
