%TF.GenerationSoftware,KiCad,Pcbnew,10.0.5*%
%TF.CreationDate,2026-08-01T00:29:04+08:00*%
%TF.ProjectId,wfoc,77666f63-2e6b-4696-9361-645f70636258,rev?*%
%TF.SameCoordinates,Original*%
%TF.FileFunction,Soldermask,Bot*%
%TF.FilePolarity,Negative*%
%FSLAX46Y46*%
G04 Gerber Fmt 4.6, Leading zero omitted, Abs format (unit mm)*
G04 Created by KiCad (PCBNEW 10.0.5) date 2026-08-01 00:29:04*
%MOMM*%
%LPD*%
G01*
G04 APERTURE LIST*
G04 Aperture macros list*
%AMRoundRect*
0 Rectangle with rounded corners*
0 $1 Rounding radius*
0 $2 $3 $4 $5 $6 $7 $8 $9 X,Y pos of 4 corners*
0 Add a 4 corners polygon primitive as box body*
4,1,4,$2,$3,$4,$5,$6,$7,$8,$9,$2,$3,0*
0 Add four circle primitives for the rounded corners*
1,1,$1+$1,$2,$3*
1,1,$1+$1,$4,$5*
1,1,$1+$1,$6,$7*
1,1,$1+$1,$8,$9*
0 Add four rect primitives between the rounded corners*
20,1,$1+$1,$2,$3,$4,$5,0*
20,1,$1+$1,$4,$5,$6,$7,0*
20,1,$1+$1,$6,$7,$8,$9,0*
20,1,$1+$1,$8,$9,$2,$3,0*%
G04 Aperture macros list end*
%ADD10RoundRect,0.250000X-0.750000X0.750000X-0.750000X-0.750000X0.750000X-0.750000X0.750000X0.750000X0*%
%ADD11C,2.000000*%
%ADD12RoundRect,0.200000X0.275000X-0.200000X0.275000X0.200000X-0.275000X0.200000X-0.275000X-0.200000X0*%
%ADD13RoundRect,0.250000X0.350000X-0.850000X0.350000X0.850000X-0.350000X0.850000X-0.350000X-0.850000X0*%
%ADD14RoundRect,0.249997X2.650003X-2.950003X2.650003X2.950003X-2.650003X2.950003X-2.650003X-2.950003X0*%
%ADD15RoundRect,0.250000X1.425000X-0.362500X1.425000X0.362500X-1.425000X0.362500X-1.425000X-0.362500X0*%
%ADD16RoundRect,0.200000X-0.200000X-0.275000X0.200000X-0.275000X0.200000X0.275000X-0.200000X0.275000X0*%
%ADD17RoundRect,0.200000X0.200000X0.275000X-0.200000X0.275000X-0.200000X-0.275000X0.200000X-0.275000X0*%
%ADD18C,0.800000*%
%ADD19C,4.000000*%
%ADD20C,0.500000*%
%ADD21C,0.600000*%
%ADD22C,3.000000*%
G04 APERTURE END LIST*
D10*
%TO.C,C11*%
X138300000Y-103855712D03*
X136300000Y-104527856D03*
D11*
X136300000Y-109527856D03*
X134300000Y-110200000D03*
%TD*%
D12*
%TO.C,TH1*%
X135500000Y-74500000D03*
X135500000Y-72850000D03*
%TD*%
D13*
%TO.C,Q5*%
X159755000Y-83000000D03*
D14*
X157475000Y-76700000D03*
D13*
X155195000Y-83000000D03*
%TD*%
D15*
%TO.C,R4*%
X144000000Y-91425000D03*
X144000000Y-85500000D03*
%TD*%
%TO.C,R6*%
X136000000Y-91425000D03*
X136000000Y-85500000D03*
%TD*%
D13*
%TO.C,Q6*%
X150755000Y-82975000D03*
D14*
X148475000Y-76675000D03*
D13*
X146195000Y-82975000D03*
%TD*%
D16*
%TO.C,R10*%
X129243750Y-90000000D03*
X130893750Y-90000000D03*
%TD*%
D17*
%TO.C,R5*%
X130893750Y-88500000D03*
X129243750Y-88500000D03*
%TD*%
%TO.C,R8*%
X130893750Y-91500000D03*
X129243750Y-91500000D03*
%TD*%
D13*
%TO.C,Q4*%
X142255000Y-82975000D03*
D14*
X139975000Y-76675000D03*
D13*
X137695000Y-82975000D03*
%TD*%
D17*
%TO.C,R3*%
X130893750Y-87000000D03*
X129243750Y-87000000D03*
%TD*%
D15*
%TO.C,R2*%
X140000000Y-91425000D03*
X140000000Y-85500000D03*
%TD*%
%TO.C,R1*%
X148000000Y-91425000D03*
X148000000Y-85500000D03*
%TD*%
D18*
X158500000Y-94000000D03*
X159500000Y-93000000D03*
X158500000Y-93000000D03*
X157000000Y-95500000D03*
D19*
X163000000Y-85500000D03*
D18*
X126000000Y-73500000D03*
X153000000Y-76000000D03*
X126500000Y-71000000D03*
X162000000Y-68500000D03*
X131500000Y-70500000D03*
X134000000Y-75500000D03*
X162000000Y-71500000D03*
X134500000Y-70500000D03*
X166500000Y-70000000D03*
X127500000Y-73500000D03*
X163500000Y-71500000D03*
X127500000Y-75500000D03*
X126000000Y-75500000D03*
X130000000Y-70500000D03*
X165000000Y-68500000D03*
X163500000Y-68500000D03*
X166500000Y-68500000D03*
X162000000Y-70000000D03*
X129500000Y-73500000D03*
D19*
X163000000Y-74500000D03*
D18*
X134000000Y-76500000D03*
X165000000Y-70000000D03*
X144000000Y-76500000D03*
X163500000Y-70000000D03*
X133000000Y-70500000D03*
X165000000Y-71500000D03*
X133000000Y-76500000D03*
X133000000Y-75500000D03*
X166500000Y-71500000D03*
X129500000Y-75500000D03*
X128500000Y-70500000D03*
X159000000Y-78500000D03*
D19*
X157000000Y-66000000D03*
D18*
X156500000Y-78500000D03*
X160000000Y-79500000D03*
X158000000Y-77500000D03*
X158000000Y-79500000D03*
X156500000Y-77500000D03*
X159000000Y-77500000D03*
X160000000Y-77500000D03*
X160000000Y-78500000D03*
X159000000Y-79500000D03*
X158000000Y-78500000D03*
X156500000Y-79500000D03*
D20*
X129950000Y-107099999D03*
D21*
X129000000Y-111149997D03*
D18*
X152500000Y-80500000D03*
X163500000Y-82000000D03*
X147000000Y-91500000D03*
X140000000Y-91500000D03*
X163500000Y-80500000D03*
X163000000Y-89500000D03*
X141000000Y-91500000D03*
X163000000Y-88500000D03*
X164000000Y-90500000D03*
X160000000Y-91500000D03*
X163000000Y-91500000D03*
X162000000Y-89500000D03*
X133000000Y-84000000D03*
D22*
X165500000Y-65500000D03*
D18*
X133000000Y-78500000D03*
X136000000Y-91425000D03*
X161500000Y-66000000D03*
X130500000Y-84000000D03*
X161500000Y-83000000D03*
X138000000Y-91500000D03*
X149000000Y-91500000D03*
X144000000Y-91500000D03*
X162000000Y-91500000D03*
X137000000Y-91500000D03*
X148000000Y-91500000D03*
D22*
X166000000Y-110700000D03*
D18*
X133000000Y-81500000D03*
D21*
X126950000Y-106950000D03*
D18*
X158500000Y-86000000D03*
X161000000Y-91500000D03*
X154000000Y-64000000D03*
X161500000Y-64500000D03*
X163000000Y-83000000D03*
X145000000Y-91500000D03*
X133000000Y-79500000D03*
X143000000Y-91500000D03*
X133000000Y-83000000D03*
X152000000Y-64000000D03*
X146000000Y-91500000D03*
X163000000Y-90500000D03*
X139000000Y-91500000D03*
X152500000Y-81500000D03*
X162000000Y-88500000D03*
D22*
X119800000Y-65300000D03*
D18*
X150500000Y-90500000D03*
X150500000Y-89500000D03*
X164000000Y-83000000D03*
X150500000Y-91500000D03*
X150500000Y-64000000D03*
X162000000Y-90500000D03*
X159000000Y-89000000D03*
X159000000Y-90000000D03*
X164000000Y-89500000D03*
X164000000Y-88500000D03*
D20*
X125000000Y-111000000D03*
D18*
X164000000Y-91500000D03*
X135000000Y-91500000D03*
X133000000Y-80500000D03*
X138500000Y-79000000D03*
X141500000Y-80000000D03*
X141500000Y-78000000D03*
X142000000Y-79000000D03*
X138500000Y-78000000D03*
X140500000Y-80000000D03*
X140500000Y-78000000D03*
D19*
X138500000Y-66600000D03*
D18*
X139500000Y-80000000D03*
X141000000Y-79000000D03*
X139500000Y-78000000D03*
X140250000Y-79000000D03*
X139500000Y-79000000D03*
X138500000Y-80000000D03*
X143500000Y-87000000D03*
X144000000Y-85500000D03*
X143500000Y-84500000D03*
X148500000Y-86000000D03*
X145500000Y-83000000D03*
X142500000Y-86500000D03*
X146000000Y-87000000D03*
X144500000Y-84500000D03*
X147500000Y-85000000D03*
X145000000Y-86500000D03*
X146000000Y-86000000D03*
X148500000Y-85000000D03*
X146500000Y-84000000D03*
X147480025Y-87019975D03*
X145000000Y-85000000D03*
X149500000Y-86000000D03*
X148500000Y-79500000D03*
X147500000Y-79500000D03*
X149500000Y-77500000D03*
D19*
X147000000Y-66300000D03*
D18*
X149500000Y-78500000D03*
X150500000Y-77500000D03*
X149500000Y-79500000D03*
X148500000Y-78500000D03*
X147500000Y-77500000D03*
X147500000Y-78500000D03*
X150500000Y-79500000D03*
X150500000Y-78500000D03*
X148500000Y-77500000D03*
X119000000Y-108000000D03*
X119000000Y-111000000D03*
X135500000Y-82500000D03*
X135000000Y-84500000D03*
X140000000Y-86500000D03*
X139000000Y-85500000D03*
X136000000Y-84500000D03*
X138000000Y-85500000D03*
X137500000Y-86500000D03*
X136000000Y-83500000D03*
X135000000Y-83500000D03*
X137000000Y-85500000D03*
X135000000Y-85500000D03*
X136500000Y-86500000D03*
X140500000Y-85000000D03*
X136500000Y-82500000D03*
X139000000Y-86500000D03*
X135500000Y-86500000D03*
X136000000Y-85500000D03*
X119000000Y-109500000D03*
D21*
X126249997Y-111149997D03*
X127500000Y-111149997D03*
X131000000Y-111149997D03*
M02*
