%TF.GenerationSoftware,KiCad,Pcbnew,10.0.5*%
%TF.CreationDate,2026-08-01T00:29:04+08:00*%
%TF.ProjectId,wfoc,77666f63-2e6b-4696-9361-645f70636258,rev?*%
%TF.SameCoordinates,Original*%
%TF.FileFunction,Legend,Bot*%
%TF.FilePolarity,Positive*%
%FSLAX46Y46*%
G04 Gerber Fmt 4.6, Leading zero omitted, Abs format (unit mm)*
G04 Created by KiCad (PCBNEW 10.0.5) date 2026-08-01 00:29:04*
%MOMM*%
%LPD*%
G01*
G04 APERTURE LIST*
G04 Aperture macros list*
%AMRoundRect*
0 Rectangle with rounded corners*
0 $1 Rounding radius*
0 $2 $3 $4 $5 $6 $7 $8 $9 X,Y pos of 4 corners*
0 Add a 4 corners polygon primitive as box body*
4,1,4,$2,$3,$4,$5,$6,$7,$8,$9,$2,$3,0*
0 Add four circle primitives for the rounded corners*
1,1,$1+$1,$2,$3*
1,1,$1+$1,$4,$5*
1,1,$1+$1,$6,$7*
1,1,$1+$1,$8,$9*
0 Add four rect primitives between the rounded corners*
20,1,$1+$1,$2,$3,$4,$5,0*
20,1,$1+$1,$4,$5,$6,$7,0*
20,1,$1+$1,$6,$7,$8,$9,0*
20,1,$1+$1,$8,$9,$2,$3,0*%
G04 Aperture macros list end*
%ADD10C,0.150000*%
%ADD11C,0.120000*%
%ADD12RoundRect,0.250000X-0.750000X0.750000X-0.750000X-0.750000X0.750000X-0.750000X0.750000X0.750000X0*%
%ADD13C,2.000000*%
%ADD14RoundRect,0.200000X0.275000X-0.200000X0.275000X0.200000X-0.275000X0.200000X-0.275000X-0.200000X0*%
%ADD15RoundRect,0.250000X0.350000X-0.850000X0.350000X0.850000X-0.350000X0.850000X-0.350000X-0.850000X0*%
%ADD16RoundRect,0.249997X2.650003X-2.950003X2.650003X2.950003X-2.650003X2.950003X-2.650003X-2.950003X0*%
%ADD17RoundRect,0.250000X1.425000X-0.362500X1.425000X0.362500X-1.425000X0.362500X-1.425000X-0.362500X0*%
%ADD18RoundRect,0.200000X-0.200000X-0.275000X0.200000X-0.275000X0.200000X0.275000X-0.200000X0.275000X0*%
%ADD19RoundRect,0.200000X0.200000X0.275000X-0.200000X0.275000X-0.200000X-0.275000X0.200000X-0.275000X0*%
%ADD20C,0.800000*%
%ADD21C,4.000000*%
%ADD22C,0.500000*%
%ADD23C,0.600000*%
%ADD24C,3.000000*%
G04 APERTURE END LIST*
D10*
X136384819Y-72389286D02*
X136384819Y-72960714D01*
X137384819Y-72675000D02*
X136384819Y-72675000D01*
X137384819Y-73294048D02*
X136384819Y-73294048D01*
X136861009Y-73294048D02*
X136861009Y-73865476D01*
X137384819Y-73865476D02*
X136384819Y-73865476D01*
X137384819Y-74865476D02*
X137384819Y-74294048D01*
X137384819Y-74579762D02*
X136384819Y-74579762D01*
X136384819Y-74579762D02*
X136527676Y-74484524D01*
X136527676Y-74484524D02*
X136622914Y-74389286D01*
X136622914Y-74389286D02*
X136670533Y-74294048D01*
X160630238Y-77350057D02*
X160725476Y-77302438D01*
X160725476Y-77302438D02*
X160820714Y-77207200D01*
X160820714Y-77207200D02*
X160963571Y-77064342D01*
X160963571Y-77064342D02*
X161058809Y-77016723D01*
X161058809Y-77016723D02*
X161154047Y-77016723D01*
X161106428Y-77254819D02*
X161201666Y-77207200D01*
X161201666Y-77207200D02*
X161296904Y-77111961D01*
X161296904Y-77111961D02*
X161344523Y-76921485D01*
X161344523Y-76921485D02*
X161344523Y-76588152D01*
X161344523Y-76588152D02*
X161296904Y-76397676D01*
X161296904Y-76397676D02*
X161201666Y-76302438D01*
X161201666Y-76302438D02*
X161106428Y-76254819D01*
X161106428Y-76254819D02*
X160915952Y-76254819D01*
X160915952Y-76254819D02*
X160820714Y-76302438D01*
X160820714Y-76302438D02*
X160725476Y-76397676D01*
X160725476Y-76397676D02*
X160677857Y-76588152D01*
X160677857Y-76588152D02*
X160677857Y-76921485D01*
X160677857Y-76921485D02*
X160725476Y-77111961D01*
X160725476Y-77111961D02*
X160820714Y-77207200D01*
X160820714Y-77207200D02*
X160915952Y-77254819D01*
X160915952Y-77254819D02*
X161106428Y-77254819D01*
X159773095Y-76254819D02*
X160249285Y-76254819D01*
X160249285Y-76254819D02*
X160296904Y-76731009D01*
X160296904Y-76731009D02*
X160249285Y-76683390D01*
X160249285Y-76683390D02*
X160154047Y-76635771D01*
X160154047Y-76635771D02*
X159915952Y-76635771D01*
X159915952Y-76635771D02*
X159820714Y-76683390D01*
X159820714Y-76683390D02*
X159773095Y-76731009D01*
X159773095Y-76731009D02*
X159725476Y-76826247D01*
X159725476Y-76826247D02*
X159725476Y-77064342D01*
X159725476Y-77064342D02*
X159773095Y-77159580D01*
X159773095Y-77159580D02*
X159820714Y-77207200D01*
X159820714Y-77207200D02*
X159915952Y-77254819D01*
X159915952Y-77254819D02*
X160154047Y-77254819D01*
X160154047Y-77254819D02*
X160249285Y-77207200D01*
X160249285Y-77207200D02*
X160296904Y-77159580D01*
X144166666Y-88954819D02*
X144499999Y-88478628D01*
X144738094Y-88954819D02*
X144738094Y-87954819D01*
X144738094Y-87954819D02*
X144357142Y-87954819D01*
X144357142Y-87954819D02*
X144261904Y-88002438D01*
X144261904Y-88002438D02*
X144214285Y-88050057D01*
X144214285Y-88050057D02*
X144166666Y-88145295D01*
X144166666Y-88145295D02*
X144166666Y-88288152D01*
X144166666Y-88288152D02*
X144214285Y-88383390D01*
X144214285Y-88383390D02*
X144261904Y-88431009D01*
X144261904Y-88431009D02*
X144357142Y-88478628D01*
X144357142Y-88478628D02*
X144738094Y-88478628D01*
X143309523Y-88288152D02*
X143309523Y-88954819D01*
X143547618Y-87907200D02*
X143785713Y-88621485D01*
X143785713Y-88621485D02*
X143166666Y-88621485D01*
X135666666Y-88917319D02*
X135999999Y-88441128D01*
X136238094Y-88917319D02*
X136238094Y-87917319D01*
X136238094Y-87917319D02*
X135857142Y-87917319D01*
X135857142Y-87917319D02*
X135761904Y-87964938D01*
X135761904Y-87964938D02*
X135714285Y-88012557D01*
X135714285Y-88012557D02*
X135666666Y-88107795D01*
X135666666Y-88107795D02*
X135666666Y-88250652D01*
X135666666Y-88250652D02*
X135714285Y-88345890D01*
X135714285Y-88345890D02*
X135761904Y-88393509D01*
X135761904Y-88393509D02*
X135857142Y-88441128D01*
X135857142Y-88441128D02*
X136238094Y-88441128D01*
X134809523Y-87917319D02*
X134999999Y-87917319D01*
X134999999Y-87917319D02*
X135095237Y-87964938D01*
X135095237Y-87964938D02*
X135142856Y-88012557D01*
X135142856Y-88012557D02*
X135238094Y-88155414D01*
X135238094Y-88155414D02*
X135285713Y-88345890D01*
X135285713Y-88345890D02*
X135285713Y-88726842D01*
X135285713Y-88726842D02*
X135238094Y-88822080D01*
X135238094Y-88822080D02*
X135190475Y-88869700D01*
X135190475Y-88869700D02*
X135095237Y-88917319D01*
X135095237Y-88917319D02*
X134904761Y-88917319D01*
X134904761Y-88917319D02*
X134809523Y-88869700D01*
X134809523Y-88869700D02*
X134761904Y-88822080D01*
X134761904Y-88822080D02*
X134714285Y-88726842D01*
X134714285Y-88726842D02*
X134714285Y-88488747D01*
X134714285Y-88488747D02*
X134761904Y-88393509D01*
X134761904Y-88393509D02*
X134809523Y-88345890D01*
X134809523Y-88345890D02*
X134904761Y-88298271D01*
X134904761Y-88298271D02*
X135095237Y-88298271D01*
X135095237Y-88298271D02*
X135190475Y-88345890D01*
X135190475Y-88345890D02*
X135238094Y-88393509D01*
X135238094Y-88393509D02*
X135285713Y-88488747D01*
X130711607Y-91884819D02*
X131044940Y-91408628D01*
X131283035Y-91884819D02*
X131283035Y-90884819D01*
X131283035Y-90884819D02*
X130902083Y-90884819D01*
X130902083Y-90884819D02*
X130806845Y-90932438D01*
X130806845Y-90932438D02*
X130759226Y-90980057D01*
X130759226Y-90980057D02*
X130711607Y-91075295D01*
X130711607Y-91075295D02*
X130711607Y-91218152D01*
X130711607Y-91218152D02*
X130759226Y-91313390D01*
X130759226Y-91313390D02*
X130806845Y-91361009D01*
X130806845Y-91361009D02*
X130902083Y-91408628D01*
X130902083Y-91408628D02*
X131283035Y-91408628D01*
X129759226Y-91884819D02*
X130330654Y-91884819D01*
X130044940Y-91884819D02*
X130044940Y-90884819D01*
X130044940Y-90884819D02*
X130140178Y-91027676D01*
X130140178Y-91027676D02*
X130235416Y-91122914D01*
X130235416Y-91122914D02*
X130330654Y-91170533D01*
X129140178Y-90884819D02*
X129044940Y-90884819D01*
X129044940Y-90884819D02*
X128949702Y-90932438D01*
X128949702Y-90932438D02*
X128902083Y-90980057D01*
X128902083Y-90980057D02*
X128854464Y-91075295D01*
X128854464Y-91075295D02*
X128806845Y-91265771D01*
X128806845Y-91265771D02*
X128806845Y-91503866D01*
X128806845Y-91503866D02*
X128854464Y-91694342D01*
X128854464Y-91694342D02*
X128902083Y-91789580D01*
X128902083Y-91789580D02*
X128949702Y-91837200D01*
X128949702Y-91837200D02*
X129044940Y-91884819D01*
X129044940Y-91884819D02*
X129140178Y-91884819D01*
X129140178Y-91884819D02*
X129235416Y-91837200D01*
X129235416Y-91837200D02*
X129283035Y-91789580D01*
X129283035Y-91789580D02*
X129330654Y-91694342D01*
X129330654Y-91694342D02*
X129378273Y-91503866D01*
X129378273Y-91503866D02*
X129378273Y-91265771D01*
X129378273Y-91265771D02*
X129330654Y-91075295D01*
X129330654Y-91075295D02*
X129283035Y-90980057D01*
X129283035Y-90980057D02*
X129235416Y-90932438D01*
X129235416Y-90932438D02*
X129140178Y-90884819D01*
X130235416Y-87524819D02*
X130568749Y-87048628D01*
X130806844Y-87524819D02*
X130806844Y-86524819D01*
X130806844Y-86524819D02*
X130425892Y-86524819D01*
X130425892Y-86524819D02*
X130330654Y-86572438D01*
X130330654Y-86572438D02*
X130283035Y-86620057D01*
X130283035Y-86620057D02*
X130235416Y-86715295D01*
X130235416Y-86715295D02*
X130235416Y-86858152D01*
X130235416Y-86858152D02*
X130283035Y-86953390D01*
X130283035Y-86953390D02*
X130330654Y-87001009D01*
X130330654Y-87001009D02*
X130425892Y-87048628D01*
X130425892Y-87048628D02*
X130806844Y-87048628D01*
X129330654Y-86524819D02*
X129806844Y-86524819D01*
X129806844Y-86524819D02*
X129854463Y-87001009D01*
X129854463Y-87001009D02*
X129806844Y-86953390D01*
X129806844Y-86953390D02*
X129711606Y-86905771D01*
X129711606Y-86905771D02*
X129473511Y-86905771D01*
X129473511Y-86905771D02*
X129378273Y-86953390D01*
X129378273Y-86953390D02*
X129330654Y-87001009D01*
X129330654Y-87001009D02*
X129283035Y-87096247D01*
X129283035Y-87096247D02*
X129283035Y-87334342D01*
X129283035Y-87334342D02*
X129330654Y-87429580D01*
X129330654Y-87429580D02*
X129378273Y-87477200D01*
X129378273Y-87477200D02*
X129473511Y-87524819D01*
X129473511Y-87524819D02*
X129711606Y-87524819D01*
X129711606Y-87524819D02*
X129806844Y-87477200D01*
X129806844Y-87477200D02*
X129854463Y-87429580D01*
X130235416Y-90524819D02*
X130568749Y-90048628D01*
X130806844Y-90524819D02*
X130806844Y-89524819D01*
X130806844Y-89524819D02*
X130425892Y-89524819D01*
X130425892Y-89524819D02*
X130330654Y-89572438D01*
X130330654Y-89572438D02*
X130283035Y-89620057D01*
X130283035Y-89620057D02*
X130235416Y-89715295D01*
X130235416Y-89715295D02*
X130235416Y-89858152D01*
X130235416Y-89858152D02*
X130283035Y-89953390D01*
X130283035Y-89953390D02*
X130330654Y-90001009D01*
X130330654Y-90001009D02*
X130425892Y-90048628D01*
X130425892Y-90048628D02*
X130806844Y-90048628D01*
X129663987Y-89953390D02*
X129759225Y-89905771D01*
X129759225Y-89905771D02*
X129806844Y-89858152D01*
X129806844Y-89858152D02*
X129854463Y-89762914D01*
X129854463Y-89762914D02*
X129854463Y-89715295D01*
X129854463Y-89715295D02*
X129806844Y-89620057D01*
X129806844Y-89620057D02*
X129759225Y-89572438D01*
X129759225Y-89572438D02*
X129663987Y-89524819D01*
X129663987Y-89524819D02*
X129473511Y-89524819D01*
X129473511Y-89524819D02*
X129378273Y-89572438D01*
X129378273Y-89572438D02*
X129330654Y-89620057D01*
X129330654Y-89620057D02*
X129283035Y-89715295D01*
X129283035Y-89715295D02*
X129283035Y-89762914D01*
X129283035Y-89762914D02*
X129330654Y-89858152D01*
X129330654Y-89858152D02*
X129378273Y-89905771D01*
X129378273Y-89905771D02*
X129473511Y-89953390D01*
X129473511Y-89953390D02*
X129663987Y-89953390D01*
X129663987Y-89953390D02*
X129759225Y-90001009D01*
X129759225Y-90001009D02*
X129806844Y-90048628D01*
X129806844Y-90048628D02*
X129854463Y-90143866D01*
X129854463Y-90143866D02*
X129854463Y-90334342D01*
X129854463Y-90334342D02*
X129806844Y-90429580D01*
X129806844Y-90429580D02*
X129759225Y-90477200D01*
X129759225Y-90477200D02*
X129663987Y-90524819D01*
X129663987Y-90524819D02*
X129473511Y-90524819D01*
X129473511Y-90524819D02*
X129378273Y-90477200D01*
X129378273Y-90477200D02*
X129330654Y-90429580D01*
X129330654Y-90429580D02*
X129283035Y-90334342D01*
X129283035Y-90334342D02*
X129283035Y-90143866D01*
X129283035Y-90143866D02*
X129330654Y-90048628D01*
X129330654Y-90048628D02*
X129378273Y-90001009D01*
X129378273Y-90001009D02*
X129473511Y-89953390D01*
X145025057Y-77839761D02*
X144977438Y-77744523D01*
X144977438Y-77744523D02*
X144882200Y-77649285D01*
X144882200Y-77649285D02*
X144739342Y-77506428D01*
X144739342Y-77506428D02*
X144691723Y-77411190D01*
X144691723Y-77411190D02*
X144691723Y-77315952D01*
X144929819Y-77363571D02*
X144882200Y-77268333D01*
X144882200Y-77268333D02*
X144786961Y-77173095D01*
X144786961Y-77173095D02*
X144596485Y-77125476D01*
X144596485Y-77125476D02*
X144263152Y-77125476D01*
X144263152Y-77125476D02*
X144072676Y-77173095D01*
X144072676Y-77173095D02*
X143977438Y-77268333D01*
X143977438Y-77268333D02*
X143929819Y-77363571D01*
X143929819Y-77363571D02*
X143929819Y-77554047D01*
X143929819Y-77554047D02*
X143977438Y-77649285D01*
X143977438Y-77649285D02*
X144072676Y-77744523D01*
X144072676Y-77744523D02*
X144263152Y-77792142D01*
X144263152Y-77792142D02*
X144596485Y-77792142D01*
X144596485Y-77792142D02*
X144786961Y-77744523D01*
X144786961Y-77744523D02*
X144882200Y-77649285D01*
X144882200Y-77649285D02*
X144929819Y-77554047D01*
X144929819Y-77554047D02*
X144929819Y-77363571D01*
X144263152Y-78649285D02*
X144929819Y-78649285D01*
X143882200Y-78411190D02*
X144596485Y-78173095D01*
X144596485Y-78173095D02*
X144596485Y-78792142D01*
X130235416Y-86024819D02*
X130568749Y-85548628D01*
X130806844Y-86024819D02*
X130806844Y-85024819D01*
X130806844Y-85024819D02*
X130425892Y-85024819D01*
X130425892Y-85024819D02*
X130330654Y-85072438D01*
X130330654Y-85072438D02*
X130283035Y-85120057D01*
X130283035Y-85120057D02*
X130235416Y-85215295D01*
X130235416Y-85215295D02*
X130235416Y-85358152D01*
X130235416Y-85358152D02*
X130283035Y-85453390D01*
X130283035Y-85453390D02*
X130330654Y-85501009D01*
X130330654Y-85501009D02*
X130425892Y-85548628D01*
X130425892Y-85548628D02*
X130806844Y-85548628D01*
X129902082Y-85024819D02*
X129283035Y-85024819D01*
X129283035Y-85024819D02*
X129616368Y-85405771D01*
X129616368Y-85405771D02*
X129473511Y-85405771D01*
X129473511Y-85405771D02*
X129378273Y-85453390D01*
X129378273Y-85453390D02*
X129330654Y-85501009D01*
X129330654Y-85501009D02*
X129283035Y-85596247D01*
X129283035Y-85596247D02*
X129283035Y-85834342D01*
X129283035Y-85834342D02*
X129330654Y-85929580D01*
X129330654Y-85929580D02*
X129378273Y-85977200D01*
X129378273Y-85977200D02*
X129473511Y-86024819D01*
X129473511Y-86024819D02*
X129759225Y-86024819D01*
X129759225Y-86024819D02*
X129854463Y-85977200D01*
X129854463Y-85977200D02*
X129902082Y-85929580D01*
X140166666Y-88917319D02*
X140499999Y-88441128D01*
X140738094Y-88917319D02*
X140738094Y-87917319D01*
X140738094Y-87917319D02*
X140357142Y-87917319D01*
X140357142Y-87917319D02*
X140261904Y-87964938D01*
X140261904Y-87964938D02*
X140214285Y-88012557D01*
X140214285Y-88012557D02*
X140166666Y-88107795D01*
X140166666Y-88107795D02*
X140166666Y-88250652D01*
X140166666Y-88250652D02*
X140214285Y-88345890D01*
X140214285Y-88345890D02*
X140261904Y-88393509D01*
X140261904Y-88393509D02*
X140357142Y-88441128D01*
X140357142Y-88441128D02*
X140738094Y-88441128D01*
X139785713Y-88012557D02*
X139738094Y-87964938D01*
X139738094Y-87964938D02*
X139642856Y-87917319D01*
X139642856Y-87917319D02*
X139404761Y-87917319D01*
X139404761Y-87917319D02*
X139309523Y-87964938D01*
X139309523Y-87964938D02*
X139261904Y-88012557D01*
X139261904Y-88012557D02*
X139214285Y-88107795D01*
X139214285Y-88107795D02*
X139214285Y-88203033D01*
X139214285Y-88203033D02*
X139261904Y-88345890D01*
X139261904Y-88345890D02*
X139833332Y-88917319D01*
X139833332Y-88917319D02*
X139214285Y-88917319D01*
X148166666Y-88917319D02*
X148499999Y-88441128D01*
X148738094Y-88917319D02*
X148738094Y-87917319D01*
X148738094Y-87917319D02*
X148357142Y-87917319D01*
X148357142Y-87917319D02*
X148261904Y-87964938D01*
X148261904Y-87964938D02*
X148214285Y-88012557D01*
X148214285Y-88012557D02*
X148166666Y-88107795D01*
X148166666Y-88107795D02*
X148166666Y-88250652D01*
X148166666Y-88250652D02*
X148214285Y-88345890D01*
X148214285Y-88345890D02*
X148261904Y-88393509D01*
X148261904Y-88393509D02*
X148357142Y-88441128D01*
X148357142Y-88441128D02*
X148738094Y-88441128D01*
X147214285Y-88917319D02*
X147785713Y-88917319D01*
X147499999Y-88917319D02*
X147499999Y-87917319D01*
X147499999Y-87917319D02*
X147595237Y-88060176D01*
X147595237Y-88060176D02*
X147690475Y-88155414D01*
X147690475Y-88155414D02*
X147785713Y-88203033D01*
%TO.C,TH1*%
D11*
X134977500Y-73912258D02*
X134977500Y-73437742D01*
X136022500Y-73912258D02*
X136022500Y-73437742D01*
%TO.C,Q5*%
X154025000Y-74850000D02*
X154025000Y-81270000D01*
X154025000Y-81270000D02*
X154295000Y-81270000D01*
X160925000Y-74850000D02*
X160925000Y-81270000D01*
X160925000Y-81270000D02*
X160655000Y-81270000D01*
X160615000Y-83000000D02*
X161085000Y-83340000D01*
X161085000Y-82660000D01*
X160615000Y-83000000D01*
G36*
X161085000Y-83340000D02*
G01*
X160615000Y-83000000D01*
X161085000Y-82660000D01*
X161085000Y-83340000D01*
G37*
%TO.C,R4*%
X142290000Y-90639564D02*
X142290000Y-86285436D01*
X145710000Y-90639564D02*
X145710000Y-86285436D01*
%TO.C,R6*%
X134290000Y-90639564D02*
X134290000Y-86285436D01*
X137710000Y-90639564D02*
X137710000Y-86285436D01*
%TO.C,Q6*%
X145025000Y-74825000D02*
X145025000Y-81245000D01*
X145025000Y-81245000D02*
X145295000Y-81245000D01*
X151925000Y-74825000D02*
X151925000Y-81245000D01*
X151925000Y-81245000D02*
X151655000Y-81245000D01*
X151615000Y-82975000D02*
X152085000Y-83315000D01*
X152085000Y-82635000D01*
X151615000Y-82975000D01*
G36*
X152085000Y-83315000D02*
G01*
X151615000Y-82975000D01*
X152085000Y-82635000D01*
X152085000Y-83315000D01*
G37*
%TO.C,R10*%
X129831492Y-89477500D02*
X130306008Y-89477500D01*
X129831492Y-90522500D02*
X130306008Y-90522500D01*
%TO.C,R5*%
X130306008Y-87977500D02*
X129831492Y-87977500D01*
X130306008Y-89022500D02*
X129831492Y-89022500D01*
%TO.C,R8*%
X130306008Y-90977500D02*
X129831492Y-90977500D01*
X130306008Y-92022500D02*
X129831492Y-92022500D01*
%TO.C,Q4*%
X136525000Y-74825000D02*
X136525000Y-81245000D01*
X136525000Y-81245000D02*
X136795000Y-81245000D01*
X143425000Y-74825000D02*
X143425000Y-81245000D01*
X143425000Y-81245000D02*
X143155000Y-81245000D01*
X143115000Y-82975000D02*
X143585000Y-83315000D01*
X143585000Y-82635000D01*
X143115000Y-82975000D01*
G36*
X143585000Y-83315000D02*
G01*
X143115000Y-82975000D01*
X143585000Y-82635000D01*
X143585000Y-83315000D01*
G37*
%TO.C,R3*%
X130306008Y-86477500D02*
X129831492Y-86477500D01*
X130306008Y-87522500D02*
X129831492Y-87522500D01*
%TO.C,R2*%
X138290000Y-90639564D02*
X138290000Y-86285436D01*
X141710000Y-90639564D02*
X141710000Y-86285436D01*
%TO.C,R1*%
X146290000Y-90639564D02*
X146290000Y-86285436D01*
X149710000Y-90639564D02*
X149710000Y-86285436D01*
%TD*%
%LPC*%
D12*
%TO.C,C11*%
X138300000Y-103855712D03*
X136300000Y-104527856D03*
D13*
X136300000Y-109527856D03*
X134300000Y-110200000D03*
%TD*%
D14*
%TO.C,TH1*%
X135500000Y-74500000D03*
X135500000Y-72850000D03*
%TD*%
D15*
%TO.C,Q5*%
X159755000Y-83000000D03*
D16*
X157475000Y-76700000D03*
D15*
X155195000Y-83000000D03*
%TD*%
D17*
%TO.C,R4*%
X144000000Y-91425000D03*
X144000000Y-85500000D03*
%TD*%
%TO.C,R6*%
X136000000Y-91425000D03*
X136000000Y-85500000D03*
%TD*%
D15*
%TO.C,Q6*%
X150755000Y-82975000D03*
D16*
X148475000Y-76675000D03*
D15*
X146195000Y-82975000D03*
%TD*%
D18*
%TO.C,R10*%
X129243750Y-90000000D03*
X130893750Y-90000000D03*
%TD*%
D19*
%TO.C,R5*%
X130893750Y-88500000D03*
X129243750Y-88500000D03*
%TD*%
%TO.C,R8*%
X130893750Y-91500000D03*
X129243750Y-91500000D03*
%TD*%
D15*
%TO.C,Q4*%
X142255000Y-82975000D03*
D16*
X139975000Y-76675000D03*
D15*
X137695000Y-82975000D03*
%TD*%
D19*
%TO.C,R3*%
X130893750Y-87000000D03*
X129243750Y-87000000D03*
%TD*%
D17*
%TO.C,R2*%
X140000000Y-91425000D03*
X140000000Y-85500000D03*
%TD*%
%TO.C,R1*%
X148000000Y-91425000D03*
X148000000Y-85500000D03*
%TD*%
D20*
X158500000Y-94000000D03*
X159500000Y-93000000D03*
X158500000Y-93000000D03*
X157000000Y-95500000D03*
D21*
X163000000Y-85500000D03*
D20*
X126000000Y-73500000D03*
X153000000Y-76000000D03*
X126500000Y-71000000D03*
X162000000Y-68500000D03*
X131500000Y-70500000D03*
X134000000Y-75500000D03*
X162000000Y-71500000D03*
X134500000Y-70500000D03*
X166500000Y-70000000D03*
X127500000Y-73500000D03*
X163500000Y-71500000D03*
X127500000Y-75500000D03*
X126000000Y-75500000D03*
X130000000Y-70500000D03*
X165000000Y-68500000D03*
X163500000Y-68500000D03*
X166500000Y-68500000D03*
X162000000Y-70000000D03*
X129500000Y-73500000D03*
D21*
X163000000Y-74500000D03*
D20*
X134000000Y-76500000D03*
X165000000Y-70000000D03*
X144000000Y-76500000D03*
X163500000Y-70000000D03*
X133000000Y-70500000D03*
X165000000Y-71500000D03*
X133000000Y-76500000D03*
X133000000Y-75500000D03*
X166500000Y-71500000D03*
X129500000Y-75500000D03*
X128500000Y-70500000D03*
X159000000Y-78500000D03*
D21*
X157000000Y-66000000D03*
D20*
X156500000Y-78500000D03*
X160000000Y-79500000D03*
X158000000Y-77500000D03*
X158000000Y-79500000D03*
X156500000Y-77500000D03*
X159000000Y-77500000D03*
X160000000Y-77500000D03*
X160000000Y-78500000D03*
X159000000Y-79500000D03*
X158000000Y-78500000D03*
X156500000Y-79500000D03*
D22*
X129950000Y-107099999D03*
D23*
X129000000Y-111149997D03*
D20*
X152500000Y-80500000D03*
X163500000Y-82000000D03*
X147000000Y-91500000D03*
X140000000Y-91500000D03*
X163500000Y-80500000D03*
X163000000Y-89500000D03*
X141000000Y-91500000D03*
X163000000Y-88500000D03*
X164000000Y-90500000D03*
X160000000Y-91500000D03*
X163000000Y-91500000D03*
X162000000Y-89500000D03*
X133000000Y-84000000D03*
D24*
X165500000Y-65500000D03*
D20*
X133000000Y-78500000D03*
X136000000Y-91425000D03*
X161500000Y-66000000D03*
X130500000Y-84000000D03*
X161500000Y-83000000D03*
X138000000Y-91500000D03*
X149000000Y-91500000D03*
X144000000Y-91500000D03*
X162000000Y-91500000D03*
X137000000Y-91500000D03*
X148000000Y-91500000D03*
D24*
X166000000Y-110700000D03*
D20*
X133000000Y-81500000D03*
D23*
X126950000Y-106950000D03*
D20*
X158500000Y-86000000D03*
X161000000Y-91500000D03*
X154000000Y-64000000D03*
X161500000Y-64500000D03*
X163000000Y-83000000D03*
X145000000Y-91500000D03*
X133000000Y-79500000D03*
X143000000Y-91500000D03*
X133000000Y-83000000D03*
X152000000Y-64000000D03*
X146000000Y-91500000D03*
X163000000Y-90500000D03*
X139000000Y-91500000D03*
X152500000Y-81500000D03*
X162000000Y-88500000D03*
D24*
X119800000Y-65300000D03*
D20*
X150500000Y-90500000D03*
X150500000Y-89500000D03*
X164000000Y-83000000D03*
X150500000Y-91500000D03*
X150500000Y-64000000D03*
X162000000Y-90500000D03*
X159000000Y-89000000D03*
X159000000Y-90000000D03*
X164000000Y-89500000D03*
X164000000Y-88500000D03*
D22*
X125000000Y-111000000D03*
D20*
X164000000Y-91500000D03*
X135000000Y-91500000D03*
X133000000Y-80500000D03*
X138500000Y-79000000D03*
X141500000Y-80000000D03*
X141500000Y-78000000D03*
X142000000Y-79000000D03*
X138500000Y-78000000D03*
X140500000Y-80000000D03*
X140500000Y-78000000D03*
D21*
X138500000Y-66600000D03*
D20*
X139500000Y-80000000D03*
X141000000Y-79000000D03*
X139500000Y-78000000D03*
X140250000Y-79000000D03*
X139500000Y-79000000D03*
X138500000Y-80000000D03*
X143500000Y-87000000D03*
X144000000Y-85500000D03*
X143500000Y-84500000D03*
X148500000Y-86000000D03*
X145500000Y-83000000D03*
X142500000Y-86500000D03*
X146000000Y-87000000D03*
X144500000Y-84500000D03*
X147500000Y-85000000D03*
X145000000Y-86500000D03*
X146000000Y-86000000D03*
X148500000Y-85000000D03*
X146500000Y-84000000D03*
X147480025Y-87019975D03*
X145000000Y-85000000D03*
X149500000Y-86000000D03*
X148500000Y-79500000D03*
X147500000Y-79500000D03*
X149500000Y-77500000D03*
D21*
X147000000Y-66300000D03*
D20*
X149500000Y-78500000D03*
X150500000Y-77500000D03*
X149500000Y-79500000D03*
X148500000Y-78500000D03*
X147500000Y-77500000D03*
X147500000Y-78500000D03*
X150500000Y-79500000D03*
X150500000Y-78500000D03*
X148500000Y-77500000D03*
X119000000Y-108000000D03*
X119000000Y-111000000D03*
X135500000Y-82500000D03*
X135000000Y-84500000D03*
X140000000Y-86500000D03*
X139000000Y-85500000D03*
X136000000Y-84500000D03*
X138000000Y-85500000D03*
X137500000Y-86500000D03*
X136000000Y-83500000D03*
X135000000Y-83500000D03*
X137000000Y-85500000D03*
X135000000Y-85500000D03*
X136500000Y-86500000D03*
X140500000Y-85000000D03*
X136500000Y-82500000D03*
X139000000Y-86500000D03*
X135500000Y-86500000D03*
X136000000Y-85500000D03*
X119000000Y-109500000D03*
D23*
X126249997Y-111149997D03*
X127500000Y-111149997D03*
X131000000Y-111149997D03*
%LPD*%
M02*
