M48
; DRILL file KiCad 10.0.4 date 2026-07-19T18:30:54
; FORMAT={-:-/ absolute / inch / decimal}
; #@! TF.CreationDate,2026-07-19T18:30:54+08:00
; #@! TF.GenerationSoftware,Kicad,Pcbnew,10.0.4
; #@! TF.FileFunction,Plated,1,2,PTH
FMAT,2
INCH
; #@! TA.AperFunction,Plated,PTH,ViaDrill
T1C0.0118
; #@! TA.AperFunction,Plated,PTH,ComponentDrill
T2C0.0394
; #@! TA.AperFunction,Plated,PTH,ViaDrill
T3C0.0787
%
G90
G05
T1
X4.6646Y-4.1142
X4.685Y-4.252
X4.685Y-4.311
X4.685Y-4.3701
X4.7047Y-4.0748
X4.7047Y-4.2126
X4.7244Y-4.0157
X4.7244Y-4.1929
X4.7441Y-3.0709
X4.7441Y-3.937
X4.7441Y-4.1339
X4.7449Y-4.0748
X4.7618Y-3.8583
X4.7632Y-3.4443
X4.7638Y-2.9528
X4.7638Y-3.189
X4.7638Y-3.3071
X4.7638Y-3.9567
X4.7638Y-4.2717
X4.7638Y-4.311
X4.7638Y-4.3898
X4.7646Y-4.0157
X4.7661Y-4.1709
X4.7665Y-3.5659
X4.7682Y-3.6361
X4.7682Y-3.7008
X4.7682Y-3.7402
X4.8031Y-3.0118
X4.8031Y-4.3898
X4.8035Y-4.2717
X4.8169Y-4.1929
X4.822Y-4.1339
X4.8228Y-2.874
X4.8228Y-3.1102
X4.8228Y-3.7992
X4.8406Y-3.9567
X4.8425Y-2.7362
X4.8425Y-2.7362
X4.8425Y-4.0157
X4.8425Y-4.2717
X4.8425Y-4.3307
X4.8425Y-4.3898
X4.8622Y-4.1339
X4.8819Y-2.9528
X4.9016Y-3.0512
X4.9016Y-3.2874
X4.9016Y-3.9567
X4.9043Y-3.5266
X4.9213Y-2.6772
X4.9213Y-2.7953
X4.9213Y-3.248
X4.9213Y-4.252
X4.9213Y-4.2717
X4.9213Y-4.3701
X4.9437Y-3.6447
X4.9606Y-3.2874
X4.9705Y-4.376
X4.9803Y-2.8937
X4.9803Y-2.9724
X4.9803Y-3.189
X4.9803Y-3.248
X4.9803Y-3.8583
X4.9803Y-4.2913
X4.9823Y-4.0984
X4.998Y-4.2106
X5.0Y-2.7362
X5.0Y-4.2913
X5.0Y-4.311
X5.0027Y-3.4675
X5.0086Y-3.7365
X5.0197Y-3.8386
X5.0197Y-3.9764
X5.0197Y-4.2913
X5.0197Y-4.311
X5.0197Y-4.376
X5.0394Y-2.5787
X5.0394Y-3.1299
X5.0394Y-3.2874
X5.0591Y-2.8346
X5.0591Y-3.189
X5.0591Y-3.6614
X5.0591Y-3.9764
X5.0787Y-2.9134
X5.0787Y-3.5463
X5.0787Y-3.7795
X5.0787Y-4.376
X5.0814Y-3.4281
X5.0814Y-3.6053
X5.0874Y-3.3625
X5.0945Y-3.8583
X5.0945Y-4.1535
X5.0984Y-2.5787
X5.0984Y-2.5984
X5.0984Y-3.0709
X5.0984Y-3.1299
X5.0984Y-3.248
X5.0984Y-4.1929
X5.1161Y-4.2165
X5.1378Y-2.5984
X5.1378Y-3.0709
X5.1378Y-3.189
X5.1378Y-3.7205
X5.1575Y-2.5787
X5.1575Y-3.1299
X5.1575Y-3.5433
X5.1575Y-3.6024
X5.1575Y-4.0157
X5.1575Y-4.0157
X5.1575Y-4.0768
X5.1575Y-4.376
X5.1772Y-3.6811
X5.1772Y-3.8386
X5.1772Y-3.9764
X5.1969Y-2.9331
X5.1969Y-3.9961
X5.2165Y-2.874
X5.2165Y-3.6811
X5.2165Y-4.3701
X5.2362Y-3.6417
X5.2362Y-3.8791
X5.2559Y-3.189
X5.2559Y-3.2283
X5.2559Y-3.2677
X5.2559Y-3.6024
X5.2559Y-3.7598
X5.2756Y-3.6417
X5.2953Y-3.6024
X5.315Y-3.189
X5.315Y-3.2283
X5.315Y-3.2677
X5.315Y-3.6417
X5.3199Y-3.8791
X5.3346Y-2.9921
X5.3346Y-3.6024
X5.3543Y-3.7598
X5.3937Y-3.6417
X5.4134Y-3.6024
X5.4331Y-3.6417
X5.4528Y-3.6024
X5.4528Y-3.7598
X5.4724Y-3.6417
X5.4724Y-3.8799
X5.4921Y-2.5787
X5.4921Y-3.6024
X5.496Y-3.1093
X5.5036Y-3.0512
X5.5036Y-3.0867
X5.5059Y-3.2087
X5.5315Y-2.6181
X5.5709Y-3.1299
X5.5709Y-3.6417
X5.5709Y-3.7598
X5.5709Y-4.3504
X5.5906Y-2.5394
X5.5906Y-3.6038
X5.5906Y-4.3504
X5.5934Y-3.1181
X5.6102Y-3.6417
X5.6102Y-3.878
X5.6299Y-2.5787
X5.6299Y-3.6038
X5.6496Y-2.5591
X5.6496Y-3.6417
X5.6693Y-2.8612
X5.6693Y-3.6038
X5.6693Y-3.878
X5.7087Y-2.8612
X5.7087Y-3.7598
X5.7087Y-3.878
X5.7283Y-2.8612
X5.7283Y-3.6417
X5.748Y-3.6024
X5.7677Y-3.6417
X5.7874Y-3.6024
X5.7982Y-3.876
X5.8071Y-3.6417
X5.8071Y-3.7598
X5.8268Y-3.6024
X5.8268Y-3.8386
X5.8978Y-3.0512
X5.8978Y-3.0709
X5.8978Y-3.0955
X5.9055Y-3.7598
X5.9055Y-3.8957
X5.9252Y-3.6024
X5.9252Y-3.8386
X5.939Y-3.2165
X5.9646Y-2.5591
X5.9646Y-3.8189
X5.9646Y-4.0157
X5.9843Y-3.6024
X6.0039Y-3.2165
X6.0039Y-3.9764
X6.0236Y-2.5591
X6.0236Y-3.6024
X6.0433Y-4.1211
X6.063Y-3.6024
X6.0827Y-3.8189
X6.1024Y-2.9331
X6.1024Y-3.002
X6.122Y-3.7402
X6.1811Y-3.563
X6.1811Y-3.622
X6.2008Y-3.6811
X6.2008Y-3.7205
X6.2008Y-3.7598
X6.2071Y-3.1181
X6.2402Y-3.4843
X6.2461Y-4.3323
X6.2598Y-3.2677
X6.2598Y-3.622
X6.2906Y-3.1181
X6.2969Y-3.0709
X6.2969Y-3.0906
X6.3124Y-3.2165
X6.3189Y-3.563
X6.3386Y-2.5394
X6.3386Y-4.2126
X6.378Y-3.1299
X6.378Y-3.5827
X6.3976Y-4.2126
X6.4173Y-2.6181
X6.437Y-3.6417
X6.437Y-3.7992
X6.4567Y-4.2126
X6.4705Y-2.9587
X6.4764Y-2.7559
X6.4764Y-2.8346
X6.4764Y-3.7795
X6.4803Y-2.9685
X6.5157Y-2.6378
X6.5157Y-2.7559
X6.5157Y-2.8346
X6.5433Y-2.815
X6.5433Y-2.8543
X6.5433Y-2.8937
X6.5433Y-2.9331
X6.5433Y-2.9724
X6.5551Y-3.9961
X6.5551Y-4.0354
X6.5551Y-4.0945
X6.5551Y-4.1535
T2
X5.374Y-4.0551
X5.374Y-4.3504
X6.2598Y-3.8386
X6.2598Y-4.1339
T3
X4.7165Y-2.5709
X5.2953Y-2.622
X5.7874Y-2.6102
X6.1811Y-2.5984
X6.3583Y-3.4449
X6.3583Y-3.7008
X6.5157Y-2.5787
X6.5354Y-4.3583
M30
