%TF.GenerationSoftware,KiCad,Pcbnew,10.0.4*%
%TF.CreationDate,2026-07-19T18:30:54+08:00*%
%TF.ProjectId,wfoc,77666f63-2e6b-4696-9361-645f70636258,rev?*%
%TF.SameCoordinates,Original*%
%TF.FileFunction,Legend,Bot*%
%TF.FilePolarity,Positive*%
%FSLAX46Y46*%
G04 Gerber Fmt 4.6, Leading zero omitted, Abs format (unit mm)*
G04 Created by KiCad (PCBNEW 10.0.4) date 2026-07-19 18:30:54*
%MOMM*%
%LPD*%
G01*
G04 APERTURE LIST*
G04 Aperture macros list*
%AMRoundRect*
0 Rectangle with rounded corners*
0 $1 Rounding radius*
0 $2 $3 $4 $5 $6 $7 $8 $9 X,Y pos of 4 corners*
0 Add a 4 corners polygon primitive as box body*
4,1,4,$2,$3,$4,$5,$6,$7,$8,$9,$2,$3,0*
0 Add four circle primitives for the rounded corners*
1,1,$1+$1,$2,$3*
1,1,$1+$1,$4,$5*
1,1,$1+$1,$6,$7*
1,1,$1+$1,$8,$9*
0 Add four rect primitives between the rounded corners*
20,1,$1+$1,$2,$3,$4,$5,0*
20,1,$1+$1,$4,$5,$6,$7,0*
20,1,$1+$1,$6,$7,$8,$9,0*
20,1,$1+$1,$8,$9,$2,$3,0*%
G04 Aperture macros list end*
%ADD10C,0.150000*%
%ADD11C,0.120000*%
%ADD12RoundRect,0.250000X0.750000X-0.750000X0.750000X0.750000X-0.750000X0.750000X-0.750000X-0.750000X0*%
%ADD13C,2.000000*%
%ADD14RoundRect,0.250000X-0.750000X0.750000X-0.750000X-0.750000X0.750000X-0.750000X0.750000X0.750000X0*%
%ADD15RoundRect,0.200000X0.275000X-0.200000X0.275000X0.200000X-0.275000X0.200000X-0.275000X-0.200000X0*%
%ADD16RoundRect,0.250000X0.350000X-0.850000X0.350000X0.850000X-0.350000X0.850000X-0.350000X-0.850000X0*%
%ADD17RoundRect,0.249997X2.650003X-2.950003X2.650003X2.950003X-2.650003X2.950003X-2.650003X-2.950003X0*%
%ADD18RoundRect,0.250000X1.425000X-0.362500X1.425000X0.362500X-1.425000X0.362500X-1.425000X-0.362500X0*%
%ADD19RoundRect,0.200000X-0.200000X-0.275000X0.200000X-0.275000X0.200000X0.275000X-0.200000X0.275000X0*%
%ADD20RoundRect,0.200000X0.200000X0.275000X-0.200000X0.275000X-0.200000X-0.275000X0.200000X-0.275000X0*%
%ADD21C,4.000000*%
%ADD22C,0.500000*%
%ADD23C,0.600000*%
%ADD24C,3.000000*%
%ADD25C,0.800000*%
G04 APERTURE END LIST*
D10*
X136384819Y-72389286D02*
X136384819Y-72960714D01*
X137384819Y-72675000D02*
X136384819Y-72675000D01*
X137384819Y-73294048D02*
X136384819Y-73294048D01*
X136861009Y-73294048D02*
X136861009Y-73865476D01*
X137384819Y-73865476D02*
X136384819Y-73865476D01*
X137384819Y-74865476D02*
X137384819Y-74294048D01*
X137384819Y-74579762D02*
X136384819Y-74579762D01*
X136384819Y-74579762D02*
X136527676Y-74484524D01*
X136527676Y-74484524D02*
X136622914Y-74389286D01*
X136622914Y-74389286D02*
X136670533Y-74294048D01*
X163095238Y-73550057D02*
X163190476Y-73502438D01*
X163190476Y-73502438D02*
X163285714Y-73407200D01*
X163285714Y-73407200D02*
X163428571Y-73264342D01*
X163428571Y-73264342D02*
X163523809Y-73216723D01*
X163523809Y-73216723D02*
X163619047Y-73216723D01*
X163571428Y-73454819D02*
X163666666Y-73407200D01*
X163666666Y-73407200D02*
X163761904Y-73311961D01*
X163761904Y-73311961D02*
X163809523Y-73121485D01*
X163809523Y-73121485D02*
X163809523Y-72788152D01*
X163809523Y-72788152D02*
X163761904Y-72597676D01*
X163761904Y-72597676D02*
X163666666Y-72502438D01*
X163666666Y-72502438D02*
X163571428Y-72454819D01*
X163571428Y-72454819D02*
X163380952Y-72454819D01*
X163380952Y-72454819D02*
X163285714Y-72502438D01*
X163285714Y-72502438D02*
X163190476Y-72597676D01*
X163190476Y-72597676D02*
X163142857Y-72788152D01*
X163142857Y-72788152D02*
X163142857Y-73121485D01*
X163142857Y-73121485D02*
X163190476Y-73311961D01*
X163190476Y-73311961D02*
X163285714Y-73407200D01*
X163285714Y-73407200D02*
X163380952Y-73454819D01*
X163380952Y-73454819D02*
X163571428Y-73454819D01*
X162238095Y-72454819D02*
X162714285Y-72454819D01*
X162714285Y-72454819D02*
X162761904Y-72931009D01*
X162761904Y-72931009D02*
X162714285Y-72883390D01*
X162714285Y-72883390D02*
X162619047Y-72835771D01*
X162619047Y-72835771D02*
X162380952Y-72835771D01*
X162380952Y-72835771D02*
X162285714Y-72883390D01*
X162285714Y-72883390D02*
X162238095Y-72931009D01*
X162238095Y-72931009D02*
X162190476Y-73026247D01*
X162190476Y-73026247D02*
X162190476Y-73264342D01*
X162190476Y-73264342D02*
X162238095Y-73359580D01*
X162238095Y-73359580D02*
X162285714Y-73407200D01*
X162285714Y-73407200D02*
X162380952Y-73454819D01*
X162380952Y-73454819D02*
X162619047Y-73454819D01*
X162619047Y-73454819D02*
X162714285Y-73407200D01*
X162714285Y-73407200D02*
X162761904Y-73359580D01*
X146153569Y-88333333D02*
X145677378Y-88000000D01*
X146153569Y-87761905D02*
X145153569Y-87761905D01*
X145153569Y-87761905D02*
X145153569Y-88142857D01*
X145153569Y-88142857D02*
X145201188Y-88238095D01*
X145201188Y-88238095D02*
X145248807Y-88285714D01*
X145248807Y-88285714D02*
X145344045Y-88333333D01*
X145344045Y-88333333D02*
X145486902Y-88333333D01*
X145486902Y-88333333D02*
X145582140Y-88285714D01*
X145582140Y-88285714D02*
X145629759Y-88238095D01*
X145629759Y-88238095D02*
X145677378Y-88142857D01*
X145677378Y-88142857D02*
X145677378Y-87761905D01*
X145486902Y-89190476D02*
X146153569Y-89190476D01*
X145105950Y-88952381D02*
X145820235Y-88714286D01*
X145820235Y-88714286D02*
X145820235Y-89333333D01*
X137653569Y-88370833D02*
X137177378Y-88037500D01*
X137653569Y-87799405D02*
X136653569Y-87799405D01*
X136653569Y-87799405D02*
X136653569Y-88180357D01*
X136653569Y-88180357D02*
X136701188Y-88275595D01*
X136701188Y-88275595D02*
X136748807Y-88323214D01*
X136748807Y-88323214D02*
X136844045Y-88370833D01*
X136844045Y-88370833D02*
X136986902Y-88370833D01*
X136986902Y-88370833D02*
X137082140Y-88323214D01*
X137082140Y-88323214D02*
X137129759Y-88275595D01*
X137129759Y-88275595D02*
X137177378Y-88180357D01*
X137177378Y-88180357D02*
X137177378Y-87799405D01*
X136653569Y-89227976D02*
X136653569Y-89037500D01*
X136653569Y-89037500D02*
X136701188Y-88942262D01*
X136701188Y-88942262D02*
X136748807Y-88894643D01*
X136748807Y-88894643D02*
X136891664Y-88799405D01*
X136891664Y-88799405D02*
X137082140Y-88751786D01*
X137082140Y-88751786D02*
X137463092Y-88751786D01*
X137463092Y-88751786D02*
X137558330Y-88799405D01*
X137558330Y-88799405D02*
X137605950Y-88847024D01*
X137605950Y-88847024D02*
X137653569Y-88942262D01*
X137653569Y-88942262D02*
X137653569Y-89132738D01*
X137653569Y-89132738D02*
X137605950Y-89227976D01*
X137605950Y-89227976D02*
X137558330Y-89275595D01*
X137558330Y-89275595D02*
X137463092Y-89323214D01*
X137463092Y-89323214D02*
X137224997Y-89323214D01*
X137224997Y-89323214D02*
X137129759Y-89275595D01*
X137129759Y-89275595D02*
X137082140Y-89227976D01*
X137082140Y-89227976D02*
X137034521Y-89132738D01*
X137034521Y-89132738D02*
X137034521Y-88942262D01*
X137034521Y-88942262D02*
X137082140Y-88847024D01*
X137082140Y-88847024D02*
X137129759Y-88799405D01*
X137129759Y-88799405D02*
X137224997Y-88751786D01*
X130711607Y-91884819D02*
X131044940Y-91408628D01*
X131283035Y-91884819D02*
X131283035Y-90884819D01*
X131283035Y-90884819D02*
X130902083Y-90884819D01*
X130902083Y-90884819D02*
X130806845Y-90932438D01*
X130806845Y-90932438D02*
X130759226Y-90980057D01*
X130759226Y-90980057D02*
X130711607Y-91075295D01*
X130711607Y-91075295D02*
X130711607Y-91218152D01*
X130711607Y-91218152D02*
X130759226Y-91313390D01*
X130759226Y-91313390D02*
X130806845Y-91361009D01*
X130806845Y-91361009D02*
X130902083Y-91408628D01*
X130902083Y-91408628D02*
X131283035Y-91408628D01*
X129759226Y-91884819D02*
X130330654Y-91884819D01*
X130044940Y-91884819D02*
X130044940Y-90884819D01*
X130044940Y-90884819D02*
X130140178Y-91027676D01*
X130140178Y-91027676D02*
X130235416Y-91122914D01*
X130235416Y-91122914D02*
X130330654Y-91170533D01*
X129140178Y-90884819D02*
X129044940Y-90884819D01*
X129044940Y-90884819D02*
X128949702Y-90932438D01*
X128949702Y-90932438D02*
X128902083Y-90980057D01*
X128902083Y-90980057D02*
X128854464Y-91075295D01*
X128854464Y-91075295D02*
X128806845Y-91265771D01*
X128806845Y-91265771D02*
X128806845Y-91503866D01*
X128806845Y-91503866D02*
X128854464Y-91694342D01*
X128854464Y-91694342D02*
X128902083Y-91789580D01*
X128902083Y-91789580D02*
X128949702Y-91837200D01*
X128949702Y-91837200D02*
X129044940Y-91884819D01*
X129044940Y-91884819D02*
X129140178Y-91884819D01*
X129140178Y-91884819D02*
X129235416Y-91837200D01*
X129235416Y-91837200D02*
X129283035Y-91789580D01*
X129283035Y-91789580D02*
X129330654Y-91694342D01*
X129330654Y-91694342D02*
X129378273Y-91503866D01*
X129378273Y-91503866D02*
X129378273Y-91265771D01*
X129378273Y-91265771D02*
X129330654Y-91075295D01*
X129330654Y-91075295D02*
X129283035Y-90980057D01*
X129283035Y-90980057D02*
X129235416Y-90932438D01*
X129235416Y-90932438D02*
X129140178Y-90884819D01*
X130235416Y-87524819D02*
X130568749Y-87048628D01*
X130806844Y-87524819D02*
X130806844Y-86524819D01*
X130806844Y-86524819D02*
X130425892Y-86524819D01*
X130425892Y-86524819D02*
X130330654Y-86572438D01*
X130330654Y-86572438D02*
X130283035Y-86620057D01*
X130283035Y-86620057D02*
X130235416Y-86715295D01*
X130235416Y-86715295D02*
X130235416Y-86858152D01*
X130235416Y-86858152D02*
X130283035Y-86953390D01*
X130283035Y-86953390D02*
X130330654Y-87001009D01*
X130330654Y-87001009D02*
X130425892Y-87048628D01*
X130425892Y-87048628D02*
X130806844Y-87048628D01*
X129330654Y-86524819D02*
X129806844Y-86524819D01*
X129806844Y-86524819D02*
X129854463Y-87001009D01*
X129854463Y-87001009D02*
X129806844Y-86953390D01*
X129806844Y-86953390D02*
X129711606Y-86905771D01*
X129711606Y-86905771D02*
X129473511Y-86905771D01*
X129473511Y-86905771D02*
X129378273Y-86953390D01*
X129378273Y-86953390D02*
X129330654Y-87001009D01*
X129330654Y-87001009D02*
X129283035Y-87096247D01*
X129283035Y-87096247D02*
X129283035Y-87334342D01*
X129283035Y-87334342D02*
X129330654Y-87429580D01*
X129330654Y-87429580D02*
X129378273Y-87477200D01*
X129378273Y-87477200D02*
X129473511Y-87524819D01*
X129473511Y-87524819D02*
X129711606Y-87524819D01*
X129711606Y-87524819D02*
X129806844Y-87477200D01*
X129806844Y-87477200D02*
X129854463Y-87429580D01*
X130235416Y-90524819D02*
X130568749Y-90048628D01*
X130806844Y-90524819D02*
X130806844Y-89524819D01*
X130806844Y-89524819D02*
X130425892Y-89524819D01*
X130425892Y-89524819D02*
X130330654Y-89572438D01*
X130330654Y-89572438D02*
X130283035Y-89620057D01*
X130283035Y-89620057D02*
X130235416Y-89715295D01*
X130235416Y-89715295D02*
X130235416Y-89858152D01*
X130235416Y-89858152D02*
X130283035Y-89953390D01*
X130283035Y-89953390D02*
X130330654Y-90001009D01*
X130330654Y-90001009D02*
X130425892Y-90048628D01*
X130425892Y-90048628D02*
X130806844Y-90048628D01*
X129663987Y-89953390D02*
X129759225Y-89905771D01*
X129759225Y-89905771D02*
X129806844Y-89858152D01*
X129806844Y-89858152D02*
X129854463Y-89762914D01*
X129854463Y-89762914D02*
X129854463Y-89715295D01*
X129854463Y-89715295D02*
X129806844Y-89620057D01*
X129806844Y-89620057D02*
X129759225Y-89572438D01*
X129759225Y-89572438D02*
X129663987Y-89524819D01*
X129663987Y-89524819D02*
X129473511Y-89524819D01*
X129473511Y-89524819D02*
X129378273Y-89572438D01*
X129378273Y-89572438D02*
X129330654Y-89620057D01*
X129330654Y-89620057D02*
X129283035Y-89715295D01*
X129283035Y-89715295D02*
X129283035Y-89762914D01*
X129283035Y-89762914D02*
X129330654Y-89858152D01*
X129330654Y-89858152D02*
X129378273Y-89905771D01*
X129378273Y-89905771D02*
X129473511Y-89953390D01*
X129473511Y-89953390D02*
X129663987Y-89953390D01*
X129663987Y-89953390D02*
X129759225Y-90001009D01*
X129759225Y-90001009D02*
X129806844Y-90048628D01*
X129806844Y-90048628D02*
X129854463Y-90143866D01*
X129854463Y-90143866D02*
X129854463Y-90334342D01*
X129854463Y-90334342D02*
X129806844Y-90429580D01*
X129806844Y-90429580D02*
X129759225Y-90477200D01*
X129759225Y-90477200D02*
X129663987Y-90524819D01*
X129663987Y-90524819D02*
X129473511Y-90524819D01*
X129473511Y-90524819D02*
X129378273Y-90477200D01*
X129378273Y-90477200D02*
X129330654Y-90429580D01*
X129330654Y-90429580D02*
X129283035Y-90334342D01*
X129283035Y-90334342D02*
X129283035Y-90143866D01*
X129283035Y-90143866D02*
X129330654Y-90048628D01*
X129330654Y-90048628D02*
X129378273Y-90001009D01*
X129378273Y-90001009D02*
X129473511Y-89953390D01*
X144842557Y-74064761D02*
X144794938Y-73969523D01*
X144794938Y-73969523D02*
X144699700Y-73874285D01*
X144699700Y-73874285D02*
X144556842Y-73731428D01*
X144556842Y-73731428D02*
X144509223Y-73636190D01*
X144509223Y-73636190D02*
X144509223Y-73540952D01*
X144747319Y-73588571D02*
X144699700Y-73493333D01*
X144699700Y-73493333D02*
X144604461Y-73398095D01*
X144604461Y-73398095D02*
X144413985Y-73350476D01*
X144413985Y-73350476D02*
X144080652Y-73350476D01*
X144080652Y-73350476D02*
X143890176Y-73398095D01*
X143890176Y-73398095D02*
X143794938Y-73493333D01*
X143794938Y-73493333D02*
X143747319Y-73588571D01*
X143747319Y-73588571D02*
X143747319Y-73779047D01*
X143747319Y-73779047D02*
X143794938Y-73874285D01*
X143794938Y-73874285D02*
X143890176Y-73969523D01*
X143890176Y-73969523D02*
X144080652Y-74017142D01*
X144080652Y-74017142D02*
X144413985Y-74017142D01*
X144413985Y-74017142D02*
X144604461Y-73969523D01*
X144604461Y-73969523D02*
X144699700Y-73874285D01*
X144699700Y-73874285D02*
X144747319Y-73779047D01*
X144747319Y-73779047D02*
X144747319Y-73588571D01*
X144080652Y-74874285D02*
X144747319Y-74874285D01*
X143699700Y-74636190D02*
X144413985Y-74398095D01*
X144413985Y-74398095D02*
X144413985Y-75017142D01*
X130235416Y-86024819D02*
X130568749Y-85548628D01*
X130806844Y-86024819D02*
X130806844Y-85024819D01*
X130806844Y-85024819D02*
X130425892Y-85024819D01*
X130425892Y-85024819D02*
X130330654Y-85072438D01*
X130330654Y-85072438D02*
X130283035Y-85120057D01*
X130283035Y-85120057D02*
X130235416Y-85215295D01*
X130235416Y-85215295D02*
X130235416Y-85358152D01*
X130235416Y-85358152D02*
X130283035Y-85453390D01*
X130283035Y-85453390D02*
X130330654Y-85501009D01*
X130330654Y-85501009D02*
X130425892Y-85548628D01*
X130425892Y-85548628D02*
X130806844Y-85548628D01*
X129902082Y-85024819D02*
X129283035Y-85024819D01*
X129283035Y-85024819D02*
X129616368Y-85405771D01*
X129616368Y-85405771D02*
X129473511Y-85405771D01*
X129473511Y-85405771D02*
X129378273Y-85453390D01*
X129378273Y-85453390D02*
X129330654Y-85501009D01*
X129330654Y-85501009D02*
X129283035Y-85596247D01*
X129283035Y-85596247D02*
X129283035Y-85834342D01*
X129283035Y-85834342D02*
X129330654Y-85929580D01*
X129330654Y-85929580D02*
X129378273Y-85977200D01*
X129378273Y-85977200D02*
X129473511Y-86024819D01*
X129473511Y-86024819D02*
X129759225Y-86024819D01*
X129759225Y-86024819D02*
X129854463Y-85977200D01*
X129854463Y-85977200D02*
X129902082Y-85929580D01*
X141653569Y-88408333D02*
X141177378Y-88075000D01*
X141653569Y-87836905D02*
X140653569Y-87836905D01*
X140653569Y-87836905D02*
X140653569Y-88217857D01*
X140653569Y-88217857D02*
X140701188Y-88313095D01*
X140701188Y-88313095D02*
X140748807Y-88360714D01*
X140748807Y-88360714D02*
X140844045Y-88408333D01*
X140844045Y-88408333D02*
X140986902Y-88408333D01*
X140986902Y-88408333D02*
X141082140Y-88360714D01*
X141082140Y-88360714D02*
X141129759Y-88313095D01*
X141129759Y-88313095D02*
X141177378Y-88217857D01*
X141177378Y-88217857D02*
X141177378Y-87836905D01*
X140748807Y-88789286D02*
X140701188Y-88836905D01*
X140701188Y-88836905D02*
X140653569Y-88932143D01*
X140653569Y-88932143D02*
X140653569Y-89170238D01*
X140653569Y-89170238D02*
X140701188Y-89265476D01*
X140701188Y-89265476D02*
X140748807Y-89313095D01*
X140748807Y-89313095D02*
X140844045Y-89360714D01*
X140844045Y-89360714D02*
X140939283Y-89360714D01*
X140939283Y-89360714D02*
X141082140Y-89313095D01*
X141082140Y-89313095D02*
X141653569Y-88741667D01*
X141653569Y-88741667D02*
X141653569Y-89360714D01*
X150153569Y-88370833D02*
X149677378Y-88037500D01*
X150153569Y-87799405D02*
X149153569Y-87799405D01*
X149153569Y-87799405D02*
X149153569Y-88180357D01*
X149153569Y-88180357D02*
X149201188Y-88275595D01*
X149201188Y-88275595D02*
X149248807Y-88323214D01*
X149248807Y-88323214D02*
X149344045Y-88370833D01*
X149344045Y-88370833D02*
X149486902Y-88370833D01*
X149486902Y-88370833D02*
X149582140Y-88323214D01*
X149582140Y-88323214D02*
X149629759Y-88275595D01*
X149629759Y-88275595D02*
X149677378Y-88180357D01*
X149677378Y-88180357D02*
X149677378Y-87799405D01*
X150153569Y-89323214D02*
X150153569Y-88751786D01*
X150153569Y-89037500D02*
X149153569Y-89037500D01*
X149153569Y-89037500D02*
X149296426Y-88942262D01*
X149296426Y-88942262D02*
X149391664Y-88847024D01*
X149391664Y-88847024D02*
X149439283Y-88751786D01*
%TO.C,TH1*%
D11*
X134977500Y-73912258D02*
X134977500Y-73437742D01*
X136022500Y-73912258D02*
X136022500Y-73437742D01*
%TO.C,Q5*%
X156490000Y-71050000D02*
X156490000Y-77470000D01*
X156490000Y-77470000D02*
X156760000Y-77470000D01*
X163390000Y-71050000D02*
X163390000Y-77470000D01*
X163390000Y-77470000D02*
X163120000Y-77470000D01*
X163080000Y-79200000D02*
X163550000Y-79540000D01*
X163550000Y-78860000D01*
X163080000Y-79200000D01*
G36*
X163550000Y-79540000D02*
G01*
X163080000Y-79200000D01*
X163550000Y-78860000D01*
X163550000Y-79540000D01*
G37*
%TO.C,R4*%
X141358750Y-90677064D02*
X141358750Y-86322936D01*
X144778750Y-90677064D02*
X144778750Y-86322936D01*
%TO.C,R6*%
X132858750Y-90714564D02*
X132858750Y-86360436D01*
X136278750Y-90714564D02*
X136278750Y-86360436D01*
%TO.C,Q6*%
X146842500Y-71050000D02*
X146842500Y-77470000D01*
X146842500Y-77470000D02*
X147112500Y-77470000D01*
X153742500Y-71050000D02*
X153742500Y-77470000D01*
X153742500Y-77470000D02*
X153472500Y-77470000D01*
X153432500Y-79200000D02*
X153902500Y-79540000D01*
X153902500Y-78860000D01*
X153432500Y-79200000D01*
G36*
X153902500Y-79540000D02*
G01*
X153432500Y-79200000D01*
X153902500Y-78860000D01*
X153902500Y-79540000D01*
G37*
%TO.C,R10*%
X129831492Y-89477500D02*
X130306008Y-89477500D01*
X129831492Y-90522500D02*
X130306008Y-90522500D01*
%TO.C,R5*%
X130306008Y-87977500D02*
X129831492Y-87977500D01*
X130306008Y-89022500D02*
X129831492Y-89022500D01*
%TO.C,R8*%
X130306008Y-90977500D02*
X129831492Y-90977500D01*
X130306008Y-92022500D02*
X129831492Y-92022500D01*
%TO.C,Q4*%
X136342500Y-71050000D02*
X136342500Y-77470000D01*
X136342500Y-77470000D02*
X136612500Y-77470000D01*
X143242500Y-71050000D02*
X143242500Y-77470000D01*
X143242500Y-77470000D02*
X142972500Y-77470000D01*
X142932500Y-79200000D02*
X143402500Y-79540000D01*
X143402500Y-78860000D01*
X142932500Y-79200000D01*
G36*
X143402500Y-79540000D02*
G01*
X142932500Y-79200000D01*
X143402500Y-78860000D01*
X143402500Y-79540000D01*
G37*
%TO.C,R3*%
X130306008Y-86477500D02*
X129831492Y-86477500D01*
X130306008Y-87522500D02*
X129831492Y-87522500D01*
%TO.C,R2*%
X136858750Y-90752064D02*
X136858750Y-86397936D01*
X140278750Y-90752064D02*
X140278750Y-86397936D01*
%TO.C,R1*%
X145358750Y-90714564D02*
X145358750Y-86360436D01*
X148778750Y-90714564D02*
X148778750Y-86360436D01*
%TD*%
%LPC*%
D12*
%TO.C,C9*%
X159000000Y-105000000D03*
D13*
X159000000Y-97500000D03*
%TD*%
D14*
%TO.C,C11*%
X136500000Y-103000000D03*
D13*
X136500000Y-110500000D03*
%TD*%
D15*
%TO.C,TH1*%
X135500000Y-74500000D03*
X135500000Y-72850000D03*
%TD*%
D16*
%TO.C,Q5*%
X162220000Y-79200000D03*
D17*
X159940000Y-72900000D03*
D16*
X157660000Y-79200000D03*
%TD*%
D18*
%TO.C,R4*%
X143068750Y-91462500D03*
X143068750Y-85537500D03*
%TD*%
%TO.C,R6*%
X134568750Y-91500000D03*
X134568750Y-85575000D03*
%TD*%
D16*
%TO.C,Q6*%
X152572500Y-79200000D03*
D17*
X150292500Y-72900000D03*
D16*
X148012500Y-79200000D03*
%TD*%
D19*
%TO.C,R10*%
X129243750Y-90000000D03*
X130893750Y-90000000D03*
%TD*%
D20*
%TO.C,R5*%
X130893750Y-88500000D03*
X129243750Y-88500000D03*
%TD*%
%TO.C,R8*%
X130893750Y-91500000D03*
X129243750Y-91500000D03*
%TD*%
D16*
%TO.C,Q4*%
X142072500Y-79200000D03*
D17*
X139792500Y-72900000D03*
D16*
X137512500Y-79200000D03*
%TD*%
D20*
%TO.C,R3*%
X130893750Y-87000000D03*
X129243750Y-87000000D03*
%TD*%
D18*
%TO.C,R2*%
X138568750Y-91537500D03*
X138568750Y-85612500D03*
%TD*%
%TO.C,R1*%
X147068750Y-91500000D03*
X147068750Y-85575000D03*
%TD*%
D21*
X161500000Y-87500000D03*
X157000000Y-66000000D03*
D22*
X129950000Y-107099999D03*
D23*
X129000000Y-111149997D03*
D24*
X165500000Y-65500000D03*
X166000000Y-110700000D03*
D23*
X126950000Y-106950000D03*
D21*
X161500000Y-94000000D03*
D24*
X119800000Y-65300000D03*
D22*
X125000000Y-111000000D03*
D21*
X134500000Y-66600000D03*
X147000000Y-66300000D03*
D25*
X119000000Y-108000000D03*
X119000000Y-111000000D03*
X119000000Y-109500000D03*
D23*
X126249997Y-111149997D03*
X127500000Y-111149997D03*
X131000000Y-111149997D03*
%LPD*%
M02*
