%TF.GenerationSoftware,KiCad,Pcbnew,10.0.4*%
%TF.CreationDate,2026-07-19T18:30:54+08:00*%
%TF.ProjectId,wfoc,77666f63-2e6b-4696-9361-645f70636258,rev?*%
%TF.SameCoordinates,Original*%
%TF.FileFunction,Legend,Top*%
%TF.FilePolarity,Positive*%
%FSLAX46Y46*%
G04 Gerber Fmt 4.6, Leading zero omitted, Abs format (unit mm)*
G04 Created by KiCad (PCBNEW 10.0.4) date 2026-07-19 18:30:54*
%MOMM*%
%LPD*%
G01*
G04 APERTURE LIST*
G04 Aperture macros list*
%AMRoundRect*
0 Rectangle with rounded corners*
0 $1 Rounding radius*
0 $2 $3 $4 $5 $6 $7 $8 $9 X,Y pos of 4 corners*
0 Add a 4 corners polygon primitive as box body*
4,1,4,$2,$3,$4,$5,$6,$7,$8,$9,$2,$3,0*
0 Add four circle primitives for the rounded corners*
1,1,$1+$1,$2,$3*
1,1,$1+$1,$4,$5*
1,1,$1+$1,$6,$7*
1,1,$1+$1,$8,$9*
0 Add four rect primitives between the rounded corners*
20,1,$1+$1,$2,$3,$4,$5,0*
20,1,$1+$1,$4,$5,$6,$7,0*
20,1,$1+$1,$6,$7,$8,$9,0*
20,1,$1+$1,$8,$9,$2,$3,0*%
G04 Aperture macros list end*
%ADD10C,0.100000*%
%ADD11C,0.250000*%
%ADD12C,0.150000*%
%ADD13C,0.120000*%
%ADD14C,0.600000*%
%ADD15C,0.500000*%
%ADD16RoundRect,0.200000X0.275000X-0.200000X0.275000X0.200000X-0.275000X0.200000X-0.275000X-0.200000X0*%
%ADD17RoundRect,0.250000X0.450000X-0.262500X0.450000X0.262500X-0.450000X0.262500X-0.450000X-0.262500X0*%
%ADD18R,2.413000X3.302000*%
%ADD19RoundRect,0.175000X0.460000X0.175000X-0.460000X0.175000X-0.460000X-0.175000X0.460000X-0.175000X0*%
%ADD20RoundRect,0.250000X0.350000X-0.850000X0.350000X0.850000X-0.350000X0.850000X-0.350000X-0.850000X0*%
%ADD21RoundRect,0.249997X2.650003X-2.950003X2.650003X2.950003X-2.650003X2.950003X-2.650003X-2.950003X0*%
%ADD22RoundRect,0.225000X0.250000X-0.225000X0.250000X0.225000X-0.250000X0.225000X-0.250000X-0.225000X0*%
%ADD23RoundRect,0.200000X-0.200000X-0.275000X0.200000X-0.275000X0.200000X0.275000X-0.200000X0.275000X0*%
%ADD24RoundRect,0.200000X0.200000X0.275000X-0.200000X0.275000X-0.200000X-0.275000X0.200000X-0.275000X0*%
%ADD25RoundRect,0.225000X-0.225000X-0.250000X0.225000X-0.250000X0.225000X0.250000X-0.225000X0.250000X0*%
%ADD26RoundRect,0.135000X0.135000X0.185000X-0.135000X0.185000X-0.135000X-0.185000X0.135000X-0.185000X0*%
%ADD27RoundRect,0.135000X-0.135000X-0.185000X0.135000X-0.185000X0.135000X0.185000X-0.135000X0.185000X0*%
%ADD28RoundRect,0.250000X0.312500X0.625000X-0.312500X0.625000X-0.312500X-0.625000X0.312500X-0.625000X0*%
%ADD29RoundRect,0.225000X0.225000X0.250000X-0.225000X0.250000X-0.225000X-0.250000X0.225000X-0.250000X0*%
%ADD30R,3.000000X2.350000*%
%ADD31RoundRect,0.225000X-0.250000X0.225000X-0.250000X-0.225000X0.250000X-0.225000X0.250000X0.225000X0*%
%ADD32RoundRect,0.250000X-0.475000X0.250000X-0.475000X-0.250000X0.475000X-0.250000X0.475000X0.250000X0*%
%ADD33RoundRect,0.250000X0.750000X-0.750000X0.750000X0.750000X-0.750000X0.750000X-0.750000X-0.750000X0*%
%ADD34C,2.000000*%
%ADD35RoundRect,0.200000X-0.275000X0.200000X-0.275000X-0.200000X0.275000X-0.200000X0.275000X0.200000X0*%
%ADD36RoundRect,0.250001X0.462499X0.624999X-0.462499X0.624999X-0.462499X-0.624999X0.462499X-0.624999X0*%
%ADD37RoundRect,0.100000X0.100000X-0.637500X0.100000X0.637500X-0.100000X0.637500X-0.100000X-0.637500X0*%
%ADD38RoundRect,0.250000X-0.750000X0.750000X-0.750000X-0.750000X0.750000X-0.750000X0.750000X0.750000X0*%
%ADD39RoundRect,0.150000X0.150000X-0.675000X0.150000X0.675000X-0.150000X0.675000X-0.150000X-0.675000X0*%
%ADD40RoundRect,0.050000X0.050000X-0.230000X0.050000X0.230000X-0.050000X0.230000X-0.050000X-0.230000X0*%
%ADD41RoundRect,0.050000X0.230000X-0.050000X0.230000X0.050000X-0.230000X0.050000X-0.230000X-0.050000X0*%
%ADD42R,1.500000X1.500000*%
%ADD43RoundRect,0.150000X-0.587500X-0.150000X0.587500X-0.150000X0.587500X0.150000X-0.587500X0.150000X0*%
%ADD44C,4.000000*%
%ADD45C,0.500000*%
%ADD46C,0.600000*%
%ADD47C,3.000000*%
%ADD48C,0.800000*%
G04 APERTURE END LIST*
D10*
X118250000Y-107500000D02*
X119750000Y-107500000D01*
X119750000Y-111500000D01*
X118250000Y-111500000D01*
X118250000Y-107500000D01*
X123500000Y-110500000D02*
X131500000Y-110500000D01*
X131500000Y-112000000D01*
X123500000Y-112000000D01*
X123500000Y-110500000D01*
X124446741Y-109957419D02*
X124399122Y-109933609D01*
X124399122Y-109933609D02*
X124327693Y-109933609D01*
X124327693Y-109933609D02*
X124256265Y-109957419D01*
X124256265Y-109957419D02*
X124208646Y-110005038D01*
X124208646Y-110005038D02*
X124184836Y-110052657D01*
X124184836Y-110052657D02*
X124161027Y-110147895D01*
X124161027Y-110147895D02*
X124161027Y-110219323D01*
X124161027Y-110219323D02*
X124184836Y-110314561D01*
X124184836Y-110314561D02*
X124208646Y-110362180D01*
X124208646Y-110362180D02*
X124256265Y-110409800D01*
X124256265Y-110409800D02*
X124327693Y-110433609D01*
X124327693Y-110433609D02*
X124375312Y-110433609D01*
X124375312Y-110433609D02*
X124446741Y-110409800D01*
X124446741Y-110409800D02*
X124470550Y-110385990D01*
X124470550Y-110385990D02*
X124470550Y-110219323D01*
X124470550Y-110219323D02*
X124375312Y-110219323D01*
X124684836Y-110433609D02*
X124684836Y-109933609D01*
X124684836Y-109933609D02*
X124970550Y-110433609D01*
X124970550Y-110433609D02*
X124970550Y-109933609D01*
X125208646Y-110433609D02*
X125208646Y-109933609D01*
X125208646Y-109933609D02*
X125327694Y-109933609D01*
X125327694Y-109933609D02*
X125399122Y-109957419D01*
X125399122Y-109957419D02*
X125446741Y-110005038D01*
X125446741Y-110005038D02*
X125470551Y-110052657D01*
X125470551Y-110052657D02*
X125494360Y-110147895D01*
X125494360Y-110147895D02*
X125494360Y-110219323D01*
X125494360Y-110219323D02*
X125470551Y-110314561D01*
X125470551Y-110314561D02*
X125446741Y-110362180D01*
X125446741Y-110362180D02*
X125399122Y-110409800D01*
X125399122Y-110409800D02*
X125327694Y-110433609D01*
X125327694Y-110433609D02*
X125208646Y-110433609D01*
X126113408Y-109933609D02*
X126399122Y-109933609D01*
X126256265Y-110433609D02*
X126256265Y-109933609D01*
X126518169Y-109933609D02*
X126851502Y-110433609D01*
X126851502Y-109933609D02*
X126518169Y-110433609D01*
X126946741Y-106957419D02*
X126899122Y-106933609D01*
X126899122Y-106933609D02*
X126827693Y-106933609D01*
X126827693Y-106933609D02*
X126756265Y-106957419D01*
X126756265Y-106957419D02*
X126708646Y-107005038D01*
X126708646Y-107005038D02*
X126684836Y-107052657D01*
X126684836Y-107052657D02*
X126661027Y-107147895D01*
X126661027Y-107147895D02*
X126661027Y-107219323D01*
X126661027Y-107219323D02*
X126684836Y-107314561D01*
X126684836Y-107314561D02*
X126708646Y-107362180D01*
X126708646Y-107362180D02*
X126756265Y-107409800D01*
X126756265Y-107409800D02*
X126827693Y-107433609D01*
X126827693Y-107433609D02*
X126875312Y-107433609D01*
X126875312Y-107433609D02*
X126946741Y-107409800D01*
X126946741Y-107409800D02*
X126970550Y-107385990D01*
X126970550Y-107385990D02*
X126970550Y-107219323D01*
X126970550Y-107219323D02*
X126875312Y-107219323D01*
X127184836Y-107433609D02*
X127184836Y-106933609D01*
X127184836Y-106933609D02*
X127470550Y-107433609D01*
X127470550Y-107433609D02*
X127470550Y-106933609D01*
X127708646Y-107433609D02*
X127708646Y-106933609D01*
X127708646Y-106933609D02*
X127827694Y-106933609D01*
X127827694Y-106933609D02*
X127899122Y-106957419D01*
X127899122Y-106957419D02*
X127946741Y-107005038D01*
X127946741Y-107005038D02*
X127970551Y-107052657D01*
X127970551Y-107052657D02*
X127994360Y-107147895D01*
X127994360Y-107147895D02*
X127994360Y-107219323D01*
X127994360Y-107219323D02*
X127970551Y-107314561D01*
X127970551Y-107314561D02*
X127946741Y-107362180D01*
X127946741Y-107362180D02*
X127899122Y-107409800D01*
X127899122Y-107409800D02*
X127827694Y-107433609D01*
X127827694Y-107433609D02*
X127708646Y-107433609D01*
X127470550Y-110433609D02*
X127303884Y-110195514D01*
X127184836Y-110433609D02*
X127184836Y-109933609D01*
X127184836Y-109933609D02*
X127375312Y-109933609D01*
X127375312Y-109933609D02*
X127422931Y-109957419D01*
X127422931Y-109957419D02*
X127446741Y-109981228D01*
X127446741Y-109981228D02*
X127470550Y-110028847D01*
X127470550Y-110028847D02*
X127470550Y-110100276D01*
X127470550Y-110100276D02*
X127446741Y-110147895D01*
X127446741Y-110147895D02*
X127422931Y-110171704D01*
X127422931Y-110171704D02*
X127375312Y-110195514D01*
X127375312Y-110195514D02*
X127184836Y-110195514D01*
X127637217Y-109933609D02*
X127970550Y-110433609D01*
X127970550Y-109933609D02*
X127637217Y-110433609D01*
X128637217Y-109933609D02*
X128946741Y-109933609D01*
X128946741Y-109933609D02*
X128780074Y-110124085D01*
X128780074Y-110124085D02*
X128851503Y-110124085D01*
X128851503Y-110124085D02*
X128899122Y-110147895D01*
X128899122Y-110147895D02*
X128922931Y-110171704D01*
X128922931Y-110171704D02*
X128946741Y-110219323D01*
X128946741Y-110219323D02*
X128946741Y-110338371D01*
X128946741Y-110338371D02*
X128922931Y-110385990D01*
X128922931Y-110385990D02*
X128899122Y-110409800D01*
X128899122Y-110409800D02*
X128851503Y-110433609D01*
X128851503Y-110433609D02*
X128708646Y-110433609D01*
X128708646Y-110433609D02*
X128661027Y-110409800D01*
X128661027Y-110409800D02*
X128637217Y-110385990D01*
X129161026Y-110385990D02*
X129184836Y-110409800D01*
X129184836Y-110409800D02*
X129161026Y-110433609D01*
X129161026Y-110433609D02*
X129137217Y-110409800D01*
X129137217Y-110409800D02*
X129161026Y-110385990D01*
X129161026Y-110385990D02*
X129161026Y-110433609D01*
X129351502Y-109933609D02*
X129661026Y-109933609D01*
X129661026Y-109933609D02*
X129494359Y-110124085D01*
X129494359Y-110124085D02*
X129565788Y-110124085D01*
X129565788Y-110124085D02*
X129613407Y-110147895D01*
X129613407Y-110147895D02*
X129637216Y-110171704D01*
X129637216Y-110171704D02*
X129661026Y-110219323D01*
X129661026Y-110219323D02*
X129661026Y-110338371D01*
X129661026Y-110338371D02*
X129637216Y-110385990D01*
X129637216Y-110385990D02*
X129613407Y-110409800D01*
X129613407Y-110409800D02*
X129565788Y-110433609D01*
X129565788Y-110433609D02*
X129422931Y-110433609D01*
X129422931Y-110433609D02*
X129375312Y-110409800D01*
X129375312Y-110409800D02*
X129351502Y-110385990D01*
X129827692Y-110100276D02*
X129946740Y-110433609D01*
X129946740Y-110433609D02*
X130065787Y-110100276D01*
X130684836Y-110433609D02*
X130684836Y-109933609D01*
X130684836Y-109933609D02*
X130875312Y-109933609D01*
X130875312Y-109933609D02*
X130922931Y-109957419D01*
X130922931Y-109957419D02*
X130946741Y-109981228D01*
X130946741Y-109981228D02*
X130970550Y-110028847D01*
X130970550Y-110028847D02*
X130970550Y-110100276D01*
X130970550Y-110100276D02*
X130946741Y-110147895D01*
X130946741Y-110147895D02*
X130922931Y-110171704D01*
X130922931Y-110171704D02*
X130875312Y-110195514D01*
X130875312Y-110195514D02*
X130684836Y-110195514D01*
X131184836Y-110433609D02*
X131184836Y-109933609D01*
X131184836Y-109933609D02*
X131375312Y-109933609D01*
X131375312Y-109933609D02*
X131422931Y-109957419D01*
X131422931Y-109957419D02*
X131446741Y-109981228D01*
X131446741Y-109981228D02*
X131470550Y-110028847D01*
X131470550Y-110028847D02*
X131470550Y-110100276D01*
X131470550Y-110100276D02*
X131446741Y-110147895D01*
X131446741Y-110147895D02*
X131422931Y-110171704D01*
X131422931Y-110171704D02*
X131375312Y-110195514D01*
X131375312Y-110195514D02*
X131184836Y-110195514D01*
X131684836Y-110433609D02*
X131684836Y-109933609D01*
X131684836Y-109933609D02*
X131851503Y-110290752D01*
X131851503Y-110290752D02*
X132018169Y-109933609D01*
X132018169Y-109933609D02*
X132018169Y-110433609D01*
D11*
X118402568Y-106864619D02*
X118402568Y-105864619D01*
X118402568Y-106340809D02*
X118973996Y-106340809D01*
X118973996Y-106864619D02*
X118973996Y-105864619D01*
X119878758Y-106864619D02*
X119878758Y-106340809D01*
X119878758Y-106340809D02*
X119831139Y-106245571D01*
X119831139Y-106245571D02*
X119735901Y-106197952D01*
X119735901Y-106197952D02*
X119545425Y-106197952D01*
X119545425Y-106197952D02*
X119450187Y-106245571D01*
X119878758Y-106817000D02*
X119783520Y-106864619D01*
X119783520Y-106864619D02*
X119545425Y-106864619D01*
X119545425Y-106864619D02*
X119450187Y-106817000D01*
X119450187Y-106817000D02*
X119402568Y-106721761D01*
X119402568Y-106721761D02*
X119402568Y-106626523D01*
X119402568Y-106626523D02*
X119450187Y-106531285D01*
X119450187Y-106531285D02*
X119545425Y-106483666D01*
X119545425Y-106483666D02*
X119783520Y-106483666D01*
X119783520Y-106483666D02*
X119878758Y-106436047D01*
X120497806Y-106864619D02*
X120402568Y-106817000D01*
X120402568Y-106817000D02*
X120354949Y-106721761D01*
X120354949Y-106721761D02*
X120354949Y-105864619D01*
X121021616Y-106864619D02*
X120926378Y-106817000D01*
X120926378Y-106817000D02*
X120878759Y-106721761D01*
X120878759Y-106721761D02*
X120878759Y-105864619D01*
D12*
X160954819Y-110967857D02*
X160478628Y-111301190D01*
X160954819Y-111539285D02*
X159954819Y-111539285D01*
X159954819Y-111539285D02*
X159954819Y-111158333D01*
X159954819Y-111158333D02*
X160002438Y-111063095D01*
X160002438Y-111063095D02*
X160050057Y-111015476D01*
X160050057Y-111015476D02*
X160145295Y-110967857D01*
X160145295Y-110967857D02*
X160288152Y-110967857D01*
X160288152Y-110967857D02*
X160383390Y-111015476D01*
X160383390Y-111015476D02*
X160431009Y-111063095D01*
X160431009Y-111063095D02*
X160478628Y-111158333D01*
X160478628Y-111158333D02*
X160478628Y-111539285D01*
X160954819Y-110015476D02*
X160954819Y-110586904D01*
X160954819Y-110301190D02*
X159954819Y-110301190D01*
X159954819Y-110301190D02*
X160097676Y-110396428D01*
X160097676Y-110396428D02*
X160192914Y-110491666D01*
X160192914Y-110491666D02*
X160240533Y-110586904D01*
X159954819Y-109682142D02*
X159954819Y-109015476D01*
X159954819Y-109015476D02*
X160954819Y-109444047D01*
X161304819Y-111055357D02*
X160828628Y-111388690D01*
X161304819Y-111626785D02*
X160304819Y-111626785D01*
X160304819Y-111626785D02*
X160304819Y-111245833D01*
X160304819Y-111245833D02*
X160352438Y-111150595D01*
X160352438Y-111150595D02*
X160400057Y-111102976D01*
X160400057Y-111102976D02*
X160495295Y-111055357D01*
X160495295Y-111055357D02*
X160638152Y-111055357D01*
X160638152Y-111055357D02*
X160733390Y-111102976D01*
X160733390Y-111102976D02*
X160781009Y-111150595D01*
X160781009Y-111150595D02*
X160828628Y-111245833D01*
X160828628Y-111245833D02*
X160828628Y-111626785D01*
X160638152Y-110198214D02*
X161304819Y-110198214D01*
X160257200Y-110436309D02*
X160971485Y-110674404D01*
X160971485Y-110674404D02*
X160971485Y-110055357D01*
X160304819Y-109483928D02*
X160304819Y-109388690D01*
X160304819Y-109388690D02*
X160352438Y-109293452D01*
X160352438Y-109293452D02*
X160400057Y-109245833D01*
X160400057Y-109245833D02*
X160495295Y-109198214D01*
X160495295Y-109198214D02*
X160685771Y-109150595D01*
X160685771Y-109150595D02*
X160923866Y-109150595D01*
X160923866Y-109150595D02*
X161114342Y-109198214D01*
X161114342Y-109198214D02*
X161209580Y-109245833D01*
X161209580Y-109245833D02*
X161257200Y-109293452D01*
X161257200Y-109293452D02*
X161304819Y-109388690D01*
X161304819Y-109388690D02*
X161304819Y-109483928D01*
X161304819Y-109483928D02*
X161257200Y-109579166D01*
X161257200Y-109579166D02*
X161209580Y-109626785D01*
X161209580Y-109626785D02*
X161114342Y-109674404D01*
X161114342Y-109674404D02*
X160923866Y-109722023D01*
X160923866Y-109722023D02*
X160685771Y-109722023D01*
X160685771Y-109722023D02*
X160495295Y-109674404D01*
X160495295Y-109674404D02*
X160400057Y-109626785D01*
X160400057Y-109626785D02*
X160352438Y-109579166D01*
X160352438Y-109579166D02*
X160304819Y-109483928D01*
X159500000Y-107946009D02*
X159833333Y-107946009D01*
X159976190Y-108469819D02*
X159500000Y-108469819D01*
X159500000Y-108469819D02*
X159500000Y-107469819D01*
X159500000Y-107469819D02*
X159976190Y-107469819D01*
X160928571Y-107517438D02*
X160833333Y-107469819D01*
X160833333Y-107469819D02*
X160690476Y-107469819D01*
X160690476Y-107469819D02*
X160547619Y-107517438D01*
X160547619Y-107517438D02*
X160452381Y-107612676D01*
X160452381Y-107612676D02*
X160404762Y-107707914D01*
X160404762Y-107707914D02*
X160357143Y-107898390D01*
X160357143Y-107898390D02*
X160357143Y-108041247D01*
X160357143Y-108041247D02*
X160404762Y-108231723D01*
X160404762Y-108231723D02*
X160452381Y-108326961D01*
X160452381Y-108326961D02*
X160547619Y-108422200D01*
X160547619Y-108422200D02*
X160690476Y-108469819D01*
X160690476Y-108469819D02*
X160785714Y-108469819D01*
X160785714Y-108469819D02*
X160928571Y-108422200D01*
X160928571Y-108422200D02*
X160976190Y-108374580D01*
X160976190Y-108374580D02*
X160976190Y-108041247D01*
X160976190Y-108041247D02*
X160785714Y-108041247D01*
X161928571Y-108469819D02*
X161357143Y-108469819D01*
X161642857Y-108469819D02*
X161642857Y-107469819D01*
X161642857Y-107469819D02*
X161547619Y-107612676D01*
X161547619Y-107612676D02*
X161452381Y-107707914D01*
X161452381Y-107707914D02*
X161357143Y-107755533D01*
X162880952Y-108469819D02*
X162309524Y-108469819D01*
X162595238Y-108469819D02*
X162595238Y-107469819D01*
X162595238Y-107469819D02*
X162500000Y-107612676D01*
X162500000Y-107612676D02*
X162404762Y-107707914D01*
X162404762Y-107707914D02*
X162309524Y-107755533D01*
X163357143Y-108469819D02*
X163547619Y-108469819D01*
X163547619Y-108469819D02*
X163642857Y-108422200D01*
X163642857Y-108422200D02*
X163690476Y-108374580D01*
X163690476Y-108374580D02*
X163785714Y-108231723D01*
X163785714Y-108231723D02*
X163833333Y-108041247D01*
X163833333Y-108041247D02*
X163833333Y-107660295D01*
X163833333Y-107660295D02*
X163785714Y-107565057D01*
X163785714Y-107565057D02*
X163738095Y-107517438D01*
X163738095Y-107517438D02*
X163642857Y-107469819D01*
X163642857Y-107469819D02*
X163452381Y-107469819D01*
X163452381Y-107469819D02*
X163357143Y-107517438D01*
X163357143Y-107517438D02*
X163309524Y-107565057D01*
X163309524Y-107565057D02*
X163261905Y-107660295D01*
X163261905Y-107660295D02*
X163261905Y-107898390D01*
X163261905Y-107898390D02*
X163309524Y-107993628D01*
X163309524Y-107993628D02*
X163357143Y-108041247D01*
X163357143Y-108041247D02*
X163452381Y-108088866D01*
X163452381Y-108088866D02*
X163642857Y-108088866D01*
X163642857Y-108088866D02*
X163738095Y-108041247D01*
X163738095Y-108041247D02*
X163785714Y-107993628D01*
X163785714Y-107993628D02*
X163833333Y-107898390D01*
X164214286Y-107565057D02*
X164261905Y-107517438D01*
X164261905Y-107517438D02*
X164357143Y-107469819D01*
X164357143Y-107469819D02*
X164595238Y-107469819D01*
X164595238Y-107469819D02*
X164690476Y-107517438D01*
X164690476Y-107517438D02*
X164738095Y-107565057D01*
X164738095Y-107565057D02*
X164785714Y-107660295D01*
X164785714Y-107660295D02*
X164785714Y-107755533D01*
X164785714Y-107755533D02*
X164738095Y-107898390D01*
X164738095Y-107898390D02*
X164166667Y-108469819D01*
X164166667Y-108469819D02*
X164785714Y-108469819D01*
X165690476Y-108469819D02*
X165214286Y-108469819D01*
X165214286Y-108469819D02*
X165214286Y-107469819D01*
X166547619Y-108469819D02*
X165976191Y-108469819D01*
X166261905Y-108469819D02*
X166261905Y-107469819D01*
X166261905Y-107469819D02*
X166166667Y-107612676D01*
X166166667Y-107612676D02*
X166071429Y-107707914D01*
X166071429Y-107707914D02*
X165976191Y-107755533D01*
X153550057Y-74255238D02*
X153502438Y-74350476D01*
X153502438Y-74350476D02*
X153407200Y-74445714D01*
X153407200Y-74445714D02*
X153264342Y-74588571D01*
X153264342Y-74588571D02*
X153216723Y-74683809D01*
X153216723Y-74683809D02*
X153216723Y-74779047D01*
X153454819Y-74731428D02*
X153407200Y-74826666D01*
X153407200Y-74826666D02*
X153311961Y-74921904D01*
X153311961Y-74921904D02*
X153121485Y-74969523D01*
X153121485Y-74969523D02*
X152788152Y-74969523D01*
X152788152Y-74969523D02*
X152597676Y-74921904D01*
X152597676Y-74921904D02*
X152502438Y-74826666D01*
X152502438Y-74826666D02*
X152454819Y-74731428D01*
X152454819Y-74731428D02*
X152454819Y-74540952D01*
X152454819Y-74540952D02*
X152502438Y-74445714D01*
X152502438Y-74445714D02*
X152597676Y-74350476D01*
X152597676Y-74350476D02*
X152788152Y-74302857D01*
X152788152Y-74302857D02*
X153121485Y-74302857D01*
X153121485Y-74302857D02*
X153311961Y-74350476D01*
X153311961Y-74350476D02*
X153407200Y-74445714D01*
X153407200Y-74445714D02*
X153454819Y-74540952D01*
X153454819Y-74540952D02*
X153454819Y-74731428D01*
X153454819Y-73350476D02*
X153454819Y-73921904D01*
X153454819Y-73636190D02*
X152454819Y-73636190D01*
X152454819Y-73636190D02*
X152597676Y-73731428D01*
X152597676Y-73731428D02*
X152692914Y-73826666D01*
X152692914Y-73826666D02*
X152740533Y-73921904D01*
X129929580Y-102941666D02*
X129977200Y-102989285D01*
X129977200Y-102989285D02*
X130024819Y-103132142D01*
X130024819Y-103132142D02*
X130024819Y-103227380D01*
X130024819Y-103227380D02*
X129977200Y-103370237D01*
X129977200Y-103370237D02*
X129881961Y-103465475D01*
X129881961Y-103465475D02*
X129786723Y-103513094D01*
X129786723Y-103513094D02*
X129596247Y-103560713D01*
X129596247Y-103560713D02*
X129453390Y-103560713D01*
X129453390Y-103560713D02*
X129262914Y-103513094D01*
X129262914Y-103513094D02*
X129167676Y-103465475D01*
X129167676Y-103465475D02*
X129072438Y-103370237D01*
X129072438Y-103370237D02*
X129024819Y-103227380D01*
X129024819Y-103227380D02*
X129024819Y-103132142D01*
X129024819Y-103132142D02*
X129072438Y-102989285D01*
X129072438Y-102989285D02*
X129120057Y-102941666D01*
X129024819Y-102036904D02*
X129024819Y-102513094D01*
X129024819Y-102513094D02*
X129501009Y-102560713D01*
X129501009Y-102560713D02*
X129453390Y-102513094D01*
X129453390Y-102513094D02*
X129405771Y-102417856D01*
X129405771Y-102417856D02*
X129405771Y-102179761D01*
X129405771Y-102179761D02*
X129453390Y-102084523D01*
X129453390Y-102084523D02*
X129501009Y-102036904D01*
X129501009Y-102036904D02*
X129596247Y-101989285D01*
X129596247Y-101989285D02*
X129834342Y-101989285D01*
X129834342Y-101989285D02*
X129929580Y-102036904D01*
X129929580Y-102036904D02*
X129977200Y-102084523D01*
X129977200Y-102084523D02*
X130024819Y-102179761D01*
X130024819Y-102179761D02*
X130024819Y-102417856D01*
X130024819Y-102417856D02*
X129977200Y-102513094D01*
X129977200Y-102513094D02*
X129929580Y-102560713D01*
X144974642Y-80724819D02*
X144641309Y-80248628D01*
X144403214Y-80724819D02*
X144403214Y-79724819D01*
X144403214Y-79724819D02*
X144784166Y-79724819D01*
X144784166Y-79724819D02*
X144879404Y-79772438D01*
X144879404Y-79772438D02*
X144927023Y-79820057D01*
X144927023Y-79820057D02*
X144974642Y-79915295D01*
X144974642Y-79915295D02*
X144974642Y-80058152D01*
X144974642Y-80058152D02*
X144927023Y-80153390D01*
X144927023Y-80153390D02*
X144879404Y-80201009D01*
X144879404Y-80201009D02*
X144784166Y-80248628D01*
X144784166Y-80248628D02*
X144403214Y-80248628D01*
X145355595Y-79820057D02*
X145403214Y-79772438D01*
X145403214Y-79772438D02*
X145498452Y-79724819D01*
X145498452Y-79724819D02*
X145736547Y-79724819D01*
X145736547Y-79724819D02*
X145831785Y-79772438D01*
X145831785Y-79772438D02*
X145879404Y-79820057D01*
X145879404Y-79820057D02*
X145927023Y-79915295D01*
X145927023Y-79915295D02*
X145927023Y-80010533D01*
X145927023Y-80010533D02*
X145879404Y-80153390D01*
X145879404Y-80153390D02*
X145307976Y-80724819D01*
X145307976Y-80724819D02*
X145927023Y-80724819D01*
X146260357Y-79724819D02*
X146879404Y-79724819D01*
X146879404Y-79724819D02*
X146546071Y-80105771D01*
X146546071Y-80105771D02*
X146688928Y-80105771D01*
X146688928Y-80105771D02*
X146784166Y-80153390D01*
X146784166Y-80153390D02*
X146831785Y-80201009D01*
X146831785Y-80201009D02*
X146879404Y-80296247D01*
X146879404Y-80296247D02*
X146879404Y-80534342D01*
X146879404Y-80534342D02*
X146831785Y-80629580D01*
X146831785Y-80629580D02*
X146784166Y-80677200D01*
X146784166Y-80677200D02*
X146688928Y-80724819D01*
X146688928Y-80724819D02*
X146403214Y-80724819D01*
X146403214Y-80724819D02*
X146307976Y-80677200D01*
X146307976Y-80677200D02*
X146260357Y-80629580D01*
X121182142Y-98384819D02*
X120848809Y-97908628D01*
X120610714Y-98384819D02*
X120610714Y-97384819D01*
X120610714Y-97384819D02*
X120991666Y-97384819D01*
X120991666Y-97384819D02*
X121086904Y-97432438D01*
X121086904Y-97432438D02*
X121134523Y-97480057D01*
X121134523Y-97480057D02*
X121182142Y-97575295D01*
X121182142Y-97575295D02*
X121182142Y-97718152D01*
X121182142Y-97718152D02*
X121134523Y-97813390D01*
X121134523Y-97813390D02*
X121086904Y-97861009D01*
X121086904Y-97861009D02*
X120991666Y-97908628D01*
X120991666Y-97908628D02*
X120610714Y-97908628D01*
X122134523Y-98384819D02*
X121563095Y-98384819D01*
X121848809Y-98384819D02*
X121848809Y-97384819D01*
X121848809Y-97384819D02*
X121753571Y-97527676D01*
X121753571Y-97527676D02*
X121658333Y-97622914D01*
X121658333Y-97622914D02*
X121563095Y-97670533D01*
X122467857Y-97384819D02*
X123086904Y-97384819D01*
X123086904Y-97384819D02*
X122753571Y-97765771D01*
X122753571Y-97765771D02*
X122896428Y-97765771D01*
X122896428Y-97765771D02*
X122991666Y-97813390D01*
X122991666Y-97813390D02*
X123039285Y-97861009D01*
X123039285Y-97861009D02*
X123086904Y-97956247D01*
X123086904Y-97956247D02*
X123086904Y-98194342D01*
X123086904Y-98194342D02*
X123039285Y-98289580D01*
X123039285Y-98289580D02*
X122991666Y-98337200D01*
X122991666Y-98337200D02*
X122896428Y-98384819D01*
X122896428Y-98384819D02*
X122610714Y-98384819D01*
X122610714Y-98384819D02*
X122515476Y-98337200D01*
X122515476Y-98337200D02*
X122467857Y-98289580D01*
X133367557Y-74030238D02*
X133319938Y-74125476D01*
X133319938Y-74125476D02*
X133224700Y-74220714D01*
X133224700Y-74220714D02*
X133081842Y-74363571D01*
X133081842Y-74363571D02*
X133034223Y-74458809D01*
X133034223Y-74458809D02*
X133034223Y-74554047D01*
X133272319Y-74506428D02*
X133224700Y-74601666D01*
X133224700Y-74601666D02*
X133129461Y-74696904D01*
X133129461Y-74696904D02*
X132938985Y-74744523D01*
X132938985Y-74744523D02*
X132605652Y-74744523D01*
X132605652Y-74744523D02*
X132415176Y-74696904D01*
X132415176Y-74696904D02*
X132319938Y-74601666D01*
X132319938Y-74601666D02*
X132272319Y-74506428D01*
X132272319Y-74506428D02*
X132272319Y-74315952D01*
X132272319Y-74315952D02*
X132319938Y-74220714D01*
X132319938Y-74220714D02*
X132415176Y-74125476D01*
X132415176Y-74125476D02*
X132605652Y-74077857D01*
X132605652Y-74077857D02*
X132938985Y-74077857D01*
X132938985Y-74077857D02*
X133129461Y-74125476D01*
X133129461Y-74125476D02*
X133224700Y-74220714D01*
X133224700Y-74220714D02*
X133272319Y-74315952D01*
X133272319Y-74315952D02*
X133272319Y-74506428D01*
X132272319Y-73744523D02*
X132272319Y-73125476D01*
X132272319Y-73125476D02*
X132653271Y-73458809D01*
X132653271Y-73458809D02*
X132653271Y-73315952D01*
X132653271Y-73315952D02*
X132700890Y-73220714D01*
X132700890Y-73220714D02*
X132748509Y-73173095D01*
X132748509Y-73173095D02*
X132843747Y-73125476D01*
X132843747Y-73125476D02*
X133081842Y-73125476D01*
X133081842Y-73125476D02*
X133177080Y-73173095D01*
X133177080Y-73173095D02*
X133224700Y-73220714D01*
X133224700Y-73220714D02*
X133272319Y-73315952D01*
X133272319Y-73315952D02*
X133272319Y-73601666D01*
X133272319Y-73601666D02*
X133224700Y-73696904D01*
X133224700Y-73696904D02*
X133177080Y-73744523D01*
X152954819Y-80142857D02*
X152478628Y-80476190D01*
X152954819Y-80714285D02*
X151954819Y-80714285D01*
X151954819Y-80714285D02*
X151954819Y-80333333D01*
X151954819Y-80333333D02*
X152002438Y-80238095D01*
X152002438Y-80238095D02*
X152050057Y-80190476D01*
X152050057Y-80190476D02*
X152145295Y-80142857D01*
X152145295Y-80142857D02*
X152288152Y-80142857D01*
X152288152Y-80142857D02*
X152383390Y-80190476D01*
X152383390Y-80190476D02*
X152431009Y-80238095D01*
X152431009Y-80238095D02*
X152478628Y-80333333D01*
X152478628Y-80333333D02*
X152478628Y-80714285D01*
X151954819Y-79809523D02*
X151954819Y-79190476D01*
X151954819Y-79190476D02*
X152335771Y-79523809D01*
X152335771Y-79523809D02*
X152335771Y-79380952D01*
X152335771Y-79380952D02*
X152383390Y-79285714D01*
X152383390Y-79285714D02*
X152431009Y-79238095D01*
X152431009Y-79238095D02*
X152526247Y-79190476D01*
X152526247Y-79190476D02*
X152764342Y-79190476D01*
X152764342Y-79190476D02*
X152859580Y-79238095D01*
X152859580Y-79238095D02*
X152907200Y-79285714D01*
X152907200Y-79285714D02*
X152954819Y-79380952D01*
X152954819Y-79380952D02*
X152954819Y-79666666D01*
X152954819Y-79666666D02*
X152907200Y-79761904D01*
X152907200Y-79761904D02*
X152859580Y-79809523D01*
X152050057Y-78809523D02*
X152002438Y-78761904D01*
X152002438Y-78761904D02*
X151954819Y-78666666D01*
X151954819Y-78666666D02*
X151954819Y-78428571D01*
X151954819Y-78428571D02*
X152002438Y-78333333D01*
X152002438Y-78333333D02*
X152050057Y-78285714D01*
X152050057Y-78285714D02*
X152145295Y-78238095D01*
X152145295Y-78238095D02*
X152240533Y-78238095D01*
X152240533Y-78238095D02*
X152383390Y-78285714D01*
X152383390Y-78285714D02*
X152954819Y-78857142D01*
X152954819Y-78857142D02*
X152954819Y-78238095D01*
X147974642Y-80724819D02*
X147641309Y-80248628D01*
X147403214Y-80724819D02*
X147403214Y-79724819D01*
X147403214Y-79724819D02*
X147784166Y-79724819D01*
X147784166Y-79724819D02*
X147879404Y-79772438D01*
X147879404Y-79772438D02*
X147927023Y-79820057D01*
X147927023Y-79820057D02*
X147974642Y-79915295D01*
X147974642Y-79915295D02*
X147974642Y-80058152D01*
X147974642Y-80058152D02*
X147927023Y-80153390D01*
X147927023Y-80153390D02*
X147879404Y-80201009D01*
X147879404Y-80201009D02*
X147784166Y-80248628D01*
X147784166Y-80248628D02*
X147403214Y-80248628D01*
X148355595Y-79820057D02*
X148403214Y-79772438D01*
X148403214Y-79772438D02*
X148498452Y-79724819D01*
X148498452Y-79724819D02*
X148736547Y-79724819D01*
X148736547Y-79724819D02*
X148831785Y-79772438D01*
X148831785Y-79772438D02*
X148879404Y-79820057D01*
X148879404Y-79820057D02*
X148927023Y-79915295D01*
X148927023Y-79915295D02*
X148927023Y-80010533D01*
X148927023Y-80010533D02*
X148879404Y-80153390D01*
X148879404Y-80153390D02*
X148307976Y-80724819D01*
X148307976Y-80724819D02*
X148927023Y-80724819D01*
X149403214Y-80724819D02*
X149593690Y-80724819D01*
X149593690Y-80724819D02*
X149688928Y-80677200D01*
X149688928Y-80677200D02*
X149736547Y-80629580D01*
X149736547Y-80629580D02*
X149831785Y-80486723D01*
X149831785Y-80486723D02*
X149879404Y-80296247D01*
X149879404Y-80296247D02*
X149879404Y-79915295D01*
X149879404Y-79915295D02*
X149831785Y-79820057D01*
X149831785Y-79820057D02*
X149784166Y-79772438D01*
X149784166Y-79772438D02*
X149688928Y-79724819D01*
X149688928Y-79724819D02*
X149498452Y-79724819D01*
X149498452Y-79724819D02*
X149403214Y-79772438D01*
X149403214Y-79772438D02*
X149355595Y-79820057D01*
X149355595Y-79820057D02*
X149307976Y-79915295D01*
X149307976Y-79915295D02*
X149307976Y-80153390D01*
X149307976Y-80153390D02*
X149355595Y-80248628D01*
X149355595Y-80248628D02*
X149403214Y-80296247D01*
X149403214Y-80296247D02*
X149498452Y-80343866D01*
X149498452Y-80343866D02*
X149688928Y-80343866D01*
X149688928Y-80343866D02*
X149784166Y-80296247D01*
X149784166Y-80296247D02*
X149831785Y-80248628D01*
X149831785Y-80248628D02*
X149879404Y-80153390D01*
X143575057Y-73680238D02*
X143527438Y-73775476D01*
X143527438Y-73775476D02*
X143432200Y-73870714D01*
X143432200Y-73870714D02*
X143289342Y-74013571D01*
X143289342Y-74013571D02*
X143241723Y-74108809D01*
X143241723Y-74108809D02*
X143241723Y-74204047D01*
X143479819Y-74156428D02*
X143432200Y-74251666D01*
X143432200Y-74251666D02*
X143336961Y-74346904D01*
X143336961Y-74346904D02*
X143146485Y-74394523D01*
X143146485Y-74394523D02*
X142813152Y-74394523D01*
X142813152Y-74394523D02*
X142622676Y-74346904D01*
X142622676Y-74346904D02*
X142527438Y-74251666D01*
X142527438Y-74251666D02*
X142479819Y-74156428D01*
X142479819Y-74156428D02*
X142479819Y-73965952D01*
X142479819Y-73965952D02*
X142527438Y-73870714D01*
X142527438Y-73870714D02*
X142622676Y-73775476D01*
X142622676Y-73775476D02*
X142813152Y-73727857D01*
X142813152Y-73727857D02*
X143146485Y-73727857D01*
X143146485Y-73727857D02*
X143336961Y-73775476D01*
X143336961Y-73775476D02*
X143432200Y-73870714D01*
X143432200Y-73870714D02*
X143479819Y-73965952D01*
X143479819Y-73965952D02*
X143479819Y-74156428D01*
X142575057Y-73346904D02*
X142527438Y-73299285D01*
X142527438Y-73299285D02*
X142479819Y-73204047D01*
X142479819Y-73204047D02*
X142479819Y-72965952D01*
X142479819Y-72965952D02*
X142527438Y-72870714D01*
X142527438Y-72870714D02*
X142575057Y-72823095D01*
X142575057Y-72823095D02*
X142670295Y-72775476D01*
X142670295Y-72775476D02*
X142765533Y-72775476D01*
X142765533Y-72775476D02*
X142908390Y-72823095D01*
X142908390Y-72823095D02*
X143479819Y-73394523D01*
X143479819Y-73394523D02*
X143479819Y-72775476D01*
X155954819Y-80142857D02*
X155478628Y-80476190D01*
X155954819Y-80714285D02*
X154954819Y-80714285D01*
X154954819Y-80714285D02*
X154954819Y-80333333D01*
X154954819Y-80333333D02*
X155002438Y-80238095D01*
X155002438Y-80238095D02*
X155050057Y-80190476D01*
X155050057Y-80190476D02*
X155145295Y-80142857D01*
X155145295Y-80142857D02*
X155288152Y-80142857D01*
X155288152Y-80142857D02*
X155383390Y-80190476D01*
X155383390Y-80190476D02*
X155431009Y-80238095D01*
X155431009Y-80238095D02*
X155478628Y-80333333D01*
X155478628Y-80333333D02*
X155478628Y-80714285D01*
X155050057Y-79761904D02*
X155002438Y-79714285D01*
X155002438Y-79714285D02*
X154954819Y-79619047D01*
X154954819Y-79619047D02*
X154954819Y-79380952D01*
X154954819Y-79380952D02*
X155002438Y-79285714D01*
X155002438Y-79285714D02*
X155050057Y-79238095D01*
X155050057Y-79238095D02*
X155145295Y-79190476D01*
X155145295Y-79190476D02*
X155240533Y-79190476D01*
X155240533Y-79190476D02*
X155383390Y-79238095D01*
X155383390Y-79238095D02*
X155954819Y-79809523D01*
X155954819Y-79809523D02*
X155954819Y-79190476D01*
X155288152Y-78333333D02*
X155954819Y-78333333D01*
X154907200Y-78571428D02*
X155621485Y-78809523D01*
X155621485Y-78809523D02*
X155621485Y-78190476D01*
X157954819Y-80142857D02*
X157478628Y-80476190D01*
X157954819Y-80714285D02*
X156954819Y-80714285D01*
X156954819Y-80714285D02*
X156954819Y-80333333D01*
X156954819Y-80333333D02*
X157002438Y-80238095D01*
X157002438Y-80238095D02*
X157050057Y-80190476D01*
X157050057Y-80190476D02*
X157145295Y-80142857D01*
X157145295Y-80142857D02*
X157288152Y-80142857D01*
X157288152Y-80142857D02*
X157383390Y-80190476D01*
X157383390Y-80190476D02*
X157431009Y-80238095D01*
X157431009Y-80238095D02*
X157478628Y-80333333D01*
X157478628Y-80333333D02*
X157478628Y-80714285D01*
X157050057Y-79761904D02*
X157002438Y-79714285D01*
X157002438Y-79714285D02*
X156954819Y-79619047D01*
X156954819Y-79619047D02*
X156954819Y-79380952D01*
X156954819Y-79380952D02*
X157002438Y-79285714D01*
X157002438Y-79285714D02*
X157050057Y-79238095D01*
X157050057Y-79238095D02*
X157145295Y-79190476D01*
X157145295Y-79190476D02*
X157240533Y-79190476D01*
X157240533Y-79190476D02*
X157383390Y-79238095D01*
X157383390Y-79238095D02*
X157954819Y-79809523D01*
X157954819Y-79809523D02*
X157954819Y-79190476D01*
X157383390Y-78619047D02*
X157335771Y-78714285D01*
X157335771Y-78714285D02*
X157288152Y-78761904D01*
X157288152Y-78761904D02*
X157192914Y-78809523D01*
X157192914Y-78809523D02*
X157145295Y-78809523D01*
X157145295Y-78809523D02*
X157050057Y-78761904D01*
X157050057Y-78761904D02*
X157002438Y-78714285D01*
X157002438Y-78714285D02*
X156954819Y-78619047D01*
X156954819Y-78619047D02*
X156954819Y-78428571D01*
X156954819Y-78428571D02*
X157002438Y-78333333D01*
X157002438Y-78333333D02*
X157050057Y-78285714D01*
X157050057Y-78285714D02*
X157145295Y-78238095D01*
X157145295Y-78238095D02*
X157192914Y-78238095D01*
X157192914Y-78238095D02*
X157288152Y-78285714D01*
X157288152Y-78285714D02*
X157335771Y-78333333D01*
X157335771Y-78333333D02*
X157383390Y-78428571D01*
X157383390Y-78428571D02*
X157383390Y-78619047D01*
X157383390Y-78619047D02*
X157431009Y-78714285D01*
X157431009Y-78714285D02*
X157478628Y-78761904D01*
X157478628Y-78761904D02*
X157573866Y-78809523D01*
X157573866Y-78809523D02*
X157764342Y-78809523D01*
X157764342Y-78809523D02*
X157859580Y-78761904D01*
X157859580Y-78761904D02*
X157907200Y-78714285D01*
X157907200Y-78714285D02*
X157954819Y-78619047D01*
X157954819Y-78619047D02*
X157954819Y-78428571D01*
X157954819Y-78428571D02*
X157907200Y-78333333D01*
X157907200Y-78333333D02*
X157859580Y-78285714D01*
X157859580Y-78285714D02*
X157764342Y-78238095D01*
X157764342Y-78238095D02*
X157573866Y-78238095D01*
X157573866Y-78238095D02*
X157478628Y-78285714D01*
X157478628Y-78285714D02*
X157431009Y-78333333D01*
X157431009Y-78333333D02*
X157383390Y-78428571D01*
X137032142Y-80524819D02*
X136698809Y-80048628D01*
X136460714Y-80524819D02*
X136460714Y-79524819D01*
X136460714Y-79524819D02*
X136841666Y-79524819D01*
X136841666Y-79524819D02*
X136936904Y-79572438D01*
X136936904Y-79572438D02*
X136984523Y-79620057D01*
X136984523Y-79620057D02*
X137032142Y-79715295D01*
X137032142Y-79715295D02*
X137032142Y-79858152D01*
X137032142Y-79858152D02*
X136984523Y-79953390D01*
X136984523Y-79953390D02*
X136936904Y-80001009D01*
X136936904Y-80001009D02*
X136841666Y-80048628D01*
X136841666Y-80048628D02*
X136460714Y-80048628D01*
X137365476Y-79524819D02*
X137984523Y-79524819D01*
X137984523Y-79524819D02*
X137651190Y-79905771D01*
X137651190Y-79905771D02*
X137794047Y-79905771D01*
X137794047Y-79905771D02*
X137889285Y-79953390D01*
X137889285Y-79953390D02*
X137936904Y-80001009D01*
X137936904Y-80001009D02*
X137984523Y-80096247D01*
X137984523Y-80096247D02*
X137984523Y-80334342D01*
X137984523Y-80334342D02*
X137936904Y-80429580D01*
X137936904Y-80429580D02*
X137889285Y-80477200D01*
X137889285Y-80477200D02*
X137794047Y-80524819D01*
X137794047Y-80524819D02*
X137508333Y-80524819D01*
X137508333Y-80524819D02*
X137413095Y-80477200D01*
X137413095Y-80477200D02*
X137365476Y-80429580D01*
X138603571Y-79524819D02*
X138698809Y-79524819D01*
X138698809Y-79524819D02*
X138794047Y-79572438D01*
X138794047Y-79572438D02*
X138841666Y-79620057D01*
X138841666Y-79620057D02*
X138889285Y-79715295D01*
X138889285Y-79715295D02*
X138936904Y-79905771D01*
X138936904Y-79905771D02*
X138936904Y-80143866D01*
X138936904Y-80143866D02*
X138889285Y-80334342D01*
X138889285Y-80334342D02*
X138841666Y-80429580D01*
X138841666Y-80429580D02*
X138794047Y-80477200D01*
X138794047Y-80477200D02*
X138698809Y-80524819D01*
X138698809Y-80524819D02*
X138603571Y-80524819D01*
X138603571Y-80524819D02*
X138508333Y-80477200D01*
X138508333Y-80477200D02*
X138460714Y-80429580D01*
X138460714Y-80429580D02*
X138413095Y-80334342D01*
X138413095Y-80334342D02*
X138365476Y-80143866D01*
X138365476Y-80143866D02*
X138365476Y-79905771D01*
X138365476Y-79905771D02*
X138413095Y-79715295D01*
X138413095Y-79715295D02*
X138460714Y-79620057D01*
X138460714Y-79620057D02*
X138508333Y-79572438D01*
X138508333Y-79572438D02*
X138603571Y-79524819D01*
X127750892Y-84432119D02*
X127417559Y-83955928D01*
X127179464Y-84432119D02*
X127179464Y-83432119D01*
X127179464Y-83432119D02*
X127560416Y-83432119D01*
X127560416Y-83432119D02*
X127655654Y-83479738D01*
X127655654Y-83479738D02*
X127703273Y-83527357D01*
X127703273Y-83527357D02*
X127750892Y-83622595D01*
X127750892Y-83622595D02*
X127750892Y-83765452D01*
X127750892Y-83765452D02*
X127703273Y-83860690D01*
X127703273Y-83860690D02*
X127655654Y-83908309D01*
X127655654Y-83908309D02*
X127560416Y-83955928D01*
X127560416Y-83955928D02*
X127179464Y-83955928D01*
X128703273Y-84432119D02*
X128131845Y-84432119D01*
X128417559Y-84432119D02*
X128417559Y-83432119D01*
X128417559Y-83432119D02*
X128322321Y-83574976D01*
X128322321Y-83574976D02*
X128227083Y-83670214D01*
X128227083Y-83670214D02*
X128131845Y-83717833D01*
X129608035Y-83432119D02*
X129131845Y-83432119D01*
X129131845Y-83432119D02*
X129084226Y-83908309D01*
X129084226Y-83908309D02*
X129131845Y-83860690D01*
X129131845Y-83860690D02*
X129227083Y-83813071D01*
X129227083Y-83813071D02*
X129465178Y-83813071D01*
X129465178Y-83813071D02*
X129560416Y-83860690D01*
X129560416Y-83860690D02*
X129608035Y-83908309D01*
X129608035Y-83908309D02*
X129655654Y-84003547D01*
X129655654Y-84003547D02*
X129655654Y-84241642D01*
X129655654Y-84241642D02*
X129608035Y-84336880D01*
X129608035Y-84336880D02*
X129560416Y-84384500D01*
X129560416Y-84384500D02*
X129465178Y-84432119D01*
X129465178Y-84432119D02*
X129227083Y-84432119D01*
X129227083Y-84432119D02*
X129131845Y-84384500D01*
X129131845Y-84384500D02*
X129084226Y-84336880D01*
X150558333Y-104429580D02*
X150510714Y-104477200D01*
X150510714Y-104477200D02*
X150367857Y-104524819D01*
X150367857Y-104524819D02*
X150272619Y-104524819D01*
X150272619Y-104524819D02*
X150129762Y-104477200D01*
X150129762Y-104477200D02*
X150034524Y-104381961D01*
X150034524Y-104381961D02*
X149986905Y-104286723D01*
X149986905Y-104286723D02*
X149939286Y-104096247D01*
X149939286Y-104096247D02*
X149939286Y-103953390D01*
X149939286Y-103953390D02*
X149986905Y-103762914D01*
X149986905Y-103762914D02*
X150034524Y-103667676D01*
X150034524Y-103667676D02*
X150129762Y-103572438D01*
X150129762Y-103572438D02*
X150272619Y-103524819D01*
X150272619Y-103524819D02*
X150367857Y-103524819D01*
X150367857Y-103524819D02*
X150510714Y-103572438D01*
X150510714Y-103572438D02*
X150558333Y-103620057D01*
X150891667Y-103524819D02*
X151558333Y-103524819D01*
X151558333Y-103524819D02*
X151129762Y-104524819D01*
X152524819Y-106142857D02*
X152048628Y-106476190D01*
X152524819Y-106714285D02*
X151524819Y-106714285D01*
X151524819Y-106714285D02*
X151524819Y-106333333D01*
X151524819Y-106333333D02*
X151572438Y-106238095D01*
X151572438Y-106238095D02*
X151620057Y-106190476D01*
X151620057Y-106190476D02*
X151715295Y-106142857D01*
X151715295Y-106142857D02*
X151858152Y-106142857D01*
X151858152Y-106142857D02*
X151953390Y-106190476D01*
X151953390Y-106190476D02*
X152001009Y-106238095D01*
X152001009Y-106238095D02*
X152048628Y-106333333D01*
X152048628Y-106333333D02*
X152048628Y-106714285D01*
X151620057Y-105761904D02*
X151572438Y-105714285D01*
X151572438Y-105714285D02*
X151524819Y-105619047D01*
X151524819Y-105619047D02*
X151524819Y-105380952D01*
X151524819Y-105380952D02*
X151572438Y-105285714D01*
X151572438Y-105285714D02*
X151620057Y-105238095D01*
X151620057Y-105238095D02*
X151715295Y-105190476D01*
X151715295Y-105190476D02*
X151810533Y-105190476D01*
X151810533Y-105190476D02*
X151953390Y-105238095D01*
X151953390Y-105238095D02*
X152524819Y-105809523D01*
X152524819Y-105809523D02*
X152524819Y-105190476D01*
X151524819Y-104571428D02*
X151524819Y-104476190D01*
X151524819Y-104476190D02*
X151572438Y-104380952D01*
X151572438Y-104380952D02*
X151620057Y-104333333D01*
X151620057Y-104333333D02*
X151715295Y-104285714D01*
X151715295Y-104285714D02*
X151905771Y-104238095D01*
X151905771Y-104238095D02*
X152143866Y-104238095D01*
X152143866Y-104238095D02*
X152334342Y-104285714D01*
X152334342Y-104285714D02*
X152429580Y-104333333D01*
X152429580Y-104333333D02*
X152477200Y-104380952D01*
X152477200Y-104380952D02*
X152524819Y-104476190D01*
X152524819Y-104476190D02*
X152524819Y-104571428D01*
X152524819Y-104571428D02*
X152477200Y-104666666D01*
X152477200Y-104666666D02*
X152429580Y-104714285D01*
X152429580Y-104714285D02*
X152334342Y-104761904D01*
X152334342Y-104761904D02*
X152143866Y-104809523D01*
X152143866Y-104809523D02*
X151905771Y-104809523D01*
X151905771Y-104809523D02*
X151715295Y-104761904D01*
X151715295Y-104761904D02*
X151620057Y-104714285D01*
X151620057Y-104714285D02*
X151572438Y-104666666D01*
X151572438Y-104666666D02*
X151524819Y-104571428D01*
X121082142Y-96929580D02*
X121034523Y-96977200D01*
X121034523Y-96977200D02*
X120891666Y-97024819D01*
X120891666Y-97024819D02*
X120796428Y-97024819D01*
X120796428Y-97024819D02*
X120653571Y-96977200D01*
X120653571Y-96977200D02*
X120558333Y-96881961D01*
X120558333Y-96881961D02*
X120510714Y-96786723D01*
X120510714Y-96786723D02*
X120463095Y-96596247D01*
X120463095Y-96596247D02*
X120463095Y-96453390D01*
X120463095Y-96453390D02*
X120510714Y-96262914D01*
X120510714Y-96262914D02*
X120558333Y-96167676D01*
X120558333Y-96167676D02*
X120653571Y-96072438D01*
X120653571Y-96072438D02*
X120796428Y-96024819D01*
X120796428Y-96024819D02*
X120891666Y-96024819D01*
X120891666Y-96024819D02*
X121034523Y-96072438D01*
X121034523Y-96072438D02*
X121082142Y-96120057D01*
X122034523Y-97024819D02*
X121463095Y-97024819D01*
X121748809Y-97024819D02*
X121748809Y-96024819D01*
X121748809Y-96024819D02*
X121653571Y-96167676D01*
X121653571Y-96167676D02*
X121558333Y-96262914D01*
X121558333Y-96262914D02*
X121463095Y-96310533D01*
X122510714Y-97024819D02*
X122701190Y-97024819D01*
X122701190Y-97024819D02*
X122796428Y-96977200D01*
X122796428Y-96977200D02*
X122844047Y-96929580D01*
X122844047Y-96929580D02*
X122939285Y-96786723D01*
X122939285Y-96786723D02*
X122986904Y-96596247D01*
X122986904Y-96596247D02*
X122986904Y-96215295D01*
X122986904Y-96215295D02*
X122939285Y-96120057D01*
X122939285Y-96120057D02*
X122891666Y-96072438D01*
X122891666Y-96072438D02*
X122796428Y-96024819D01*
X122796428Y-96024819D02*
X122605952Y-96024819D01*
X122605952Y-96024819D02*
X122510714Y-96072438D01*
X122510714Y-96072438D02*
X122463095Y-96120057D01*
X122463095Y-96120057D02*
X122415476Y-96215295D01*
X122415476Y-96215295D02*
X122415476Y-96453390D01*
X122415476Y-96453390D02*
X122463095Y-96548628D01*
X122463095Y-96548628D02*
X122510714Y-96596247D01*
X122510714Y-96596247D02*
X122605952Y-96643866D01*
X122605952Y-96643866D02*
X122796428Y-96643866D01*
X122796428Y-96643866D02*
X122891666Y-96596247D01*
X122891666Y-96596247D02*
X122939285Y-96548628D01*
X122939285Y-96548628D02*
X122986904Y-96453390D01*
X142024819Y-83467857D02*
X141548628Y-83801190D01*
X142024819Y-84039285D02*
X141024819Y-84039285D01*
X141024819Y-84039285D02*
X141024819Y-83658333D01*
X141024819Y-83658333D02*
X141072438Y-83563095D01*
X141072438Y-83563095D02*
X141120057Y-83515476D01*
X141120057Y-83515476D02*
X141215295Y-83467857D01*
X141215295Y-83467857D02*
X141358152Y-83467857D01*
X141358152Y-83467857D02*
X141453390Y-83515476D01*
X141453390Y-83515476D02*
X141501009Y-83563095D01*
X141501009Y-83563095D02*
X141548628Y-83658333D01*
X141548628Y-83658333D02*
X141548628Y-84039285D01*
X141120057Y-83086904D02*
X141072438Y-83039285D01*
X141072438Y-83039285D02*
X141024819Y-82944047D01*
X141024819Y-82944047D02*
X141024819Y-82705952D01*
X141024819Y-82705952D02*
X141072438Y-82610714D01*
X141072438Y-82610714D02*
X141120057Y-82563095D01*
X141120057Y-82563095D02*
X141215295Y-82515476D01*
X141215295Y-82515476D02*
X141310533Y-82515476D01*
X141310533Y-82515476D02*
X141453390Y-82563095D01*
X141453390Y-82563095D02*
X142024819Y-83134523D01*
X142024819Y-83134523D02*
X142024819Y-82515476D01*
X141024819Y-82182142D02*
X141024819Y-81515476D01*
X141024819Y-81515476D02*
X142024819Y-81944047D01*
X121902083Y-84432119D02*
X121568750Y-83955928D01*
X121330655Y-84432119D02*
X121330655Y-83432119D01*
X121330655Y-83432119D02*
X121711607Y-83432119D01*
X121711607Y-83432119D02*
X121806845Y-83479738D01*
X121806845Y-83479738D02*
X121854464Y-83527357D01*
X121854464Y-83527357D02*
X121902083Y-83622595D01*
X121902083Y-83622595D02*
X121902083Y-83765452D01*
X121902083Y-83765452D02*
X121854464Y-83860690D01*
X121854464Y-83860690D02*
X121806845Y-83908309D01*
X121806845Y-83908309D02*
X121711607Y-83955928D01*
X121711607Y-83955928D02*
X121330655Y-83955928D01*
X122378274Y-84432119D02*
X122568750Y-84432119D01*
X122568750Y-84432119D02*
X122663988Y-84384500D01*
X122663988Y-84384500D02*
X122711607Y-84336880D01*
X122711607Y-84336880D02*
X122806845Y-84194023D01*
X122806845Y-84194023D02*
X122854464Y-84003547D01*
X122854464Y-84003547D02*
X122854464Y-83622595D01*
X122854464Y-83622595D02*
X122806845Y-83527357D01*
X122806845Y-83527357D02*
X122759226Y-83479738D01*
X122759226Y-83479738D02*
X122663988Y-83432119D01*
X122663988Y-83432119D02*
X122473512Y-83432119D01*
X122473512Y-83432119D02*
X122378274Y-83479738D01*
X122378274Y-83479738D02*
X122330655Y-83527357D01*
X122330655Y-83527357D02*
X122283036Y-83622595D01*
X122283036Y-83622595D02*
X122283036Y-83860690D01*
X122283036Y-83860690D02*
X122330655Y-83955928D01*
X122330655Y-83955928D02*
X122378274Y-84003547D01*
X122378274Y-84003547D02*
X122473512Y-84051166D01*
X122473512Y-84051166D02*
X122663988Y-84051166D01*
X122663988Y-84051166D02*
X122759226Y-84003547D01*
X122759226Y-84003547D02*
X122806845Y-83955928D01*
X122806845Y-83955928D02*
X122854464Y-83860690D01*
X122357142Y-105454819D02*
X122023809Y-104978628D01*
X121785714Y-105454819D02*
X121785714Y-104454819D01*
X121785714Y-104454819D02*
X122166666Y-104454819D01*
X122166666Y-104454819D02*
X122261904Y-104502438D01*
X122261904Y-104502438D02*
X122309523Y-104550057D01*
X122309523Y-104550057D02*
X122357142Y-104645295D01*
X122357142Y-104645295D02*
X122357142Y-104788152D01*
X122357142Y-104788152D02*
X122309523Y-104883390D01*
X122309523Y-104883390D02*
X122261904Y-104931009D01*
X122261904Y-104931009D02*
X122166666Y-104978628D01*
X122166666Y-104978628D02*
X121785714Y-104978628D01*
X123214285Y-104788152D02*
X123214285Y-105454819D01*
X122976190Y-104407200D02*
X122738095Y-105121485D01*
X122738095Y-105121485D02*
X123357142Y-105121485D01*
X124166666Y-104788152D02*
X124166666Y-105454819D01*
X123928571Y-104407200D02*
X123690476Y-105121485D01*
X123690476Y-105121485D02*
X124309523Y-105121485D01*
X119857142Y-102454819D02*
X119523809Y-101978628D01*
X119285714Y-102454819D02*
X119285714Y-101454819D01*
X119285714Y-101454819D02*
X119666666Y-101454819D01*
X119666666Y-101454819D02*
X119761904Y-101502438D01*
X119761904Y-101502438D02*
X119809523Y-101550057D01*
X119809523Y-101550057D02*
X119857142Y-101645295D01*
X119857142Y-101645295D02*
X119857142Y-101788152D01*
X119857142Y-101788152D02*
X119809523Y-101883390D01*
X119809523Y-101883390D02*
X119761904Y-101931009D01*
X119761904Y-101931009D02*
X119666666Y-101978628D01*
X119666666Y-101978628D02*
X119285714Y-101978628D01*
X120190476Y-101454819D02*
X120809523Y-101454819D01*
X120809523Y-101454819D02*
X120476190Y-101835771D01*
X120476190Y-101835771D02*
X120619047Y-101835771D01*
X120619047Y-101835771D02*
X120714285Y-101883390D01*
X120714285Y-101883390D02*
X120761904Y-101931009D01*
X120761904Y-101931009D02*
X120809523Y-102026247D01*
X120809523Y-102026247D02*
X120809523Y-102264342D01*
X120809523Y-102264342D02*
X120761904Y-102359580D01*
X120761904Y-102359580D02*
X120714285Y-102407200D01*
X120714285Y-102407200D02*
X120619047Y-102454819D01*
X120619047Y-102454819D02*
X120333333Y-102454819D01*
X120333333Y-102454819D02*
X120238095Y-102407200D01*
X120238095Y-102407200D02*
X120190476Y-102359580D01*
X121380952Y-101883390D02*
X121285714Y-101835771D01*
X121285714Y-101835771D02*
X121238095Y-101788152D01*
X121238095Y-101788152D02*
X121190476Y-101692914D01*
X121190476Y-101692914D02*
X121190476Y-101645295D01*
X121190476Y-101645295D02*
X121238095Y-101550057D01*
X121238095Y-101550057D02*
X121285714Y-101502438D01*
X121285714Y-101502438D02*
X121380952Y-101454819D01*
X121380952Y-101454819D02*
X121571428Y-101454819D01*
X121571428Y-101454819D02*
X121666666Y-101502438D01*
X121666666Y-101502438D02*
X121714285Y-101550057D01*
X121714285Y-101550057D02*
X121761904Y-101645295D01*
X121761904Y-101645295D02*
X121761904Y-101692914D01*
X121761904Y-101692914D02*
X121714285Y-101788152D01*
X121714285Y-101788152D02*
X121666666Y-101835771D01*
X121666666Y-101835771D02*
X121571428Y-101883390D01*
X121571428Y-101883390D02*
X121380952Y-101883390D01*
X121380952Y-101883390D02*
X121285714Y-101931009D01*
X121285714Y-101931009D02*
X121238095Y-101978628D01*
X121238095Y-101978628D02*
X121190476Y-102073866D01*
X121190476Y-102073866D02*
X121190476Y-102264342D01*
X121190476Y-102264342D02*
X121238095Y-102359580D01*
X121238095Y-102359580D02*
X121285714Y-102407200D01*
X121285714Y-102407200D02*
X121380952Y-102454819D01*
X121380952Y-102454819D02*
X121571428Y-102454819D01*
X121571428Y-102454819D02*
X121666666Y-102407200D01*
X121666666Y-102407200D02*
X121714285Y-102359580D01*
X121714285Y-102359580D02*
X121761904Y-102264342D01*
X121761904Y-102264342D02*
X121761904Y-102073866D01*
X121761904Y-102073866D02*
X121714285Y-101978628D01*
X121714285Y-101978628D02*
X121666666Y-101931009D01*
X121666666Y-101931009D02*
X121571428Y-101883390D01*
X148357142Y-109454819D02*
X148023809Y-108978628D01*
X147785714Y-109454819D02*
X147785714Y-108454819D01*
X147785714Y-108454819D02*
X148166666Y-108454819D01*
X148166666Y-108454819D02*
X148261904Y-108502438D01*
X148261904Y-108502438D02*
X148309523Y-108550057D01*
X148309523Y-108550057D02*
X148357142Y-108645295D01*
X148357142Y-108645295D02*
X148357142Y-108788152D01*
X148357142Y-108788152D02*
X148309523Y-108883390D01*
X148309523Y-108883390D02*
X148261904Y-108931009D01*
X148261904Y-108931009D02*
X148166666Y-108978628D01*
X148166666Y-108978628D02*
X147785714Y-108978628D01*
X149309523Y-109454819D02*
X148738095Y-109454819D01*
X149023809Y-109454819D02*
X149023809Y-108454819D01*
X149023809Y-108454819D02*
X148928571Y-108597676D01*
X148928571Y-108597676D02*
X148833333Y-108692914D01*
X148833333Y-108692914D02*
X148738095Y-108740533D01*
X149880952Y-108883390D02*
X149785714Y-108835771D01*
X149785714Y-108835771D02*
X149738095Y-108788152D01*
X149738095Y-108788152D02*
X149690476Y-108692914D01*
X149690476Y-108692914D02*
X149690476Y-108645295D01*
X149690476Y-108645295D02*
X149738095Y-108550057D01*
X149738095Y-108550057D02*
X149785714Y-108502438D01*
X149785714Y-108502438D02*
X149880952Y-108454819D01*
X149880952Y-108454819D02*
X150071428Y-108454819D01*
X150071428Y-108454819D02*
X150166666Y-108502438D01*
X150166666Y-108502438D02*
X150214285Y-108550057D01*
X150214285Y-108550057D02*
X150261904Y-108645295D01*
X150261904Y-108645295D02*
X150261904Y-108692914D01*
X150261904Y-108692914D02*
X150214285Y-108788152D01*
X150214285Y-108788152D02*
X150166666Y-108835771D01*
X150166666Y-108835771D02*
X150071428Y-108883390D01*
X150071428Y-108883390D02*
X149880952Y-108883390D01*
X149880952Y-108883390D02*
X149785714Y-108931009D01*
X149785714Y-108931009D02*
X149738095Y-108978628D01*
X149738095Y-108978628D02*
X149690476Y-109073866D01*
X149690476Y-109073866D02*
X149690476Y-109264342D01*
X149690476Y-109264342D02*
X149738095Y-109359580D01*
X149738095Y-109359580D02*
X149785714Y-109407200D01*
X149785714Y-109407200D02*
X149880952Y-109454819D01*
X149880952Y-109454819D02*
X150071428Y-109454819D01*
X150071428Y-109454819D02*
X150166666Y-109407200D01*
X150166666Y-109407200D02*
X150214285Y-109359580D01*
X150214285Y-109359580D02*
X150261904Y-109264342D01*
X150261904Y-109264342D02*
X150261904Y-109073866D01*
X150261904Y-109073866D02*
X150214285Y-108978628D01*
X150214285Y-108978628D02*
X150166666Y-108931009D01*
X150166666Y-108931009D02*
X150071428Y-108883390D01*
X158182142Y-85454819D02*
X157848809Y-84978628D01*
X157610714Y-85454819D02*
X157610714Y-84454819D01*
X157610714Y-84454819D02*
X157991666Y-84454819D01*
X157991666Y-84454819D02*
X158086904Y-84502438D01*
X158086904Y-84502438D02*
X158134523Y-84550057D01*
X158134523Y-84550057D02*
X158182142Y-84645295D01*
X158182142Y-84645295D02*
X158182142Y-84788152D01*
X158182142Y-84788152D02*
X158134523Y-84883390D01*
X158134523Y-84883390D02*
X158086904Y-84931009D01*
X158086904Y-84931009D02*
X157991666Y-84978628D01*
X157991666Y-84978628D02*
X157610714Y-84978628D01*
X158563095Y-84550057D02*
X158610714Y-84502438D01*
X158610714Y-84502438D02*
X158705952Y-84454819D01*
X158705952Y-84454819D02*
X158944047Y-84454819D01*
X158944047Y-84454819D02*
X159039285Y-84502438D01*
X159039285Y-84502438D02*
X159086904Y-84550057D01*
X159086904Y-84550057D02*
X159134523Y-84645295D01*
X159134523Y-84645295D02*
X159134523Y-84740533D01*
X159134523Y-84740533D02*
X159086904Y-84883390D01*
X159086904Y-84883390D02*
X158515476Y-85454819D01*
X158515476Y-85454819D02*
X159134523Y-85454819D01*
X160039285Y-84454819D02*
X159563095Y-84454819D01*
X159563095Y-84454819D02*
X159515476Y-84931009D01*
X159515476Y-84931009D02*
X159563095Y-84883390D01*
X159563095Y-84883390D02*
X159658333Y-84835771D01*
X159658333Y-84835771D02*
X159896428Y-84835771D01*
X159896428Y-84835771D02*
X159991666Y-84883390D01*
X159991666Y-84883390D02*
X160039285Y-84931009D01*
X160039285Y-84931009D02*
X160086904Y-85026247D01*
X160086904Y-85026247D02*
X160086904Y-85264342D01*
X160086904Y-85264342D02*
X160039285Y-85359580D01*
X160039285Y-85359580D02*
X159991666Y-85407200D01*
X159991666Y-85407200D02*
X159896428Y-85454819D01*
X159896428Y-85454819D02*
X159658333Y-85454819D01*
X159658333Y-85454819D02*
X159563095Y-85407200D01*
X159563095Y-85407200D02*
X159515476Y-85359580D01*
X154082142Y-96789580D02*
X154034523Y-96837200D01*
X154034523Y-96837200D02*
X153891666Y-96884819D01*
X153891666Y-96884819D02*
X153796428Y-96884819D01*
X153796428Y-96884819D02*
X153653571Y-96837200D01*
X153653571Y-96837200D02*
X153558333Y-96741961D01*
X153558333Y-96741961D02*
X153510714Y-96646723D01*
X153510714Y-96646723D02*
X153463095Y-96456247D01*
X153463095Y-96456247D02*
X153463095Y-96313390D01*
X153463095Y-96313390D02*
X153510714Y-96122914D01*
X153510714Y-96122914D02*
X153558333Y-96027676D01*
X153558333Y-96027676D02*
X153653571Y-95932438D01*
X153653571Y-95932438D02*
X153796428Y-95884819D01*
X153796428Y-95884819D02*
X153891666Y-95884819D01*
X153891666Y-95884819D02*
X154034523Y-95932438D01*
X154034523Y-95932438D02*
X154082142Y-95980057D01*
X155034523Y-96884819D02*
X154463095Y-96884819D01*
X154748809Y-96884819D02*
X154748809Y-95884819D01*
X154748809Y-95884819D02*
X154653571Y-96027676D01*
X154653571Y-96027676D02*
X154558333Y-96122914D01*
X154558333Y-96122914D02*
X154463095Y-96170533D01*
X155891666Y-96218152D02*
X155891666Y-96884819D01*
X155653571Y-95837200D02*
X155415476Y-96551485D01*
X155415476Y-96551485D02*
X156034523Y-96551485D01*
X152082142Y-87289580D02*
X152034523Y-87337200D01*
X152034523Y-87337200D02*
X151891666Y-87384819D01*
X151891666Y-87384819D02*
X151796428Y-87384819D01*
X151796428Y-87384819D02*
X151653571Y-87337200D01*
X151653571Y-87337200D02*
X151558333Y-87241961D01*
X151558333Y-87241961D02*
X151510714Y-87146723D01*
X151510714Y-87146723D02*
X151463095Y-86956247D01*
X151463095Y-86956247D02*
X151463095Y-86813390D01*
X151463095Y-86813390D02*
X151510714Y-86622914D01*
X151510714Y-86622914D02*
X151558333Y-86527676D01*
X151558333Y-86527676D02*
X151653571Y-86432438D01*
X151653571Y-86432438D02*
X151796428Y-86384819D01*
X151796428Y-86384819D02*
X151891666Y-86384819D01*
X151891666Y-86384819D02*
X152034523Y-86432438D01*
X152034523Y-86432438D02*
X152082142Y-86480057D01*
X153034523Y-87384819D02*
X152463095Y-87384819D01*
X152748809Y-87384819D02*
X152748809Y-86384819D01*
X152748809Y-86384819D02*
X152653571Y-86527676D01*
X152653571Y-86527676D02*
X152558333Y-86622914D01*
X152558333Y-86622914D02*
X152463095Y-86670533D01*
X153367857Y-86384819D02*
X154034523Y-86384819D01*
X154034523Y-86384819D02*
X153605952Y-87384819D01*
X120857142Y-109784819D02*
X120523809Y-109308628D01*
X120285714Y-109784819D02*
X120285714Y-108784819D01*
X120285714Y-108784819D02*
X120666666Y-108784819D01*
X120666666Y-108784819D02*
X120761904Y-108832438D01*
X120761904Y-108832438D02*
X120809523Y-108880057D01*
X120809523Y-108880057D02*
X120857142Y-108975295D01*
X120857142Y-108975295D02*
X120857142Y-109118152D01*
X120857142Y-109118152D02*
X120809523Y-109213390D01*
X120809523Y-109213390D02*
X120761904Y-109261009D01*
X120761904Y-109261009D02*
X120666666Y-109308628D01*
X120666666Y-109308628D02*
X120285714Y-109308628D01*
X121714285Y-109118152D02*
X121714285Y-109784819D01*
X121476190Y-108737200D02*
X121238095Y-109451485D01*
X121238095Y-109451485D02*
X121857142Y-109451485D01*
X122142857Y-108784819D02*
X122809523Y-108784819D01*
X122809523Y-108784819D02*
X122380952Y-109784819D01*
X120857142Y-107784819D02*
X120523809Y-107308628D01*
X120285714Y-107784819D02*
X120285714Y-106784819D01*
X120285714Y-106784819D02*
X120666666Y-106784819D01*
X120666666Y-106784819D02*
X120761904Y-106832438D01*
X120761904Y-106832438D02*
X120809523Y-106880057D01*
X120809523Y-106880057D02*
X120857142Y-106975295D01*
X120857142Y-106975295D02*
X120857142Y-107118152D01*
X120857142Y-107118152D02*
X120809523Y-107213390D01*
X120809523Y-107213390D02*
X120761904Y-107261009D01*
X120761904Y-107261009D02*
X120666666Y-107308628D01*
X120666666Y-107308628D02*
X120285714Y-107308628D01*
X121714285Y-107118152D02*
X121714285Y-107784819D01*
X121476190Y-106737200D02*
X121238095Y-107451485D01*
X121238095Y-107451485D02*
X121857142Y-107451485D01*
X122714285Y-106784819D02*
X122238095Y-106784819D01*
X122238095Y-106784819D02*
X122190476Y-107261009D01*
X122190476Y-107261009D02*
X122238095Y-107213390D01*
X122238095Y-107213390D02*
X122333333Y-107165771D01*
X122333333Y-107165771D02*
X122571428Y-107165771D01*
X122571428Y-107165771D02*
X122666666Y-107213390D01*
X122666666Y-107213390D02*
X122714285Y-107261009D01*
X122714285Y-107261009D02*
X122761904Y-107356247D01*
X122761904Y-107356247D02*
X122761904Y-107594342D01*
X122761904Y-107594342D02*
X122714285Y-107689580D01*
X122714285Y-107689580D02*
X122666666Y-107737200D01*
X122666666Y-107737200D02*
X122571428Y-107784819D01*
X122571428Y-107784819D02*
X122333333Y-107784819D01*
X122333333Y-107784819D02*
X122238095Y-107737200D01*
X122238095Y-107737200D02*
X122190476Y-107689580D01*
X140032142Y-83384819D02*
X139698809Y-82908628D01*
X139460714Y-83384819D02*
X139460714Y-82384819D01*
X139460714Y-82384819D02*
X139841666Y-82384819D01*
X139841666Y-82384819D02*
X139936904Y-82432438D01*
X139936904Y-82432438D02*
X139984523Y-82480057D01*
X139984523Y-82480057D02*
X140032142Y-82575295D01*
X140032142Y-82575295D02*
X140032142Y-82718152D01*
X140032142Y-82718152D02*
X139984523Y-82813390D01*
X139984523Y-82813390D02*
X139936904Y-82861009D01*
X139936904Y-82861009D02*
X139841666Y-82908628D01*
X139841666Y-82908628D02*
X139460714Y-82908628D01*
X140365476Y-82384819D02*
X140984523Y-82384819D01*
X140984523Y-82384819D02*
X140651190Y-82765771D01*
X140651190Y-82765771D02*
X140794047Y-82765771D01*
X140794047Y-82765771D02*
X140889285Y-82813390D01*
X140889285Y-82813390D02*
X140936904Y-82861009D01*
X140936904Y-82861009D02*
X140984523Y-82956247D01*
X140984523Y-82956247D02*
X140984523Y-83194342D01*
X140984523Y-83194342D02*
X140936904Y-83289580D01*
X140936904Y-83289580D02*
X140889285Y-83337200D01*
X140889285Y-83337200D02*
X140794047Y-83384819D01*
X140794047Y-83384819D02*
X140508333Y-83384819D01*
X140508333Y-83384819D02*
X140413095Y-83337200D01*
X140413095Y-83337200D02*
X140365476Y-83289580D01*
X141317857Y-82384819D02*
X141936904Y-82384819D01*
X141936904Y-82384819D02*
X141603571Y-82765771D01*
X141603571Y-82765771D02*
X141746428Y-82765771D01*
X141746428Y-82765771D02*
X141841666Y-82813390D01*
X141841666Y-82813390D02*
X141889285Y-82861009D01*
X141889285Y-82861009D02*
X141936904Y-82956247D01*
X141936904Y-82956247D02*
X141936904Y-83194342D01*
X141936904Y-83194342D02*
X141889285Y-83289580D01*
X141889285Y-83289580D02*
X141841666Y-83337200D01*
X141841666Y-83337200D02*
X141746428Y-83384819D01*
X141746428Y-83384819D02*
X141460714Y-83384819D01*
X141460714Y-83384819D02*
X141365476Y-83337200D01*
X141365476Y-83337200D02*
X141317857Y-83289580D01*
X160517142Y-82154819D02*
X160183809Y-81678628D01*
X159945714Y-82154819D02*
X159945714Y-81154819D01*
X159945714Y-81154819D02*
X160326666Y-81154819D01*
X160326666Y-81154819D02*
X160421904Y-81202438D01*
X160421904Y-81202438D02*
X160469523Y-81250057D01*
X160469523Y-81250057D02*
X160517142Y-81345295D01*
X160517142Y-81345295D02*
X160517142Y-81488152D01*
X160517142Y-81488152D02*
X160469523Y-81583390D01*
X160469523Y-81583390D02*
X160421904Y-81631009D01*
X160421904Y-81631009D02*
X160326666Y-81678628D01*
X160326666Y-81678628D02*
X159945714Y-81678628D01*
X160850476Y-81154819D02*
X161469523Y-81154819D01*
X161469523Y-81154819D02*
X161136190Y-81535771D01*
X161136190Y-81535771D02*
X161279047Y-81535771D01*
X161279047Y-81535771D02*
X161374285Y-81583390D01*
X161374285Y-81583390D02*
X161421904Y-81631009D01*
X161421904Y-81631009D02*
X161469523Y-81726247D01*
X161469523Y-81726247D02*
X161469523Y-81964342D01*
X161469523Y-81964342D02*
X161421904Y-82059580D01*
X161421904Y-82059580D02*
X161374285Y-82107200D01*
X161374285Y-82107200D02*
X161279047Y-82154819D01*
X161279047Y-82154819D02*
X160993333Y-82154819D01*
X160993333Y-82154819D02*
X160898095Y-82107200D01*
X160898095Y-82107200D02*
X160850476Y-82059580D01*
X162421904Y-82154819D02*
X161850476Y-82154819D01*
X162136190Y-82154819D02*
X162136190Y-81154819D01*
X162136190Y-81154819D02*
X162040952Y-81297676D01*
X162040952Y-81297676D02*
X161945714Y-81392914D01*
X161945714Y-81392914D02*
X161850476Y-81440533D01*
X125750892Y-93932119D02*
X125417559Y-93455928D01*
X125179464Y-93932119D02*
X125179464Y-92932119D01*
X125179464Y-92932119D02*
X125560416Y-92932119D01*
X125560416Y-92932119D02*
X125655654Y-92979738D01*
X125655654Y-92979738D02*
X125703273Y-93027357D01*
X125703273Y-93027357D02*
X125750892Y-93122595D01*
X125750892Y-93122595D02*
X125750892Y-93265452D01*
X125750892Y-93265452D02*
X125703273Y-93360690D01*
X125703273Y-93360690D02*
X125655654Y-93408309D01*
X125655654Y-93408309D02*
X125560416Y-93455928D01*
X125560416Y-93455928D02*
X125179464Y-93455928D01*
X126703273Y-93932119D02*
X126131845Y-93932119D01*
X126417559Y-93932119D02*
X126417559Y-92932119D01*
X126417559Y-92932119D02*
X126322321Y-93074976D01*
X126322321Y-93074976D02*
X126227083Y-93170214D01*
X126227083Y-93170214D02*
X126131845Y-93217833D01*
X127655654Y-93932119D02*
X127084226Y-93932119D01*
X127369940Y-93932119D02*
X127369940Y-92932119D01*
X127369940Y-92932119D02*
X127274702Y-93074976D01*
X127274702Y-93074976D02*
X127179464Y-93170214D01*
X127179464Y-93170214D02*
X127084226Y-93217833D01*
X141754819Y-105116666D02*
X141754819Y-105592856D01*
X141754819Y-105592856D02*
X140754819Y-105592856D01*
X141754819Y-104259523D02*
X141754819Y-104830951D01*
X141754819Y-104545237D02*
X140754819Y-104545237D01*
X140754819Y-104545237D02*
X140897676Y-104640475D01*
X140897676Y-104640475D02*
X140992914Y-104735713D01*
X140992914Y-104735713D02*
X141040533Y-104830951D01*
X142032142Y-66524819D02*
X141698809Y-66048628D01*
X141460714Y-66524819D02*
X141460714Y-65524819D01*
X141460714Y-65524819D02*
X141841666Y-65524819D01*
X141841666Y-65524819D02*
X141936904Y-65572438D01*
X141936904Y-65572438D02*
X141984523Y-65620057D01*
X141984523Y-65620057D02*
X142032142Y-65715295D01*
X142032142Y-65715295D02*
X142032142Y-65858152D01*
X142032142Y-65858152D02*
X141984523Y-65953390D01*
X141984523Y-65953390D02*
X141936904Y-66001009D01*
X141936904Y-66001009D02*
X141841666Y-66048628D01*
X141841666Y-66048628D02*
X141460714Y-66048628D01*
X142889285Y-65858152D02*
X142889285Y-66524819D01*
X142651190Y-65477200D02*
X142413095Y-66191485D01*
X142413095Y-66191485D02*
X143032142Y-66191485D01*
X143365476Y-65620057D02*
X143413095Y-65572438D01*
X143413095Y-65572438D02*
X143508333Y-65524819D01*
X143508333Y-65524819D02*
X143746428Y-65524819D01*
X143746428Y-65524819D02*
X143841666Y-65572438D01*
X143841666Y-65572438D02*
X143889285Y-65620057D01*
X143889285Y-65620057D02*
X143936904Y-65715295D01*
X143936904Y-65715295D02*
X143936904Y-65810533D01*
X143936904Y-65810533D02*
X143889285Y-65953390D01*
X143889285Y-65953390D02*
X143317857Y-66524819D01*
X143317857Y-66524819D02*
X143936904Y-66524819D01*
X153289580Y-107941666D02*
X153337200Y-107989285D01*
X153337200Y-107989285D02*
X153384819Y-108132142D01*
X153384819Y-108132142D02*
X153384819Y-108227380D01*
X153384819Y-108227380D02*
X153337200Y-108370237D01*
X153337200Y-108370237D02*
X153241961Y-108465475D01*
X153241961Y-108465475D02*
X153146723Y-108513094D01*
X153146723Y-108513094D02*
X152956247Y-108560713D01*
X152956247Y-108560713D02*
X152813390Y-108560713D01*
X152813390Y-108560713D02*
X152622914Y-108513094D01*
X152622914Y-108513094D02*
X152527676Y-108465475D01*
X152527676Y-108465475D02*
X152432438Y-108370237D01*
X152432438Y-108370237D02*
X152384819Y-108227380D01*
X152384819Y-108227380D02*
X152384819Y-108132142D01*
X152384819Y-108132142D02*
X152432438Y-107989285D01*
X152432438Y-107989285D02*
X152480057Y-107941666D01*
X152384819Y-107084523D02*
X152384819Y-107274999D01*
X152384819Y-107274999D02*
X152432438Y-107370237D01*
X152432438Y-107370237D02*
X152480057Y-107417856D01*
X152480057Y-107417856D02*
X152622914Y-107513094D01*
X152622914Y-107513094D02*
X152813390Y-107560713D01*
X152813390Y-107560713D02*
X153194342Y-107560713D01*
X153194342Y-107560713D02*
X153289580Y-107513094D01*
X153289580Y-107513094D02*
X153337200Y-107465475D01*
X153337200Y-107465475D02*
X153384819Y-107370237D01*
X153384819Y-107370237D02*
X153384819Y-107179761D01*
X153384819Y-107179761D02*
X153337200Y-107084523D01*
X153337200Y-107084523D02*
X153289580Y-107036904D01*
X153289580Y-107036904D02*
X153194342Y-106989285D01*
X153194342Y-106989285D02*
X152956247Y-106989285D01*
X152956247Y-106989285D02*
X152861009Y-107036904D01*
X152861009Y-107036904D02*
X152813390Y-107084523D01*
X152813390Y-107084523D02*
X152765771Y-107179761D01*
X152765771Y-107179761D02*
X152765771Y-107370237D01*
X152765771Y-107370237D02*
X152813390Y-107465475D01*
X152813390Y-107465475D02*
X152861009Y-107513094D01*
X152861009Y-107513094D02*
X152956247Y-107560713D01*
X135039580Y-100121607D02*
X135087200Y-100169226D01*
X135087200Y-100169226D02*
X135134819Y-100312083D01*
X135134819Y-100312083D02*
X135134819Y-100407321D01*
X135134819Y-100407321D02*
X135087200Y-100550178D01*
X135087200Y-100550178D02*
X134991961Y-100645416D01*
X134991961Y-100645416D02*
X134896723Y-100693035D01*
X134896723Y-100693035D02*
X134706247Y-100740654D01*
X134706247Y-100740654D02*
X134563390Y-100740654D01*
X134563390Y-100740654D02*
X134372914Y-100693035D01*
X134372914Y-100693035D02*
X134277676Y-100645416D01*
X134277676Y-100645416D02*
X134182438Y-100550178D01*
X134182438Y-100550178D02*
X134134819Y-100407321D01*
X134134819Y-100407321D02*
X134134819Y-100312083D01*
X134134819Y-100312083D02*
X134182438Y-100169226D01*
X134182438Y-100169226D02*
X134230057Y-100121607D01*
X135134819Y-99169226D02*
X135134819Y-99740654D01*
X135134819Y-99454940D02*
X134134819Y-99454940D01*
X134134819Y-99454940D02*
X134277676Y-99550178D01*
X134277676Y-99550178D02*
X134372914Y-99645416D01*
X134372914Y-99645416D02*
X134420533Y-99740654D01*
X134230057Y-98788273D02*
X134182438Y-98740654D01*
X134182438Y-98740654D02*
X134134819Y-98645416D01*
X134134819Y-98645416D02*
X134134819Y-98407321D01*
X134134819Y-98407321D02*
X134182438Y-98312083D01*
X134182438Y-98312083D02*
X134230057Y-98264464D01*
X134230057Y-98264464D02*
X134325295Y-98216845D01*
X134325295Y-98216845D02*
X134420533Y-98216845D01*
X134420533Y-98216845D02*
X134563390Y-98264464D01*
X134563390Y-98264464D02*
X135134819Y-98835892D01*
X135134819Y-98835892D02*
X135134819Y-98216845D01*
X120136069Y-88825157D02*
X119659878Y-89158490D01*
X120136069Y-89396585D02*
X119136069Y-89396585D01*
X119136069Y-89396585D02*
X119136069Y-89015633D01*
X119136069Y-89015633D02*
X119183688Y-88920395D01*
X119183688Y-88920395D02*
X119231307Y-88872776D01*
X119231307Y-88872776D02*
X119326545Y-88825157D01*
X119326545Y-88825157D02*
X119469402Y-88825157D01*
X119469402Y-88825157D02*
X119564640Y-88872776D01*
X119564640Y-88872776D02*
X119612259Y-88920395D01*
X119612259Y-88920395D02*
X119659878Y-89015633D01*
X119659878Y-89015633D02*
X119659878Y-89396585D01*
X120136069Y-87872776D02*
X120136069Y-88444204D01*
X120136069Y-88158490D02*
X119136069Y-88158490D01*
X119136069Y-88158490D02*
X119278926Y-88253728D01*
X119278926Y-88253728D02*
X119374164Y-88348966D01*
X119374164Y-88348966D02*
X119421783Y-88444204D01*
X119136069Y-87015633D02*
X119136069Y-87206109D01*
X119136069Y-87206109D02*
X119183688Y-87301347D01*
X119183688Y-87301347D02*
X119231307Y-87348966D01*
X119231307Y-87348966D02*
X119374164Y-87444204D01*
X119374164Y-87444204D02*
X119564640Y-87491823D01*
X119564640Y-87491823D02*
X119945592Y-87491823D01*
X119945592Y-87491823D02*
X120040830Y-87444204D01*
X120040830Y-87444204D02*
X120088450Y-87396585D01*
X120088450Y-87396585D02*
X120136069Y-87301347D01*
X120136069Y-87301347D02*
X120136069Y-87110871D01*
X120136069Y-87110871D02*
X120088450Y-87015633D01*
X120088450Y-87015633D02*
X120040830Y-86968014D01*
X120040830Y-86968014D02*
X119945592Y-86920395D01*
X119945592Y-86920395D02*
X119707497Y-86920395D01*
X119707497Y-86920395D02*
X119612259Y-86968014D01*
X119612259Y-86968014D02*
X119564640Y-87015633D01*
X119564640Y-87015633D02*
X119517021Y-87110871D01*
X119517021Y-87110871D02*
X119517021Y-87301347D01*
X119517021Y-87301347D02*
X119564640Y-87396585D01*
X119564640Y-87396585D02*
X119612259Y-87444204D01*
X119612259Y-87444204D02*
X119707497Y-87491823D01*
X155132142Y-83904819D02*
X154798809Y-83428628D01*
X154560714Y-83904819D02*
X154560714Y-82904819D01*
X154560714Y-82904819D02*
X154941666Y-82904819D01*
X154941666Y-82904819D02*
X155036904Y-82952438D01*
X155036904Y-82952438D02*
X155084523Y-83000057D01*
X155084523Y-83000057D02*
X155132142Y-83095295D01*
X155132142Y-83095295D02*
X155132142Y-83238152D01*
X155132142Y-83238152D02*
X155084523Y-83333390D01*
X155084523Y-83333390D02*
X155036904Y-83381009D01*
X155036904Y-83381009D02*
X154941666Y-83428628D01*
X154941666Y-83428628D02*
X154560714Y-83428628D01*
X155513095Y-83000057D02*
X155560714Y-82952438D01*
X155560714Y-82952438D02*
X155655952Y-82904819D01*
X155655952Y-82904819D02*
X155894047Y-82904819D01*
X155894047Y-82904819D02*
X155989285Y-82952438D01*
X155989285Y-82952438D02*
X156036904Y-83000057D01*
X156036904Y-83000057D02*
X156084523Y-83095295D01*
X156084523Y-83095295D02*
X156084523Y-83190533D01*
X156084523Y-83190533D02*
X156036904Y-83333390D01*
X156036904Y-83333390D02*
X155465476Y-83904819D01*
X155465476Y-83904819D02*
X156084523Y-83904819D01*
X156941666Y-82904819D02*
X156751190Y-82904819D01*
X156751190Y-82904819D02*
X156655952Y-82952438D01*
X156655952Y-82952438D02*
X156608333Y-83000057D01*
X156608333Y-83000057D02*
X156513095Y-83142914D01*
X156513095Y-83142914D02*
X156465476Y-83333390D01*
X156465476Y-83333390D02*
X156465476Y-83714342D01*
X156465476Y-83714342D02*
X156513095Y-83809580D01*
X156513095Y-83809580D02*
X156560714Y-83857200D01*
X156560714Y-83857200D02*
X156655952Y-83904819D01*
X156655952Y-83904819D02*
X156846428Y-83904819D01*
X156846428Y-83904819D02*
X156941666Y-83857200D01*
X156941666Y-83857200D02*
X156989285Y-83809580D01*
X156989285Y-83809580D02*
X157036904Y-83714342D01*
X157036904Y-83714342D02*
X157036904Y-83476247D01*
X157036904Y-83476247D02*
X156989285Y-83381009D01*
X156989285Y-83381009D02*
X156941666Y-83333390D01*
X156941666Y-83333390D02*
X156846428Y-83285771D01*
X156846428Y-83285771D02*
X156655952Y-83285771D01*
X156655952Y-83285771D02*
X156560714Y-83333390D01*
X156560714Y-83333390D02*
X156513095Y-83381009D01*
X156513095Y-83381009D02*
X156465476Y-83476247D01*
X137032142Y-84884819D02*
X136698809Y-84408628D01*
X136460714Y-84884819D02*
X136460714Y-83884819D01*
X136460714Y-83884819D02*
X136841666Y-83884819D01*
X136841666Y-83884819D02*
X136936904Y-83932438D01*
X136936904Y-83932438D02*
X136984523Y-83980057D01*
X136984523Y-83980057D02*
X137032142Y-84075295D01*
X137032142Y-84075295D02*
X137032142Y-84218152D01*
X137032142Y-84218152D02*
X136984523Y-84313390D01*
X136984523Y-84313390D02*
X136936904Y-84361009D01*
X136936904Y-84361009D02*
X136841666Y-84408628D01*
X136841666Y-84408628D02*
X136460714Y-84408628D01*
X137413095Y-83980057D02*
X137460714Y-83932438D01*
X137460714Y-83932438D02*
X137555952Y-83884819D01*
X137555952Y-83884819D02*
X137794047Y-83884819D01*
X137794047Y-83884819D02*
X137889285Y-83932438D01*
X137889285Y-83932438D02*
X137936904Y-83980057D01*
X137936904Y-83980057D02*
X137984523Y-84075295D01*
X137984523Y-84075295D02*
X137984523Y-84170533D01*
X137984523Y-84170533D02*
X137936904Y-84313390D01*
X137936904Y-84313390D02*
X137365476Y-84884819D01*
X137365476Y-84884819D02*
X137984523Y-84884819D01*
X138365476Y-83980057D02*
X138413095Y-83932438D01*
X138413095Y-83932438D02*
X138508333Y-83884819D01*
X138508333Y-83884819D02*
X138746428Y-83884819D01*
X138746428Y-83884819D02*
X138841666Y-83932438D01*
X138841666Y-83932438D02*
X138889285Y-83980057D01*
X138889285Y-83980057D02*
X138936904Y-84075295D01*
X138936904Y-84075295D02*
X138936904Y-84170533D01*
X138936904Y-84170533D02*
X138889285Y-84313390D01*
X138889285Y-84313390D02*
X138317857Y-84884819D01*
X138317857Y-84884819D02*
X138936904Y-84884819D01*
X153109580Y-101416666D02*
X153157200Y-101464285D01*
X153157200Y-101464285D02*
X153204819Y-101607142D01*
X153204819Y-101607142D02*
X153204819Y-101702380D01*
X153204819Y-101702380D02*
X153157200Y-101845237D01*
X153157200Y-101845237D02*
X153061961Y-101940475D01*
X153061961Y-101940475D02*
X152966723Y-101988094D01*
X152966723Y-101988094D02*
X152776247Y-102035713D01*
X152776247Y-102035713D02*
X152633390Y-102035713D01*
X152633390Y-102035713D02*
X152442914Y-101988094D01*
X152442914Y-101988094D02*
X152347676Y-101940475D01*
X152347676Y-101940475D02*
X152252438Y-101845237D01*
X152252438Y-101845237D02*
X152204819Y-101702380D01*
X152204819Y-101702380D02*
X152204819Y-101607142D01*
X152204819Y-101607142D02*
X152252438Y-101464285D01*
X152252438Y-101464285D02*
X152300057Y-101416666D01*
X153204819Y-100940475D02*
X153204819Y-100749999D01*
X153204819Y-100749999D02*
X153157200Y-100654761D01*
X153157200Y-100654761D02*
X153109580Y-100607142D01*
X153109580Y-100607142D02*
X152966723Y-100511904D01*
X152966723Y-100511904D02*
X152776247Y-100464285D01*
X152776247Y-100464285D02*
X152395295Y-100464285D01*
X152395295Y-100464285D02*
X152300057Y-100511904D01*
X152300057Y-100511904D02*
X152252438Y-100559523D01*
X152252438Y-100559523D02*
X152204819Y-100654761D01*
X152204819Y-100654761D02*
X152204819Y-100845237D01*
X152204819Y-100845237D02*
X152252438Y-100940475D01*
X152252438Y-100940475D02*
X152300057Y-100988094D01*
X152300057Y-100988094D02*
X152395295Y-101035713D01*
X152395295Y-101035713D02*
X152633390Y-101035713D01*
X152633390Y-101035713D02*
X152728628Y-100988094D01*
X152728628Y-100988094D02*
X152776247Y-100940475D01*
X152776247Y-100940475D02*
X152823866Y-100845237D01*
X152823866Y-100845237D02*
X152823866Y-100654761D01*
X152823866Y-100654761D02*
X152776247Y-100559523D01*
X152776247Y-100559523D02*
X152728628Y-100511904D01*
X152728628Y-100511904D02*
X152633390Y-100464285D01*
X118357142Y-104954819D02*
X118023809Y-104478628D01*
X117785714Y-104954819D02*
X117785714Y-103954819D01*
X117785714Y-103954819D02*
X118166666Y-103954819D01*
X118166666Y-103954819D02*
X118261904Y-104002438D01*
X118261904Y-104002438D02*
X118309523Y-104050057D01*
X118309523Y-104050057D02*
X118357142Y-104145295D01*
X118357142Y-104145295D02*
X118357142Y-104288152D01*
X118357142Y-104288152D02*
X118309523Y-104383390D01*
X118309523Y-104383390D02*
X118261904Y-104431009D01*
X118261904Y-104431009D02*
X118166666Y-104478628D01*
X118166666Y-104478628D02*
X117785714Y-104478628D01*
X118690476Y-103954819D02*
X119309523Y-103954819D01*
X119309523Y-103954819D02*
X118976190Y-104335771D01*
X118976190Y-104335771D02*
X119119047Y-104335771D01*
X119119047Y-104335771D02*
X119214285Y-104383390D01*
X119214285Y-104383390D02*
X119261904Y-104431009D01*
X119261904Y-104431009D02*
X119309523Y-104526247D01*
X119309523Y-104526247D02*
X119309523Y-104764342D01*
X119309523Y-104764342D02*
X119261904Y-104859580D01*
X119261904Y-104859580D02*
X119214285Y-104907200D01*
X119214285Y-104907200D02*
X119119047Y-104954819D01*
X119119047Y-104954819D02*
X118833333Y-104954819D01*
X118833333Y-104954819D02*
X118738095Y-104907200D01*
X118738095Y-104907200D02*
X118690476Y-104859580D01*
X120166666Y-103954819D02*
X119976190Y-103954819D01*
X119976190Y-103954819D02*
X119880952Y-104002438D01*
X119880952Y-104002438D02*
X119833333Y-104050057D01*
X119833333Y-104050057D02*
X119738095Y-104192914D01*
X119738095Y-104192914D02*
X119690476Y-104383390D01*
X119690476Y-104383390D02*
X119690476Y-104764342D01*
X119690476Y-104764342D02*
X119738095Y-104859580D01*
X119738095Y-104859580D02*
X119785714Y-104907200D01*
X119785714Y-104907200D02*
X119880952Y-104954819D01*
X119880952Y-104954819D02*
X120071428Y-104954819D01*
X120071428Y-104954819D02*
X120166666Y-104907200D01*
X120166666Y-104907200D02*
X120214285Y-104859580D01*
X120214285Y-104859580D02*
X120261904Y-104764342D01*
X120261904Y-104764342D02*
X120261904Y-104526247D01*
X120261904Y-104526247D02*
X120214285Y-104431009D01*
X120214285Y-104431009D02*
X120166666Y-104383390D01*
X120166666Y-104383390D02*
X120071428Y-104335771D01*
X120071428Y-104335771D02*
X119880952Y-104335771D01*
X119880952Y-104335771D02*
X119785714Y-104383390D01*
X119785714Y-104383390D02*
X119738095Y-104431009D01*
X119738095Y-104431009D02*
X119690476Y-104526247D01*
X151789580Y-100367857D02*
X151837200Y-100415476D01*
X151837200Y-100415476D02*
X151884819Y-100558333D01*
X151884819Y-100558333D02*
X151884819Y-100653571D01*
X151884819Y-100653571D02*
X151837200Y-100796428D01*
X151837200Y-100796428D02*
X151741961Y-100891666D01*
X151741961Y-100891666D02*
X151646723Y-100939285D01*
X151646723Y-100939285D02*
X151456247Y-100986904D01*
X151456247Y-100986904D02*
X151313390Y-100986904D01*
X151313390Y-100986904D02*
X151122914Y-100939285D01*
X151122914Y-100939285D02*
X151027676Y-100891666D01*
X151027676Y-100891666D02*
X150932438Y-100796428D01*
X150932438Y-100796428D02*
X150884819Y-100653571D01*
X150884819Y-100653571D02*
X150884819Y-100558333D01*
X150884819Y-100558333D02*
X150932438Y-100415476D01*
X150932438Y-100415476D02*
X150980057Y-100367857D01*
X151884819Y-99415476D02*
X151884819Y-99986904D01*
X151884819Y-99701190D02*
X150884819Y-99701190D01*
X150884819Y-99701190D02*
X151027676Y-99796428D01*
X151027676Y-99796428D02*
X151122914Y-99891666D01*
X151122914Y-99891666D02*
X151170533Y-99986904D01*
X150884819Y-98796428D02*
X150884819Y-98701190D01*
X150884819Y-98701190D02*
X150932438Y-98605952D01*
X150932438Y-98605952D02*
X150980057Y-98558333D01*
X150980057Y-98558333D02*
X151075295Y-98510714D01*
X151075295Y-98510714D02*
X151265771Y-98463095D01*
X151265771Y-98463095D02*
X151503866Y-98463095D01*
X151503866Y-98463095D02*
X151694342Y-98510714D01*
X151694342Y-98510714D02*
X151789580Y-98558333D01*
X151789580Y-98558333D02*
X151837200Y-98605952D01*
X151837200Y-98605952D02*
X151884819Y-98701190D01*
X151884819Y-98701190D02*
X151884819Y-98796428D01*
X151884819Y-98796428D02*
X151837200Y-98891666D01*
X151837200Y-98891666D02*
X151789580Y-98939285D01*
X151789580Y-98939285D02*
X151694342Y-98986904D01*
X151694342Y-98986904D02*
X151503866Y-99034523D01*
X151503866Y-99034523D02*
X151265771Y-99034523D01*
X151265771Y-99034523D02*
X151075295Y-98986904D01*
X151075295Y-98986904D02*
X150980057Y-98939285D01*
X150980057Y-98939285D02*
X150932438Y-98891666D01*
X150932438Y-98891666D02*
X150884819Y-98796428D01*
X124182142Y-98024819D02*
X123848809Y-97548628D01*
X123610714Y-98024819D02*
X123610714Y-97024819D01*
X123610714Y-97024819D02*
X123991666Y-97024819D01*
X123991666Y-97024819D02*
X124086904Y-97072438D01*
X124086904Y-97072438D02*
X124134523Y-97120057D01*
X124134523Y-97120057D02*
X124182142Y-97215295D01*
X124182142Y-97215295D02*
X124182142Y-97358152D01*
X124182142Y-97358152D02*
X124134523Y-97453390D01*
X124134523Y-97453390D02*
X124086904Y-97501009D01*
X124086904Y-97501009D02*
X123991666Y-97548628D01*
X123991666Y-97548628D02*
X123610714Y-97548628D01*
X125134523Y-98024819D02*
X124563095Y-98024819D01*
X124848809Y-98024819D02*
X124848809Y-97024819D01*
X124848809Y-97024819D02*
X124753571Y-97167676D01*
X124753571Y-97167676D02*
X124658333Y-97262914D01*
X124658333Y-97262914D02*
X124563095Y-97310533D01*
X125991666Y-97358152D02*
X125991666Y-98024819D01*
X125753571Y-96977200D02*
X125515476Y-97691485D01*
X125515476Y-97691485D02*
X126134523Y-97691485D01*
X122996069Y-92175157D02*
X122519878Y-92508490D01*
X122996069Y-92746585D02*
X121996069Y-92746585D01*
X121996069Y-92746585D02*
X121996069Y-92365633D01*
X121996069Y-92365633D02*
X122043688Y-92270395D01*
X122043688Y-92270395D02*
X122091307Y-92222776D01*
X122091307Y-92222776D02*
X122186545Y-92175157D01*
X122186545Y-92175157D02*
X122329402Y-92175157D01*
X122329402Y-92175157D02*
X122424640Y-92222776D01*
X122424640Y-92222776D02*
X122472259Y-92270395D01*
X122472259Y-92270395D02*
X122519878Y-92365633D01*
X122519878Y-92365633D02*
X122519878Y-92746585D01*
X122996069Y-91222776D02*
X122996069Y-91794204D01*
X122996069Y-91508490D02*
X121996069Y-91508490D01*
X121996069Y-91508490D02*
X122138926Y-91603728D01*
X122138926Y-91603728D02*
X122234164Y-91698966D01*
X122234164Y-91698966D02*
X122281783Y-91794204D01*
X122091307Y-90841823D02*
X122043688Y-90794204D01*
X122043688Y-90794204D02*
X121996069Y-90698966D01*
X121996069Y-90698966D02*
X121996069Y-90460871D01*
X121996069Y-90460871D02*
X122043688Y-90365633D01*
X122043688Y-90365633D02*
X122091307Y-90318014D01*
X122091307Y-90318014D02*
X122186545Y-90270395D01*
X122186545Y-90270395D02*
X122281783Y-90270395D01*
X122281783Y-90270395D02*
X122424640Y-90318014D01*
X122424640Y-90318014D02*
X122996069Y-90889442D01*
X122996069Y-90889442D02*
X122996069Y-90270395D01*
X140261905Y-110954819D02*
X140261905Y-109954819D01*
X140261905Y-109954819D02*
X140500000Y-109954819D01*
X140500000Y-109954819D02*
X140642857Y-110002438D01*
X140642857Y-110002438D02*
X140738095Y-110097676D01*
X140738095Y-110097676D02*
X140785714Y-110192914D01*
X140785714Y-110192914D02*
X140833333Y-110383390D01*
X140833333Y-110383390D02*
X140833333Y-110526247D01*
X140833333Y-110526247D02*
X140785714Y-110716723D01*
X140785714Y-110716723D02*
X140738095Y-110811961D01*
X140738095Y-110811961D02*
X140642857Y-110907200D01*
X140642857Y-110907200D02*
X140500000Y-110954819D01*
X140500000Y-110954819D02*
X140261905Y-110954819D01*
X141785714Y-110954819D02*
X141214286Y-110954819D01*
X141500000Y-110954819D02*
X141500000Y-109954819D01*
X141500000Y-109954819D02*
X141404762Y-110097676D01*
X141404762Y-110097676D02*
X141309524Y-110192914D01*
X141309524Y-110192914D02*
X141214286Y-110240533D01*
X147829819Y-91124404D02*
X148639342Y-91124404D01*
X148639342Y-91124404D02*
X148734580Y-91076785D01*
X148734580Y-91076785D02*
X148782200Y-91029166D01*
X148782200Y-91029166D02*
X148829819Y-90933928D01*
X148829819Y-90933928D02*
X148829819Y-90743452D01*
X148829819Y-90743452D02*
X148782200Y-90648214D01*
X148782200Y-90648214D02*
X148734580Y-90600595D01*
X148734580Y-90600595D02*
X148639342Y-90552976D01*
X148639342Y-90552976D02*
X147829819Y-90552976D01*
X147829819Y-90172023D02*
X147829819Y-89552976D01*
X147829819Y-89552976D02*
X148210771Y-89886309D01*
X148210771Y-89886309D02*
X148210771Y-89743452D01*
X148210771Y-89743452D02*
X148258390Y-89648214D01*
X148258390Y-89648214D02*
X148306009Y-89600595D01*
X148306009Y-89600595D02*
X148401247Y-89552976D01*
X148401247Y-89552976D02*
X148639342Y-89552976D01*
X148639342Y-89552976D02*
X148734580Y-89600595D01*
X148734580Y-89600595D02*
X148782200Y-89648214D01*
X148782200Y-89648214D02*
X148829819Y-89743452D01*
X148829819Y-89743452D02*
X148829819Y-90029166D01*
X148829819Y-90029166D02*
X148782200Y-90124404D01*
X148782200Y-90124404D02*
X148734580Y-90172023D01*
X119367142Y-103954819D02*
X119033809Y-103478628D01*
X118795714Y-103954819D02*
X118795714Y-102954819D01*
X118795714Y-102954819D02*
X119176666Y-102954819D01*
X119176666Y-102954819D02*
X119271904Y-103002438D01*
X119271904Y-103002438D02*
X119319523Y-103050057D01*
X119319523Y-103050057D02*
X119367142Y-103145295D01*
X119367142Y-103145295D02*
X119367142Y-103288152D01*
X119367142Y-103288152D02*
X119319523Y-103383390D01*
X119319523Y-103383390D02*
X119271904Y-103431009D01*
X119271904Y-103431009D02*
X119176666Y-103478628D01*
X119176666Y-103478628D02*
X118795714Y-103478628D01*
X119700476Y-102954819D02*
X120319523Y-102954819D01*
X120319523Y-102954819D02*
X119986190Y-103335771D01*
X119986190Y-103335771D02*
X120129047Y-103335771D01*
X120129047Y-103335771D02*
X120224285Y-103383390D01*
X120224285Y-103383390D02*
X120271904Y-103431009D01*
X120271904Y-103431009D02*
X120319523Y-103526247D01*
X120319523Y-103526247D02*
X120319523Y-103764342D01*
X120319523Y-103764342D02*
X120271904Y-103859580D01*
X120271904Y-103859580D02*
X120224285Y-103907200D01*
X120224285Y-103907200D02*
X120129047Y-103954819D01*
X120129047Y-103954819D02*
X119843333Y-103954819D01*
X119843333Y-103954819D02*
X119748095Y-103907200D01*
X119748095Y-103907200D02*
X119700476Y-103859580D01*
X120652857Y-102954819D02*
X121319523Y-102954819D01*
X121319523Y-102954819D02*
X120890952Y-103954819D01*
X124608333Y-95429580D02*
X124560714Y-95477200D01*
X124560714Y-95477200D02*
X124417857Y-95524819D01*
X124417857Y-95524819D02*
X124322619Y-95524819D01*
X124322619Y-95524819D02*
X124179762Y-95477200D01*
X124179762Y-95477200D02*
X124084524Y-95381961D01*
X124084524Y-95381961D02*
X124036905Y-95286723D01*
X124036905Y-95286723D02*
X123989286Y-95096247D01*
X123989286Y-95096247D02*
X123989286Y-94953390D01*
X123989286Y-94953390D02*
X124036905Y-94762914D01*
X124036905Y-94762914D02*
X124084524Y-94667676D01*
X124084524Y-94667676D02*
X124179762Y-94572438D01*
X124179762Y-94572438D02*
X124322619Y-94524819D01*
X124322619Y-94524819D02*
X124417857Y-94524819D01*
X124417857Y-94524819D02*
X124560714Y-94572438D01*
X124560714Y-94572438D02*
X124608333Y-94620057D01*
X125465476Y-94858152D02*
X125465476Y-95524819D01*
X125227381Y-94477200D02*
X124989286Y-95191485D01*
X124989286Y-95191485D02*
X125608333Y-95191485D01*
X150082142Y-105884819D02*
X149748809Y-105408628D01*
X149510714Y-105884819D02*
X149510714Y-104884819D01*
X149510714Y-104884819D02*
X149891666Y-104884819D01*
X149891666Y-104884819D02*
X149986904Y-104932438D01*
X149986904Y-104932438D02*
X150034523Y-104980057D01*
X150034523Y-104980057D02*
X150082142Y-105075295D01*
X150082142Y-105075295D02*
X150082142Y-105218152D01*
X150082142Y-105218152D02*
X150034523Y-105313390D01*
X150034523Y-105313390D02*
X149986904Y-105361009D01*
X149986904Y-105361009D02*
X149891666Y-105408628D01*
X149891666Y-105408628D02*
X149510714Y-105408628D01*
X151034523Y-105884819D02*
X150463095Y-105884819D01*
X150748809Y-105884819D02*
X150748809Y-104884819D01*
X150748809Y-104884819D02*
X150653571Y-105027676D01*
X150653571Y-105027676D02*
X150558333Y-105122914D01*
X150558333Y-105122914D02*
X150463095Y-105170533D01*
X151510714Y-105884819D02*
X151701190Y-105884819D01*
X151701190Y-105884819D02*
X151796428Y-105837200D01*
X151796428Y-105837200D02*
X151844047Y-105789580D01*
X151844047Y-105789580D02*
X151939285Y-105646723D01*
X151939285Y-105646723D02*
X151986904Y-105456247D01*
X151986904Y-105456247D02*
X151986904Y-105075295D01*
X151986904Y-105075295D02*
X151939285Y-104980057D01*
X151939285Y-104980057D02*
X151891666Y-104932438D01*
X151891666Y-104932438D02*
X151796428Y-104884819D01*
X151796428Y-104884819D02*
X151605952Y-104884819D01*
X151605952Y-104884819D02*
X151510714Y-104932438D01*
X151510714Y-104932438D02*
X151463095Y-104980057D01*
X151463095Y-104980057D02*
X151415476Y-105075295D01*
X151415476Y-105075295D02*
X151415476Y-105313390D01*
X151415476Y-105313390D02*
X151463095Y-105408628D01*
X151463095Y-105408628D02*
X151510714Y-105456247D01*
X151510714Y-105456247D02*
X151605952Y-105503866D01*
X151605952Y-105503866D02*
X151796428Y-105503866D01*
X151796428Y-105503866D02*
X151891666Y-105456247D01*
X151891666Y-105456247D02*
X151939285Y-105408628D01*
X151939285Y-105408628D02*
X151986904Y-105313390D01*
X129857142Y-67024819D02*
X129523809Y-66548628D01*
X129285714Y-67024819D02*
X129285714Y-66024819D01*
X129285714Y-66024819D02*
X129666666Y-66024819D01*
X129666666Y-66024819D02*
X129761904Y-66072438D01*
X129761904Y-66072438D02*
X129809523Y-66120057D01*
X129809523Y-66120057D02*
X129857142Y-66215295D01*
X129857142Y-66215295D02*
X129857142Y-66358152D01*
X129857142Y-66358152D02*
X129809523Y-66453390D01*
X129809523Y-66453390D02*
X129761904Y-66501009D01*
X129761904Y-66501009D02*
X129666666Y-66548628D01*
X129666666Y-66548628D02*
X129285714Y-66548628D01*
X130714285Y-66358152D02*
X130714285Y-67024819D01*
X130476190Y-65977200D02*
X130238095Y-66691485D01*
X130238095Y-66691485D02*
X130857142Y-66691485D01*
X131761904Y-67024819D02*
X131190476Y-67024819D01*
X131476190Y-67024819D02*
X131476190Y-66024819D01*
X131476190Y-66024819D02*
X131380952Y-66167676D01*
X131380952Y-66167676D02*
X131285714Y-66262914D01*
X131285714Y-66262914D02*
X131190476Y-66310533D01*
X125127083Y-84336880D02*
X125079464Y-84384500D01*
X125079464Y-84384500D02*
X124936607Y-84432119D01*
X124936607Y-84432119D02*
X124841369Y-84432119D01*
X124841369Y-84432119D02*
X124698512Y-84384500D01*
X124698512Y-84384500D02*
X124603274Y-84289261D01*
X124603274Y-84289261D02*
X124555655Y-84194023D01*
X124555655Y-84194023D02*
X124508036Y-84003547D01*
X124508036Y-84003547D02*
X124508036Y-83860690D01*
X124508036Y-83860690D02*
X124555655Y-83670214D01*
X124555655Y-83670214D02*
X124603274Y-83574976D01*
X124603274Y-83574976D02*
X124698512Y-83479738D01*
X124698512Y-83479738D02*
X124841369Y-83432119D01*
X124841369Y-83432119D02*
X124936607Y-83432119D01*
X124936607Y-83432119D02*
X125079464Y-83479738D01*
X125079464Y-83479738D02*
X125127083Y-83527357D01*
X125460417Y-83432119D02*
X126079464Y-83432119D01*
X126079464Y-83432119D02*
X125746131Y-83813071D01*
X125746131Y-83813071D02*
X125888988Y-83813071D01*
X125888988Y-83813071D02*
X125984226Y-83860690D01*
X125984226Y-83860690D02*
X126031845Y-83908309D01*
X126031845Y-83908309D02*
X126079464Y-84003547D01*
X126079464Y-84003547D02*
X126079464Y-84241642D01*
X126079464Y-84241642D02*
X126031845Y-84336880D01*
X126031845Y-84336880D02*
X125984226Y-84384500D01*
X125984226Y-84384500D02*
X125888988Y-84432119D01*
X125888988Y-84432119D02*
X125603274Y-84432119D01*
X125603274Y-84432119D02*
X125508036Y-84384500D01*
X125508036Y-84384500D02*
X125460417Y-84336880D01*
X152014580Y-85642857D02*
X152062200Y-85690476D01*
X152062200Y-85690476D02*
X152109819Y-85833333D01*
X152109819Y-85833333D02*
X152109819Y-85928571D01*
X152109819Y-85928571D02*
X152062200Y-86071428D01*
X152062200Y-86071428D02*
X151966961Y-86166666D01*
X151966961Y-86166666D02*
X151871723Y-86214285D01*
X151871723Y-86214285D02*
X151681247Y-86261904D01*
X151681247Y-86261904D02*
X151538390Y-86261904D01*
X151538390Y-86261904D02*
X151347914Y-86214285D01*
X151347914Y-86214285D02*
X151252676Y-86166666D01*
X151252676Y-86166666D02*
X151157438Y-86071428D01*
X151157438Y-86071428D02*
X151109819Y-85928571D01*
X151109819Y-85928571D02*
X151109819Y-85833333D01*
X151109819Y-85833333D02*
X151157438Y-85690476D01*
X151157438Y-85690476D02*
X151205057Y-85642857D01*
X152109819Y-84690476D02*
X152109819Y-85261904D01*
X152109819Y-84976190D02*
X151109819Y-84976190D01*
X151109819Y-84976190D02*
X151252676Y-85071428D01*
X151252676Y-85071428D02*
X151347914Y-85166666D01*
X151347914Y-85166666D02*
X151395533Y-85261904D01*
X151109819Y-83833333D02*
X151109819Y-84023809D01*
X151109819Y-84023809D02*
X151157438Y-84119047D01*
X151157438Y-84119047D02*
X151205057Y-84166666D01*
X151205057Y-84166666D02*
X151347914Y-84261904D01*
X151347914Y-84261904D02*
X151538390Y-84309523D01*
X151538390Y-84309523D02*
X151919342Y-84309523D01*
X151919342Y-84309523D02*
X152014580Y-84261904D01*
X152014580Y-84261904D02*
X152062200Y-84214285D01*
X152062200Y-84214285D02*
X152109819Y-84119047D01*
X152109819Y-84119047D02*
X152109819Y-83928571D01*
X152109819Y-83928571D02*
X152062200Y-83833333D01*
X152062200Y-83833333D02*
X152014580Y-83785714D01*
X152014580Y-83785714D02*
X151919342Y-83738095D01*
X151919342Y-83738095D02*
X151681247Y-83738095D01*
X151681247Y-83738095D02*
X151586009Y-83785714D01*
X151586009Y-83785714D02*
X151538390Y-83833333D01*
X151538390Y-83833333D02*
X151490771Y-83928571D01*
X151490771Y-83928571D02*
X151490771Y-84119047D01*
X151490771Y-84119047D02*
X151538390Y-84214285D01*
X151538390Y-84214285D02*
X151586009Y-84261904D01*
X151586009Y-84261904D02*
X151681247Y-84309523D01*
X152857142Y-66524819D02*
X152523809Y-66048628D01*
X152285714Y-66524819D02*
X152285714Y-65524819D01*
X152285714Y-65524819D02*
X152666666Y-65524819D01*
X152666666Y-65524819D02*
X152761904Y-65572438D01*
X152761904Y-65572438D02*
X152809523Y-65620057D01*
X152809523Y-65620057D02*
X152857142Y-65715295D01*
X152857142Y-65715295D02*
X152857142Y-65858152D01*
X152857142Y-65858152D02*
X152809523Y-65953390D01*
X152809523Y-65953390D02*
X152761904Y-66001009D01*
X152761904Y-66001009D02*
X152666666Y-66048628D01*
X152666666Y-66048628D02*
X152285714Y-66048628D01*
X153714285Y-65858152D02*
X153714285Y-66524819D01*
X153476190Y-65477200D02*
X153238095Y-66191485D01*
X153238095Y-66191485D02*
X153857142Y-66191485D01*
X154142857Y-65524819D02*
X154761904Y-65524819D01*
X154761904Y-65524819D02*
X154428571Y-65905771D01*
X154428571Y-65905771D02*
X154571428Y-65905771D01*
X154571428Y-65905771D02*
X154666666Y-65953390D01*
X154666666Y-65953390D02*
X154714285Y-66001009D01*
X154714285Y-66001009D02*
X154761904Y-66096247D01*
X154761904Y-66096247D02*
X154761904Y-66334342D01*
X154761904Y-66334342D02*
X154714285Y-66429580D01*
X154714285Y-66429580D02*
X154666666Y-66477200D01*
X154666666Y-66477200D02*
X154571428Y-66524819D01*
X154571428Y-66524819D02*
X154285714Y-66524819D01*
X154285714Y-66524819D02*
X154190476Y-66477200D01*
X154190476Y-66477200D02*
X154142857Y-66429580D01*
X120857142Y-100359580D02*
X120809523Y-100407200D01*
X120809523Y-100407200D02*
X120666666Y-100454819D01*
X120666666Y-100454819D02*
X120571428Y-100454819D01*
X120571428Y-100454819D02*
X120428571Y-100407200D01*
X120428571Y-100407200D02*
X120333333Y-100311961D01*
X120333333Y-100311961D02*
X120285714Y-100216723D01*
X120285714Y-100216723D02*
X120238095Y-100026247D01*
X120238095Y-100026247D02*
X120238095Y-99883390D01*
X120238095Y-99883390D02*
X120285714Y-99692914D01*
X120285714Y-99692914D02*
X120333333Y-99597676D01*
X120333333Y-99597676D02*
X120428571Y-99502438D01*
X120428571Y-99502438D02*
X120571428Y-99454819D01*
X120571428Y-99454819D02*
X120666666Y-99454819D01*
X120666666Y-99454819D02*
X120809523Y-99502438D01*
X120809523Y-99502438D02*
X120857142Y-99550057D01*
X121238095Y-99550057D02*
X121285714Y-99502438D01*
X121285714Y-99502438D02*
X121380952Y-99454819D01*
X121380952Y-99454819D02*
X121619047Y-99454819D01*
X121619047Y-99454819D02*
X121714285Y-99502438D01*
X121714285Y-99502438D02*
X121761904Y-99550057D01*
X121761904Y-99550057D02*
X121809523Y-99645295D01*
X121809523Y-99645295D02*
X121809523Y-99740533D01*
X121809523Y-99740533D02*
X121761904Y-99883390D01*
X121761904Y-99883390D02*
X121190476Y-100454819D01*
X121190476Y-100454819D02*
X121809523Y-100454819D01*
X122428571Y-99454819D02*
X122523809Y-99454819D01*
X122523809Y-99454819D02*
X122619047Y-99502438D01*
X122619047Y-99502438D02*
X122666666Y-99550057D01*
X122666666Y-99550057D02*
X122714285Y-99645295D01*
X122714285Y-99645295D02*
X122761904Y-99835771D01*
X122761904Y-99835771D02*
X122761904Y-100073866D01*
X122761904Y-100073866D02*
X122714285Y-100264342D01*
X122714285Y-100264342D02*
X122666666Y-100359580D01*
X122666666Y-100359580D02*
X122619047Y-100407200D01*
X122619047Y-100407200D02*
X122523809Y-100454819D01*
X122523809Y-100454819D02*
X122428571Y-100454819D01*
X122428571Y-100454819D02*
X122333333Y-100407200D01*
X122333333Y-100407200D02*
X122285714Y-100359580D01*
X122285714Y-100359580D02*
X122238095Y-100264342D01*
X122238095Y-100264342D02*
X122190476Y-100073866D01*
X122190476Y-100073866D02*
X122190476Y-99835771D01*
X122190476Y-99835771D02*
X122238095Y-99645295D01*
X122238095Y-99645295D02*
X122285714Y-99550057D01*
X122285714Y-99550057D02*
X122333333Y-99502438D01*
X122333333Y-99502438D02*
X122428571Y-99454819D01*
X143109580Y-107392857D02*
X143157200Y-107440476D01*
X143157200Y-107440476D02*
X143204819Y-107583333D01*
X143204819Y-107583333D02*
X143204819Y-107678571D01*
X143204819Y-107678571D02*
X143157200Y-107821428D01*
X143157200Y-107821428D02*
X143061961Y-107916666D01*
X143061961Y-107916666D02*
X142966723Y-107964285D01*
X142966723Y-107964285D02*
X142776247Y-108011904D01*
X142776247Y-108011904D02*
X142633390Y-108011904D01*
X142633390Y-108011904D02*
X142442914Y-107964285D01*
X142442914Y-107964285D02*
X142347676Y-107916666D01*
X142347676Y-107916666D02*
X142252438Y-107821428D01*
X142252438Y-107821428D02*
X142204819Y-107678571D01*
X142204819Y-107678571D02*
X142204819Y-107583333D01*
X142204819Y-107583333D02*
X142252438Y-107440476D01*
X142252438Y-107440476D02*
X142300057Y-107392857D01*
X143204819Y-106440476D02*
X143204819Y-107011904D01*
X143204819Y-106726190D02*
X142204819Y-106726190D01*
X142204819Y-106726190D02*
X142347676Y-106821428D01*
X142347676Y-106821428D02*
X142442914Y-106916666D01*
X142442914Y-106916666D02*
X142490533Y-107011904D01*
X143204819Y-105488095D02*
X143204819Y-106059523D01*
X143204819Y-105773809D02*
X142204819Y-105773809D01*
X142204819Y-105773809D02*
X142347676Y-105869047D01*
X142347676Y-105869047D02*
X142442914Y-105964285D01*
X142442914Y-105964285D02*
X142490533Y-106059523D01*
X141182142Y-99524819D02*
X140848809Y-99048628D01*
X140610714Y-99524819D02*
X140610714Y-98524819D01*
X140610714Y-98524819D02*
X140991666Y-98524819D01*
X140991666Y-98524819D02*
X141086904Y-98572438D01*
X141086904Y-98572438D02*
X141134523Y-98620057D01*
X141134523Y-98620057D02*
X141182142Y-98715295D01*
X141182142Y-98715295D02*
X141182142Y-98858152D01*
X141182142Y-98858152D02*
X141134523Y-98953390D01*
X141134523Y-98953390D02*
X141086904Y-99001009D01*
X141086904Y-99001009D02*
X140991666Y-99048628D01*
X140991666Y-99048628D02*
X140610714Y-99048628D01*
X141563095Y-98620057D02*
X141610714Y-98572438D01*
X141610714Y-98572438D02*
X141705952Y-98524819D01*
X141705952Y-98524819D02*
X141944047Y-98524819D01*
X141944047Y-98524819D02*
X142039285Y-98572438D01*
X142039285Y-98572438D02*
X142086904Y-98620057D01*
X142086904Y-98620057D02*
X142134523Y-98715295D01*
X142134523Y-98715295D02*
X142134523Y-98810533D01*
X142134523Y-98810533D02*
X142086904Y-98953390D01*
X142086904Y-98953390D02*
X141515476Y-99524819D01*
X141515476Y-99524819D02*
X142134523Y-99524819D01*
X143086904Y-99524819D02*
X142515476Y-99524819D01*
X142801190Y-99524819D02*
X142801190Y-98524819D01*
X142801190Y-98524819D02*
X142705952Y-98667676D01*
X142705952Y-98667676D02*
X142610714Y-98762914D01*
X142610714Y-98762914D02*
X142515476Y-98810533D01*
X122357142Y-106954819D02*
X122023809Y-106478628D01*
X121785714Y-106954819D02*
X121785714Y-105954819D01*
X121785714Y-105954819D02*
X122166666Y-105954819D01*
X122166666Y-105954819D02*
X122261904Y-106002438D01*
X122261904Y-106002438D02*
X122309523Y-106050057D01*
X122309523Y-106050057D02*
X122357142Y-106145295D01*
X122357142Y-106145295D02*
X122357142Y-106288152D01*
X122357142Y-106288152D02*
X122309523Y-106383390D01*
X122309523Y-106383390D02*
X122261904Y-106431009D01*
X122261904Y-106431009D02*
X122166666Y-106478628D01*
X122166666Y-106478628D02*
X121785714Y-106478628D01*
X122690476Y-105954819D02*
X123309523Y-105954819D01*
X123309523Y-105954819D02*
X122976190Y-106335771D01*
X122976190Y-106335771D02*
X123119047Y-106335771D01*
X123119047Y-106335771D02*
X123214285Y-106383390D01*
X123214285Y-106383390D02*
X123261904Y-106431009D01*
X123261904Y-106431009D02*
X123309523Y-106526247D01*
X123309523Y-106526247D02*
X123309523Y-106764342D01*
X123309523Y-106764342D02*
X123261904Y-106859580D01*
X123261904Y-106859580D02*
X123214285Y-106907200D01*
X123214285Y-106907200D02*
X123119047Y-106954819D01*
X123119047Y-106954819D02*
X122833333Y-106954819D01*
X122833333Y-106954819D02*
X122738095Y-106907200D01*
X122738095Y-106907200D02*
X122690476Y-106859580D01*
X124214285Y-105954819D02*
X123738095Y-105954819D01*
X123738095Y-105954819D02*
X123690476Y-106431009D01*
X123690476Y-106431009D02*
X123738095Y-106383390D01*
X123738095Y-106383390D02*
X123833333Y-106335771D01*
X123833333Y-106335771D02*
X124071428Y-106335771D01*
X124071428Y-106335771D02*
X124166666Y-106383390D01*
X124166666Y-106383390D02*
X124214285Y-106431009D01*
X124214285Y-106431009D02*
X124261904Y-106526247D01*
X124261904Y-106526247D02*
X124261904Y-106764342D01*
X124261904Y-106764342D02*
X124214285Y-106859580D01*
X124214285Y-106859580D02*
X124166666Y-106907200D01*
X124166666Y-106907200D02*
X124071428Y-106954819D01*
X124071428Y-106954819D02*
X123833333Y-106954819D01*
X123833333Y-106954819D02*
X123738095Y-106907200D01*
X123738095Y-106907200D02*
X123690476Y-106859580D01*
X121123569Y-91169204D02*
X121933092Y-91169204D01*
X121933092Y-91169204D02*
X122028330Y-91121585D01*
X122028330Y-91121585D02*
X122075950Y-91073966D01*
X122075950Y-91073966D02*
X122123569Y-90978728D01*
X122123569Y-90978728D02*
X122123569Y-90788252D01*
X122123569Y-90788252D02*
X122075950Y-90693014D01*
X122075950Y-90693014D02*
X122028330Y-90645395D01*
X122028330Y-90645395D02*
X121933092Y-90597776D01*
X121933092Y-90597776D02*
X121123569Y-90597776D01*
X121218807Y-90169204D02*
X121171188Y-90121585D01*
X121171188Y-90121585D02*
X121123569Y-90026347D01*
X121123569Y-90026347D02*
X121123569Y-89788252D01*
X121123569Y-89788252D02*
X121171188Y-89693014D01*
X121171188Y-89693014D02*
X121218807Y-89645395D01*
X121218807Y-89645395D02*
X121314045Y-89597776D01*
X121314045Y-89597776D02*
X121409283Y-89597776D01*
X121409283Y-89597776D02*
X121552140Y-89645395D01*
X121552140Y-89645395D02*
X122123569Y-90216823D01*
X122123569Y-90216823D02*
X122123569Y-89597776D01*
X123119583Y-93882119D02*
X122786250Y-93405928D01*
X122548155Y-93882119D02*
X122548155Y-92882119D01*
X122548155Y-92882119D02*
X122929107Y-92882119D01*
X122929107Y-92882119D02*
X123024345Y-92929738D01*
X123024345Y-92929738D02*
X123071964Y-92977357D01*
X123071964Y-92977357D02*
X123119583Y-93072595D01*
X123119583Y-93072595D02*
X123119583Y-93215452D01*
X123119583Y-93215452D02*
X123071964Y-93310690D01*
X123071964Y-93310690D02*
X123024345Y-93358309D01*
X123024345Y-93358309D02*
X122929107Y-93405928D01*
X122929107Y-93405928D02*
X122548155Y-93405928D01*
X123452917Y-92882119D02*
X124119583Y-92882119D01*
X124119583Y-92882119D02*
X123691012Y-93882119D01*
X141039580Y-100142857D02*
X141087200Y-100190476D01*
X141087200Y-100190476D02*
X141134819Y-100333333D01*
X141134819Y-100333333D02*
X141134819Y-100428571D01*
X141134819Y-100428571D02*
X141087200Y-100571428D01*
X141087200Y-100571428D02*
X140991961Y-100666666D01*
X140991961Y-100666666D02*
X140896723Y-100714285D01*
X140896723Y-100714285D02*
X140706247Y-100761904D01*
X140706247Y-100761904D02*
X140563390Y-100761904D01*
X140563390Y-100761904D02*
X140372914Y-100714285D01*
X140372914Y-100714285D02*
X140277676Y-100666666D01*
X140277676Y-100666666D02*
X140182438Y-100571428D01*
X140182438Y-100571428D02*
X140134819Y-100428571D01*
X140134819Y-100428571D02*
X140134819Y-100333333D01*
X140134819Y-100333333D02*
X140182438Y-100190476D01*
X140182438Y-100190476D02*
X140230057Y-100142857D01*
X141134819Y-99190476D02*
X141134819Y-99761904D01*
X141134819Y-99476190D02*
X140134819Y-99476190D01*
X140134819Y-99476190D02*
X140277676Y-99571428D01*
X140277676Y-99571428D02*
X140372914Y-99666666D01*
X140372914Y-99666666D02*
X140420533Y-99761904D01*
X140134819Y-98857142D02*
X140134819Y-98238095D01*
X140134819Y-98238095D02*
X140515771Y-98571428D01*
X140515771Y-98571428D02*
X140515771Y-98428571D01*
X140515771Y-98428571D02*
X140563390Y-98333333D01*
X140563390Y-98333333D02*
X140611009Y-98285714D01*
X140611009Y-98285714D02*
X140706247Y-98238095D01*
X140706247Y-98238095D02*
X140944342Y-98238095D01*
X140944342Y-98238095D02*
X141039580Y-98285714D01*
X141039580Y-98285714D02*
X141087200Y-98333333D01*
X141087200Y-98333333D02*
X141134819Y-98428571D01*
X141134819Y-98428571D02*
X141134819Y-98714285D01*
X141134819Y-98714285D02*
X141087200Y-98809523D01*
X141087200Y-98809523D02*
X141039580Y-98857142D01*
X125738095Y-100954819D02*
X125738095Y-101764342D01*
X125738095Y-101764342D02*
X125785714Y-101859580D01*
X125785714Y-101859580D02*
X125833333Y-101907200D01*
X125833333Y-101907200D02*
X125928571Y-101954819D01*
X125928571Y-101954819D02*
X126119047Y-101954819D01*
X126119047Y-101954819D02*
X126214285Y-101907200D01*
X126214285Y-101907200D02*
X126261904Y-101859580D01*
X126261904Y-101859580D02*
X126309523Y-101764342D01*
X126309523Y-101764342D02*
X126309523Y-100954819D01*
X127309523Y-101954819D02*
X126738095Y-101954819D01*
X127023809Y-101954819D02*
X127023809Y-100954819D01*
X127023809Y-100954819D02*
X126928571Y-101097676D01*
X126928571Y-101097676D02*
X126833333Y-101192914D01*
X126833333Y-101192914D02*
X126738095Y-101240533D01*
X157929580Y-91391666D02*
X157977200Y-91439285D01*
X157977200Y-91439285D02*
X158024819Y-91582142D01*
X158024819Y-91582142D02*
X158024819Y-91677380D01*
X158024819Y-91677380D02*
X157977200Y-91820237D01*
X157977200Y-91820237D02*
X157881961Y-91915475D01*
X157881961Y-91915475D02*
X157786723Y-91963094D01*
X157786723Y-91963094D02*
X157596247Y-92010713D01*
X157596247Y-92010713D02*
X157453390Y-92010713D01*
X157453390Y-92010713D02*
X157262914Y-91963094D01*
X157262914Y-91963094D02*
X157167676Y-91915475D01*
X157167676Y-91915475D02*
X157072438Y-91820237D01*
X157072438Y-91820237D02*
X157024819Y-91677380D01*
X157024819Y-91677380D02*
X157024819Y-91582142D01*
X157024819Y-91582142D02*
X157072438Y-91439285D01*
X157072438Y-91439285D02*
X157120057Y-91391666D01*
X157453390Y-90820237D02*
X157405771Y-90915475D01*
X157405771Y-90915475D02*
X157358152Y-90963094D01*
X157358152Y-90963094D02*
X157262914Y-91010713D01*
X157262914Y-91010713D02*
X157215295Y-91010713D01*
X157215295Y-91010713D02*
X157120057Y-90963094D01*
X157120057Y-90963094D02*
X157072438Y-90915475D01*
X157072438Y-90915475D02*
X157024819Y-90820237D01*
X157024819Y-90820237D02*
X157024819Y-90629761D01*
X157024819Y-90629761D02*
X157072438Y-90534523D01*
X157072438Y-90534523D02*
X157120057Y-90486904D01*
X157120057Y-90486904D02*
X157215295Y-90439285D01*
X157215295Y-90439285D02*
X157262914Y-90439285D01*
X157262914Y-90439285D02*
X157358152Y-90486904D01*
X157358152Y-90486904D02*
X157405771Y-90534523D01*
X157405771Y-90534523D02*
X157453390Y-90629761D01*
X157453390Y-90629761D02*
X157453390Y-90820237D01*
X157453390Y-90820237D02*
X157501009Y-90915475D01*
X157501009Y-90915475D02*
X157548628Y-90963094D01*
X157548628Y-90963094D02*
X157643866Y-91010713D01*
X157643866Y-91010713D02*
X157834342Y-91010713D01*
X157834342Y-91010713D02*
X157929580Y-90963094D01*
X157929580Y-90963094D02*
X157977200Y-90915475D01*
X157977200Y-90915475D02*
X158024819Y-90820237D01*
X158024819Y-90820237D02*
X158024819Y-90629761D01*
X158024819Y-90629761D02*
X157977200Y-90534523D01*
X157977200Y-90534523D02*
X157929580Y-90486904D01*
X157929580Y-90486904D02*
X157834342Y-90439285D01*
X157834342Y-90439285D02*
X157643866Y-90439285D01*
X157643866Y-90439285D02*
X157548628Y-90486904D01*
X157548628Y-90486904D02*
X157501009Y-90534523D01*
X157501009Y-90534523D02*
X157453390Y-90629761D01*
X135300595Y-96533569D02*
X135300595Y-97343092D01*
X135300595Y-97343092D02*
X135348214Y-97438330D01*
X135348214Y-97438330D02*
X135395833Y-97485950D01*
X135395833Y-97485950D02*
X135491071Y-97533569D01*
X135491071Y-97533569D02*
X135681547Y-97533569D01*
X135681547Y-97533569D02*
X135776785Y-97485950D01*
X135776785Y-97485950D02*
X135824404Y-97438330D01*
X135824404Y-97438330D02*
X135872023Y-97343092D01*
X135872023Y-97343092D02*
X135872023Y-96533569D01*
X136776785Y-96866902D02*
X136776785Y-97533569D01*
X136538690Y-96485950D02*
X136300595Y-97200235D01*
X136300595Y-97200235D02*
X136919642Y-97200235D01*
X155132142Y-86789580D02*
X155084523Y-86837200D01*
X155084523Y-86837200D02*
X154941666Y-86884819D01*
X154941666Y-86884819D02*
X154846428Y-86884819D01*
X154846428Y-86884819D02*
X154703571Y-86837200D01*
X154703571Y-86837200D02*
X154608333Y-86741961D01*
X154608333Y-86741961D02*
X154560714Y-86646723D01*
X154560714Y-86646723D02*
X154513095Y-86456247D01*
X154513095Y-86456247D02*
X154513095Y-86313390D01*
X154513095Y-86313390D02*
X154560714Y-86122914D01*
X154560714Y-86122914D02*
X154608333Y-86027676D01*
X154608333Y-86027676D02*
X154703571Y-85932438D01*
X154703571Y-85932438D02*
X154846428Y-85884819D01*
X154846428Y-85884819D02*
X154941666Y-85884819D01*
X154941666Y-85884819D02*
X155084523Y-85932438D01*
X155084523Y-85932438D02*
X155132142Y-85980057D01*
X156084523Y-86884819D02*
X155513095Y-86884819D01*
X155798809Y-86884819D02*
X155798809Y-85884819D01*
X155798809Y-85884819D02*
X155703571Y-86027676D01*
X155703571Y-86027676D02*
X155608333Y-86122914D01*
X155608333Y-86122914D02*
X155513095Y-86170533D01*
X156655952Y-86313390D02*
X156560714Y-86265771D01*
X156560714Y-86265771D02*
X156513095Y-86218152D01*
X156513095Y-86218152D02*
X156465476Y-86122914D01*
X156465476Y-86122914D02*
X156465476Y-86075295D01*
X156465476Y-86075295D02*
X156513095Y-85980057D01*
X156513095Y-85980057D02*
X156560714Y-85932438D01*
X156560714Y-85932438D02*
X156655952Y-85884819D01*
X156655952Y-85884819D02*
X156846428Y-85884819D01*
X156846428Y-85884819D02*
X156941666Y-85932438D01*
X156941666Y-85932438D02*
X156989285Y-85980057D01*
X156989285Y-85980057D02*
X157036904Y-86075295D01*
X157036904Y-86075295D02*
X157036904Y-86122914D01*
X157036904Y-86122914D02*
X156989285Y-86218152D01*
X156989285Y-86218152D02*
X156941666Y-86265771D01*
X156941666Y-86265771D02*
X156846428Y-86313390D01*
X156846428Y-86313390D02*
X156655952Y-86313390D01*
X156655952Y-86313390D02*
X156560714Y-86361009D01*
X156560714Y-86361009D02*
X156513095Y-86408628D01*
X156513095Y-86408628D02*
X156465476Y-86503866D01*
X156465476Y-86503866D02*
X156465476Y-86694342D01*
X156465476Y-86694342D02*
X156513095Y-86789580D01*
X156513095Y-86789580D02*
X156560714Y-86837200D01*
X156560714Y-86837200D02*
X156655952Y-86884819D01*
X156655952Y-86884819D02*
X156846428Y-86884819D01*
X156846428Y-86884819D02*
X156941666Y-86837200D01*
X156941666Y-86837200D02*
X156989285Y-86789580D01*
X156989285Y-86789580D02*
X157036904Y-86694342D01*
X157036904Y-86694342D02*
X157036904Y-86503866D01*
X157036904Y-86503866D02*
X156989285Y-86408628D01*
X156989285Y-86408628D02*
X156941666Y-86361009D01*
X156941666Y-86361009D02*
X156846428Y-86313390D01*
X120857142Y-108784819D02*
X120523809Y-108308628D01*
X120285714Y-108784819D02*
X120285714Y-107784819D01*
X120285714Y-107784819D02*
X120666666Y-107784819D01*
X120666666Y-107784819D02*
X120761904Y-107832438D01*
X120761904Y-107832438D02*
X120809523Y-107880057D01*
X120809523Y-107880057D02*
X120857142Y-107975295D01*
X120857142Y-107975295D02*
X120857142Y-108118152D01*
X120857142Y-108118152D02*
X120809523Y-108213390D01*
X120809523Y-108213390D02*
X120761904Y-108261009D01*
X120761904Y-108261009D02*
X120666666Y-108308628D01*
X120666666Y-108308628D02*
X120285714Y-108308628D01*
X121714285Y-108118152D02*
X121714285Y-108784819D01*
X121476190Y-107737200D02*
X121238095Y-108451485D01*
X121238095Y-108451485D02*
X121857142Y-108451485D01*
X122666666Y-107784819D02*
X122476190Y-107784819D01*
X122476190Y-107784819D02*
X122380952Y-107832438D01*
X122380952Y-107832438D02*
X122333333Y-107880057D01*
X122333333Y-107880057D02*
X122238095Y-108022914D01*
X122238095Y-108022914D02*
X122190476Y-108213390D01*
X122190476Y-108213390D02*
X122190476Y-108594342D01*
X122190476Y-108594342D02*
X122238095Y-108689580D01*
X122238095Y-108689580D02*
X122285714Y-108737200D01*
X122285714Y-108737200D02*
X122380952Y-108784819D01*
X122380952Y-108784819D02*
X122571428Y-108784819D01*
X122571428Y-108784819D02*
X122666666Y-108737200D01*
X122666666Y-108737200D02*
X122714285Y-108689580D01*
X122714285Y-108689580D02*
X122761904Y-108594342D01*
X122761904Y-108594342D02*
X122761904Y-108356247D01*
X122761904Y-108356247D02*
X122714285Y-108261009D01*
X122714285Y-108261009D02*
X122666666Y-108213390D01*
X122666666Y-108213390D02*
X122571428Y-108165771D01*
X122571428Y-108165771D02*
X122380952Y-108165771D01*
X122380952Y-108165771D02*
X122285714Y-108213390D01*
X122285714Y-108213390D02*
X122238095Y-108261009D01*
X122238095Y-108261009D02*
X122190476Y-108356247D01*
X146204580Y-99867857D02*
X146252200Y-99915476D01*
X146252200Y-99915476D02*
X146299819Y-100058333D01*
X146299819Y-100058333D02*
X146299819Y-100153571D01*
X146299819Y-100153571D02*
X146252200Y-100296428D01*
X146252200Y-100296428D02*
X146156961Y-100391666D01*
X146156961Y-100391666D02*
X146061723Y-100439285D01*
X146061723Y-100439285D02*
X145871247Y-100486904D01*
X145871247Y-100486904D02*
X145728390Y-100486904D01*
X145728390Y-100486904D02*
X145537914Y-100439285D01*
X145537914Y-100439285D02*
X145442676Y-100391666D01*
X145442676Y-100391666D02*
X145347438Y-100296428D01*
X145347438Y-100296428D02*
X145299819Y-100153571D01*
X145299819Y-100153571D02*
X145299819Y-100058333D01*
X145299819Y-100058333D02*
X145347438Y-99915476D01*
X145347438Y-99915476D02*
X145395057Y-99867857D01*
X146299819Y-98915476D02*
X146299819Y-99486904D01*
X146299819Y-99201190D02*
X145299819Y-99201190D01*
X145299819Y-99201190D02*
X145442676Y-99296428D01*
X145442676Y-99296428D02*
X145537914Y-99391666D01*
X145537914Y-99391666D02*
X145585533Y-99486904D01*
X145299819Y-98010714D02*
X145299819Y-98486904D01*
X145299819Y-98486904D02*
X145776009Y-98534523D01*
X145776009Y-98534523D02*
X145728390Y-98486904D01*
X145728390Y-98486904D02*
X145680771Y-98391666D01*
X145680771Y-98391666D02*
X145680771Y-98153571D01*
X145680771Y-98153571D02*
X145728390Y-98058333D01*
X145728390Y-98058333D02*
X145776009Y-98010714D01*
X145776009Y-98010714D02*
X145871247Y-97963095D01*
X145871247Y-97963095D02*
X146109342Y-97963095D01*
X146109342Y-97963095D02*
X146204580Y-98010714D01*
X146204580Y-98010714D02*
X146252200Y-98058333D01*
X146252200Y-98058333D02*
X146299819Y-98153571D01*
X146299819Y-98153571D02*
X146299819Y-98391666D01*
X146299819Y-98391666D02*
X146252200Y-98486904D01*
X146252200Y-98486904D02*
X146204580Y-98534523D01*
%TO.C,R17*%
D13*
X161022500Y-110562258D02*
X161022500Y-110087742D01*
X159977500Y-110562258D02*
X159977500Y-110087742D01*
%TO.C,R40*%
X163235000Y-110639564D02*
X163235000Y-110185436D01*
X161765000Y-110639564D02*
X161765000Y-110185436D01*
%TO.C,EG1192L1*%
X161990000Y-111315000D02*
X162320000Y-111075000D01*
X162320000Y-111555000D01*
X161990000Y-111315000D01*
G36*
X162320000Y-111555000D02*
G01*
X161990000Y-111315000D01*
X162320000Y-111075000D01*
X162320000Y-111555000D01*
G37*
X158100000Y-111920000D02*
X154200000Y-111920000D01*
X154200000Y-106890000D02*
X158100000Y-106890000D01*
%TO.C,Q1*%
X154050000Y-71050000D02*
X154050000Y-77470000D01*
X154050000Y-77470000D02*
X154320000Y-77470000D01*
X160950000Y-71050000D02*
X160950000Y-77470000D01*
X160950000Y-77470000D02*
X160680000Y-77470000D01*
X154360000Y-79200000D02*
X153890000Y-79540000D01*
X153890000Y-78860000D01*
X154360000Y-79200000D01*
G36*
X154360000Y-79200000D02*
G01*
X153890000Y-79540000D01*
X153890000Y-78860000D01*
X154360000Y-79200000D01*
G37*
%TO.C,C5*%
X130490000Y-102915580D02*
X130490000Y-102634420D01*
X131510000Y-102915580D02*
X131510000Y-102634420D01*
%TO.C,R23*%
X145380242Y-81177500D02*
X145854758Y-81177500D01*
X145380242Y-82222500D02*
X145854758Y-82222500D01*
%TO.C,R13*%
X122062258Y-95977500D02*
X121587742Y-95977500D01*
X122062258Y-97022500D02*
X121587742Y-97022500D01*
%TO.C,Q3*%
X133867500Y-70825000D02*
X133867500Y-77245000D01*
X133867500Y-77245000D02*
X134137500Y-77245000D01*
X140767500Y-70825000D02*
X140767500Y-77245000D01*
X140767500Y-77245000D02*
X140497500Y-77245000D01*
X134177500Y-78975000D02*
X133707500Y-79315000D01*
X133707500Y-78635000D01*
X134177500Y-78975000D01*
G36*
X134177500Y-78975000D02*
G01*
X133707500Y-79315000D01*
X133707500Y-78635000D01*
X134177500Y-78975000D01*
G37*
%TO.C,R32*%
X151437742Y-81177500D02*
X151912258Y-81177500D01*
X151437742Y-82222500D02*
X151912258Y-82222500D01*
%TO.C,R29*%
X148380242Y-81177500D02*
X148854758Y-81177500D01*
X148380242Y-82222500D02*
X148854758Y-82222500D01*
%TO.C,Q2*%
X144075000Y-70475000D02*
X144075000Y-76895000D01*
X144075000Y-76895000D02*
X144345000Y-76895000D01*
X150975000Y-70475000D02*
X150975000Y-76895000D01*
X150975000Y-76895000D02*
X150705000Y-76895000D01*
X144385000Y-78625000D02*
X143915000Y-78965000D01*
X143915000Y-78285000D01*
X144385000Y-78625000D01*
G36*
X144385000Y-78625000D02*
G01*
X143915000Y-78965000D01*
X143915000Y-78285000D01*
X144385000Y-78625000D01*
G37*
%TO.C,R24*%
X154715242Y-81177500D02*
X155189758Y-81177500D01*
X154715242Y-82222500D02*
X155189758Y-82222500D01*
%TO.C,R28*%
X157937742Y-81177500D02*
X158412258Y-81177500D01*
X157937742Y-82222500D02*
X158412258Y-82222500D01*
%TO.C,R30*%
X137437742Y-80977500D02*
X137912258Y-80977500D01*
X137437742Y-82022500D02*
X137912258Y-82022500D01*
%TO.C,R15*%
X128156492Y-84884800D02*
X128631008Y-84884800D01*
X128156492Y-85929800D02*
X128631008Y-85929800D01*
%TO.C,C7*%
X150584420Y-104990000D02*
X150865580Y-104990000D01*
X150584420Y-106010000D02*
X150865580Y-106010000D01*
%TO.C,R20*%
X152977500Y-105737258D02*
X152977500Y-105262742D01*
X154022500Y-105737258D02*
X154022500Y-105262742D01*
%TO.C,C19*%
X121584420Y-97490000D02*
X121865580Y-97490000D01*
X121584420Y-98510000D02*
X121865580Y-98510000D01*
%TO.C,R27*%
X142477500Y-83062258D02*
X142477500Y-82587742D01*
X143522500Y-83062258D02*
X143522500Y-82587742D01*
%TO.C,R9*%
X121831492Y-84884800D02*
X122306008Y-84884800D01*
X121831492Y-85929800D02*
X122306008Y-85929800D01*
%TO.C,R44*%
X123143641Y-104620000D02*
X122836359Y-104620000D01*
X123143641Y-105380000D02*
X122836359Y-105380000D01*
%TO.C,R38*%
X120356359Y-101620000D02*
X120663641Y-101620000D01*
X120356359Y-102380000D02*
X120663641Y-102380000D01*
%TO.C,R18*%
X151227064Y-109590000D02*
X149772936Y-109590000D01*
X151227064Y-111410000D02*
X149772936Y-111410000D01*
%TO.C,R25*%
X158587742Y-84477500D02*
X159062258Y-84477500D01*
X158587742Y-85522500D02*
X159062258Y-85522500D01*
%TO.C,C14*%
X154865580Y-94490000D02*
X154584420Y-94490000D01*
X154865580Y-95510000D02*
X154584420Y-95510000D01*
%TO.C,C17*%
X152865580Y-84990000D02*
X152584420Y-84990000D01*
X152865580Y-86010000D02*
X152584420Y-86010000D01*
%TO.C,R47*%
X121346359Y-110120000D02*
X121653641Y-110120000D01*
X121346359Y-110880000D02*
X121653641Y-110880000D01*
%TO.C,R45*%
X121346359Y-108120000D02*
X121653641Y-108120000D01*
X121346359Y-108880000D02*
X121653641Y-108880000D01*
%TO.C,R33*%
X140912258Y-80977500D02*
X140437742Y-80977500D01*
X140912258Y-82022500D02*
X140437742Y-82022500D01*
%TO.C,R31*%
X161397258Y-81177500D02*
X160922742Y-81177500D01*
X161397258Y-82222500D02*
X160922742Y-82222500D01*
%TO.C,R11*%
X126156492Y-94384800D02*
X126631008Y-94384800D01*
X126156492Y-95429800D02*
X126631008Y-95429800D01*
%TO.C,L1*%
X142090000Y-107800000D02*
X142090000Y-102100000D01*
X142700000Y-101490000D02*
X143550000Y-101490000D01*
X143550000Y-108410000D02*
X142700000Y-108410000D01*
X147450000Y-101490000D02*
X148300000Y-101490000D01*
X148250000Y-108410000D02*
X147450000Y-108410000D01*
X148910000Y-102100000D02*
X148910000Y-107750000D01*
X142090000Y-102100000D02*
G75*
G02*
X142700000Y-101490000I610000J0D01*
G01*
X142700000Y-108410000D02*
G75*
G02*
X142090000Y-107800000I0J610000D01*
G01*
X148300000Y-101490000D02*
G75*
G02*
X148910000Y-102100000I0J-610000D01*
G01*
X148910000Y-107750000D02*
G75*
G02*
X148250000Y-108410000I-660002J2D01*
G01*
%TO.C,R42*%
X142437742Y-66977500D02*
X142912258Y-66977500D01*
X142437742Y-68022500D02*
X142912258Y-68022500D01*
%TO.C,C6*%
X150990000Y-107634420D02*
X150990000Y-107915580D01*
X152010000Y-107634420D02*
X152010000Y-107915580D01*
%TO.C,C12*%
X132265000Y-99217498D02*
X132265000Y-99740002D01*
X133735000Y-99217498D02*
X133735000Y-99740002D01*
%TO.C,R16*%
X120588750Y-88419558D02*
X120588750Y-87945042D01*
X121633750Y-88419558D02*
X121633750Y-87945042D01*
%TO.C,R26*%
X155537742Y-82927500D02*
X156012258Y-82927500D01*
X155537742Y-83972500D02*
X156012258Y-83972500D01*
%TO.C,R22*%
X137912258Y-82477500D02*
X137437742Y-82477500D01*
X137912258Y-83522500D02*
X137437742Y-83522500D01*
%TO.C,C9*%
X153920000Y-101210000D02*
X164080000Y-101210000D01*
X153920000Y-101250000D02*
X164080000Y-101250000D01*
X153921000Y-101130000D02*
X164079000Y-101130000D01*
X153921000Y-101170000D02*
X164079000Y-101170000D01*
X153923000Y-101090000D02*
X164077000Y-101090000D01*
X153924000Y-101050000D02*
X164076000Y-101050000D01*
X153926000Y-101010000D02*
X164074000Y-101010000D01*
X153928000Y-100970000D02*
X164072000Y-100970000D01*
X153930000Y-100930000D02*
X164070000Y-100930000D01*
X153933000Y-100890000D02*
X164067000Y-100890000D01*
X153936000Y-100850000D02*
X164064000Y-100850000D01*
X153939000Y-100810000D02*
X164061000Y-100810000D01*
X153943000Y-100770000D02*
X164057000Y-100770000D01*
X153946000Y-100730000D02*
X164054000Y-100730000D01*
X153951000Y-100690000D02*
X164049000Y-100690000D01*
X153955000Y-100650000D02*
X164045000Y-100650000D01*
X153960000Y-100610000D02*
X164040000Y-100610000D01*
X153965000Y-100570000D02*
X164035000Y-100570000D01*
X153971000Y-100530000D02*
X164029000Y-100530000D01*
X153977000Y-100490000D02*
X164023000Y-100490000D01*
X153983000Y-100450000D02*
X164017000Y-100450000D01*
X153989000Y-100410000D02*
X164011000Y-100410000D01*
X153996000Y-100370000D02*
X164004000Y-100370000D01*
X154003000Y-100330000D02*
X163997000Y-100330000D01*
X154011000Y-100290000D02*
X163989000Y-100290000D01*
X154019000Y-100250000D02*
X163981000Y-100250000D01*
X154027000Y-100210000D02*
X163973000Y-100210000D01*
X154035000Y-100170000D02*
X163965000Y-100170000D01*
X154044000Y-100130000D02*
X163956000Y-100130000D01*
X154053000Y-100090000D02*
X163947000Y-100090000D01*
X154063000Y-100050000D02*
X163937000Y-100050000D01*
X154072000Y-100010000D02*
X163928000Y-100010000D01*
X154083000Y-99970000D02*
X163917000Y-99970000D01*
X154093000Y-99930000D02*
X163907000Y-99930000D01*
X154104000Y-99890000D02*
X163896000Y-99890000D01*
X154115000Y-99850000D02*
X163885000Y-99850000D01*
X154127000Y-99810000D02*
X163873000Y-99810000D01*
X154139000Y-99770000D02*
X163861000Y-99770000D01*
X154151000Y-99730000D02*
X163849000Y-99730000D01*
X154163000Y-99690000D02*
X163837000Y-99690000D01*
X154176000Y-99650000D02*
X163824000Y-99650000D01*
X154190000Y-99610000D02*
X163810000Y-99610000D01*
X154203000Y-99570000D02*
X163797000Y-99570000D01*
X154218000Y-99530000D02*
X163782000Y-99530000D01*
X154232000Y-99490000D02*
X163768000Y-99490000D01*
X154247000Y-99450000D02*
X163753000Y-99450000D01*
X154262000Y-99410000D02*
X163738000Y-99410000D01*
X154278000Y-99370000D02*
X163722000Y-99370000D01*
X154294000Y-99330000D02*
X163706000Y-99330000D01*
X154310000Y-99290000D02*
X163690000Y-99290000D01*
X154327000Y-99250000D02*
X163673000Y-99250000D01*
X154344000Y-99210000D02*
X163656000Y-99210000D01*
X154362000Y-99170000D02*
X163638000Y-99170000D01*
X154380000Y-99130000D02*
X163620000Y-99130000D01*
X154398000Y-99090000D02*
X163602000Y-99090000D01*
X154417000Y-99050000D02*
X163583000Y-99050000D01*
X154436000Y-99010000D02*
X163564000Y-99010000D01*
X154456000Y-98970000D02*
X163544000Y-98970000D01*
X154476000Y-98930000D02*
X163524000Y-98930000D01*
X154496000Y-98890000D02*
X163504000Y-98890000D01*
X154517000Y-98850000D02*
X163483000Y-98850000D01*
X154539000Y-98810000D02*
X163461000Y-98810000D01*
X154561000Y-98770000D02*
X163439000Y-98770000D01*
X154583000Y-98730000D02*
X157760000Y-98730000D01*
X154606000Y-98690000D02*
X157760000Y-98690000D01*
X154629000Y-98650000D02*
X157760000Y-98650000D01*
X154653000Y-98610000D02*
X157760000Y-98610000D01*
X154677000Y-98570000D02*
X157760000Y-98570000D01*
X154702000Y-98530000D02*
X157760000Y-98530000D01*
X154728000Y-98490000D02*
X157760000Y-98490000D01*
X154753000Y-98450000D02*
X157760000Y-98450000D01*
X154780000Y-98410000D02*
X157760000Y-98410000D01*
X154807000Y-98370000D02*
X157760000Y-98370000D01*
X154834000Y-98330000D02*
X157760000Y-98330000D01*
X154862000Y-98290000D02*
X157760000Y-98290000D01*
X154891000Y-98250000D02*
X157760000Y-98250000D01*
X154920000Y-98210000D02*
X157760000Y-98210000D01*
X154950000Y-98170000D02*
X157760000Y-98170000D01*
X154980000Y-98130000D02*
X157760000Y-98130000D01*
X155012000Y-98090000D02*
X157760000Y-98090000D01*
X155043000Y-98050000D02*
X157760000Y-98050000D01*
X155076000Y-98010000D02*
X157760000Y-98010000D01*
X155109000Y-97970000D02*
X157760000Y-97970000D01*
X155142000Y-97930000D02*
X157760000Y-97930000D01*
X155177000Y-97890000D02*
X157760000Y-97890000D01*
X155212000Y-97850000D02*
X157760000Y-97850000D01*
X155248000Y-97810000D02*
X157760000Y-97810000D01*
X155284000Y-97770000D02*
X157760000Y-97770000D01*
X155322000Y-97730000D02*
X157760000Y-97730000D01*
X155360000Y-97690000D02*
X157760000Y-97690000D01*
X155399000Y-97650000D02*
X157760000Y-97650000D01*
X155439000Y-97610000D02*
X157760000Y-97610000D01*
X155480000Y-97570000D02*
X157760000Y-97570000D01*
X155522000Y-97530000D02*
X157760000Y-97530000D01*
X155565000Y-97490000D02*
X157760000Y-97490000D01*
X155609000Y-97450000D02*
X157760000Y-97450000D01*
X155625000Y-106229646D02*
X156625000Y-106229646D01*
X155653000Y-97410000D02*
X157760000Y-97410000D01*
X155699000Y-97370000D02*
X157760000Y-97370000D01*
X155746000Y-97330000D02*
X157760000Y-97330000D01*
X155795000Y-97290000D02*
X157760000Y-97290000D01*
X155844000Y-97250000D02*
X157760000Y-97250000D01*
X155895000Y-97210000D02*
X157760000Y-97210000D01*
X155947000Y-97170000D02*
X157760000Y-97170000D01*
X156000000Y-97130000D02*
X157760000Y-97130000D01*
X156055000Y-97090000D02*
X157760000Y-97090000D01*
X156112000Y-97050000D02*
X157760000Y-97050000D01*
X156125000Y-106729646D02*
X156125000Y-105729646D01*
X156170000Y-97010000D02*
X157760000Y-97010000D01*
X156230000Y-96970000D02*
X157760000Y-96970000D01*
X156292000Y-96930000D02*
X157760000Y-96930000D01*
X156356000Y-96890000D02*
X157760000Y-96890000D01*
X156422000Y-96850000D02*
X157760000Y-96850000D01*
X156490000Y-96810000D02*
X157760000Y-96810000D01*
X156561000Y-96770000D02*
X157760000Y-96770000D01*
X156635000Y-96730000D02*
X157760000Y-96730000D01*
X156712000Y-96690000D02*
X157760000Y-96690000D01*
X156792000Y-96650000D02*
X157760000Y-96650000D01*
X156876000Y-96610000D02*
X157760000Y-96610000D01*
X156963000Y-96570000D02*
X157760000Y-96570000D01*
X157056000Y-96530000D02*
X157760000Y-96530000D01*
X157154000Y-96490000D02*
X157760000Y-96490000D01*
X157258000Y-96450000D02*
X157760000Y-96450000D01*
X157370000Y-96410000D02*
X157760000Y-96410000D01*
X157491000Y-96370000D02*
X157760000Y-96370000D01*
X157623000Y-96330000D02*
X157760000Y-96330000D01*
X157938000Y-96250000D02*
X160062000Y-96250000D01*
X158138000Y-96210000D02*
X159862000Y-96210000D01*
X158401000Y-96170000D02*
X159599000Y-96170000D01*
X160240000Y-96330000D02*
X160377000Y-96330000D01*
X160240000Y-96370000D02*
X160509000Y-96370000D01*
X160240000Y-96410000D02*
X160630000Y-96410000D01*
X160240000Y-96450000D02*
X160742000Y-96450000D01*
X160240000Y-96490000D02*
X160846000Y-96490000D01*
X160240000Y-96530000D02*
X160944000Y-96530000D01*
X160240000Y-96570000D02*
X161037000Y-96570000D01*
X160240000Y-96610000D02*
X161124000Y-96610000D01*
X160240000Y-96650000D02*
X161208000Y-96650000D01*
X160240000Y-96690000D02*
X161288000Y-96690000D01*
X160240000Y-96730000D02*
X161365000Y-96730000D01*
X160240000Y-96770000D02*
X161439000Y-96770000D01*
X160240000Y-96810000D02*
X161510000Y-96810000D01*
X160240000Y-96850000D02*
X161578000Y-96850000D01*
X160240000Y-96890000D02*
X161644000Y-96890000D01*
X160240000Y-96930000D02*
X161708000Y-96930000D01*
X160240000Y-96970000D02*
X161770000Y-96970000D01*
X160240000Y-97010000D02*
X161830000Y-97010000D01*
X160240000Y-97050000D02*
X161888000Y-97050000D01*
X160240000Y-97090000D02*
X161945000Y-97090000D01*
X160240000Y-97130000D02*
X162000000Y-97130000D01*
X160240000Y-97170000D02*
X162053000Y-97170000D01*
X160240000Y-97210000D02*
X162105000Y-97210000D01*
X160240000Y-97250000D02*
X162156000Y-97250000D01*
X160240000Y-97290000D02*
X162205000Y-97290000D01*
X160240000Y-97330000D02*
X162254000Y-97330000D01*
X160240000Y-97370000D02*
X162301000Y-97370000D01*
X160240000Y-97410000D02*
X162347000Y-97410000D01*
X160240000Y-97450000D02*
X162391000Y-97450000D01*
X160240000Y-97490000D02*
X162435000Y-97490000D01*
X160240000Y-97530000D02*
X162478000Y-97530000D01*
X160240000Y-97570000D02*
X162520000Y-97570000D01*
X160240000Y-97610000D02*
X162561000Y-97610000D01*
X160240000Y-97650000D02*
X162601000Y-97650000D01*
X160240000Y-97690000D02*
X162640000Y-97690000D01*
X160240000Y-97730000D02*
X162678000Y-97730000D01*
X160240000Y-97770000D02*
X162716000Y-97770000D01*
X160240000Y-97810000D02*
X162752000Y-97810000D01*
X160240000Y-97850000D02*
X162788000Y-97850000D01*
X160240000Y-97890000D02*
X162823000Y-97890000D01*
X160240000Y-97930000D02*
X162858000Y-97930000D01*
X160240000Y-97970000D02*
X162891000Y-97970000D01*
X160240000Y-98010000D02*
X162924000Y-98010000D01*
X160240000Y-98050000D02*
X162957000Y-98050000D01*
X160240000Y-98090000D02*
X162988000Y-98090000D01*
X160240000Y-98130000D02*
X163020000Y-98130000D01*
X160240000Y-98170000D02*
X163050000Y-98170000D01*
X160240000Y-98210000D02*
X163080000Y-98210000D01*
X160240000Y-98250000D02*
X163109000Y-98250000D01*
X160240000Y-98290000D02*
X163138000Y-98290000D01*
X160240000Y-98330000D02*
X163166000Y-98330000D01*
X160240000Y-98370000D02*
X163193000Y-98370000D01*
X160240000Y-98410000D02*
X163220000Y-98410000D01*
X160240000Y-98450000D02*
X163247000Y-98450000D01*
X160240000Y-98490000D02*
X163272000Y-98490000D01*
X160240000Y-98530000D02*
X163298000Y-98530000D01*
X160240000Y-98570000D02*
X163323000Y-98570000D01*
X160240000Y-98610000D02*
X163347000Y-98610000D01*
X160240000Y-98650000D02*
X163371000Y-98650000D01*
X160240000Y-98690000D02*
X163394000Y-98690000D01*
X160240000Y-98730000D02*
X163417000Y-98730000D01*
X157740000Y-106212540D02*
G75*
G02*
X160260000Y-106212540I1260000J4962540D01*
G01*
%TO.C,R36*%
X118836359Y-104120000D02*
X119143641Y-104120000D01*
X118836359Y-104880000D02*
X119143641Y-104880000D01*
%TO.C,C10*%
X149490000Y-99584420D02*
X149490000Y-99865580D01*
X150510000Y-99584420D02*
X150510000Y-99865580D01*
%TO.C,R14*%
X124587742Y-98477500D02*
X125062258Y-98477500D01*
X124587742Y-99522500D02*
X125062258Y-99522500D01*
%TO.C,R12*%
X120588750Y-91295042D02*
X120588750Y-91769558D01*
X121633750Y-91295042D02*
X121633750Y-91769558D01*
%TO.C,D1*%
X143900000Y-111635000D02*
X147960000Y-111635000D01*
X147960000Y-109365000D02*
X143900000Y-109365000D01*
X147960000Y-111635000D02*
X147960000Y-109365000D01*
%TO.C,U3*%
X149190000Y-92672500D02*
X149190000Y-88052500D01*
X155960000Y-88052500D02*
X155960000Y-92672500D01*
X149645000Y-94222500D02*
X149885000Y-94552500D01*
X149405000Y-94552500D01*
X149645000Y-94222500D01*
G36*
X149885000Y-94552500D02*
G01*
X149405000Y-94552500D01*
X149645000Y-94222500D01*
X149885000Y-94552500D01*
G37*
%TO.C,R37*%
X119856359Y-103120000D02*
X120163641Y-103120000D01*
X119856359Y-103880000D02*
X120163641Y-103880000D01*
%TO.C,C4*%
X124634420Y-95990000D02*
X124915580Y-95990000D01*
X124634420Y-97010000D02*
X124915580Y-97010000D01*
%TO.C,R19*%
X150962258Y-103477500D02*
X150487742Y-103477500D01*
X150962258Y-104522500D02*
X150487742Y-104522500D01*
%TO.C,R41*%
X130262742Y-67477500D02*
X130737258Y-67477500D01*
X130262742Y-68522500D02*
X130737258Y-68522500D01*
%TO.C,C3*%
X125153170Y-84897300D02*
X125434330Y-84897300D01*
X125153170Y-85917300D02*
X125434330Y-85917300D01*
%TO.C,C16*%
X149715000Y-84859420D02*
X149715000Y-85140580D01*
X150735000Y-84859420D02*
X150735000Y-85140580D01*
%TO.C,R43*%
X153262742Y-66977500D02*
X153737258Y-66977500D01*
X153262742Y-68022500D02*
X153737258Y-68022500D01*
%TO.C,C20*%
X123865580Y-99990000D02*
X123584420Y-99990000D01*
X123865580Y-101010000D02*
X123584420Y-101010000D01*
%TO.C,C11*%
X135260000Y-109270000D02*
X132083000Y-109270000D01*
X135260000Y-109310000D02*
X132106000Y-109310000D01*
X135260000Y-109350000D02*
X132129000Y-109350000D01*
X135260000Y-109390000D02*
X132153000Y-109390000D01*
X135260000Y-109430000D02*
X132177000Y-109430000D01*
X135260000Y-109470000D02*
X132202000Y-109470000D01*
X135260000Y-109510000D02*
X132228000Y-109510000D01*
X135260000Y-109550000D02*
X132253000Y-109550000D01*
X135260000Y-109590000D02*
X132280000Y-109590000D01*
X135260000Y-109630000D02*
X132307000Y-109630000D01*
X135260000Y-109670000D02*
X132334000Y-109670000D01*
X135260000Y-109710000D02*
X132362000Y-109710000D01*
X135260000Y-109750000D02*
X132391000Y-109750000D01*
X135260000Y-109790000D02*
X132420000Y-109790000D01*
X135260000Y-109830000D02*
X132450000Y-109830000D01*
X135260000Y-109870000D02*
X132480000Y-109870000D01*
X135260000Y-109910000D02*
X132512000Y-109910000D01*
X135260000Y-109950000D02*
X132543000Y-109950000D01*
X135260000Y-109990000D02*
X132576000Y-109990000D01*
X135260000Y-110030000D02*
X132609000Y-110030000D01*
X135260000Y-110070000D02*
X132642000Y-110070000D01*
X135260000Y-110110000D02*
X132677000Y-110110000D01*
X135260000Y-110150000D02*
X132712000Y-110150000D01*
X135260000Y-110190000D02*
X132748000Y-110190000D01*
X135260000Y-110230000D02*
X132784000Y-110230000D01*
X135260000Y-110270000D02*
X132822000Y-110270000D01*
X135260000Y-110310000D02*
X132860000Y-110310000D01*
X135260000Y-110350000D02*
X132899000Y-110350000D01*
X135260000Y-110390000D02*
X132939000Y-110390000D01*
X135260000Y-110430000D02*
X132980000Y-110430000D01*
X135260000Y-110470000D02*
X133022000Y-110470000D01*
X135260000Y-110510000D02*
X133065000Y-110510000D01*
X135260000Y-110550000D02*
X133109000Y-110550000D01*
X135260000Y-110590000D02*
X133153000Y-110590000D01*
X135260000Y-110630000D02*
X133199000Y-110630000D01*
X135260000Y-110670000D02*
X133246000Y-110670000D01*
X135260000Y-110710000D02*
X133295000Y-110710000D01*
X135260000Y-110750000D02*
X133344000Y-110750000D01*
X135260000Y-110790000D02*
X133395000Y-110790000D01*
X135260000Y-110830000D02*
X133447000Y-110830000D01*
X135260000Y-110870000D02*
X133500000Y-110870000D01*
X135260000Y-110910000D02*
X133555000Y-110910000D01*
X135260000Y-110950000D02*
X133612000Y-110950000D01*
X135260000Y-110990000D02*
X133670000Y-110990000D01*
X135260000Y-111030000D02*
X133730000Y-111030000D01*
X135260000Y-111070000D02*
X133792000Y-111070000D01*
X135260000Y-111110000D02*
X133856000Y-111110000D01*
X135260000Y-111150000D02*
X133922000Y-111150000D01*
X135260000Y-111190000D02*
X133990000Y-111190000D01*
X135260000Y-111230000D02*
X134061000Y-111230000D01*
X135260000Y-111270000D02*
X134135000Y-111270000D01*
X135260000Y-111310000D02*
X134212000Y-111310000D01*
X135260000Y-111350000D02*
X134292000Y-111350000D01*
X135260000Y-111390000D02*
X134376000Y-111390000D01*
X135260000Y-111430000D02*
X134463000Y-111430000D01*
X135260000Y-111470000D02*
X134556000Y-111470000D01*
X135260000Y-111510000D02*
X134654000Y-111510000D01*
X135260000Y-111550000D02*
X134758000Y-111550000D01*
X135260000Y-111590000D02*
X134870000Y-111590000D01*
X135260000Y-111630000D02*
X134991000Y-111630000D01*
X135260000Y-111670000D02*
X135123000Y-111670000D01*
X137099000Y-111830000D02*
X135901000Y-111830000D01*
X137362000Y-111790000D02*
X135638000Y-111790000D01*
X137562000Y-111750000D02*
X135438000Y-111750000D01*
X137877000Y-111670000D02*
X137740000Y-111670000D01*
X138009000Y-111630000D02*
X137740000Y-111630000D01*
X138130000Y-111590000D02*
X137740000Y-111590000D01*
X138242000Y-111550000D02*
X137740000Y-111550000D01*
X138346000Y-111510000D02*
X137740000Y-111510000D01*
X138444000Y-111470000D02*
X137740000Y-111470000D01*
X138537000Y-111430000D02*
X137740000Y-111430000D01*
X138624000Y-111390000D02*
X137740000Y-111390000D01*
X138708000Y-111350000D02*
X137740000Y-111350000D01*
X138788000Y-111310000D02*
X137740000Y-111310000D01*
X138865000Y-111270000D02*
X137740000Y-111270000D01*
X138939000Y-111230000D02*
X137740000Y-111230000D01*
X139010000Y-111190000D02*
X137740000Y-111190000D01*
X139078000Y-111150000D02*
X137740000Y-111150000D01*
X139144000Y-111110000D02*
X137740000Y-111110000D01*
X139208000Y-111070000D02*
X137740000Y-111070000D01*
X139270000Y-111030000D02*
X137740000Y-111030000D01*
X139330000Y-110990000D02*
X137740000Y-110990000D01*
X139375000Y-101270354D02*
X139375000Y-102270354D01*
X139388000Y-110950000D02*
X137740000Y-110950000D01*
X139445000Y-110910000D02*
X137740000Y-110910000D01*
X139500000Y-110870000D02*
X137740000Y-110870000D01*
X139553000Y-110830000D02*
X137740000Y-110830000D01*
X139605000Y-110790000D02*
X137740000Y-110790000D01*
X139656000Y-110750000D02*
X137740000Y-110750000D01*
X139705000Y-110710000D02*
X137740000Y-110710000D01*
X139754000Y-110670000D02*
X137740000Y-110670000D01*
X139801000Y-110630000D02*
X137740000Y-110630000D01*
X139847000Y-110590000D02*
X137740000Y-110590000D01*
X139875000Y-101770354D02*
X138875000Y-101770354D01*
X139891000Y-110550000D02*
X137740000Y-110550000D01*
X139935000Y-110510000D02*
X137740000Y-110510000D01*
X139978000Y-110470000D02*
X137740000Y-110470000D01*
X140020000Y-110430000D02*
X137740000Y-110430000D01*
X140061000Y-110390000D02*
X137740000Y-110390000D01*
X140101000Y-110350000D02*
X137740000Y-110350000D01*
X140140000Y-110310000D02*
X137740000Y-110310000D01*
X140178000Y-110270000D02*
X137740000Y-110270000D01*
X140216000Y-110230000D02*
X137740000Y-110230000D01*
X140252000Y-110190000D02*
X137740000Y-110190000D01*
X140288000Y-110150000D02*
X137740000Y-110150000D01*
X140323000Y-110110000D02*
X137740000Y-110110000D01*
X140358000Y-110070000D02*
X137740000Y-110070000D01*
X140391000Y-110030000D02*
X137740000Y-110030000D01*
X140424000Y-109990000D02*
X137740000Y-109990000D01*
X140457000Y-109950000D02*
X137740000Y-109950000D01*
X140488000Y-109910000D02*
X137740000Y-109910000D01*
X140520000Y-109870000D02*
X137740000Y-109870000D01*
X140550000Y-109830000D02*
X137740000Y-109830000D01*
X140580000Y-109790000D02*
X137740000Y-109790000D01*
X140609000Y-109750000D02*
X137740000Y-109750000D01*
X140638000Y-109710000D02*
X137740000Y-109710000D01*
X140666000Y-109670000D02*
X137740000Y-109670000D01*
X140693000Y-109630000D02*
X137740000Y-109630000D01*
X140720000Y-109590000D02*
X137740000Y-109590000D01*
X140747000Y-109550000D02*
X137740000Y-109550000D01*
X140772000Y-109510000D02*
X137740000Y-109510000D01*
X140798000Y-109470000D02*
X137740000Y-109470000D01*
X140823000Y-109430000D02*
X137740000Y-109430000D01*
X140847000Y-109390000D02*
X137740000Y-109390000D01*
X140871000Y-109350000D02*
X137740000Y-109350000D01*
X140894000Y-109310000D02*
X137740000Y-109310000D01*
X140917000Y-109270000D02*
X137740000Y-109270000D01*
X140939000Y-109230000D02*
X132061000Y-109230000D01*
X140961000Y-109190000D02*
X132039000Y-109190000D01*
X140983000Y-109150000D02*
X132017000Y-109150000D01*
X141004000Y-109110000D02*
X131996000Y-109110000D01*
X141024000Y-109070000D02*
X131976000Y-109070000D01*
X141044000Y-109030000D02*
X131956000Y-109030000D01*
X141064000Y-108990000D02*
X131936000Y-108990000D01*
X141083000Y-108950000D02*
X131917000Y-108950000D01*
X141102000Y-108910000D02*
X131898000Y-108910000D01*
X141120000Y-108870000D02*
X131880000Y-108870000D01*
X141138000Y-108830000D02*
X131862000Y-108830000D01*
X141156000Y-108790000D02*
X131844000Y-108790000D01*
X141173000Y-108750000D02*
X131827000Y-108750000D01*
X141190000Y-108710000D02*
X131810000Y-108710000D01*
X141206000Y-108670000D02*
X131794000Y-108670000D01*
X141222000Y-108630000D02*
X131778000Y-108630000D01*
X141238000Y-108590000D02*
X131762000Y-108590000D01*
X141253000Y-108550000D02*
X131747000Y-108550000D01*
X141268000Y-108510000D02*
X131732000Y-108510000D01*
X141282000Y-108470000D02*
X131718000Y-108470000D01*
X141297000Y-108430000D02*
X131703000Y-108430000D01*
X141310000Y-108390000D02*
X131690000Y-108390000D01*
X141324000Y-108350000D02*
X131676000Y-108350000D01*
X141337000Y-108310000D02*
X131663000Y-108310000D01*
X141349000Y-108270000D02*
X131651000Y-108270000D01*
X141361000Y-108230000D02*
X131639000Y-108230000D01*
X141373000Y-108190000D02*
X131627000Y-108190000D01*
X141385000Y-108150000D02*
X131615000Y-108150000D01*
X141396000Y-108110000D02*
X131604000Y-108110000D01*
X141407000Y-108070000D02*
X131593000Y-108070000D01*
X141417000Y-108030000D02*
X131583000Y-108030000D01*
X141428000Y-107990000D02*
X131572000Y-107990000D01*
X141437000Y-107950000D02*
X131563000Y-107950000D01*
X141447000Y-107910000D02*
X131553000Y-107910000D01*
X141456000Y-107870000D02*
X131544000Y-107870000D01*
X141465000Y-107830000D02*
X131535000Y-107830000D01*
X141473000Y-107790000D02*
X131527000Y-107790000D01*
X141481000Y-107750000D02*
X131519000Y-107750000D01*
X141489000Y-107710000D02*
X131511000Y-107710000D01*
X141497000Y-107670000D02*
X131503000Y-107670000D01*
X141504000Y-107630000D02*
X131496000Y-107630000D01*
X141511000Y-107590000D02*
X131489000Y-107590000D01*
X141517000Y-107550000D02*
X131483000Y-107550000D01*
X141523000Y-107510000D02*
X131477000Y-107510000D01*
X141529000Y-107470000D02*
X131471000Y-107470000D01*
X141535000Y-107430000D02*
X131465000Y-107430000D01*
X141540000Y-107390000D02*
X131460000Y-107390000D01*
X141545000Y-107350000D02*
X131455000Y-107350000D01*
X141549000Y-107310000D02*
X131451000Y-107310000D01*
X141554000Y-107270000D02*
X131446000Y-107270000D01*
X141557000Y-107230000D02*
X131443000Y-107230000D01*
X141561000Y-107190000D02*
X131439000Y-107190000D01*
X141564000Y-107150000D02*
X131436000Y-107150000D01*
X141567000Y-107110000D02*
X131433000Y-107110000D01*
X141570000Y-107070000D02*
X131430000Y-107070000D01*
X141572000Y-107030000D02*
X131428000Y-107030000D01*
X141574000Y-106990000D02*
X131426000Y-106990000D01*
X141576000Y-106950000D02*
X131424000Y-106950000D01*
X141577000Y-106910000D02*
X131423000Y-106910000D01*
X141579000Y-106830000D02*
X131421000Y-106830000D01*
X141579000Y-106870000D02*
X131421000Y-106870000D01*
X141580000Y-106750000D02*
X131420000Y-106750000D01*
X141580000Y-106790000D02*
X131420000Y-106790000D01*
X137760000Y-101787460D02*
G75*
G02*
X135240000Y-101787460I-1260000J-4962540D01*
G01*
%TO.C,R21*%
X141587742Y-99977500D02*
X142062258Y-99977500D01*
X141587742Y-101022500D02*
X142062258Y-101022500D01*
%TO.C,R35*%
X122937742Y-105977500D02*
X123412258Y-105977500D01*
X122937742Y-107022500D02*
X123412258Y-107022500D01*
%TO.C,U2*%
X122508750Y-90407300D02*
X122508750Y-88457300D01*
X122508750Y-90407300D02*
X122508750Y-92357300D01*
X127628750Y-90407300D02*
X127628750Y-88457300D01*
X127628750Y-90407300D02*
X127628750Y-92357300D01*
X122603750Y-93107300D02*
X122273750Y-93347300D01*
X122273750Y-92867300D01*
X122603750Y-93107300D01*
G36*
X122603750Y-93107300D02*
G01*
X122273750Y-93347300D01*
X122273750Y-92867300D01*
X122603750Y-93107300D01*
G37*
%TO.C,R7*%
X123048992Y-94334800D02*
X123523508Y-94334800D01*
X123048992Y-95379800D02*
X123523508Y-95379800D01*
%TO.C,C13*%
X138265000Y-99238748D02*
X138265000Y-99761252D01*
X139735000Y-99238748D02*
X139735000Y-99761252D01*
%TO.C,U1*%
X124940000Y-102490000D02*
X125390000Y-102490000D01*
X124940000Y-102940000D02*
X124940000Y-102490000D01*
X124940000Y-105710000D02*
X124940000Y-105260000D01*
X125390000Y-105710000D02*
X124940000Y-105710000D01*
X127710000Y-102490000D02*
X128160000Y-102490000D01*
X128160000Y-102490000D02*
X128160000Y-102940000D01*
X128160000Y-105260000D02*
X128160000Y-105710000D01*
X128160000Y-105710000D02*
X127710000Y-105710000D01*
X125750000Y-106240000D02*
X125990000Y-106570000D01*
X125510000Y-106570000D01*
X125750000Y-106240000D01*
G36*
X125990000Y-106570000D02*
G01*
X125510000Y-106570000D01*
X125750000Y-106240000D01*
X125990000Y-106570000D01*
G37*
%TO.C,C8*%
X158490000Y-91365580D02*
X158490000Y-91084420D01*
X159510000Y-91365580D02*
X159510000Y-91084420D01*
%TO.C,U4*%
X135302500Y-97918750D02*
X136822500Y-97918750D01*
X135302500Y-97968750D02*
X135302500Y-97918750D01*
X135302500Y-99868750D02*
X135302500Y-99088750D01*
X135302500Y-101038750D02*
X135302500Y-100988750D01*
X136822500Y-97918750D02*
X136822500Y-98918750D01*
X136822500Y-100038750D02*
X136822500Y-101038750D01*
X136822500Y-101038750D02*
X135302500Y-101038750D01*
X134762500Y-99098750D02*
X135002500Y-99428750D01*
X134522500Y-99428750D01*
X134762500Y-99098750D01*
G36*
X135002500Y-99428750D02*
G01*
X134522500Y-99428750D01*
X134762500Y-99098750D01*
X135002500Y-99428750D01*
G37*
%TO.C,C18*%
X155915580Y-84490000D02*
X155634420Y-84490000D01*
X155915580Y-85510000D02*
X155634420Y-85510000D01*
%TO.C,R46*%
X121346359Y-109120000D02*
X121653641Y-109120000D01*
X121346359Y-109880000D02*
X121653641Y-109880000D01*
%TO.C,C15*%
X146765000Y-99365580D02*
X146765000Y-99084420D01*
X147785000Y-99365580D02*
X147785000Y-99084420D01*
%TD*%
%LPC*%
D14*
X124300000Y-102000000D02*
G75*
G02*
X123700000Y-102000000I-300000J0D01*
G01*
X123700000Y-102000000D02*
G75*
G02*
X124300000Y-102000000I300000J0D01*
G01*
D15*
X128250000Y-106500000D02*
G75*
G02*
X127750000Y-106500000I-250000J0D01*
G01*
X127750000Y-106500000D02*
G75*
G02*
X128250000Y-106500000I250000J0D01*
G01*
D16*
%TO.C,R17*%
X160500000Y-109500000D03*
X160500000Y-111150000D03*
%TD*%
D17*
%TO.C,R40*%
X162500000Y-109500000D03*
X162500000Y-111325000D03*
%TD*%
D18*
%TO.C,EG1192L1*%
X156150000Y-109405000D03*
D19*
X153650000Y-111310000D03*
X153650000Y-110040000D03*
X153650000Y-108770000D03*
X153650000Y-107500000D03*
X158650000Y-107500000D03*
X158650000Y-108770000D03*
X158650000Y-110040000D03*
X158650000Y-111310000D03*
%TD*%
D20*
%TO.C,Q1*%
X155220000Y-79200000D03*
D21*
X157500000Y-72900000D03*
D20*
X159780000Y-79200000D03*
%TD*%
D22*
%TO.C,C5*%
X131000000Y-103550000D03*
X131000000Y-102000000D03*
%TD*%
D23*
%TO.C,R23*%
X144792500Y-81700000D03*
X146442500Y-81700000D03*
%TD*%
D24*
%TO.C,R13*%
X122650000Y-96500000D03*
X121000000Y-96500000D03*
%TD*%
D20*
%TO.C,Q3*%
X135037500Y-78975000D03*
D21*
X137317500Y-72675000D03*
D20*
X139597500Y-78975000D03*
%TD*%
D23*
%TO.C,R32*%
X150850000Y-81700000D03*
X152500000Y-81700000D03*
%TD*%
%TO.C,R29*%
X147792500Y-81700000D03*
X149442500Y-81700000D03*
%TD*%
D20*
%TO.C,Q2*%
X145245000Y-78625000D03*
D21*
X147525000Y-72325000D03*
D20*
X149805000Y-78625000D03*
%TD*%
D23*
%TO.C,R24*%
X154127500Y-81700000D03*
X155777500Y-81700000D03*
%TD*%
%TO.C,R28*%
X157350000Y-81700000D03*
X159000000Y-81700000D03*
%TD*%
%TO.C,R30*%
X136850000Y-81500000D03*
X138500000Y-81500000D03*
%TD*%
%TO.C,R15*%
X127568750Y-85407300D03*
X129218750Y-85407300D03*
%TD*%
D25*
%TO.C,C7*%
X149950000Y-105500000D03*
X151500000Y-105500000D03*
%TD*%
D16*
%TO.C,R20*%
X153500000Y-106325000D03*
X153500000Y-104675000D03*
%TD*%
D25*
%TO.C,C19*%
X120950000Y-98000000D03*
X122500000Y-98000000D03*
%TD*%
D16*
%TO.C,R27*%
X143000000Y-83650000D03*
X143000000Y-82000000D03*
%TD*%
D23*
%TO.C,R9*%
X121243750Y-85407300D03*
X122893750Y-85407300D03*
%TD*%
D26*
%TO.C,R44*%
X123500000Y-105000000D03*
X122480000Y-105000000D03*
%TD*%
D27*
%TO.C,R38*%
X120000000Y-102000000D03*
X121020000Y-102000000D03*
%TD*%
D28*
%TO.C,R18*%
X151962500Y-110500000D03*
X149037500Y-110500000D03*
%TD*%
D23*
%TO.C,R25*%
X158000000Y-85000000D03*
X159650000Y-85000000D03*
%TD*%
D29*
%TO.C,C14*%
X155500000Y-95000000D03*
X153950000Y-95000000D03*
%TD*%
%TO.C,C17*%
X153500000Y-85500000D03*
X151950000Y-85500000D03*
%TD*%
D27*
%TO.C,R47*%
X120990000Y-110500000D03*
X122010000Y-110500000D03*
%TD*%
%TO.C,R45*%
X120990000Y-108500000D03*
X122010000Y-108500000D03*
%TD*%
D24*
%TO.C,R33*%
X141500000Y-81500000D03*
X139850000Y-81500000D03*
%TD*%
%TO.C,R31*%
X161985000Y-81700000D03*
X160335000Y-81700000D03*
%TD*%
D23*
%TO.C,R11*%
X125568750Y-94907300D03*
X127218750Y-94907300D03*
%TD*%
D30*
%TO.C,L1*%
X145500000Y-108000000D03*
X145500000Y-101900000D03*
%TD*%
D23*
%TO.C,R42*%
X141850000Y-67500000D03*
X143500000Y-67500000D03*
%TD*%
D31*
%TO.C,C6*%
X151500000Y-107000000D03*
X151500000Y-108550000D03*
%TD*%
D32*
%TO.C,C12*%
X133000000Y-98528750D03*
X133000000Y-100428750D03*
%TD*%
D16*
%TO.C,R16*%
X121111250Y-89007300D03*
X121111250Y-87357300D03*
%TD*%
D23*
%TO.C,R26*%
X154950000Y-83450000D03*
X156600000Y-83450000D03*
%TD*%
D24*
%TO.C,R22*%
X138500000Y-83000000D03*
X136850000Y-83000000D03*
%TD*%
D33*
%TO.C,C9*%
X159000000Y-105000000D03*
D34*
X159000000Y-97500000D03*
%TD*%
D27*
%TO.C,R36*%
X118480000Y-104500000D03*
X119500000Y-104500000D03*
%TD*%
D31*
%TO.C,C10*%
X150000000Y-98950000D03*
X150000000Y-100500000D03*
%TD*%
D23*
%TO.C,R14*%
X124000000Y-99000000D03*
X125650000Y-99000000D03*
%TD*%
D35*
%TO.C,R12*%
X121111250Y-90707300D03*
X121111250Y-92357300D03*
%TD*%
D36*
%TO.C,D1*%
X146987500Y-110500000D03*
X144012500Y-110500000D03*
%TD*%
D37*
%TO.C,U3*%
X149650000Y-93225000D03*
X150300000Y-93225000D03*
X150950000Y-93225000D03*
X151600000Y-93225000D03*
X152250000Y-93225000D03*
X152900000Y-93225000D03*
X153550000Y-93225000D03*
X154200000Y-93225000D03*
X154850000Y-93225000D03*
X155500000Y-93225000D03*
X155500000Y-87500000D03*
X154850000Y-87500000D03*
X154200000Y-87500000D03*
X153550000Y-87500000D03*
X152900000Y-87500000D03*
X152250000Y-87500000D03*
X151600000Y-87500000D03*
X150950000Y-87500000D03*
X150300000Y-87500000D03*
X149650000Y-87500000D03*
%TD*%
D27*
%TO.C,R37*%
X119500000Y-103500000D03*
X120520000Y-103500000D03*
%TD*%
D25*
%TO.C,C4*%
X124000000Y-96500000D03*
X125550000Y-96500000D03*
%TD*%
D24*
%TO.C,R19*%
X151550000Y-104000000D03*
X149900000Y-104000000D03*
%TD*%
D23*
%TO.C,R41*%
X129675000Y-68000000D03*
X131325000Y-68000000D03*
%TD*%
D25*
%TO.C,C3*%
X124518750Y-85407300D03*
X126068750Y-85407300D03*
%TD*%
D31*
%TO.C,C16*%
X150225000Y-84225000D03*
X150225000Y-85775000D03*
%TD*%
D23*
%TO.C,R43*%
X152675000Y-67500000D03*
X154325000Y-67500000D03*
%TD*%
D29*
%TO.C,C20*%
X124500000Y-100500000D03*
X122950000Y-100500000D03*
%TD*%
D38*
%TO.C,C11*%
X136500000Y-103000000D03*
D34*
X136500000Y-110500000D03*
%TD*%
D23*
%TO.C,R21*%
X141000000Y-100500000D03*
X142650000Y-100500000D03*
%TD*%
%TO.C,R35*%
X122350000Y-106500000D03*
X124000000Y-106500000D03*
%TD*%
D39*
%TO.C,U2*%
X123163750Y-93032300D03*
X124433750Y-93032300D03*
X125703750Y-93032300D03*
X126973750Y-93032300D03*
X126973750Y-87782300D03*
X125703750Y-87782300D03*
X124433750Y-87782300D03*
X123163750Y-87782300D03*
%TD*%
D23*
%TO.C,R7*%
X122461250Y-94857300D03*
X124111250Y-94857300D03*
%TD*%
D32*
%TO.C,C13*%
X139000000Y-98550000D03*
X139000000Y-100450000D03*
%TD*%
D40*
%TO.C,U1*%
X125750000Y-105550000D03*
X126150000Y-105550000D03*
X126550000Y-105550000D03*
X126950000Y-105550000D03*
X127350000Y-105550000D03*
D41*
X128000000Y-104900000D03*
X128000000Y-104500000D03*
X128000000Y-104100000D03*
X128000000Y-103700000D03*
X128000000Y-103300000D03*
D40*
X127350000Y-102650000D03*
X126950000Y-102650000D03*
X126550000Y-102650000D03*
X126150000Y-102650000D03*
X125750000Y-102650000D03*
D41*
X125100000Y-103300000D03*
X125100000Y-103700000D03*
X125100000Y-104100000D03*
X125100000Y-104500000D03*
X125100000Y-104900000D03*
D42*
X126550000Y-104100000D03*
%TD*%
D22*
%TO.C,C8*%
X159000000Y-92000000D03*
X159000000Y-90450000D03*
%TD*%
D43*
%TO.C,U4*%
X135125000Y-98528750D03*
X135125000Y-100428750D03*
X137000000Y-99478750D03*
%TD*%
D29*
%TO.C,C18*%
X156550000Y-85000000D03*
X155000000Y-85000000D03*
%TD*%
D27*
%TO.C,R46*%
X120990000Y-109500000D03*
X122010000Y-109500000D03*
%TD*%
D22*
%TO.C,C15*%
X147275000Y-100000000D03*
X147275000Y-98450000D03*
%TD*%
D44*
X161500000Y-87500000D03*
X157000000Y-66000000D03*
D45*
X129950000Y-107099999D03*
D46*
X129000000Y-111149997D03*
D47*
X165500000Y-65500000D03*
X166000000Y-110700000D03*
D46*
X126950000Y-106950000D03*
D44*
X161500000Y-94000000D03*
D47*
X119800000Y-65300000D03*
D45*
X125000000Y-111000000D03*
D44*
X134500000Y-66600000D03*
X147000000Y-66300000D03*
D48*
X119000000Y-108000000D03*
X119000000Y-111000000D03*
X119000000Y-109500000D03*
D46*
X126249997Y-111149997D03*
X127500000Y-111149997D03*
X131000000Y-111149997D03*
%LPD*%
M02*
