%TF.GenerationSoftware,KiCad,Pcbnew,10.0.5*%
%TF.CreationDate,2026-08-01T00:29:04+08:00*%
%TF.ProjectId,wfoc,77666f63-2e6b-4696-9361-645f70636258,rev?*%
%TF.SameCoordinates,Original*%
%TF.FileFunction,Soldermask,Top*%
%TF.FilePolarity,Negative*%
%FSLAX46Y46*%
G04 Gerber Fmt 4.6, Leading zero omitted, Abs format (unit mm)*
G04 Created by KiCad (PCBNEW 10.0.5) date 2026-08-01 00:29:04*
%MOMM*%
%LPD*%
G01*
G04 APERTURE LIST*
G04 Aperture macros list*
%AMRoundRect*
0 Rectangle with rounded corners*
0 $1 Rounding radius*
0 $2 $3 $4 $5 $6 $7 $8 $9 X,Y pos of 4 corners*
0 Add a 4 corners polygon primitive as box body*
4,1,4,$2,$3,$4,$5,$6,$7,$8,$9,$2,$3,0*
0 Add four circle primitives for the rounded corners*
1,1,$1+$1,$2,$3*
1,1,$1+$1,$4,$5*
1,1,$1+$1,$6,$7*
1,1,$1+$1,$8,$9*
0 Add four rect primitives between the rounded corners*
20,1,$1+$1,$2,$3,$4,$5,0*
20,1,$1+$1,$4,$5,$6,$7,0*
20,1,$1+$1,$6,$7,$8,$9,0*
20,1,$1+$1,$8,$9,$2,$3,0*%
G04 Aperture macros list end*
%ADD10C,0.600000*%
%ADD11C,0.500000*%
%ADD12RoundRect,0.135000X-0.135000X-0.185000X0.135000X-0.185000X0.135000X0.185000X-0.135000X0.185000X0*%
%ADD13RoundRect,0.250000X1.000000X-1.950000X1.000000X1.950000X-1.000000X1.950000X-1.000000X-1.950000X0*%
%ADD14RoundRect,0.250000X0.350000X-0.850000X0.350000X0.850000X-0.350000X0.850000X-0.350000X-0.850000X0*%
%ADD15RoundRect,0.249997X2.650003X-2.950003X2.650003X2.950003X-2.650003X2.950003X-2.650003X-2.950003X0*%
%ADD16RoundRect,0.225000X0.250000X-0.225000X0.250000X0.225000X-0.250000X0.225000X-0.250000X-0.225000X0*%
%ADD17RoundRect,0.200000X-0.200000X-0.275000X0.200000X-0.275000X0.200000X0.275000X-0.200000X0.275000X0*%
%ADD18RoundRect,0.200000X0.200000X0.275000X-0.200000X0.275000X-0.200000X-0.275000X0.200000X-0.275000X0*%
%ADD19RoundRect,0.250000X-1.000000X1.950000X-1.000000X-1.950000X1.000000X-1.950000X1.000000X1.950000X0*%
%ADD20RoundRect,0.225000X-0.225000X-0.250000X0.225000X-0.250000X0.225000X0.250000X-0.225000X0.250000X0*%
%ADD21RoundRect,0.200000X0.275000X-0.200000X0.275000X0.200000X-0.275000X0.200000X-0.275000X-0.200000X0*%
%ADD22RoundRect,0.135000X0.135000X0.185000X-0.135000X0.185000X-0.135000X-0.185000X0.135000X-0.185000X0*%
%ADD23RoundRect,0.250000X0.312500X0.625000X-0.312500X0.625000X-0.312500X-0.625000X0.312500X-0.625000X0*%
%ADD24RoundRect,0.225000X0.225000X0.250000X-0.225000X0.250000X-0.225000X-0.250000X0.225000X-0.250000X0*%
%ADD25RoundRect,0.250000X0.450000X-0.262500X0.450000X0.262500X-0.450000X0.262500X-0.450000X-0.262500X0*%
%ADD26RoundRect,0.175000X0.460000X0.175000X-0.460000X0.175000X-0.460000X-0.175000X0.460000X-0.175000X0*%
%ADD27R,2.413000X3.302000*%
%ADD28R,3.000000X2.350000*%
%ADD29RoundRect,0.225000X-0.250000X0.225000X-0.250000X-0.225000X0.250000X-0.225000X0.250000X0.225000X0*%
%ADD30RoundRect,0.250000X-0.475000X0.250000X-0.475000X-0.250000X0.475000X-0.250000X0.475000X0.250000X0*%
%ADD31RoundRect,0.200000X-0.275000X0.200000X-0.275000X-0.200000X0.275000X-0.200000X0.275000X0.200000X0*%
%ADD32RoundRect,0.250001X0.462499X0.624999X-0.462499X0.624999X-0.462499X-0.624999X0.462499X-0.624999X0*%
%ADD33RoundRect,0.100000X0.100000X-0.637500X0.100000X0.637500X-0.100000X0.637500X-0.100000X-0.637500X0*%
%ADD34RoundRect,0.250000X-0.750000X0.750000X-0.750000X-0.750000X0.750000X-0.750000X0.750000X0.750000X0*%
%ADD35C,2.000000*%
%ADD36RoundRect,0.150000X0.150000X-0.675000X0.150000X0.675000X-0.150000X0.675000X-0.150000X-0.675000X0*%
%ADD37RoundRect,0.050000X0.050000X-0.230000X0.050000X0.230000X-0.050000X0.230000X-0.050000X-0.230000X0*%
%ADD38RoundRect,0.050000X0.230000X-0.050000X0.230000X0.050000X-0.230000X0.050000X-0.230000X-0.050000X0*%
%ADD39R,1.500000X1.500000*%
%ADD40RoundRect,0.150000X-0.587500X-0.150000X0.587500X-0.150000X0.587500X0.150000X-0.587500X0.150000X0*%
%ADD41C,0.800000*%
%ADD42C,4.000000*%
%ADD43C,0.500000*%
%ADD44C,0.600000*%
%ADD45C,3.000000*%
G04 APERTURE END LIST*
D10*
X124300000Y-102000000D02*
G75*
G02*
X123700000Y-102000000I-300000J0D01*
G01*
X123700000Y-102000000D02*
G75*
G02*
X124300000Y-102000000I300000J0D01*
G01*
D11*
X128250000Y-106500000D02*
G75*
G02*
X127750000Y-106500000I-250000J0D01*
G01*
X127750000Y-106500000D02*
G75*
G02*
X128250000Y-106500000I250000J0D01*
G01*
D12*
%TO.C,R36*%
X119500000Y-104500000D03*
X118480000Y-104500000D03*
%TD*%
D13*
%TO.C,C9*%
X161500000Y-96000000D03*
X161500000Y-104400000D03*
%TD*%
D14*
%TO.C,Q1*%
X153195000Y-78475000D03*
D15*
X155475000Y-72175000D03*
D14*
X157755000Y-78475000D03*
%TD*%
D16*
%TO.C,C5*%
X131000000Y-103050000D03*
X131000000Y-101500000D03*
%TD*%
D17*
%TO.C,R23*%
X144792500Y-81700000D03*
X146442500Y-81700000D03*
%TD*%
D18*
%TO.C,R13*%
X122650000Y-96500000D03*
X121000000Y-96500000D03*
%TD*%
D14*
%TO.C,Q3*%
X135695000Y-78975000D03*
D15*
X137975000Y-72675000D03*
D14*
X140255000Y-78975000D03*
%TD*%
D17*
%TO.C,R32*%
X147850000Y-83500000D03*
X149500000Y-83500000D03*
%TD*%
%TO.C,R29*%
X147792500Y-81700000D03*
X149442500Y-81700000D03*
%TD*%
D14*
%TO.C,Q2*%
X144695000Y-78475000D03*
D15*
X146975000Y-72175000D03*
D14*
X149255000Y-78475000D03*
%TD*%
D17*
%TO.C,R24*%
X154175000Y-81000000D03*
X155825000Y-81000000D03*
%TD*%
%TO.C,R28*%
X157175000Y-81000000D03*
X158825000Y-81000000D03*
%TD*%
D19*
%TO.C,C9*%
X126500000Y-70800000D03*
X126500000Y-79200000D03*
%TD*%
D17*
%TO.C,R30*%
X137850000Y-81400000D03*
X139500000Y-81400000D03*
%TD*%
%TO.C,R15*%
X127568750Y-85407300D03*
X129218750Y-85407300D03*
%TD*%
D20*
%TO.C,C7*%
X149950000Y-105500000D03*
X151500000Y-105500000D03*
%TD*%
D21*
%TO.C,R20*%
X153500000Y-106325000D03*
X153500000Y-104675000D03*
%TD*%
D20*
%TO.C,C19*%
X120950000Y-98000000D03*
X122500000Y-98000000D03*
%TD*%
D21*
%TO.C,R27*%
X142000000Y-84550000D03*
X142000000Y-82900000D03*
%TD*%
D17*
%TO.C,R9*%
X121243750Y-85407300D03*
X122893750Y-85407300D03*
%TD*%
D22*
%TO.C,R44*%
X123500000Y-105000000D03*
X122480000Y-105000000D03*
%TD*%
D12*
%TO.C,R38*%
X120000000Y-102000000D03*
X121020000Y-102000000D03*
%TD*%
D23*
%TO.C,R18*%
X151962500Y-110500000D03*
X149037500Y-110500000D03*
%TD*%
D21*
%TO.C,R25*%
X159500000Y-84825000D03*
X159500000Y-83175000D03*
%TD*%
D16*
%TO.C,C14*%
X155000000Y-97500000D03*
X155000000Y-95950000D03*
%TD*%
D24*
%TO.C,C17*%
X154300000Y-84500000D03*
X152750000Y-84500000D03*
%TD*%
D12*
%TO.C,R47*%
X120990000Y-110500000D03*
X122010000Y-110500000D03*
%TD*%
D25*
%TO.C,R40*%
X162500000Y-111325000D03*
X162500000Y-109500000D03*
%TD*%
D12*
%TO.C,R45*%
X120990000Y-108500000D03*
X122010000Y-108500000D03*
%TD*%
D26*
%TO.C,EG1192L1*%
X158650000Y-111310000D03*
X158650000Y-110040000D03*
X158650000Y-108770000D03*
X158650000Y-107500000D03*
X153650000Y-107500000D03*
X153650000Y-108770000D03*
X153650000Y-110040000D03*
X153650000Y-111310000D03*
D27*
X156150000Y-109405000D03*
%TD*%
D18*
%TO.C,R33*%
X139500000Y-83500000D03*
X137850000Y-83500000D03*
%TD*%
D17*
%TO.C,R31*%
X160335000Y-81000000D03*
X161985000Y-81000000D03*
%TD*%
%TO.C,R11*%
X125568750Y-94907300D03*
X127218750Y-94907300D03*
%TD*%
D28*
%TO.C,L1*%
X145500000Y-108000000D03*
X145500000Y-101900000D03*
%TD*%
D21*
%TO.C,R17*%
X160500000Y-111150000D03*
X160500000Y-109500000D03*
%TD*%
D17*
%TO.C,R42*%
X141850000Y-67500000D03*
X143500000Y-67500000D03*
%TD*%
D29*
%TO.C,C6*%
X151500000Y-107000000D03*
X151500000Y-108550000D03*
%TD*%
D30*
%TO.C,C12*%
X133000000Y-98528750D03*
X133000000Y-100428750D03*
%TD*%
D21*
%TO.C,R16*%
X121111250Y-89007300D03*
X121111250Y-87357300D03*
%TD*%
D17*
%TO.C,R26*%
X154175000Y-82500000D03*
X155825000Y-82500000D03*
%TD*%
D18*
%TO.C,R22*%
X143325000Y-81400000D03*
X141675000Y-81400000D03*
%TD*%
D29*
%TO.C,C10*%
X150000000Y-98500000D03*
X150000000Y-100050000D03*
%TD*%
D17*
%TO.C,R14*%
X124000000Y-99000000D03*
X125650000Y-99000000D03*
%TD*%
D31*
%TO.C,R12*%
X121111250Y-90707300D03*
X121111250Y-92357300D03*
%TD*%
D32*
%TO.C,D1*%
X146987500Y-110500000D03*
X144012500Y-110500000D03*
%TD*%
D33*
%TO.C,U3*%
X151650000Y-92725000D03*
X152300000Y-92725000D03*
X152950000Y-92725000D03*
X153600000Y-92725000D03*
X154250000Y-92725000D03*
X154900000Y-92725000D03*
X155550000Y-92725000D03*
X156200000Y-92725000D03*
X156850000Y-92725000D03*
X157500000Y-92725000D03*
X157500000Y-87000000D03*
X156850000Y-87000000D03*
X156200000Y-87000000D03*
X155550000Y-87000000D03*
X154900000Y-87000000D03*
X154250000Y-87000000D03*
X153600000Y-87000000D03*
X152950000Y-87000000D03*
X152300000Y-87000000D03*
X151650000Y-87000000D03*
%TD*%
D12*
%TO.C,R37*%
X119500000Y-103500000D03*
X120520000Y-103500000D03*
%TD*%
D20*
%TO.C,C4*%
X124000000Y-96500000D03*
X125550000Y-96500000D03*
%TD*%
D18*
%TO.C,R19*%
X151550000Y-104000000D03*
X149900000Y-104000000D03*
%TD*%
D17*
%TO.C,R41*%
X129675000Y-68000000D03*
X131325000Y-68000000D03*
%TD*%
D20*
%TO.C,C3*%
X124518750Y-85407300D03*
X126068750Y-85407300D03*
%TD*%
D29*
%TO.C,C16*%
X151000000Y-83450000D03*
X151000000Y-85000000D03*
%TD*%
D17*
%TO.C,R43*%
X152675000Y-67500000D03*
X154325000Y-67500000D03*
%TD*%
D24*
%TO.C,C20*%
X124500000Y-100500000D03*
X122950000Y-100500000D03*
%TD*%
D34*
%TO.C,C11*%
X138300000Y-103855712D03*
X136300000Y-104527856D03*
D35*
X136300000Y-109527856D03*
X134300000Y-110200000D03*
%TD*%
D17*
%TO.C,R21*%
X141000000Y-100500000D03*
X142650000Y-100500000D03*
%TD*%
%TO.C,R35*%
X122350000Y-106500000D03*
X124000000Y-106500000D03*
%TD*%
D36*
%TO.C,U2*%
X123163750Y-93032300D03*
X124433750Y-93032300D03*
X125703750Y-93032300D03*
X126973750Y-93032300D03*
X126973750Y-87782300D03*
X125703750Y-87782300D03*
X124433750Y-87782300D03*
X123163750Y-87782300D03*
%TD*%
D17*
%TO.C,R7*%
X122461250Y-94857300D03*
X124111250Y-94857300D03*
%TD*%
D30*
%TO.C,C13*%
X139000000Y-98550000D03*
X139000000Y-100450000D03*
%TD*%
D37*
%TO.C,U1*%
X125750000Y-105550000D03*
X126150000Y-105550000D03*
X126550000Y-105550000D03*
X126950000Y-105550000D03*
X127350000Y-105550000D03*
D38*
X128000000Y-104900000D03*
X128000000Y-104500000D03*
X128000000Y-104100000D03*
X128000000Y-103700000D03*
X128000000Y-103300000D03*
D37*
X127350000Y-102650000D03*
X126950000Y-102650000D03*
X126550000Y-102650000D03*
X126150000Y-102650000D03*
X125750000Y-102650000D03*
D38*
X125100000Y-103300000D03*
X125100000Y-103700000D03*
X125100000Y-104100000D03*
X125100000Y-104500000D03*
X125100000Y-104900000D03*
D39*
X126550000Y-104100000D03*
%TD*%
D20*
%TO.C,C8*%
X163450000Y-78500000D03*
X165000000Y-78500000D03*
%TD*%
D40*
%TO.C,U4*%
X135125000Y-98528750D03*
X135125000Y-100428750D03*
X137000000Y-99478750D03*
%TD*%
D24*
%TO.C,C18*%
X157500000Y-84500000D03*
X155950000Y-84500000D03*
%TD*%
D12*
%TO.C,R46*%
X120990000Y-109500000D03*
X122010000Y-109500000D03*
%TD*%
D16*
%TO.C,C15*%
X147275000Y-100000000D03*
X147275000Y-98450000D03*
%TD*%
D41*
X158500000Y-94000000D03*
X159500000Y-93000000D03*
X158500000Y-93000000D03*
X157000000Y-95500000D03*
D42*
X163000000Y-85500000D03*
D41*
X126000000Y-73500000D03*
X153000000Y-76000000D03*
X126500000Y-71000000D03*
X162000000Y-68500000D03*
X131500000Y-70500000D03*
X134000000Y-75500000D03*
X162000000Y-71500000D03*
X134500000Y-70500000D03*
X166500000Y-70000000D03*
X127500000Y-73500000D03*
X163500000Y-71500000D03*
X127500000Y-75500000D03*
X126000000Y-75500000D03*
X130000000Y-70500000D03*
X165000000Y-68500000D03*
X163500000Y-68500000D03*
X166500000Y-68500000D03*
X162000000Y-70000000D03*
X129500000Y-73500000D03*
D42*
X163000000Y-74500000D03*
D41*
X134000000Y-76500000D03*
X165000000Y-70000000D03*
X144000000Y-76500000D03*
X163500000Y-70000000D03*
X133000000Y-70500000D03*
X165000000Y-71500000D03*
X133000000Y-76500000D03*
X133000000Y-75500000D03*
X166500000Y-71500000D03*
X129500000Y-75500000D03*
X128500000Y-70500000D03*
X159000000Y-78500000D03*
D42*
X157000000Y-66000000D03*
D41*
X156500000Y-78500000D03*
X160000000Y-79500000D03*
X158000000Y-77500000D03*
X158000000Y-79500000D03*
X156500000Y-77500000D03*
X159000000Y-77500000D03*
X160000000Y-77500000D03*
X160000000Y-78500000D03*
X159000000Y-79500000D03*
X158000000Y-78500000D03*
X156500000Y-79500000D03*
D43*
X129950000Y-107099999D03*
D44*
X129000000Y-111149997D03*
D41*
X152500000Y-80500000D03*
X163500000Y-82000000D03*
X147000000Y-91500000D03*
X140000000Y-91500000D03*
X163500000Y-80500000D03*
X163000000Y-89500000D03*
X141000000Y-91500000D03*
X163000000Y-88500000D03*
X164000000Y-90500000D03*
X160000000Y-91500000D03*
X163000000Y-91500000D03*
X162000000Y-89500000D03*
X133000000Y-84000000D03*
D45*
X165500000Y-65500000D03*
D41*
X133000000Y-78500000D03*
X136000000Y-91425000D03*
X161500000Y-66000000D03*
X130500000Y-84000000D03*
X161500000Y-83000000D03*
X138000000Y-91500000D03*
X149000000Y-91500000D03*
X144000000Y-91500000D03*
X162000000Y-91500000D03*
X137000000Y-91500000D03*
X148000000Y-91500000D03*
D45*
X166000000Y-110700000D03*
D41*
X133000000Y-81500000D03*
D44*
X126950000Y-106950000D03*
D41*
X158500000Y-86000000D03*
X161000000Y-91500000D03*
X154000000Y-64000000D03*
X161500000Y-64500000D03*
X163000000Y-83000000D03*
X145000000Y-91500000D03*
X133000000Y-79500000D03*
X143000000Y-91500000D03*
X133000000Y-83000000D03*
X152000000Y-64000000D03*
X146000000Y-91500000D03*
X163000000Y-90500000D03*
X139000000Y-91500000D03*
X152500000Y-81500000D03*
X162000000Y-88500000D03*
D45*
X119800000Y-65300000D03*
D41*
X150500000Y-90500000D03*
X150500000Y-89500000D03*
X164000000Y-83000000D03*
X150500000Y-91500000D03*
X150500000Y-64000000D03*
X162000000Y-90500000D03*
X159000000Y-89000000D03*
X159000000Y-90000000D03*
X164000000Y-89500000D03*
X164000000Y-88500000D03*
D43*
X125000000Y-111000000D03*
D41*
X164000000Y-91500000D03*
X135000000Y-91500000D03*
X133000000Y-80500000D03*
X138500000Y-79000000D03*
X141500000Y-80000000D03*
X141500000Y-78000000D03*
X142000000Y-79000000D03*
X138500000Y-78000000D03*
X140500000Y-80000000D03*
X140500000Y-78000000D03*
D42*
X138500000Y-66600000D03*
D41*
X139500000Y-80000000D03*
X141000000Y-79000000D03*
X139500000Y-78000000D03*
X140250000Y-79000000D03*
X139500000Y-79000000D03*
X138500000Y-80000000D03*
X143500000Y-87000000D03*
X144000000Y-85500000D03*
X143500000Y-84500000D03*
X148500000Y-86000000D03*
X145500000Y-83000000D03*
X142500000Y-86500000D03*
X146000000Y-87000000D03*
X144500000Y-84500000D03*
X147500000Y-85000000D03*
X145000000Y-86500000D03*
X146000000Y-86000000D03*
X148500000Y-85000000D03*
X146500000Y-84000000D03*
X147480025Y-87019975D03*
X145000000Y-85000000D03*
X149500000Y-86000000D03*
X148500000Y-79500000D03*
X147500000Y-79500000D03*
X149500000Y-77500000D03*
D42*
X147000000Y-66300000D03*
D41*
X149500000Y-78500000D03*
X150500000Y-77500000D03*
X149500000Y-79500000D03*
X148500000Y-78500000D03*
X147500000Y-77500000D03*
X147500000Y-78500000D03*
X150500000Y-79500000D03*
X150500000Y-78500000D03*
X148500000Y-77500000D03*
X119000000Y-108000000D03*
X119000000Y-111000000D03*
X135500000Y-82500000D03*
X135000000Y-84500000D03*
X140000000Y-86500000D03*
X139000000Y-85500000D03*
X136000000Y-84500000D03*
X138000000Y-85500000D03*
X137500000Y-86500000D03*
X136000000Y-83500000D03*
X135000000Y-83500000D03*
X137000000Y-85500000D03*
X135000000Y-85500000D03*
X136500000Y-86500000D03*
X140500000Y-85000000D03*
X136500000Y-82500000D03*
X139000000Y-86500000D03*
X135500000Y-86500000D03*
X136000000Y-85500000D03*
X119000000Y-109500000D03*
D44*
X126249997Y-111149997D03*
X127500000Y-111149997D03*
X131000000Y-111149997D03*
M02*
