%TF.GenerationSoftware,KiCad,Pcbnew,10.0.4*%
%TF.CreationDate,2026-07-19T18:30:54+08:00*%
%TF.ProjectId,wfoc,77666f63-2e6b-4696-9361-645f70636258,rev?*%
%TF.SameCoordinates,Original*%
%TF.FileFunction,Copper,L2,Bot*%
%TF.FilePolarity,Positive*%
%FSLAX46Y46*%
G04 Gerber Fmt 4.6, Leading zero omitted, Abs format (unit mm)*
G04 Created by KiCad (PCBNEW 10.0.4) date 2026-07-19 18:30:54*
%MOMM*%
%LPD*%
G01*
G04 APERTURE LIST*
G04 Aperture macros list*
%AMRoundRect*
0 Rectangle with rounded corners*
0 $1 Rounding radius*
0 $2 $3 $4 $5 $6 $7 $8 $9 X,Y pos of 4 corners*
0 Add a 4 corners polygon primitive as box body*
4,1,4,$2,$3,$4,$5,$6,$7,$8,$9,$2,$3,0*
0 Add four circle primitives for the rounded corners*
1,1,$1+$1,$2,$3*
1,1,$1+$1,$4,$5*
1,1,$1+$1,$6,$7*
1,1,$1+$1,$8,$9*
0 Add four rect primitives between the rounded corners*
20,1,$1+$1,$2,$3,$4,$5,0*
20,1,$1+$1,$4,$5,$6,$7,0*
20,1,$1+$1,$6,$7,$8,$9,0*
20,1,$1+$1,$8,$9,$2,$3,0*%
G04 Aperture macros list end*
%TA.AperFunction,ComponentPad*%
%ADD10RoundRect,0.250000X0.750000X-0.750000X0.750000X0.750000X-0.750000X0.750000X-0.750000X-0.750000X0*%
%TD*%
%TA.AperFunction,ComponentPad*%
%ADD11C,2.000000*%
%TD*%
%TA.AperFunction,ComponentPad*%
%ADD12RoundRect,0.250000X-0.750000X0.750000X-0.750000X-0.750000X0.750000X-0.750000X0.750000X0.750000X0*%
%TD*%
%TA.AperFunction,SMDPad,CuDef*%
%ADD13RoundRect,0.200000X0.275000X-0.200000X0.275000X0.200000X-0.275000X0.200000X-0.275000X-0.200000X0*%
%TD*%
%TA.AperFunction,SMDPad,CuDef*%
%ADD14RoundRect,0.250000X0.350000X-0.850000X0.350000X0.850000X-0.350000X0.850000X-0.350000X-0.850000X0*%
%TD*%
%TA.AperFunction,SMDPad,CuDef*%
%ADD15RoundRect,0.249997X2.650003X-2.950003X2.650003X2.950003X-2.650003X2.950003X-2.650003X-2.950003X0*%
%TD*%
%TA.AperFunction,SMDPad,CuDef*%
%ADD16RoundRect,0.250000X1.425000X-0.362500X1.425000X0.362500X-1.425000X0.362500X-1.425000X-0.362500X0*%
%TD*%
%TA.AperFunction,SMDPad,CuDef*%
%ADD17RoundRect,0.200000X-0.200000X-0.275000X0.200000X-0.275000X0.200000X0.275000X-0.200000X0.275000X0*%
%TD*%
%TA.AperFunction,SMDPad,CuDef*%
%ADD18RoundRect,0.200000X0.200000X0.275000X-0.200000X0.275000X-0.200000X-0.275000X0.200000X-0.275000X0*%
%TD*%
%TA.AperFunction,ViaPad*%
%ADD19C,0.500000*%
%TD*%
%TA.AperFunction,ViaPad*%
%ADD20C,0.600000*%
%TD*%
%TA.AperFunction,ViaPad*%
%ADD21C,4.000000*%
%TD*%
%TA.AperFunction,ViaPad*%
%ADD22C,3.000000*%
%TD*%
%TA.AperFunction,ViaPad*%
%ADD23C,0.800000*%
%TD*%
%TA.AperFunction,Conductor*%
%ADD24C,0.200000*%
%TD*%
%TA.AperFunction,Conductor*%
%ADD25C,1.000000*%
%TD*%
%TA.AperFunction,Conductor*%
%ADD26C,0.600000*%
%TD*%
%TA.AperFunction,Conductor*%
%ADD27C,1.500000*%
%TD*%
%TA.AperFunction,Conductor*%
%ADD28C,0.500000*%
%TD*%
%TA.AperFunction,Conductor*%
%ADD29C,2.000000*%
%TD*%
%TA.AperFunction,Conductor*%
%ADD30C,6.000000*%
%TD*%
%TA.AperFunction,Conductor*%
%ADD31C,0.300000*%
%TD*%
G04 APERTURE END LIST*
D10*
%TO.P,C9,1*%
%TO.N,+BATT*%
X159000000Y-105000000D03*
D11*
%TO.P,C9,2*%
%TO.N,Ia_N*%
X159000000Y-97500000D03*
%TD*%
D12*
%TO.P,C11,1*%
%TO.N,+12V*%
X136500000Y-103000000D03*
D11*
%TO.P,C11,2*%
%TO.N,Ia_N*%
X136500000Y-110500000D03*
%TD*%
D13*
%TO.P,TH1,1*%
%TO.N,MotorTemp*%
X135500000Y-74500000D03*
%TO.P,TH1,2*%
%TO.N,+3.3V*%
X135500000Y-72850000D03*
%TD*%
D14*
%TO.P,Q5,1,G_1*%
%TO.N,LO3*%
X162220000Y-79200000D03*
D15*
%TO.P,Q5,2,D_2*%
%TO.N,Motor_W*%
X159940000Y-72900000D03*
D14*
%TO.P,Q5,3,S_3*%
%TO.N,Ia_N*%
X157660000Y-79200000D03*
%TD*%
D16*
%TO.P,R4,1*%
%TO.N,Ia_N*%
X143068750Y-91462500D03*
%TO.P,R4,2*%
%TO.N,Ib_P*%
X143068750Y-85537500D03*
%TD*%
%TO.P,R6,1*%
%TO.N,Ia_N*%
X134568750Y-91500000D03*
%TO.P,R6,2*%
%TO.N,Ia_P*%
X134568750Y-85575000D03*
%TD*%
D14*
%TO.P,Q6,1,G_1*%
%TO.N,LO2*%
X152572500Y-79200000D03*
D15*
%TO.P,Q6,2,D_2*%
%TO.N,Motor_V*%
X150292500Y-72900000D03*
D14*
%TO.P,Q6,3,S_3*%
%TO.N,Ib_P*%
X148012500Y-79200000D03*
%TD*%
D17*
%TO.P,R10,1*%
%TO.N,Net-(U2--INB)*%
X129243750Y-90000000D03*
%TO.P,R10,2*%
%TO.N,Ia_N*%
X130893750Y-90000000D03*
%TD*%
D18*
%TO.P,R5,1*%
%TO.N,Ib_P*%
X130893750Y-88500000D03*
%TO.P,R5,2*%
%TO.N,Net-(U2-+INA)*%
X129243750Y-88500000D03*
%TD*%
%TO.P,R8,1*%
%TO.N,Ia_N*%
X130893750Y-91500000D03*
%TO.P,R8,2*%
%TO.N,Net-(U2--INA)*%
X129243750Y-91500000D03*
%TD*%
D14*
%TO.P,Q4,1,G_1*%
%TO.N,LO1*%
X142072500Y-79200000D03*
D15*
%TO.P,Q4,2,D_2*%
%TO.N,Motor_U*%
X139792500Y-72900000D03*
D14*
%TO.P,Q4,3,S_3*%
%TO.N,Ia_P*%
X137512500Y-79200000D03*
%TD*%
D18*
%TO.P,R3,1*%
%TO.N,Ia_P*%
X130893750Y-87000000D03*
%TO.P,R3,2*%
%TO.N,Net-(U2-+INB)*%
X129243750Y-87000000D03*
%TD*%
D16*
%TO.P,R2,1*%
%TO.N,Ia_N*%
X138568750Y-91537500D03*
%TO.P,R2,2*%
%TO.N,Ia_P*%
X138568750Y-85612500D03*
%TD*%
%TO.P,R1,1*%
%TO.N,Ia_N*%
X147068750Y-91500000D03*
%TO.P,R1,2*%
%TO.N,Ib_P*%
X147068750Y-85575000D03*
%TD*%
D19*
%TO.N,Ia_N*%
X158650000Y-110040000D03*
X141500000Y-110500000D03*
X163500000Y-92500000D03*
X131000000Y-102000000D03*
X132000000Y-101500000D03*
X131500000Y-101000000D03*
X125000000Y-108500000D03*
X125000000Y-108000000D03*
X159000000Y-83000000D03*
D20*
%TO.N,+BATT*%
X164600000Y-75400000D03*
D19*
X144000000Y-72675000D03*
D20*
X166200000Y-74500000D03*
X166200000Y-71500000D03*
D19*
X164350000Y-75150000D03*
X145000000Y-72675000D03*
X165500000Y-72000000D03*
X166200000Y-75500000D03*
X155000000Y-74500000D03*
X135500000Y-76000000D03*
X155000000Y-76250848D03*
X145500000Y-72675000D03*
D21*
X161500000Y-87500000D03*
D19*
X165500000Y-70000000D03*
D20*
X164500000Y-72000000D03*
X164500000Y-70000000D03*
X166200000Y-73500000D03*
X166200000Y-72500000D03*
D21*
%TO.N,Motor_W*%
X157000000Y-66000000D03*
D19*
X159780000Y-79200000D03*
X159940000Y-78000000D03*
X159940000Y-78500000D03*
D20*
%TO.N,+3.3V*%
X121111250Y-92357300D03*
D19*
X129950000Y-107099999D03*
D20*
X129000000Y-111149997D03*
X122010000Y-108500000D03*
X132500000Y-73000000D03*
D19*
X121000000Y-84000000D03*
X120984275Y-87484275D03*
X131000000Y-103550000D03*
D20*
X121111250Y-95000000D03*
X121111250Y-94000000D03*
%TO.N,Ia_N*%
X131500000Y-93500000D03*
X126500000Y-75500000D03*
X150500000Y-97500000D03*
D19*
X163500000Y-96500000D03*
D20*
X158500000Y-88500000D03*
D19*
X131000000Y-102000000D03*
D20*
X128500000Y-72000000D03*
X154500000Y-97000000D03*
D19*
X118480000Y-104500000D03*
D20*
X129500000Y-78000000D03*
D19*
X153500000Y-104675000D03*
X131000000Y-90000000D03*
D20*
X134500000Y-91500000D03*
X138000000Y-92500000D03*
X129500000Y-65500000D03*
D19*
X166500000Y-104000000D03*
D20*
X139000000Y-92500000D03*
D19*
X120000000Y-102000000D03*
D20*
X143000000Y-65500000D03*
X152000000Y-91500000D03*
X143000000Y-91537500D03*
X123000000Y-111500000D03*
D19*
X127000000Y-109500000D03*
D20*
X130500000Y-66000000D03*
X125000000Y-71000000D03*
X123000000Y-110000000D03*
D19*
X166500000Y-101500000D03*
D20*
X121000000Y-75000000D03*
X128000000Y-83500000D03*
X123000000Y-69500000D03*
X132500000Y-111000000D03*
X128500000Y-93000000D03*
X163000000Y-66500000D03*
D19*
X129218750Y-85407300D03*
X166500000Y-102500000D03*
D20*
X154000000Y-91500000D03*
X120000000Y-106500000D03*
X126500000Y-73500000D03*
X129500000Y-66000000D03*
X133500000Y-82000000D03*
X134000000Y-92500000D03*
D19*
X126500000Y-109000000D03*
D20*
X165500000Y-67000000D03*
X123000000Y-69500000D03*
X126500000Y-98000000D03*
X153000000Y-91500000D03*
D19*
X157500000Y-94500000D03*
D20*
X124500000Y-77500000D03*
D19*
X147275000Y-98450000D03*
D20*
X135500000Y-91500000D03*
X160500000Y-90500000D03*
D22*
X165500000Y-65500000D03*
D19*
X157500000Y-93500000D03*
D20*
X140500000Y-66500000D03*
X151500000Y-65000000D03*
X121000000Y-100500000D03*
X135000000Y-82000000D03*
X142000000Y-64500000D03*
D19*
X133000000Y-98528750D03*
D20*
X142500000Y-98500000D03*
X157000000Y-92000000D03*
D19*
X120950000Y-98000000D03*
D20*
X145500000Y-92500000D03*
X135000000Y-92500000D03*
X150500000Y-91500000D03*
X153000000Y-65000000D03*
X133000000Y-92500000D03*
X147500000Y-92500000D03*
D19*
X127218750Y-94907300D03*
X161000000Y-107000000D03*
X157500000Y-95500000D03*
D20*
X146500000Y-92500000D03*
X147000000Y-91500000D03*
D19*
X135125000Y-98528750D03*
D20*
X152500000Y-101000000D03*
X121000000Y-81000000D03*
X131000000Y-79500000D03*
X139500000Y-91500000D03*
D19*
X162500000Y-107000000D03*
X164000000Y-107000000D03*
X159000000Y-92000000D03*
X127000000Y-109000000D03*
D20*
X141500000Y-92500000D03*
D19*
X122480000Y-105000000D03*
D22*
X166000000Y-110700000D03*
D20*
X126500000Y-81000000D03*
X133500000Y-81000000D03*
D19*
X122350000Y-106500000D03*
D20*
X126950000Y-106950000D03*
D19*
X150000000Y-98950000D03*
D20*
X151500000Y-102000000D03*
X142000000Y-91537500D03*
X133500000Y-83000000D03*
X157660000Y-79200000D03*
X148000000Y-91500000D03*
X147500000Y-95500000D03*
X124500000Y-83500000D03*
X133500000Y-91500000D03*
X142500000Y-92500000D03*
X133500000Y-95500000D03*
X129500000Y-82500000D03*
D19*
X142000000Y-110500000D03*
D20*
X138500000Y-91500000D03*
X162000000Y-91000000D03*
X136000000Y-95500000D03*
D19*
X119500000Y-103500000D03*
D20*
X119500000Y-107000000D03*
D19*
X131000000Y-91500000D03*
D20*
X146000000Y-91500000D03*
X151500000Y-97000000D03*
D19*
X126550000Y-104100000D03*
D20*
X127500000Y-97500000D03*
D21*
X161500000Y-94000000D03*
D20*
X130500000Y-81000000D03*
D19*
X155500000Y-95000000D03*
D20*
X123000000Y-108500000D03*
X125000000Y-82500000D03*
D19*
X164500000Y-96000000D03*
D20*
X144000000Y-98500000D03*
X157000000Y-90500000D03*
D19*
X160335000Y-81700000D03*
X139000000Y-98550000D03*
D20*
X122500000Y-79000000D03*
X145000000Y-95500000D03*
X145000000Y-98500000D03*
X128000000Y-65500000D03*
X121000000Y-111500000D03*
X127000000Y-69500000D03*
X141500000Y-95500000D03*
X161000000Y-64500000D03*
D19*
X166500000Y-105500000D03*
X127500000Y-109500000D03*
X122950000Y-100500000D03*
D20*
X143500000Y-65000000D03*
D22*
X119800000Y-65300000D03*
D20*
X135000000Y-81000000D03*
X126000000Y-83500000D03*
X122000000Y-111500000D03*
X129000000Y-74000000D03*
X131000000Y-65500000D03*
X137500000Y-91500000D03*
X129500000Y-79500000D03*
X143500000Y-92500000D03*
X137000000Y-92500000D03*
X138500000Y-95500000D03*
X125000000Y-68000000D03*
X126500000Y-82500000D03*
D19*
X127500000Y-109000000D03*
D20*
X124000000Y-75000000D03*
X130500000Y-78000000D03*
X135000000Y-83000000D03*
X128500000Y-81000000D03*
X122500000Y-73000000D03*
X139500000Y-65500000D03*
X128000000Y-79500000D03*
X122000000Y-76500000D03*
X120500000Y-100000000D03*
X123000000Y-102000000D03*
D19*
X125000000Y-111000000D03*
D20*
X120500000Y-78000000D03*
X144000000Y-91537500D03*
%TO.N,IC_ib*%
X122500000Y-96500000D03*
X128500000Y-101000000D03*
D19*
%TO.N,Motor_U*%
X139792500Y-78402500D03*
X139597500Y-78975000D03*
X139792500Y-77500000D03*
D21*
X134500000Y-66600000D03*
D19*
%TO.N,Ib_P*%
X150850000Y-81700000D03*
D20*
%TO.N,LO2*%
X152500000Y-81700000D03*
D21*
%TO.N,Motor_V*%
X147000000Y-66300000D03*
D19*
X149805000Y-77500000D03*
X149805000Y-78000000D03*
X149805000Y-78625000D03*
D20*
%TO.N,Net-(U2-+INB)*%
X124568750Y-89575000D03*
X129068750Y-87075000D03*
X127068750Y-88075000D03*
D19*
%TO.N,LO1*%
X142072500Y-79200000D03*
X141500000Y-79500000D03*
D20*
%TO.N,Net-(U2--INB)*%
X129000000Y-90075000D03*
D19*
%TO.N,MotorTemp*%
X123500000Y-105000000D03*
D20*
X132000000Y-74500000D03*
D19*
X129000000Y-96000000D03*
D23*
%TO.N,Vol_U*%
X119000000Y-108000000D03*
D20*
X121060000Y-105940000D03*
X121020000Y-102000000D03*
X121000000Y-108500000D03*
D19*
%TO.N,LO3*%
X162000000Y-79500000D03*
D23*
%TO.N,Vol_W*%
X119000000Y-111000000D03*
D19*
%TO.N,Ia_P*%
X139850000Y-81500000D03*
D20*
%TO.N,Net-(U2-+INA)*%
X125568750Y-92575000D03*
X121068750Y-90575000D03*
%TO.N,Vol_V*%
X121000000Y-109500000D03*
X120520000Y-103500000D03*
X120500000Y-105000000D03*
D23*
X119000000Y-109500000D03*
D20*
%TO.N,IC_ia*%
X127500000Y-101000000D03*
X124500000Y-100500000D03*
%TO.N,PWM_AH*%
X132500000Y-93500000D03*
X131500000Y-97500000D03*
%TO.N,PWM_BH*%
X130500000Y-94500000D03*
X129500000Y-106500000D03*
%TO.N,PWM_AL*%
X148000000Y-97500000D03*
X150000000Y-95500000D03*
%TO.N,PWM_BL*%
X129400000Y-98000000D03*
X129400000Y-105500000D03*
%TO.N,Net-(U2--INA)*%
X129068750Y-91575000D03*
%TO.N,UartTX*%
X126249997Y-111149997D03*
%TO.N,UartRX*%
X127500000Y-111149997D03*
%TO.N,PPM_IN*%
X131000000Y-111149997D03*
%TD*%
%TO.N,Ia_N*%
D24*
X129000000Y-85626050D02*
X129000000Y-86000000D01*
X129218750Y-85407300D02*
X129000000Y-85626050D01*
X129126050Y-85500000D02*
X128500000Y-85500000D01*
X129218750Y-85407300D02*
X129126050Y-85500000D01*
X130000000Y-85500000D02*
X129907300Y-85407300D01*
X129218750Y-85407300D02*
X129907300Y-85407300D01*
X129218750Y-84781250D02*
X129500000Y-84500000D01*
X129218750Y-85407300D02*
X129218750Y-84781250D01*
X127000000Y-107000000D02*
X128000000Y-107000000D01*
X126900000Y-107000000D02*
X126000000Y-107000000D01*
X126950000Y-106950000D02*
X126900000Y-107000000D01*
X119500000Y-103500000D02*
X120500000Y-102500000D01*
X119500000Y-103500000D02*
X119000000Y-103000000D01*
X120000000Y-102000000D02*
X120500000Y-102500000D01*
X120000000Y-102000000D02*
X119500000Y-101500000D01*
X122480000Y-104520000D02*
X123000000Y-104000000D01*
X122480000Y-105000000D02*
X122480000Y-104520000D01*
X122980000Y-105500000D02*
X123000000Y-105500000D01*
X122980000Y-105500000D02*
X122480000Y-105000000D01*
X122350000Y-106350000D02*
X122000000Y-106000000D01*
X122350000Y-106500000D02*
X122350000Y-106350000D01*
X122350000Y-106850000D02*
X122350000Y-106500000D01*
X122350000Y-106850000D02*
X122500000Y-107000000D01*
X121500000Y-106500000D02*
X122350000Y-106500000D01*
D25*
X161500000Y-91500000D02*
X162000000Y-91000000D01*
X161500000Y-94000000D02*
X161500000Y-91500000D01*
X163500000Y-96000000D02*
X164500000Y-96000000D01*
X161500000Y-94000000D02*
X163500000Y-96000000D01*
X161000000Y-94500000D02*
X161500000Y-94000000D01*
X157500000Y-94500000D02*
X161000000Y-94500000D01*
X154000000Y-92500000D02*
X154500000Y-92000000D01*
X147500000Y-92500000D02*
X154000000Y-92500000D01*
X154500000Y-92000000D02*
X157000000Y-94500000D01*
X149500000Y-92500000D02*
X150500000Y-91500000D01*
X147500000Y-92500000D02*
X149500000Y-92500000D01*
D26*
X129000000Y-92500000D02*
X133000000Y-92500000D01*
X128500000Y-93000000D02*
X129000000Y-92500000D01*
X129393750Y-93000000D02*
X130893750Y-91500000D01*
X128500000Y-93000000D02*
X129393750Y-93000000D01*
X133000000Y-92500000D02*
X145500000Y-92500000D01*
X133500000Y-92000000D02*
X133000000Y-92500000D01*
X133500000Y-91500000D02*
X133500000Y-92000000D01*
X131000000Y-91500000D02*
X132000000Y-91500000D01*
X132000000Y-91500000D02*
X133000000Y-92500000D01*
X133500000Y-92000000D02*
X134000000Y-92500000D01*
X134500000Y-91500000D02*
X134500000Y-92000000D01*
X134500000Y-92000000D02*
X135000000Y-92500000D01*
D25*
X135500000Y-93500000D02*
X133500000Y-95500000D01*
X135500000Y-91500000D02*
X135500000Y-93500000D01*
D27*
X136000000Y-95000000D02*
X136000000Y-95500000D01*
X139500000Y-91500000D02*
X136000000Y-95000000D01*
X139500000Y-94500000D02*
X138500000Y-95500000D01*
X139500000Y-91500000D02*
X139500000Y-94500000D01*
D25*
X142000000Y-95000000D02*
X141500000Y-95500000D01*
X142000000Y-91537500D02*
X142000000Y-95000000D01*
D26*
X143068750Y-93931250D02*
X141500000Y-95500000D01*
X143068750Y-91462500D02*
X143068750Y-93931250D01*
D25*
X144000000Y-94500000D02*
X145000000Y-95500000D01*
X144000000Y-91537500D02*
X144000000Y-94500000D01*
D27*
X146000000Y-94500000D02*
X145000000Y-95500000D01*
X146000000Y-91500000D02*
X146000000Y-94500000D01*
X147000000Y-95000000D02*
X147500000Y-95500000D01*
X147000000Y-91500000D02*
X147000000Y-95000000D01*
X147000000Y-91500000D02*
X152000000Y-91500000D01*
D25*
X148000000Y-91500000D02*
X152000000Y-91500000D01*
X150000000Y-90500000D02*
X151500000Y-90500000D01*
X150500000Y-91500000D02*
X151500000Y-90500000D01*
X149000000Y-91500000D02*
X150000000Y-90500000D01*
X148000000Y-91500000D02*
X149000000Y-91500000D01*
X153500000Y-88500000D02*
X158500000Y-88500000D01*
X151500000Y-90500000D02*
X153500000Y-88500000D01*
D26*
X155000000Y-88500000D02*
X158500000Y-88500000D01*
X152000000Y-91500000D02*
X155000000Y-88500000D01*
D25*
X154000000Y-90500000D02*
X157000000Y-90500000D01*
X153000000Y-91500000D02*
X154000000Y-90500000D01*
X157000000Y-94500000D02*
X157500000Y-94500000D01*
X154000000Y-91500000D02*
X154500000Y-92000000D01*
X154000000Y-91500000D02*
X154000000Y-93500000D01*
X154000000Y-93500000D02*
X155500000Y-95000000D01*
X155500000Y-91500000D02*
X157500000Y-93500000D01*
X154000000Y-91500000D02*
X155500000Y-91500000D01*
X156500000Y-91500000D02*
X157000000Y-92000000D01*
X154000000Y-91500000D02*
X156500000Y-91500000D01*
X156000000Y-91500000D02*
X157000000Y-90500000D01*
X154000000Y-91500000D02*
X156000000Y-91500000D01*
X153500000Y-104000000D02*
X151500000Y-102000000D01*
X153500000Y-104675000D02*
X153500000Y-104000000D01*
D24*
X120000000Y-102000000D02*
X120000000Y-101500000D01*
X120000000Y-101500000D02*
X121000000Y-100500000D01*
D25*
X122950000Y-100500000D02*
X122950000Y-101950000D01*
X122950000Y-101950000D02*
X123000000Y-102000000D01*
D26*
X120950000Y-99550000D02*
X120500000Y-100000000D01*
X120950000Y-98000000D02*
X120950000Y-99550000D01*
X127218750Y-97281250D02*
X126500000Y-98000000D01*
X127218750Y-94907300D02*
X127218750Y-97281250D01*
X127500000Y-95188550D02*
X127218750Y-94907300D01*
X127500000Y-97500000D02*
X127500000Y-95188550D01*
X127218750Y-94281250D02*
X128500000Y-93000000D01*
X127218750Y-94907300D02*
X127218750Y-94281250D01*
D28*
X161035000Y-81000000D02*
X161500000Y-81000000D01*
X160335000Y-81700000D02*
X161035000Y-81000000D01*
X160500000Y-81865000D02*
X160500000Y-83000000D01*
X160335000Y-81700000D02*
X160500000Y-81865000D01*
X160635000Y-82000000D02*
X161500000Y-82000000D01*
X160335000Y-81700000D02*
X160635000Y-82000000D01*
X159035000Y-83000000D02*
X159000000Y-83000000D01*
X160335000Y-81700000D02*
X159035000Y-83000000D01*
D25*
X156000000Y-94500000D02*
X157500000Y-94500000D01*
X155500000Y-95000000D02*
X156000000Y-94500000D01*
X156000000Y-95500000D02*
X157500000Y-95500000D01*
X155500000Y-95000000D02*
X156000000Y-95500000D01*
D28*
X150000000Y-100500000D02*
X151500000Y-102000000D01*
X150000000Y-98950000D02*
X150000000Y-100500000D01*
X152550000Y-98950000D02*
X154500000Y-97000000D01*
X150000000Y-98950000D02*
X152550000Y-98950000D01*
X150450000Y-98950000D02*
X152500000Y-101000000D01*
X150000000Y-98950000D02*
X150450000Y-98950000D01*
X150000000Y-98000000D02*
X150500000Y-97500000D01*
X150000000Y-98950000D02*
X150000000Y-98000000D01*
X149550000Y-98950000D02*
X150000000Y-98950000D01*
X148950000Y-98450000D02*
X149500000Y-99000000D01*
X147275000Y-98450000D02*
X148950000Y-98450000D01*
X149500000Y-99000000D02*
X149550000Y-98950000D01*
D25*
X145050000Y-98450000D02*
X145000000Y-98500000D01*
X147275000Y-98450000D02*
X145050000Y-98450000D01*
D24*
X122480000Y-102520000D02*
X123000000Y-102000000D01*
X122480000Y-105000000D02*
X122480000Y-102520000D01*
D25*
X126550000Y-103950000D02*
X127000000Y-103500000D01*
X126550000Y-104100000D02*
X126550000Y-103950000D01*
D26*
X133000000Y-100500000D02*
X133000000Y-98528750D01*
X132000000Y-101500000D02*
X133000000Y-100500000D01*
D25*
X142450000Y-98550000D02*
X142500000Y-98500000D01*
X139000000Y-98550000D02*
X142450000Y-98550000D01*
X138978750Y-98528750D02*
X139000000Y-98550000D01*
X133000000Y-98528750D02*
X138978750Y-98528750D01*
D26*
X131000000Y-102000000D02*
X130600000Y-102000000D01*
D24*
X131000000Y-101500000D02*
X131500000Y-101000000D01*
X131000000Y-102000000D02*
X131000000Y-101500000D01*
D26*
X131000000Y-102000000D02*
X131500000Y-102000000D01*
X131500000Y-102000000D02*
X132000000Y-101500000D01*
X131000000Y-102000000D02*
X131000000Y-102500000D01*
%TO.N,Motor_W*%
X159940000Y-72900000D02*
X159940000Y-68940000D01*
D29*
X159940000Y-78000000D02*
X159940000Y-78500000D01*
X159940000Y-79040000D02*
X159780000Y-79200000D01*
D30*
X159940000Y-68940000D02*
X157000000Y-66000000D01*
D29*
X159940000Y-72900000D02*
X159940000Y-78000000D01*
X159940000Y-78500000D02*
X159940000Y-79040000D01*
%TO.N,+3.3V*%
D24*
X129251470Y-107099999D02*
X129950000Y-107099999D01*
X121111250Y-97111250D02*
X122000000Y-98000000D01*
X131000000Y-106000000D02*
X129950000Y-107050000D01*
D26*
X121000000Y-84000000D02*
X121000000Y-87500000D01*
D24*
X121930000Y-105227818D02*
X123052182Y-106350000D01*
X122000000Y-104702182D02*
X121930000Y-104772182D01*
X131000000Y-103550000D02*
X131000000Y-106000000D01*
X123052182Y-106350000D02*
X128501471Y-106350000D01*
X129950000Y-107050000D02*
X129950000Y-107099999D01*
X122000000Y-98000000D02*
X122000000Y-104702182D01*
X121111250Y-95000000D02*
X121111250Y-97111250D01*
D26*
X135500000Y-72850000D02*
X132650000Y-72850000D01*
D24*
X123052182Y-107457818D02*
X123052182Y-106350000D01*
X128501471Y-106350000D02*
X129251470Y-107099999D01*
X121111250Y-92357300D02*
X121111250Y-94000000D01*
X121930000Y-104772182D02*
X121930000Y-105227818D01*
X121111250Y-94000000D02*
X121111250Y-95000000D01*
D26*
X132500000Y-73000000D02*
X132650000Y-72850000D01*
D24*
X122010000Y-108500000D02*
X123052182Y-107457818D01*
%TO.N,Ia_N*%
D25*
X139000000Y-91537500D02*
X141500000Y-91537500D01*
X135500000Y-91500000D02*
X136000000Y-91500000D01*
X119800000Y-65300000D02*
X120700000Y-65300000D01*
D27*
X161500000Y-94000000D02*
X163000000Y-95500000D01*
D25*
X165500000Y-65500000D02*
X167000000Y-65500000D01*
D24*
X119500000Y-103500000D02*
X118500000Y-104500000D01*
D25*
X164700000Y-110700000D02*
X164500000Y-110500000D01*
D31*
X118480000Y-104980000D02*
X118500000Y-105000000D01*
D25*
X166000000Y-110700000D02*
X166000000Y-109000000D01*
X134568750Y-91500000D02*
X135000000Y-91500000D01*
D26*
X141606250Y-90000000D02*
X143068750Y-91462500D01*
D28*
X157660000Y-79200000D02*
X157660000Y-80160000D01*
D27*
X147000000Y-91500000D02*
X147068750Y-91500000D01*
D25*
X141500000Y-91537500D02*
X142000000Y-91537500D01*
X136000000Y-91500000D02*
X137500000Y-91500000D01*
D28*
X159500000Y-82000000D02*
X160035000Y-82000000D01*
D24*
X127000000Y-107000000D02*
X127000000Y-109000000D01*
X126950000Y-106950000D02*
X127000000Y-107000000D01*
D28*
X160035000Y-82000000D02*
X160335000Y-81700000D01*
D27*
X130893750Y-91500000D02*
X139500000Y-91500000D01*
D25*
X119800000Y-65300000D02*
X119800000Y-66200000D01*
D26*
X133500000Y-91500000D02*
X134500000Y-91500000D01*
D25*
X138568750Y-91537500D02*
X139000000Y-91537500D01*
X147031250Y-91537500D02*
X147068750Y-91500000D01*
X145000000Y-91537500D02*
X147031250Y-91537500D01*
D27*
X161500000Y-94000000D02*
X160500000Y-94000000D01*
D25*
X137500000Y-91500000D02*
X138500000Y-91500000D01*
X138500000Y-91500000D02*
X138531250Y-91500000D01*
X142000000Y-91537500D02*
X143000000Y-91537500D01*
D26*
X130893750Y-91500000D02*
X131000000Y-91500000D01*
D28*
X157660000Y-80160000D02*
X159500000Y-82000000D01*
D25*
X143000000Y-91537500D02*
X144000000Y-91537500D01*
D26*
X134500000Y-91500000D02*
X134568750Y-91500000D01*
D27*
X161500000Y-94000000D02*
X159000000Y-94000000D01*
D31*
X118480000Y-104500000D02*
X119000000Y-104500000D01*
D24*
X119500000Y-103500000D02*
X119500000Y-104000000D01*
X119500000Y-104000000D02*
X119000000Y-104500000D01*
D25*
X119800000Y-66200000D02*
X119000000Y-67000000D01*
D24*
X118500000Y-104500000D02*
X118480000Y-104500000D01*
D25*
X147068750Y-91500000D02*
X148000000Y-91500000D01*
X144000000Y-91537500D02*
X145000000Y-91537500D01*
X165500000Y-65500000D02*
X163500000Y-65500000D01*
X165500000Y-65500000D02*
X165500000Y-67000000D01*
D27*
X146000000Y-91500000D02*
X147000000Y-91500000D01*
X139500000Y-91500000D02*
X146000000Y-91500000D01*
X125000000Y-110000000D02*
X125000000Y-111000000D01*
D25*
X135000000Y-91500000D02*
X135500000Y-91500000D01*
X138531250Y-91500000D02*
X138568750Y-91537500D01*
D27*
X161500000Y-92500000D02*
X161000000Y-92000000D01*
X161500000Y-94000000D02*
X161500000Y-92500000D01*
D26*
X131000000Y-90000000D02*
X141606250Y-90000000D01*
X130893750Y-90000000D02*
X131000000Y-90000000D01*
D31*
X118480000Y-104980000D02*
X118480000Y-104500000D01*
D26*
X131000000Y-91500000D02*
X133500000Y-91500000D01*
D27*
X160500000Y-94000000D02*
X159000000Y-92500000D01*
D25*
X154000000Y-91500000D02*
X147068750Y-91500000D01*
X166000000Y-110700000D02*
X164700000Y-110700000D01*
X120700000Y-65300000D02*
X121500000Y-64500000D01*
%TO.N,IC_ib*%
D24*
X124000000Y-96500000D02*
X122500000Y-96500000D01*
X128500000Y-101000000D02*
X124000000Y-96500000D01*
%TO.N,Motor_U*%
D30*
X139792500Y-71853632D02*
X134738868Y-66800000D01*
D25*
X139597500Y-78597500D02*
X139597500Y-78975000D01*
D30*
X134738868Y-66800000D02*
X134700000Y-66800000D01*
D29*
X139792500Y-72900000D02*
X139792500Y-77500000D01*
X139792500Y-78402500D02*
X139597500Y-78597500D01*
D30*
X139792500Y-72900000D02*
X139792500Y-71853632D01*
%TO.N,Ib_P*%
D25*
X143068750Y-85537500D02*
X147031250Y-85537500D01*
X148012500Y-79200000D02*
X148012500Y-81465000D01*
X130893750Y-88500000D02*
X140106250Y-88500000D01*
X148012500Y-81465000D02*
X148247500Y-81700000D01*
X148247500Y-84396250D02*
X147068750Y-85575000D01*
X147031250Y-85537500D02*
X147068750Y-85575000D01*
X148247500Y-81700000D02*
X148247500Y-84396250D01*
D24*
X150850000Y-81700000D02*
X148247500Y-81700000D01*
D25*
X140106250Y-88500000D02*
X143068750Y-85537500D01*
%TO.N,LO2*%
D26*
X152572500Y-79200000D02*
X152572500Y-81427500D01*
X152572500Y-81427500D02*
X152500000Y-81500000D01*
%TO.N,Motor_V*%
X150292500Y-72900000D02*
X149805000Y-73387500D01*
D30*
X150292500Y-69592500D02*
X147000000Y-66300000D01*
D29*
X150500000Y-78000000D02*
X150292500Y-77792500D01*
D26*
X149805000Y-73387500D02*
X149805000Y-77500000D01*
X149805000Y-78000000D02*
X149805000Y-78625000D01*
X149805000Y-77500000D02*
X149805000Y-78000000D01*
X150292500Y-72900000D02*
X150292500Y-69592500D01*
D29*
X150292500Y-72900000D02*
X150292500Y-77792500D01*
%TO.N,Net-(U2-+INB)*%
D26*
X124568750Y-89575000D02*
X125568750Y-89575000D01*
X125568750Y-89575000D02*
X127068750Y-88075000D01*
%TO.N,MotorTemp*%
D24*
X128348529Y-102000000D02*
X126500000Y-102000000D01*
X126500000Y-102000000D02*
X123500000Y-105000000D01*
X129000000Y-96000000D02*
X128800000Y-96200000D01*
D26*
X135500000Y-74500000D02*
X132000000Y-74500000D01*
D24*
X128800000Y-96200000D02*
X128800000Y-100451471D01*
X129100000Y-101248529D02*
X128348529Y-102000000D01*
X129100000Y-100751471D02*
X129100000Y-101248529D01*
X128800000Y-100451471D02*
X129100000Y-100751471D01*
%TO.N,Vol_U*%
X121120000Y-108380000D02*
X121000000Y-108500000D01*
X121120000Y-105880000D02*
X121120000Y-102100000D01*
X121060000Y-105940000D02*
X121120000Y-105880000D01*
X121000000Y-106000000D02*
X121060000Y-105940000D01*
X121120000Y-102100000D02*
X121020000Y-102000000D01*
%TO.N,Ia_P*%
D25*
X140000000Y-81650000D02*
X139850000Y-81500000D01*
D26*
X137512500Y-79200000D02*
X137550000Y-79200000D01*
D25*
X138568750Y-85612500D02*
X140000000Y-84181250D01*
X138531250Y-85575000D02*
X138568750Y-85612500D01*
X137181250Y-87000000D02*
X138568750Y-85612500D01*
D26*
X137550000Y-79200000D02*
X139850000Y-81500000D01*
D25*
X140000000Y-84181250D02*
X140000000Y-81650000D01*
X134568750Y-85575000D02*
X138531250Y-85575000D01*
X130893750Y-87000000D02*
X137181250Y-87000000D01*
%TO.N,Net-(U2-+INA)*%
D26*
X126568750Y-90575000D02*
X121068750Y-90575000D01*
X125568750Y-91575000D02*
X125568750Y-92575000D01*
X125568750Y-92575000D02*
X125568750Y-93075000D01*
X128643750Y-88500000D02*
X126568750Y-90575000D01*
X129243750Y-88500000D02*
X128643750Y-88500000D01*
X126568750Y-90575000D02*
X125568750Y-91575000D01*
%TO.N,Vol_V*%
D24*
X120520000Y-103500000D02*
X120520000Y-104980000D01*
X120500000Y-105000000D02*
X120500000Y-104500000D01*
X120520000Y-104980000D02*
X120500000Y-105000000D01*
%TO.N,IC_ia*%
X127500000Y-101000000D02*
X127000000Y-100500000D01*
X127000000Y-100500000D02*
X124500000Y-100500000D01*
%TO.N,PWM_AH*%
X131500000Y-94500000D02*
X131500000Y-97500000D01*
X132500000Y-93500000D02*
X131500000Y-94500000D01*
%TO.N,PWM_BH*%
X130500000Y-94500000D02*
X130000000Y-95000000D01*
X130000000Y-106000000D02*
X129500000Y-106500000D01*
X130000000Y-95000000D02*
X130000000Y-106000000D01*
%TO.N,PWM_AL*%
X150000000Y-95500000D02*
X148000000Y-97500000D01*
%TO.N,PWM_BL*%
X129400000Y-98900000D02*
X129500000Y-99000000D01*
X129500000Y-99000000D02*
X129500000Y-105000000D01*
X129500000Y-105000000D02*
X129400000Y-105100000D01*
X129400000Y-105100000D02*
X129400000Y-105500000D01*
X129400000Y-98000000D02*
X129400000Y-98900000D01*
%TD*%
%TA.AperFunction,Conductor*%
%TO.N,Ia_N*%
G36*
X129116875Y-99015687D02*
G01*
X129117131Y-99015793D01*
X129117138Y-99015796D01*
X129122677Y-99020663D01*
X129133589Y-99039562D01*
X129159539Y-99084510D01*
X129194514Y-99119485D01*
X129197006Y-99123215D01*
X129198624Y-99127120D01*
X129199500Y-99131522D01*
X129199500Y-100395948D01*
X129198624Y-100400350D01*
X129198150Y-100401494D01*
X129191926Y-100407717D01*
X129183124Y-100407716D01*
X129181980Y-100407242D01*
X129178250Y-100404750D01*
X129105485Y-100331985D01*
X129102992Y-100328253D01*
X129101375Y-100324348D01*
X129100500Y-100319948D01*
X129100500Y-99027455D01*
X129100856Y-99025660D01*
X129100748Y-99025079D01*
X129101063Y-99024618D01*
X129101373Y-99023061D01*
X129101846Y-99021917D01*
X129105255Y-99018502D01*
X129105724Y-99017819D01*
X129105987Y-99017769D01*
X129108065Y-99015689D01*
X129116867Y-99015684D01*
X129116875Y-99015687D01*
G37*
%TD.AperFunction*%
%TA.AperFunction,Conductor*%
G36*
X133516209Y-63801372D02*
G01*
X133517258Y-63801807D01*
X133523484Y-63808026D01*
X133523489Y-63816828D01*
X133517269Y-63823055D01*
X133516660Y-63823288D01*
X133473286Y-63838464D01*
X133473182Y-63838516D01*
X133149501Y-63994393D01*
X133149437Y-63994424D01*
X133149410Y-63994436D01*
X132845056Y-64185673D01*
X132563995Y-64409812D01*
X132309812Y-64663995D01*
X132085673Y-64945056D01*
X131894436Y-65249410D01*
X131894424Y-65249437D01*
X131894393Y-65249501D01*
X131738516Y-65573182D01*
X131738464Y-65573286D01*
X131619736Y-65912596D01*
X131589020Y-66047176D01*
X131588883Y-66047775D01*
X131539748Y-66263052D01*
X131499500Y-66620264D01*
X131499500Y-66979736D01*
X131539748Y-67336948D01*
X131583106Y-67526912D01*
X131588509Y-67550585D01*
X131619736Y-67687402D01*
X131738534Y-68026911D01*
X131738745Y-68027292D01*
X131894292Y-68350289D01*
X131894301Y-68350307D01*
X131894434Y-68350582D01*
X131894436Y-68350585D01*
X131894437Y-68350588D01*
X131894526Y-68350729D01*
X131894531Y-68350739D01*
X132085673Y-68654942D01*
X132169665Y-68760264D01*
X132309812Y-68936003D01*
X132563996Y-69190187D01*
X132641046Y-69251632D01*
X132755143Y-69342622D01*
X132755624Y-69343028D01*
X132756111Y-69343462D01*
X132756592Y-69343915D01*
X133552896Y-70140219D01*
X133556264Y-70148351D01*
X133552896Y-70156483D01*
X133358056Y-70351323D01*
X133313503Y-70418007D01*
X133313498Y-70418017D01*
X133310137Y-70426134D01*
X133310133Y-70426146D01*
X133294500Y-70504763D01*
X133294500Y-72338000D01*
X133291132Y-72346132D01*
X133283000Y-72349500D01*
X132584108Y-72349500D01*
X132456830Y-72383602D01*
X132456819Y-72383606D01*
X132456804Y-72383612D01*
X132342686Y-72449498D01*
X132099498Y-72692686D01*
X132033612Y-72806804D01*
X132033606Y-72806819D01*
X132033602Y-72806830D01*
X132022335Y-72848884D01*
X131999500Y-72934108D01*
X131999500Y-73065892D01*
X132033608Y-73193186D01*
X132099500Y-73307314D01*
X132192686Y-73400500D01*
X132306814Y-73466392D01*
X132434108Y-73500500D01*
X132565892Y-73500500D01*
X132693186Y-73466392D01*
X132807314Y-73400500D01*
X132852331Y-73355482D01*
X132856058Y-73352993D01*
X132859965Y-73351374D01*
X132864365Y-73350500D01*
X133283000Y-73350500D01*
X133291132Y-73353868D01*
X133294500Y-73362000D01*
X133294500Y-73988000D01*
X133291132Y-73996132D01*
X133283000Y-73999500D01*
X131934108Y-73999500D01*
X131806830Y-74033602D01*
X131806819Y-74033606D01*
X131806804Y-74033612D01*
X131692686Y-74099498D01*
X131599498Y-74192686D01*
X131533612Y-74306804D01*
X131533606Y-74306819D01*
X131533602Y-74306830D01*
X131499500Y-74434108D01*
X131499500Y-74565890D01*
X131533602Y-74693168D01*
X131533604Y-74693176D01*
X131533606Y-74693180D01*
X131533610Y-74693190D01*
X131589220Y-74789510D01*
X131599500Y-74807314D01*
X131692686Y-74900500D01*
X131806814Y-74966392D01*
X131934108Y-75000500D01*
X133283000Y-75000500D01*
X133291132Y-75003868D01*
X133294500Y-75012000D01*
X133294500Y-75995235D01*
X133310139Y-76073870D01*
X133313283Y-76081459D01*
X133313508Y-76082002D01*
X133358058Y-76148678D01*
X134351322Y-77141942D01*
X134417998Y-77186492D01*
X134422985Y-77188557D01*
X134426129Y-77189860D01*
X134465447Y-77197680D01*
X134504764Y-77205500D01*
X134504765Y-77205500D01*
X136086000Y-77205500D01*
X136094132Y-77208868D01*
X136097500Y-77217000D01*
X136097500Y-80544998D01*
X136102514Y-80589505D01*
X136141133Y-80669697D01*
X136141134Y-80669698D01*
X136210723Y-80725194D01*
X136297500Y-80745000D01*
X138380136Y-80745000D01*
X138384534Y-80745874D01*
X138388442Y-80747493D01*
X138392172Y-80749985D01*
X139144514Y-81502327D01*
X139147006Y-81506057D01*
X139148624Y-81509962D01*
X139149500Y-81514364D01*
X139149500Y-81568992D01*
X139173331Y-81688799D01*
X139176198Y-81703212D01*
X139176198Y-81703215D01*
X139176418Y-81704325D01*
X139176419Y-81704327D01*
X139214728Y-81796811D01*
X139229225Y-81831811D01*
X139270234Y-81893186D01*
X139282497Y-81911539D01*
X139296614Y-81932665D01*
X139298057Y-81935716D01*
X139299005Y-81938841D01*
X139299500Y-81942179D01*
X139299500Y-83884041D01*
X139298624Y-83888443D01*
X139297006Y-83892348D01*
X139294514Y-83896078D01*
X138645578Y-84545014D01*
X138641849Y-84547506D01*
X138639284Y-84548568D01*
X138637943Y-84549124D01*
X138633542Y-84550000D01*
X136643750Y-84550000D01*
X136635460Y-84550933D01*
X136614796Y-84553260D01*
X136610325Y-84552882D01*
X136606265Y-84551712D01*
X136602280Y-84549653D01*
X136581036Y-84532712D01*
X136580669Y-84532384D01*
X136580529Y-84532307D01*
X136580527Y-84532306D01*
X136493750Y-84512500D01*
X136493747Y-84512500D01*
X132643750Y-84512500D01*
X132634172Y-84513578D01*
X132634173Y-84513579D01*
X132599242Y-84517514D01*
X132519052Y-84556132D01*
X132464843Y-84624106D01*
X132464840Y-84624111D01*
X132463557Y-84625721D01*
X132463556Y-84625722D01*
X132463556Y-84625723D01*
X132463007Y-84628127D01*
X132463006Y-84628130D01*
X132453908Y-84667994D01*
X132443750Y-84712500D01*
X132443750Y-84712501D01*
X132443750Y-84712503D01*
X132443750Y-86285712D01*
X132442875Y-86290112D01*
X132442205Y-86291730D01*
X132435982Y-86297954D01*
X132434365Y-86298624D01*
X132429963Y-86299500D01*
X131757537Y-86299500D01*
X131753137Y-86298625D01*
X131753135Y-86298624D01*
X131751518Y-86297954D01*
X131751516Y-86297952D01*
X131751512Y-86297952D01*
X131751510Y-86297951D01*
X131748402Y-86294838D01*
X131745296Y-86291733D01*
X131744625Y-86290112D01*
X131744623Y-86290106D01*
X131743750Y-86285712D01*
X131743750Y-86275001D01*
X131743749Y-86274990D01*
X131743734Y-86274858D01*
X131743729Y-86274821D01*
X131738736Y-86230496D01*
X131700116Y-86150302D01*
X131630527Y-86094806D01*
X131543750Y-86075000D01*
X131543747Y-86075000D01*
X128593750Y-86075000D01*
X128578915Y-86076670D01*
X128578915Y-86076671D01*
X128569024Y-86077785D01*
X128549242Y-86080014D01*
X128469052Y-86118632D01*
X128414843Y-86186606D01*
X128414840Y-86186611D01*
X128413557Y-86188221D01*
X128413556Y-86188222D01*
X128413556Y-86188223D01*
X128413007Y-86190627D01*
X128413006Y-86190630D01*
X128403908Y-86230494D01*
X128393750Y-86275000D01*
X128393750Y-86275001D01*
X128393750Y-86275003D01*
X128393750Y-87724998D01*
X128397193Y-87755571D01*
X128397247Y-87757502D01*
X128397140Y-87759410D01*
X128396870Y-87761324D01*
X128393750Y-87775000D01*
X128393750Y-88057481D01*
X128392874Y-88061884D01*
X128391628Y-88064890D01*
X128386754Y-88070446D01*
X128336436Y-88099498D01*
X126366421Y-90069514D01*
X126362692Y-90072006D01*
X126360393Y-90072959D01*
X126358786Y-90073624D01*
X126354385Y-90074500D01*
X125728012Y-90074500D01*
X125723605Y-90073622D01*
X125722730Y-90073259D01*
X125716510Y-90067032D01*
X125716515Y-90058230D01*
X125721306Y-90052725D01*
X125721316Y-90052719D01*
X125721359Y-90052693D01*
X125724205Y-90051501D01*
X125761936Y-90041392D01*
X125876064Y-89975500D01*
X127469249Y-88382315D01*
X127535142Y-88268186D01*
X127569250Y-88140893D01*
X127569250Y-88009108D01*
X127535142Y-87881814D01*
X127522425Y-87859788D01*
X127469250Y-87767686D01*
X127376064Y-87674500D01*
X127376063Y-87674499D01*
X127376062Y-87674498D01*
X127261945Y-87608613D01*
X127261943Y-87608612D01*
X127261940Y-87608610D01*
X127261938Y-87608609D01*
X127261936Y-87608608D01*
X127261935Y-87608607D01*
X127261930Y-87608605D01*
X127261918Y-87608601D01*
X127261852Y-87608584D01*
X127134642Y-87574500D01*
X127002857Y-87574500D01*
X126928287Y-87594481D01*
X126875580Y-87608602D01*
X126875569Y-87608606D01*
X126875567Y-87608607D01*
X126875562Y-87608609D01*
X126875554Y-87608612D01*
X126761436Y-87674498D01*
X125366421Y-89069514D01*
X125362692Y-89072006D01*
X125360127Y-89073068D01*
X125358786Y-89073624D01*
X125354385Y-89074500D01*
X124502858Y-89074500D01*
X124375580Y-89108602D01*
X124375569Y-89108606D01*
X124375554Y-89108612D01*
X124261436Y-89174498D01*
X124168250Y-89267685D01*
X124102362Y-89381804D01*
X124102356Y-89381819D01*
X124102352Y-89381830D01*
X124081994Y-89457814D01*
X124068250Y-89509108D01*
X124068250Y-89640892D01*
X124102358Y-89768186D01*
X124168250Y-89882314D01*
X124261436Y-89975500D01*
X124375564Y-90041392D01*
X124412540Y-90051299D01*
X124416019Y-90053124D01*
X124416565Y-90053285D01*
X124417318Y-90053863D01*
X124417366Y-90053946D01*
X124417707Y-90054236D01*
X124419089Y-90056931D01*
X124421718Y-90061486D01*
X124421617Y-90061861D01*
X124421723Y-90062068D01*
X124420759Y-90065060D01*
X124419438Y-90069987D01*
X124419099Y-90070214D01*
X124419025Y-90070446D01*
X124417879Y-90071033D01*
X124413341Y-90074080D01*
X124413285Y-90074095D01*
X124411421Y-90074344D01*
X124411193Y-90074462D01*
X124411002Y-90074400D01*
X124410261Y-90074500D01*
X121002858Y-90074500D01*
X120875580Y-90108602D01*
X120875569Y-90108606D01*
X120875554Y-90108612D01*
X120761436Y-90174498D01*
X120668248Y-90267686D01*
X120602362Y-90381804D01*
X120602356Y-90381819D01*
X120602352Y-90381830D01*
X120568250Y-90509108D01*
X120568250Y-90640890D01*
X120602352Y-90768168D01*
X120602356Y-90768179D01*
X120602362Y-90768194D01*
X120666465Y-90879225D01*
X120666466Y-90879225D01*
X120668250Y-90882314D01*
X120761436Y-90975500D01*
X120875564Y-91041392D01*
X121002858Y-91075500D01*
X125330385Y-91075500D01*
X125334782Y-91076374D01*
X125335925Y-91076847D01*
X125342151Y-91083069D01*
X125342154Y-91091870D01*
X125342152Y-91091875D01*
X125341678Y-91093019D01*
X125339186Y-91096749D01*
X125168248Y-91267686D01*
X125102362Y-91381804D01*
X125102356Y-91381819D01*
X125102352Y-91381830D01*
X125089176Y-91431007D01*
X125068250Y-91509108D01*
X125068250Y-93140891D01*
X125076930Y-93173287D01*
X125102352Y-93268168D01*
X125102354Y-93268176D01*
X125102356Y-93268180D01*
X125102359Y-93268186D01*
X125102362Y-93268194D01*
X125115621Y-93291159D01*
X125124662Y-93306819D01*
X125168250Y-93382314D01*
X125261436Y-93475500D01*
X125375564Y-93541392D01*
X125502858Y-93575500D01*
X125634642Y-93575500D01*
X125761936Y-93541392D01*
X125876064Y-93475500D01*
X125969250Y-93382314D01*
X126035142Y-93268186D01*
X126069250Y-93140892D01*
X126069250Y-92509108D01*
X126069250Y-91789365D01*
X126070125Y-91784965D01*
X126071742Y-91781060D01*
X126074232Y-91777331D01*
X128372503Y-89479060D01*
X128376228Y-89476571D01*
X128377375Y-89476096D01*
X128386176Y-89476096D01*
X128392400Y-89482319D01*
X128392874Y-89483463D01*
X128393750Y-89487865D01*
X128393750Y-90724998D01*
X128397193Y-90755571D01*
X128397247Y-90757502D01*
X128397140Y-90759410D01*
X128396870Y-90761324D01*
X128395307Y-90768179D01*
X128393750Y-90775002D01*
X128393750Y-92224998D01*
X128398764Y-92269505D01*
X128437383Y-92349697D01*
X128437384Y-92349698D01*
X128506973Y-92405194D01*
X128593750Y-92425000D01*
X130670233Y-92425000D01*
X130671358Y-92425055D01*
X130672487Y-92425166D01*
X130673601Y-92425331D01*
X130738120Y-92438164D01*
X130800134Y-92450500D01*
X132460198Y-92450500D01*
X132464596Y-92451374D01*
X132467455Y-92452558D01*
X132473415Y-92458193D01*
X132487181Y-92486777D01*
X132487383Y-92487197D01*
X132487384Y-92487198D01*
X132556973Y-92542694D01*
X132643750Y-92562500D01*
X132643753Y-92562500D01*
X136493748Y-92562500D01*
X136493749Y-92562500D01*
X136493750Y-92562500D01*
X136522705Y-92559237D01*
X136527167Y-92559614D01*
X136531235Y-92560786D01*
X136535216Y-92562843D01*
X136556973Y-92580194D01*
X136643750Y-92600000D01*
X136643753Y-92600000D01*
X140493749Y-92600000D01*
X140493750Y-92600000D01*
X140538254Y-92594986D01*
X140618448Y-92556366D01*
X140673944Y-92486777D01*
X140679675Y-92461665D01*
X140681503Y-92457579D01*
X140682950Y-92455540D01*
X140689154Y-92451145D01*
X140689852Y-92450944D01*
X140690385Y-92450869D01*
X140690399Y-92450861D01*
X140690417Y-92450865D01*
X140693017Y-92450500D01*
X140982411Y-92450500D01*
X140986207Y-92451145D01*
X140989690Y-92452363D01*
X140993061Y-92454225D01*
X141056973Y-92505194D01*
X141143750Y-92525000D01*
X141143753Y-92525000D01*
X144993748Y-92525000D01*
X144993749Y-92525000D01*
X144993750Y-92525000D01*
X145022705Y-92521737D01*
X145027167Y-92522114D01*
X145031235Y-92523286D01*
X145035216Y-92525343D01*
X145056973Y-92542694D01*
X145143750Y-92562500D01*
X145143753Y-92562500D01*
X148993749Y-92562500D01*
X148993750Y-92562500D01*
X149038254Y-92557486D01*
X149118448Y-92518866D01*
X149173944Y-92449277D01*
X149193750Y-92362500D01*
X149193750Y-92214287D01*
X149194623Y-92209893D01*
X149194832Y-92209385D01*
X149195293Y-92208273D01*
X149201508Y-92202049D01*
X149202635Y-92201582D01*
X149203143Y-92201373D01*
X149207537Y-92200500D01*
X154068991Y-92200500D01*
X154068993Y-92200500D01*
X154204328Y-92173580D01*
X154331811Y-92120775D01*
X154446542Y-92044114D01*
X154544114Y-91946542D01*
X154548024Y-91940691D01*
X158549500Y-91940691D01*
X158549500Y-92059308D01*
X158561957Y-92105800D01*
X158580198Y-92173878D01*
X158580202Y-92173888D01*
X158609710Y-92224998D01*
X158635406Y-92269504D01*
X158639511Y-92276613D01*
X158723387Y-92360489D01*
X158826114Y-92419799D01*
X158940691Y-92450500D01*
X159059309Y-92450500D01*
X159173886Y-92419799D01*
X159276613Y-92360489D01*
X159360489Y-92276613D01*
X159419799Y-92173886D01*
X159450500Y-92059309D01*
X159450500Y-91940691D01*
X159419799Y-91826114D01*
X159360489Y-91723387D01*
X159276613Y-91639511D01*
X159276612Y-91639510D01*
X159276611Y-91639509D01*
X159180539Y-91584042D01*
X159178549Y-91581449D01*
X159059309Y-91549500D01*
X158940691Y-91549500D01*
X158826120Y-91580198D01*
X158826110Y-91580202D01*
X158723387Y-91639509D01*
X158639509Y-91723387D01*
X158580202Y-91826110D01*
X158580198Y-91826120D01*
X158557266Y-91911708D01*
X158549500Y-91940691D01*
X154548024Y-91940691D01*
X154620775Y-91831811D01*
X154673580Y-91704328D01*
X154700500Y-91568993D01*
X154700500Y-91431007D01*
X154673580Y-91295672D01*
X154620775Y-91168189D01*
X154544114Y-91053458D01*
X154446542Y-90955886D01*
X154446538Y-90955883D01*
X154336435Y-90882314D01*
X154331815Y-90879227D01*
X154331810Y-90879225D01*
X154302933Y-90867263D01*
X154204325Y-90826418D01*
X154204320Y-90826417D01*
X154122831Y-90810209D01*
X154122830Y-90810208D01*
X154079701Y-90801629D01*
X154068993Y-90799500D01*
X154068992Y-90799500D01*
X149207537Y-90799500D01*
X149203137Y-90798625D01*
X149201518Y-90797954D01*
X149195296Y-90791733D01*
X149195080Y-90791211D01*
X149194623Y-90790106D01*
X149193750Y-90785712D01*
X149193750Y-87355769D01*
X159299500Y-87355769D01*
X159299500Y-87644230D01*
X159337152Y-87930226D01*
X159411708Y-88208470D01*
X159411777Y-88208766D01*
X159411806Y-88208837D01*
X159411807Y-88208839D01*
X159411807Y-88208840D01*
X159483662Y-88382315D01*
X159522198Y-88475351D01*
X159651738Y-88699718D01*
X159666422Y-88725152D01*
X159666424Y-88725155D01*
X159666425Y-88725156D01*
X159666429Y-88725161D01*
X159666449Y-88725192D01*
X159666536Y-88725301D01*
X159842026Y-88954004D01*
X160045996Y-89157974D01*
X160274844Y-89333575D01*
X160274847Y-89333577D01*
X160274849Y-89333578D01*
X160274851Y-89333580D01*
X160358404Y-89381819D01*
X160524651Y-89477802D01*
X160524652Y-89477802D01*
X160524806Y-89477891D01*
X160524812Y-89477895D01*
X160524869Y-89477928D01*
X160525339Y-89478087D01*
X160791155Y-89588191D01*
X160791159Y-89588192D01*
X160791162Y-89588192D01*
X160791165Y-89588194D01*
X160791217Y-89588207D01*
X161069771Y-89662846D01*
X161069772Y-89662846D01*
X161069783Y-89662849D01*
X161355772Y-89700500D01*
X161355776Y-89700500D01*
X161644224Y-89700500D01*
X161644228Y-89700500D01*
X161930217Y-89662849D01*
X161930228Y-89662846D01*
X161930229Y-89662846D01*
X161930247Y-89662840D01*
X161930266Y-89662837D01*
X161930270Y-89662834D01*
X162012162Y-89640892D01*
X162208845Y-89588191D01*
X162475345Y-89477804D01*
X162725156Y-89333575D01*
X162954004Y-89157974D01*
X163157974Y-88954004D01*
X163333575Y-88725156D01*
X163477804Y-88475345D01*
X163588191Y-88208845D01*
X163662849Y-87930217D01*
X163700500Y-87644228D01*
X163700500Y-87355772D01*
X163662849Y-87069783D01*
X163588191Y-86791155D01*
X163477804Y-86524655D01*
X163477799Y-86524647D01*
X163333577Y-86274847D01*
X163333557Y-86274821D01*
X163157974Y-86045996D01*
X162954004Y-85842026D01*
X162725301Y-85666536D01*
X162725192Y-85666449D01*
X162725161Y-85666429D01*
X162725156Y-85666425D01*
X162725155Y-85666424D01*
X162725152Y-85666422D01*
X162577520Y-85581186D01*
X162475351Y-85522198D01*
X162208835Y-85411805D01*
X162024881Y-85362515D01*
X161930228Y-85337153D01*
X161930225Y-85337152D01*
X161930223Y-85337152D01*
X161930218Y-85337151D01*
X161930217Y-85337151D01*
X161699318Y-85306752D01*
X161644231Y-85299500D01*
X161644229Y-85299500D01*
X161644228Y-85299500D01*
X161355772Y-85299500D01*
X161355770Y-85299500D01*
X161355767Y-85299500D01*
X161245591Y-85314005D01*
X161069862Y-85337140D01*
X161069861Y-85337139D01*
X161069779Y-85337150D01*
X160791528Y-85411708D01*
X160791232Y-85411777D01*
X160791160Y-85411807D01*
X160791159Y-85411807D01*
X160720491Y-85441078D01*
X160524647Y-85522198D01*
X160274850Y-85666419D01*
X160252052Y-85683913D01*
X160189026Y-85732275D01*
X160065450Y-85827099D01*
X160046119Y-85841932D01*
X160046006Y-85842015D01*
X159842015Y-86046006D01*
X159841940Y-86046107D01*
X159786290Y-86118633D01*
X159732893Y-86188221D01*
X159666419Y-86274850D01*
X159522198Y-86524647D01*
X159411777Y-86791232D01*
X159411708Y-86791528D01*
X159337149Y-87069781D01*
X159337140Y-87069862D01*
X159299500Y-87355769D01*
X149193750Y-87355769D01*
X149193750Y-84712500D01*
X149192961Y-84705497D01*
X149189525Y-84675003D01*
X149188736Y-84667996D01*
X149150116Y-84587802D01*
X149080527Y-84532306D01*
X148993750Y-84512500D01*
X148993747Y-84512500D01*
X148954900Y-84512500D01*
X148950500Y-84511625D01*
X148950498Y-84511624D01*
X148948881Y-84510954D01*
X148942659Y-84504733D01*
X148942292Y-84503846D01*
X148941641Y-84497211D01*
X148942120Y-84494807D01*
X148948000Y-84465242D01*
X148948000Y-82014287D01*
X148948873Y-82009893D01*
X148949082Y-82009385D01*
X148949543Y-82008273D01*
X148955758Y-82002049D01*
X148956885Y-82001582D01*
X148957393Y-82001373D01*
X148961787Y-82000500D01*
X150506347Y-82000500D01*
X150510745Y-82001374D01*
X150514653Y-82002993D01*
X150518383Y-82005485D01*
X150573387Y-82060489D01*
X150676114Y-82119799D01*
X150790691Y-82150500D01*
X150909309Y-82150500D01*
X151023886Y-82119799D01*
X151126613Y-82060489D01*
X151210489Y-81976613D01*
X151269799Y-81873886D01*
X151300500Y-81759309D01*
X151300500Y-81640691D01*
X151269799Y-81526114D01*
X151210489Y-81423387D01*
X151126613Y-81339511D01*
X151126612Y-81339510D01*
X151126611Y-81339509D01*
X151030539Y-81284042D01*
X151028549Y-81281449D01*
X150909309Y-81249500D01*
X150790691Y-81249500D01*
X150676120Y-81280198D01*
X150676110Y-81280202D01*
X150573387Y-81339509D01*
X150518383Y-81394514D01*
X150514654Y-81397006D01*
X150512089Y-81398068D01*
X150510748Y-81398624D01*
X150506347Y-81399500D01*
X148891215Y-81399500D01*
X148886813Y-81398624D01*
X148884052Y-81397480D01*
X148877829Y-81391256D01*
X148868276Y-81368191D01*
X148863877Y-81361608D01*
X148791614Y-81253457D01*
X148717985Y-81179828D01*
X148715492Y-81176096D01*
X148713875Y-81172191D01*
X148713000Y-81167791D01*
X148713000Y-80758787D01*
X148713873Y-80754393D01*
X148714082Y-80753885D01*
X148714543Y-80752773D01*
X148720758Y-80746549D01*
X148721885Y-80746082D01*
X148722393Y-80745873D01*
X148726787Y-80745000D01*
X152058213Y-80745000D01*
X152062609Y-80745874D01*
X152063750Y-80746346D01*
X152064223Y-80746542D01*
X152064226Y-80746543D01*
X152070453Y-80752764D01*
X152070455Y-80752769D01*
X152071125Y-80754387D01*
X152072000Y-80758787D01*
X152072000Y-81235721D01*
X152071607Y-81238700D01*
X152070849Y-81241526D01*
X152069701Y-81244297D01*
X152033612Y-81306804D01*
X152033606Y-81306819D01*
X152033602Y-81306830D01*
X152008773Y-81399500D01*
X151999500Y-81434108D01*
X151999500Y-81565891D01*
X152003550Y-81581007D01*
X152007449Y-81595560D01*
X152007841Y-81598536D01*
X152007841Y-81601463D01*
X152007448Y-81604439D01*
X151999500Y-81634108D01*
X151999500Y-81765891D01*
X152007785Y-81796811D01*
X152033602Y-81893168D01*
X152033604Y-81893176D01*
X152033606Y-81893180D01*
X152033609Y-81893186D01*
X152033612Y-81893194D01*
X152081774Y-81976613D01*
X152097004Y-82002992D01*
X152099500Y-82007314D01*
X152192686Y-82100500D01*
X152306814Y-82166392D01*
X152434108Y-82200500D01*
X152565892Y-82200500D01*
X152693186Y-82166392D01*
X152807314Y-82100500D01*
X152900500Y-82007314D01*
X152966392Y-81893186D01*
X153000500Y-81765892D01*
X153000500Y-81691774D01*
X153000890Y-81688805D01*
X153001650Y-81685968D01*
X153002795Y-81683204D01*
X153038892Y-81620686D01*
X153072389Y-81495672D01*
X153073000Y-81493393D01*
X153073000Y-81361608D01*
X153073000Y-80758787D01*
X153073873Y-80754393D01*
X153074082Y-80753885D01*
X153074543Y-80752773D01*
X153080758Y-80746549D01*
X153081885Y-80746082D01*
X153082393Y-80745873D01*
X153086787Y-80745000D01*
X153787499Y-80745000D01*
X153787500Y-80745000D01*
X153832004Y-80739986D01*
X153912198Y-80701366D01*
X153967694Y-80631777D01*
X153987500Y-80545000D01*
X153987500Y-77217000D01*
X153990868Y-77208868D01*
X153999000Y-77205500D01*
X156233500Y-77205500D01*
X156241632Y-77208868D01*
X156245000Y-77217000D01*
X156245000Y-80544998D01*
X156250014Y-80589505D01*
X156288633Y-80669697D01*
X156288634Y-80669698D01*
X156358223Y-80725194D01*
X156445000Y-80745000D01*
X157600846Y-80745000D01*
X157605244Y-80745874D01*
X157609152Y-80747493D01*
X157612882Y-80749985D01*
X159223386Y-82360489D01*
X159326113Y-82419799D01*
X159350326Y-82426286D01*
X159440691Y-82450500D01*
X160094309Y-82450500D01*
X160184673Y-82426286D01*
X160208887Y-82419799D01*
X160311614Y-82360489D01*
X160695489Y-81976614D01*
X160754799Y-81873887D01*
X160767094Y-81828000D01*
X160785500Y-81759309D01*
X160785500Y-81640691D01*
X160760166Y-81546144D01*
X160754799Y-81526113D01*
X160695489Y-81423386D01*
X160611614Y-81339511D01*
X160611613Y-81339510D01*
X160611612Y-81339509D01*
X160508896Y-81280206D01*
X160508891Y-81280203D01*
X160508889Y-81280202D01*
X160508887Y-81280201D01*
X160508886Y-81280200D01*
X160508881Y-81280198D01*
X160508874Y-81280195D01*
X160508802Y-81280177D01*
X160484673Y-81273713D01*
X160394309Y-81249500D01*
X160275691Y-81249500D01*
X160185326Y-81273713D01*
X160161119Y-81280198D01*
X160161109Y-81280202D01*
X160058386Y-81339509D01*
X159853382Y-81544514D01*
X159849653Y-81547006D01*
X159847088Y-81548068D01*
X159845747Y-81548624D01*
X159841346Y-81549500D01*
X159693654Y-81549500D01*
X159689252Y-81548624D01*
X159685347Y-81547006D01*
X159681617Y-81544514D01*
X158903352Y-80766249D01*
X158900860Y-80762519D01*
X158900386Y-80761375D01*
X158900385Y-80752573D01*
X158906606Y-80746350D01*
X158907260Y-80746079D01*
X158907760Y-80745873D01*
X158912154Y-80745000D01*
X163434999Y-80745000D01*
X163435000Y-80745000D01*
X163479504Y-80739986D01*
X163559698Y-80701366D01*
X163615194Y-80631777D01*
X163635000Y-80545000D01*
X163635000Y-77217000D01*
X163638368Y-77208868D01*
X163646500Y-77205500D01*
X166995235Y-77205500D01*
X166995236Y-77205500D01*
X167073870Y-77189860D01*
X167082002Y-77186492D01*
X167148678Y-77141942D01*
X167679869Y-76610750D01*
X167688000Y-76607383D01*
X167696132Y-76610751D01*
X167699500Y-76618883D01*
X167699500Y-110403206D01*
X167698752Y-110405888D01*
X167698622Y-110407614D01*
X167698417Y-110408108D01*
X167698025Y-110408498D01*
X167697844Y-110409151D01*
X167697597Y-110409560D01*
X167695180Y-110411340D01*
X167692189Y-110414327D01*
X167691125Y-110414326D01*
X167690510Y-110414780D01*
X167687508Y-110414324D01*
X167683387Y-110414322D01*
X167682592Y-110413578D01*
X167681808Y-110413459D01*
X167680345Y-110411472D01*
X167677485Y-110408794D01*
X167677443Y-110408709D01*
X167676834Y-110406706D01*
X167676588Y-110406372D01*
X167676636Y-110406054D01*
X167676351Y-110405116D01*
X167671404Y-110367537D01*
X167613710Y-110152219D01*
X167528405Y-109946274D01*
X167528400Y-109946266D01*
X167501977Y-109900500D01*
X167416952Y-109753232D01*
X167400490Y-109731778D01*
X167393941Y-109723243D01*
X167281247Y-109576376D01*
X167123624Y-109418753D01*
X166946919Y-109283163D01*
X166946810Y-109283076D01*
X166946779Y-109283056D01*
X166946774Y-109283052D01*
X166946773Y-109283051D01*
X166946770Y-109283049D01*
X166921061Y-109268206D01*
X166753732Y-109171597D01*
X166547771Y-109086286D01*
X166405617Y-109048196D01*
X166332474Y-109028598D01*
X166332471Y-109028597D01*
X166332469Y-109028597D01*
X166332464Y-109028596D01*
X166332463Y-109028596D01*
X166137860Y-109002976D01*
X166111459Y-108999500D01*
X166111458Y-108999500D01*
X166111457Y-108999500D01*
X165888543Y-108999500D01*
X165888541Y-108999500D01*
X165888539Y-108999500D01*
X165809099Y-109009959D01*
X165667616Y-109028585D01*
X165667615Y-109028584D01*
X165667533Y-109028595D01*
X165452592Y-109086189D01*
X165452296Y-109086258D01*
X165452224Y-109086288D01*
X165452223Y-109086288D01*
X165420331Y-109099498D01*
X165246266Y-109171597D01*
X165053232Y-109283046D01*
X165022252Y-109306819D01*
X164876499Y-109418659D01*
X164876386Y-109418742D01*
X164718739Y-109576389D01*
X164718659Y-109576498D01*
X164690028Y-109613812D01*
X164583046Y-109753232D01*
X164471597Y-109946266D01*
X164408913Y-110097599D01*
X164395711Y-110129475D01*
X164386258Y-110152296D01*
X164386189Y-110152592D01*
X164328594Y-110367535D01*
X164328585Y-110367616D01*
X164299500Y-110588540D01*
X164299500Y-110811458D01*
X164328597Y-111032472D01*
X164386189Y-111247406D01*
X164386258Y-111247702D01*
X164386287Y-111247773D01*
X164386288Y-111247775D01*
X164386288Y-111247776D01*
X164425810Y-111343191D01*
X164471597Y-111453732D01*
X164532708Y-111559578D01*
X164583049Y-111646770D01*
X164583051Y-111646773D01*
X164583052Y-111646774D01*
X164583056Y-111646779D01*
X164583076Y-111646810D01*
X164583163Y-111646919D01*
X164718753Y-111823624D01*
X164876376Y-111981247D01*
X165053226Y-112116948D01*
X165053229Y-112116950D01*
X165053231Y-112116951D01*
X165053233Y-112116953D01*
X165157058Y-112176896D01*
X165160433Y-112179856D01*
X165161187Y-112180839D01*
X165163463Y-112189341D01*
X165159086Y-112196943D01*
X165159061Y-112196961D01*
X165159061Y-112196963D01*
X165159059Y-112196963D01*
X165158876Y-112197105D01*
X165151852Y-112199500D01*
X118501350Y-112199500D01*
X118500448Y-112199464D01*
X118499662Y-112199402D01*
X118499546Y-112199393D01*
X118498656Y-112199287D01*
X118441046Y-112190162D01*
X118439292Y-112189741D01*
X118437593Y-112189189D01*
X118435925Y-112188499D01*
X118385166Y-112162636D01*
X118383628Y-112161693D01*
X118382180Y-112160641D01*
X118380807Y-112159469D01*
X118340529Y-112119191D01*
X118339357Y-112117818D01*
X118338305Y-112116370D01*
X118337362Y-112114832D01*
X118311499Y-112064073D01*
X118310809Y-112062405D01*
X118310258Y-112060709D01*
X118309837Y-112058955D01*
X118309837Y-112058952D01*
X118300710Y-112001326D01*
X118300608Y-112000466D01*
X118300534Y-111999536D01*
X118300500Y-111998649D01*
X118300500Y-110920943D01*
X118399500Y-110920943D01*
X118399500Y-111079057D01*
X118399501Y-111079060D01*
X118399853Y-111080374D01*
X118399853Y-111080375D01*
X118440417Y-111231766D01*
X118440419Y-111231774D01*
X118440421Y-111231778D01*
X118440424Y-111231784D01*
X118440427Y-111231792D01*
X118449658Y-111247781D01*
X118504738Y-111343183D01*
X118519480Y-111368716D01*
X118631284Y-111480520D01*
X118768216Y-111559577D01*
X118920943Y-111600500D01*
X119079057Y-111600500D01*
X119231784Y-111559577D01*
X119368716Y-111480520D01*
X119480520Y-111368716D01*
X119559577Y-111231784D01*
X119591844Y-111111361D01*
X119599148Y-111084105D01*
X124499500Y-111084105D01*
X124499500Y-111215889D01*
X124503754Y-111231766D01*
X124503759Y-111231784D01*
X124533602Y-111343165D01*
X124533604Y-111343173D01*
X124533606Y-111343177D01*
X124533609Y-111343183D01*
X124533612Y-111343191D01*
X124548349Y-111368716D01*
X124597433Y-111453732D01*
X124599500Y-111457311D01*
X124692686Y-111550497D01*
X124806814Y-111616389D01*
X124934108Y-111650497D01*
X125065892Y-111650497D01*
X125193186Y-111616389D01*
X125307314Y-111550497D01*
X125400500Y-111457311D01*
X125466392Y-111343183D01*
X125500500Y-111215889D01*
X125500500Y-111084105D01*
X125749497Y-111084105D01*
X125749497Y-111215889D01*
X125753751Y-111231766D01*
X125753756Y-111231784D01*
X125783599Y-111343165D01*
X125783601Y-111343173D01*
X125783603Y-111343177D01*
X125783606Y-111343183D01*
X125783609Y-111343191D01*
X125798346Y-111368716D01*
X125847430Y-111453732D01*
X125849497Y-111457311D01*
X125942683Y-111550497D01*
X126056811Y-111616389D01*
X126184105Y-111650497D01*
X126315889Y-111650497D01*
X126443183Y-111616389D01*
X126557311Y-111550497D01*
X126650497Y-111457311D01*
X126716389Y-111343183D01*
X126750497Y-111215889D01*
X126750497Y-111084105D01*
X126999500Y-111084105D01*
X126999500Y-111215889D01*
X127003754Y-111231766D01*
X127003759Y-111231784D01*
X127033602Y-111343165D01*
X127033604Y-111343173D01*
X127033606Y-111343177D01*
X127033609Y-111343183D01*
X127033612Y-111343191D01*
X127048349Y-111368716D01*
X127097433Y-111453732D01*
X127099500Y-111457311D01*
X127192686Y-111550497D01*
X127306814Y-111616389D01*
X127434108Y-111650497D01*
X127565892Y-111650497D01*
X127693186Y-111616389D01*
X127807314Y-111550497D01*
X127900500Y-111457311D01*
X127966392Y-111343183D01*
X128000500Y-111215889D01*
X128000500Y-111084105D01*
X128499500Y-111084105D01*
X128499500Y-111215889D01*
X128503754Y-111231766D01*
X128503759Y-111231784D01*
X128533602Y-111343165D01*
X128533604Y-111343173D01*
X128533606Y-111343177D01*
X128533609Y-111343183D01*
X128533612Y-111343191D01*
X128548349Y-111368716D01*
X128597433Y-111453732D01*
X128599500Y-111457311D01*
X128692686Y-111550497D01*
X128806814Y-111616389D01*
X128934108Y-111650497D01*
X129065892Y-111650497D01*
X129193186Y-111616389D01*
X129307314Y-111550497D01*
X129400500Y-111457311D01*
X129466392Y-111343183D01*
X129500500Y-111215889D01*
X129500500Y-111084105D01*
X130499500Y-111084105D01*
X130499500Y-111215889D01*
X130503754Y-111231766D01*
X130503759Y-111231784D01*
X130533602Y-111343165D01*
X130533604Y-111343173D01*
X130533606Y-111343177D01*
X130533609Y-111343183D01*
X130533612Y-111343191D01*
X130548349Y-111368716D01*
X130597433Y-111453732D01*
X130599500Y-111457311D01*
X130692686Y-111550497D01*
X130806814Y-111616389D01*
X130934108Y-111650497D01*
X131065892Y-111650497D01*
X131193186Y-111616389D01*
X131307314Y-111550497D01*
X131400500Y-111457311D01*
X131466392Y-111343183D01*
X131500500Y-111215889D01*
X131500500Y-111084105D01*
X131466392Y-110956811D01*
X131400500Y-110842683D01*
X131307314Y-110749497D01*
X131307313Y-110749496D01*
X131307312Y-110749495D01*
X131193195Y-110683610D01*
X131193193Y-110683609D01*
X131193190Y-110683607D01*
X131193188Y-110683606D01*
X131193186Y-110683605D01*
X131193185Y-110683604D01*
X131193180Y-110683602D01*
X131193168Y-110683598D01*
X131193102Y-110683581D01*
X131065892Y-110649497D01*
X130934108Y-110649497D01*
X130806830Y-110683599D01*
X130806819Y-110683603D01*
X130806817Y-110683604D01*
X130806812Y-110683606D01*
X130806804Y-110683609D01*
X130692686Y-110749495D01*
X130599498Y-110842683D01*
X130533612Y-110956801D01*
X130533606Y-110956816D01*
X130533602Y-110956827D01*
X130513337Y-111032463D01*
X130499500Y-111084105D01*
X129500500Y-111084105D01*
X129466392Y-110956811D01*
X129400500Y-110842683D01*
X129307314Y-110749497D01*
X129307313Y-110749496D01*
X129307312Y-110749495D01*
X129193195Y-110683610D01*
X129193193Y-110683609D01*
X129193190Y-110683607D01*
X129193188Y-110683606D01*
X129193186Y-110683605D01*
X129193185Y-110683604D01*
X129193180Y-110683602D01*
X129193168Y-110683598D01*
X129193102Y-110683581D01*
X129065892Y-110649497D01*
X128934108Y-110649497D01*
X128806830Y-110683599D01*
X128806819Y-110683603D01*
X128806817Y-110683604D01*
X128806812Y-110683606D01*
X128806804Y-110683609D01*
X128692686Y-110749495D01*
X128599498Y-110842683D01*
X128533612Y-110956801D01*
X128533606Y-110956816D01*
X128533602Y-110956827D01*
X128513337Y-111032463D01*
X128499500Y-111084105D01*
X128000500Y-111084105D01*
X127966392Y-110956811D01*
X127900500Y-110842683D01*
X127807314Y-110749497D01*
X127807313Y-110749496D01*
X127807312Y-110749495D01*
X127693195Y-110683610D01*
X127693193Y-110683609D01*
X127693190Y-110683607D01*
X127693188Y-110683606D01*
X127693186Y-110683605D01*
X127693185Y-110683604D01*
X127693180Y-110683602D01*
X127693168Y-110683598D01*
X127693102Y-110683581D01*
X127565892Y-110649497D01*
X127434108Y-110649497D01*
X127306830Y-110683599D01*
X127306819Y-110683603D01*
X127306817Y-110683604D01*
X127306812Y-110683606D01*
X127306804Y-110683609D01*
X127192686Y-110749495D01*
X127099498Y-110842683D01*
X127033612Y-110956801D01*
X127033606Y-110956816D01*
X127033602Y-110956827D01*
X127013337Y-111032463D01*
X126999500Y-111084105D01*
X126750497Y-111084105D01*
X126716389Y-110956811D01*
X126650497Y-110842683D01*
X126557311Y-110749497D01*
X126557310Y-110749496D01*
X126557309Y-110749495D01*
X126443192Y-110683610D01*
X126443190Y-110683609D01*
X126443187Y-110683607D01*
X126443185Y-110683606D01*
X126443183Y-110683605D01*
X126443182Y-110683604D01*
X126443177Y-110683602D01*
X126443165Y-110683598D01*
X126443099Y-110683581D01*
X126315889Y-110649497D01*
X126184105Y-110649497D01*
X126056827Y-110683599D01*
X126056816Y-110683603D01*
X126056814Y-110683604D01*
X126056809Y-110683606D01*
X126056801Y-110683609D01*
X125942683Y-110749495D01*
X125849495Y-110842683D01*
X125783609Y-110956801D01*
X125783603Y-110956816D01*
X125783599Y-110956827D01*
X125763334Y-111032463D01*
X125749497Y-111084105D01*
X125500500Y-111084105D01*
X125466392Y-110956811D01*
X125400500Y-110842683D01*
X125307314Y-110749497D01*
X125307313Y-110749496D01*
X125307312Y-110749495D01*
X125193195Y-110683610D01*
X125193193Y-110683609D01*
X125193190Y-110683607D01*
X125193188Y-110683606D01*
X125193186Y-110683605D01*
X125193185Y-110683604D01*
X125193180Y-110683602D01*
X125193168Y-110683598D01*
X125193102Y-110683581D01*
X125065892Y-110649497D01*
X124934108Y-110649497D01*
X124806830Y-110683599D01*
X124806819Y-110683603D01*
X124806817Y-110683604D01*
X124806812Y-110683606D01*
X124806804Y-110683609D01*
X124692686Y-110749495D01*
X124599498Y-110842683D01*
X124533612Y-110956801D01*
X124533606Y-110956816D01*
X124533602Y-110956827D01*
X124513337Y-111032463D01*
X124499500Y-111084105D01*
X119599148Y-111084105D01*
X119600147Y-111080375D01*
X119600147Y-111080374D01*
X119600500Y-111079058D01*
X119600500Y-110920943D01*
X119573198Y-110819052D01*
X119559577Y-110768216D01*
X119480520Y-110631284D01*
X119368716Y-110519480D01*
X119368715Y-110519479D01*
X119368714Y-110519478D01*
X119231793Y-110440428D01*
X119231791Y-110440427D01*
X119231788Y-110440425D01*
X119231786Y-110440424D01*
X119231784Y-110440423D01*
X119231783Y-110440422D01*
X119231778Y-110440420D01*
X119231766Y-110440416D01*
X119231700Y-110440399D01*
X119125902Y-110412052D01*
X119086555Y-110401509D01*
X135500000Y-110401509D01*
X135500000Y-110598489D01*
X135538423Y-110791665D01*
X135538426Y-110791681D01*
X135538427Y-110791683D01*
X135538428Y-110791688D01*
X135606821Y-110956801D01*
X135613813Y-110973682D01*
X135705808Y-111111362D01*
X135723246Y-111137459D01*
X135784054Y-111198267D01*
X136129475Y-110852844D01*
X136137607Y-110849477D01*
X136145739Y-110852845D01*
X136147154Y-110854260D01*
X136150522Y-110862392D01*
X136147154Y-110870524D01*
X135801733Y-111215945D01*
X135801733Y-111215946D01*
X135862540Y-111276753D01*
X136026319Y-111386187D01*
X136208311Y-111461571D01*
X136208314Y-111461571D01*
X136208315Y-111461572D01*
X136303576Y-111480520D01*
X136401510Y-111500000D01*
X136598489Y-111500000D01*
X136598490Y-111500000D01*
X136791683Y-111461572D01*
X136791688Y-111461571D01*
X136973680Y-111386187D01*
X137137459Y-111276753D01*
X137198267Y-111215946D01*
X136852843Y-110870522D01*
X136849476Y-110862392D01*
X136852843Y-110854261D01*
X136854261Y-110852843D01*
X136862392Y-110849476D01*
X136870522Y-110852843D01*
X137215946Y-111198267D01*
X137276753Y-111137459D01*
X137386187Y-110973680D01*
X137461571Y-110791688D01*
X137461572Y-110791683D01*
X137469964Y-110749496D01*
X137500000Y-110598489D01*
X137500000Y-110401509D01*
X137461572Y-110208315D01*
X137461571Y-110208314D01*
X137461571Y-110208311D01*
X137386187Y-110026319D01*
X137276753Y-109862540D01*
X137215946Y-109801733D01*
X137215945Y-109801733D01*
X136870524Y-110147154D01*
X136862392Y-110150522D01*
X136854260Y-110147154D01*
X136852845Y-110145739D01*
X136849477Y-110137607D01*
X136852845Y-110129475D01*
X137015931Y-109966389D01*
X137198267Y-109784054D01*
X137137459Y-109723246D01*
X137137455Y-109723243D01*
X136973682Y-109613813D01*
X136889775Y-109579057D01*
X136791688Y-109538428D01*
X136791687Y-109538427D01*
X136791683Y-109538426D01*
X136630540Y-109506375D01*
X136598490Y-109500000D01*
X136598489Y-109500000D01*
X136401511Y-109500000D01*
X136401510Y-109500000D01*
X136374019Y-109505467D01*
X136208315Y-109538426D01*
X136208308Y-109538429D01*
X136026316Y-109613813D01*
X135862543Y-109723243D01*
X135801733Y-109784053D01*
X135801733Y-109784054D01*
X136147154Y-110129475D01*
X136150522Y-110137606D01*
X136147154Y-110145738D01*
X136145738Y-110147154D01*
X136137606Y-110150522D01*
X136129475Y-110147154D01*
X135784054Y-109801733D01*
X135784053Y-109801733D01*
X135723243Y-109862543D01*
X135613813Y-110026316D01*
X135538429Y-110208308D01*
X135538426Y-110208315D01*
X135500000Y-110401509D01*
X119086555Y-110401509D01*
X119079057Y-110399500D01*
X118920943Y-110399500D01*
X118768232Y-110440417D01*
X118768221Y-110440421D01*
X118768219Y-110440422D01*
X118768214Y-110440424D01*
X118768206Y-110440427D01*
X118631284Y-110519478D01*
X118519478Y-110631284D01*
X118440427Y-110768206D01*
X118440421Y-110768221D01*
X118440417Y-110768232D01*
X118417746Y-110852845D01*
X118405085Y-110900099D01*
X118399500Y-110920943D01*
X118300500Y-110920943D01*
X118300500Y-109420943D01*
X118399500Y-109420943D01*
X118399500Y-109579056D01*
X118408813Y-109613812D01*
X118440417Y-109731766D01*
X118440419Y-109731774D01*
X118440421Y-109731778D01*
X118440424Y-109731784D01*
X118440427Y-109731792D01*
X118470600Y-109784054D01*
X118484029Y-109807314D01*
X118519480Y-109868716D01*
X118631284Y-109980520D01*
X118768216Y-110059577D01*
X118920943Y-110100500D01*
X119079057Y-110100500D01*
X119231784Y-110059577D01*
X119368716Y-109980520D01*
X119480520Y-109868716D01*
X119559577Y-109731784D01*
X119600500Y-109579057D01*
X119600500Y-109420943D01*
X119559577Y-109268216D01*
X119480520Y-109131284D01*
X119368716Y-109019480D01*
X119368715Y-109019479D01*
X119368714Y-109019478D01*
X119231793Y-108940428D01*
X119231791Y-108940427D01*
X119231788Y-108940425D01*
X119231786Y-108940424D01*
X119231784Y-108940423D01*
X119231783Y-108940422D01*
X119231778Y-108940420D01*
X119231766Y-108940416D01*
X119231700Y-108940399D01*
X119079057Y-108899500D01*
X118920943Y-108899500D01*
X118768232Y-108940417D01*
X118768221Y-108940421D01*
X118768219Y-108940422D01*
X118768214Y-108940424D01*
X118768206Y-108940427D01*
X118631284Y-109019478D01*
X118519478Y-109131284D01*
X118440427Y-109268206D01*
X118440421Y-109268221D01*
X118440417Y-109268232D01*
X118400112Y-109418659D01*
X118399500Y-109420943D01*
X118300500Y-109420943D01*
X118300500Y-107920943D01*
X118399500Y-107920943D01*
X118399500Y-108079057D01*
X118404978Y-108099500D01*
X118440421Y-108231778D01*
X118440425Y-108231788D01*
X118483952Y-108307180D01*
X118519480Y-108368716D01*
X118631284Y-108480520D01*
X118768216Y-108559577D01*
X118920943Y-108600500D01*
X119079057Y-108600500D01*
X119231784Y-108559577D01*
X119368716Y-108480520D01*
X119480520Y-108368716D01*
X119559577Y-108231784D01*
X119600500Y-108079057D01*
X119600500Y-107920943D01*
X119559577Y-107768216D01*
X119480520Y-107631284D01*
X119368716Y-107519480D01*
X119368715Y-107519479D01*
X119368714Y-107519478D01*
X119231793Y-107440428D01*
X119231791Y-107440427D01*
X119231788Y-107440425D01*
X119231786Y-107440424D01*
X119231784Y-107440423D01*
X119231783Y-107440422D01*
X119231778Y-107440420D01*
X119231766Y-107440416D01*
X119231700Y-107440399D01*
X119079057Y-107399500D01*
X118920943Y-107399500D01*
X118768232Y-107440417D01*
X118768221Y-107440421D01*
X118768219Y-107440422D01*
X118768214Y-107440424D01*
X118768206Y-107440427D01*
X118631284Y-107519478D01*
X118519478Y-107631284D01*
X118440427Y-107768206D01*
X118440421Y-107768221D01*
X118440417Y-107768232D01*
X118399500Y-107920943D01*
X118300500Y-107920943D01*
X118300500Y-104935568D01*
X118301373Y-104931174D01*
X118301582Y-104930666D01*
X118302043Y-104929554D01*
X118308258Y-104923330D01*
X118308999Y-104923023D01*
X118316363Y-104922545D01*
X118420691Y-104950500D01*
X118539309Y-104950500D01*
X118600489Y-104934107D01*
X119999500Y-104934107D01*
X119999500Y-105065890D01*
X120033602Y-105193168D01*
X120033604Y-105193176D01*
X120033606Y-105193180D01*
X120033609Y-105193186D01*
X120033612Y-105193194D01*
X120081774Y-105276613D01*
X120099220Y-105306830D01*
X120099500Y-105307314D01*
X120192686Y-105400500D01*
X120306814Y-105466392D01*
X120434108Y-105500500D01*
X120565892Y-105500500D01*
X120693186Y-105466392D01*
X120800271Y-105404564D01*
X120804517Y-105403123D01*
X120806255Y-105402895D01*
X120814756Y-105405175D01*
X120814761Y-105405179D01*
X120814869Y-105405262D01*
X120818965Y-105411389D01*
X120819104Y-105411905D01*
X120819500Y-105414896D01*
X120819500Y-105491996D01*
X120818624Y-105496399D01*
X120817378Y-105499405D01*
X120812504Y-105504961D01*
X120752686Y-105539498D01*
X120659498Y-105632686D01*
X120593612Y-105746804D01*
X120593606Y-105746819D01*
X120593602Y-105746830D01*
X120578211Y-105804276D01*
X120570059Y-105834702D01*
X120559500Y-105874108D01*
X120559500Y-106005892D01*
X120566490Y-106031980D01*
X120568522Y-106039562D01*
X120593602Y-106133168D01*
X120593604Y-106133176D01*
X120593606Y-106133180D01*
X120593609Y-106133186D01*
X120593612Y-106133194D01*
X120630852Y-106197695D01*
X120645685Y-106223387D01*
X120659500Y-106247314D01*
X120752686Y-106340500D01*
X120866814Y-106406392D01*
X120994108Y-106440500D01*
X121125892Y-106440500D01*
X121253186Y-106406392D01*
X121367314Y-106340500D01*
X121460500Y-106247314D01*
X121526392Y-106133186D01*
X121560500Y-106005892D01*
X121560500Y-105874108D01*
X121526392Y-105746814D01*
X121460500Y-105632686D01*
X121425485Y-105597671D01*
X121422992Y-105593939D01*
X121421375Y-105590034D01*
X121420500Y-105585634D01*
X121420500Y-102311906D01*
X121420890Y-102308937D01*
X121421650Y-102306100D01*
X121422797Y-102303333D01*
X121422994Y-102302992D01*
X121486392Y-102193186D01*
X121520500Y-102065892D01*
X121520500Y-101934108D01*
X121486392Y-101806814D01*
X121420500Y-101692686D01*
X121327314Y-101599500D01*
X121327313Y-101599499D01*
X121327312Y-101599498D01*
X121213195Y-101533613D01*
X121213193Y-101533612D01*
X121213190Y-101533610D01*
X121213188Y-101533609D01*
X121213186Y-101533608D01*
X121213185Y-101533607D01*
X121213180Y-101533605D01*
X121213168Y-101533601D01*
X121213102Y-101533584D01*
X121085892Y-101499500D01*
X120954108Y-101499500D01*
X120826830Y-101533602D01*
X120826819Y-101533606D01*
X120826817Y-101533607D01*
X120826812Y-101533609D01*
X120826804Y-101533612D01*
X120712686Y-101599498D01*
X120619498Y-101692686D01*
X120553612Y-101806804D01*
X120553606Y-101806819D01*
X120553602Y-101806830D01*
X120521176Y-101927852D01*
X120519500Y-101934108D01*
X120519500Y-102065891D01*
X120528180Y-102098287D01*
X120553602Y-102193168D01*
X120553604Y-102193176D01*
X120553606Y-102193180D01*
X120553609Y-102193186D01*
X120553612Y-102193194D01*
X120619498Y-102307312D01*
X120712686Y-102400500D01*
X120811767Y-102457704D01*
X120815140Y-102460662D01*
X120817123Y-102463246D01*
X120819500Y-102470247D01*
X120819500Y-103072781D01*
X120818625Y-103077181D01*
X120817955Y-103078799D01*
X120811732Y-103085023D01*
X120811704Y-103085035D01*
X120811580Y-103085086D01*
X120804226Y-103085557D01*
X120803708Y-103085418D01*
X120800938Y-103084270D01*
X120713202Y-103033616D01*
X120713195Y-103033612D01*
X120713195Y-103033613D01*
X120713190Y-103033610D01*
X120713188Y-103033609D01*
X120713186Y-103033608D01*
X120713185Y-103033607D01*
X120713180Y-103033605D01*
X120713168Y-103033601D01*
X120713102Y-103033584D01*
X120585892Y-102999500D01*
X120454108Y-102999500D01*
X120326830Y-103033602D01*
X120326819Y-103033606D01*
X120326817Y-103033607D01*
X120326812Y-103033609D01*
X120326804Y-103033612D01*
X120212686Y-103099498D01*
X120119498Y-103192686D01*
X120053612Y-103306804D01*
X120053606Y-103306819D01*
X120053602Y-103306830D01*
X120019500Y-103434108D01*
X120019500Y-103565890D01*
X120053602Y-103693168D01*
X120053604Y-103693176D01*
X120053606Y-103693180D01*
X120053609Y-103693186D01*
X120053612Y-103693194D01*
X120101773Y-103776612D01*
X120114988Y-103799500D01*
X120119500Y-103807314D01*
X120212686Y-103900500D01*
X120212688Y-103900501D01*
X120212920Y-103900679D01*
X120215044Y-103902801D01*
X120217121Y-103905506D01*
X120219500Y-103912510D01*
X120219500Y-104383526D01*
X120219401Y-104385033D01*
X120219204Y-104386523D01*
X120218911Y-104387992D01*
X120199500Y-104460438D01*
X120199500Y-104586638D01*
X120198624Y-104591041D01*
X120197378Y-104594047D01*
X120193156Y-104598870D01*
X120193287Y-104599040D01*
X120192689Y-104599497D01*
X120192687Y-104599499D01*
X120192685Y-104599500D01*
X120192681Y-104599504D01*
X120099498Y-104692686D01*
X120033612Y-104806804D01*
X120033606Y-104806819D01*
X120033602Y-104806830D01*
X119999500Y-104934107D01*
X118600489Y-104934107D01*
X118644755Y-104922246D01*
X118648305Y-104921294D01*
X118653886Y-104919799D01*
X118756613Y-104860489D01*
X118840489Y-104776613D01*
X118899799Y-104673886D01*
X118930500Y-104559309D01*
X118930500Y-104440691D01*
X118899799Y-104326114D01*
X118840489Y-104223387D01*
X118756613Y-104139511D01*
X118756612Y-104139510D01*
X118756611Y-104139509D01*
X118681411Y-104096093D01*
X118655196Y-104080957D01*
X118655195Y-104080957D01*
X118653883Y-104080199D01*
X118539309Y-104049500D01*
X118420691Y-104049500D01*
X118317186Y-104077233D01*
X118312706Y-104077526D01*
X118310970Y-104077297D01*
X118310859Y-104077233D01*
X118303349Y-104072895D01*
X118302875Y-104072277D01*
X118300500Y-104065278D01*
X118300500Y-103440691D01*
X119049500Y-103440691D01*
X119049500Y-103559308D01*
X119051264Y-103565890D01*
X119062897Y-103609309D01*
X119069407Y-103633606D01*
X119080201Y-103673886D01*
X119091344Y-103693186D01*
X119109067Y-103723884D01*
X119139511Y-103776613D01*
X119223387Y-103860489D01*
X119326114Y-103919799D01*
X119440691Y-103950500D01*
X119559309Y-103950500D01*
X119673886Y-103919799D01*
X119776613Y-103860489D01*
X119860489Y-103776613D01*
X119919799Y-103673886D01*
X119950500Y-103559309D01*
X119950500Y-103440691D01*
X119919799Y-103326114D01*
X119860489Y-103223387D01*
X119776613Y-103139511D01*
X119776612Y-103139510D01*
X119776611Y-103139509D01*
X119699498Y-103094988D01*
X119675196Y-103080957D01*
X119675195Y-103080957D01*
X119673883Y-103080199D01*
X119559309Y-103049500D01*
X119440691Y-103049500D01*
X119326120Y-103080198D01*
X119326110Y-103080202D01*
X119223387Y-103139509D01*
X119139509Y-103223387D01*
X119080202Y-103326110D01*
X119080198Y-103326120D01*
X119066801Y-103376120D01*
X119049500Y-103440691D01*
X118300500Y-103440691D01*
X118300500Y-101940691D01*
X119549500Y-101940691D01*
X119549500Y-102059308D01*
X119551264Y-102065890D01*
X119577900Y-102165301D01*
X119580200Y-102173885D01*
X119618638Y-102240460D01*
X119639511Y-102276613D01*
X119723387Y-102360489D01*
X119826114Y-102419799D01*
X119940691Y-102450500D01*
X120059309Y-102450500D01*
X120173886Y-102419799D01*
X120276613Y-102360489D01*
X120360489Y-102276613D01*
X120419799Y-102173886D01*
X120450500Y-102059309D01*
X120450500Y-101940691D01*
X120419799Y-101826114D01*
X120360489Y-101723387D01*
X120276613Y-101639511D01*
X120276612Y-101639510D01*
X120276611Y-101639509D01*
X120180539Y-101584042D01*
X120178549Y-101581449D01*
X120059309Y-101549500D01*
X119940691Y-101549500D01*
X119826120Y-101580198D01*
X119826110Y-101580202D01*
X119723387Y-101639509D01*
X119639509Y-101723387D01*
X119580202Y-101826110D01*
X119580198Y-101826120D01*
X119552941Y-101927848D01*
X119549500Y-101940691D01*
X118300500Y-101940691D01*
X118300500Y-97940691D01*
X120499500Y-97940691D01*
X120499500Y-98059308D01*
X120507593Y-98089511D01*
X120530198Y-98173878D01*
X120530202Y-98173888D01*
X120544277Y-98198266D01*
X120589222Y-98276114D01*
X120589511Y-98276613D01*
X120673387Y-98360489D01*
X120776114Y-98419799D01*
X120890691Y-98450500D01*
X121009309Y-98450500D01*
X121123886Y-98419799D01*
X121226613Y-98360489D01*
X121310489Y-98276613D01*
X121369799Y-98173886D01*
X121400500Y-98059309D01*
X121400500Y-97940691D01*
X121370153Y-97827435D01*
X121369761Y-97824471D01*
X121369759Y-97822503D01*
X121373119Y-97814371D01*
X121381247Y-97810994D01*
X121389382Y-97814354D01*
X121389391Y-97814362D01*
X121694514Y-98119485D01*
X121697006Y-98123215D01*
X121698624Y-98127120D01*
X121699500Y-98131522D01*
X121699500Y-104570659D01*
X121698625Y-104575060D01*
X121697007Y-104578966D01*
X121694514Y-104582696D01*
X121689539Y-104587671D01*
X121689537Y-104587673D01*
X121689536Y-104587675D01*
X121649980Y-104656189D01*
X121649976Y-104656199D01*
X121640200Y-104692686D01*
X121629500Y-104732620D01*
X121629500Y-105267379D01*
X121637809Y-105298390D01*
X121649976Y-105343799D01*
X121649980Y-105343809D01*
X121670887Y-105380021D01*
X121689538Y-105412327D01*
X122305461Y-106028250D01*
X122307953Y-106031980D01*
X122308427Y-106033124D01*
X122308428Y-106041926D01*
X122302208Y-106048149D01*
X122301065Y-106048623D01*
X122296660Y-106049500D01*
X122290691Y-106049500D01*
X122176120Y-106080198D01*
X122176110Y-106080202D01*
X122073387Y-106139509D01*
X121989509Y-106223387D01*
X121930202Y-106326110D01*
X121930198Y-106326120D01*
X121904831Y-106420796D01*
X121899500Y-106440691D01*
X121899500Y-106559308D01*
X121924347Y-106652041D01*
X121928556Y-106667750D01*
X121930200Y-106673886D01*
X121989510Y-106776612D01*
X121989511Y-106776613D01*
X122073387Y-106860489D01*
X122176114Y-106919799D01*
X122290691Y-106950500D01*
X122409309Y-106950500D01*
X122523886Y-106919799D01*
X122626613Y-106860489D01*
X122710489Y-106776613D01*
X122729080Y-106744410D01*
X122732032Y-106741042D01*
X122733018Y-106740286D01*
X122741518Y-106738006D01*
X122749140Y-106742403D01*
X122749304Y-106742617D01*
X122751682Y-106749619D01*
X122751682Y-107326294D01*
X122750806Y-107330696D01*
X122749188Y-107334601D01*
X122746696Y-107338331D01*
X122089803Y-107995223D01*
X122086073Y-107997715D01*
X122083066Y-107998961D01*
X122076667Y-107999381D01*
X122076639Y-107999598D01*
X122075893Y-107999500D01*
X122075892Y-107999500D01*
X121944108Y-107999500D01*
X121816830Y-108033602D01*
X121816819Y-108033606D01*
X121816817Y-108033607D01*
X121816812Y-108033609D01*
X121816804Y-108033612D01*
X121702686Y-108099498D01*
X121609498Y-108192686D01*
X121543612Y-108306804D01*
X121543606Y-108306819D01*
X121543602Y-108306830D01*
X121516700Y-108407234D01*
X121514717Y-108411257D01*
X121513963Y-108412240D01*
X121506341Y-108416642D01*
X121497839Y-108414366D01*
X121497835Y-108414363D01*
X121497624Y-108414201D01*
X121493519Y-108408055D01*
X121482978Y-108368715D01*
X121466483Y-108307157D01*
X121466422Y-108306896D01*
X121466391Y-108306812D01*
X121400500Y-108192686D01*
X121307312Y-108099498D01*
X121193195Y-108033613D01*
X121193193Y-108033612D01*
X121193190Y-108033610D01*
X121193188Y-108033609D01*
X121193186Y-108033608D01*
X121193185Y-108033607D01*
X121193180Y-108033605D01*
X121193168Y-108033601D01*
X121193102Y-108033584D01*
X121065892Y-107999500D01*
X120934108Y-107999500D01*
X120806830Y-108033602D01*
X120806819Y-108033606D01*
X120806817Y-108033607D01*
X120806812Y-108033609D01*
X120806804Y-108033612D01*
X120692686Y-108099498D01*
X120599498Y-108192686D01*
X120533612Y-108306804D01*
X120533606Y-108306819D01*
X120533602Y-108306830D01*
X120517021Y-108368716D01*
X120506108Y-108409446D01*
X120499500Y-108434108D01*
X120499500Y-108565892D01*
X120533608Y-108693186D01*
X120599500Y-108807314D01*
X120692686Y-108900500D01*
X120806814Y-108966392D01*
X120874655Y-108984570D01*
X120888574Y-108988299D01*
X120892596Y-108990282D01*
X120893579Y-108991036D01*
X120897981Y-108998658D01*
X120895705Y-109007160D01*
X120895702Y-109007164D01*
X120895540Y-109007375D01*
X120889394Y-109011480D01*
X120806830Y-109033602D01*
X120806819Y-109033606D01*
X120806817Y-109033607D01*
X120806812Y-109033609D01*
X120806804Y-109033612D01*
X120692686Y-109099498D01*
X120599498Y-109192686D01*
X120533612Y-109306804D01*
X120533610Y-109306809D01*
X120533606Y-109306819D01*
X120499500Y-109434108D01*
X120499500Y-109565891D01*
X120503028Y-109579057D01*
X120533602Y-109693168D01*
X120533604Y-109693176D01*
X120533606Y-109693180D01*
X120533609Y-109693186D01*
X120533612Y-109693194D01*
X120596276Y-109801733D01*
X120596277Y-109801733D01*
X120599500Y-109807314D01*
X120692686Y-109900500D01*
X120806814Y-109966392D01*
X120934108Y-110000500D01*
X121065892Y-110000500D01*
X121193186Y-109966392D01*
X121307314Y-109900500D01*
X121400500Y-109807314D01*
X121466392Y-109693186D01*
X121500500Y-109565892D01*
X121500500Y-109434108D01*
X121466392Y-109306814D01*
X121400500Y-109192686D01*
X121307314Y-109099500D01*
X121307313Y-109099499D01*
X121307312Y-109099498D01*
X121193195Y-109033613D01*
X121193193Y-109033612D01*
X121193190Y-109033610D01*
X121193188Y-109033609D01*
X121193186Y-109033608D01*
X121193185Y-109033607D01*
X121193180Y-109033605D01*
X121193168Y-109033601D01*
X121193102Y-109033584D01*
X121111425Y-109011700D01*
X121107402Y-109009717D01*
X121106419Y-109008963D01*
X121102017Y-109001341D01*
X121104293Y-108992839D01*
X121104296Y-108992835D01*
X121104458Y-108992624D01*
X121110602Y-108988519D01*
X121193186Y-108966392D01*
X121307314Y-108900500D01*
X121400500Y-108807314D01*
X121466392Y-108693186D01*
X121493301Y-108592756D01*
X121495282Y-108588739D01*
X121496040Y-108587752D01*
X121503661Y-108583354D01*
X121512162Y-108585634D01*
X121512163Y-108585634D01*
X121512374Y-108585796D01*
X121516479Y-108591942D01*
X121543606Y-108693180D01*
X121543608Y-108693186D01*
X121609500Y-108807314D01*
X121702686Y-108900500D01*
X121816814Y-108966392D01*
X121944108Y-109000500D01*
X122075892Y-109000500D01*
X122203186Y-108966392D01*
X122317314Y-108900500D01*
X122410500Y-108807314D01*
X122476392Y-108693186D01*
X122510500Y-108565892D01*
X122510500Y-108434108D01*
X122510498Y-108434103D01*
X122510460Y-108433811D01*
X122510459Y-108430811D01*
X122510902Y-108427429D01*
X122514171Y-108420797D01*
X123292642Y-107642329D01*
X123299019Y-107631284D01*
X123332203Y-107573807D01*
X123352682Y-107497380D01*
X123352682Y-106664287D01*
X123353555Y-106659893D01*
X123353764Y-106659385D01*
X123354225Y-106658273D01*
X123360440Y-106652049D01*
X123361567Y-106651582D01*
X123362075Y-106651373D01*
X123366469Y-106650500D01*
X126522784Y-106650500D01*
X126527180Y-106651374D01*
X126528377Y-106651869D01*
X126528794Y-106652042D01*
X126528797Y-106652043D01*
X126528808Y-106652054D01*
X126528825Y-106652054D01*
X126528829Y-106652056D01*
X126531995Y-106655238D01*
X126535023Y-106658263D01*
X126535028Y-106658275D01*
X126535037Y-106658295D01*
X126535088Y-106658419D01*
X126535559Y-106665773D01*
X126535420Y-106666291D01*
X126535066Y-106667144D01*
X126535066Y-106667220D01*
X126535013Y-106667272D01*
X126534272Y-106669061D01*
X126483612Y-106756804D01*
X126483606Y-106756819D01*
X126483602Y-106756830D01*
X126478302Y-106776613D01*
X126455829Y-106860489D01*
X126449500Y-106884108D01*
X126449500Y-107015892D01*
X126483608Y-107143186D01*
X126549500Y-107257314D01*
X126642686Y-107350500D01*
X126756814Y-107416392D01*
X126884108Y-107450500D01*
X127015892Y-107450500D01*
X127143186Y-107416392D01*
X127257314Y-107350500D01*
X127350500Y-107257314D01*
X127416392Y-107143186D01*
X127450500Y-107015892D01*
X127450500Y-106884108D01*
X127416392Y-106756814D01*
X127366112Y-106669729D01*
X127364670Y-106665479D01*
X127364442Y-106663744D01*
X127366722Y-106655243D01*
X127366726Y-106655238D01*
X127366809Y-106655130D01*
X127372954Y-106651029D01*
X127373475Y-106650889D01*
X127376443Y-106650500D01*
X128369949Y-106650500D01*
X128374347Y-106651374D01*
X128378255Y-106652993D01*
X128381985Y-106655485D01*
X129066959Y-107340459D01*
X129135482Y-107380021D01*
X129211908Y-107400499D01*
X129291032Y-107400499D01*
X129606347Y-107400499D01*
X129610745Y-107401373D01*
X129614653Y-107402992D01*
X129618383Y-107405484D01*
X129673387Y-107460488D01*
X129776114Y-107519798D01*
X129890691Y-107550499D01*
X130009309Y-107550499D01*
X130123886Y-107519798D01*
X130226613Y-107460488D01*
X130310489Y-107376612D01*
X130369799Y-107273885D01*
X130400500Y-107159308D01*
X130400500Y-107040690D01*
X130399381Y-107036518D01*
X130399088Y-107032044D01*
X130399512Y-107028817D01*
X130402781Y-107022187D01*
X131240460Y-106184511D01*
X131254599Y-106160021D01*
X131280021Y-106115989D01*
X131300500Y-106039562D01*
X131300500Y-104615691D01*
X153049500Y-104615691D01*
X153049500Y-104734308D01*
X153060835Y-104776612D01*
X153080198Y-104848878D01*
X153080202Y-104848888D01*
X153122513Y-104922173D01*
X153128926Y-104933281D01*
X153139511Y-104951613D01*
X153223387Y-105035489D01*
X153326114Y-105094799D01*
X153440691Y-105125500D01*
X153559309Y-105125500D01*
X153673886Y-105094799D01*
X153776613Y-105035489D01*
X153860489Y-104951613D01*
X153919799Y-104848886D01*
X153950500Y-104734309D01*
X153950500Y-104615691D01*
X153919799Y-104501114D01*
X153860489Y-104398387D01*
X153776613Y-104314511D01*
X153776612Y-104314510D01*
X153776611Y-104314509D01*
X153680539Y-104259042D01*
X153678549Y-104256449D01*
X153559309Y-104224500D01*
X153440691Y-104224500D01*
X153326120Y-104255198D01*
X153326110Y-104255202D01*
X153223387Y-104314509D01*
X153139509Y-104398387D01*
X153080202Y-104501110D01*
X153080198Y-104501120D01*
X153053838Y-104599500D01*
X153049500Y-104615691D01*
X131300500Y-104615691D01*
X131300500Y-103893653D01*
X131301375Y-103889253D01*
X131302992Y-103885348D01*
X131305482Y-103881619D01*
X131326613Y-103860489D01*
X131360489Y-103826613D01*
X131419799Y-103723886D01*
X131419802Y-103723878D01*
X131443988Y-103633612D01*
X131450500Y-103609309D01*
X131450500Y-103490691D01*
X131419799Y-103376114D01*
X131360489Y-103273387D01*
X131276613Y-103189511D01*
X131276612Y-103189510D01*
X131276611Y-103189509D01*
X131190011Y-103139511D01*
X131175196Y-103130957D01*
X131175195Y-103130957D01*
X131173883Y-103130199D01*
X131059309Y-103099500D01*
X130940691Y-103099500D01*
X130826120Y-103130198D01*
X130826110Y-103130202D01*
X130723387Y-103189509D01*
X130639509Y-103273387D01*
X130580202Y-103376110D01*
X130580198Y-103376120D01*
X130564661Y-103434108D01*
X130549500Y-103490691D01*
X130549500Y-103609309D01*
X130556012Y-103633612D01*
X130560737Y-103651246D01*
X130580198Y-103723878D01*
X130580202Y-103723888D01*
X130639509Y-103826611D01*
X130694514Y-103881616D01*
X130697006Y-103885346D01*
X130698624Y-103889251D01*
X130699500Y-103893653D01*
X130699500Y-105868476D01*
X130698624Y-105872878D01*
X130697006Y-105876783D01*
X130694514Y-105880513D01*
X130021749Y-106553278D01*
X130018019Y-106555770D01*
X130016875Y-106556244D01*
X130008073Y-106556245D01*
X130001849Y-106550022D01*
X130001846Y-106550014D01*
X130001373Y-106548870D01*
X130000500Y-106544476D01*
X130000500Y-106434113D01*
X130000500Y-106434109D01*
X130000500Y-106434108D01*
X130000498Y-106434103D01*
X130000460Y-106433811D01*
X130000459Y-106430811D01*
X130000902Y-106427429D01*
X130004171Y-106420797D01*
X130240460Y-106184511D01*
X130280022Y-106115988D01*
X130300500Y-106039562D01*
X130300500Y-105960438D01*
X130300500Y-101940691D01*
X130549500Y-101940691D01*
X130549500Y-102059308D01*
X130551264Y-102065890D01*
X130577900Y-102165301D01*
X130580200Y-102173885D01*
X130618638Y-102240460D01*
X130639511Y-102276613D01*
X130723387Y-102360489D01*
X130826114Y-102419799D01*
X130940691Y-102450500D01*
X131059309Y-102450500D01*
X131173886Y-102419799D01*
X131276613Y-102360489D01*
X131360489Y-102276613D01*
X131407192Y-102195722D01*
X135299500Y-102195722D01*
X135299500Y-103804276D01*
X135302354Y-103834704D01*
X135347206Y-103962882D01*
X135347437Y-103963249D01*
X135347720Y-103963578D01*
X135427850Y-104072150D01*
X135512546Y-104134658D01*
X135537115Y-104152791D01*
X135537116Y-104152792D01*
X135537117Y-104152792D01*
X135537118Y-104152793D01*
X135537273Y-104152847D01*
X135537320Y-104152879D01*
X135537430Y-104152921D01*
X135538477Y-104153355D01*
X135538957Y-104153436D01*
X135572853Y-104165297D01*
X135665297Y-104197645D01*
X135665298Y-104197645D01*
X135665301Y-104197646D01*
X135665314Y-104197647D01*
X135665503Y-104197679D01*
X135665816Y-104197694D01*
X135695734Y-104200500D01*
X135695742Y-104200500D01*
X137304258Y-104200500D01*
X137304266Y-104200500D01*
X137334699Y-104197646D01*
X137340198Y-104195722D01*
X157799500Y-104195722D01*
X157799500Y-105804276D01*
X157802354Y-105834704D01*
X157847206Y-105962882D01*
X157847437Y-105963249D01*
X157847720Y-105963578D01*
X157887528Y-106017516D01*
X157927850Y-106072150D01*
X157964910Y-106099501D01*
X157987249Y-106115988D01*
X158019118Y-106139509D01*
X158037115Y-106152791D01*
X158037116Y-106152792D01*
X158037117Y-106152792D01*
X158037118Y-106152793D01*
X158037273Y-106152847D01*
X158037320Y-106152879D01*
X158037430Y-106152921D01*
X158038477Y-106153355D01*
X158038958Y-106153436D01*
X158057775Y-106160021D01*
X158165297Y-106197645D01*
X158165298Y-106197645D01*
X158165301Y-106197646D01*
X158165314Y-106197647D01*
X158165503Y-106197679D01*
X158165816Y-106197694D01*
X158195734Y-106200500D01*
X158195742Y-106200500D01*
X159804258Y-106200500D01*
X159804266Y-106200500D01*
X159834699Y-106197646D01*
X159962882Y-106152793D01*
X160072150Y-106072150D01*
X160152793Y-105962882D01*
X160197646Y-105834699D01*
X160200500Y-105804266D01*
X160200500Y-104195734D01*
X160197646Y-104165301D01*
X160193269Y-104152793D01*
X160163150Y-104066718D01*
X160152793Y-104037118D01*
X160072150Y-103927850D01*
X159980879Y-103860489D01*
X159963578Y-103847720D01*
X159963249Y-103847437D01*
X159962882Y-103847206D01*
X159834704Y-103802354D01*
X159804276Y-103799500D01*
X159804271Y-103799500D01*
X159804266Y-103799500D01*
X158195734Y-103799500D01*
X158195728Y-103799500D01*
X158195722Y-103799500D01*
X158165294Y-103802354D01*
X158037116Y-103847206D01*
X158036747Y-103847438D01*
X158036420Y-103847720D01*
X157927852Y-103927848D01*
X157927848Y-103927852D01*
X157847720Y-104036420D01*
X157847438Y-104036747D01*
X157847206Y-104037116D01*
X157802354Y-104165294D01*
X157799500Y-104195722D01*
X137340198Y-104195722D01*
X137371971Y-104184604D01*
X137462882Y-104152793D01*
X137572150Y-104072150D01*
X137652793Y-103962882D01*
X137697646Y-103834699D01*
X137700500Y-103804266D01*
X137700500Y-102195734D01*
X137697646Y-102165301D01*
X137652793Y-102037118D01*
X137572150Y-101927850D01*
X137517516Y-101887528D01*
X137463578Y-101847720D01*
X137463249Y-101847437D01*
X137462882Y-101847206D01*
X137334704Y-101802354D01*
X137304276Y-101799500D01*
X137304271Y-101799500D01*
X137304266Y-101799500D01*
X135695734Y-101799500D01*
X135695728Y-101799500D01*
X135695722Y-101799500D01*
X135665294Y-101802354D01*
X135537116Y-101847206D01*
X135536747Y-101847438D01*
X135536420Y-101847720D01*
X135427852Y-101927848D01*
X135427848Y-101927852D01*
X135347720Y-102036420D01*
X135347438Y-102036747D01*
X135347206Y-102037116D01*
X135302354Y-102165294D01*
X135299500Y-102195722D01*
X131407192Y-102195722D01*
X131419799Y-102173886D01*
X131450500Y-102059309D01*
X131450500Y-101940691D01*
X131419799Y-101826114D01*
X131360489Y-101723387D01*
X131276613Y-101639511D01*
X131276612Y-101639510D01*
X131276611Y-101639509D01*
X131180539Y-101584042D01*
X131178549Y-101581449D01*
X131059309Y-101549500D01*
X130940691Y-101549500D01*
X130826120Y-101580198D01*
X130826110Y-101580202D01*
X130723387Y-101639509D01*
X130639509Y-101723387D01*
X130580202Y-101826110D01*
X130580198Y-101826120D01*
X130552941Y-101927848D01*
X130549500Y-101940691D01*
X130300500Y-101940691D01*
X130300500Y-98469441D01*
X132549500Y-98469441D01*
X132549500Y-98588058D01*
X132580200Y-98702634D01*
X132622624Y-98776115D01*
X132639511Y-98805363D01*
X132723387Y-98889239D01*
X132826114Y-98948549D01*
X132940691Y-98979250D01*
X133059309Y-98979250D01*
X133173886Y-98948549D01*
X133276613Y-98889239D01*
X133360489Y-98805363D01*
X133419799Y-98702636D01*
X133419802Y-98702628D01*
X133450500Y-98588058D01*
X133450500Y-98469441D01*
X134674500Y-98469441D01*
X134674500Y-98588058D01*
X134705200Y-98702634D01*
X134747624Y-98776115D01*
X134764511Y-98805363D01*
X134848387Y-98889239D01*
X134951114Y-98948549D01*
X135065691Y-98979250D01*
X135184309Y-98979250D01*
X135298886Y-98948549D01*
X135401613Y-98889239D01*
X135485489Y-98805363D01*
X135544799Y-98702636D01*
X135544802Y-98702628D01*
X135575500Y-98588058D01*
X135575500Y-98490691D01*
X138549500Y-98490691D01*
X138549500Y-98609308D01*
X138553406Y-98623886D01*
X138574506Y-98702634D01*
X138580200Y-98723885D01*
X138581775Y-98726612D01*
X138596093Y-98751411D01*
X138630201Y-98810489D01*
X138639511Y-98826613D01*
X138723387Y-98910489D01*
X138826114Y-98969799D01*
X138940691Y-99000500D01*
X139059309Y-99000500D01*
X139173886Y-98969799D01*
X139276613Y-98910489D01*
X139360489Y-98826613D01*
X139419799Y-98723886D01*
X139450500Y-98609309D01*
X139450500Y-98490691D01*
X139439731Y-98450500D01*
X139424301Y-98392913D01*
X139423706Y-98390691D01*
X146824500Y-98390691D01*
X146824500Y-98509308D01*
X146830433Y-98531449D01*
X146855198Y-98623878D01*
X146855202Y-98623888D01*
X146912935Y-98723886D01*
X146912936Y-98723886D01*
X146914511Y-98726613D01*
X146998387Y-98810489D01*
X147101114Y-98869799D01*
X147215691Y-98900500D01*
X147334309Y-98900500D01*
X147370917Y-98890691D01*
X149549500Y-98890691D01*
X149549500Y-99009309D01*
X149553881Y-99025660D01*
X149579021Y-99119485D01*
X149580201Y-99123886D01*
X149639511Y-99226613D01*
X149723387Y-99310489D01*
X149826114Y-99369799D01*
X149940691Y-99400500D01*
X150059309Y-99400500D01*
X150173886Y-99369799D01*
X150276613Y-99310489D01*
X150360489Y-99226613D01*
X150419799Y-99123886D01*
X150450500Y-99009309D01*
X150450500Y-98890691D01*
X150419799Y-98776114D01*
X150360489Y-98673387D01*
X150276613Y-98589511D01*
X150276612Y-98589510D01*
X150276611Y-98589509D01*
X150180539Y-98534042D01*
X150178549Y-98531449D01*
X150059309Y-98499500D01*
X149940691Y-98499500D01*
X149826120Y-98530198D01*
X149826110Y-98530202D01*
X149723387Y-98589509D01*
X149639509Y-98673387D01*
X149580202Y-98776110D01*
X149580198Y-98776120D01*
X149566669Y-98826613D01*
X149555098Y-98869799D01*
X149549500Y-98890691D01*
X147370917Y-98890691D01*
X147415187Y-98878829D01*
X147427923Y-98875415D01*
X147448886Y-98869799D01*
X147551613Y-98810489D01*
X147635489Y-98726613D01*
X147694799Y-98623886D01*
X147725500Y-98509309D01*
X147725500Y-98390691D01*
X147694799Y-98276114D01*
X147635489Y-98173387D01*
X147551613Y-98089511D01*
X147551612Y-98089510D01*
X147551611Y-98089509D01*
X147455539Y-98034042D01*
X147453549Y-98031449D01*
X147334309Y-97999500D01*
X147215691Y-97999500D01*
X147101120Y-98030198D01*
X147101110Y-98030202D01*
X146998387Y-98089509D01*
X146914509Y-98173387D01*
X146855202Y-98276110D01*
X146855198Y-98276120D01*
X146828404Y-98376120D01*
X146824500Y-98390691D01*
X139423706Y-98390691D01*
X139419799Y-98376114D01*
X139360489Y-98273387D01*
X139276612Y-98189510D01*
X139276611Y-98189509D01*
X139180539Y-98134042D01*
X139178549Y-98131449D01*
X139059309Y-98099500D01*
X138940691Y-98099500D01*
X138826120Y-98130198D01*
X138826110Y-98130202D01*
X138723387Y-98189509D01*
X138639509Y-98273387D01*
X138580202Y-98376110D01*
X138580198Y-98376120D01*
X138560269Y-98450500D01*
X138549500Y-98490691D01*
X135575500Y-98490691D01*
X135575500Y-98469441D01*
X135553191Y-98386185D01*
X135544799Y-98354864D01*
X135485489Y-98252137D01*
X135401613Y-98168261D01*
X135401612Y-98168260D01*
X135401611Y-98168259D01*
X135305539Y-98112792D01*
X135303549Y-98110199D01*
X135184309Y-98078250D01*
X135065691Y-98078250D01*
X134951120Y-98108948D01*
X134951110Y-98108952D01*
X134848387Y-98168259D01*
X134764509Y-98252137D01*
X134705202Y-98354860D01*
X134705198Y-98354870D01*
X134695005Y-98392913D01*
X134674500Y-98469441D01*
X133450500Y-98469441D01*
X133428191Y-98386185D01*
X133419799Y-98354864D01*
X133360489Y-98252137D01*
X133276613Y-98168261D01*
X133276612Y-98168260D01*
X133276611Y-98168259D01*
X133180539Y-98112792D01*
X133178549Y-98110199D01*
X133059309Y-98078250D01*
X132940691Y-98078250D01*
X132826120Y-98108948D01*
X132826110Y-98108952D01*
X132723387Y-98168259D01*
X132639509Y-98252137D01*
X132580202Y-98354860D01*
X132580198Y-98354870D01*
X132570005Y-98392913D01*
X132549500Y-98469441D01*
X130300500Y-98469441D01*
X130300500Y-97434108D01*
X130999500Y-97434108D01*
X130999500Y-97565892D01*
X131003432Y-97580568D01*
X131004935Y-97586177D01*
X131033602Y-97693168D01*
X131033604Y-97693176D01*
X131033606Y-97693180D01*
X131033609Y-97693186D01*
X131033612Y-97693194D01*
X131090479Y-97791690D01*
X131099322Y-97807007D01*
X131099500Y-97807314D01*
X131192686Y-97900500D01*
X131306814Y-97966392D01*
X131434108Y-98000500D01*
X131565892Y-98000500D01*
X131693186Y-97966392D01*
X131807314Y-97900500D01*
X131900500Y-97807314D01*
X131966392Y-97693186D01*
X132000500Y-97565892D01*
X132000500Y-97434108D01*
X147499500Y-97434108D01*
X147499500Y-97565892D01*
X147503432Y-97580568D01*
X147504935Y-97586177D01*
X147533602Y-97693168D01*
X147533604Y-97693176D01*
X147533606Y-97693180D01*
X147533609Y-97693186D01*
X147533612Y-97693194D01*
X147590479Y-97791690D01*
X147599322Y-97807007D01*
X147599500Y-97807314D01*
X147692686Y-97900500D01*
X147806814Y-97966392D01*
X147934108Y-98000500D01*
X148065892Y-98000500D01*
X148193186Y-97966392D01*
X148307314Y-97900500D01*
X148400500Y-97807314D01*
X148466392Y-97693186D01*
X148500500Y-97565892D01*
X148500500Y-97434108D01*
X148500498Y-97434103D01*
X148500460Y-97433811D01*
X148500459Y-97430811D01*
X148500902Y-97427429D01*
X148504171Y-97420797D01*
X148523459Y-97401509D01*
X158000000Y-97401509D01*
X158000000Y-97598489D01*
X158038423Y-97791665D01*
X158038426Y-97791681D01*
X158038427Y-97791683D01*
X158038428Y-97791688D01*
X158100148Y-97940691D01*
X158113813Y-97973682D01*
X158223243Y-98137455D01*
X158223246Y-98137459D01*
X158284054Y-98198267D01*
X158629475Y-97852844D01*
X158637607Y-97849477D01*
X158645739Y-97852845D01*
X158647154Y-97854260D01*
X158650522Y-97862392D01*
X158647154Y-97870524D01*
X158301733Y-98215945D01*
X158301733Y-98215946D01*
X158362540Y-98276753D01*
X158526319Y-98386187D01*
X158708311Y-98461571D01*
X158708314Y-98461571D01*
X158708315Y-98461572D01*
X158804913Y-98480786D01*
X158901510Y-98500000D01*
X159098489Y-98500000D01*
X159098490Y-98500000D01*
X159291683Y-98461572D01*
X159291688Y-98461571D01*
X159473680Y-98386187D01*
X159637459Y-98276753D01*
X159698267Y-98215946D01*
X159352843Y-97870522D01*
X159349476Y-97862392D01*
X159352843Y-97854261D01*
X159354261Y-97852843D01*
X159362392Y-97849476D01*
X159370522Y-97852843D01*
X159715946Y-98198267D01*
X159776753Y-98137459D01*
X159886187Y-97973680D01*
X159961571Y-97791688D01*
X159961572Y-97791683D01*
X159981163Y-97693194D01*
X160000000Y-97598489D01*
X160000000Y-97401509D01*
X159961572Y-97208315D01*
X159961571Y-97208314D01*
X159961571Y-97208311D01*
X159886187Y-97026319D01*
X159776753Y-96862540D01*
X159715946Y-96801733D01*
X159715945Y-96801733D01*
X159370524Y-97147154D01*
X159362392Y-97150522D01*
X159354260Y-97147154D01*
X159352845Y-97145739D01*
X159349477Y-97137607D01*
X159352845Y-97129475D01*
X159515931Y-96966389D01*
X159698267Y-96784054D01*
X159637459Y-96723246D01*
X159637455Y-96723243D01*
X159473682Y-96613813D01*
X159357987Y-96565890D01*
X159291688Y-96538428D01*
X159291687Y-96538427D01*
X159291683Y-96538426D01*
X159130540Y-96506375D01*
X159098490Y-96500000D01*
X159098489Y-96500000D01*
X158901511Y-96500000D01*
X158901510Y-96500000D01*
X158874019Y-96505467D01*
X158708315Y-96538426D01*
X158708308Y-96538429D01*
X158526316Y-96613813D01*
X158362543Y-96723243D01*
X158301733Y-96784053D01*
X158301733Y-96784054D01*
X158647154Y-97129475D01*
X158650522Y-97137606D01*
X158647154Y-97145738D01*
X158645738Y-97147154D01*
X158637606Y-97150522D01*
X158629475Y-97147154D01*
X158284054Y-96801733D01*
X158284053Y-96801733D01*
X158223243Y-96862543D01*
X158113813Y-97026316D01*
X158038429Y-97208308D01*
X158038426Y-97208315D01*
X158000000Y-97401509D01*
X148523459Y-97401509D01*
X149920198Y-96004770D01*
X149923924Y-96002281D01*
X149926932Y-96001035D01*
X149933333Y-96000617D01*
X149933362Y-96000402D01*
X149934106Y-96000500D01*
X149934108Y-96000500D01*
X149934110Y-96000500D01*
X150065892Y-96000500D01*
X150193186Y-95966392D01*
X150307314Y-95900500D01*
X150400500Y-95807314D01*
X150466392Y-95693186D01*
X150500500Y-95565892D01*
X150500500Y-95434108D01*
X150466392Y-95306814D01*
X150400500Y-95192686D01*
X150307314Y-95099500D01*
X150307313Y-95099499D01*
X150307312Y-95099498D01*
X150193195Y-95033613D01*
X150193193Y-95033612D01*
X150193190Y-95033610D01*
X150193188Y-95033609D01*
X150193186Y-95033608D01*
X150193185Y-95033607D01*
X150193180Y-95033605D01*
X150193168Y-95033601D01*
X150193102Y-95033584D01*
X150065892Y-94999500D01*
X149934108Y-94999500D01*
X149806830Y-95033602D01*
X149806819Y-95033606D01*
X149806817Y-95033607D01*
X149806812Y-95033609D01*
X149806804Y-95033612D01*
X149692686Y-95099498D01*
X149599498Y-95192686D01*
X149533612Y-95306804D01*
X149533606Y-95306819D01*
X149533602Y-95306830D01*
X149499500Y-95434108D01*
X149499500Y-95565894D01*
X149499540Y-95566200D01*
X149499538Y-95569197D01*
X149499092Y-95572576D01*
X149495823Y-95579203D01*
X148079803Y-96995223D01*
X148076073Y-96997715D01*
X148073066Y-96998961D01*
X148066667Y-96999381D01*
X148066639Y-96999598D01*
X148065893Y-96999500D01*
X148065892Y-96999500D01*
X147934108Y-96999500D01*
X147806830Y-97033602D01*
X147806819Y-97033606D01*
X147806804Y-97033612D01*
X147692686Y-97099498D01*
X147599498Y-97192686D01*
X147533612Y-97306804D01*
X147533607Y-97306816D01*
X147533601Y-97306834D01*
X147533556Y-97307005D01*
X147533550Y-97307027D01*
X147508235Y-97401509D01*
X147499500Y-97434108D01*
X132000500Y-97434108D01*
X131966392Y-97306814D01*
X131900500Y-97192686D01*
X131807314Y-97099500D01*
X131807311Y-97099498D01*
X131807310Y-97099497D01*
X131807064Y-97099308D01*
X131804945Y-97097186D01*
X131802874Y-97094485D01*
X131800500Y-97087488D01*
X131800500Y-94940691D01*
X155049500Y-94940691D01*
X155049500Y-95059309D01*
X155060269Y-95099498D01*
X155080200Y-95173884D01*
X155109791Y-95225138D01*
X155139511Y-95276613D01*
X155223387Y-95360489D01*
X155326114Y-95419799D01*
X155440691Y-95450500D01*
X155559309Y-95450500D01*
X155673886Y-95419799D01*
X155776613Y-95360489D01*
X155860489Y-95276613D01*
X155919799Y-95173886D01*
X155950500Y-95059309D01*
X155950500Y-94940691D01*
X155919799Y-94826114D01*
X155860489Y-94723387D01*
X155776613Y-94639511D01*
X155776612Y-94639510D01*
X155776611Y-94639509D01*
X155680539Y-94584042D01*
X155678549Y-94581449D01*
X155559309Y-94549500D01*
X155440691Y-94549500D01*
X155326120Y-94580198D01*
X155326110Y-94580202D01*
X155223387Y-94639509D01*
X155139509Y-94723387D01*
X155080202Y-94826110D01*
X155080198Y-94826120D01*
X155074338Y-94847991D01*
X155064687Y-94884011D01*
X155049500Y-94940691D01*
X131800500Y-94940691D01*
X131800500Y-94631520D01*
X131801375Y-94627121D01*
X131802991Y-94623218D01*
X131805481Y-94619488D01*
X132420198Y-94004770D01*
X132423924Y-94002281D01*
X132426932Y-94001035D01*
X132433333Y-94000617D01*
X132433362Y-94000402D01*
X132434106Y-94000500D01*
X132434108Y-94000500D01*
X132434110Y-94000500D01*
X132565892Y-94000500D01*
X132693186Y-93966392D01*
X132807314Y-93900500D01*
X132852044Y-93855770D01*
X159299500Y-93855770D01*
X159299500Y-94144230D01*
X159337152Y-94430226D01*
X159411708Y-94708470D01*
X159411777Y-94708766D01*
X159411806Y-94708837D01*
X159411807Y-94708839D01*
X159411807Y-94708840D01*
X159469445Y-94847991D01*
X159522198Y-94975351D01*
X159611043Y-95129234D01*
X159666422Y-95225152D01*
X159666424Y-95225155D01*
X159666425Y-95225156D01*
X159666429Y-95225161D01*
X159666449Y-95225192D01*
X159666536Y-95225301D01*
X159842026Y-95454004D01*
X160045996Y-95657974D01*
X160265121Y-95826114D01*
X160265120Y-95826114D01*
X160274843Y-95833574D01*
X160274847Y-95833577D01*
X160524651Y-95977802D01*
X160524652Y-95977802D01*
X160524806Y-95977891D01*
X160524812Y-95977895D01*
X160524869Y-95977928D01*
X160525339Y-95978087D01*
X160791155Y-96088191D01*
X160791159Y-96088192D01*
X160791162Y-96088192D01*
X160791165Y-96088194D01*
X160791217Y-96088207D01*
X161069771Y-96162846D01*
X161069772Y-96162846D01*
X161069783Y-96162849D01*
X161355772Y-96200500D01*
X161355776Y-96200500D01*
X161644224Y-96200500D01*
X161644228Y-96200500D01*
X161930217Y-96162849D01*
X161930228Y-96162846D01*
X161930229Y-96162846D01*
X161930247Y-96162840D01*
X161930266Y-96162837D01*
X161930270Y-96162834D01*
X162003136Y-96143310D01*
X162208845Y-96088191D01*
X162475345Y-95977804D01*
X162725156Y-95833575D01*
X162954004Y-95657974D01*
X163157974Y-95454004D01*
X163333575Y-95225156D01*
X163477804Y-94975345D01*
X163588191Y-94708845D01*
X163647165Y-94488749D01*
X163655726Y-94456801D01*
X163657625Y-94449711D01*
X163662846Y-94430229D01*
X163662846Y-94430228D01*
X163662845Y-94430228D01*
X163662849Y-94430217D01*
X163700500Y-94144228D01*
X163700500Y-93855772D01*
X163662849Y-93569783D01*
X163662125Y-93567082D01*
X163661806Y-93565893D01*
X163592384Y-93306804D01*
X163588194Y-93291166D01*
X163588194Y-93291164D01*
X163588192Y-93291159D01*
X163588191Y-93291155D01*
X163477804Y-93024655D01*
X163477799Y-93024647D01*
X163333577Y-92774847D01*
X163333575Y-92774844D01*
X163157974Y-92545996D01*
X162954004Y-92342026D01*
X162734882Y-92173888D01*
X162725301Y-92166536D01*
X162725192Y-92166449D01*
X162725161Y-92166429D01*
X162725156Y-92166425D01*
X162725155Y-92166424D01*
X162725152Y-92166422D01*
X162699718Y-92151738D01*
X162475351Y-92022198D01*
X162208835Y-91911805D01*
X162003551Y-91856800D01*
X161930228Y-91837153D01*
X161930225Y-91837152D01*
X161930223Y-91837152D01*
X161930218Y-91837151D01*
X161930217Y-91837151D01*
X161699318Y-91806752D01*
X161644231Y-91799500D01*
X161644229Y-91799500D01*
X161644228Y-91799500D01*
X161355772Y-91799500D01*
X161355770Y-91799500D01*
X161355767Y-91799500D01*
X161245591Y-91814005D01*
X161069862Y-91837140D01*
X161069861Y-91837139D01*
X161069779Y-91837150D01*
X160791528Y-91911708D01*
X160791232Y-91911777D01*
X160791160Y-91911807D01*
X160791159Y-91911807D01*
X160738671Y-91933548D01*
X160524647Y-92022198D01*
X160274850Y-92166419D01*
X160226047Y-92203868D01*
X160046119Y-92341932D01*
X160046006Y-92342015D01*
X159842015Y-92546006D01*
X159841940Y-92546107D01*
X159804435Y-92594986D01*
X159732275Y-92689026D01*
X159666419Y-92774850D01*
X159522198Y-93024647D01*
X159411777Y-93291232D01*
X159411708Y-93291528D01*
X159337149Y-93569781D01*
X159337140Y-93569861D01*
X159336358Y-93575807D01*
X159336358Y-93575808D01*
X159305880Y-93807314D01*
X159299500Y-93855770D01*
X132852044Y-93855770D01*
X132900500Y-93807314D01*
X132966392Y-93693186D01*
X133000500Y-93565892D01*
X133000500Y-93434108D01*
X132966392Y-93306814D01*
X132900500Y-93192686D01*
X132807314Y-93099500D01*
X132807313Y-93099499D01*
X132807312Y-93099498D01*
X132693195Y-93033613D01*
X132693193Y-93033612D01*
X132693190Y-93033610D01*
X132693188Y-93033609D01*
X132693186Y-93033608D01*
X132693185Y-93033607D01*
X132693180Y-93033605D01*
X132693168Y-93033601D01*
X132693102Y-93033584D01*
X132565892Y-92999500D01*
X132434108Y-92999500D01*
X132306830Y-93033602D01*
X132306819Y-93033606D01*
X132306817Y-93033607D01*
X132306812Y-93033609D01*
X132306804Y-93033612D01*
X132192686Y-93099498D01*
X132099498Y-93192686D01*
X132033612Y-93306804D01*
X132033606Y-93306819D01*
X131999500Y-93434108D01*
X131999500Y-93565894D01*
X131999540Y-93566200D01*
X131999538Y-93569197D01*
X131999092Y-93572576D01*
X131995823Y-93579203D01*
X131315489Y-94259540D01*
X131259538Y-94315489D01*
X131219980Y-94384007D01*
X131219976Y-94384017D01*
X131199500Y-94460438D01*
X131199500Y-97086638D01*
X131198624Y-97091041D01*
X131197378Y-97094047D01*
X131193156Y-97098870D01*
X131193287Y-97099040D01*
X131192689Y-97099497D01*
X131192687Y-97099499D01*
X131192685Y-97099500D01*
X131192681Y-97099504D01*
X131099498Y-97192686D01*
X131033612Y-97306804D01*
X131033607Y-97306816D01*
X131033601Y-97306834D01*
X131033556Y-97307005D01*
X131033550Y-97307027D01*
X131008235Y-97401509D01*
X130999500Y-97434108D01*
X130300500Y-97434108D01*
X130300500Y-95131520D01*
X130301375Y-95127121D01*
X130302991Y-95123218D01*
X130305482Y-95119487D01*
X130420198Y-95004770D01*
X130423924Y-95002281D01*
X130426932Y-95001035D01*
X130433333Y-95000617D01*
X130433362Y-95000402D01*
X130434106Y-95000500D01*
X130434108Y-95000500D01*
X130434110Y-95000500D01*
X130565892Y-95000500D01*
X130693186Y-94966392D01*
X130807314Y-94900500D01*
X130900500Y-94807314D01*
X130966392Y-94693186D01*
X131000500Y-94565892D01*
X131000500Y-94434108D01*
X130966392Y-94306814D01*
X130900500Y-94192686D01*
X130807314Y-94099500D01*
X130807313Y-94099499D01*
X130807312Y-94099498D01*
X130693195Y-94033613D01*
X130693193Y-94033612D01*
X130693190Y-94033610D01*
X130693188Y-94033609D01*
X130693186Y-94033608D01*
X130693185Y-94033607D01*
X130693180Y-94033605D01*
X130693168Y-94033601D01*
X130693102Y-94033584D01*
X130565892Y-93999500D01*
X130434108Y-93999500D01*
X130306830Y-94033602D01*
X130306819Y-94033606D01*
X130306817Y-94033607D01*
X130306812Y-94033609D01*
X130306804Y-94033612D01*
X130192686Y-94099498D01*
X130099498Y-94192686D01*
X130033612Y-94306804D01*
X130033606Y-94306819D01*
X130033602Y-94306830D01*
X129999500Y-94434108D01*
X129999500Y-94565894D01*
X129999540Y-94566200D01*
X129999538Y-94569197D01*
X129999092Y-94572576D01*
X129995823Y-94579203D01*
X129815489Y-94759540D01*
X129759538Y-94815489D01*
X129719980Y-94884007D01*
X129719976Y-94884017D01*
X129699500Y-94960438D01*
X129699500Y-97572781D01*
X129698625Y-97577181D01*
X129697955Y-97578799D01*
X129691732Y-97585023D01*
X129691704Y-97585035D01*
X129691580Y-97585086D01*
X129684226Y-97585557D01*
X129683708Y-97585418D01*
X129680938Y-97584270D01*
X129593202Y-97533616D01*
X129593195Y-97533612D01*
X129593195Y-97533613D01*
X129593190Y-97533610D01*
X129593188Y-97533609D01*
X129593186Y-97533608D01*
X129593185Y-97533607D01*
X129593180Y-97533605D01*
X129593168Y-97533601D01*
X129593102Y-97533584D01*
X129465892Y-97499500D01*
X129334108Y-97499500D01*
X129206830Y-97533602D01*
X129206819Y-97533606D01*
X129206817Y-97533607D01*
X129206812Y-97533609D01*
X129206804Y-97533612D01*
X129119732Y-97583883D01*
X129115484Y-97585325D01*
X129113746Y-97585554D01*
X129105262Y-97583291D01*
X129105155Y-97583208D01*
X129101026Y-97577032D01*
X129100888Y-97576514D01*
X129100500Y-97573554D01*
X129100500Y-96450573D01*
X129101374Y-96446175D01*
X129102373Y-96443762D01*
X129107239Y-96438208D01*
X129107709Y-96437936D01*
X129108541Y-96437591D01*
X129108595Y-96437538D01*
X129108671Y-96437537D01*
X129110480Y-96436787D01*
X129173886Y-96419799D01*
X129276613Y-96360489D01*
X129360489Y-96276613D01*
X129419799Y-96173886D01*
X129450500Y-96059309D01*
X129450500Y-95940691D01*
X129419799Y-95826114D01*
X129360489Y-95723387D01*
X129276613Y-95639511D01*
X129276612Y-95639510D01*
X129276611Y-95639509D01*
X129180539Y-95584042D01*
X129178549Y-95581449D01*
X129059309Y-95549500D01*
X128940691Y-95549500D01*
X128826120Y-95580198D01*
X128826110Y-95580202D01*
X128723387Y-95639509D01*
X128639509Y-95723387D01*
X128580202Y-95826110D01*
X128580198Y-95826120D01*
X128549500Y-95940691D01*
X128549500Y-96028282D01*
X128549107Y-96031261D01*
X128548349Y-96034087D01*
X128547201Y-96036858D01*
X128519980Y-96084007D01*
X128519976Y-96084017D01*
X128499500Y-96160438D01*
X128499500Y-100485712D01*
X128498625Y-100490112D01*
X128497955Y-100491730D01*
X128491732Y-100497954D01*
X128490115Y-100498624D01*
X128485713Y-100499500D01*
X128434106Y-100499500D01*
X128433801Y-100499540D01*
X128430807Y-100499539D01*
X128427426Y-100499094D01*
X128420795Y-100495824D01*
X124184509Y-96259538D01*
X124122642Y-96223820D01*
X124120652Y-96221227D01*
X124039562Y-96199500D01*
X122913360Y-96199500D01*
X122908960Y-96198625D01*
X122905954Y-96197380D01*
X122901136Y-96193150D01*
X122900959Y-96193286D01*
X122900504Y-96192693D01*
X122900500Y-96192686D01*
X122807314Y-96099500D01*
X122807313Y-96099499D01*
X122807312Y-96099498D01*
X122693195Y-96033613D01*
X122693193Y-96033612D01*
X122693190Y-96033610D01*
X122693188Y-96033609D01*
X122693186Y-96033608D01*
X122693185Y-96033607D01*
X122693180Y-96033605D01*
X122693168Y-96033601D01*
X122693102Y-96033584D01*
X122565892Y-95999500D01*
X122434108Y-95999500D01*
X122306830Y-96033602D01*
X122306819Y-96033606D01*
X122306817Y-96033607D01*
X122306812Y-96033609D01*
X122306804Y-96033612D01*
X122192686Y-96099498D01*
X122099498Y-96192686D01*
X122033612Y-96306804D01*
X122033606Y-96306819D01*
X122033602Y-96306830D01*
X121999500Y-96434108D01*
X121999500Y-96565890D01*
X122033602Y-96693168D01*
X122033606Y-96693179D01*
X122033612Y-96693194D01*
X122096276Y-96801733D01*
X122096277Y-96801733D01*
X122099366Y-96807083D01*
X122099500Y-96807314D01*
X122192686Y-96900500D01*
X122306814Y-96966392D01*
X122434108Y-97000500D01*
X122565892Y-97000500D01*
X122693186Y-96966392D01*
X122807314Y-96900500D01*
X122900500Y-96807314D01*
X122900505Y-96807304D01*
X122900676Y-96807083D01*
X122902804Y-96804952D01*
X122905359Y-96802992D01*
X122905512Y-96802875D01*
X122912511Y-96800500D01*
X123868478Y-96800500D01*
X123872876Y-96801374D01*
X123876784Y-96802993D01*
X123880514Y-96805485D01*
X127553279Y-100478250D01*
X127555771Y-100481980D01*
X127556245Y-100483124D01*
X127556246Y-100491926D01*
X127550026Y-100498149D01*
X127548883Y-100498623D01*
X127544478Y-100499500D01*
X127434106Y-100499500D01*
X127433801Y-100499540D01*
X127430807Y-100499539D01*
X127427426Y-100499094D01*
X127420795Y-100495824D01*
X127184509Y-100259538D01*
X127122642Y-100223820D01*
X127120652Y-100221227D01*
X127039562Y-100199500D01*
X124913360Y-100199500D01*
X124908960Y-100198625D01*
X124905954Y-100197380D01*
X124901136Y-100193150D01*
X124900959Y-100193286D01*
X124900504Y-100192693D01*
X124900500Y-100192686D01*
X124807314Y-100099500D01*
X124807313Y-100099499D01*
X124807312Y-100099498D01*
X124693195Y-100033613D01*
X124693193Y-100033612D01*
X124693190Y-100033610D01*
X124693188Y-100033609D01*
X124693186Y-100033608D01*
X124693185Y-100033607D01*
X124693180Y-100033605D01*
X124693168Y-100033601D01*
X124693102Y-100033584D01*
X124565892Y-99999500D01*
X124434108Y-99999500D01*
X124306830Y-100033602D01*
X124306819Y-100033606D01*
X124306817Y-100033607D01*
X124306812Y-100033609D01*
X124306804Y-100033612D01*
X124192686Y-100099498D01*
X124099498Y-100192686D01*
X124033612Y-100306804D01*
X124033606Y-100306819D01*
X124033602Y-100306830D01*
X123999500Y-100434108D01*
X123999500Y-100565890D01*
X124033602Y-100693168D01*
X124033606Y-100693179D01*
X124033612Y-100693194D01*
X124081774Y-100776613D01*
X124099366Y-100807083D01*
X124099500Y-100807314D01*
X124192686Y-100900500D01*
X124306814Y-100966392D01*
X124434108Y-101000500D01*
X124565892Y-101000500D01*
X124693186Y-100966392D01*
X124807314Y-100900500D01*
X124900500Y-100807314D01*
X124900505Y-100807304D01*
X124900676Y-100807083D01*
X124902804Y-100804952D01*
X124905359Y-100802992D01*
X124905512Y-100802875D01*
X124912511Y-100800500D01*
X126868478Y-100800500D01*
X126872876Y-100801374D01*
X126876784Y-100802993D01*
X126880514Y-100805485D01*
X126995224Y-100920195D01*
X126997716Y-100923926D01*
X126997717Y-100923927D01*
X126998962Y-100926933D01*
X126999385Y-100933331D01*
X126999598Y-100933359D01*
X126999500Y-100934105D01*
X126999500Y-100934108D01*
X126999500Y-101065892D01*
X127033608Y-101193186D01*
X127099500Y-101307314D01*
X127192686Y-101400500D01*
X127306814Y-101466392D01*
X127434108Y-101500500D01*
X127565892Y-101500500D01*
X127693186Y-101466392D01*
X127807314Y-101400500D01*
X127900500Y-101307314D01*
X127966392Y-101193186D01*
X127988301Y-101111417D01*
X127990282Y-101107400D01*
X127991040Y-101106413D01*
X127998661Y-101102015D01*
X128007162Y-101104295D01*
X128007163Y-101104295D01*
X128007374Y-101104457D01*
X128011479Y-101110603D01*
X128011698Y-101111422D01*
X128033608Y-101193186D01*
X128099500Y-101307314D01*
X128192686Y-101400500D01*
X128306814Y-101466392D01*
X128403946Y-101492416D01*
X128407966Y-101494399D01*
X128409358Y-101495467D01*
X128413753Y-101503068D01*
X128413771Y-101503203D01*
X128412334Y-101510468D01*
X128412067Y-101510931D01*
X128410237Y-101513318D01*
X128229043Y-101694514D01*
X128225314Y-101697006D01*
X128222749Y-101698068D01*
X128221408Y-101698624D01*
X128217007Y-101699500D01*
X126460438Y-101699500D01*
X126384028Y-101719972D01*
X126384017Y-101719976D01*
X126384002Y-101719982D01*
X126315489Y-101759538D01*
X123530514Y-104544514D01*
X123526785Y-104547006D01*
X123524220Y-104548068D01*
X123522879Y-104548624D01*
X123518478Y-104549500D01*
X123440691Y-104549500D01*
X123326120Y-104580198D01*
X123326110Y-104580202D01*
X123223387Y-104639509D01*
X123139509Y-104723387D01*
X123080202Y-104826110D01*
X123080198Y-104826120D01*
X123051264Y-104934107D01*
X123051264Y-104934108D01*
X123049500Y-104940691D01*
X123049500Y-105059309D01*
X123080201Y-105173886D01*
X123091344Y-105193186D01*
X123134179Y-105267379D01*
X123139511Y-105276613D01*
X123223387Y-105360489D01*
X123326114Y-105419799D01*
X123440691Y-105450500D01*
X123559309Y-105450500D01*
X123673886Y-105419799D01*
X123776613Y-105360489D01*
X123860489Y-105276613D01*
X123919799Y-105173886D01*
X123950500Y-105059309D01*
X123950500Y-104981522D01*
X123951375Y-104977122D01*
X123952992Y-104973217D01*
X123955482Y-104969488D01*
X124890862Y-104034108D01*
X126049500Y-104034108D01*
X126049500Y-104165891D01*
X126057496Y-104195734D01*
X126083602Y-104293168D01*
X126083604Y-104293176D01*
X126083606Y-104293180D01*
X126083609Y-104293186D01*
X126083612Y-104293194D01*
X126137921Y-104387260D01*
X126144345Y-104398387D01*
X126149500Y-104407314D01*
X126242686Y-104500500D01*
X126356814Y-104566392D01*
X126484108Y-104600500D01*
X126615892Y-104600500D01*
X126743186Y-104566392D01*
X126857314Y-104500500D01*
X126950500Y-104407314D01*
X127016392Y-104293186D01*
X127050500Y-104165892D01*
X127050500Y-104034108D01*
X127016392Y-103906814D01*
X126950500Y-103792686D01*
X126857314Y-103699500D01*
X126857313Y-103699499D01*
X126857312Y-103699498D01*
X126743195Y-103633613D01*
X126743193Y-103633612D01*
X126743190Y-103633610D01*
X126743188Y-103633609D01*
X126743186Y-103633608D01*
X126743185Y-103633607D01*
X126743180Y-103633605D01*
X126743168Y-103633601D01*
X126743102Y-103633584D01*
X126615892Y-103599500D01*
X126484108Y-103599500D01*
X126356830Y-103633602D01*
X126356819Y-103633606D01*
X126356817Y-103633607D01*
X126356812Y-103633609D01*
X126356804Y-103633612D01*
X126242686Y-103699498D01*
X126149498Y-103792686D01*
X126083612Y-103906804D01*
X126083606Y-103906819D01*
X126083602Y-103906830D01*
X126068584Y-103962883D01*
X126049500Y-104034108D01*
X124890862Y-104034108D01*
X126619488Y-102305482D01*
X126623215Y-102302993D01*
X126627122Y-102301374D01*
X126631522Y-102300500D01*
X128388091Y-102300500D01*
X128464518Y-102280021D01*
X128533040Y-102240460D01*
X128588989Y-102184511D01*
X129178253Y-101595246D01*
X129181978Y-101592757D01*
X129183125Y-101592282D01*
X129191926Y-101592282D01*
X129198150Y-101598505D01*
X129198624Y-101599649D01*
X129199500Y-101604051D01*
X129199500Y-104868477D01*
X129198624Y-104872880D01*
X129197006Y-104876784D01*
X129194514Y-104880513D01*
X129159539Y-104915488D01*
X129119980Y-104984007D01*
X129119976Y-104984017D01*
X129099500Y-105060438D01*
X129099500Y-105086638D01*
X129098624Y-105091041D01*
X129097378Y-105094047D01*
X129093156Y-105098870D01*
X129093287Y-105099040D01*
X129092689Y-105099497D01*
X129092687Y-105099499D01*
X129092685Y-105099500D01*
X129092681Y-105099504D01*
X128999498Y-105192686D01*
X128933612Y-105306804D01*
X128933606Y-105306819D01*
X128933602Y-105306830D01*
X128919225Y-105360489D01*
X128905053Y-105413382D01*
X128899500Y-105434108D01*
X128899500Y-105565892D01*
X128933608Y-105693186D01*
X128999500Y-105807314D01*
X129092686Y-105900500D01*
X129206814Y-105966392D01*
X129334108Y-106000500D01*
X129340738Y-106000500D01*
X129344539Y-106001359D01*
X129345137Y-106001374D01*
X129346013Y-106001737D01*
X129346085Y-106001809D01*
X129346506Y-106002010D01*
X129348519Y-106004243D01*
X129352237Y-106007961D01*
X129352237Y-106008367D01*
X129352399Y-106008547D01*
X129352237Y-106011669D01*
X129352237Y-106016763D01*
X129351956Y-106017086D01*
X129351943Y-106017337D01*
X129350991Y-106018194D01*
X129347443Y-106022274D01*
X129347392Y-106022304D01*
X129345600Y-106023054D01*
X129345406Y-106023230D01*
X129345206Y-106023219D01*
X129344537Y-106023500D01*
X129306830Y-106033602D01*
X129306819Y-106033606D01*
X129306804Y-106033612D01*
X129192686Y-106099498D01*
X129099498Y-106192686D01*
X129033612Y-106306804D01*
X129033606Y-106306819D01*
X129033602Y-106306830D01*
X129007582Y-106403940D01*
X129005596Y-106407966D01*
X129004529Y-106409356D01*
X128996949Y-106413750D01*
X128996906Y-106413755D01*
X128996906Y-106413756D01*
X128996905Y-106413755D01*
X128996816Y-106413768D01*
X128989529Y-106412334D01*
X128989066Y-106412067D01*
X128986679Y-106410237D01*
X128685979Y-106109537D01*
X128674388Y-106102846D01*
X128668592Y-106099500D01*
X128624113Y-106073820D01*
X128622123Y-106071227D01*
X128541033Y-106049500D01*
X123183704Y-106049500D01*
X123179302Y-106048624D01*
X123175397Y-106047006D01*
X123171667Y-106044514D01*
X122585250Y-105458097D01*
X122582758Y-105454367D01*
X122582088Y-105452750D01*
X122582082Y-105443961D01*
X122582134Y-105443835D01*
X122587019Y-105438260D01*
X122587490Y-105437988D01*
X122590245Y-105436849D01*
X122653886Y-105419799D01*
X122756613Y-105360489D01*
X122840489Y-105276613D01*
X122899799Y-105173886D01*
X122930500Y-105059309D01*
X122930500Y-104940691D01*
X122899799Y-104826114D01*
X122840489Y-104723387D01*
X122756613Y-104639511D01*
X122756612Y-104639510D01*
X122756611Y-104639509D01*
X122666824Y-104587671D01*
X122655196Y-104580957D01*
X122655195Y-104580957D01*
X122653883Y-104580199D01*
X122539309Y-104549500D01*
X122420691Y-104549500D01*
X122317186Y-104577233D01*
X122312706Y-104577526D01*
X122310970Y-104577297D01*
X122308749Y-104576014D01*
X122303349Y-104572895D01*
X122302875Y-104572277D01*
X122300500Y-104565278D01*
X122300500Y-100440691D01*
X122499500Y-100440691D01*
X122499500Y-100559309D01*
X122530201Y-100673886D01*
X122589511Y-100776613D01*
X122673387Y-100860489D01*
X122776114Y-100919799D01*
X122890691Y-100950500D01*
X123009309Y-100950500D01*
X123123886Y-100919799D01*
X123226613Y-100860489D01*
X123310489Y-100776613D01*
X123369799Y-100673886D01*
X123400500Y-100559309D01*
X123400500Y-100440691D01*
X123369799Y-100326114D01*
X123310489Y-100223387D01*
X123226613Y-100139511D01*
X123226612Y-100139510D01*
X123226611Y-100139509D01*
X123130539Y-100084042D01*
X123128549Y-100081449D01*
X123009309Y-100049500D01*
X122890691Y-100049500D01*
X122776120Y-100080198D01*
X122776110Y-100080202D01*
X122673387Y-100139509D01*
X122589509Y-100223387D01*
X122530202Y-100326110D01*
X122530198Y-100326120D01*
X122529627Y-100328253D01*
X122510876Y-100398236D01*
X122499500Y-100440691D01*
X122300500Y-100440691D01*
X122300500Y-97960438D01*
X122280021Y-97884011D01*
X122280020Y-97884010D01*
X122240460Y-97815489D01*
X121416735Y-96991764D01*
X121414242Y-96988032D01*
X121412625Y-96984127D01*
X121411750Y-96979727D01*
X121411750Y-94847991D01*
X126768250Y-94847991D01*
X126768250Y-94966608D01*
X126770591Y-94975345D01*
X126798948Y-95081178D01*
X126798952Y-95081188D01*
X126852469Y-95173884D01*
X126852471Y-95173886D01*
X126858261Y-95183913D01*
X126942137Y-95267789D01*
X127044864Y-95327099D01*
X127159441Y-95357800D01*
X127278059Y-95357800D01*
X127392636Y-95327099D01*
X127495363Y-95267789D01*
X127579239Y-95183913D01*
X127638549Y-95081186D01*
X127669250Y-94966609D01*
X127669250Y-94847991D01*
X127638549Y-94733414D01*
X127579239Y-94630687D01*
X127495363Y-94546811D01*
X127495362Y-94546810D01*
X127495361Y-94546809D01*
X127399289Y-94491342D01*
X127397299Y-94488749D01*
X127278059Y-94456800D01*
X127159441Y-94456800D01*
X127044870Y-94487498D01*
X127044860Y-94487502D01*
X126942137Y-94546809D01*
X126858259Y-94630687D01*
X126798952Y-94733410D01*
X126798948Y-94733420D01*
X126774110Y-94826120D01*
X126768250Y-94847991D01*
X121411750Y-94847991D01*
X121411750Y-92770660D01*
X121412623Y-92766264D01*
X121413870Y-92763253D01*
X121413872Y-92763252D01*
X121418098Y-92758441D01*
X121417961Y-92758262D01*
X121418556Y-92757804D01*
X121418564Y-92757800D01*
X121511750Y-92664614D01*
X121577642Y-92550486D01*
X121611750Y-92423192D01*
X121611750Y-92291408D01*
X121577642Y-92164114D01*
X121511750Y-92049986D01*
X121418564Y-91956800D01*
X121418563Y-91956799D01*
X121418562Y-91956798D01*
X121304445Y-91890913D01*
X121304443Y-91890912D01*
X121304440Y-91890910D01*
X121304438Y-91890909D01*
X121304436Y-91890908D01*
X121304435Y-91890907D01*
X121304430Y-91890905D01*
X121304418Y-91890901D01*
X121304352Y-91890884D01*
X121177142Y-91856800D01*
X121045358Y-91856800D01*
X120918080Y-91890902D01*
X120918069Y-91890906D01*
X120918067Y-91890907D01*
X120918062Y-91890909D01*
X120918054Y-91890912D01*
X120803936Y-91956798D01*
X120710748Y-92049986D01*
X120644862Y-92164104D01*
X120644856Y-92164119D01*
X120644852Y-92164130D01*
X120614714Y-92276612D01*
X120614714Y-92276613D01*
X120610750Y-92291408D01*
X120610750Y-92423192D01*
X120618240Y-92451143D01*
X120620463Y-92459441D01*
X120644852Y-92550468D01*
X120644854Y-92550476D01*
X120644856Y-92550480D01*
X120644859Y-92550486D01*
X120644862Y-92550494D01*
X120662008Y-92580192D01*
X120670549Y-92594985D01*
X120710750Y-92664614D01*
X120803936Y-92757800D01*
X120803938Y-92757801D01*
X120804170Y-92757979D01*
X120806294Y-92760101D01*
X120808371Y-92762806D01*
X120810750Y-92769810D01*
X120810750Y-97150810D01*
X120831226Y-97227231D01*
X120831230Y-97227241D01*
X120864455Y-97284788D01*
X120864456Y-97284789D01*
X120870788Y-97295759D01*
X121134894Y-97559865D01*
X121135008Y-97560132D01*
X121137386Y-97563595D01*
X121137860Y-97564739D01*
X121137860Y-97566780D01*
X121138258Y-97567708D01*
X121138285Y-97568783D01*
X121137860Y-97569885D01*
X121137861Y-97573541D01*
X121135558Y-97575863D01*
X121135122Y-97576997D01*
X121133894Y-97577542D01*
X121131727Y-97579728D01*
X121131694Y-97579742D01*
X121128116Y-97580107D01*
X121127078Y-97580568D01*
X121126349Y-97580287D01*
X121124943Y-97580430D01*
X121124729Y-97580388D01*
X121124528Y-97580348D01*
X121123813Y-97580180D01*
X121009309Y-97549500D01*
X120890691Y-97549500D01*
X120776120Y-97580198D01*
X120776110Y-97580202D01*
X120673387Y-97639509D01*
X120589509Y-97723387D01*
X120530202Y-97826110D01*
X120530198Y-97826120D01*
X120510269Y-97900500D01*
X120499500Y-97940691D01*
X118300500Y-97940691D01*
X118300500Y-83934108D01*
X120499500Y-83934108D01*
X120499500Y-87565892D01*
X120507160Y-87594481D01*
X120533602Y-87693168D01*
X120533604Y-87693176D01*
X120533606Y-87693180D01*
X120533609Y-87693186D01*
X120533612Y-87693194D01*
X120594482Y-87798625D01*
X120594988Y-87799500D01*
X120599500Y-87807314D01*
X120692686Y-87900500D01*
X120806814Y-87966392D01*
X120934108Y-88000500D01*
X121065892Y-88000500D01*
X121193186Y-87966392D01*
X121307314Y-87900500D01*
X121400500Y-87807314D01*
X121466392Y-87693186D01*
X121500500Y-87565892D01*
X121500500Y-85347991D01*
X128768250Y-85347991D01*
X128768250Y-85466608D01*
X128783144Y-85522196D01*
X128798950Y-85581184D01*
X128848163Y-85666424D01*
X128858261Y-85683913D01*
X128942137Y-85767789D01*
X129044864Y-85827099D01*
X129159441Y-85857800D01*
X129278059Y-85857800D01*
X129392636Y-85827099D01*
X129495363Y-85767789D01*
X129579239Y-85683913D01*
X129638549Y-85581186D01*
X129669250Y-85466609D01*
X129669250Y-85347991D01*
X129638549Y-85233414D01*
X129579239Y-85130687D01*
X129495363Y-85046811D01*
X129495362Y-85046810D01*
X129495361Y-85046809D01*
X129399289Y-84991342D01*
X129397299Y-84988749D01*
X129278059Y-84956800D01*
X129159441Y-84956800D01*
X129044870Y-84987498D01*
X129044860Y-84987502D01*
X128942137Y-85046809D01*
X128858259Y-85130687D01*
X128798952Y-85233410D01*
X128798948Y-85233420D01*
X128771154Y-85337152D01*
X128768250Y-85347991D01*
X121500500Y-85347991D01*
X121500500Y-83934108D01*
X121466392Y-83806814D01*
X121400500Y-83692686D01*
X121307314Y-83599500D01*
X121307313Y-83599499D01*
X121307312Y-83599498D01*
X121193195Y-83533613D01*
X121193193Y-83533612D01*
X121193190Y-83533610D01*
X121193188Y-83533609D01*
X121193186Y-83533608D01*
X121193185Y-83533607D01*
X121193180Y-83533605D01*
X121193168Y-83533601D01*
X121193102Y-83533584D01*
X121065892Y-83499500D01*
X120934108Y-83499500D01*
X120806830Y-83533602D01*
X120806819Y-83533606D01*
X120806817Y-83533607D01*
X120806812Y-83533609D01*
X120806804Y-83533612D01*
X120692686Y-83599498D01*
X120599498Y-83692686D01*
X120533612Y-83806804D01*
X120533606Y-83806819D01*
X120533602Y-83806830D01*
X120512915Y-83884041D01*
X120512302Y-83886329D01*
X120499500Y-83934108D01*
X118300500Y-83934108D01*
X118300500Y-66148995D01*
X118301373Y-66144601D01*
X118301846Y-66143457D01*
X118308065Y-66137229D01*
X118316867Y-66137224D01*
X118316875Y-66137227D01*
X118317131Y-66137333D01*
X118317138Y-66137336D01*
X118322677Y-66142203D01*
X118344346Y-66179734D01*
X118383049Y-66246770D01*
X118383051Y-66246773D01*
X118383052Y-66246774D01*
X118383056Y-66246779D01*
X118383076Y-66246810D01*
X118383163Y-66246919D01*
X118518753Y-66423624D01*
X118676376Y-66581247D01*
X118853226Y-66716948D01*
X118853229Y-66716950D01*
X118853231Y-66716951D01*
X118853233Y-66716953D01*
X118964582Y-66781240D01*
X119046270Y-66828403D01*
X119046271Y-66828403D01*
X119046425Y-66828492D01*
X119046431Y-66828496D01*
X119046488Y-66828529D01*
X119046958Y-66828688D01*
X119252219Y-66913710D01*
X119264311Y-66916950D01*
X119467525Y-66971401D01*
X119467526Y-66971401D01*
X119467537Y-66971404D01*
X119688543Y-67000500D01*
X119688547Y-67000500D01*
X119911453Y-67000500D01*
X119911457Y-67000500D01*
X120132463Y-66971404D01*
X120132474Y-66971401D01*
X120132475Y-66971401D01*
X120188813Y-66956304D01*
X120347781Y-66913710D01*
X120553726Y-66828405D01*
X120746774Y-66716948D01*
X120923624Y-66581247D01*
X121081247Y-66423624D01*
X121216948Y-66246774D01*
X121328405Y-66053726D01*
X121413710Y-65847781D01*
X121471404Y-65632463D01*
X121500500Y-65411457D01*
X121500500Y-65188543D01*
X121471404Y-64967537D01*
X121467320Y-64952296D01*
X121419355Y-64773288D01*
X121413710Y-64752219D01*
X121328405Y-64546274D01*
X121274720Y-64453291D01*
X121269959Y-64445044D01*
X121216953Y-64353233D01*
X121216951Y-64353231D01*
X121216950Y-64353229D01*
X121216948Y-64353226D01*
X121081247Y-64176376D01*
X120923624Y-64018753D01*
X120768017Y-63899352D01*
X120746919Y-63883163D01*
X120746810Y-63883076D01*
X120746779Y-63883056D01*
X120746774Y-63883052D01*
X120746773Y-63883051D01*
X120746770Y-63883049D01*
X120713769Y-63863996D01*
X120642941Y-63823103D01*
X120639566Y-63820143D01*
X120638812Y-63819160D01*
X120636536Y-63810658D01*
X120640937Y-63803037D01*
X120640961Y-63803019D01*
X120641172Y-63802858D01*
X120648148Y-63800500D01*
X133511815Y-63800500D01*
X133516209Y-63801372D01*
G37*
%TD.AperFunction*%
%TA.AperFunction,Conductor*%
G36*
X132434359Y-90501374D02*
G01*
X132435556Y-90501869D01*
X132435983Y-90502046D01*
X132439534Y-90505598D01*
X132442203Y-90508264D01*
X132442205Y-90508269D01*
X132442875Y-90509887D01*
X132443750Y-90514287D01*
X132443750Y-90535712D01*
X132442875Y-90540112D01*
X132442205Y-90541730D01*
X132435982Y-90547954D01*
X132434365Y-90548624D01*
X132429963Y-90549500D01*
X131757537Y-90549500D01*
X131753137Y-90548625D01*
X131753135Y-90548624D01*
X131751518Y-90547954D01*
X131745296Y-90541733D01*
X131744625Y-90540112D01*
X131744623Y-90540106D01*
X131743750Y-90535712D01*
X131743750Y-90514287D01*
X131744623Y-90509893D01*
X131744948Y-90509108D01*
X131745294Y-90508271D01*
X131745296Y-90508269D01*
X131745297Y-90508264D01*
X131745299Y-90508258D01*
X131748406Y-90505156D01*
X131751508Y-90502049D01*
X131752635Y-90501582D01*
X131753143Y-90501373D01*
X131757537Y-90500500D01*
X132429963Y-90500500D01*
X132434359Y-90501374D01*
G37*
%TD.AperFunction*%
%TA.AperFunction,Conductor*%
G36*
X140934359Y-90501374D02*
G01*
X140935556Y-90501869D01*
X140935973Y-90502042D01*
X140935976Y-90502043D01*
X140942203Y-90508264D01*
X140942205Y-90508269D01*
X140942875Y-90509887D01*
X140943750Y-90514287D01*
X140943750Y-90535712D01*
X140942875Y-90540112D01*
X140942205Y-90541730D01*
X140935982Y-90547954D01*
X140934365Y-90548624D01*
X140929963Y-90549500D01*
X140707537Y-90549500D01*
X140703137Y-90548625D01*
X140703135Y-90548624D01*
X140701518Y-90547954D01*
X140701516Y-90547952D01*
X140701512Y-90547952D01*
X140701510Y-90547951D01*
X140698402Y-90544838D01*
X140695296Y-90541733D01*
X140694625Y-90540112D01*
X140694623Y-90540106D01*
X140693750Y-90535712D01*
X140693750Y-90514287D01*
X140694623Y-90509893D01*
X140694948Y-90509108D01*
X140695293Y-90508273D01*
X140701508Y-90502049D01*
X140702635Y-90501582D01*
X140703143Y-90501373D01*
X140707537Y-90500500D01*
X140929963Y-90500500D01*
X140934359Y-90501374D01*
G37*
%TD.AperFunction*%
%TA.AperFunction,Conductor*%
G36*
X132434359Y-89201374D02*
G01*
X132435556Y-89201869D01*
X132435983Y-89202046D01*
X132439534Y-89205598D01*
X132442203Y-89208264D01*
X132442205Y-89208269D01*
X132442875Y-89209887D01*
X132443750Y-89214287D01*
X132443750Y-89485712D01*
X132442875Y-89490112D01*
X132442205Y-89491730D01*
X132435982Y-89497954D01*
X132434365Y-89498624D01*
X132429963Y-89499500D01*
X131757537Y-89499500D01*
X131753137Y-89498625D01*
X131753135Y-89498624D01*
X131751518Y-89497954D01*
X131745296Y-89491733D01*
X131744625Y-89490112D01*
X131744623Y-89490106D01*
X131743750Y-89485712D01*
X131743750Y-89275001D01*
X131742926Y-89267686D01*
X131740304Y-89244421D01*
X131740250Y-89242492D01*
X131740357Y-89240584D01*
X131740625Y-89238686D01*
X131743750Y-89225000D01*
X131743750Y-89214287D01*
X131744623Y-89209893D01*
X131744832Y-89209385D01*
X131745293Y-89208273D01*
X131751508Y-89202049D01*
X131752635Y-89201582D01*
X131753143Y-89201373D01*
X131757537Y-89200500D01*
X132429963Y-89200500D01*
X132434359Y-89201374D01*
G37*
%TD.AperFunction*%
%TA.AperFunction,Conductor*%
G36*
X140942400Y-88677662D02*
G01*
X140942874Y-88678806D01*
X140943750Y-88683208D01*
X140943750Y-89485712D01*
X140942875Y-89490112D01*
X140942205Y-89491730D01*
X140935982Y-89497954D01*
X140934365Y-89498624D01*
X140929963Y-89499500D01*
X140707537Y-89499500D01*
X140703137Y-89498625D01*
X140703135Y-89498624D01*
X140701518Y-89497954D01*
X140695296Y-89491733D01*
X140694625Y-89490112D01*
X140694623Y-89490106D01*
X140693750Y-89485712D01*
X140693750Y-88910208D01*
X140694625Y-88905808D01*
X140696242Y-88901903D01*
X140698732Y-88898174D01*
X140922503Y-88674403D01*
X140926228Y-88671914D01*
X140927375Y-88671439D01*
X140936176Y-88671439D01*
X140942400Y-88677662D01*
G37*
%TD.AperFunction*%
%TA.AperFunction,Conductor*%
G36*
X132434359Y-87701374D02*
G01*
X132435556Y-87701869D01*
X132435973Y-87702042D01*
X132435976Y-87702043D01*
X132442203Y-87708264D01*
X132442205Y-87708269D01*
X132442875Y-87709887D01*
X132443750Y-87714287D01*
X132443750Y-87785712D01*
X132442875Y-87790112D01*
X132442205Y-87791730D01*
X132435982Y-87797954D01*
X132434365Y-87798624D01*
X132429963Y-87799500D01*
X131757537Y-87799500D01*
X131753137Y-87798625D01*
X131753135Y-87798624D01*
X131751518Y-87797954D01*
X131751516Y-87797952D01*
X131751512Y-87797952D01*
X131751510Y-87797951D01*
X131748402Y-87794838D01*
X131745296Y-87791733D01*
X131744625Y-87790112D01*
X131744623Y-87790106D01*
X131743750Y-87785712D01*
X131743750Y-87775001D01*
X131742926Y-87767686D01*
X131742209Y-87761324D01*
X131740303Y-87744417D01*
X131740250Y-87742492D01*
X131740357Y-87740584D01*
X131740625Y-87738686D01*
X131743750Y-87725000D01*
X131743750Y-87714287D01*
X131744623Y-87709893D01*
X131744832Y-87709385D01*
X131745293Y-87708273D01*
X131751508Y-87702049D01*
X131752635Y-87701582D01*
X131753143Y-87701373D01*
X131757537Y-87700500D01*
X132429963Y-87700500D01*
X132434359Y-87701374D01*
G37*
%TD.AperFunction*%
%TA.AperFunction,Conductor*%
G36*
X165207319Y-63801314D02*
G01*
X165207388Y-63801310D01*
X165207414Y-63801333D01*
X165207592Y-63801368D01*
X165208087Y-63801573D01*
X165210959Y-63804437D01*
X165214010Y-63807109D01*
X165214036Y-63807506D01*
X165214319Y-63807788D01*
X165214324Y-63811846D01*
X165214593Y-63815891D01*
X165214330Y-63816190D01*
X165214331Y-63816589D01*
X165208794Y-63822513D01*
X165208709Y-63822555D01*
X165205116Y-63823647D01*
X165167616Y-63828585D01*
X165167535Y-63828594D01*
X164952592Y-63886189D01*
X164952296Y-63886258D01*
X164952224Y-63886288D01*
X164952223Y-63886288D01*
X164897599Y-63908913D01*
X164746266Y-63971597D01*
X164553232Y-64083046D01*
X164486907Y-64133939D01*
X164376498Y-64218659D01*
X164376389Y-64218739D01*
X164218742Y-64376386D01*
X164218659Y-64376499D01*
X164152093Y-64463250D01*
X164083046Y-64553232D01*
X163971597Y-64746266D01*
X163886258Y-64952296D01*
X163886189Y-64952592D01*
X163828594Y-65167535D01*
X163828585Y-65167616D01*
X163799500Y-65388540D01*
X163799500Y-65611458D01*
X163828597Y-65832472D01*
X163850066Y-65912596D01*
X163886288Y-66047775D01*
X163886288Y-66047776D01*
X163886289Y-66047780D01*
X163886290Y-66047781D01*
X163886667Y-66048691D01*
X163888754Y-66053728D01*
X163888754Y-66053729D01*
X163971597Y-66253732D01*
X163976983Y-66263060D01*
X164083049Y-66446770D01*
X164083051Y-66446773D01*
X164083052Y-66446774D01*
X164083056Y-66446779D01*
X164083076Y-66446810D01*
X164083163Y-66446919D01*
X164218753Y-66623624D01*
X164376376Y-66781247D01*
X164553226Y-66916948D01*
X164553229Y-66916950D01*
X164553233Y-66916953D01*
X164647540Y-66971401D01*
X164746270Y-67028403D01*
X164746271Y-67028403D01*
X164746425Y-67028492D01*
X164746431Y-67028496D01*
X164746488Y-67028529D01*
X164746958Y-67028688D01*
X164952219Y-67113710D01*
X164952223Y-67113711D01*
X164952226Y-67113711D01*
X164952229Y-67113713D01*
X164952281Y-67113726D01*
X165167525Y-67171401D01*
X165167526Y-67171401D01*
X165167537Y-67171404D01*
X165388543Y-67200500D01*
X165388547Y-67200500D01*
X165611453Y-67200500D01*
X165611457Y-67200500D01*
X165832463Y-67171404D01*
X165832474Y-67171401D01*
X165832475Y-67171401D01*
X165888813Y-67156304D01*
X166047781Y-67113710D01*
X166253726Y-67028405D01*
X166446774Y-66916948D01*
X166623624Y-66781247D01*
X166781247Y-66623624D01*
X166916948Y-66446774D01*
X167028405Y-66253726D01*
X167113710Y-66047781D01*
X167113710Y-66047777D01*
X167113712Y-66047775D01*
X167171401Y-65832475D01*
X167171401Y-65832474D01*
X167171400Y-65832474D01*
X167171404Y-65832463D01*
X167200500Y-65611457D01*
X167200500Y-65388543D01*
X167171404Y-65167537D01*
X167146149Y-65073285D01*
X167113810Y-64952592D01*
X167113710Y-64952219D01*
X167028405Y-64746274D01*
X167028400Y-64746266D01*
X166980901Y-64663996D01*
X166916953Y-64553233D01*
X166916951Y-64553231D01*
X166916950Y-64553229D01*
X166916948Y-64553226D01*
X166781247Y-64376376D01*
X166623624Y-64218753D01*
X166446919Y-64083163D01*
X166446810Y-64083076D01*
X166446779Y-64083056D01*
X166446774Y-64083052D01*
X166446773Y-64083051D01*
X166446770Y-64083049D01*
X166427109Y-64071697D01*
X166253732Y-63971597D01*
X166047771Y-63886286D01*
X165877001Y-63840529D01*
X165832474Y-63828598D01*
X165832471Y-63828597D01*
X165832469Y-63828597D01*
X165832464Y-63828596D01*
X165832463Y-63828596D01*
X165819093Y-63826835D01*
X165795268Y-63823698D01*
X165792789Y-63822632D01*
X165791019Y-63822255D01*
X165790560Y-63821990D01*
X165790197Y-63821517D01*
X165789525Y-63821228D01*
X165789160Y-63820932D01*
X165787744Y-63818321D01*
X165785202Y-63815007D01*
X165785347Y-63813898D01*
X165784966Y-63813194D01*
X165785818Y-63810322D01*
X165786351Y-63806281D01*
X165787231Y-63805564D01*
X165787472Y-63804756D01*
X165789730Y-63803531D01*
X165792708Y-63801110D01*
X165792802Y-63801079D01*
X165794869Y-63800746D01*
X165795210Y-63800562D01*
X165795493Y-63800646D01*
X165796404Y-63800500D01*
X167498646Y-63800500D01*
X167499543Y-63800535D01*
X167500450Y-63800606D01*
X167501350Y-63800712D01*
X167558957Y-63809837D01*
X167560704Y-63810256D01*
X167562403Y-63810807D01*
X167564069Y-63811497D01*
X167614834Y-63837363D01*
X167616370Y-63838305D01*
X167617818Y-63839357D01*
X167619191Y-63840529D01*
X167659469Y-63880807D01*
X167660641Y-63882180D01*
X167661693Y-63883628D01*
X167662636Y-63885166D01*
X167688499Y-63935925D01*
X167689189Y-63937593D01*
X167689741Y-63939292D01*
X167690162Y-63941046D01*
X167699287Y-63998656D01*
X167699393Y-63999545D01*
X167699464Y-64000439D01*
X167699500Y-64001349D01*
X167699500Y-69881116D01*
X167696132Y-69889248D01*
X167688000Y-69892616D01*
X167679868Y-69889248D01*
X167671736Y-69881116D01*
X167148678Y-69358058D01*
X167127511Y-69343915D01*
X167082004Y-69313509D01*
X167081997Y-69313506D01*
X167073870Y-69310139D01*
X167008280Y-69297094D01*
X166995236Y-69294500D01*
X166995235Y-69294500D01*
X163646501Y-69294500D01*
X163646500Y-69294500D01*
X163631719Y-69297439D01*
X163571678Y-69309381D01*
X163563046Y-69307664D01*
X163562265Y-69307093D01*
X163529806Y-69281209D01*
X163521777Y-69274806D01*
X163435000Y-69255000D01*
X163434997Y-69255000D01*
X163140415Y-69255000D01*
X163136015Y-69254125D01*
X163136010Y-69254123D01*
X163134396Y-69253454D01*
X163128174Y-69247233D01*
X163127702Y-69246094D01*
X163126902Y-69240415D01*
X163140500Y-69119734D01*
X163140500Y-68760265D01*
X163134284Y-68705094D01*
X163100252Y-68403052D01*
X163020262Y-68052592D01*
X162901536Y-67713291D01*
X162745566Y-67389418D01*
X162712597Y-67336948D01*
X162643697Y-67227293D01*
X162554325Y-67085056D01*
X162396706Y-66887408D01*
X162396701Y-66887402D01*
X162330188Y-66803997D01*
X159347940Y-63821749D01*
X159345448Y-63818019D01*
X159345022Y-63816990D01*
X159344973Y-63816874D01*
X159344973Y-63808073D01*
X159351194Y-63801850D01*
X159351867Y-63801572D01*
X159352348Y-63801373D01*
X159356742Y-63800500D01*
X165203208Y-63800500D01*
X165207319Y-63801314D01*
G37*
%TD.AperFunction*%
%TA.AperFunction,Conductor*%
G36*
X144970315Y-63801374D02*
G01*
X144971458Y-63801847D01*
X144977684Y-63808068D01*
X144977687Y-63816870D01*
X144977416Y-63817525D01*
X144973960Y-63822119D01*
X144863995Y-63909812D01*
X144609812Y-64163995D01*
X144385673Y-64445056D01*
X144194436Y-64749410D01*
X144194424Y-64749437D01*
X144194393Y-64749501D01*
X144038516Y-65073181D01*
X144038464Y-65073285D01*
X143976805Y-65249501D01*
X143919737Y-65412594D01*
X143908221Y-65463052D01*
X143839748Y-65763052D01*
X143799500Y-66120264D01*
X143799500Y-66479736D01*
X143839748Y-66836948D01*
X143870436Y-66971400D01*
X143883447Y-67028405D01*
X143919736Y-67187402D01*
X144038534Y-67526912D01*
X144038745Y-67527293D01*
X144194292Y-67850289D01*
X144194301Y-67850307D01*
X144194434Y-67850582D01*
X144194436Y-67850585D01*
X144194437Y-67850588D01*
X144194526Y-67850729D01*
X144194531Y-67850739D01*
X144385673Y-68154942D01*
X144609812Y-68436003D01*
X145448677Y-69274868D01*
X145452045Y-69283000D01*
X145448677Y-69291132D01*
X145440545Y-69294500D01*
X143499000Y-69294500D01*
X143484219Y-69297439D01*
X143424178Y-69309381D01*
X143415546Y-69307664D01*
X143414765Y-69307093D01*
X143382306Y-69281209D01*
X143374277Y-69274806D01*
X143287500Y-69255000D01*
X143287497Y-69255000D01*
X141727110Y-69255000D01*
X141722708Y-69254124D01*
X141718803Y-69252506D01*
X141715073Y-69250014D01*
X136874871Y-64409812D01*
X136593810Y-64185673D01*
X136289568Y-63994507D01*
X136289562Y-63994503D01*
X136289456Y-63994437D01*
X136289454Y-63994436D01*
X136289444Y-63994430D01*
X136289425Y-63994421D01*
X136289357Y-63994389D01*
X135965659Y-63838503D01*
X135965591Y-63838469D01*
X135965574Y-63838462D01*
X135923128Y-63823610D01*
X135919264Y-63821331D01*
X135918419Y-63820576D01*
X135914599Y-63812646D01*
X135917505Y-63804338D01*
X135925435Y-63800518D01*
X135926081Y-63800500D01*
X144965918Y-63800500D01*
X144970315Y-63801374D01*
G37*
%TD.AperFunction*%
%TA.AperFunction,Conductor*%
G36*
X154647655Y-63801374D02*
G01*
X154648798Y-63801847D01*
X154655024Y-63808069D01*
X154655027Y-63816870D01*
X154655025Y-63816875D01*
X154654551Y-63818019D01*
X154652059Y-63821749D01*
X154609812Y-63863995D01*
X154385673Y-64145056D01*
X154194737Y-64448931D01*
X154194728Y-64448947D01*
X154194437Y-64449411D01*
X154194436Y-64449414D01*
X154194434Y-64449417D01*
X154194434Y-64449418D01*
X154193968Y-64450385D01*
X154193953Y-64450414D01*
X154172266Y-64495449D01*
X154038516Y-64773181D01*
X154038464Y-64773285D01*
X153919737Y-65112594D01*
X153902402Y-65188546D01*
X153839748Y-65463052D01*
X153799500Y-65820264D01*
X153799500Y-66179736D01*
X153839748Y-66536948D01*
X153880833Y-66716953D01*
X153895506Y-66781240D01*
X153919736Y-66887402D01*
X154038534Y-67226912D01*
X154038745Y-67227293D01*
X154194292Y-67550289D01*
X154194301Y-67550307D01*
X154194434Y-67550582D01*
X154194436Y-67550585D01*
X154194437Y-67550588D01*
X154194526Y-67550729D01*
X154194531Y-67550739D01*
X154385673Y-67854942D01*
X154609812Y-68136003D01*
X155748677Y-69274868D01*
X155752045Y-69283000D01*
X155748677Y-69291132D01*
X155740545Y-69294500D01*
X153999000Y-69294500D01*
X153984219Y-69297439D01*
X153924178Y-69309381D01*
X153915546Y-69307664D01*
X153914765Y-69307093D01*
X153882306Y-69281209D01*
X153874277Y-69274806D01*
X153787500Y-69255000D01*
X153787497Y-69255000D01*
X153487788Y-69255000D01*
X153483383Y-69254123D01*
X153481420Y-69253309D01*
X153475465Y-69247678D01*
X153474922Y-69246551D01*
X153473853Y-69242842D01*
X153473783Y-69242212D01*
X153452752Y-69055552D01*
X153372762Y-68705092D01*
X153254036Y-68365791D01*
X153098066Y-68041918D01*
X153098062Y-68041911D01*
X153098051Y-68041893D01*
X152906825Y-67737556D01*
X152757723Y-67550588D01*
X152682687Y-67456496D01*
X149136003Y-63909812D01*
X149102443Y-63883049D01*
X149026412Y-63822416D01*
X149023518Y-63818988D01*
X149022919Y-63817904D01*
X149021934Y-63809158D01*
X149027421Y-63802277D01*
X149028051Y-63801929D01*
X149033604Y-63800500D01*
X154643258Y-63800500D01*
X154647655Y-63801374D01*
G37*
%TD.AperFunction*%
%TD*%
%TA.AperFunction,NonConductor*%
G36*
X118955401Y-63801374D02*
G01*
X118956544Y-63801847D01*
X118956552Y-63801855D01*
X118956564Y-63801855D01*
X118956568Y-63801857D01*
X118959861Y-63805162D01*
X118962770Y-63808069D01*
X118962770Y-63808080D01*
X118962780Y-63808091D01*
X118962772Y-63812646D01*
X118962773Y-63816870D01*
X118962764Y-63816893D01*
X118962662Y-63817138D01*
X118957795Y-63822677D01*
X118853232Y-63883046D01*
X118818351Y-63909812D01*
X118699058Y-64001349D01*
X118676499Y-64018659D01*
X118676386Y-64018742D01*
X118518739Y-64176389D01*
X118518659Y-64176498D01*
X118486232Y-64218759D01*
X118383046Y-64353232D01*
X118323103Y-64457058D01*
X118320143Y-64460433D01*
X118319160Y-64461187D01*
X118310658Y-64463463D01*
X118303036Y-64459061D01*
X118303019Y-64459038D01*
X118302858Y-64458827D01*
X118300500Y-64451851D01*
X118300500Y-64001349D01*
X118300535Y-64000454D01*
X118300536Y-64000439D01*
X118300607Y-63999543D01*
X118300711Y-63998665D01*
X118300713Y-63998656D01*
X118300870Y-63997659D01*
X118301380Y-63994444D01*
X118301381Y-63994432D01*
X118309838Y-63941032D01*
X118310254Y-63939299D01*
X118310809Y-63937589D01*
X118311491Y-63935940D01*
X118337373Y-63885144D01*
X118338304Y-63883628D01*
X118339360Y-63882174D01*
X118340516Y-63880820D01*
X118380820Y-63840516D01*
X118382174Y-63839360D01*
X118383631Y-63838301D01*
X118385144Y-63837373D01*
X118435940Y-63811491D01*
X118437589Y-63810809D01*
X118439299Y-63810254D01*
X118441032Y-63809838D01*
X118498651Y-63800712D01*
X118499549Y-63800606D01*
X118500457Y-63800535D01*
X118501353Y-63800500D01*
X118951004Y-63800500D01*
X118955401Y-63801374D01*
G37*
%TD.AperFunction*%
%TA.AperFunction,NonConductor*%
G36*
X146594132Y-77208868D02*
G01*
X146597500Y-77217000D01*
X146597500Y-80544998D01*
X146602514Y-80589505D01*
X146641133Y-80669697D01*
X146641134Y-80669698D01*
X146710723Y-80725194D01*
X146797500Y-80745000D01*
X147298213Y-80745000D01*
X147302609Y-80745874D01*
X147303750Y-80746346D01*
X147304223Y-80746542D01*
X147304226Y-80746543D01*
X147310453Y-80752764D01*
X147310455Y-80752769D01*
X147311125Y-80754387D01*
X147312000Y-80758787D01*
X147312000Y-81396006D01*
X147312000Y-81533994D01*
X147318345Y-81565891D01*
X147324838Y-81598536D01*
X147338698Y-81668212D01*
X147338698Y-81668215D01*
X147338918Y-81669325D01*
X147391727Y-81796815D01*
X147443225Y-81873887D01*
X147456125Y-81893194D01*
X147468386Y-81911543D01*
X147533455Y-81976612D01*
X147542014Y-81985171D01*
X147544506Y-81988901D01*
X147546124Y-81992806D01*
X147547000Y-81997208D01*
X147547000Y-84099041D01*
X147546124Y-84103443D01*
X147544506Y-84107348D01*
X147542014Y-84111078D01*
X147145578Y-84507514D01*
X147141849Y-84510006D01*
X147139559Y-84510955D01*
X147137943Y-84511624D01*
X147133542Y-84512500D01*
X145143750Y-84512500D01*
X145138768Y-84513061D01*
X145114796Y-84515760D01*
X145110325Y-84515382D01*
X145106265Y-84514212D01*
X145102280Y-84512153D01*
X145081036Y-84495212D01*
X145080669Y-84494884D01*
X145080529Y-84494807D01*
X145080527Y-84494806D01*
X144993750Y-84475000D01*
X144993747Y-84475000D01*
X141143750Y-84475000D01*
X141128915Y-84476670D01*
X141128915Y-84476671D01*
X141119024Y-84477785D01*
X141099242Y-84480014D01*
X141019052Y-84518632D01*
X140964843Y-84586606D01*
X140964840Y-84586611D01*
X140963557Y-84588221D01*
X140963556Y-84588222D01*
X140963556Y-84588223D01*
X140963007Y-84590627D01*
X140963006Y-84590630D01*
X140955366Y-84624106D01*
X140943750Y-84675000D01*
X140943750Y-84675003D01*
X140943750Y-86664791D01*
X140942874Y-86669193D01*
X140941256Y-86673098D01*
X140938764Y-86676828D01*
X140714999Y-86900593D01*
X140711269Y-86903085D01*
X140710125Y-86903559D01*
X140701323Y-86903560D01*
X140695099Y-86897337D01*
X140695096Y-86897329D01*
X140694623Y-86896185D01*
X140693750Y-86891791D01*
X140693750Y-84750001D01*
X140689525Y-84712501D01*
X140689525Y-84712500D01*
X140688736Y-84705496D01*
X140650116Y-84625302D01*
X140603621Y-84588223D01*
X140592099Y-84579034D01*
X140589206Y-84575609D01*
X140588220Y-84573825D01*
X140587901Y-84571438D01*
X140587842Y-84571331D01*
X140587872Y-84571224D01*
X140587113Y-84565546D01*
X140587439Y-84564204D01*
X140589049Y-84560539D01*
X140620775Y-84513061D01*
X140673580Y-84385579D01*
X140685309Y-84326614D01*
X140700500Y-84250243D01*
X140700500Y-81581007D01*
X140698110Y-81568994D01*
X140694232Y-81549500D01*
X140693565Y-81546144D01*
X140673581Y-81445676D01*
X140673580Y-81445675D01*
X140673580Y-81445672D01*
X140653060Y-81396132D01*
X140620775Y-81318189D01*
X140544114Y-81203457D01*
X140296543Y-80955886D01*
X140296539Y-80955883D01*
X140296538Y-80955882D01*
X140181815Y-80879227D01*
X140054325Y-80826418D01*
X140054320Y-80826417D01*
X139972833Y-80810209D01*
X139945913Y-80804854D01*
X139918994Y-80799500D01*
X139918993Y-80799500D01*
X139864364Y-80799500D01*
X139859962Y-80798624D01*
X139856057Y-80797006D01*
X139852327Y-80794514D01*
X139824062Y-80766249D01*
X139821570Y-80762519D01*
X139821096Y-80761375D01*
X139821095Y-80752573D01*
X139827316Y-80746350D01*
X139827970Y-80746079D01*
X139828470Y-80745873D01*
X139832864Y-80745000D01*
X143287499Y-80745000D01*
X143287500Y-80745000D01*
X143332004Y-80739986D01*
X143412198Y-80701366D01*
X143467694Y-80631777D01*
X143487500Y-80545000D01*
X143487500Y-77217000D01*
X143490868Y-77208868D01*
X143499000Y-77205500D01*
X146586000Y-77205500D01*
X146594132Y-77208868D01*
G37*
%TD.AperFunction*%
%TA.AperFunction,NonConductor*%
G36*
X167693725Y-110986354D02*
G01*
X167698854Y-110992603D01*
X167698886Y-110992697D01*
X167699500Y-110996403D01*
X167699500Y-111998649D01*
X167699464Y-111999559D01*
X167699393Y-112000453D01*
X167699287Y-112001342D01*
X167690162Y-112058952D01*
X167689741Y-112060706D01*
X167689189Y-112062405D01*
X167688499Y-112064073D01*
X167662636Y-112114832D01*
X167661693Y-112116370D01*
X167660641Y-112117818D01*
X167659469Y-112119191D01*
X167619191Y-112159469D01*
X167617818Y-112160641D01*
X167616370Y-112161693D01*
X167614832Y-112162636D01*
X167564073Y-112188499D01*
X167562405Y-112189189D01*
X167560706Y-112189741D01*
X167558952Y-112190162D01*
X167501343Y-112199287D01*
X167500454Y-112199393D01*
X167500358Y-112199400D01*
X167499550Y-112199464D01*
X167498650Y-112199500D01*
X166848996Y-112199500D01*
X166844594Y-112198624D01*
X166843450Y-112198150D01*
X166837227Y-112191926D01*
X166837228Y-112183124D01*
X166837337Y-112182860D01*
X166842204Y-112177322D01*
X166874506Y-112158671D01*
X166946774Y-112116948D01*
X167123624Y-111981247D01*
X167281247Y-111823624D01*
X167416948Y-111646774D01*
X167528405Y-111453726D01*
X167613710Y-111247781D01*
X167671404Y-111032463D01*
X167676301Y-110995264D01*
X167677745Y-110991015D01*
X167678013Y-110990551D01*
X167684999Y-110985199D01*
X167693725Y-110986354D01*
G37*
%TD.AperFunction*%
%TA.AperFunction,Conductor*%
%TO.N,+BATT*%
G36*
X167003368Y-69503368D02*
G01*
X167696132Y-70196132D01*
X167699500Y-70204264D01*
X167699500Y-76295736D01*
X167696132Y-76303868D01*
X167003368Y-76996632D01*
X166995236Y-77000000D01*
X163646500Y-77000000D01*
X163638368Y-76996632D01*
X163635000Y-76988500D01*
X163635000Y-75090691D01*
X163899500Y-75090691D01*
X163899500Y-75209309D01*
X163930201Y-75323886D01*
X163989511Y-75426613D01*
X164073387Y-75510489D01*
X164176114Y-75569799D01*
X164290691Y-75600500D01*
X164409309Y-75600500D01*
X164523886Y-75569799D01*
X164626613Y-75510489D01*
X164696411Y-75440691D01*
X165749500Y-75440691D01*
X165749500Y-75559309D01*
X165780201Y-75673886D01*
X165839511Y-75776613D01*
X165923387Y-75860489D01*
X166026114Y-75919799D01*
X166140691Y-75950500D01*
X166259309Y-75950500D01*
X166373886Y-75919799D01*
X166476613Y-75860489D01*
X166560489Y-75776613D01*
X166619799Y-75673886D01*
X166650500Y-75559309D01*
X166650500Y-75440691D01*
X166619799Y-75326114D01*
X166560489Y-75223387D01*
X166476613Y-75139511D01*
X166476612Y-75139510D01*
X166373884Y-75080200D01*
X166373885Y-75080200D01*
X166259309Y-75049500D01*
X166140691Y-75049500D01*
X166026115Y-75080200D01*
X165923387Y-75139510D01*
X165839510Y-75223387D01*
X165780200Y-75326115D01*
X165772898Y-75353368D01*
X165749500Y-75440691D01*
X164696411Y-75440691D01*
X164710489Y-75426613D01*
X164769799Y-75323886D01*
X164800500Y-75209309D01*
X164800500Y-75090691D01*
X164769799Y-74976114D01*
X164710489Y-74873387D01*
X164626613Y-74789511D01*
X164626612Y-74789510D01*
X164523884Y-74730200D01*
X164523885Y-74730200D01*
X164409309Y-74699500D01*
X164290691Y-74699500D01*
X164176115Y-74730200D01*
X164073387Y-74789510D01*
X163989510Y-74873387D01*
X163930200Y-74976115D01*
X163922764Y-75003868D01*
X163899500Y-75090691D01*
X163635000Y-75090691D01*
X163635000Y-71940691D01*
X165049500Y-71940691D01*
X165049500Y-72059308D01*
X165080200Y-72173884D01*
X165127148Y-72255201D01*
X165139511Y-72276613D01*
X165223387Y-72360489D01*
X165326114Y-72419799D01*
X165440691Y-72450500D01*
X165559309Y-72450500D01*
X165673886Y-72419799D01*
X165776613Y-72360489D01*
X165860489Y-72276613D01*
X165919799Y-72173886D01*
X165950500Y-72059309D01*
X165950500Y-71940691D01*
X165919799Y-71826114D01*
X165860489Y-71723387D01*
X165776613Y-71639511D01*
X165776612Y-71639510D01*
X165673884Y-71580200D01*
X165673885Y-71580200D01*
X165559309Y-71549500D01*
X165440691Y-71549500D01*
X165326115Y-71580200D01*
X165223387Y-71639510D01*
X165139510Y-71723387D01*
X165080200Y-71826115D01*
X165049500Y-71940691D01*
X163635000Y-71940691D01*
X163635000Y-69940691D01*
X165049500Y-69940691D01*
X165049500Y-70059309D01*
X165080201Y-70173886D01*
X165139511Y-70276613D01*
X165223387Y-70360489D01*
X165326114Y-70419799D01*
X165440691Y-70450500D01*
X165559309Y-70450500D01*
X165673886Y-70419799D01*
X165776613Y-70360489D01*
X165860489Y-70276613D01*
X165919799Y-70173886D01*
X165950500Y-70059309D01*
X165950500Y-69940691D01*
X165919799Y-69826114D01*
X165860489Y-69723387D01*
X165776613Y-69639511D01*
X165776612Y-69639510D01*
X165673884Y-69580200D01*
X165673885Y-69580200D01*
X165559309Y-69549500D01*
X165440691Y-69549500D01*
X165326115Y-69580200D01*
X165223387Y-69639510D01*
X165139510Y-69723387D01*
X165080200Y-69826115D01*
X165049500Y-69940691D01*
X163635000Y-69940691D01*
X163635000Y-69511500D01*
X163638368Y-69503368D01*
X163646500Y-69500000D01*
X166995236Y-69500000D01*
X167003368Y-69503368D01*
G37*
%TD.AperFunction*%
%TA.AperFunction,Conductor*%
G36*
X134571632Y-73353868D02*
G01*
X134575000Y-73362000D01*
X134575000Y-73988000D01*
X134571632Y-73996132D01*
X134563500Y-73999500D01*
X133511500Y-73999500D01*
X133503368Y-73996132D01*
X133500000Y-73988000D01*
X133500000Y-73362000D01*
X133503368Y-73353868D01*
X133511500Y-73350500D01*
X134563500Y-73350500D01*
X134571632Y-73353868D01*
G37*
%TD.AperFunction*%
%TD*%
%TA.AperFunction,NonConductor*%
G36*
X133714470Y-70301793D02*
G01*
X135393045Y-71980368D01*
X135396413Y-71988500D01*
X135393045Y-71996632D01*
X135384913Y-72000000D01*
X134775000Y-72000000D01*
X134760165Y-72001671D01*
X134730494Y-72005014D01*
X134650302Y-72043633D01*
X134594807Y-72113221D01*
X134594806Y-72113222D01*
X134594806Y-72113223D01*
X134575000Y-72200000D01*
X134575000Y-72200003D01*
X134575000Y-72338000D01*
X134571632Y-72346132D01*
X134563500Y-72349500D01*
X133511500Y-72349500D01*
X133503368Y-72346132D01*
X133500000Y-72338000D01*
X133500000Y-70504763D01*
X133503367Y-70496632D01*
X133698207Y-70301792D01*
X133706338Y-70298425D01*
X133714470Y-70301793D01*
G37*
%TD.AperFunction*%
%TA.AperFunction,NonConductor*%
G36*
X155977177Y-69503368D02*
G01*
X156241632Y-69767823D01*
X156245000Y-69775955D01*
X156245000Y-76988500D01*
X156241632Y-76996632D01*
X156233500Y-77000000D01*
X153999000Y-77000000D01*
X153990868Y-76996632D01*
X153987500Y-76988500D01*
X153987500Y-76191539D01*
X154549500Y-76191539D01*
X154549500Y-76310156D01*
X154578878Y-76419799D01*
X154580201Y-76424734D01*
X154639511Y-76527461D01*
X154723387Y-76611337D01*
X154826114Y-76670647D01*
X154940691Y-76701348D01*
X155059309Y-76701348D01*
X155173886Y-76670647D01*
X155276613Y-76611337D01*
X155360489Y-76527461D01*
X155419799Y-76424734D01*
X155450500Y-76310157D01*
X155450500Y-76191539D01*
X155419799Y-76076962D01*
X155360489Y-75974235D01*
X155276613Y-75890359D01*
X155276612Y-75890358D01*
X155173884Y-75831048D01*
X155173885Y-75831048D01*
X155059309Y-75800348D01*
X154940691Y-75800348D01*
X154826115Y-75831048D01*
X154723387Y-75890358D01*
X154639510Y-75974235D01*
X154580200Y-76076963D01*
X154549500Y-76191539D01*
X153987500Y-76191539D01*
X153987500Y-74440691D01*
X154549500Y-74440691D01*
X154549500Y-74559309D01*
X154580201Y-74673886D01*
X154639511Y-74776613D01*
X154723387Y-74860489D01*
X154826114Y-74919799D01*
X154940691Y-74950500D01*
X155059309Y-74950500D01*
X155173886Y-74919799D01*
X155276613Y-74860489D01*
X155360489Y-74776613D01*
X155419799Y-74673886D01*
X155450500Y-74559309D01*
X155450500Y-74440691D01*
X155419799Y-74326114D01*
X155360489Y-74223387D01*
X155276613Y-74139511D01*
X155276612Y-74139510D01*
X155173884Y-74080200D01*
X155173885Y-74080200D01*
X155059309Y-74049500D01*
X154940691Y-74049500D01*
X154826115Y-74080200D01*
X154723387Y-74139510D01*
X154639510Y-74223387D01*
X154580200Y-74326115D01*
X154551264Y-74434108D01*
X154549500Y-74440691D01*
X153987500Y-74440691D01*
X153987500Y-69511500D01*
X153990868Y-69503368D01*
X153999000Y-69500000D01*
X155969045Y-69500000D01*
X155977177Y-69503368D01*
G37*
%TD.AperFunction*%
%TA.AperFunction,NonConductor*%
G36*
X145677177Y-69503368D02*
G01*
X146594132Y-70420323D01*
X146597500Y-70428455D01*
X146597500Y-76988500D01*
X146594132Y-76996632D01*
X146586000Y-77000000D01*
X143499000Y-77000000D01*
X143490868Y-76996632D01*
X143487500Y-76988500D01*
X143487500Y-72615691D01*
X143549500Y-72615691D01*
X143549500Y-72734309D01*
X143580201Y-72848886D01*
X143639511Y-72951613D01*
X143723387Y-73035489D01*
X143826114Y-73094799D01*
X143940691Y-73125500D01*
X144059309Y-73125500D01*
X144173886Y-73094799D01*
X144276613Y-73035489D01*
X144360489Y-72951613D01*
X144419799Y-72848886D01*
X144450500Y-72734309D01*
X144450500Y-72615691D01*
X144549500Y-72615691D01*
X144549500Y-72734309D01*
X144580201Y-72848886D01*
X144639511Y-72951613D01*
X144723387Y-73035489D01*
X144826114Y-73094799D01*
X144940691Y-73125500D01*
X145059309Y-73125500D01*
X145173886Y-73094799D01*
X145244251Y-73054172D01*
X145252976Y-73053024D01*
X145255745Y-73054170D01*
X145326114Y-73094799D01*
X145440691Y-73125500D01*
X145559309Y-73125500D01*
X145673886Y-73094799D01*
X145776613Y-73035489D01*
X145860489Y-72951613D01*
X145919799Y-72848886D01*
X145950500Y-72734309D01*
X145950500Y-72615691D01*
X145919799Y-72501114D01*
X145860489Y-72398387D01*
X145776613Y-72314511D01*
X145776612Y-72314510D01*
X145673884Y-72255200D01*
X145673885Y-72255200D01*
X145559309Y-72224500D01*
X145440691Y-72224500D01*
X145326119Y-72255199D01*
X145326109Y-72255203D01*
X145255750Y-72295825D01*
X145247024Y-72296974D01*
X145244250Y-72295825D01*
X145173890Y-72255203D01*
X145173888Y-72255202D01*
X145173886Y-72255201D01*
X145173882Y-72255200D01*
X145173880Y-72255199D01*
X145059309Y-72224500D01*
X144940691Y-72224500D01*
X144826115Y-72255200D01*
X144723387Y-72314510D01*
X144639510Y-72398387D01*
X144580200Y-72501115D01*
X144549500Y-72615691D01*
X144450500Y-72615691D01*
X144419799Y-72501114D01*
X144360489Y-72398387D01*
X144276613Y-72314511D01*
X144276612Y-72314510D01*
X144173884Y-72255200D01*
X144173885Y-72255200D01*
X144059309Y-72224500D01*
X143940691Y-72224500D01*
X143826115Y-72255200D01*
X143723387Y-72314510D01*
X143639510Y-72398387D01*
X143580200Y-72501115D01*
X143549500Y-72615691D01*
X143487500Y-72615691D01*
X143487500Y-69511500D01*
X143490868Y-69503368D01*
X143499000Y-69500000D01*
X145669045Y-69500000D01*
X145677177Y-69503368D01*
G37*
%TD.AperFunction*%
%TA.AperFunction,NonConductor*%
G36*
X134571632Y-75003868D02*
G01*
X134575000Y-75012000D01*
X134575000Y-75149998D01*
X134580014Y-75194505D01*
X134618633Y-75274697D01*
X134618634Y-75274698D01*
X134688223Y-75330194D01*
X134775000Y-75350000D01*
X136086000Y-75350000D01*
X136094132Y-75353368D01*
X136097500Y-75361500D01*
X136097500Y-76988500D01*
X136094132Y-76996632D01*
X136086000Y-77000000D01*
X134504764Y-77000000D01*
X134496632Y-76996632D01*
X133503368Y-76003368D01*
X133500000Y-75995236D01*
X133500000Y-75940691D01*
X135049500Y-75940691D01*
X135049500Y-76059309D01*
X135080201Y-76173886D01*
X135139511Y-76276613D01*
X135223387Y-76360489D01*
X135326114Y-76419799D01*
X135440691Y-76450500D01*
X135559309Y-76450500D01*
X135673886Y-76419799D01*
X135776613Y-76360489D01*
X135860489Y-76276613D01*
X135919799Y-76173886D01*
X135950500Y-76059309D01*
X135950500Y-75940691D01*
X135919799Y-75826114D01*
X135860489Y-75723387D01*
X135776613Y-75639511D01*
X135776612Y-75639510D01*
X135673884Y-75580200D01*
X135673885Y-75580200D01*
X135559309Y-75549500D01*
X135440691Y-75549500D01*
X135326115Y-75580200D01*
X135223387Y-75639510D01*
X135139510Y-75723387D01*
X135080200Y-75826115D01*
X135055098Y-75919799D01*
X135049500Y-75940691D01*
X133500000Y-75940691D01*
X133500000Y-75012000D01*
X133503368Y-75003868D01*
X133511500Y-75000500D01*
X134563500Y-75000500D01*
X134571632Y-75003868D01*
G37*
%TD.AperFunction*%
M02*
