%TF.GenerationSoftware,KiCad,Pcbnew,10.0.5*%
%TF.CreationDate,2026-07-25T01:18:02+08:00*%
%TF.ProjectId,wfoc,77666f63-2e6b-4696-9361-645f70636258,rev?*%
%TF.SameCoordinates,Original*%
%TF.FileFunction,Soldermask,Bot*%
%TF.FilePolarity,Negative*%
%FSLAX46Y46*%
G04 Gerber Fmt 4.6, Leading zero omitted, Abs format (unit mm)*
G04 Created by KiCad (PCBNEW 10.0.5) date 2026-07-25 01:18:02*
%MOMM*%
%LPD*%
G01*
G04 APERTURE LIST*
G04 Aperture macros list*
%AMRoundRect*
0 Rectangle with rounded corners*
0 $1 Rounding radius*
0 $2 $3 $4 $5 $6 $7 $8 $9 X,Y pos of 4 corners*
0 Add a 4 corners polygon primitive as box body*
4,1,4,$2,$3,$4,$5,$6,$7,$8,$9,$2,$3,0*
0 Add four circle primitives for the rounded corners*
1,1,$1+$1,$2,$3*
1,1,$1+$1,$4,$5*
1,1,$1+$1,$6,$7*
1,1,$1+$1,$8,$9*
0 Add four rect primitives between the rounded corners*
20,1,$1+$1,$2,$3,$4,$5,0*
20,1,$1+$1,$4,$5,$6,$7,0*
20,1,$1+$1,$6,$7,$8,$9,0*
20,1,$1+$1,$8,$9,$2,$3,0*%
G04 Aperture macros list end*
%ADD10RoundRect,0.200000X0.200000X0.275000X-0.200000X0.275000X-0.200000X-0.275000X0.200000X-0.275000X0*%
%ADD11RoundRect,0.250000X0.750000X-0.750000X0.750000X0.750000X-0.750000X0.750000X-0.750000X-0.750000X0*%
%ADD12C,2.000000*%
%ADD13RoundRect,0.250000X-0.750000X0.750000X-0.750000X-0.750000X0.750000X-0.750000X0.750000X0.750000X0*%
%ADD14RoundRect,0.200000X0.275000X-0.200000X0.275000X0.200000X-0.275000X0.200000X-0.275000X-0.200000X0*%
%ADD15RoundRect,0.250000X0.350000X-0.850000X0.350000X0.850000X-0.350000X0.850000X-0.350000X-0.850000X0*%
%ADD16RoundRect,0.249997X2.650003X-2.950003X2.650003X2.950003X-2.650003X2.950003X-2.650003X-2.950003X0*%
%ADD17RoundRect,0.250000X1.425000X-0.362500X1.425000X0.362500X-1.425000X0.362500X-1.425000X-0.362500X0*%
%ADD18RoundRect,0.200000X-0.200000X-0.275000X0.200000X-0.275000X0.200000X0.275000X-0.200000X0.275000X0*%
%ADD19C,4.000000*%
%ADD20C,0.500000*%
%ADD21C,0.600000*%
%ADD22C,3.000000*%
%ADD23C,0.800000*%
G04 APERTURE END LIST*
D10*
%TO.C,R5*%
X129243750Y-88500000D03*
X130893750Y-88500000D03*
%TD*%
%TO.C,R3*%
X129243750Y-87000000D03*
X130893750Y-87000000D03*
%TD*%
D11*
%TO.C,C9*%
X159000000Y-105000000D03*
D12*
X159000000Y-97500000D03*
%TD*%
D13*
%TO.C,C11*%
X136500000Y-103000000D03*
D12*
X136500000Y-110500000D03*
%TD*%
D14*
%TO.C,TH1*%
X135500000Y-74500000D03*
X135500000Y-72850000D03*
%TD*%
D15*
%TO.C,Q5*%
X162220000Y-79200000D03*
D16*
X159940000Y-72900000D03*
D15*
X157660000Y-79200000D03*
%TD*%
D17*
%TO.C,R4*%
X143068750Y-91462500D03*
X143068750Y-85537500D03*
%TD*%
%TO.C,R6*%
X134568750Y-91500000D03*
X134568750Y-85575000D03*
%TD*%
D15*
%TO.C,Q6*%
X152572500Y-79200000D03*
D16*
X150292500Y-72900000D03*
D15*
X148012500Y-79200000D03*
%TD*%
D18*
%TO.C,R10*%
X129243750Y-90000000D03*
X130893750Y-90000000D03*
%TD*%
D10*
%TO.C,R8*%
X130893750Y-91500000D03*
X129243750Y-91500000D03*
%TD*%
D15*
%TO.C,Q4*%
X142072500Y-79200000D03*
D16*
X139792500Y-72900000D03*
D15*
X137512500Y-79200000D03*
%TD*%
D17*
%TO.C,R2*%
X138568750Y-91537500D03*
X138568750Y-85612500D03*
%TD*%
%TO.C,R1*%
X147068750Y-91500000D03*
X147068750Y-85575000D03*
%TD*%
D19*
X161500000Y-87500000D03*
X157000000Y-66000000D03*
D20*
X129950000Y-107099999D03*
D21*
X129000000Y-111149997D03*
D22*
X165500000Y-65500000D03*
X166000000Y-110700000D03*
D21*
X126950000Y-106950000D03*
D19*
X161500000Y-94000000D03*
D22*
X119800000Y-65300000D03*
D20*
X125000000Y-111000000D03*
D19*
X134500000Y-66600000D03*
X147000000Y-66300000D03*
D23*
X119000000Y-108000000D03*
X119000000Y-111000000D03*
X119000000Y-109500000D03*
D21*
X126249997Y-111149997D03*
X127500000Y-111149997D03*
X131000000Y-111149997D03*
M02*
