%TF.GenerationSoftware,KiCad,Pcbnew,10.0.5*%
%TF.CreationDate,2026-07-25T01:18:02+08:00*%
%TF.ProjectId,wfoc,77666f63-2e6b-4696-9361-645f70636258,rev?*%
%TF.SameCoordinates,Original*%
%TF.FileFunction,Legend,Top*%
%TF.FilePolarity,Positive*%
%FSLAX46Y46*%
G04 Gerber Fmt 4.6, Leading zero omitted, Abs format (unit mm)*
G04 Created by KiCad (PCBNEW 10.0.5) date 2026-07-25 01:18:02*
%MOMM*%
%LPD*%
G01*
G04 APERTURE LIST*
G04 Aperture macros list*
%AMRoundRect*
0 Rectangle with rounded corners*
0 $1 Rounding radius*
0 $2 $3 $4 $5 $6 $7 $8 $9 X,Y pos of 4 corners*
0 Add a 4 corners polygon primitive as box body*
4,1,4,$2,$3,$4,$5,$6,$7,$8,$9,$2,$3,0*
0 Add four circle primitives for the rounded corners*
1,1,$1+$1,$2,$3*
1,1,$1+$1,$4,$5*
1,1,$1+$1,$6,$7*
1,1,$1+$1,$8,$9*
0 Add four rect primitives between the rounded corners*
20,1,$1+$1,$2,$3,$4,$5,0*
20,1,$1+$1,$4,$5,$6,$7,0*
20,1,$1+$1,$6,$7,$8,$9,0*
20,1,$1+$1,$8,$9,$2,$3,0*%
G04 Aperture macros list end*
%ADD10C,0.125000*%
%ADD11C,0.300000*%
%ADD12C,0.100000*%
%ADD13C,0.250000*%
%ADD14C,0.150000*%
%ADD15C,0.120000*%
%ADD16C,0.600000*%
%ADD17C,0.500000*%
%ADD18RoundRect,0.250000X0.350000X-0.850000X0.350000X0.850000X-0.350000X0.850000X-0.350000X-0.850000X0*%
%ADD19RoundRect,0.249997X2.650003X-2.950003X2.650003X2.950003X-2.650003X2.950003X-2.650003X-2.950003X0*%
%ADD20RoundRect,0.225000X0.250000X-0.225000X0.250000X0.225000X-0.250000X0.225000X-0.250000X-0.225000X0*%
%ADD21RoundRect,0.200000X-0.200000X-0.275000X0.200000X-0.275000X0.200000X0.275000X-0.200000X0.275000X0*%
%ADD22RoundRect,0.200000X0.200000X0.275000X-0.200000X0.275000X-0.200000X-0.275000X0.200000X-0.275000X0*%
%ADD23RoundRect,0.225000X-0.225000X-0.250000X0.225000X-0.250000X0.225000X0.250000X-0.225000X0.250000X0*%
%ADD24RoundRect,0.200000X0.275000X-0.200000X0.275000X0.200000X-0.275000X0.200000X-0.275000X-0.200000X0*%
%ADD25RoundRect,0.135000X0.135000X0.185000X-0.135000X0.185000X-0.135000X-0.185000X0.135000X-0.185000X0*%
%ADD26RoundRect,0.135000X-0.135000X-0.185000X0.135000X-0.185000X0.135000X0.185000X-0.135000X0.185000X0*%
%ADD27RoundRect,0.250000X0.312500X0.625000X-0.312500X0.625000X-0.312500X-0.625000X0.312500X-0.625000X0*%
%ADD28RoundRect,0.225000X0.225000X0.250000X-0.225000X0.250000X-0.225000X-0.250000X0.225000X-0.250000X0*%
%ADD29RoundRect,0.250000X0.450000X-0.262500X0.450000X0.262500X-0.450000X0.262500X-0.450000X-0.262500X0*%
%ADD30RoundRect,0.175000X0.460000X0.175000X-0.460000X0.175000X-0.460000X-0.175000X0.460000X-0.175000X0*%
%ADD31R,2.413000X3.302000*%
%ADD32R,3.000000X2.350000*%
%ADD33RoundRect,0.225000X-0.250000X0.225000X-0.250000X-0.225000X0.250000X-0.225000X0.250000X0.225000X0*%
%ADD34RoundRect,0.250000X-0.475000X0.250000X-0.475000X-0.250000X0.475000X-0.250000X0.475000X0.250000X0*%
%ADD35RoundRect,0.250000X0.750000X-0.750000X0.750000X0.750000X-0.750000X0.750000X-0.750000X-0.750000X0*%
%ADD36C,2.000000*%
%ADD37RoundRect,0.200000X-0.275000X0.200000X-0.275000X-0.200000X0.275000X-0.200000X0.275000X0.200000X0*%
%ADD38RoundRect,0.250001X0.462499X0.624999X-0.462499X0.624999X-0.462499X-0.624999X0.462499X-0.624999X0*%
%ADD39RoundRect,0.100000X0.100000X-0.637500X0.100000X0.637500X-0.100000X0.637500X-0.100000X-0.637500X0*%
%ADD40RoundRect,0.250000X-0.750000X0.750000X-0.750000X-0.750000X0.750000X-0.750000X0.750000X0.750000X0*%
%ADD41RoundRect,0.150000X0.150000X-0.675000X0.150000X0.675000X-0.150000X0.675000X-0.150000X-0.675000X0*%
%ADD42RoundRect,0.050000X0.050000X-0.230000X0.050000X0.230000X-0.050000X0.230000X-0.050000X-0.230000X0*%
%ADD43RoundRect,0.050000X0.230000X-0.050000X0.230000X0.050000X-0.230000X0.050000X-0.230000X-0.050000X0*%
%ADD44R,1.500000X1.500000*%
%ADD45RoundRect,0.150000X-0.587500X-0.150000X0.587500X-0.150000X0.587500X0.150000X-0.587500X0.150000X0*%
%ADD46C,4.000000*%
%ADD47C,0.500000*%
%ADD48C,0.600000*%
%ADD49C,3.000000*%
%ADD50C,0.800000*%
G04 APERTURE END LIST*
D10*
X121677474Y-101408500D02*
X121748902Y-101432309D01*
X121748902Y-101432309D02*
X121867950Y-101432309D01*
X121867950Y-101432309D02*
X121915569Y-101408500D01*
X121915569Y-101408500D02*
X121939378Y-101384690D01*
X121939378Y-101384690D02*
X121963188Y-101337071D01*
X121963188Y-101337071D02*
X121963188Y-101289452D01*
X121963188Y-101289452D02*
X121939378Y-101241833D01*
X121939378Y-101241833D02*
X121915569Y-101218023D01*
X121915569Y-101218023D02*
X121867950Y-101194214D01*
X121867950Y-101194214D02*
X121772712Y-101170404D01*
X121772712Y-101170404D02*
X121725093Y-101146595D01*
X121725093Y-101146595D02*
X121701283Y-101122785D01*
X121701283Y-101122785D02*
X121677474Y-101075166D01*
X121677474Y-101075166D02*
X121677474Y-101027547D01*
X121677474Y-101027547D02*
X121701283Y-100979928D01*
X121701283Y-100979928D02*
X121725093Y-100956119D01*
X121725093Y-100956119D02*
X121772712Y-100932309D01*
X121772712Y-100932309D02*
X121891759Y-100932309D01*
X121891759Y-100932309D02*
X121963188Y-100956119D01*
X122129854Y-100932309D02*
X122248902Y-101432309D01*
X122248902Y-101432309D02*
X122344140Y-101075166D01*
X122344140Y-101075166D02*
X122439378Y-101432309D01*
X122439378Y-101432309D02*
X122558426Y-100932309D01*
X123034616Y-101384690D02*
X123010807Y-101408500D01*
X123010807Y-101408500D02*
X122939378Y-101432309D01*
X122939378Y-101432309D02*
X122891759Y-101432309D01*
X122891759Y-101432309D02*
X122820331Y-101408500D01*
X122820331Y-101408500D02*
X122772712Y-101360880D01*
X122772712Y-101360880D02*
X122748902Y-101313261D01*
X122748902Y-101313261D02*
X122725093Y-101218023D01*
X122725093Y-101218023D02*
X122725093Y-101146595D01*
X122725093Y-101146595D02*
X122748902Y-101051357D01*
X122748902Y-101051357D02*
X122772712Y-101003738D01*
X122772712Y-101003738D02*
X122820331Y-100956119D01*
X122820331Y-100956119D02*
X122891759Y-100932309D01*
X122891759Y-100932309D02*
X122939378Y-100932309D01*
X122939378Y-100932309D02*
X123010807Y-100956119D01*
X123010807Y-100956119D02*
X123034616Y-100979928D01*
X123486997Y-101432309D02*
X123248902Y-101432309D01*
X123248902Y-101432309D02*
X123248902Y-100932309D01*
X123653664Y-101432309D02*
X123653664Y-100932309D01*
X123939378Y-101432309D02*
X123725093Y-101146595D01*
X123939378Y-100932309D02*
X123653664Y-101218023D01*
X128351739Y-107082765D02*
X128423167Y-107106574D01*
X128423167Y-107106574D02*
X128542215Y-107106574D01*
X128542215Y-107106574D02*
X128589834Y-107082765D01*
X128589834Y-107082765D02*
X128613643Y-107058955D01*
X128613643Y-107058955D02*
X128637453Y-107011336D01*
X128637453Y-107011336D02*
X128637453Y-106963717D01*
X128637453Y-106963717D02*
X128613643Y-106916098D01*
X128613643Y-106916098D02*
X128589834Y-106892288D01*
X128589834Y-106892288D02*
X128542215Y-106868479D01*
X128542215Y-106868479D02*
X128446977Y-106844669D01*
X128446977Y-106844669D02*
X128399358Y-106820860D01*
X128399358Y-106820860D02*
X128375548Y-106797050D01*
X128375548Y-106797050D02*
X128351739Y-106749431D01*
X128351739Y-106749431D02*
X128351739Y-106701812D01*
X128351739Y-106701812D02*
X128375548Y-106654193D01*
X128375548Y-106654193D02*
X128399358Y-106630384D01*
X128399358Y-106630384D02*
X128446977Y-106606574D01*
X128446977Y-106606574D02*
X128566024Y-106606574D01*
X128566024Y-106606574D02*
X128637453Y-106630384D01*
X128804119Y-106606574D02*
X128923167Y-107106574D01*
X128923167Y-107106574D02*
X129018405Y-106749431D01*
X129018405Y-106749431D02*
X129113643Y-107106574D01*
X129113643Y-107106574D02*
X129232691Y-106606574D01*
X129423167Y-107106574D02*
X129423167Y-106606574D01*
X129423167Y-106606574D02*
X129542215Y-106606574D01*
X129542215Y-106606574D02*
X129613643Y-106630384D01*
X129613643Y-106630384D02*
X129661262Y-106678003D01*
X129661262Y-106678003D02*
X129685072Y-106725622D01*
X129685072Y-106725622D02*
X129708881Y-106820860D01*
X129708881Y-106820860D02*
X129708881Y-106892288D01*
X129708881Y-106892288D02*
X129685072Y-106987526D01*
X129685072Y-106987526D02*
X129661262Y-107035145D01*
X129661262Y-107035145D02*
X129613643Y-107082765D01*
X129613643Y-107082765D02*
X129542215Y-107106574D01*
X129542215Y-107106574D02*
X129423167Y-107106574D01*
D11*
X132054510Y-86470996D02*
X132054510Y-84970996D01*
X132054510Y-84970996D02*
X132554510Y-86042425D01*
X132554510Y-86042425D02*
X133054510Y-84970996D01*
X133054510Y-84970996D02*
X133054510Y-86470996D01*
X134411654Y-86470996D02*
X134411654Y-85685282D01*
X134411654Y-85685282D02*
X134340225Y-85542425D01*
X134340225Y-85542425D02*
X134197368Y-85470996D01*
X134197368Y-85470996D02*
X133911654Y-85470996D01*
X133911654Y-85470996D02*
X133768796Y-85542425D01*
X134411654Y-86399568D02*
X134268796Y-86470996D01*
X134268796Y-86470996D02*
X133911654Y-86470996D01*
X133911654Y-86470996D02*
X133768796Y-86399568D01*
X133768796Y-86399568D02*
X133697368Y-86256710D01*
X133697368Y-86256710D02*
X133697368Y-86113853D01*
X133697368Y-86113853D02*
X133768796Y-85970996D01*
X133768796Y-85970996D02*
X133911654Y-85899568D01*
X133911654Y-85899568D02*
X134268796Y-85899568D01*
X134268796Y-85899568D02*
X134411654Y-85828139D01*
X134983082Y-86470996D02*
X135768797Y-85470996D01*
X134983082Y-85470996D02*
X135768797Y-86470996D01*
X136197368Y-85470996D02*
X136483083Y-86470996D01*
X136483083Y-86470996D02*
X136768797Y-85756710D01*
X136768797Y-85756710D02*
X137054511Y-86470996D01*
X137054511Y-86470996D02*
X137340225Y-85470996D01*
X138483083Y-86399568D02*
X138340226Y-86470996D01*
X138340226Y-86470996D02*
X138054512Y-86470996D01*
X138054512Y-86470996D02*
X137911654Y-86399568D01*
X137911654Y-86399568D02*
X137840226Y-86256710D01*
X137840226Y-86256710D02*
X137840226Y-85685282D01*
X137840226Y-85685282D02*
X137911654Y-85542425D01*
X137911654Y-85542425D02*
X138054512Y-85470996D01*
X138054512Y-85470996D02*
X138340226Y-85470996D01*
X138340226Y-85470996D02*
X138483083Y-85542425D01*
X138483083Y-85542425D02*
X138554512Y-85685282D01*
X138554512Y-85685282D02*
X138554512Y-85828139D01*
X138554512Y-85828139D02*
X137840226Y-85970996D01*
X139411654Y-86470996D02*
X139268797Y-86399568D01*
X139268797Y-86399568D02*
X139197368Y-86256710D01*
X139197368Y-86256710D02*
X139197368Y-84970996D01*
X140197368Y-86470996D02*
X140054511Y-86399568D01*
X140054511Y-86399568D02*
X139983082Y-86256710D01*
X139983082Y-86256710D02*
X139983082Y-84970996D01*
X140625939Y-84970996D02*
X140983082Y-86470996D01*
X140983082Y-86470996D02*
X141268796Y-85399568D01*
X141268796Y-85399568D02*
X141554511Y-86470996D01*
X141554511Y-86470996D02*
X141911654Y-84970996D01*
X143125940Y-86470996D02*
X143125940Y-85685282D01*
X143125940Y-85685282D02*
X143054511Y-85542425D01*
X143054511Y-85542425D02*
X142911654Y-85470996D01*
X142911654Y-85470996D02*
X142625940Y-85470996D01*
X142625940Y-85470996D02*
X142483082Y-85542425D01*
X143125940Y-86399568D02*
X142983082Y-86470996D01*
X142983082Y-86470996D02*
X142625940Y-86470996D01*
X142625940Y-86470996D02*
X142483082Y-86399568D01*
X142483082Y-86399568D02*
X142411654Y-86256710D01*
X142411654Y-86256710D02*
X142411654Y-86113853D01*
X142411654Y-86113853D02*
X142483082Y-85970996D01*
X142483082Y-85970996D02*
X142625940Y-85899568D01*
X142625940Y-85899568D02*
X142983082Y-85899568D01*
X142983082Y-85899568D02*
X143125940Y-85828139D01*
X143840225Y-85470996D02*
X143840225Y-86470996D01*
X143840225Y-85613853D02*
X143911654Y-85542425D01*
X143911654Y-85542425D02*
X144054511Y-85470996D01*
X144054511Y-85470996D02*
X144268797Y-85470996D01*
X144268797Y-85470996D02*
X144411654Y-85542425D01*
X144411654Y-85542425D02*
X144483083Y-85685282D01*
X144483083Y-85685282D02*
X144483083Y-86470996D01*
X145840226Y-85470996D02*
X145840226Y-86685282D01*
X145840226Y-86685282D02*
X145768797Y-86828139D01*
X145768797Y-86828139D02*
X145697368Y-86899568D01*
X145697368Y-86899568D02*
X145554511Y-86970996D01*
X145554511Y-86970996D02*
X145340226Y-86970996D01*
X145340226Y-86970996D02*
X145197368Y-86899568D01*
X145840226Y-86399568D02*
X145697368Y-86470996D01*
X145697368Y-86470996D02*
X145411654Y-86470996D01*
X145411654Y-86470996D02*
X145268797Y-86399568D01*
X145268797Y-86399568D02*
X145197368Y-86328139D01*
X145197368Y-86328139D02*
X145125940Y-86185282D01*
X145125940Y-86185282D02*
X145125940Y-85756710D01*
X145125940Y-85756710D02*
X145197368Y-85613853D01*
X145197368Y-85613853D02*
X145268797Y-85542425D01*
X145268797Y-85542425D02*
X145411654Y-85470996D01*
X145411654Y-85470996D02*
X145697368Y-85470996D01*
X145697368Y-85470996D02*
X145840226Y-85542425D01*
X131983082Y-87528769D02*
X132054510Y-87457341D01*
X132054510Y-87457341D02*
X132197368Y-87385912D01*
X132197368Y-87385912D02*
X132554510Y-87385912D01*
X132554510Y-87385912D02*
X132697368Y-87457341D01*
X132697368Y-87457341D02*
X132768796Y-87528769D01*
X132768796Y-87528769D02*
X132840225Y-87671626D01*
X132840225Y-87671626D02*
X132840225Y-87814484D01*
X132840225Y-87814484D02*
X132768796Y-88028769D01*
X132768796Y-88028769D02*
X131911653Y-88885912D01*
X131911653Y-88885912D02*
X132840225Y-88885912D01*
X133768796Y-87385912D02*
X133911653Y-87385912D01*
X133911653Y-87385912D02*
X134054510Y-87457341D01*
X134054510Y-87457341D02*
X134125939Y-87528769D01*
X134125939Y-87528769D02*
X134197367Y-87671626D01*
X134197367Y-87671626D02*
X134268796Y-87957341D01*
X134268796Y-87957341D02*
X134268796Y-88314484D01*
X134268796Y-88314484D02*
X134197367Y-88600198D01*
X134197367Y-88600198D02*
X134125939Y-88743055D01*
X134125939Y-88743055D02*
X134054510Y-88814484D01*
X134054510Y-88814484D02*
X133911653Y-88885912D01*
X133911653Y-88885912D02*
X133768796Y-88885912D01*
X133768796Y-88885912D02*
X133625939Y-88814484D01*
X133625939Y-88814484D02*
X133554510Y-88743055D01*
X133554510Y-88743055D02*
X133483081Y-88600198D01*
X133483081Y-88600198D02*
X133411653Y-88314484D01*
X133411653Y-88314484D02*
X133411653Y-87957341D01*
X133411653Y-87957341D02*
X133483081Y-87671626D01*
X133483081Y-87671626D02*
X133554510Y-87528769D01*
X133554510Y-87528769D02*
X133625939Y-87457341D01*
X133625939Y-87457341D02*
X133768796Y-87385912D01*
X134840224Y-87528769D02*
X134911652Y-87457341D01*
X134911652Y-87457341D02*
X135054510Y-87385912D01*
X135054510Y-87385912D02*
X135411652Y-87385912D01*
X135411652Y-87385912D02*
X135554510Y-87457341D01*
X135554510Y-87457341D02*
X135625938Y-87528769D01*
X135625938Y-87528769D02*
X135697367Y-87671626D01*
X135697367Y-87671626D02*
X135697367Y-87814484D01*
X135697367Y-87814484D02*
X135625938Y-88028769D01*
X135625938Y-88028769D02*
X134768795Y-88885912D01*
X134768795Y-88885912D02*
X135697367Y-88885912D01*
X136983081Y-87385912D02*
X136697366Y-87385912D01*
X136697366Y-87385912D02*
X136554509Y-87457341D01*
X136554509Y-87457341D02*
X136483081Y-87528769D01*
X136483081Y-87528769D02*
X136340223Y-87743055D01*
X136340223Y-87743055D02*
X136268795Y-88028769D01*
X136268795Y-88028769D02*
X136268795Y-88600198D01*
X136268795Y-88600198D02*
X136340223Y-88743055D01*
X136340223Y-88743055D02*
X136411652Y-88814484D01*
X136411652Y-88814484D02*
X136554509Y-88885912D01*
X136554509Y-88885912D02*
X136840223Y-88885912D01*
X136840223Y-88885912D02*
X136983081Y-88814484D01*
X136983081Y-88814484D02*
X137054509Y-88743055D01*
X137054509Y-88743055D02*
X137125938Y-88600198D01*
X137125938Y-88600198D02*
X137125938Y-88243055D01*
X137125938Y-88243055D02*
X137054509Y-88100198D01*
X137054509Y-88100198D02*
X136983081Y-88028769D01*
X136983081Y-88028769D02*
X136840223Y-87957341D01*
X136840223Y-87957341D02*
X136554509Y-87957341D01*
X136554509Y-87957341D02*
X136411652Y-88028769D01*
X136411652Y-88028769D02*
X136340223Y-88100198D01*
X136340223Y-88100198D02*
X136268795Y-88243055D01*
X138840223Y-87314484D02*
X137554509Y-89243055D01*
X139197366Y-87385912D02*
X140197366Y-87385912D01*
X140197366Y-87385912D02*
X139554509Y-88885912D01*
X141840223Y-87314484D02*
X140554509Y-89243055D01*
X142268795Y-87528769D02*
X142340223Y-87457341D01*
X142340223Y-87457341D02*
X142483081Y-87385912D01*
X142483081Y-87385912D02*
X142840223Y-87385912D01*
X142840223Y-87385912D02*
X142983081Y-87457341D01*
X142983081Y-87457341D02*
X143054509Y-87528769D01*
X143054509Y-87528769D02*
X143125938Y-87671626D01*
X143125938Y-87671626D02*
X143125938Y-87814484D01*
X143125938Y-87814484D02*
X143054509Y-88028769D01*
X143054509Y-88028769D02*
X142197366Y-88885912D01*
X142197366Y-88885912D02*
X143125938Y-88885912D01*
X144483080Y-87385912D02*
X143768794Y-87385912D01*
X143768794Y-87385912D02*
X143697366Y-88100198D01*
X143697366Y-88100198D02*
X143768794Y-88028769D01*
X143768794Y-88028769D02*
X143911652Y-87957341D01*
X143911652Y-87957341D02*
X144268794Y-87957341D01*
X144268794Y-87957341D02*
X144411652Y-88028769D01*
X144411652Y-88028769D02*
X144483080Y-88100198D01*
X144483080Y-88100198D02*
X144554509Y-88243055D01*
X144554509Y-88243055D02*
X144554509Y-88600198D01*
X144554509Y-88600198D02*
X144483080Y-88743055D01*
X144483080Y-88743055D02*
X144411652Y-88814484D01*
X144411652Y-88814484D02*
X144268794Y-88885912D01*
X144268794Y-88885912D02*
X143911652Y-88885912D01*
X143911652Y-88885912D02*
X143768794Y-88814484D01*
X143768794Y-88814484D02*
X143697366Y-88743055D01*
X131911653Y-90300828D02*
X132268796Y-91300828D01*
X132268796Y-91300828D02*
X132625939Y-90300828D01*
X133983082Y-91300828D02*
X133125939Y-91300828D01*
X133554510Y-91300828D02*
X133554510Y-89800828D01*
X133554510Y-89800828D02*
X133411653Y-90015114D01*
X133411653Y-90015114D02*
X133268796Y-90157971D01*
X133268796Y-90157971D02*
X133125939Y-90229400D01*
X134625938Y-91157971D02*
X134697367Y-91229400D01*
X134697367Y-91229400D02*
X134625938Y-91300828D01*
X134625938Y-91300828D02*
X134554510Y-91229400D01*
X134554510Y-91229400D02*
X134625938Y-91157971D01*
X134625938Y-91157971D02*
X134625938Y-91300828D01*
X135625939Y-89800828D02*
X135768796Y-89800828D01*
X135768796Y-89800828D02*
X135911653Y-89872257D01*
X135911653Y-89872257D02*
X135983082Y-89943685D01*
X135983082Y-89943685D02*
X136054510Y-90086542D01*
X136054510Y-90086542D02*
X136125939Y-90372257D01*
X136125939Y-90372257D02*
X136125939Y-90729400D01*
X136125939Y-90729400D02*
X136054510Y-91015114D01*
X136054510Y-91015114D02*
X135983082Y-91157971D01*
X135983082Y-91157971D02*
X135911653Y-91229400D01*
X135911653Y-91229400D02*
X135768796Y-91300828D01*
X135768796Y-91300828D02*
X135625939Y-91300828D01*
X135625939Y-91300828D02*
X135483082Y-91229400D01*
X135483082Y-91229400D02*
X135411653Y-91157971D01*
X135411653Y-91157971D02*
X135340224Y-91015114D01*
X135340224Y-91015114D02*
X135268796Y-90729400D01*
X135268796Y-90729400D02*
X135268796Y-90372257D01*
X135268796Y-90372257D02*
X135340224Y-90086542D01*
X135340224Y-90086542D02*
X135411653Y-89943685D01*
X135411653Y-89943685D02*
X135483082Y-89872257D01*
X135483082Y-89872257D02*
X135625939Y-89800828D01*
X136768795Y-91157971D02*
X136840224Y-91229400D01*
X136840224Y-91229400D02*
X136768795Y-91300828D01*
X136768795Y-91300828D02*
X136697367Y-91229400D01*
X136697367Y-91229400D02*
X136768795Y-91157971D01*
X136768795Y-91157971D02*
X136768795Y-91300828D01*
X137768796Y-89800828D02*
X137911653Y-89800828D01*
X137911653Y-89800828D02*
X138054510Y-89872257D01*
X138054510Y-89872257D02*
X138125939Y-89943685D01*
X138125939Y-89943685D02*
X138197367Y-90086542D01*
X138197367Y-90086542D02*
X138268796Y-90372257D01*
X138268796Y-90372257D02*
X138268796Y-90729400D01*
X138268796Y-90729400D02*
X138197367Y-91015114D01*
X138197367Y-91015114D02*
X138125939Y-91157971D01*
X138125939Y-91157971D02*
X138054510Y-91229400D01*
X138054510Y-91229400D02*
X137911653Y-91300828D01*
X137911653Y-91300828D02*
X137768796Y-91300828D01*
X137768796Y-91300828D02*
X137625939Y-91229400D01*
X137625939Y-91229400D02*
X137554510Y-91157971D01*
X137554510Y-91157971D02*
X137483081Y-91015114D01*
X137483081Y-91015114D02*
X137411653Y-90729400D01*
X137411653Y-90729400D02*
X137411653Y-90372257D01*
X137411653Y-90372257D02*
X137483081Y-90086542D01*
X137483081Y-90086542D02*
X137554510Y-89943685D01*
X137554510Y-89943685D02*
X137625939Y-89872257D01*
X137625939Y-89872257D02*
X137768796Y-89800828D01*
D12*
X118250000Y-107500000D02*
X119750000Y-107500000D01*
X119750000Y-111500000D01*
X118250000Y-111500000D01*
X118250000Y-107500000D01*
X123500000Y-110500000D02*
X131500000Y-110500000D01*
X131500000Y-112000000D01*
X123500000Y-112000000D01*
X123500000Y-110500000D01*
X124446741Y-109957419D02*
X124399122Y-109933609D01*
X124399122Y-109933609D02*
X124327693Y-109933609D01*
X124327693Y-109933609D02*
X124256265Y-109957419D01*
X124256265Y-109957419D02*
X124208646Y-110005038D01*
X124208646Y-110005038D02*
X124184836Y-110052657D01*
X124184836Y-110052657D02*
X124161027Y-110147895D01*
X124161027Y-110147895D02*
X124161027Y-110219323D01*
X124161027Y-110219323D02*
X124184836Y-110314561D01*
X124184836Y-110314561D02*
X124208646Y-110362180D01*
X124208646Y-110362180D02*
X124256265Y-110409800D01*
X124256265Y-110409800D02*
X124327693Y-110433609D01*
X124327693Y-110433609D02*
X124375312Y-110433609D01*
X124375312Y-110433609D02*
X124446741Y-110409800D01*
X124446741Y-110409800D02*
X124470550Y-110385990D01*
X124470550Y-110385990D02*
X124470550Y-110219323D01*
X124470550Y-110219323D02*
X124375312Y-110219323D01*
X124684836Y-110433609D02*
X124684836Y-109933609D01*
X124684836Y-109933609D02*
X124970550Y-110433609D01*
X124970550Y-110433609D02*
X124970550Y-109933609D01*
X125208646Y-110433609D02*
X125208646Y-109933609D01*
X125208646Y-109933609D02*
X125327694Y-109933609D01*
X125327694Y-109933609D02*
X125399122Y-109957419D01*
X125399122Y-109957419D02*
X125446741Y-110005038D01*
X125446741Y-110005038D02*
X125470551Y-110052657D01*
X125470551Y-110052657D02*
X125494360Y-110147895D01*
X125494360Y-110147895D02*
X125494360Y-110219323D01*
X125494360Y-110219323D02*
X125470551Y-110314561D01*
X125470551Y-110314561D02*
X125446741Y-110362180D01*
X125446741Y-110362180D02*
X125399122Y-110409800D01*
X125399122Y-110409800D02*
X125327694Y-110433609D01*
X125327694Y-110433609D02*
X125208646Y-110433609D01*
X126113408Y-109933609D02*
X126399122Y-109933609D01*
X126256265Y-110433609D02*
X126256265Y-109933609D01*
X126518169Y-109933609D02*
X126851502Y-110433609D01*
X126851502Y-109933609D02*
X126518169Y-110433609D01*
X126946741Y-106957419D02*
X126899122Y-106933609D01*
X126899122Y-106933609D02*
X126827693Y-106933609D01*
X126827693Y-106933609D02*
X126756265Y-106957419D01*
X126756265Y-106957419D02*
X126708646Y-107005038D01*
X126708646Y-107005038D02*
X126684836Y-107052657D01*
X126684836Y-107052657D02*
X126661027Y-107147895D01*
X126661027Y-107147895D02*
X126661027Y-107219323D01*
X126661027Y-107219323D02*
X126684836Y-107314561D01*
X126684836Y-107314561D02*
X126708646Y-107362180D01*
X126708646Y-107362180D02*
X126756265Y-107409800D01*
X126756265Y-107409800D02*
X126827693Y-107433609D01*
X126827693Y-107433609D02*
X126875312Y-107433609D01*
X126875312Y-107433609D02*
X126946741Y-107409800D01*
X126946741Y-107409800D02*
X126970550Y-107385990D01*
X126970550Y-107385990D02*
X126970550Y-107219323D01*
X126970550Y-107219323D02*
X126875312Y-107219323D01*
X127184836Y-107433609D02*
X127184836Y-106933609D01*
X127184836Y-106933609D02*
X127470550Y-107433609D01*
X127470550Y-107433609D02*
X127470550Y-106933609D01*
X127708646Y-107433609D02*
X127708646Y-106933609D01*
X127708646Y-106933609D02*
X127827694Y-106933609D01*
X127827694Y-106933609D02*
X127899122Y-106957419D01*
X127899122Y-106957419D02*
X127946741Y-107005038D01*
X127946741Y-107005038D02*
X127970551Y-107052657D01*
X127970551Y-107052657D02*
X127994360Y-107147895D01*
X127994360Y-107147895D02*
X127994360Y-107219323D01*
X127994360Y-107219323D02*
X127970551Y-107314561D01*
X127970551Y-107314561D02*
X127946741Y-107362180D01*
X127946741Y-107362180D02*
X127899122Y-107409800D01*
X127899122Y-107409800D02*
X127827694Y-107433609D01*
X127827694Y-107433609D02*
X127708646Y-107433609D01*
X127470550Y-110433609D02*
X127303884Y-110195514D01*
X127184836Y-110433609D02*
X127184836Y-109933609D01*
X127184836Y-109933609D02*
X127375312Y-109933609D01*
X127375312Y-109933609D02*
X127422931Y-109957419D01*
X127422931Y-109957419D02*
X127446741Y-109981228D01*
X127446741Y-109981228D02*
X127470550Y-110028847D01*
X127470550Y-110028847D02*
X127470550Y-110100276D01*
X127470550Y-110100276D02*
X127446741Y-110147895D01*
X127446741Y-110147895D02*
X127422931Y-110171704D01*
X127422931Y-110171704D02*
X127375312Y-110195514D01*
X127375312Y-110195514D02*
X127184836Y-110195514D01*
X127637217Y-109933609D02*
X127970550Y-110433609D01*
X127970550Y-109933609D02*
X127637217Y-110433609D01*
X128637217Y-109933609D02*
X128946741Y-109933609D01*
X128946741Y-109933609D02*
X128780074Y-110124085D01*
X128780074Y-110124085D02*
X128851503Y-110124085D01*
X128851503Y-110124085D02*
X128899122Y-110147895D01*
X128899122Y-110147895D02*
X128922931Y-110171704D01*
X128922931Y-110171704D02*
X128946741Y-110219323D01*
X128946741Y-110219323D02*
X128946741Y-110338371D01*
X128946741Y-110338371D02*
X128922931Y-110385990D01*
X128922931Y-110385990D02*
X128899122Y-110409800D01*
X128899122Y-110409800D02*
X128851503Y-110433609D01*
X128851503Y-110433609D02*
X128708646Y-110433609D01*
X128708646Y-110433609D02*
X128661027Y-110409800D01*
X128661027Y-110409800D02*
X128637217Y-110385990D01*
X129161026Y-110385990D02*
X129184836Y-110409800D01*
X129184836Y-110409800D02*
X129161026Y-110433609D01*
X129161026Y-110433609D02*
X129137217Y-110409800D01*
X129137217Y-110409800D02*
X129161026Y-110385990D01*
X129161026Y-110385990D02*
X129161026Y-110433609D01*
X129351502Y-109933609D02*
X129661026Y-109933609D01*
X129661026Y-109933609D02*
X129494359Y-110124085D01*
X129494359Y-110124085D02*
X129565788Y-110124085D01*
X129565788Y-110124085D02*
X129613407Y-110147895D01*
X129613407Y-110147895D02*
X129637216Y-110171704D01*
X129637216Y-110171704D02*
X129661026Y-110219323D01*
X129661026Y-110219323D02*
X129661026Y-110338371D01*
X129661026Y-110338371D02*
X129637216Y-110385990D01*
X129637216Y-110385990D02*
X129613407Y-110409800D01*
X129613407Y-110409800D02*
X129565788Y-110433609D01*
X129565788Y-110433609D02*
X129422931Y-110433609D01*
X129422931Y-110433609D02*
X129375312Y-110409800D01*
X129375312Y-110409800D02*
X129351502Y-110385990D01*
X129827692Y-110100276D02*
X129946740Y-110433609D01*
X129946740Y-110433609D02*
X130065787Y-110100276D01*
X130684836Y-110433609D02*
X130684836Y-109933609D01*
X130684836Y-109933609D02*
X130875312Y-109933609D01*
X130875312Y-109933609D02*
X130922931Y-109957419D01*
X130922931Y-109957419D02*
X130946741Y-109981228D01*
X130946741Y-109981228D02*
X130970550Y-110028847D01*
X130970550Y-110028847D02*
X130970550Y-110100276D01*
X130970550Y-110100276D02*
X130946741Y-110147895D01*
X130946741Y-110147895D02*
X130922931Y-110171704D01*
X130922931Y-110171704D02*
X130875312Y-110195514D01*
X130875312Y-110195514D02*
X130684836Y-110195514D01*
X131184836Y-110433609D02*
X131184836Y-109933609D01*
X131184836Y-109933609D02*
X131375312Y-109933609D01*
X131375312Y-109933609D02*
X131422931Y-109957419D01*
X131422931Y-109957419D02*
X131446741Y-109981228D01*
X131446741Y-109981228D02*
X131470550Y-110028847D01*
X131470550Y-110028847D02*
X131470550Y-110100276D01*
X131470550Y-110100276D02*
X131446741Y-110147895D01*
X131446741Y-110147895D02*
X131422931Y-110171704D01*
X131422931Y-110171704D02*
X131375312Y-110195514D01*
X131375312Y-110195514D02*
X131184836Y-110195514D01*
X131684836Y-110433609D02*
X131684836Y-109933609D01*
X131684836Y-109933609D02*
X131851503Y-110290752D01*
X131851503Y-110290752D02*
X132018169Y-109933609D01*
X132018169Y-109933609D02*
X132018169Y-110433609D01*
D13*
X118402568Y-112364619D02*
X118402568Y-111364619D01*
X118402568Y-111840809D02*
X118973996Y-111840809D01*
X118973996Y-112364619D02*
X118973996Y-111364619D01*
X119878758Y-112364619D02*
X119878758Y-111840809D01*
X119878758Y-111840809D02*
X119831139Y-111745571D01*
X119831139Y-111745571D02*
X119735901Y-111697952D01*
X119735901Y-111697952D02*
X119545425Y-111697952D01*
X119545425Y-111697952D02*
X119450187Y-111745571D01*
X119878758Y-112317000D02*
X119783520Y-112364619D01*
X119783520Y-112364619D02*
X119545425Y-112364619D01*
X119545425Y-112364619D02*
X119450187Y-112317000D01*
X119450187Y-112317000D02*
X119402568Y-112221761D01*
X119402568Y-112221761D02*
X119402568Y-112126523D01*
X119402568Y-112126523D02*
X119450187Y-112031285D01*
X119450187Y-112031285D02*
X119545425Y-111983666D01*
X119545425Y-111983666D02*
X119783520Y-111983666D01*
X119783520Y-111983666D02*
X119878758Y-111936047D01*
X120497806Y-112364619D02*
X120402568Y-112317000D01*
X120402568Y-112317000D02*
X120354949Y-112221761D01*
X120354949Y-112221761D02*
X120354949Y-111364619D01*
X121021616Y-112364619D02*
X120926378Y-112317000D01*
X120926378Y-112317000D02*
X120878759Y-112221761D01*
X120878759Y-112221761D02*
X120878759Y-111364619D01*
D14*
X158904761Y-69050057D02*
X158809523Y-69002438D01*
X158809523Y-69002438D02*
X158714285Y-68907200D01*
X158714285Y-68907200D02*
X158571428Y-68764342D01*
X158571428Y-68764342D02*
X158476190Y-68716723D01*
X158476190Y-68716723D02*
X158380952Y-68716723D01*
X158428571Y-68954819D02*
X158333333Y-68907200D01*
X158333333Y-68907200D02*
X158238095Y-68811961D01*
X158238095Y-68811961D02*
X158190476Y-68621485D01*
X158190476Y-68621485D02*
X158190476Y-68288152D01*
X158190476Y-68288152D02*
X158238095Y-68097676D01*
X158238095Y-68097676D02*
X158333333Y-68002438D01*
X158333333Y-68002438D02*
X158428571Y-67954819D01*
X158428571Y-67954819D02*
X158619047Y-67954819D01*
X158619047Y-67954819D02*
X158714285Y-68002438D01*
X158714285Y-68002438D02*
X158809523Y-68097676D01*
X158809523Y-68097676D02*
X158857142Y-68288152D01*
X158857142Y-68288152D02*
X158857142Y-68621485D01*
X158857142Y-68621485D02*
X158809523Y-68811961D01*
X158809523Y-68811961D02*
X158714285Y-68907200D01*
X158714285Y-68907200D02*
X158619047Y-68954819D01*
X158619047Y-68954819D02*
X158428571Y-68954819D01*
X159809523Y-68954819D02*
X159238095Y-68954819D01*
X159523809Y-68954819D02*
X159523809Y-67954819D01*
X159523809Y-67954819D02*
X159428571Y-68097676D01*
X159428571Y-68097676D02*
X159333333Y-68192914D01*
X159333333Y-68192914D02*
X159238095Y-68240533D01*
X129929580Y-102941666D02*
X129977200Y-102989285D01*
X129977200Y-102989285D02*
X130024819Y-103132142D01*
X130024819Y-103132142D02*
X130024819Y-103227380D01*
X130024819Y-103227380D02*
X129977200Y-103370237D01*
X129977200Y-103370237D02*
X129881961Y-103465475D01*
X129881961Y-103465475D02*
X129786723Y-103513094D01*
X129786723Y-103513094D02*
X129596247Y-103560713D01*
X129596247Y-103560713D02*
X129453390Y-103560713D01*
X129453390Y-103560713D02*
X129262914Y-103513094D01*
X129262914Y-103513094D02*
X129167676Y-103465475D01*
X129167676Y-103465475D02*
X129072438Y-103370237D01*
X129072438Y-103370237D02*
X129024819Y-103227380D01*
X129024819Y-103227380D02*
X129024819Y-103132142D01*
X129024819Y-103132142D02*
X129072438Y-102989285D01*
X129072438Y-102989285D02*
X129120057Y-102941666D01*
X129024819Y-102036904D02*
X129024819Y-102513094D01*
X129024819Y-102513094D02*
X129501009Y-102560713D01*
X129501009Y-102560713D02*
X129453390Y-102513094D01*
X129453390Y-102513094D02*
X129405771Y-102417856D01*
X129405771Y-102417856D02*
X129405771Y-102179761D01*
X129405771Y-102179761D02*
X129453390Y-102084523D01*
X129453390Y-102084523D02*
X129501009Y-102036904D01*
X129501009Y-102036904D02*
X129596247Y-101989285D01*
X129596247Y-101989285D02*
X129834342Y-101989285D01*
X129834342Y-101989285D02*
X129929580Y-102036904D01*
X129929580Y-102036904D02*
X129977200Y-102084523D01*
X129977200Y-102084523D02*
X130024819Y-102179761D01*
X130024819Y-102179761D02*
X130024819Y-102417856D01*
X130024819Y-102417856D02*
X129977200Y-102513094D01*
X129977200Y-102513094D02*
X129929580Y-102560713D01*
X144974642Y-80724819D02*
X144641309Y-80248628D01*
X144403214Y-80724819D02*
X144403214Y-79724819D01*
X144403214Y-79724819D02*
X144784166Y-79724819D01*
X144784166Y-79724819D02*
X144879404Y-79772438D01*
X144879404Y-79772438D02*
X144927023Y-79820057D01*
X144927023Y-79820057D02*
X144974642Y-79915295D01*
X144974642Y-79915295D02*
X144974642Y-80058152D01*
X144974642Y-80058152D02*
X144927023Y-80153390D01*
X144927023Y-80153390D02*
X144879404Y-80201009D01*
X144879404Y-80201009D02*
X144784166Y-80248628D01*
X144784166Y-80248628D02*
X144403214Y-80248628D01*
X145355595Y-79820057D02*
X145403214Y-79772438D01*
X145403214Y-79772438D02*
X145498452Y-79724819D01*
X145498452Y-79724819D02*
X145736547Y-79724819D01*
X145736547Y-79724819D02*
X145831785Y-79772438D01*
X145831785Y-79772438D02*
X145879404Y-79820057D01*
X145879404Y-79820057D02*
X145927023Y-79915295D01*
X145927023Y-79915295D02*
X145927023Y-80010533D01*
X145927023Y-80010533D02*
X145879404Y-80153390D01*
X145879404Y-80153390D02*
X145307976Y-80724819D01*
X145307976Y-80724819D02*
X145927023Y-80724819D01*
X146260357Y-79724819D02*
X146879404Y-79724819D01*
X146879404Y-79724819D02*
X146546071Y-80105771D01*
X146546071Y-80105771D02*
X146688928Y-80105771D01*
X146688928Y-80105771D02*
X146784166Y-80153390D01*
X146784166Y-80153390D02*
X146831785Y-80201009D01*
X146831785Y-80201009D02*
X146879404Y-80296247D01*
X146879404Y-80296247D02*
X146879404Y-80534342D01*
X146879404Y-80534342D02*
X146831785Y-80629580D01*
X146831785Y-80629580D02*
X146784166Y-80677200D01*
X146784166Y-80677200D02*
X146688928Y-80724819D01*
X146688928Y-80724819D02*
X146403214Y-80724819D01*
X146403214Y-80724819D02*
X146307976Y-80677200D01*
X146307976Y-80677200D02*
X146260357Y-80629580D01*
X121182142Y-98384819D02*
X120848809Y-97908628D01*
X120610714Y-98384819D02*
X120610714Y-97384819D01*
X120610714Y-97384819D02*
X120991666Y-97384819D01*
X120991666Y-97384819D02*
X121086904Y-97432438D01*
X121086904Y-97432438D02*
X121134523Y-97480057D01*
X121134523Y-97480057D02*
X121182142Y-97575295D01*
X121182142Y-97575295D02*
X121182142Y-97718152D01*
X121182142Y-97718152D02*
X121134523Y-97813390D01*
X121134523Y-97813390D02*
X121086904Y-97861009D01*
X121086904Y-97861009D02*
X120991666Y-97908628D01*
X120991666Y-97908628D02*
X120610714Y-97908628D01*
X122134523Y-98384819D02*
X121563095Y-98384819D01*
X121848809Y-98384819D02*
X121848809Y-97384819D01*
X121848809Y-97384819D02*
X121753571Y-97527676D01*
X121753571Y-97527676D02*
X121658333Y-97622914D01*
X121658333Y-97622914D02*
X121563095Y-97670533D01*
X122467857Y-97384819D02*
X123086904Y-97384819D01*
X123086904Y-97384819D02*
X122753571Y-97765771D01*
X122753571Y-97765771D02*
X122896428Y-97765771D01*
X122896428Y-97765771D02*
X122991666Y-97813390D01*
X122991666Y-97813390D02*
X123039285Y-97861009D01*
X123039285Y-97861009D02*
X123086904Y-97956247D01*
X123086904Y-97956247D02*
X123086904Y-98194342D01*
X123086904Y-98194342D02*
X123039285Y-98289580D01*
X123039285Y-98289580D02*
X122991666Y-98337200D01*
X122991666Y-98337200D02*
X122896428Y-98384819D01*
X122896428Y-98384819D02*
X122610714Y-98384819D01*
X122610714Y-98384819D02*
X122515476Y-98337200D01*
X122515476Y-98337200D02*
X122467857Y-98289580D01*
X132404761Y-75050057D02*
X132309523Y-75002438D01*
X132309523Y-75002438D02*
X132214285Y-74907200D01*
X132214285Y-74907200D02*
X132071428Y-74764342D01*
X132071428Y-74764342D02*
X131976190Y-74716723D01*
X131976190Y-74716723D02*
X131880952Y-74716723D01*
X131928571Y-74954819D02*
X131833333Y-74907200D01*
X131833333Y-74907200D02*
X131738095Y-74811961D01*
X131738095Y-74811961D02*
X131690476Y-74621485D01*
X131690476Y-74621485D02*
X131690476Y-74288152D01*
X131690476Y-74288152D02*
X131738095Y-74097676D01*
X131738095Y-74097676D02*
X131833333Y-74002438D01*
X131833333Y-74002438D02*
X131928571Y-73954819D01*
X131928571Y-73954819D02*
X132119047Y-73954819D01*
X132119047Y-73954819D02*
X132214285Y-74002438D01*
X132214285Y-74002438D02*
X132309523Y-74097676D01*
X132309523Y-74097676D02*
X132357142Y-74288152D01*
X132357142Y-74288152D02*
X132357142Y-74621485D01*
X132357142Y-74621485D02*
X132309523Y-74811961D01*
X132309523Y-74811961D02*
X132214285Y-74907200D01*
X132214285Y-74907200D02*
X132119047Y-74954819D01*
X132119047Y-74954819D02*
X131928571Y-74954819D01*
X132690476Y-73954819D02*
X133309523Y-73954819D01*
X133309523Y-73954819D02*
X132976190Y-74335771D01*
X132976190Y-74335771D02*
X133119047Y-74335771D01*
X133119047Y-74335771D02*
X133214285Y-74383390D01*
X133214285Y-74383390D02*
X133261904Y-74431009D01*
X133261904Y-74431009D02*
X133309523Y-74526247D01*
X133309523Y-74526247D02*
X133309523Y-74764342D01*
X133309523Y-74764342D02*
X133261904Y-74859580D01*
X133261904Y-74859580D02*
X133214285Y-74907200D01*
X133214285Y-74907200D02*
X133119047Y-74954819D01*
X133119047Y-74954819D02*
X132833333Y-74954819D01*
X132833333Y-74954819D02*
X132738095Y-74907200D01*
X132738095Y-74907200D02*
X132690476Y-74859580D01*
X151357142Y-80454819D02*
X151023809Y-79978628D01*
X150785714Y-80454819D02*
X150785714Y-79454819D01*
X150785714Y-79454819D02*
X151166666Y-79454819D01*
X151166666Y-79454819D02*
X151261904Y-79502438D01*
X151261904Y-79502438D02*
X151309523Y-79550057D01*
X151309523Y-79550057D02*
X151357142Y-79645295D01*
X151357142Y-79645295D02*
X151357142Y-79788152D01*
X151357142Y-79788152D02*
X151309523Y-79883390D01*
X151309523Y-79883390D02*
X151261904Y-79931009D01*
X151261904Y-79931009D02*
X151166666Y-79978628D01*
X151166666Y-79978628D02*
X150785714Y-79978628D01*
X151690476Y-79454819D02*
X152309523Y-79454819D01*
X152309523Y-79454819D02*
X151976190Y-79835771D01*
X151976190Y-79835771D02*
X152119047Y-79835771D01*
X152119047Y-79835771D02*
X152214285Y-79883390D01*
X152214285Y-79883390D02*
X152261904Y-79931009D01*
X152261904Y-79931009D02*
X152309523Y-80026247D01*
X152309523Y-80026247D02*
X152309523Y-80264342D01*
X152309523Y-80264342D02*
X152261904Y-80359580D01*
X152261904Y-80359580D02*
X152214285Y-80407200D01*
X152214285Y-80407200D02*
X152119047Y-80454819D01*
X152119047Y-80454819D02*
X151833333Y-80454819D01*
X151833333Y-80454819D02*
X151738095Y-80407200D01*
X151738095Y-80407200D02*
X151690476Y-80359580D01*
X152690476Y-79550057D02*
X152738095Y-79502438D01*
X152738095Y-79502438D02*
X152833333Y-79454819D01*
X152833333Y-79454819D02*
X153071428Y-79454819D01*
X153071428Y-79454819D02*
X153166666Y-79502438D01*
X153166666Y-79502438D02*
X153214285Y-79550057D01*
X153214285Y-79550057D02*
X153261904Y-79645295D01*
X153261904Y-79645295D02*
X153261904Y-79740533D01*
X153261904Y-79740533D02*
X153214285Y-79883390D01*
X153214285Y-79883390D02*
X152642857Y-80454819D01*
X152642857Y-80454819D02*
X153261904Y-80454819D01*
X147974642Y-80724819D02*
X147641309Y-80248628D01*
X147403214Y-80724819D02*
X147403214Y-79724819D01*
X147403214Y-79724819D02*
X147784166Y-79724819D01*
X147784166Y-79724819D02*
X147879404Y-79772438D01*
X147879404Y-79772438D02*
X147927023Y-79820057D01*
X147927023Y-79820057D02*
X147974642Y-79915295D01*
X147974642Y-79915295D02*
X147974642Y-80058152D01*
X147974642Y-80058152D02*
X147927023Y-80153390D01*
X147927023Y-80153390D02*
X147879404Y-80201009D01*
X147879404Y-80201009D02*
X147784166Y-80248628D01*
X147784166Y-80248628D02*
X147403214Y-80248628D01*
X148355595Y-79820057D02*
X148403214Y-79772438D01*
X148403214Y-79772438D02*
X148498452Y-79724819D01*
X148498452Y-79724819D02*
X148736547Y-79724819D01*
X148736547Y-79724819D02*
X148831785Y-79772438D01*
X148831785Y-79772438D02*
X148879404Y-79820057D01*
X148879404Y-79820057D02*
X148927023Y-79915295D01*
X148927023Y-79915295D02*
X148927023Y-80010533D01*
X148927023Y-80010533D02*
X148879404Y-80153390D01*
X148879404Y-80153390D02*
X148307976Y-80724819D01*
X148307976Y-80724819D02*
X148927023Y-80724819D01*
X149403214Y-80724819D02*
X149593690Y-80724819D01*
X149593690Y-80724819D02*
X149688928Y-80677200D01*
X149688928Y-80677200D02*
X149736547Y-80629580D01*
X149736547Y-80629580D02*
X149831785Y-80486723D01*
X149831785Y-80486723D02*
X149879404Y-80296247D01*
X149879404Y-80296247D02*
X149879404Y-79915295D01*
X149879404Y-79915295D02*
X149831785Y-79820057D01*
X149831785Y-79820057D02*
X149784166Y-79772438D01*
X149784166Y-79772438D02*
X149688928Y-79724819D01*
X149688928Y-79724819D02*
X149498452Y-79724819D01*
X149498452Y-79724819D02*
X149403214Y-79772438D01*
X149403214Y-79772438D02*
X149355595Y-79820057D01*
X149355595Y-79820057D02*
X149307976Y-79915295D01*
X149307976Y-79915295D02*
X149307976Y-80153390D01*
X149307976Y-80153390D02*
X149355595Y-80248628D01*
X149355595Y-80248628D02*
X149403214Y-80296247D01*
X149403214Y-80296247D02*
X149498452Y-80343866D01*
X149498452Y-80343866D02*
X149688928Y-80343866D01*
X149688928Y-80343866D02*
X149784166Y-80296247D01*
X149784166Y-80296247D02*
X149831785Y-80248628D01*
X149831785Y-80248628D02*
X149879404Y-80153390D01*
X150404761Y-69050057D02*
X150309523Y-69002438D01*
X150309523Y-69002438D02*
X150214285Y-68907200D01*
X150214285Y-68907200D02*
X150071428Y-68764342D01*
X150071428Y-68764342D02*
X149976190Y-68716723D01*
X149976190Y-68716723D02*
X149880952Y-68716723D01*
X149928571Y-68954819D02*
X149833333Y-68907200D01*
X149833333Y-68907200D02*
X149738095Y-68811961D01*
X149738095Y-68811961D02*
X149690476Y-68621485D01*
X149690476Y-68621485D02*
X149690476Y-68288152D01*
X149690476Y-68288152D02*
X149738095Y-68097676D01*
X149738095Y-68097676D02*
X149833333Y-68002438D01*
X149833333Y-68002438D02*
X149928571Y-67954819D01*
X149928571Y-67954819D02*
X150119047Y-67954819D01*
X150119047Y-67954819D02*
X150214285Y-68002438D01*
X150214285Y-68002438D02*
X150309523Y-68097676D01*
X150309523Y-68097676D02*
X150357142Y-68288152D01*
X150357142Y-68288152D02*
X150357142Y-68621485D01*
X150357142Y-68621485D02*
X150309523Y-68811961D01*
X150309523Y-68811961D02*
X150214285Y-68907200D01*
X150214285Y-68907200D02*
X150119047Y-68954819D01*
X150119047Y-68954819D02*
X149928571Y-68954819D01*
X150738095Y-68050057D02*
X150785714Y-68002438D01*
X150785714Y-68002438D02*
X150880952Y-67954819D01*
X150880952Y-67954819D02*
X151119047Y-67954819D01*
X151119047Y-67954819D02*
X151214285Y-68002438D01*
X151214285Y-68002438D02*
X151261904Y-68050057D01*
X151261904Y-68050057D02*
X151309523Y-68145295D01*
X151309523Y-68145295D02*
X151309523Y-68240533D01*
X151309523Y-68240533D02*
X151261904Y-68383390D01*
X151261904Y-68383390D02*
X150690476Y-68954819D01*
X150690476Y-68954819D02*
X151309523Y-68954819D01*
X154357142Y-80454819D02*
X154023809Y-79978628D01*
X153785714Y-80454819D02*
X153785714Y-79454819D01*
X153785714Y-79454819D02*
X154166666Y-79454819D01*
X154166666Y-79454819D02*
X154261904Y-79502438D01*
X154261904Y-79502438D02*
X154309523Y-79550057D01*
X154309523Y-79550057D02*
X154357142Y-79645295D01*
X154357142Y-79645295D02*
X154357142Y-79788152D01*
X154357142Y-79788152D02*
X154309523Y-79883390D01*
X154309523Y-79883390D02*
X154261904Y-79931009D01*
X154261904Y-79931009D02*
X154166666Y-79978628D01*
X154166666Y-79978628D02*
X153785714Y-79978628D01*
X154738095Y-79550057D02*
X154785714Y-79502438D01*
X154785714Y-79502438D02*
X154880952Y-79454819D01*
X154880952Y-79454819D02*
X155119047Y-79454819D01*
X155119047Y-79454819D02*
X155214285Y-79502438D01*
X155214285Y-79502438D02*
X155261904Y-79550057D01*
X155261904Y-79550057D02*
X155309523Y-79645295D01*
X155309523Y-79645295D02*
X155309523Y-79740533D01*
X155309523Y-79740533D02*
X155261904Y-79883390D01*
X155261904Y-79883390D02*
X154690476Y-80454819D01*
X154690476Y-80454819D02*
X155309523Y-80454819D01*
X156166666Y-79788152D02*
X156166666Y-80454819D01*
X155928571Y-79407200D02*
X155690476Y-80121485D01*
X155690476Y-80121485D02*
X156309523Y-80121485D01*
X157357142Y-80454819D02*
X157023809Y-79978628D01*
X156785714Y-80454819D02*
X156785714Y-79454819D01*
X156785714Y-79454819D02*
X157166666Y-79454819D01*
X157166666Y-79454819D02*
X157261904Y-79502438D01*
X157261904Y-79502438D02*
X157309523Y-79550057D01*
X157309523Y-79550057D02*
X157357142Y-79645295D01*
X157357142Y-79645295D02*
X157357142Y-79788152D01*
X157357142Y-79788152D02*
X157309523Y-79883390D01*
X157309523Y-79883390D02*
X157261904Y-79931009D01*
X157261904Y-79931009D02*
X157166666Y-79978628D01*
X157166666Y-79978628D02*
X156785714Y-79978628D01*
X157738095Y-79550057D02*
X157785714Y-79502438D01*
X157785714Y-79502438D02*
X157880952Y-79454819D01*
X157880952Y-79454819D02*
X158119047Y-79454819D01*
X158119047Y-79454819D02*
X158214285Y-79502438D01*
X158214285Y-79502438D02*
X158261904Y-79550057D01*
X158261904Y-79550057D02*
X158309523Y-79645295D01*
X158309523Y-79645295D02*
X158309523Y-79740533D01*
X158309523Y-79740533D02*
X158261904Y-79883390D01*
X158261904Y-79883390D02*
X157690476Y-80454819D01*
X157690476Y-80454819D02*
X158309523Y-80454819D01*
X158880952Y-79883390D02*
X158785714Y-79835771D01*
X158785714Y-79835771D02*
X158738095Y-79788152D01*
X158738095Y-79788152D02*
X158690476Y-79692914D01*
X158690476Y-79692914D02*
X158690476Y-79645295D01*
X158690476Y-79645295D02*
X158738095Y-79550057D01*
X158738095Y-79550057D02*
X158785714Y-79502438D01*
X158785714Y-79502438D02*
X158880952Y-79454819D01*
X158880952Y-79454819D02*
X159071428Y-79454819D01*
X159071428Y-79454819D02*
X159166666Y-79502438D01*
X159166666Y-79502438D02*
X159214285Y-79550057D01*
X159214285Y-79550057D02*
X159261904Y-79645295D01*
X159261904Y-79645295D02*
X159261904Y-79692914D01*
X159261904Y-79692914D02*
X159214285Y-79788152D01*
X159214285Y-79788152D02*
X159166666Y-79835771D01*
X159166666Y-79835771D02*
X159071428Y-79883390D01*
X159071428Y-79883390D02*
X158880952Y-79883390D01*
X158880952Y-79883390D02*
X158785714Y-79931009D01*
X158785714Y-79931009D02*
X158738095Y-79978628D01*
X158738095Y-79978628D02*
X158690476Y-80073866D01*
X158690476Y-80073866D02*
X158690476Y-80264342D01*
X158690476Y-80264342D02*
X158738095Y-80359580D01*
X158738095Y-80359580D02*
X158785714Y-80407200D01*
X158785714Y-80407200D02*
X158880952Y-80454819D01*
X158880952Y-80454819D02*
X159071428Y-80454819D01*
X159071428Y-80454819D02*
X159166666Y-80407200D01*
X159166666Y-80407200D02*
X159214285Y-80359580D01*
X159214285Y-80359580D02*
X159261904Y-80264342D01*
X159261904Y-80264342D02*
X159261904Y-80073866D01*
X159261904Y-80073866D02*
X159214285Y-79978628D01*
X159214285Y-79978628D02*
X159166666Y-79931009D01*
X159166666Y-79931009D02*
X159071428Y-79883390D01*
X133857142Y-81954819D02*
X133523809Y-81478628D01*
X133285714Y-81954819D02*
X133285714Y-80954819D01*
X133285714Y-80954819D02*
X133666666Y-80954819D01*
X133666666Y-80954819D02*
X133761904Y-81002438D01*
X133761904Y-81002438D02*
X133809523Y-81050057D01*
X133809523Y-81050057D02*
X133857142Y-81145295D01*
X133857142Y-81145295D02*
X133857142Y-81288152D01*
X133857142Y-81288152D02*
X133809523Y-81383390D01*
X133809523Y-81383390D02*
X133761904Y-81431009D01*
X133761904Y-81431009D02*
X133666666Y-81478628D01*
X133666666Y-81478628D02*
X133285714Y-81478628D01*
X134190476Y-80954819D02*
X134809523Y-80954819D01*
X134809523Y-80954819D02*
X134476190Y-81335771D01*
X134476190Y-81335771D02*
X134619047Y-81335771D01*
X134619047Y-81335771D02*
X134714285Y-81383390D01*
X134714285Y-81383390D02*
X134761904Y-81431009D01*
X134761904Y-81431009D02*
X134809523Y-81526247D01*
X134809523Y-81526247D02*
X134809523Y-81764342D01*
X134809523Y-81764342D02*
X134761904Y-81859580D01*
X134761904Y-81859580D02*
X134714285Y-81907200D01*
X134714285Y-81907200D02*
X134619047Y-81954819D01*
X134619047Y-81954819D02*
X134333333Y-81954819D01*
X134333333Y-81954819D02*
X134238095Y-81907200D01*
X134238095Y-81907200D02*
X134190476Y-81859580D01*
X135428571Y-80954819D02*
X135523809Y-80954819D01*
X135523809Y-80954819D02*
X135619047Y-81002438D01*
X135619047Y-81002438D02*
X135666666Y-81050057D01*
X135666666Y-81050057D02*
X135714285Y-81145295D01*
X135714285Y-81145295D02*
X135761904Y-81335771D01*
X135761904Y-81335771D02*
X135761904Y-81573866D01*
X135761904Y-81573866D02*
X135714285Y-81764342D01*
X135714285Y-81764342D02*
X135666666Y-81859580D01*
X135666666Y-81859580D02*
X135619047Y-81907200D01*
X135619047Y-81907200D02*
X135523809Y-81954819D01*
X135523809Y-81954819D02*
X135428571Y-81954819D01*
X135428571Y-81954819D02*
X135333333Y-81907200D01*
X135333333Y-81907200D02*
X135285714Y-81859580D01*
X135285714Y-81859580D02*
X135238095Y-81764342D01*
X135238095Y-81764342D02*
X135190476Y-81573866D01*
X135190476Y-81573866D02*
X135190476Y-81335771D01*
X135190476Y-81335771D02*
X135238095Y-81145295D01*
X135238095Y-81145295D02*
X135285714Y-81050057D01*
X135285714Y-81050057D02*
X135333333Y-81002438D01*
X135333333Y-81002438D02*
X135428571Y-80954819D01*
X127750892Y-84432119D02*
X127417559Y-83955928D01*
X127179464Y-84432119D02*
X127179464Y-83432119D01*
X127179464Y-83432119D02*
X127560416Y-83432119D01*
X127560416Y-83432119D02*
X127655654Y-83479738D01*
X127655654Y-83479738D02*
X127703273Y-83527357D01*
X127703273Y-83527357D02*
X127750892Y-83622595D01*
X127750892Y-83622595D02*
X127750892Y-83765452D01*
X127750892Y-83765452D02*
X127703273Y-83860690D01*
X127703273Y-83860690D02*
X127655654Y-83908309D01*
X127655654Y-83908309D02*
X127560416Y-83955928D01*
X127560416Y-83955928D02*
X127179464Y-83955928D01*
X128703273Y-84432119D02*
X128131845Y-84432119D01*
X128417559Y-84432119D02*
X128417559Y-83432119D01*
X128417559Y-83432119D02*
X128322321Y-83574976D01*
X128322321Y-83574976D02*
X128227083Y-83670214D01*
X128227083Y-83670214D02*
X128131845Y-83717833D01*
X129608035Y-83432119D02*
X129131845Y-83432119D01*
X129131845Y-83432119D02*
X129084226Y-83908309D01*
X129084226Y-83908309D02*
X129131845Y-83860690D01*
X129131845Y-83860690D02*
X129227083Y-83813071D01*
X129227083Y-83813071D02*
X129465178Y-83813071D01*
X129465178Y-83813071D02*
X129560416Y-83860690D01*
X129560416Y-83860690D02*
X129608035Y-83908309D01*
X129608035Y-83908309D02*
X129655654Y-84003547D01*
X129655654Y-84003547D02*
X129655654Y-84241642D01*
X129655654Y-84241642D02*
X129608035Y-84336880D01*
X129608035Y-84336880D02*
X129560416Y-84384500D01*
X129560416Y-84384500D02*
X129465178Y-84432119D01*
X129465178Y-84432119D02*
X129227083Y-84432119D01*
X129227083Y-84432119D02*
X129131845Y-84384500D01*
X129131845Y-84384500D02*
X129084226Y-84336880D01*
X149833333Y-102859580D02*
X149785714Y-102907200D01*
X149785714Y-102907200D02*
X149642857Y-102954819D01*
X149642857Y-102954819D02*
X149547619Y-102954819D01*
X149547619Y-102954819D02*
X149404762Y-102907200D01*
X149404762Y-102907200D02*
X149309524Y-102811961D01*
X149309524Y-102811961D02*
X149261905Y-102716723D01*
X149261905Y-102716723D02*
X149214286Y-102526247D01*
X149214286Y-102526247D02*
X149214286Y-102383390D01*
X149214286Y-102383390D02*
X149261905Y-102192914D01*
X149261905Y-102192914D02*
X149309524Y-102097676D01*
X149309524Y-102097676D02*
X149404762Y-102002438D01*
X149404762Y-102002438D02*
X149547619Y-101954819D01*
X149547619Y-101954819D02*
X149642857Y-101954819D01*
X149642857Y-101954819D02*
X149785714Y-102002438D01*
X149785714Y-102002438D02*
X149833333Y-102050057D01*
X150166667Y-101954819D02*
X150833333Y-101954819D01*
X150833333Y-101954819D02*
X150404762Y-102954819D01*
X153454819Y-103642857D02*
X152978628Y-103976190D01*
X153454819Y-104214285D02*
X152454819Y-104214285D01*
X152454819Y-104214285D02*
X152454819Y-103833333D01*
X152454819Y-103833333D02*
X152502438Y-103738095D01*
X152502438Y-103738095D02*
X152550057Y-103690476D01*
X152550057Y-103690476D02*
X152645295Y-103642857D01*
X152645295Y-103642857D02*
X152788152Y-103642857D01*
X152788152Y-103642857D02*
X152883390Y-103690476D01*
X152883390Y-103690476D02*
X152931009Y-103738095D01*
X152931009Y-103738095D02*
X152978628Y-103833333D01*
X152978628Y-103833333D02*
X152978628Y-104214285D01*
X152550057Y-103261904D02*
X152502438Y-103214285D01*
X152502438Y-103214285D02*
X152454819Y-103119047D01*
X152454819Y-103119047D02*
X152454819Y-102880952D01*
X152454819Y-102880952D02*
X152502438Y-102785714D01*
X152502438Y-102785714D02*
X152550057Y-102738095D01*
X152550057Y-102738095D02*
X152645295Y-102690476D01*
X152645295Y-102690476D02*
X152740533Y-102690476D01*
X152740533Y-102690476D02*
X152883390Y-102738095D01*
X152883390Y-102738095D02*
X153454819Y-103309523D01*
X153454819Y-103309523D02*
X153454819Y-102690476D01*
X152454819Y-102071428D02*
X152454819Y-101976190D01*
X152454819Y-101976190D02*
X152502438Y-101880952D01*
X152502438Y-101880952D02*
X152550057Y-101833333D01*
X152550057Y-101833333D02*
X152645295Y-101785714D01*
X152645295Y-101785714D02*
X152835771Y-101738095D01*
X152835771Y-101738095D02*
X153073866Y-101738095D01*
X153073866Y-101738095D02*
X153264342Y-101785714D01*
X153264342Y-101785714D02*
X153359580Y-101833333D01*
X153359580Y-101833333D02*
X153407200Y-101880952D01*
X153407200Y-101880952D02*
X153454819Y-101976190D01*
X153454819Y-101976190D02*
X153454819Y-102071428D01*
X153454819Y-102071428D02*
X153407200Y-102166666D01*
X153407200Y-102166666D02*
X153359580Y-102214285D01*
X153359580Y-102214285D02*
X153264342Y-102261904D01*
X153264342Y-102261904D02*
X153073866Y-102309523D01*
X153073866Y-102309523D02*
X152835771Y-102309523D01*
X152835771Y-102309523D02*
X152645295Y-102261904D01*
X152645295Y-102261904D02*
X152550057Y-102214285D01*
X152550057Y-102214285D02*
X152502438Y-102166666D01*
X152502438Y-102166666D02*
X152454819Y-102071428D01*
X121082142Y-96929580D02*
X121034523Y-96977200D01*
X121034523Y-96977200D02*
X120891666Y-97024819D01*
X120891666Y-97024819D02*
X120796428Y-97024819D01*
X120796428Y-97024819D02*
X120653571Y-96977200D01*
X120653571Y-96977200D02*
X120558333Y-96881961D01*
X120558333Y-96881961D02*
X120510714Y-96786723D01*
X120510714Y-96786723D02*
X120463095Y-96596247D01*
X120463095Y-96596247D02*
X120463095Y-96453390D01*
X120463095Y-96453390D02*
X120510714Y-96262914D01*
X120510714Y-96262914D02*
X120558333Y-96167676D01*
X120558333Y-96167676D02*
X120653571Y-96072438D01*
X120653571Y-96072438D02*
X120796428Y-96024819D01*
X120796428Y-96024819D02*
X120891666Y-96024819D01*
X120891666Y-96024819D02*
X121034523Y-96072438D01*
X121034523Y-96072438D02*
X121082142Y-96120057D01*
X122034523Y-97024819D02*
X121463095Y-97024819D01*
X121748809Y-97024819D02*
X121748809Y-96024819D01*
X121748809Y-96024819D02*
X121653571Y-96167676D01*
X121653571Y-96167676D02*
X121558333Y-96262914D01*
X121558333Y-96262914D02*
X121463095Y-96310533D01*
X122510714Y-97024819D02*
X122701190Y-97024819D01*
X122701190Y-97024819D02*
X122796428Y-96977200D01*
X122796428Y-96977200D02*
X122844047Y-96929580D01*
X122844047Y-96929580D02*
X122939285Y-96786723D01*
X122939285Y-96786723D02*
X122986904Y-96596247D01*
X122986904Y-96596247D02*
X122986904Y-96215295D01*
X122986904Y-96215295D02*
X122939285Y-96120057D01*
X122939285Y-96120057D02*
X122891666Y-96072438D01*
X122891666Y-96072438D02*
X122796428Y-96024819D01*
X122796428Y-96024819D02*
X122605952Y-96024819D01*
X122605952Y-96024819D02*
X122510714Y-96072438D01*
X122510714Y-96072438D02*
X122463095Y-96120057D01*
X122463095Y-96120057D02*
X122415476Y-96215295D01*
X122415476Y-96215295D02*
X122415476Y-96453390D01*
X122415476Y-96453390D02*
X122463095Y-96548628D01*
X122463095Y-96548628D02*
X122510714Y-96596247D01*
X122510714Y-96596247D02*
X122605952Y-96643866D01*
X122605952Y-96643866D02*
X122796428Y-96643866D01*
X122796428Y-96643866D02*
X122891666Y-96596247D01*
X122891666Y-96596247D02*
X122939285Y-96548628D01*
X122939285Y-96548628D02*
X122986904Y-96453390D01*
X144954819Y-84142857D02*
X144478628Y-84476190D01*
X144954819Y-84714285D02*
X143954819Y-84714285D01*
X143954819Y-84714285D02*
X143954819Y-84333333D01*
X143954819Y-84333333D02*
X144002438Y-84238095D01*
X144002438Y-84238095D02*
X144050057Y-84190476D01*
X144050057Y-84190476D02*
X144145295Y-84142857D01*
X144145295Y-84142857D02*
X144288152Y-84142857D01*
X144288152Y-84142857D02*
X144383390Y-84190476D01*
X144383390Y-84190476D02*
X144431009Y-84238095D01*
X144431009Y-84238095D02*
X144478628Y-84333333D01*
X144478628Y-84333333D02*
X144478628Y-84714285D01*
X144050057Y-83761904D02*
X144002438Y-83714285D01*
X144002438Y-83714285D02*
X143954819Y-83619047D01*
X143954819Y-83619047D02*
X143954819Y-83380952D01*
X143954819Y-83380952D02*
X144002438Y-83285714D01*
X144002438Y-83285714D02*
X144050057Y-83238095D01*
X144050057Y-83238095D02*
X144145295Y-83190476D01*
X144145295Y-83190476D02*
X144240533Y-83190476D01*
X144240533Y-83190476D02*
X144383390Y-83238095D01*
X144383390Y-83238095D02*
X144954819Y-83809523D01*
X144954819Y-83809523D02*
X144954819Y-83190476D01*
X143954819Y-82857142D02*
X143954819Y-82190476D01*
X143954819Y-82190476D02*
X144954819Y-82619047D01*
X121902083Y-84432119D02*
X121568750Y-83955928D01*
X121330655Y-84432119D02*
X121330655Y-83432119D01*
X121330655Y-83432119D02*
X121711607Y-83432119D01*
X121711607Y-83432119D02*
X121806845Y-83479738D01*
X121806845Y-83479738D02*
X121854464Y-83527357D01*
X121854464Y-83527357D02*
X121902083Y-83622595D01*
X121902083Y-83622595D02*
X121902083Y-83765452D01*
X121902083Y-83765452D02*
X121854464Y-83860690D01*
X121854464Y-83860690D02*
X121806845Y-83908309D01*
X121806845Y-83908309D02*
X121711607Y-83955928D01*
X121711607Y-83955928D02*
X121330655Y-83955928D01*
X122378274Y-84432119D02*
X122568750Y-84432119D01*
X122568750Y-84432119D02*
X122663988Y-84384500D01*
X122663988Y-84384500D02*
X122711607Y-84336880D01*
X122711607Y-84336880D02*
X122806845Y-84194023D01*
X122806845Y-84194023D02*
X122854464Y-84003547D01*
X122854464Y-84003547D02*
X122854464Y-83622595D01*
X122854464Y-83622595D02*
X122806845Y-83527357D01*
X122806845Y-83527357D02*
X122759226Y-83479738D01*
X122759226Y-83479738D02*
X122663988Y-83432119D01*
X122663988Y-83432119D02*
X122473512Y-83432119D01*
X122473512Y-83432119D02*
X122378274Y-83479738D01*
X122378274Y-83479738D02*
X122330655Y-83527357D01*
X122330655Y-83527357D02*
X122283036Y-83622595D01*
X122283036Y-83622595D02*
X122283036Y-83860690D01*
X122283036Y-83860690D02*
X122330655Y-83955928D01*
X122330655Y-83955928D02*
X122378274Y-84003547D01*
X122378274Y-84003547D02*
X122473512Y-84051166D01*
X122473512Y-84051166D02*
X122663988Y-84051166D01*
X122663988Y-84051166D02*
X122759226Y-84003547D01*
X122759226Y-84003547D02*
X122806845Y-83955928D01*
X122806845Y-83955928D02*
X122854464Y-83860690D01*
X122357142Y-104454819D02*
X122023809Y-103978628D01*
X121785714Y-104454819D02*
X121785714Y-103454819D01*
X121785714Y-103454819D02*
X122166666Y-103454819D01*
X122166666Y-103454819D02*
X122261904Y-103502438D01*
X122261904Y-103502438D02*
X122309523Y-103550057D01*
X122309523Y-103550057D02*
X122357142Y-103645295D01*
X122357142Y-103645295D02*
X122357142Y-103788152D01*
X122357142Y-103788152D02*
X122309523Y-103883390D01*
X122309523Y-103883390D02*
X122261904Y-103931009D01*
X122261904Y-103931009D02*
X122166666Y-103978628D01*
X122166666Y-103978628D02*
X121785714Y-103978628D01*
X123214285Y-103788152D02*
X123214285Y-104454819D01*
X122976190Y-103407200D02*
X122738095Y-104121485D01*
X122738095Y-104121485D02*
X123357142Y-104121485D01*
X124166666Y-103788152D02*
X124166666Y-104454819D01*
X123928571Y-103407200D02*
X123690476Y-104121485D01*
X123690476Y-104121485D02*
X124309523Y-104121485D01*
X118357142Y-101454819D02*
X118023809Y-100978628D01*
X117785714Y-101454819D02*
X117785714Y-100454819D01*
X117785714Y-100454819D02*
X118166666Y-100454819D01*
X118166666Y-100454819D02*
X118261904Y-100502438D01*
X118261904Y-100502438D02*
X118309523Y-100550057D01*
X118309523Y-100550057D02*
X118357142Y-100645295D01*
X118357142Y-100645295D02*
X118357142Y-100788152D01*
X118357142Y-100788152D02*
X118309523Y-100883390D01*
X118309523Y-100883390D02*
X118261904Y-100931009D01*
X118261904Y-100931009D02*
X118166666Y-100978628D01*
X118166666Y-100978628D02*
X117785714Y-100978628D01*
X118690476Y-100454819D02*
X119309523Y-100454819D01*
X119309523Y-100454819D02*
X118976190Y-100835771D01*
X118976190Y-100835771D02*
X119119047Y-100835771D01*
X119119047Y-100835771D02*
X119214285Y-100883390D01*
X119214285Y-100883390D02*
X119261904Y-100931009D01*
X119261904Y-100931009D02*
X119309523Y-101026247D01*
X119309523Y-101026247D02*
X119309523Y-101264342D01*
X119309523Y-101264342D02*
X119261904Y-101359580D01*
X119261904Y-101359580D02*
X119214285Y-101407200D01*
X119214285Y-101407200D02*
X119119047Y-101454819D01*
X119119047Y-101454819D02*
X118833333Y-101454819D01*
X118833333Y-101454819D02*
X118738095Y-101407200D01*
X118738095Y-101407200D02*
X118690476Y-101359580D01*
X119880952Y-100883390D02*
X119785714Y-100835771D01*
X119785714Y-100835771D02*
X119738095Y-100788152D01*
X119738095Y-100788152D02*
X119690476Y-100692914D01*
X119690476Y-100692914D02*
X119690476Y-100645295D01*
X119690476Y-100645295D02*
X119738095Y-100550057D01*
X119738095Y-100550057D02*
X119785714Y-100502438D01*
X119785714Y-100502438D02*
X119880952Y-100454819D01*
X119880952Y-100454819D02*
X120071428Y-100454819D01*
X120071428Y-100454819D02*
X120166666Y-100502438D01*
X120166666Y-100502438D02*
X120214285Y-100550057D01*
X120214285Y-100550057D02*
X120261904Y-100645295D01*
X120261904Y-100645295D02*
X120261904Y-100692914D01*
X120261904Y-100692914D02*
X120214285Y-100788152D01*
X120214285Y-100788152D02*
X120166666Y-100835771D01*
X120166666Y-100835771D02*
X120071428Y-100883390D01*
X120071428Y-100883390D02*
X119880952Y-100883390D01*
X119880952Y-100883390D02*
X119785714Y-100931009D01*
X119785714Y-100931009D02*
X119738095Y-100978628D01*
X119738095Y-100978628D02*
X119690476Y-101073866D01*
X119690476Y-101073866D02*
X119690476Y-101264342D01*
X119690476Y-101264342D02*
X119738095Y-101359580D01*
X119738095Y-101359580D02*
X119785714Y-101407200D01*
X119785714Y-101407200D02*
X119880952Y-101454819D01*
X119880952Y-101454819D02*
X120071428Y-101454819D01*
X120071428Y-101454819D02*
X120166666Y-101407200D01*
X120166666Y-101407200D02*
X120214285Y-101359580D01*
X120214285Y-101359580D02*
X120261904Y-101264342D01*
X120261904Y-101264342D02*
X120261904Y-101073866D01*
X120261904Y-101073866D02*
X120214285Y-100978628D01*
X120214285Y-100978628D02*
X120166666Y-100931009D01*
X120166666Y-100931009D02*
X120071428Y-100883390D01*
X149357142Y-112954819D02*
X149023809Y-112478628D01*
X148785714Y-112954819D02*
X148785714Y-111954819D01*
X148785714Y-111954819D02*
X149166666Y-111954819D01*
X149166666Y-111954819D02*
X149261904Y-112002438D01*
X149261904Y-112002438D02*
X149309523Y-112050057D01*
X149309523Y-112050057D02*
X149357142Y-112145295D01*
X149357142Y-112145295D02*
X149357142Y-112288152D01*
X149357142Y-112288152D02*
X149309523Y-112383390D01*
X149309523Y-112383390D02*
X149261904Y-112431009D01*
X149261904Y-112431009D02*
X149166666Y-112478628D01*
X149166666Y-112478628D02*
X148785714Y-112478628D01*
X150309523Y-112954819D02*
X149738095Y-112954819D01*
X150023809Y-112954819D02*
X150023809Y-111954819D01*
X150023809Y-111954819D02*
X149928571Y-112097676D01*
X149928571Y-112097676D02*
X149833333Y-112192914D01*
X149833333Y-112192914D02*
X149738095Y-112240533D01*
X150880952Y-112383390D02*
X150785714Y-112335771D01*
X150785714Y-112335771D02*
X150738095Y-112288152D01*
X150738095Y-112288152D02*
X150690476Y-112192914D01*
X150690476Y-112192914D02*
X150690476Y-112145295D01*
X150690476Y-112145295D02*
X150738095Y-112050057D01*
X150738095Y-112050057D02*
X150785714Y-112002438D01*
X150785714Y-112002438D02*
X150880952Y-111954819D01*
X150880952Y-111954819D02*
X151071428Y-111954819D01*
X151071428Y-111954819D02*
X151166666Y-112002438D01*
X151166666Y-112002438D02*
X151214285Y-112050057D01*
X151214285Y-112050057D02*
X151261904Y-112145295D01*
X151261904Y-112145295D02*
X151261904Y-112192914D01*
X151261904Y-112192914D02*
X151214285Y-112288152D01*
X151214285Y-112288152D02*
X151166666Y-112335771D01*
X151166666Y-112335771D02*
X151071428Y-112383390D01*
X151071428Y-112383390D02*
X150880952Y-112383390D01*
X150880952Y-112383390D02*
X150785714Y-112431009D01*
X150785714Y-112431009D02*
X150738095Y-112478628D01*
X150738095Y-112478628D02*
X150690476Y-112573866D01*
X150690476Y-112573866D02*
X150690476Y-112764342D01*
X150690476Y-112764342D02*
X150738095Y-112859580D01*
X150738095Y-112859580D02*
X150785714Y-112907200D01*
X150785714Y-112907200D02*
X150880952Y-112954819D01*
X150880952Y-112954819D02*
X151071428Y-112954819D01*
X151071428Y-112954819D02*
X151166666Y-112907200D01*
X151166666Y-112907200D02*
X151214285Y-112859580D01*
X151214285Y-112859580D02*
X151261904Y-112764342D01*
X151261904Y-112764342D02*
X151261904Y-112573866D01*
X151261904Y-112573866D02*
X151214285Y-112478628D01*
X151214285Y-112478628D02*
X151166666Y-112431009D01*
X151166666Y-112431009D02*
X151071428Y-112383390D01*
X161357142Y-85454819D02*
X161023809Y-84978628D01*
X160785714Y-85454819D02*
X160785714Y-84454819D01*
X160785714Y-84454819D02*
X161166666Y-84454819D01*
X161166666Y-84454819D02*
X161261904Y-84502438D01*
X161261904Y-84502438D02*
X161309523Y-84550057D01*
X161309523Y-84550057D02*
X161357142Y-84645295D01*
X161357142Y-84645295D02*
X161357142Y-84788152D01*
X161357142Y-84788152D02*
X161309523Y-84883390D01*
X161309523Y-84883390D02*
X161261904Y-84931009D01*
X161261904Y-84931009D02*
X161166666Y-84978628D01*
X161166666Y-84978628D02*
X160785714Y-84978628D01*
X161738095Y-84550057D02*
X161785714Y-84502438D01*
X161785714Y-84502438D02*
X161880952Y-84454819D01*
X161880952Y-84454819D02*
X162119047Y-84454819D01*
X162119047Y-84454819D02*
X162214285Y-84502438D01*
X162214285Y-84502438D02*
X162261904Y-84550057D01*
X162261904Y-84550057D02*
X162309523Y-84645295D01*
X162309523Y-84645295D02*
X162309523Y-84740533D01*
X162309523Y-84740533D02*
X162261904Y-84883390D01*
X162261904Y-84883390D02*
X161690476Y-85454819D01*
X161690476Y-85454819D02*
X162309523Y-85454819D01*
X163214285Y-84454819D02*
X162738095Y-84454819D01*
X162738095Y-84454819D02*
X162690476Y-84931009D01*
X162690476Y-84931009D02*
X162738095Y-84883390D01*
X162738095Y-84883390D02*
X162833333Y-84835771D01*
X162833333Y-84835771D02*
X163071428Y-84835771D01*
X163071428Y-84835771D02*
X163166666Y-84883390D01*
X163166666Y-84883390D02*
X163214285Y-84931009D01*
X163214285Y-84931009D02*
X163261904Y-85026247D01*
X163261904Y-85026247D02*
X163261904Y-85264342D01*
X163261904Y-85264342D02*
X163214285Y-85359580D01*
X163214285Y-85359580D02*
X163166666Y-85407200D01*
X163166666Y-85407200D02*
X163071428Y-85454819D01*
X163071428Y-85454819D02*
X162833333Y-85454819D01*
X162833333Y-85454819D02*
X162738095Y-85407200D01*
X162738095Y-85407200D02*
X162690476Y-85359580D01*
X154082142Y-96789580D02*
X154034523Y-96837200D01*
X154034523Y-96837200D02*
X153891666Y-96884819D01*
X153891666Y-96884819D02*
X153796428Y-96884819D01*
X153796428Y-96884819D02*
X153653571Y-96837200D01*
X153653571Y-96837200D02*
X153558333Y-96741961D01*
X153558333Y-96741961D02*
X153510714Y-96646723D01*
X153510714Y-96646723D02*
X153463095Y-96456247D01*
X153463095Y-96456247D02*
X153463095Y-96313390D01*
X153463095Y-96313390D02*
X153510714Y-96122914D01*
X153510714Y-96122914D02*
X153558333Y-96027676D01*
X153558333Y-96027676D02*
X153653571Y-95932438D01*
X153653571Y-95932438D02*
X153796428Y-95884819D01*
X153796428Y-95884819D02*
X153891666Y-95884819D01*
X153891666Y-95884819D02*
X154034523Y-95932438D01*
X154034523Y-95932438D02*
X154082142Y-95980057D01*
X155034523Y-96884819D02*
X154463095Y-96884819D01*
X154748809Y-96884819D02*
X154748809Y-95884819D01*
X154748809Y-95884819D02*
X154653571Y-96027676D01*
X154653571Y-96027676D02*
X154558333Y-96122914D01*
X154558333Y-96122914D02*
X154463095Y-96170533D01*
X155891666Y-96218152D02*
X155891666Y-96884819D01*
X155653571Y-95837200D02*
X155415476Y-96551485D01*
X155415476Y-96551485D02*
X156034523Y-96551485D01*
X152082142Y-84859580D02*
X152034523Y-84907200D01*
X152034523Y-84907200D02*
X151891666Y-84954819D01*
X151891666Y-84954819D02*
X151796428Y-84954819D01*
X151796428Y-84954819D02*
X151653571Y-84907200D01*
X151653571Y-84907200D02*
X151558333Y-84811961D01*
X151558333Y-84811961D02*
X151510714Y-84716723D01*
X151510714Y-84716723D02*
X151463095Y-84526247D01*
X151463095Y-84526247D02*
X151463095Y-84383390D01*
X151463095Y-84383390D02*
X151510714Y-84192914D01*
X151510714Y-84192914D02*
X151558333Y-84097676D01*
X151558333Y-84097676D02*
X151653571Y-84002438D01*
X151653571Y-84002438D02*
X151796428Y-83954819D01*
X151796428Y-83954819D02*
X151891666Y-83954819D01*
X151891666Y-83954819D02*
X152034523Y-84002438D01*
X152034523Y-84002438D02*
X152082142Y-84050057D01*
X153034523Y-84954819D02*
X152463095Y-84954819D01*
X152748809Y-84954819D02*
X152748809Y-83954819D01*
X152748809Y-83954819D02*
X152653571Y-84097676D01*
X152653571Y-84097676D02*
X152558333Y-84192914D01*
X152558333Y-84192914D02*
X152463095Y-84240533D01*
X153367857Y-83954819D02*
X154034523Y-83954819D01*
X154034523Y-83954819D02*
X153605952Y-84954819D01*
X122357142Y-111954819D02*
X122023809Y-111478628D01*
X121785714Y-111954819D02*
X121785714Y-110954819D01*
X121785714Y-110954819D02*
X122166666Y-110954819D01*
X122166666Y-110954819D02*
X122261904Y-111002438D01*
X122261904Y-111002438D02*
X122309523Y-111050057D01*
X122309523Y-111050057D02*
X122357142Y-111145295D01*
X122357142Y-111145295D02*
X122357142Y-111288152D01*
X122357142Y-111288152D02*
X122309523Y-111383390D01*
X122309523Y-111383390D02*
X122261904Y-111431009D01*
X122261904Y-111431009D02*
X122166666Y-111478628D01*
X122166666Y-111478628D02*
X121785714Y-111478628D01*
X123214285Y-111288152D02*
X123214285Y-111954819D01*
X122976190Y-110907200D02*
X122738095Y-111621485D01*
X122738095Y-111621485D02*
X123357142Y-111621485D01*
X123642857Y-110954819D02*
X124309523Y-110954819D01*
X124309523Y-110954819D02*
X123880952Y-111954819D01*
X164454819Y-111055357D02*
X163978628Y-111388690D01*
X164454819Y-111626785D02*
X163454819Y-111626785D01*
X163454819Y-111626785D02*
X163454819Y-111245833D01*
X163454819Y-111245833D02*
X163502438Y-111150595D01*
X163502438Y-111150595D02*
X163550057Y-111102976D01*
X163550057Y-111102976D02*
X163645295Y-111055357D01*
X163645295Y-111055357D02*
X163788152Y-111055357D01*
X163788152Y-111055357D02*
X163883390Y-111102976D01*
X163883390Y-111102976D02*
X163931009Y-111150595D01*
X163931009Y-111150595D02*
X163978628Y-111245833D01*
X163978628Y-111245833D02*
X163978628Y-111626785D01*
X163788152Y-110198214D02*
X164454819Y-110198214D01*
X163407200Y-110436309D02*
X164121485Y-110674404D01*
X164121485Y-110674404D02*
X164121485Y-110055357D01*
X163454819Y-109483928D02*
X163454819Y-109388690D01*
X163454819Y-109388690D02*
X163502438Y-109293452D01*
X163502438Y-109293452D02*
X163550057Y-109245833D01*
X163550057Y-109245833D02*
X163645295Y-109198214D01*
X163645295Y-109198214D02*
X163835771Y-109150595D01*
X163835771Y-109150595D02*
X164073866Y-109150595D01*
X164073866Y-109150595D02*
X164264342Y-109198214D01*
X164264342Y-109198214D02*
X164359580Y-109245833D01*
X164359580Y-109245833D02*
X164407200Y-109293452D01*
X164407200Y-109293452D02*
X164454819Y-109388690D01*
X164454819Y-109388690D02*
X164454819Y-109483928D01*
X164454819Y-109483928D02*
X164407200Y-109579166D01*
X164407200Y-109579166D02*
X164359580Y-109626785D01*
X164359580Y-109626785D02*
X164264342Y-109674404D01*
X164264342Y-109674404D02*
X164073866Y-109722023D01*
X164073866Y-109722023D02*
X163835771Y-109722023D01*
X163835771Y-109722023D02*
X163645295Y-109674404D01*
X163645295Y-109674404D02*
X163550057Y-109626785D01*
X163550057Y-109626785D02*
X163502438Y-109579166D01*
X163502438Y-109579166D02*
X163454819Y-109483928D01*
X123357142Y-108454819D02*
X123023809Y-107978628D01*
X122785714Y-108454819D02*
X122785714Y-107454819D01*
X122785714Y-107454819D02*
X123166666Y-107454819D01*
X123166666Y-107454819D02*
X123261904Y-107502438D01*
X123261904Y-107502438D02*
X123309523Y-107550057D01*
X123309523Y-107550057D02*
X123357142Y-107645295D01*
X123357142Y-107645295D02*
X123357142Y-107788152D01*
X123357142Y-107788152D02*
X123309523Y-107883390D01*
X123309523Y-107883390D02*
X123261904Y-107931009D01*
X123261904Y-107931009D02*
X123166666Y-107978628D01*
X123166666Y-107978628D02*
X122785714Y-107978628D01*
X124214285Y-107788152D02*
X124214285Y-108454819D01*
X123976190Y-107407200D02*
X123738095Y-108121485D01*
X123738095Y-108121485D02*
X124357142Y-108121485D01*
X125214285Y-107454819D02*
X124738095Y-107454819D01*
X124738095Y-107454819D02*
X124690476Y-107931009D01*
X124690476Y-107931009D02*
X124738095Y-107883390D01*
X124738095Y-107883390D02*
X124833333Y-107835771D01*
X124833333Y-107835771D02*
X125071428Y-107835771D01*
X125071428Y-107835771D02*
X125166666Y-107883390D01*
X125166666Y-107883390D02*
X125214285Y-107931009D01*
X125214285Y-107931009D02*
X125261904Y-108026247D01*
X125261904Y-108026247D02*
X125261904Y-108264342D01*
X125261904Y-108264342D02*
X125214285Y-108359580D01*
X125214285Y-108359580D02*
X125166666Y-108407200D01*
X125166666Y-108407200D02*
X125071428Y-108454819D01*
X125071428Y-108454819D02*
X124833333Y-108454819D01*
X124833333Y-108454819D02*
X124738095Y-108407200D01*
X124738095Y-108407200D02*
X124690476Y-108359580D01*
X159500000Y-107946009D02*
X159833333Y-107946009D01*
X159976190Y-108469819D02*
X159500000Y-108469819D01*
X159500000Y-108469819D02*
X159500000Y-107469819D01*
X159500000Y-107469819D02*
X159976190Y-107469819D01*
X160928571Y-107517438D02*
X160833333Y-107469819D01*
X160833333Y-107469819D02*
X160690476Y-107469819D01*
X160690476Y-107469819D02*
X160547619Y-107517438D01*
X160547619Y-107517438D02*
X160452381Y-107612676D01*
X160452381Y-107612676D02*
X160404762Y-107707914D01*
X160404762Y-107707914D02*
X160357143Y-107898390D01*
X160357143Y-107898390D02*
X160357143Y-108041247D01*
X160357143Y-108041247D02*
X160404762Y-108231723D01*
X160404762Y-108231723D02*
X160452381Y-108326961D01*
X160452381Y-108326961D02*
X160547619Y-108422200D01*
X160547619Y-108422200D02*
X160690476Y-108469819D01*
X160690476Y-108469819D02*
X160785714Y-108469819D01*
X160785714Y-108469819D02*
X160928571Y-108422200D01*
X160928571Y-108422200D02*
X160976190Y-108374580D01*
X160976190Y-108374580D02*
X160976190Y-108041247D01*
X160976190Y-108041247D02*
X160785714Y-108041247D01*
X161928571Y-108469819D02*
X161357143Y-108469819D01*
X161642857Y-108469819D02*
X161642857Y-107469819D01*
X161642857Y-107469819D02*
X161547619Y-107612676D01*
X161547619Y-107612676D02*
X161452381Y-107707914D01*
X161452381Y-107707914D02*
X161357143Y-107755533D01*
X162880952Y-108469819D02*
X162309524Y-108469819D01*
X162595238Y-108469819D02*
X162595238Y-107469819D01*
X162595238Y-107469819D02*
X162500000Y-107612676D01*
X162500000Y-107612676D02*
X162404762Y-107707914D01*
X162404762Y-107707914D02*
X162309524Y-107755533D01*
X163357143Y-108469819D02*
X163547619Y-108469819D01*
X163547619Y-108469819D02*
X163642857Y-108422200D01*
X163642857Y-108422200D02*
X163690476Y-108374580D01*
X163690476Y-108374580D02*
X163785714Y-108231723D01*
X163785714Y-108231723D02*
X163833333Y-108041247D01*
X163833333Y-108041247D02*
X163833333Y-107660295D01*
X163833333Y-107660295D02*
X163785714Y-107565057D01*
X163785714Y-107565057D02*
X163738095Y-107517438D01*
X163738095Y-107517438D02*
X163642857Y-107469819D01*
X163642857Y-107469819D02*
X163452381Y-107469819D01*
X163452381Y-107469819D02*
X163357143Y-107517438D01*
X163357143Y-107517438D02*
X163309524Y-107565057D01*
X163309524Y-107565057D02*
X163261905Y-107660295D01*
X163261905Y-107660295D02*
X163261905Y-107898390D01*
X163261905Y-107898390D02*
X163309524Y-107993628D01*
X163309524Y-107993628D02*
X163357143Y-108041247D01*
X163357143Y-108041247D02*
X163452381Y-108088866D01*
X163452381Y-108088866D02*
X163642857Y-108088866D01*
X163642857Y-108088866D02*
X163738095Y-108041247D01*
X163738095Y-108041247D02*
X163785714Y-107993628D01*
X163785714Y-107993628D02*
X163833333Y-107898390D01*
X164214286Y-107565057D02*
X164261905Y-107517438D01*
X164261905Y-107517438D02*
X164357143Y-107469819D01*
X164357143Y-107469819D02*
X164595238Y-107469819D01*
X164595238Y-107469819D02*
X164690476Y-107517438D01*
X164690476Y-107517438D02*
X164738095Y-107565057D01*
X164738095Y-107565057D02*
X164785714Y-107660295D01*
X164785714Y-107660295D02*
X164785714Y-107755533D01*
X164785714Y-107755533D02*
X164738095Y-107898390D01*
X164738095Y-107898390D02*
X164166667Y-108469819D01*
X164166667Y-108469819D02*
X164785714Y-108469819D01*
X165690476Y-108469819D02*
X165214286Y-108469819D01*
X165214286Y-108469819D02*
X165214286Y-107469819D01*
X166547619Y-108469819D02*
X165976191Y-108469819D01*
X166261905Y-108469819D02*
X166261905Y-107469819D01*
X166261905Y-107469819D02*
X166166667Y-107612676D01*
X166166667Y-107612676D02*
X166071429Y-107707914D01*
X166071429Y-107707914D02*
X165976191Y-107755533D01*
X140032142Y-83384819D02*
X139698809Y-82908628D01*
X139460714Y-83384819D02*
X139460714Y-82384819D01*
X139460714Y-82384819D02*
X139841666Y-82384819D01*
X139841666Y-82384819D02*
X139936904Y-82432438D01*
X139936904Y-82432438D02*
X139984523Y-82480057D01*
X139984523Y-82480057D02*
X140032142Y-82575295D01*
X140032142Y-82575295D02*
X140032142Y-82718152D01*
X140032142Y-82718152D02*
X139984523Y-82813390D01*
X139984523Y-82813390D02*
X139936904Y-82861009D01*
X139936904Y-82861009D02*
X139841666Y-82908628D01*
X139841666Y-82908628D02*
X139460714Y-82908628D01*
X140365476Y-82384819D02*
X140984523Y-82384819D01*
X140984523Y-82384819D02*
X140651190Y-82765771D01*
X140651190Y-82765771D02*
X140794047Y-82765771D01*
X140794047Y-82765771D02*
X140889285Y-82813390D01*
X140889285Y-82813390D02*
X140936904Y-82861009D01*
X140936904Y-82861009D02*
X140984523Y-82956247D01*
X140984523Y-82956247D02*
X140984523Y-83194342D01*
X140984523Y-83194342D02*
X140936904Y-83289580D01*
X140936904Y-83289580D02*
X140889285Y-83337200D01*
X140889285Y-83337200D02*
X140794047Y-83384819D01*
X140794047Y-83384819D02*
X140508333Y-83384819D01*
X140508333Y-83384819D02*
X140413095Y-83337200D01*
X140413095Y-83337200D02*
X140365476Y-83289580D01*
X141317857Y-82384819D02*
X141936904Y-82384819D01*
X141936904Y-82384819D02*
X141603571Y-82765771D01*
X141603571Y-82765771D02*
X141746428Y-82765771D01*
X141746428Y-82765771D02*
X141841666Y-82813390D01*
X141841666Y-82813390D02*
X141889285Y-82861009D01*
X141889285Y-82861009D02*
X141936904Y-82956247D01*
X141936904Y-82956247D02*
X141936904Y-83194342D01*
X141936904Y-83194342D02*
X141889285Y-83289580D01*
X141889285Y-83289580D02*
X141841666Y-83337200D01*
X141841666Y-83337200D02*
X141746428Y-83384819D01*
X141746428Y-83384819D02*
X141460714Y-83384819D01*
X141460714Y-83384819D02*
X141365476Y-83337200D01*
X141365476Y-83337200D02*
X141317857Y-83289580D01*
X163857142Y-82154819D02*
X163523809Y-81678628D01*
X163285714Y-82154819D02*
X163285714Y-81154819D01*
X163285714Y-81154819D02*
X163666666Y-81154819D01*
X163666666Y-81154819D02*
X163761904Y-81202438D01*
X163761904Y-81202438D02*
X163809523Y-81250057D01*
X163809523Y-81250057D02*
X163857142Y-81345295D01*
X163857142Y-81345295D02*
X163857142Y-81488152D01*
X163857142Y-81488152D02*
X163809523Y-81583390D01*
X163809523Y-81583390D02*
X163761904Y-81631009D01*
X163761904Y-81631009D02*
X163666666Y-81678628D01*
X163666666Y-81678628D02*
X163285714Y-81678628D01*
X164190476Y-81154819D02*
X164809523Y-81154819D01*
X164809523Y-81154819D02*
X164476190Y-81535771D01*
X164476190Y-81535771D02*
X164619047Y-81535771D01*
X164619047Y-81535771D02*
X164714285Y-81583390D01*
X164714285Y-81583390D02*
X164761904Y-81631009D01*
X164761904Y-81631009D02*
X164809523Y-81726247D01*
X164809523Y-81726247D02*
X164809523Y-81964342D01*
X164809523Y-81964342D02*
X164761904Y-82059580D01*
X164761904Y-82059580D02*
X164714285Y-82107200D01*
X164714285Y-82107200D02*
X164619047Y-82154819D01*
X164619047Y-82154819D02*
X164333333Y-82154819D01*
X164333333Y-82154819D02*
X164238095Y-82107200D01*
X164238095Y-82107200D02*
X164190476Y-82059580D01*
X165761904Y-82154819D02*
X165190476Y-82154819D01*
X165476190Y-82154819D02*
X165476190Y-81154819D01*
X165476190Y-81154819D02*
X165380952Y-81297676D01*
X165380952Y-81297676D02*
X165285714Y-81392914D01*
X165285714Y-81392914D02*
X165190476Y-81440533D01*
X128857142Y-95454819D02*
X128523809Y-94978628D01*
X128285714Y-95454819D02*
X128285714Y-94454819D01*
X128285714Y-94454819D02*
X128666666Y-94454819D01*
X128666666Y-94454819D02*
X128761904Y-94502438D01*
X128761904Y-94502438D02*
X128809523Y-94550057D01*
X128809523Y-94550057D02*
X128857142Y-94645295D01*
X128857142Y-94645295D02*
X128857142Y-94788152D01*
X128857142Y-94788152D02*
X128809523Y-94883390D01*
X128809523Y-94883390D02*
X128761904Y-94931009D01*
X128761904Y-94931009D02*
X128666666Y-94978628D01*
X128666666Y-94978628D02*
X128285714Y-94978628D01*
X129809523Y-95454819D02*
X129238095Y-95454819D01*
X129523809Y-95454819D02*
X129523809Y-94454819D01*
X129523809Y-94454819D02*
X129428571Y-94597676D01*
X129428571Y-94597676D02*
X129333333Y-94692914D01*
X129333333Y-94692914D02*
X129238095Y-94740533D01*
X130761904Y-95454819D02*
X130190476Y-95454819D01*
X130476190Y-95454819D02*
X130476190Y-94454819D01*
X130476190Y-94454819D02*
X130380952Y-94597676D01*
X130380952Y-94597676D02*
X130285714Y-94692914D01*
X130285714Y-94692914D02*
X130190476Y-94740533D01*
X141754819Y-105116666D02*
X141754819Y-105592856D01*
X141754819Y-105592856D02*
X140754819Y-105592856D01*
X141754819Y-104259523D02*
X141754819Y-104830951D01*
X141754819Y-104545237D02*
X140754819Y-104545237D01*
X140754819Y-104545237D02*
X140897676Y-104640475D01*
X140897676Y-104640475D02*
X140992914Y-104735713D01*
X140992914Y-104735713D02*
X141040533Y-104830951D01*
X159357142Y-112454819D02*
X159023809Y-111978628D01*
X158785714Y-112454819D02*
X158785714Y-111454819D01*
X158785714Y-111454819D02*
X159166666Y-111454819D01*
X159166666Y-111454819D02*
X159261904Y-111502438D01*
X159261904Y-111502438D02*
X159309523Y-111550057D01*
X159309523Y-111550057D02*
X159357142Y-111645295D01*
X159357142Y-111645295D02*
X159357142Y-111788152D01*
X159357142Y-111788152D02*
X159309523Y-111883390D01*
X159309523Y-111883390D02*
X159261904Y-111931009D01*
X159261904Y-111931009D02*
X159166666Y-111978628D01*
X159166666Y-111978628D02*
X158785714Y-111978628D01*
X160309523Y-112454819D02*
X159738095Y-112454819D01*
X160023809Y-112454819D02*
X160023809Y-111454819D01*
X160023809Y-111454819D02*
X159928571Y-111597676D01*
X159928571Y-111597676D02*
X159833333Y-111692914D01*
X159833333Y-111692914D02*
X159738095Y-111740533D01*
X160642857Y-111454819D02*
X161309523Y-111454819D01*
X161309523Y-111454819D02*
X160880952Y-112454819D01*
X142032142Y-66524819D02*
X141698809Y-66048628D01*
X141460714Y-66524819D02*
X141460714Y-65524819D01*
X141460714Y-65524819D02*
X141841666Y-65524819D01*
X141841666Y-65524819D02*
X141936904Y-65572438D01*
X141936904Y-65572438D02*
X141984523Y-65620057D01*
X141984523Y-65620057D02*
X142032142Y-65715295D01*
X142032142Y-65715295D02*
X142032142Y-65858152D01*
X142032142Y-65858152D02*
X141984523Y-65953390D01*
X141984523Y-65953390D02*
X141936904Y-66001009D01*
X141936904Y-66001009D02*
X141841666Y-66048628D01*
X141841666Y-66048628D02*
X141460714Y-66048628D01*
X142889285Y-65858152D02*
X142889285Y-66524819D01*
X142651190Y-65477200D02*
X142413095Y-66191485D01*
X142413095Y-66191485D02*
X143032142Y-66191485D01*
X143365476Y-65620057D02*
X143413095Y-65572438D01*
X143413095Y-65572438D02*
X143508333Y-65524819D01*
X143508333Y-65524819D02*
X143746428Y-65524819D01*
X143746428Y-65524819D02*
X143841666Y-65572438D01*
X143841666Y-65572438D02*
X143889285Y-65620057D01*
X143889285Y-65620057D02*
X143936904Y-65715295D01*
X143936904Y-65715295D02*
X143936904Y-65810533D01*
X143936904Y-65810533D02*
X143889285Y-65953390D01*
X143889285Y-65953390D02*
X143317857Y-66524819D01*
X143317857Y-66524819D02*
X143936904Y-66524819D01*
X153289580Y-107941666D02*
X153337200Y-107989285D01*
X153337200Y-107989285D02*
X153384819Y-108132142D01*
X153384819Y-108132142D02*
X153384819Y-108227380D01*
X153384819Y-108227380D02*
X153337200Y-108370237D01*
X153337200Y-108370237D02*
X153241961Y-108465475D01*
X153241961Y-108465475D02*
X153146723Y-108513094D01*
X153146723Y-108513094D02*
X152956247Y-108560713D01*
X152956247Y-108560713D02*
X152813390Y-108560713D01*
X152813390Y-108560713D02*
X152622914Y-108513094D01*
X152622914Y-108513094D02*
X152527676Y-108465475D01*
X152527676Y-108465475D02*
X152432438Y-108370237D01*
X152432438Y-108370237D02*
X152384819Y-108227380D01*
X152384819Y-108227380D02*
X152384819Y-108132142D01*
X152384819Y-108132142D02*
X152432438Y-107989285D01*
X152432438Y-107989285D02*
X152480057Y-107941666D01*
X152384819Y-107084523D02*
X152384819Y-107274999D01*
X152384819Y-107274999D02*
X152432438Y-107370237D01*
X152432438Y-107370237D02*
X152480057Y-107417856D01*
X152480057Y-107417856D02*
X152622914Y-107513094D01*
X152622914Y-107513094D02*
X152813390Y-107560713D01*
X152813390Y-107560713D02*
X153194342Y-107560713D01*
X153194342Y-107560713D02*
X153289580Y-107513094D01*
X153289580Y-107513094D02*
X153337200Y-107465475D01*
X153337200Y-107465475D02*
X153384819Y-107370237D01*
X153384819Y-107370237D02*
X153384819Y-107179761D01*
X153384819Y-107179761D02*
X153337200Y-107084523D01*
X153337200Y-107084523D02*
X153289580Y-107036904D01*
X153289580Y-107036904D02*
X153194342Y-106989285D01*
X153194342Y-106989285D02*
X152956247Y-106989285D01*
X152956247Y-106989285D02*
X152861009Y-107036904D01*
X152861009Y-107036904D02*
X152813390Y-107084523D01*
X152813390Y-107084523D02*
X152765771Y-107179761D01*
X152765771Y-107179761D02*
X152765771Y-107370237D01*
X152765771Y-107370237D02*
X152813390Y-107465475D01*
X152813390Y-107465475D02*
X152861009Y-107513094D01*
X152861009Y-107513094D02*
X152956247Y-107560713D01*
X135039580Y-100121607D02*
X135087200Y-100169226D01*
X135087200Y-100169226D02*
X135134819Y-100312083D01*
X135134819Y-100312083D02*
X135134819Y-100407321D01*
X135134819Y-100407321D02*
X135087200Y-100550178D01*
X135087200Y-100550178D02*
X134991961Y-100645416D01*
X134991961Y-100645416D02*
X134896723Y-100693035D01*
X134896723Y-100693035D02*
X134706247Y-100740654D01*
X134706247Y-100740654D02*
X134563390Y-100740654D01*
X134563390Y-100740654D02*
X134372914Y-100693035D01*
X134372914Y-100693035D02*
X134277676Y-100645416D01*
X134277676Y-100645416D02*
X134182438Y-100550178D01*
X134182438Y-100550178D02*
X134134819Y-100407321D01*
X134134819Y-100407321D02*
X134134819Y-100312083D01*
X134134819Y-100312083D02*
X134182438Y-100169226D01*
X134182438Y-100169226D02*
X134230057Y-100121607D01*
X135134819Y-99169226D02*
X135134819Y-99740654D01*
X135134819Y-99454940D02*
X134134819Y-99454940D01*
X134134819Y-99454940D02*
X134277676Y-99550178D01*
X134277676Y-99550178D02*
X134372914Y-99645416D01*
X134372914Y-99645416D02*
X134420533Y-99740654D01*
X134230057Y-98788273D02*
X134182438Y-98740654D01*
X134182438Y-98740654D02*
X134134819Y-98645416D01*
X134134819Y-98645416D02*
X134134819Y-98407321D01*
X134134819Y-98407321D02*
X134182438Y-98312083D01*
X134182438Y-98312083D02*
X134230057Y-98264464D01*
X134230057Y-98264464D02*
X134325295Y-98216845D01*
X134325295Y-98216845D02*
X134420533Y-98216845D01*
X134420533Y-98216845D02*
X134563390Y-98264464D01*
X134563390Y-98264464D02*
X135134819Y-98835892D01*
X135134819Y-98835892D02*
X135134819Y-98216845D01*
X121566069Y-88825157D02*
X121089878Y-89158490D01*
X121566069Y-89396585D02*
X120566069Y-89396585D01*
X120566069Y-89396585D02*
X120566069Y-89015633D01*
X120566069Y-89015633D02*
X120613688Y-88920395D01*
X120613688Y-88920395D02*
X120661307Y-88872776D01*
X120661307Y-88872776D02*
X120756545Y-88825157D01*
X120756545Y-88825157D02*
X120899402Y-88825157D01*
X120899402Y-88825157D02*
X120994640Y-88872776D01*
X120994640Y-88872776D02*
X121042259Y-88920395D01*
X121042259Y-88920395D02*
X121089878Y-89015633D01*
X121089878Y-89015633D02*
X121089878Y-89396585D01*
X121566069Y-87872776D02*
X121566069Y-88444204D01*
X121566069Y-88158490D02*
X120566069Y-88158490D01*
X120566069Y-88158490D02*
X120708926Y-88253728D01*
X120708926Y-88253728D02*
X120804164Y-88348966D01*
X120804164Y-88348966D02*
X120851783Y-88444204D01*
X120566069Y-87015633D02*
X120566069Y-87206109D01*
X120566069Y-87206109D02*
X120613688Y-87301347D01*
X120613688Y-87301347D02*
X120661307Y-87348966D01*
X120661307Y-87348966D02*
X120804164Y-87444204D01*
X120804164Y-87444204D02*
X120994640Y-87491823D01*
X120994640Y-87491823D02*
X121375592Y-87491823D01*
X121375592Y-87491823D02*
X121470830Y-87444204D01*
X121470830Y-87444204D02*
X121518450Y-87396585D01*
X121518450Y-87396585D02*
X121566069Y-87301347D01*
X121566069Y-87301347D02*
X121566069Y-87110871D01*
X121566069Y-87110871D02*
X121518450Y-87015633D01*
X121518450Y-87015633D02*
X121470830Y-86968014D01*
X121470830Y-86968014D02*
X121375592Y-86920395D01*
X121375592Y-86920395D02*
X121137497Y-86920395D01*
X121137497Y-86920395D02*
X121042259Y-86968014D01*
X121042259Y-86968014D02*
X120994640Y-87015633D01*
X120994640Y-87015633D02*
X120947021Y-87110871D01*
X120947021Y-87110871D02*
X120947021Y-87301347D01*
X120947021Y-87301347D02*
X120994640Y-87396585D01*
X120994640Y-87396585D02*
X121042259Y-87444204D01*
X121042259Y-87444204D02*
X121137497Y-87491823D01*
X158357142Y-83904819D02*
X158023809Y-83428628D01*
X157785714Y-83904819D02*
X157785714Y-82904819D01*
X157785714Y-82904819D02*
X158166666Y-82904819D01*
X158166666Y-82904819D02*
X158261904Y-82952438D01*
X158261904Y-82952438D02*
X158309523Y-83000057D01*
X158309523Y-83000057D02*
X158357142Y-83095295D01*
X158357142Y-83095295D02*
X158357142Y-83238152D01*
X158357142Y-83238152D02*
X158309523Y-83333390D01*
X158309523Y-83333390D02*
X158261904Y-83381009D01*
X158261904Y-83381009D02*
X158166666Y-83428628D01*
X158166666Y-83428628D02*
X157785714Y-83428628D01*
X158738095Y-83000057D02*
X158785714Y-82952438D01*
X158785714Y-82952438D02*
X158880952Y-82904819D01*
X158880952Y-82904819D02*
X159119047Y-82904819D01*
X159119047Y-82904819D02*
X159214285Y-82952438D01*
X159214285Y-82952438D02*
X159261904Y-83000057D01*
X159261904Y-83000057D02*
X159309523Y-83095295D01*
X159309523Y-83095295D02*
X159309523Y-83190533D01*
X159309523Y-83190533D02*
X159261904Y-83333390D01*
X159261904Y-83333390D02*
X158690476Y-83904819D01*
X158690476Y-83904819D02*
X159309523Y-83904819D01*
X160166666Y-82904819D02*
X159976190Y-82904819D01*
X159976190Y-82904819D02*
X159880952Y-82952438D01*
X159880952Y-82952438D02*
X159833333Y-83000057D01*
X159833333Y-83000057D02*
X159738095Y-83142914D01*
X159738095Y-83142914D02*
X159690476Y-83333390D01*
X159690476Y-83333390D02*
X159690476Y-83714342D01*
X159690476Y-83714342D02*
X159738095Y-83809580D01*
X159738095Y-83809580D02*
X159785714Y-83857200D01*
X159785714Y-83857200D02*
X159880952Y-83904819D01*
X159880952Y-83904819D02*
X160071428Y-83904819D01*
X160071428Y-83904819D02*
X160166666Y-83857200D01*
X160166666Y-83857200D02*
X160214285Y-83809580D01*
X160214285Y-83809580D02*
X160261904Y-83714342D01*
X160261904Y-83714342D02*
X160261904Y-83476247D01*
X160261904Y-83476247D02*
X160214285Y-83381009D01*
X160214285Y-83381009D02*
X160166666Y-83333390D01*
X160166666Y-83333390D02*
X160071428Y-83285771D01*
X160071428Y-83285771D02*
X159880952Y-83285771D01*
X159880952Y-83285771D02*
X159785714Y-83333390D01*
X159785714Y-83333390D02*
X159738095Y-83381009D01*
X159738095Y-83381009D02*
X159690476Y-83476247D01*
X133857142Y-83454819D02*
X133523809Y-82978628D01*
X133285714Y-83454819D02*
X133285714Y-82454819D01*
X133285714Y-82454819D02*
X133666666Y-82454819D01*
X133666666Y-82454819D02*
X133761904Y-82502438D01*
X133761904Y-82502438D02*
X133809523Y-82550057D01*
X133809523Y-82550057D02*
X133857142Y-82645295D01*
X133857142Y-82645295D02*
X133857142Y-82788152D01*
X133857142Y-82788152D02*
X133809523Y-82883390D01*
X133809523Y-82883390D02*
X133761904Y-82931009D01*
X133761904Y-82931009D02*
X133666666Y-82978628D01*
X133666666Y-82978628D02*
X133285714Y-82978628D01*
X134238095Y-82550057D02*
X134285714Y-82502438D01*
X134285714Y-82502438D02*
X134380952Y-82454819D01*
X134380952Y-82454819D02*
X134619047Y-82454819D01*
X134619047Y-82454819D02*
X134714285Y-82502438D01*
X134714285Y-82502438D02*
X134761904Y-82550057D01*
X134761904Y-82550057D02*
X134809523Y-82645295D01*
X134809523Y-82645295D02*
X134809523Y-82740533D01*
X134809523Y-82740533D02*
X134761904Y-82883390D01*
X134761904Y-82883390D02*
X134190476Y-83454819D01*
X134190476Y-83454819D02*
X134809523Y-83454819D01*
X135190476Y-82550057D02*
X135238095Y-82502438D01*
X135238095Y-82502438D02*
X135333333Y-82454819D01*
X135333333Y-82454819D02*
X135571428Y-82454819D01*
X135571428Y-82454819D02*
X135666666Y-82502438D01*
X135666666Y-82502438D02*
X135714285Y-82550057D01*
X135714285Y-82550057D02*
X135761904Y-82645295D01*
X135761904Y-82645295D02*
X135761904Y-82740533D01*
X135761904Y-82740533D02*
X135714285Y-82883390D01*
X135714285Y-82883390D02*
X135142857Y-83454819D01*
X135142857Y-83454819D02*
X135761904Y-83454819D01*
X157859580Y-102666666D02*
X157907200Y-102714285D01*
X157907200Y-102714285D02*
X157954819Y-102857142D01*
X157954819Y-102857142D02*
X157954819Y-102952380D01*
X157954819Y-102952380D02*
X157907200Y-103095237D01*
X157907200Y-103095237D02*
X157811961Y-103190475D01*
X157811961Y-103190475D02*
X157716723Y-103238094D01*
X157716723Y-103238094D02*
X157526247Y-103285713D01*
X157526247Y-103285713D02*
X157383390Y-103285713D01*
X157383390Y-103285713D02*
X157192914Y-103238094D01*
X157192914Y-103238094D02*
X157097676Y-103190475D01*
X157097676Y-103190475D02*
X157002438Y-103095237D01*
X157002438Y-103095237D02*
X156954819Y-102952380D01*
X156954819Y-102952380D02*
X156954819Y-102857142D01*
X156954819Y-102857142D02*
X157002438Y-102714285D01*
X157002438Y-102714285D02*
X157050057Y-102666666D01*
X157954819Y-102190475D02*
X157954819Y-101999999D01*
X157954819Y-101999999D02*
X157907200Y-101904761D01*
X157907200Y-101904761D02*
X157859580Y-101857142D01*
X157859580Y-101857142D02*
X157716723Y-101761904D01*
X157716723Y-101761904D02*
X157526247Y-101714285D01*
X157526247Y-101714285D02*
X157145295Y-101714285D01*
X157145295Y-101714285D02*
X157050057Y-101761904D01*
X157050057Y-101761904D02*
X157002438Y-101809523D01*
X157002438Y-101809523D02*
X156954819Y-101904761D01*
X156954819Y-101904761D02*
X156954819Y-102095237D01*
X156954819Y-102095237D02*
X157002438Y-102190475D01*
X157002438Y-102190475D02*
X157050057Y-102238094D01*
X157050057Y-102238094D02*
X157145295Y-102285713D01*
X157145295Y-102285713D02*
X157383390Y-102285713D01*
X157383390Y-102285713D02*
X157478628Y-102238094D01*
X157478628Y-102238094D02*
X157526247Y-102190475D01*
X157526247Y-102190475D02*
X157573866Y-102095237D01*
X157573866Y-102095237D02*
X157573866Y-101904761D01*
X157573866Y-101904761D02*
X157526247Y-101809523D01*
X157526247Y-101809523D02*
X157478628Y-101761904D01*
X157478628Y-101761904D02*
X157383390Y-101714285D01*
X118357142Y-105954819D02*
X118023809Y-105478628D01*
X117785714Y-105954819D02*
X117785714Y-104954819D01*
X117785714Y-104954819D02*
X118166666Y-104954819D01*
X118166666Y-104954819D02*
X118261904Y-105002438D01*
X118261904Y-105002438D02*
X118309523Y-105050057D01*
X118309523Y-105050057D02*
X118357142Y-105145295D01*
X118357142Y-105145295D02*
X118357142Y-105288152D01*
X118357142Y-105288152D02*
X118309523Y-105383390D01*
X118309523Y-105383390D02*
X118261904Y-105431009D01*
X118261904Y-105431009D02*
X118166666Y-105478628D01*
X118166666Y-105478628D02*
X117785714Y-105478628D01*
X118690476Y-104954819D02*
X119309523Y-104954819D01*
X119309523Y-104954819D02*
X118976190Y-105335771D01*
X118976190Y-105335771D02*
X119119047Y-105335771D01*
X119119047Y-105335771D02*
X119214285Y-105383390D01*
X119214285Y-105383390D02*
X119261904Y-105431009D01*
X119261904Y-105431009D02*
X119309523Y-105526247D01*
X119309523Y-105526247D02*
X119309523Y-105764342D01*
X119309523Y-105764342D02*
X119261904Y-105859580D01*
X119261904Y-105859580D02*
X119214285Y-105907200D01*
X119214285Y-105907200D02*
X119119047Y-105954819D01*
X119119047Y-105954819D02*
X118833333Y-105954819D01*
X118833333Y-105954819D02*
X118738095Y-105907200D01*
X118738095Y-105907200D02*
X118690476Y-105859580D01*
X120166666Y-104954819D02*
X119976190Y-104954819D01*
X119976190Y-104954819D02*
X119880952Y-105002438D01*
X119880952Y-105002438D02*
X119833333Y-105050057D01*
X119833333Y-105050057D02*
X119738095Y-105192914D01*
X119738095Y-105192914D02*
X119690476Y-105383390D01*
X119690476Y-105383390D02*
X119690476Y-105764342D01*
X119690476Y-105764342D02*
X119738095Y-105859580D01*
X119738095Y-105859580D02*
X119785714Y-105907200D01*
X119785714Y-105907200D02*
X119880952Y-105954819D01*
X119880952Y-105954819D02*
X120071428Y-105954819D01*
X120071428Y-105954819D02*
X120166666Y-105907200D01*
X120166666Y-105907200D02*
X120214285Y-105859580D01*
X120214285Y-105859580D02*
X120261904Y-105764342D01*
X120261904Y-105764342D02*
X120261904Y-105526247D01*
X120261904Y-105526247D02*
X120214285Y-105431009D01*
X120214285Y-105431009D02*
X120166666Y-105383390D01*
X120166666Y-105383390D02*
X120071428Y-105335771D01*
X120071428Y-105335771D02*
X119880952Y-105335771D01*
X119880952Y-105335771D02*
X119785714Y-105383390D01*
X119785714Y-105383390D02*
X119738095Y-105431009D01*
X119738095Y-105431009D02*
X119690476Y-105526247D01*
X151789580Y-100367857D02*
X151837200Y-100415476D01*
X151837200Y-100415476D02*
X151884819Y-100558333D01*
X151884819Y-100558333D02*
X151884819Y-100653571D01*
X151884819Y-100653571D02*
X151837200Y-100796428D01*
X151837200Y-100796428D02*
X151741961Y-100891666D01*
X151741961Y-100891666D02*
X151646723Y-100939285D01*
X151646723Y-100939285D02*
X151456247Y-100986904D01*
X151456247Y-100986904D02*
X151313390Y-100986904D01*
X151313390Y-100986904D02*
X151122914Y-100939285D01*
X151122914Y-100939285D02*
X151027676Y-100891666D01*
X151027676Y-100891666D02*
X150932438Y-100796428D01*
X150932438Y-100796428D02*
X150884819Y-100653571D01*
X150884819Y-100653571D02*
X150884819Y-100558333D01*
X150884819Y-100558333D02*
X150932438Y-100415476D01*
X150932438Y-100415476D02*
X150980057Y-100367857D01*
X151884819Y-99415476D02*
X151884819Y-99986904D01*
X151884819Y-99701190D02*
X150884819Y-99701190D01*
X150884819Y-99701190D02*
X151027676Y-99796428D01*
X151027676Y-99796428D02*
X151122914Y-99891666D01*
X151122914Y-99891666D02*
X151170533Y-99986904D01*
X150884819Y-98796428D02*
X150884819Y-98701190D01*
X150884819Y-98701190D02*
X150932438Y-98605952D01*
X150932438Y-98605952D02*
X150980057Y-98558333D01*
X150980057Y-98558333D02*
X151075295Y-98510714D01*
X151075295Y-98510714D02*
X151265771Y-98463095D01*
X151265771Y-98463095D02*
X151503866Y-98463095D01*
X151503866Y-98463095D02*
X151694342Y-98510714D01*
X151694342Y-98510714D02*
X151789580Y-98558333D01*
X151789580Y-98558333D02*
X151837200Y-98605952D01*
X151837200Y-98605952D02*
X151884819Y-98701190D01*
X151884819Y-98701190D02*
X151884819Y-98796428D01*
X151884819Y-98796428D02*
X151837200Y-98891666D01*
X151837200Y-98891666D02*
X151789580Y-98939285D01*
X151789580Y-98939285D02*
X151694342Y-98986904D01*
X151694342Y-98986904D02*
X151503866Y-99034523D01*
X151503866Y-99034523D02*
X151265771Y-99034523D01*
X151265771Y-99034523D02*
X151075295Y-98986904D01*
X151075295Y-98986904D02*
X150980057Y-98939285D01*
X150980057Y-98939285D02*
X150932438Y-98891666D01*
X150932438Y-98891666D02*
X150884819Y-98796428D01*
X124182142Y-98024819D02*
X123848809Y-97548628D01*
X123610714Y-98024819D02*
X123610714Y-97024819D01*
X123610714Y-97024819D02*
X123991666Y-97024819D01*
X123991666Y-97024819D02*
X124086904Y-97072438D01*
X124086904Y-97072438D02*
X124134523Y-97120057D01*
X124134523Y-97120057D02*
X124182142Y-97215295D01*
X124182142Y-97215295D02*
X124182142Y-97358152D01*
X124182142Y-97358152D02*
X124134523Y-97453390D01*
X124134523Y-97453390D02*
X124086904Y-97501009D01*
X124086904Y-97501009D02*
X123991666Y-97548628D01*
X123991666Y-97548628D02*
X123610714Y-97548628D01*
X125134523Y-98024819D02*
X124563095Y-98024819D01*
X124848809Y-98024819D02*
X124848809Y-97024819D01*
X124848809Y-97024819D02*
X124753571Y-97167676D01*
X124753571Y-97167676D02*
X124658333Y-97262914D01*
X124658333Y-97262914D02*
X124563095Y-97310533D01*
X125991666Y-97358152D02*
X125991666Y-98024819D01*
X125753571Y-96977200D02*
X125515476Y-97691485D01*
X125515476Y-97691485D02*
X126134523Y-97691485D01*
X119954819Y-92175157D02*
X119478628Y-92508490D01*
X119954819Y-92746585D02*
X118954819Y-92746585D01*
X118954819Y-92746585D02*
X118954819Y-92365633D01*
X118954819Y-92365633D02*
X119002438Y-92270395D01*
X119002438Y-92270395D02*
X119050057Y-92222776D01*
X119050057Y-92222776D02*
X119145295Y-92175157D01*
X119145295Y-92175157D02*
X119288152Y-92175157D01*
X119288152Y-92175157D02*
X119383390Y-92222776D01*
X119383390Y-92222776D02*
X119431009Y-92270395D01*
X119431009Y-92270395D02*
X119478628Y-92365633D01*
X119478628Y-92365633D02*
X119478628Y-92746585D01*
X119954819Y-91222776D02*
X119954819Y-91794204D01*
X119954819Y-91508490D02*
X118954819Y-91508490D01*
X118954819Y-91508490D02*
X119097676Y-91603728D01*
X119097676Y-91603728D02*
X119192914Y-91698966D01*
X119192914Y-91698966D02*
X119240533Y-91794204D01*
X119050057Y-90841823D02*
X119002438Y-90794204D01*
X119002438Y-90794204D02*
X118954819Y-90698966D01*
X118954819Y-90698966D02*
X118954819Y-90460871D01*
X118954819Y-90460871D02*
X119002438Y-90365633D01*
X119002438Y-90365633D02*
X119050057Y-90318014D01*
X119050057Y-90318014D02*
X119145295Y-90270395D01*
X119145295Y-90270395D02*
X119240533Y-90270395D01*
X119240533Y-90270395D02*
X119383390Y-90318014D01*
X119383390Y-90318014D02*
X119954819Y-90889442D01*
X119954819Y-90889442D02*
X119954819Y-90270395D01*
X144261905Y-112954819D02*
X144261905Y-111954819D01*
X144261905Y-111954819D02*
X144500000Y-111954819D01*
X144500000Y-111954819D02*
X144642857Y-112002438D01*
X144642857Y-112002438D02*
X144738095Y-112097676D01*
X144738095Y-112097676D02*
X144785714Y-112192914D01*
X144785714Y-112192914D02*
X144833333Y-112383390D01*
X144833333Y-112383390D02*
X144833333Y-112526247D01*
X144833333Y-112526247D02*
X144785714Y-112716723D01*
X144785714Y-112716723D02*
X144738095Y-112811961D01*
X144738095Y-112811961D02*
X144642857Y-112907200D01*
X144642857Y-112907200D02*
X144500000Y-112954819D01*
X144500000Y-112954819D02*
X144261905Y-112954819D01*
X145785714Y-112954819D02*
X145214286Y-112954819D01*
X145500000Y-112954819D02*
X145500000Y-111954819D01*
X145500000Y-111954819D02*
X145404762Y-112097676D01*
X145404762Y-112097676D02*
X145309524Y-112192914D01*
X145309524Y-112192914D02*
X145214286Y-112240533D01*
X147829819Y-91124404D02*
X148639342Y-91124404D01*
X148639342Y-91124404D02*
X148734580Y-91076785D01*
X148734580Y-91076785D02*
X148782200Y-91029166D01*
X148782200Y-91029166D02*
X148829819Y-90933928D01*
X148829819Y-90933928D02*
X148829819Y-90743452D01*
X148829819Y-90743452D02*
X148782200Y-90648214D01*
X148782200Y-90648214D02*
X148734580Y-90600595D01*
X148734580Y-90600595D02*
X148639342Y-90552976D01*
X148639342Y-90552976D02*
X147829819Y-90552976D01*
X147829819Y-90172023D02*
X147829819Y-89552976D01*
X147829819Y-89552976D02*
X148210771Y-89886309D01*
X148210771Y-89886309D02*
X148210771Y-89743452D01*
X148210771Y-89743452D02*
X148258390Y-89648214D01*
X148258390Y-89648214D02*
X148306009Y-89600595D01*
X148306009Y-89600595D02*
X148401247Y-89552976D01*
X148401247Y-89552976D02*
X148639342Y-89552976D01*
X148639342Y-89552976D02*
X148734580Y-89600595D01*
X148734580Y-89600595D02*
X148782200Y-89648214D01*
X148782200Y-89648214D02*
X148829819Y-89743452D01*
X148829819Y-89743452D02*
X148829819Y-90029166D01*
X148829819Y-90029166D02*
X148782200Y-90124404D01*
X148782200Y-90124404D02*
X148734580Y-90172023D01*
X118357142Y-103954819D02*
X118023809Y-103478628D01*
X117785714Y-103954819D02*
X117785714Y-102954819D01*
X117785714Y-102954819D02*
X118166666Y-102954819D01*
X118166666Y-102954819D02*
X118261904Y-103002438D01*
X118261904Y-103002438D02*
X118309523Y-103050057D01*
X118309523Y-103050057D02*
X118357142Y-103145295D01*
X118357142Y-103145295D02*
X118357142Y-103288152D01*
X118357142Y-103288152D02*
X118309523Y-103383390D01*
X118309523Y-103383390D02*
X118261904Y-103431009D01*
X118261904Y-103431009D02*
X118166666Y-103478628D01*
X118166666Y-103478628D02*
X117785714Y-103478628D01*
X118690476Y-102954819D02*
X119309523Y-102954819D01*
X119309523Y-102954819D02*
X118976190Y-103335771D01*
X118976190Y-103335771D02*
X119119047Y-103335771D01*
X119119047Y-103335771D02*
X119214285Y-103383390D01*
X119214285Y-103383390D02*
X119261904Y-103431009D01*
X119261904Y-103431009D02*
X119309523Y-103526247D01*
X119309523Y-103526247D02*
X119309523Y-103764342D01*
X119309523Y-103764342D02*
X119261904Y-103859580D01*
X119261904Y-103859580D02*
X119214285Y-103907200D01*
X119214285Y-103907200D02*
X119119047Y-103954819D01*
X119119047Y-103954819D02*
X118833333Y-103954819D01*
X118833333Y-103954819D02*
X118738095Y-103907200D01*
X118738095Y-103907200D02*
X118690476Y-103859580D01*
X119642857Y-102954819D02*
X120309523Y-102954819D01*
X120309523Y-102954819D02*
X119880952Y-103954819D01*
X124608333Y-95429580D02*
X124560714Y-95477200D01*
X124560714Y-95477200D02*
X124417857Y-95524819D01*
X124417857Y-95524819D02*
X124322619Y-95524819D01*
X124322619Y-95524819D02*
X124179762Y-95477200D01*
X124179762Y-95477200D02*
X124084524Y-95381961D01*
X124084524Y-95381961D02*
X124036905Y-95286723D01*
X124036905Y-95286723D02*
X123989286Y-95096247D01*
X123989286Y-95096247D02*
X123989286Y-94953390D01*
X123989286Y-94953390D02*
X124036905Y-94762914D01*
X124036905Y-94762914D02*
X124084524Y-94667676D01*
X124084524Y-94667676D02*
X124179762Y-94572438D01*
X124179762Y-94572438D02*
X124322619Y-94524819D01*
X124322619Y-94524819D02*
X124417857Y-94524819D01*
X124417857Y-94524819D02*
X124560714Y-94572438D01*
X124560714Y-94572438D02*
X124608333Y-94620057D01*
X125465476Y-94858152D02*
X125465476Y-95524819D01*
X125227381Y-94477200D02*
X124989286Y-95191485D01*
X124989286Y-95191485D02*
X125608333Y-95191485D01*
X148357142Y-107454819D02*
X148023809Y-106978628D01*
X147785714Y-107454819D02*
X147785714Y-106454819D01*
X147785714Y-106454819D02*
X148166666Y-106454819D01*
X148166666Y-106454819D02*
X148261904Y-106502438D01*
X148261904Y-106502438D02*
X148309523Y-106550057D01*
X148309523Y-106550057D02*
X148357142Y-106645295D01*
X148357142Y-106645295D02*
X148357142Y-106788152D01*
X148357142Y-106788152D02*
X148309523Y-106883390D01*
X148309523Y-106883390D02*
X148261904Y-106931009D01*
X148261904Y-106931009D02*
X148166666Y-106978628D01*
X148166666Y-106978628D02*
X147785714Y-106978628D01*
X149309523Y-107454819D02*
X148738095Y-107454819D01*
X149023809Y-107454819D02*
X149023809Y-106454819D01*
X149023809Y-106454819D02*
X148928571Y-106597676D01*
X148928571Y-106597676D02*
X148833333Y-106692914D01*
X148833333Y-106692914D02*
X148738095Y-106740533D01*
X149785714Y-107454819D02*
X149976190Y-107454819D01*
X149976190Y-107454819D02*
X150071428Y-107407200D01*
X150071428Y-107407200D02*
X150119047Y-107359580D01*
X150119047Y-107359580D02*
X150214285Y-107216723D01*
X150214285Y-107216723D02*
X150261904Y-107026247D01*
X150261904Y-107026247D02*
X150261904Y-106645295D01*
X150261904Y-106645295D02*
X150214285Y-106550057D01*
X150214285Y-106550057D02*
X150166666Y-106502438D01*
X150166666Y-106502438D02*
X150071428Y-106454819D01*
X150071428Y-106454819D02*
X149880952Y-106454819D01*
X149880952Y-106454819D02*
X149785714Y-106502438D01*
X149785714Y-106502438D02*
X149738095Y-106550057D01*
X149738095Y-106550057D02*
X149690476Y-106645295D01*
X149690476Y-106645295D02*
X149690476Y-106883390D01*
X149690476Y-106883390D02*
X149738095Y-106978628D01*
X149738095Y-106978628D02*
X149785714Y-107026247D01*
X149785714Y-107026247D02*
X149880952Y-107073866D01*
X149880952Y-107073866D02*
X150071428Y-107073866D01*
X150071428Y-107073866D02*
X150166666Y-107026247D01*
X150166666Y-107026247D02*
X150214285Y-106978628D01*
X150214285Y-106978628D02*
X150261904Y-106883390D01*
X129857142Y-67024819D02*
X129523809Y-66548628D01*
X129285714Y-67024819D02*
X129285714Y-66024819D01*
X129285714Y-66024819D02*
X129666666Y-66024819D01*
X129666666Y-66024819D02*
X129761904Y-66072438D01*
X129761904Y-66072438D02*
X129809523Y-66120057D01*
X129809523Y-66120057D02*
X129857142Y-66215295D01*
X129857142Y-66215295D02*
X129857142Y-66358152D01*
X129857142Y-66358152D02*
X129809523Y-66453390D01*
X129809523Y-66453390D02*
X129761904Y-66501009D01*
X129761904Y-66501009D02*
X129666666Y-66548628D01*
X129666666Y-66548628D02*
X129285714Y-66548628D01*
X130714285Y-66358152D02*
X130714285Y-67024819D01*
X130476190Y-65977200D02*
X130238095Y-66691485D01*
X130238095Y-66691485D02*
X130857142Y-66691485D01*
X131761904Y-67024819D02*
X131190476Y-67024819D01*
X131476190Y-67024819D02*
X131476190Y-66024819D01*
X131476190Y-66024819D02*
X131380952Y-66167676D01*
X131380952Y-66167676D02*
X131285714Y-66262914D01*
X131285714Y-66262914D02*
X131190476Y-66310533D01*
X125127083Y-84336880D02*
X125079464Y-84384500D01*
X125079464Y-84384500D02*
X124936607Y-84432119D01*
X124936607Y-84432119D02*
X124841369Y-84432119D01*
X124841369Y-84432119D02*
X124698512Y-84384500D01*
X124698512Y-84384500D02*
X124603274Y-84289261D01*
X124603274Y-84289261D02*
X124555655Y-84194023D01*
X124555655Y-84194023D02*
X124508036Y-84003547D01*
X124508036Y-84003547D02*
X124508036Y-83860690D01*
X124508036Y-83860690D02*
X124555655Y-83670214D01*
X124555655Y-83670214D02*
X124603274Y-83574976D01*
X124603274Y-83574976D02*
X124698512Y-83479738D01*
X124698512Y-83479738D02*
X124841369Y-83432119D01*
X124841369Y-83432119D02*
X124936607Y-83432119D01*
X124936607Y-83432119D02*
X125079464Y-83479738D01*
X125079464Y-83479738D02*
X125127083Y-83527357D01*
X125460417Y-83432119D02*
X126079464Y-83432119D01*
X126079464Y-83432119D02*
X125746131Y-83813071D01*
X125746131Y-83813071D02*
X125888988Y-83813071D01*
X125888988Y-83813071D02*
X125984226Y-83860690D01*
X125984226Y-83860690D02*
X126031845Y-83908309D01*
X126031845Y-83908309D02*
X126079464Y-84003547D01*
X126079464Y-84003547D02*
X126079464Y-84241642D01*
X126079464Y-84241642D02*
X126031845Y-84336880D01*
X126031845Y-84336880D02*
X125984226Y-84384500D01*
X125984226Y-84384500D02*
X125888988Y-84432119D01*
X125888988Y-84432119D02*
X125603274Y-84432119D01*
X125603274Y-84432119D02*
X125508036Y-84384500D01*
X125508036Y-84384500D02*
X125460417Y-84336880D01*
X148859580Y-85142857D02*
X148907200Y-85190476D01*
X148907200Y-85190476D02*
X148954819Y-85333333D01*
X148954819Y-85333333D02*
X148954819Y-85428571D01*
X148954819Y-85428571D02*
X148907200Y-85571428D01*
X148907200Y-85571428D02*
X148811961Y-85666666D01*
X148811961Y-85666666D02*
X148716723Y-85714285D01*
X148716723Y-85714285D02*
X148526247Y-85761904D01*
X148526247Y-85761904D02*
X148383390Y-85761904D01*
X148383390Y-85761904D02*
X148192914Y-85714285D01*
X148192914Y-85714285D02*
X148097676Y-85666666D01*
X148097676Y-85666666D02*
X148002438Y-85571428D01*
X148002438Y-85571428D02*
X147954819Y-85428571D01*
X147954819Y-85428571D02*
X147954819Y-85333333D01*
X147954819Y-85333333D02*
X148002438Y-85190476D01*
X148002438Y-85190476D02*
X148050057Y-85142857D01*
X148954819Y-84190476D02*
X148954819Y-84761904D01*
X148954819Y-84476190D02*
X147954819Y-84476190D01*
X147954819Y-84476190D02*
X148097676Y-84571428D01*
X148097676Y-84571428D02*
X148192914Y-84666666D01*
X148192914Y-84666666D02*
X148240533Y-84761904D01*
X147954819Y-83333333D02*
X147954819Y-83523809D01*
X147954819Y-83523809D02*
X148002438Y-83619047D01*
X148002438Y-83619047D02*
X148050057Y-83666666D01*
X148050057Y-83666666D02*
X148192914Y-83761904D01*
X148192914Y-83761904D02*
X148383390Y-83809523D01*
X148383390Y-83809523D02*
X148764342Y-83809523D01*
X148764342Y-83809523D02*
X148859580Y-83761904D01*
X148859580Y-83761904D02*
X148907200Y-83714285D01*
X148907200Y-83714285D02*
X148954819Y-83619047D01*
X148954819Y-83619047D02*
X148954819Y-83428571D01*
X148954819Y-83428571D02*
X148907200Y-83333333D01*
X148907200Y-83333333D02*
X148859580Y-83285714D01*
X148859580Y-83285714D02*
X148764342Y-83238095D01*
X148764342Y-83238095D02*
X148526247Y-83238095D01*
X148526247Y-83238095D02*
X148431009Y-83285714D01*
X148431009Y-83285714D02*
X148383390Y-83333333D01*
X148383390Y-83333333D02*
X148335771Y-83428571D01*
X148335771Y-83428571D02*
X148335771Y-83619047D01*
X148335771Y-83619047D02*
X148383390Y-83714285D01*
X148383390Y-83714285D02*
X148431009Y-83761904D01*
X148431009Y-83761904D02*
X148526247Y-83809523D01*
X152857142Y-66524819D02*
X152523809Y-66048628D01*
X152285714Y-66524819D02*
X152285714Y-65524819D01*
X152285714Y-65524819D02*
X152666666Y-65524819D01*
X152666666Y-65524819D02*
X152761904Y-65572438D01*
X152761904Y-65572438D02*
X152809523Y-65620057D01*
X152809523Y-65620057D02*
X152857142Y-65715295D01*
X152857142Y-65715295D02*
X152857142Y-65858152D01*
X152857142Y-65858152D02*
X152809523Y-65953390D01*
X152809523Y-65953390D02*
X152761904Y-66001009D01*
X152761904Y-66001009D02*
X152666666Y-66048628D01*
X152666666Y-66048628D02*
X152285714Y-66048628D01*
X153714285Y-65858152D02*
X153714285Y-66524819D01*
X153476190Y-65477200D02*
X153238095Y-66191485D01*
X153238095Y-66191485D02*
X153857142Y-66191485D01*
X154142857Y-65524819D02*
X154761904Y-65524819D01*
X154761904Y-65524819D02*
X154428571Y-65905771D01*
X154428571Y-65905771D02*
X154571428Y-65905771D01*
X154571428Y-65905771D02*
X154666666Y-65953390D01*
X154666666Y-65953390D02*
X154714285Y-66001009D01*
X154714285Y-66001009D02*
X154761904Y-66096247D01*
X154761904Y-66096247D02*
X154761904Y-66334342D01*
X154761904Y-66334342D02*
X154714285Y-66429580D01*
X154714285Y-66429580D02*
X154666666Y-66477200D01*
X154666666Y-66477200D02*
X154571428Y-66524819D01*
X154571428Y-66524819D02*
X154285714Y-66524819D01*
X154285714Y-66524819D02*
X154190476Y-66477200D01*
X154190476Y-66477200D02*
X154142857Y-66429580D01*
X120857142Y-100359580D02*
X120809523Y-100407200D01*
X120809523Y-100407200D02*
X120666666Y-100454819D01*
X120666666Y-100454819D02*
X120571428Y-100454819D01*
X120571428Y-100454819D02*
X120428571Y-100407200D01*
X120428571Y-100407200D02*
X120333333Y-100311961D01*
X120333333Y-100311961D02*
X120285714Y-100216723D01*
X120285714Y-100216723D02*
X120238095Y-100026247D01*
X120238095Y-100026247D02*
X120238095Y-99883390D01*
X120238095Y-99883390D02*
X120285714Y-99692914D01*
X120285714Y-99692914D02*
X120333333Y-99597676D01*
X120333333Y-99597676D02*
X120428571Y-99502438D01*
X120428571Y-99502438D02*
X120571428Y-99454819D01*
X120571428Y-99454819D02*
X120666666Y-99454819D01*
X120666666Y-99454819D02*
X120809523Y-99502438D01*
X120809523Y-99502438D02*
X120857142Y-99550057D01*
X121238095Y-99550057D02*
X121285714Y-99502438D01*
X121285714Y-99502438D02*
X121380952Y-99454819D01*
X121380952Y-99454819D02*
X121619047Y-99454819D01*
X121619047Y-99454819D02*
X121714285Y-99502438D01*
X121714285Y-99502438D02*
X121761904Y-99550057D01*
X121761904Y-99550057D02*
X121809523Y-99645295D01*
X121809523Y-99645295D02*
X121809523Y-99740533D01*
X121809523Y-99740533D02*
X121761904Y-99883390D01*
X121761904Y-99883390D02*
X121190476Y-100454819D01*
X121190476Y-100454819D02*
X121809523Y-100454819D01*
X122428571Y-99454819D02*
X122523809Y-99454819D01*
X122523809Y-99454819D02*
X122619047Y-99502438D01*
X122619047Y-99502438D02*
X122666666Y-99550057D01*
X122666666Y-99550057D02*
X122714285Y-99645295D01*
X122714285Y-99645295D02*
X122761904Y-99835771D01*
X122761904Y-99835771D02*
X122761904Y-100073866D01*
X122761904Y-100073866D02*
X122714285Y-100264342D01*
X122714285Y-100264342D02*
X122666666Y-100359580D01*
X122666666Y-100359580D02*
X122619047Y-100407200D01*
X122619047Y-100407200D02*
X122523809Y-100454819D01*
X122523809Y-100454819D02*
X122428571Y-100454819D01*
X122428571Y-100454819D02*
X122333333Y-100407200D01*
X122333333Y-100407200D02*
X122285714Y-100359580D01*
X122285714Y-100359580D02*
X122238095Y-100264342D01*
X122238095Y-100264342D02*
X122190476Y-100073866D01*
X122190476Y-100073866D02*
X122190476Y-99835771D01*
X122190476Y-99835771D02*
X122238095Y-99645295D01*
X122238095Y-99645295D02*
X122285714Y-99550057D01*
X122285714Y-99550057D02*
X122333333Y-99502438D01*
X122333333Y-99502438D02*
X122428571Y-99454819D01*
X143109580Y-107392857D02*
X143157200Y-107440476D01*
X143157200Y-107440476D02*
X143204819Y-107583333D01*
X143204819Y-107583333D02*
X143204819Y-107678571D01*
X143204819Y-107678571D02*
X143157200Y-107821428D01*
X143157200Y-107821428D02*
X143061961Y-107916666D01*
X143061961Y-107916666D02*
X142966723Y-107964285D01*
X142966723Y-107964285D02*
X142776247Y-108011904D01*
X142776247Y-108011904D02*
X142633390Y-108011904D01*
X142633390Y-108011904D02*
X142442914Y-107964285D01*
X142442914Y-107964285D02*
X142347676Y-107916666D01*
X142347676Y-107916666D02*
X142252438Y-107821428D01*
X142252438Y-107821428D02*
X142204819Y-107678571D01*
X142204819Y-107678571D02*
X142204819Y-107583333D01*
X142204819Y-107583333D02*
X142252438Y-107440476D01*
X142252438Y-107440476D02*
X142300057Y-107392857D01*
X143204819Y-106440476D02*
X143204819Y-107011904D01*
X143204819Y-106726190D02*
X142204819Y-106726190D01*
X142204819Y-106726190D02*
X142347676Y-106821428D01*
X142347676Y-106821428D02*
X142442914Y-106916666D01*
X142442914Y-106916666D02*
X142490533Y-107011904D01*
X143204819Y-105488095D02*
X143204819Y-106059523D01*
X143204819Y-105773809D02*
X142204819Y-105773809D01*
X142204819Y-105773809D02*
X142347676Y-105869047D01*
X142347676Y-105869047D02*
X142442914Y-105964285D01*
X142442914Y-105964285D02*
X142490533Y-106059523D01*
X141182142Y-99524819D02*
X140848809Y-99048628D01*
X140610714Y-99524819D02*
X140610714Y-98524819D01*
X140610714Y-98524819D02*
X140991666Y-98524819D01*
X140991666Y-98524819D02*
X141086904Y-98572438D01*
X141086904Y-98572438D02*
X141134523Y-98620057D01*
X141134523Y-98620057D02*
X141182142Y-98715295D01*
X141182142Y-98715295D02*
X141182142Y-98858152D01*
X141182142Y-98858152D02*
X141134523Y-98953390D01*
X141134523Y-98953390D02*
X141086904Y-99001009D01*
X141086904Y-99001009D02*
X140991666Y-99048628D01*
X140991666Y-99048628D02*
X140610714Y-99048628D01*
X141563095Y-98620057D02*
X141610714Y-98572438D01*
X141610714Y-98572438D02*
X141705952Y-98524819D01*
X141705952Y-98524819D02*
X141944047Y-98524819D01*
X141944047Y-98524819D02*
X142039285Y-98572438D01*
X142039285Y-98572438D02*
X142086904Y-98620057D01*
X142086904Y-98620057D02*
X142134523Y-98715295D01*
X142134523Y-98715295D02*
X142134523Y-98810533D01*
X142134523Y-98810533D02*
X142086904Y-98953390D01*
X142086904Y-98953390D02*
X141515476Y-99524819D01*
X141515476Y-99524819D02*
X142134523Y-99524819D01*
X143086904Y-99524819D02*
X142515476Y-99524819D01*
X142801190Y-99524819D02*
X142801190Y-98524819D01*
X142801190Y-98524819D02*
X142705952Y-98667676D01*
X142705952Y-98667676D02*
X142610714Y-98762914D01*
X142610714Y-98762914D02*
X142515476Y-98810533D01*
X119857142Y-107454819D02*
X119523809Y-106978628D01*
X119285714Y-107454819D02*
X119285714Y-106454819D01*
X119285714Y-106454819D02*
X119666666Y-106454819D01*
X119666666Y-106454819D02*
X119761904Y-106502438D01*
X119761904Y-106502438D02*
X119809523Y-106550057D01*
X119809523Y-106550057D02*
X119857142Y-106645295D01*
X119857142Y-106645295D02*
X119857142Y-106788152D01*
X119857142Y-106788152D02*
X119809523Y-106883390D01*
X119809523Y-106883390D02*
X119761904Y-106931009D01*
X119761904Y-106931009D02*
X119666666Y-106978628D01*
X119666666Y-106978628D02*
X119285714Y-106978628D01*
X120190476Y-106454819D02*
X120809523Y-106454819D01*
X120809523Y-106454819D02*
X120476190Y-106835771D01*
X120476190Y-106835771D02*
X120619047Y-106835771D01*
X120619047Y-106835771D02*
X120714285Y-106883390D01*
X120714285Y-106883390D02*
X120761904Y-106931009D01*
X120761904Y-106931009D02*
X120809523Y-107026247D01*
X120809523Y-107026247D02*
X120809523Y-107264342D01*
X120809523Y-107264342D02*
X120761904Y-107359580D01*
X120761904Y-107359580D02*
X120714285Y-107407200D01*
X120714285Y-107407200D02*
X120619047Y-107454819D01*
X120619047Y-107454819D02*
X120333333Y-107454819D01*
X120333333Y-107454819D02*
X120238095Y-107407200D01*
X120238095Y-107407200D02*
X120190476Y-107359580D01*
X121714285Y-106454819D02*
X121238095Y-106454819D01*
X121238095Y-106454819D02*
X121190476Y-106931009D01*
X121190476Y-106931009D02*
X121238095Y-106883390D01*
X121238095Y-106883390D02*
X121333333Y-106835771D01*
X121333333Y-106835771D02*
X121571428Y-106835771D01*
X121571428Y-106835771D02*
X121666666Y-106883390D01*
X121666666Y-106883390D02*
X121714285Y-106931009D01*
X121714285Y-106931009D02*
X121761904Y-107026247D01*
X121761904Y-107026247D02*
X121761904Y-107264342D01*
X121761904Y-107264342D02*
X121714285Y-107359580D01*
X121714285Y-107359580D02*
X121666666Y-107407200D01*
X121666666Y-107407200D02*
X121571428Y-107454819D01*
X121571428Y-107454819D02*
X121333333Y-107454819D01*
X121333333Y-107454819D02*
X121238095Y-107407200D01*
X121238095Y-107407200D02*
X121190476Y-107359580D01*
X124454819Y-91169204D02*
X125264342Y-91169204D01*
X125264342Y-91169204D02*
X125359580Y-91121585D01*
X125359580Y-91121585D02*
X125407200Y-91073966D01*
X125407200Y-91073966D02*
X125454819Y-90978728D01*
X125454819Y-90978728D02*
X125454819Y-90788252D01*
X125454819Y-90788252D02*
X125407200Y-90693014D01*
X125407200Y-90693014D02*
X125359580Y-90645395D01*
X125359580Y-90645395D02*
X125264342Y-90597776D01*
X125264342Y-90597776D02*
X124454819Y-90597776D01*
X124550057Y-90169204D02*
X124502438Y-90121585D01*
X124502438Y-90121585D02*
X124454819Y-90026347D01*
X124454819Y-90026347D02*
X124454819Y-89788252D01*
X124454819Y-89788252D02*
X124502438Y-89693014D01*
X124502438Y-89693014D02*
X124550057Y-89645395D01*
X124550057Y-89645395D02*
X124645295Y-89597776D01*
X124645295Y-89597776D02*
X124740533Y-89597776D01*
X124740533Y-89597776D02*
X124883390Y-89645395D01*
X124883390Y-89645395D02*
X125454819Y-90216823D01*
X125454819Y-90216823D02*
X125454819Y-89597776D01*
X123119583Y-95312119D02*
X122786250Y-94835928D01*
X122548155Y-95312119D02*
X122548155Y-94312119D01*
X122548155Y-94312119D02*
X122929107Y-94312119D01*
X122929107Y-94312119D02*
X123024345Y-94359738D01*
X123024345Y-94359738D02*
X123071964Y-94407357D01*
X123071964Y-94407357D02*
X123119583Y-94502595D01*
X123119583Y-94502595D02*
X123119583Y-94645452D01*
X123119583Y-94645452D02*
X123071964Y-94740690D01*
X123071964Y-94740690D02*
X123024345Y-94788309D01*
X123024345Y-94788309D02*
X122929107Y-94835928D01*
X122929107Y-94835928D02*
X122548155Y-94835928D01*
X123452917Y-94312119D02*
X124119583Y-94312119D01*
X124119583Y-94312119D02*
X123691012Y-95312119D01*
X141039580Y-100142857D02*
X141087200Y-100190476D01*
X141087200Y-100190476D02*
X141134819Y-100333333D01*
X141134819Y-100333333D02*
X141134819Y-100428571D01*
X141134819Y-100428571D02*
X141087200Y-100571428D01*
X141087200Y-100571428D02*
X140991961Y-100666666D01*
X140991961Y-100666666D02*
X140896723Y-100714285D01*
X140896723Y-100714285D02*
X140706247Y-100761904D01*
X140706247Y-100761904D02*
X140563390Y-100761904D01*
X140563390Y-100761904D02*
X140372914Y-100714285D01*
X140372914Y-100714285D02*
X140277676Y-100666666D01*
X140277676Y-100666666D02*
X140182438Y-100571428D01*
X140182438Y-100571428D02*
X140134819Y-100428571D01*
X140134819Y-100428571D02*
X140134819Y-100333333D01*
X140134819Y-100333333D02*
X140182438Y-100190476D01*
X140182438Y-100190476D02*
X140230057Y-100142857D01*
X141134819Y-99190476D02*
X141134819Y-99761904D01*
X141134819Y-99476190D02*
X140134819Y-99476190D01*
X140134819Y-99476190D02*
X140277676Y-99571428D01*
X140277676Y-99571428D02*
X140372914Y-99666666D01*
X140372914Y-99666666D02*
X140420533Y-99761904D01*
X140134819Y-98857142D02*
X140134819Y-98238095D01*
X140134819Y-98238095D02*
X140515771Y-98571428D01*
X140515771Y-98571428D02*
X140515771Y-98428571D01*
X140515771Y-98428571D02*
X140563390Y-98333333D01*
X140563390Y-98333333D02*
X140611009Y-98285714D01*
X140611009Y-98285714D02*
X140706247Y-98238095D01*
X140706247Y-98238095D02*
X140944342Y-98238095D01*
X140944342Y-98238095D02*
X141039580Y-98285714D01*
X141039580Y-98285714D02*
X141087200Y-98333333D01*
X141087200Y-98333333D02*
X141134819Y-98428571D01*
X141134819Y-98428571D02*
X141134819Y-98714285D01*
X141134819Y-98714285D02*
X141087200Y-98809523D01*
X141087200Y-98809523D02*
X141039580Y-98857142D01*
X125738095Y-100954819D02*
X125738095Y-101764342D01*
X125738095Y-101764342D02*
X125785714Y-101859580D01*
X125785714Y-101859580D02*
X125833333Y-101907200D01*
X125833333Y-101907200D02*
X125928571Y-101954819D01*
X125928571Y-101954819D02*
X126119047Y-101954819D01*
X126119047Y-101954819D02*
X126214285Y-101907200D01*
X126214285Y-101907200D02*
X126261904Y-101859580D01*
X126261904Y-101859580D02*
X126309523Y-101764342D01*
X126309523Y-101764342D02*
X126309523Y-100954819D01*
X127309523Y-101954819D02*
X126738095Y-101954819D01*
X127023809Y-101954819D02*
X127023809Y-100954819D01*
X127023809Y-100954819D02*
X126928571Y-101097676D01*
X126928571Y-101097676D02*
X126833333Y-101192914D01*
X126833333Y-101192914D02*
X126738095Y-101240533D01*
X157929580Y-91391666D02*
X157977200Y-91439285D01*
X157977200Y-91439285D02*
X158024819Y-91582142D01*
X158024819Y-91582142D02*
X158024819Y-91677380D01*
X158024819Y-91677380D02*
X157977200Y-91820237D01*
X157977200Y-91820237D02*
X157881961Y-91915475D01*
X157881961Y-91915475D02*
X157786723Y-91963094D01*
X157786723Y-91963094D02*
X157596247Y-92010713D01*
X157596247Y-92010713D02*
X157453390Y-92010713D01*
X157453390Y-92010713D02*
X157262914Y-91963094D01*
X157262914Y-91963094D02*
X157167676Y-91915475D01*
X157167676Y-91915475D02*
X157072438Y-91820237D01*
X157072438Y-91820237D02*
X157024819Y-91677380D01*
X157024819Y-91677380D02*
X157024819Y-91582142D01*
X157024819Y-91582142D02*
X157072438Y-91439285D01*
X157072438Y-91439285D02*
X157120057Y-91391666D01*
X157453390Y-90820237D02*
X157405771Y-90915475D01*
X157405771Y-90915475D02*
X157358152Y-90963094D01*
X157358152Y-90963094D02*
X157262914Y-91010713D01*
X157262914Y-91010713D02*
X157215295Y-91010713D01*
X157215295Y-91010713D02*
X157120057Y-90963094D01*
X157120057Y-90963094D02*
X157072438Y-90915475D01*
X157072438Y-90915475D02*
X157024819Y-90820237D01*
X157024819Y-90820237D02*
X157024819Y-90629761D01*
X157024819Y-90629761D02*
X157072438Y-90534523D01*
X157072438Y-90534523D02*
X157120057Y-90486904D01*
X157120057Y-90486904D02*
X157215295Y-90439285D01*
X157215295Y-90439285D02*
X157262914Y-90439285D01*
X157262914Y-90439285D02*
X157358152Y-90486904D01*
X157358152Y-90486904D02*
X157405771Y-90534523D01*
X157405771Y-90534523D02*
X157453390Y-90629761D01*
X157453390Y-90629761D02*
X157453390Y-90820237D01*
X157453390Y-90820237D02*
X157501009Y-90915475D01*
X157501009Y-90915475D02*
X157548628Y-90963094D01*
X157548628Y-90963094D02*
X157643866Y-91010713D01*
X157643866Y-91010713D02*
X157834342Y-91010713D01*
X157834342Y-91010713D02*
X157929580Y-90963094D01*
X157929580Y-90963094D02*
X157977200Y-90915475D01*
X157977200Y-90915475D02*
X158024819Y-90820237D01*
X158024819Y-90820237D02*
X158024819Y-90629761D01*
X158024819Y-90629761D02*
X157977200Y-90534523D01*
X157977200Y-90534523D02*
X157929580Y-90486904D01*
X157929580Y-90486904D02*
X157834342Y-90439285D01*
X157834342Y-90439285D02*
X157643866Y-90439285D01*
X157643866Y-90439285D02*
X157548628Y-90486904D01*
X157548628Y-90486904D02*
X157501009Y-90534523D01*
X157501009Y-90534523D02*
X157453390Y-90629761D01*
X135300595Y-96533569D02*
X135300595Y-97343092D01*
X135300595Y-97343092D02*
X135348214Y-97438330D01*
X135348214Y-97438330D02*
X135395833Y-97485950D01*
X135395833Y-97485950D02*
X135491071Y-97533569D01*
X135491071Y-97533569D02*
X135681547Y-97533569D01*
X135681547Y-97533569D02*
X135776785Y-97485950D01*
X135776785Y-97485950D02*
X135824404Y-97438330D01*
X135824404Y-97438330D02*
X135872023Y-97343092D01*
X135872023Y-97343092D02*
X135872023Y-96533569D01*
X136776785Y-96866902D02*
X136776785Y-97533569D01*
X136538690Y-96485950D02*
X136300595Y-97200235D01*
X136300595Y-97200235D02*
X136919642Y-97200235D01*
X155357142Y-86359580D02*
X155309523Y-86407200D01*
X155309523Y-86407200D02*
X155166666Y-86454819D01*
X155166666Y-86454819D02*
X155071428Y-86454819D01*
X155071428Y-86454819D02*
X154928571Y-86407200D01*
X154928571Y-86407200D02*
X154833333Y-86311961D01*
X154833333Y-86311961D02*
X154785714Y-86216723D01*
X154785714Y-86216723D02*
X154738095Y-86026247D01*
X154738095Y-86026247D02*
X154738095Y-85883390D01*
X154738095Y-85883390D02*
X154785714Y-85692914D01*
X154785714Y-85692914D02*
X154833333Y-85597676D01*
X154833333Y-85597676D02*
X154928571Y-85502438D01*
X154928571Y-85502438D02*
X155071428Y-85454819D01*
X155071428Y-85454819D02*
X155166666Y-85454819D01*
X155166666Y-85454819D02*
X155309523Y-85502438D01*
X155309523Y-85502438D02*
X155357142Y-85550057D01*
X156309523Y-86454819D02*
X155738095Y-86454819D01*
X156023809Y-86454819D02*
X156023809Y-85454819D01*
X156023809Y-85454819D02*
X155928571Y-85597676D01*
X155928571Y-85597676D02*
X155833333Y-85692914D01*
X155833333Y-85692914D02*
X155738095Y-85740533D01*
X156880952Y-85883390D02*
X156785714Y-85835771D01*
X156785714Y-85835771D02*
X156738095Y-85788152D01*
X156738095Y-85788152D02*
X156690476Y-85692914D01*
X156690476Y-85692914D02*
X156690476Y-85645295D01*
X156690476Y-85645295D02*
X156738095Y-85550057D01*
X156738095Y-85550057D02*
X156785714Y-85502438D01*
X156785714Y-85502438D02*
X156880952Y-85454819D01*
X156880952Y-85454819D02*
X157071428Y-85454819D01*
X157071428Y-85454819D02*
X157166666Y-85502438D01*
X157166666Y-85502438D02*
X157214285Y-85550057D01*
X157214285Y-85550057D02*
X157261904Y-85645295D01*
X157261904Y-85645295D02*
X157261904Y-85692914D01*
X157261904Y-85692914D02*
X157214285Y-85788152D01*
X157214285Y-85788152D02*
X157166666Y-85835771D01*
X157166666Y-85835771D02*
X157071428Y-85883390D01*
X157071428Y-85883390D02*
X156880952Y-85883390D01*
X156880952Y-85883390D02*
X156785714Y-85931009D01*
X156785714Y-85931009D02*
X156738095Y-85978628D01*
X156738095Y-85978628D02*
X156690476Y-86073866D01*
X156690476Y-86073866D02*
X156690476Y-86264342D01*
X156690476Y-86264342D02*
X156738095Y-86359580D01*
X156738095Y-86359580D02*
X156785714Y-86407200D01*
X156785714Y-86407200D02*
X156880952Y-86454819D01*
X156880952Y-86454819D02*
X157071428Y-86454819D01*
X157071428Y-86454819D02*
X157166666Y-86407200D01*
X157166666Y-86407200D02*
X157214285Y-86359580D01*
X157214285Y-86359580D02*
X157261904Y-86264342D01*
X157261904Y-86264342D02*
X157261904Y-86073866D01*
X157261904Y-86073866D02*
X157214285Y-85978628D01*
X157214285Y-85978628D02*
X157166666Y-85931009D01*
X157166666Y-85931009D02*
X157071428Y-85883390D01*
X123357142Y-109954819D02*
X123023809Y-109478628D01*
X122785714Y-109954819D02*
X122785714Y-108954819D01*
X122785714Y-108954819D02*
X123166666Y-108954819D01*
X123166666Y-108954819D02*
X123261904Y-109002438D01*
X123261904Y-109002438D02*
X123309523Y-109050057D01*
X123309523Y-109050057D02*
X123357142Y-109145295D01*
X123357142Y-109145295D02*
X123357142Y-109288152D01*
X123357142Y-109288152D02*
X123309523Y-109383390D01*
X123309523Y-109383390D02*
X123261904Y-109431009D01*
X123261904Y-109431009D02*
X123166666Y-109478628D01*
X123166666Y-109478628D02*
X122785714Y-109478628D01*
X124214285Y-109288152D02*
X124214285Y-109954819D01*
X123976190Y-108907200D02*
X123738095Y-109621485D01*
X123738095Y-109621485D02*
X124357142Y-109621485D01*
X125166666Y-108954819D02*
X124976190Y-108954819D01*
X124976190Y-108954819D02*
X124880952Y-109002438D01*
X124880952Y-109002438D02*
X124833333Y-109050057D01*
X124833333Y-109050057D02*
X124738095Y-109192914D01*
X124738095Y-109192914D02*
X124690476Y-109383390D01*
X124690476Y-109383390D02*
X124690476Y-109764342D01*
X124690476Y-109764342D02*
X124738095Y-109859580D01*
X124738095Y-109859580D02*
X124785714Y-109907200D01*
X124785714Y-109907200D02*
X124880952Y-109954819D01*
X124880952Y-109954819D02*
X125071428Y-109954819D01*
X125071428Y-109954819D02*
X125166666Y-109907200D01*
X125166666Y-109907200D02*
X125214285Y-109859580D01*
X125214285Y-109859580D02*
X125261904Y-109764342D01*
X125261904Y-109764342D02*
X125261904Y-109526247D01*
X125261904Y-109526247D02*
X125214285Y-109431009D01*
X125214285Y-109431009D02*
X125166666Y-109383390D01*
X125166666Y-109383390D02*
X125071428Y-109335771D01*
X125071428Y-109335771D02*
X124880952Y-109335771D01*
X124880952Y-109335771D02*
X124785714Y-109383390D01*
X124785714Y-109383390D02*
X124738095Y-109431009D01*
X124738095Y-109431009D02*
X124690476Y-109526247D01*
X146204580Y-99867857D02*
X146252200Y-99915476D01*
X146252200Y-99915476D02*
X146299819Y-100058333D01*
X146299819Y-100058333D02*
X146299819Y-100153571D01*
X146299819Y-100153571D02*
X146252200Y-100296428D01*
X146252200Y-100296428D02*
X146156961Y-100391666D01*
X146156961Y-100391666D02*
X146061723Y-100439285D01*
X146061723Y-100439285D02*
X145871247Y-100486904D01*
X145871247Y-100486904D02*
X145728390Y-100486904D01*
X145728390Y-100486904D02*
X145537914Y-100439285D01*
X145537914Y-100439285D02*
X145442676Y-100391666D01*
X145442676Y-100391666D02*
X145347438Y-100296428D01*
X145347438Y-100296428D02*
X145299819Y-100153571D01*
X145299819Y-100153571D02*
X145299819Y-100058333D01*
X145299819Y-100058333D02*
X145347438Y-99915476D01*
X145347438Y-99915476D02*
X145395057Y-99867857D01*
X146299819Y-98915476D02*
X146299819Y-99486904D01*
X146299819Y-99201190D02*
X145299819Y-99201190D01*
X145299819Y-99201190D02*
X145442676Y-99296428D01*
X145442676Y-99296428D02*
X145537914Y-99391666D01*
X145537914Y-99391666D02*
X145585533Y-99486904D01*
X145299819Y-98010714D02*
X145299819Y-98486904D01*
X145299819Y-98486904D02*
X145776009Y-98534523D01*
X145776009Y-98534523D02*
X145728390Y-98486904D01*
X145728390Y-98486904D02*
X145680771Y-98391666D01*
X145680771Y-98391666D02*
X145680771Y-98153571D01*
X145680771Y-98153571D02*
X145728390Y-98058333D01*
X145728390Y-98058333D02*
X145776009Y-98010714D01*
X145776009Y-98010714D02*
X145871247Y-97963095D01*
X145871247Y-97963095D02*
X146109342Y-97963095D01*
X146109342Y-97963095D02*
X146204580Y-98010714D01*
X146204580Y-98010714D02*
X146252200Y-98058333D01*
X146252200Y-98058333D02*
X146299819Y-98153571D01*
X146299819Y-98153571D02*
X146299819Y-98391666D01*
X146299819Y-98391666D02*
X146252200Y-98486904D01*
X146252200Y-98486904D02*
X146204580Y-98534523D01*
%TO.C,Q1*%
D15*
X154050000Y-71050000D02*
X154050000Y-77470000D01*
X154050000Y-77470000D02*
X154320000Y-77470000D01*
X160950000Y-71050000D02*
X160950000Y-77470000D01*
X160950000Y-77470000D02*
X160680000Y-77470000D01*
X154360000Y-79200000D02*
X153890000Y-79540000D01*
X153890000Y-78860000D01*
X154360000Y-79200000D01*
G36*
X154360000Y-79200000D02*
G01*
X153890000Y-79540000D01*
X153890000Y-78860000D01*
X154360000Y-79200000D01*
G37*
%TO.C,C5*%
X130490000Y-102915580D02*
X130490000Y-102634420D01*
X131510000Y-102915580D02*
X131510000Y-102634420D01*
%TO.C,R23*%
X145380242Y-81177500D02*
X145854758Y-81177500D01*
X145380242Y-82222500D02*
X145854758Y-82222500D01*
%TO.C,R13*%
X122062258Y-95977500D02*
X121587742Y-95977500D01*
X122062258Y-97022500D02*
X121587742Y-97022500D01*
%TO.C,Q3*%
X133867500Y-70825000D02*
X133867500Y-77245000D01*
X133867500Y-77245000D02*
X134137500Y-77245000D01*
X140767500Y-70825000D02*
X140767500Y-77245000D01*
X140767500Y-77245000D02*
X140497500Y-77245000D01*
X134177500Y-78975000D02*
X133707500Y-79315000D01*
X133707500Y-78635000D01*
X134177500Y-78975000D01*
G36*
X134177500Y-78975000D02*
G01*
X133707500Y-79315000D01*
X133707500Y-78635000D01*
X134177500Y-78975000D01*
G37*
%TO.C,R32*%
X151437742Y-81177500D02*
X151912258Y-81177500D01*
X151437742Y-82222500D02*
X151912258Y-82222500D01*
%TO.C,R29*%
X148380242Y-81177500D02*
X148854758Y-81177500D01*
X148380242Y-82222500D02*
X148854758Y-82222500D01*
%TO.C,Q2*%
X144075000Y-70475000D02*
X144075000Y-76895000D01*
X144075000Y-76895000D02*
X144345000Y-76895000D01*
X150975000Y-70475000D02*
X150975000Y-76895000D01*
X150975000Y-76895000D02*
X150705000Y-76895000D01*
X144385000Y-78625000D02*
X143915000Y-78965000D01*
X143915000Y-78285000D01*
X144385000Y-78625000D01*
G36*
X144385000Y-78625000D02*
G01*
X143915000Y-78965000D01*
X143915000Y-78285000D01*
X144385000Y-78625000D01*
G37*
%TO.C,R24*%
X154715242Y-81177500D02*
X155189758Y-81177500D01*
X154715242Y-82222500D02*
X155189758Y-82222500D01*
%TO.C,R28*%
X157937742Y-81177500D02*
X158412258Y-81177500D01*
X157937742Y-82222500D02*
X158412258Y-82222500D01*
%TO.C,R30*%
X137437742Y-80977500D02*
X137912258Y-80977500D01*
X137437742Y-82022500D02*
X137912258Y-82022500D01*
%TO.C,R15*%
X128156492Y-84884800D02*
X128631008Y-84884800D01*
X128156492Y-85929800D02*
X128631008Y-85929800D01*
%TO.C,C7*%
X150584420Y-104990000D02*
X150865580Y-104990000D01*
X150584420Y-106010000D02*
X150865580Y-106010000D01*
%TO.C,R20*%
X152977500Y-105737258D02*
X152977500Y-105262742D01*
X154022500Y-105737258D02*
X154022500Y-105262742D01*
%TO.C,C19*%
X121584420Y-97490000D02*
X121865580Y-97490000D01*
X121584420Y-98510000D02*
X121865580Y-98510000D01*
%TO.C,R27*%
X142477500Y-83062258D02*
X142477500Y-82587742D01*
X143522500Y-83062258D02*
X143522500Y-82587742D01*
%TO.C,R9*%
X121831492Y-84884800D02*
X122306008Y-84884800D01*
X121831492Y-85929800D02*
X122306008Y-85929800D01*
%TO.C,R44*%
X123143641Y-104620000D02*
X122836359Y-104620000D01*
X123143641Y-105380000D02*
X122836359Y-105380000D01*
%TO.C,R38*%
X120356359Y-101620000D02*
X120663641Y-101620000D01*
X120356359Y-102380000D02*
X120663641Y-102380000D01*
%TO.C,R18*%
X151227064Y-109590000D02*
X149772936Y-109590000D01*
X151227064Y-111410000D02*
X149772936Y-111410000D01*
%TO.C,R25*%
X158587742Y-84477500D02*
X159062258Y-84477500D01*
X158587742Y-85522500D02*
X159062258Y-85522500D01*
%TO.C,C14*%
X154865580Y-94490000D02*
X154584420Y-94490000D01*
X154865580Y-95510000D02*
X154584420Y-95510000D01*
%TO.C,C17*%
X152865580Y-84990000D02*
X152584420Y-84990000D01*
X152865580Y-86010000D02*
X152584420Y-86010000D01*
%TO.C,R47*%
X121346359Y-110120000D02*
X121653641Y-110120000D01*
X121346359Y-110880000D02*
X121653641Y-110880000D01*
%TO.C,R40*%
X161765000Y-110639564D02*
X161765000Y-110185436D01*
X163235000Y-110639564D02*
X163235000Y-110185436D01*
%TO.C,R45*%
X121346359Y-108120000D02*
X121653641Y-108120000D01*
X121346359Y-108880000D02*
X121653641Y-108880000D01*
%TO.C,EG1192L1*%
X154200000Y-106890000D02*
X158100000Y-106890000D01*
X158100000Y-111920000D02*
X154200000Y-111920000D01*
X161990000Y-111315000D02*
X162320000Y-111075000D01*
X162320000Y-111555000D01*
X161990000Y-111315000D01*
G36*
X162320000Y-111555000D02*
G01*
X161990000Y-111315000D01*
X162320000Y-111075000D01*
X162320000Y-111555000D01*
G37*
%TO.C,R33*%
X140912258Y-80977500D02*
X140437742Y-80977500D01*
X140912258Y-82022500D02*
X140437742Y-82022500D01*
%TO.C,R31*%
X161397258Y-81177500D02*
X160922742Y-81177500D01*
X161397258Y-82222500D02*
X160922742Y-82222500D01*
%TO.C,R11*%
X126156492Y-94384800D02*
X126631008Y-94384800D01*
X126156492Y-95429800D02*
X126631008Y-95429800D01*
%TO.C,L1*%
X142090000Y-107800000D02*
X142090000Y-102100000D01*
X142700000Y-101490000D02*
X143550000Y-101490000D01*
X143550000Y-108410000D02*
X142700000Y-108410000D01*
X147450000Y-101490000D02*
X148300000Y-101490000D01*
X148250000Y-108410000D02*
X147450000Y-108410000D01*
X148910000Y-102100000D02*
X148910000Y-107750000D01*
X142090000Y-102100000D02*
G75*
G02*
X142700000Y-101490000I610000J0D01*
G01*
X142700000Y-108410000D02*
G75*
G02*
X142090000Y-107800000I0J610000D01*
G01*
X148300000Y-101490000D02*
G75*
G02*
X148910000Y-102100000I0J-610000D01*
G01*
X148910000Y-107750000D02*
G75*
G02*
X148250000Y-108410000I-660002J2D01*
G01*
%TO.C,R17*%
X159977500Y-110562258D02*
X159977500Y-110087742D01*
X161022500Y-110562258D02*
X161022500Y-110087742D01*
%TO.C,R42*%
X142437742Y-66977500D02*
X142912258Y-66977500D01*
X142437742Y-68022500D02*
X142912258Y-68022500D01*
%TO.C,C6*%
X150990000Y-107634420D02*
X150990000Y-107915580D01*
X152010000Y-107634420D02*
X152010000Y-107915580D01*
%TO.C,C12*%
X132265000Y-99217498D02*
X132265000Y-99740002D01*
X133735000Y-99217498D02*
X133735000Y-99740002D01*
%TO.C,R16*%
X120588750Y-88419558D02*
X120588750Y-87945042D01*
X121633750Y-88419558D02*
X121633750Y-87945042D01*
%TO.C,R26*%
X155537742Y-82927500D02*
X156012258Y-82927500D01*
X155537742Y-83972500D02*
X156012258Y-83972500D01*
%TO.C,R22*%
X137912258Y-82477500D02*
X137437742Y-82477500D01*
X137912258Y-83522500D02*
X137437742Y-83522500D01*
%TO.C,C9*%
X153920000Y-101210000D02*
X164080000Y-101210000D01*
X153920000Y-101250000D02*
X164080000Y-101250000D01*
X153921000Y-101130000D02*
X164079000Y-101130000D01*
X153921000Y-101170000D02*
X164079000Y-101170000D01*
X153923000Y-101090000D02*
X164077000Y-101090000D01*
X153924000Y-101050000D02*
X164076000Y-101050000D01*
X153926000Y-101010000D02*
X164074000Y-101010000D01*
X153928000Y-100970000D02*
X164072000Y-100970000D01*
X153930000Y-100930000D02*
X164070000Y-100930000D01*
X153933000Y-100890000D02*
X164067000Y-100890000D01*
X153936000Y-100850000D02*
X164064000Y-100850000D01*
X153939000Y-100810000D02*
X164061000Y-100810000D01*
X153943000Y-100770000D02*
X164057000Y-100770000D01*
X153946000Y-100730000D02*
X164054000Y-100730000D01*
X153951000Y-100690000D02*
X164049000Y-100690000D01*
X153955000Y-100650000D02*
X164045000Y-100650000D01*
X153960000Y-100610000D02*
X164040000Y-100610000D01*
X153965000Y-100570000D02*
X164035000Y-100570000D01*
X153971000Y-100530000D02*
X164029000Y-100530000D01*
X153977000Y-100490000D02*
X164023000Y-100490000D01*
X153983000Y-100450000D02*
X164017000Y-100450000D01*
X153989000Y-100410000D02*
X164011000Y-100410000D01*
X153996000Y-100370000D02*
X164004000Y-100370000D01*
X154003000Y-100330000D02*
X163997000Y-100330000D01*
X154011000Y-100290000D02*
X163989000Y-100290000D01*
X154019000Y-100250000D02*
X163981000Y-100250000D01*
X154027000Y-100210000D02*
X163973000Y-100210000D01*
X154035000Y-100170000D02*
X163965000Y-100170000D01*
X154044000Y-100130000D02*
X163956000Y-100130000D01*
X154053000Y-100090000D02*
X163947000Y-100090000D01*
X154063000Y-100050000D02*
X163937000Y-100050000D01*
X154072000Y-100010000D02*
X163928000Y-100010000D01*
X154083000Y-99970000D02*
X163917000Y-99970000D01*
X154093000Y-99930000D02*
X163907000Y-99930000D01*
X154104000Y-99890000D02*
X163896000Y-99890000D01*
X154115000Y-99850000D02*
X163885000Y-99850000D01*
X154127000Y-99810000D02*
X163873000Y-99810000D01*
X154139000Y-99770000D02*
X163861000Y-99770000D01*
X154151000Y-99730000D02*
X163849000Y-99730000D01*
X154163000Y-99690000D02*
X163837000Y-99690000D01*
X154176000Y-99650000D02*
X163824000Y-99650000D01*
X154190000Y-99610000D02*
X163810000Y-99610000D01*
X154203000Y-99570000D02*
X163797000Y-99570000D01*
X154218000Y-99530000D02*
X163782000Y-99530000D01*
X154232000Y-99490000D02*
X163768000Y-99490000D01*
X154247000Y-99450000D02*
X163753000Y-99450000D01*
X154262000Y-99410000D02*
X163738000Y-99410000D01*
X154278000Y-99370000D02*
X163722000Y-99370000D01*
X154294000Y-99330000D02*
X163706000Y-99330000D01*
X154310000Y-99290000D02*
X163690000Y-99290000D01*
X154327000Y-99250000D02*
X163673000Y-99250000D01*
X154344000Y-99210000D02*
X163656000Y-99210000D01*
X154362000Y-99170000D02*
X163638000Y-99170000D01*
X154380000Y-99130000D02*
X163620000Y-99130000D01*
X154398000Y-99090000D02*
X163602000Y-99090000D01*
X154417000Y-99050000D02*
X163583000Y-99050000D01*
X154436000Y-99010000D02*
X163564000Y-99010000D01*
X154456000Y-98970000D02*
X163544000Y-98970000D01*
X154476000Y-98930000D02*
X163524000Y-98930000D01*
X154496000Y-98890000D02*
X163504000Y-98890000D01*
X154517000Y-98850000D02*
X163483000Y-98850000D01*
X154539000Y-98810000D02*
X163461000Y-98810000D01*
X154561000Y-98770000D02*
X163439000Y-98770000D01*
X154583000Y-98730000D02*
X157760000Y-98730000D01*
X154606000Y-98690000D02*
X157760000Y-98690000D01*
X154629000Y-98650000D02*
X157760000Y-98650000D01*
X154653000Y-98610000D02*
X157760000Y-98610000D01*
X154677000Y-98570000D02*
X157760000Y-98570000D01*
X154702000Y-98530000D02*
X157760000Y-98530000D01*
X154728000Y-98490000D02*
X157760000Y-98490000D01*
X154753000Y-98450000D02*
X157760000Y-98450000D01*
X154780000Y-98410000D02*
X157760000Y-98410000D01*
X154807000Y-98370000D02*
X157760000Y-98370000D01*
X154834000Y-98330000D02*
X157760000Y-98330000D01*
X154862000Y-98290000D02*
X157760000Y-98290000D01*
X154891000Y-98250000D02*
X157760000Y-98250000D01*
X154920000Y-98210000D02*
X157760000Y-98210000D01*
X154950000Y-98170000D02*
X157760000Y-98170000D01*
X154980000Y-98130000D02*
X157760000Y-98130000D01*
X155012000Y-98090000D02*
X157760000Y-98090000D01*
X155043000Y-98050000D02*
X157760000Y-98050000D01*
X155076000Y-98010000D02*
X157760000Y-98010000D01*
X155109000Y-97970000D02*
X157760000Y-97970000D01*
X155142000Y-97930000D02*
X157760000Y-97930000D01*
X155177000Y-97890000D02*
X157760000Y-97890000D01*
X155212000Y-97850000D02*
X157760000Y-97850000D01*
X155248000Y-97810000D02*
X157760000Y-97810000D01*
X155284000Y-97770000D02*
X157760000Y-97770000D01*
X155322000Y-97730000D02*
X157760000Y-97730000D01*
X155360000Y-97690000D02*
X157760000Y-97690000D01*
X155399000Y-97650000D02*
X157760000Y-97650000D01*
X155439000Y-97610000D02*
X157760000Y-97610000D01*
X155480000Y-97570000D02*
X157760000Y-97570000D01*
X155522000Y-97530000D02*
X157760000Y-97530000D01*
X155565000Y-97490000D02*
X157760000Y-97490000D01*
X155609000Y-97450000D02*
X157760000Y-97450000D01*
X155625000Y-106229646D02*
X156625000Y-106229646D01*
X155653000Y-97410000D02*
X157760000Y-97410000D01*
X155699000Y-97370000D02*
X157760000Y-97370000D01*
X155746000Y-97330000D02*
X157760000Y-97330000D01*
X155795000Y-97290000D02*
X157760000Y-97290000D01*
X155844000Y-97250000D02*
X157760000Y-97250000D01*
X155895000Y-97210000D02*
X157760000Y-97210000D01*
X155947000Y-97170000D02*
X157760000Y-97170000D01*
X156000000Y-97130000D02*
X157760000Y-97130000D01*
X156055000Y-97090000D02*
X157760000Y-97090000D01*
X156112000Y-97050000D02*
X157760000Y-97050000D01*
X156125000Y-106729646D02*
X156125000Y-105729646D01*
X156170000Y-97010000D02*
X157760000Y-97010000D01*
X156230000Y-96970000D02*
X157760000Y-96970000D01*
X156292000Y-96930000D02*
X157760000Y-96930000D01*
X156356000Y-96890000D02*
X157760000Y-96890000D01*
X156422000Y-96850000D02*
X157760000Y-96850000D01*
X156490000Y-96810000D02*
X157760000Y-96810000D01*
X156561000Y-96770000D02*
X157760000Y-96770000D01*
X156635000Y-96730000D02*
X157760000Y-96730000D01*
X156712000Y-96690000D02*
X157760000Y-96690000D01*
X156792000Y-96650000D02*
X157760000Y-96650000D01*
X156876000Y-96610000D02*
X157760000Y-96610000D01*
X156963000Y-96570000D02*
X157760000Y-96570000D01*
X157056000Y-96530000D02*
X157760000Y-96530000D01*
X157154000Y-96490000D02*
X157760000Y-96490000D01*
X157258000Y-96450000D02*
X157760000Y-96450000D01*
X157370000Y-96410000D02*
X157760000Y-96410000D01*
X157491000Y-96370000D02*
X157760000Y-96370000D01*
X157623000Y-96330000D02*
X157760000Y-96330000D01*
X157938000Y-96250000D02*
X160062000Y-96250000D01*
X158138000Y-96210000D02*
X159862000Y-96210000D01*
X158401000Y-96170000D02*
X159599000Y-96170000D01*
X160240000Y-96330000D02*
X160377000Y-96330000D01*
X160240000Y-96370000D02*
X160509000Y-96370000D01*
X160240000Y-96410000D02*
X160630000Y-96410000D01*
X160240000Y-96450000D02*
X160742000Y-96450000D01*
X160240000Y-96490000D02*
X160846000Y-96490000D01*
X160240000Y-96530000D02*
X160944000Y-96530000D01*
X160240000Y-96570000D02*
X161037000Y-96570000D01*
X160240000Y-96610000D02*
X161124000Y-96610000D01*
X160240000Y-96650000D02*
X161208000Y-96650000D01*
X160240000Y-96690000D02*
X161288000Y-96690000D01*
X160240000Y-96730000D02*
X161365000Y-96730000D01*
X160240000Y-96770000D02*
X161439000Y-96770000D01*
X160240000Y-96810000D02*
X161510000Y-96810000D01*
X160240000Y-96850000D02*
X161578000Y-96850000D01*
X160240000Y-96890000D02*
X161644000Y-96890000D01*
X160240000Y-96930000D02*
X161708000Y-96930000D01*
X160240000Y-96970000D02*
X161770000Y-96970000D01*
X160240000Y-97010000D02*
X161830000Y-97010000D01*
X160240000Y-97050000D02*
X161888000Y-97050000D01*
X160240000Y-97090000D02*
X161945000Y-97090000D01*
X160240000Y-97130000D02*
X162000000Y-97130000D01*
X160240000Y-97170000D02*
X162053000Y-97170000D01*
X160240000Y-97210000D02*
X162105000Y-97210000D01*
X160240000Y-97250000D02*
X162156000Y-97250000D01*
X160240000Y-97290000D02*
X162205000Y-97290000D01*
X160240000Y-97330000D02*
X162254000Y-97330000D01*
X160240000Y-97370000D02*
X162301000Y-97370000D01*
X160240000Y-97410000D02*
X162347000Y-97410000D01*
X160240000Y-97450000D02*
X162391000Y-97450000D01*
X160240000Y-97490000D02*
X162435000Y-97490000D01*
X160240000Y-97530000D02*
X162478000Y-97530000D01*
X160240000Y-97570000D02*
X162520000Y-97570000D01*
X160240000Y-97610000D02*
X162561000Y-97610000D01*
X160240000Y-97650000D02*
X162601000Y-97650000D01*
X160240000Y-97690000D02*
X162640000Y-97690000D01*
X160240000Y-97730000D02*
X162678000Y-97730000D01*
X160240000Y-97770000D02*
X162716000Y-97770000D01*
X160240000Y-97810000D02*
X162752000Y-97810000D01*
X160240000Y-97850000D02*
X162788000Y-97850000D01*
X160240000Y-97890000D02*
X162823000Y-97890000D01*
X160240000Y-97930000D02*
X162858000Y-97930000D01*
X160240000Y-97970000D02*
X162891000Y-97970000D01*
X160240000Y-98010000D02*
X162924000Y-98010000D01*
X160240000Y-98050000D02*
X162957000Y-98050000D01*
X160240000Y-98090000D02*
X162988000Y-98090000D01*
X160240000Y-98130000D02*
X163020000Y-98130000D01*
X160240000Y-98170000D02*
X163050000Y-98170000D01*
X160240000Y-98210000D02*
X163080000Y-98210000D01*
X160240000Y-98250000D02*
X163109000Y-98250000D01*
X160240000Y-98290000D02*
X163138000Y-98290000D01*
X160240000Y-98330000D02*
X163166000Y-98330000D01*
X160240000Y-98370000D02*
X163193000Y-98370000D01*
X160240000Y-98410000D02*
X163220000Y-98410000D01*
X160240000Y-98450000D02*
X163247000Y-98450000D01*
X160240000Y-98490000D02*
X163272000Y-98490000D01*
X160240000Y-98530000D02*
X163298000Y-98530000D01*
X160240000Y-98570000D02*
X163323000Y-98570000D01*
X160240000Y-98610000D02*
X163347000Y-98610000D01*
X160240000Y-98650000D02*
X163371000Y-98650000D01*
X160240000Y-98690000D02*
X163394000Y-98690000D01*
X160240000Y-98730000D02*
X163417000Y-98730000D01*
X157740000Y-106212540D02*
G75*
G02*
X160260000Y-106212540I1260000J4962540D01*
G01*
%TO.C,R36*%
X118836359Y-104120000D02*
X119143641Y-104120000D01*
X118836359Y-104880000D02*
X119143641Y-104880000D01*
%TO.C,C10*%
X149490000Y-99584420D02*
X149490000Y-99865580D01*
X150510000Y-99584420D02*
X150510000Y-99865580D01*
%TO.C,R14*%
X124587742Y-98477500D02*
X125062258Y-98477500D01*
X124587742Y-99522500D02*
X125062258Y-99522500D01*
%TO.C,R12*%
X120588750Y-91295042D02*
X120588750Y-91769558D01*
X121633750Y-91295042D02*
X121633750Y-91769558D01*
%TO.C,D1*%
X143900000Y-111635000D02*
X147960000Y-111635000D01*
X147960000Y-109365000D02*
X143900000Y-109365000D01*
X147960000Y-111635000D02*
X147960000Y-109365000D01*
%TO.C,U3*%
X149190000Y-92672500D02*
X149190000Y-88052500D01*
X155960000Y-88052500D02*
X155960000Y-92672500D01*
X149645000Y-94222500D02*
X149885000Y-94552500D01*
X149405000Y-94552500D01*
X149645000Y-94222500D01*
G36*
X149885000Y-94552500D02*
G01*
X149405000Y-94552500D01*
X149645000Y-94222500D01*
X149885000Y-94552500D01*
G37*
%TO.C,R37*%
X119856359Y-103120000D02*
X120163641Y-103120000D01*
X119856359Y-103880000D02*
X120163641Y-103880000D01*
%TO.C,C4*%
X124634420Y-95990000D02*
X124915580Y-95990000D01*
X124634420Y-97010000D02*
X124915580Y-97010000D01*
%TO.C,R19*%
X150962258Y-103477500D02*
X150487742Y-103477500D01*
X150962258Y-104522500D02*
X150487742Y-104522500D01*
%TO.C,R41*%
X130262742Y-67477500D02*
X130737258Y-67477500D01*
X130262742Y-68522500D02*
X130737258Y-68522500D01*
%TO.C,C3*%
X125153170Y-84897300D02*
X125434330Y-84897300D01*
X125153170Y-85917300D02*
X125434330Y-85917300D01*
%TO.C,C16*%
X149715000Y-84859420D02*
X149715000Y-85140580D01*
X150735000Y-84859420D02*
X150735000Y-85140580D01*
%TO.C,R43*%
X153262742Y-66977500D02*
X153737258Y-66977500D01*
X153262742Y-68022500D02*
X153737258Y-68022500D01*
%TO.C,C20*%
X123865580Y-99990000D02*
X123584420Y-99990000D01*
X123865580Y-101010000D02*
X123584420Y-101010000D01*
%TO.C,C11*%
X135260000Y-109270000D02*
X132083000Y-109270000D01*
X135260000Y-109310000D02*
X132106000Y-109310000D01*
X135260000Y-109350000D02*
X132129000Y-109350000D01*
X135260000Y-109390000D02*
X132153000Y-109390000D01*
X135260000Y-109430000D02*
X132177000Y-109430000D01*
X135260000Y-109470000D02*
X132202000Y-109470000D01*
X135260000Y-109510000D02*
X132228000Y-109510000D01*
X135260000Y-109550000D02*
X132253000Y-109550000D01*
X135260000Y-109590000D02*
X132280000Y-109590000D01*
X135260000Y-109630000D02*
X132307000Y-109630000D01*
X135260000Y-109670000D02*
X132334000Y-109670000D01*
X135260000Y-109710000D02*
X132362000Y-109710000D01*
X135260000Y-109750000D02*
X132391000Y-109750000D01*
X135260000Y-109790000D02*
X132420000Y-109790000D01*
X135260000Y-109830000D02*
X132450000Y-109830000D01*
X135260000Y-109870000D02*
X132480000Y-109870000D01*
X135260000Y-109910000D02*
X132512000Y-109910000D01*
X135260000Y-109950000D02*
X132543000Y-109950000D01*
X135260000Y-109990000D02*
X132576000Y-109990000D01*
X135260000Y-110030000D02*
X132609000Y-110030000D01*
X135260000Y-110070000D02*
X132642000Y-110070000D01*
X135260000Y-110110000D02*
X132677000Y-110110000D01*
X135260000Y-110150000D02*
X132712000Y-110150000D01*
X135260000Y-110190000D02*
X132748000Y-110190000D01*
X135260000Y-110230000D02*
X132784000Y-110230000D01*
X135260000Y-110270000D02*
X132822000Y-110270000D01*
X135260000Y-110310000D02*
X132860000Y-110310000D01*
X135260000Y-110350000D02*
X132899000Y-110350000D01*
X135260000Y-110390000D02*
X132939000Y-110390000D01*
X135260000Y-110430000D02*
X132980000Y-110430000D01*
X135260000Y-110470000D02*
X133022000Y-110470000D01*
X135260000Y-110510000D02*
X133065000Y-110510000D01*
X135260000Y-110550000D02*
X133109000Y-110550000D01*
X135260000Y-110590000D02*
X133153000Y-110590000D01*
X135260000Y-110630000D02*
X133199000Y-110630000D01*
X135260000Y-110670000D02*
X133246000Y-110670000D01*
X135260000Y-110710000D02*
X133295000Y-110710000D01*
X135260000Y-110750000D02*
X133344000Y-110750000D01*
X135260000Y-110790000D02*
X133395000Y-110790000D01*
X135260000Y-110830000D02*
X133447000Y-110830000D01*
X135260000Y-110870000D02*
X133500000Y-110870000D01*
X135260000Y-110910000D02*
X133555000Y-110910000D01*
X135260000Y-110950000D02*
X133612000Y-110950000D01*
X135260000Y-110990000D02*
X133670000Y-110990000D01*
X135260000Y-111030000D02*
X133730000Y-111030000D01*
X135260000Y-111070000D02*
X133792000Y-111070000D01*
X135260000Y-111110000D02*
X133856000Y-111110000D01*
X135260000Y-111150000D02*
X133922000Y-111150000D01*
X135260000Y-111190000D02*
X133990000Y-111190000D01*
X135260000Y-111230000D02*
X134061000Y-111230000D01*
X135260000Y-111270000D02*
X134135000Y-111270000D01*
X135260000Y-111310000D02*
X134212000Y-111310000D01*
X135260000Y-111350000D02*
X134292000Y-111350000D01*
X135260000Y-111390000D02*
X134376000Y-111390000D01*
X135260000Y-111430000D02*
X134463000Y-111430000D01*
X135260000Y-111470000D02*
X134556000Y-111470000D01*
X135260000Y-111510000D02*
X134654000Y-111510000D01*
X135260000Y-111550000D02*
X134758000Y-111550000D01*
X135260000Y-111590000D02*
X134870000Y-111590000D01*
X135260000Y-111630000D02*
X134991000Y-111630000D01*
X135260000Y-111670000D02*
X135123000Y-111670000D01*
X137099000Y-111830000D02*
X135901000Y-111830000D01*
X137362000Y-111790000D02*
X135638000Y-111790000D01*
X137562000Y-111750000D02*
X135438000Y-111750000D01*
X137877000Y-111670000D02*
X137740000Y-111670000D01*
X138009000Y-111630000D02*
X137740000Y-111630000D01*
X138130000Y-111590000D02*
X137740000Y-111590000D01*
X138242000Y-111550000D02*
X137740000Y-111550000D01*
X138346000Y-111510000D02*
X137740000Y-111510000D01*
X138444000Y-111470000D02*
X137740000Y-111470000D01*
X138537000Y-111430000D02*
X137740000Y-111430000D01*
X138624000Y-111390000D02*
X137740000Y-111390000D01*
X138708000Y-111350000D02*
X137740000Y-111350000D01*
X138788000Y-111310000D02*
X137740000Y-111310000D01*
X138865000Y-111270000D02*
X137740000Y-111270000D01*
X138939000Y-111230000D02*
X137740000Y-111230000D01*
X139010000Y-111190000D02*
X137740000Y-111190000D01*
X139078000Y-111150000D02*
X137740000Y-111150000D01*
X139144000Y-111110000D02*
X137740000Y-111110000D01*
X139208000Y-111070000D02*
X137740000Y-111070000D01*
X139270000Y-111030000D02*
X137740000Y-111030000D01*
X139330000Y-110990000D02*
X137740000Y-110990000D01*
X139375000Y-101270354D02*
X139375000Y-102270354D01*
X139388000Y-110950000D02*
X137740000Y-110950000D01*
X139445000Y-110910000D02*
X137740000Y-110910000D01*
X139500000Y-110870000D02*
X137740000Y-110870000D01*
X139553000Y-110830000D02*
X137740000Y-110830000D01*
X139605000Y-110790000D02*
X137740000Y-110790000D01*
X139656000Y-110750000D02*
X137740000Y-110750000D01*
X139705000Y-110710000D02*
X137740000Y-110710000D01*
X139754000Y-110670000D02*
X137740000Y-110670000D01*
X139801000Y-110630000D02*
X137740000Y-110630000D01*
X139847000Y-110590000D02*
X137740000Y-110590000D01*
X139875000Y-101770354D02*
X138875000Y-101770354D01*
X139891000Y-110550000D02*
X137740000Y-110550000D01*
X139935000Y-110510000D02*
X137740000Y-110510000D01*
X139978000Y-110470000D02*
X137740000Y-110470000D01*
X140020000Y-110430000D02*
X137740000Y-110430000D01*
X140061000Y-110390000D02*
X137740000Y-110390000D01*
X140101000Y-110350000D02*
X137740000Y-110350000D01*
X140140000Y-110310000D02*
X137740000Y-110310000D01*
X140178000Y-110270000D02*
X137740000Y-110270000D01*
X140216000Y-110230000D02*
X137740000Y-110230000D01*
X140252000Y-110190000D02*
X137740000Y-110190000D01*
X140288000Y-110150000D02*
X137740000Y-110150000D01*
X140323000Y-110110000D02*
X137740000Y-110110000D01*
X140358000Y-110070000D02*
X137740000Y-110070000D01*
X140391000Y-110030000D02*
X137740000Y-110030000D01*
X140424000Y-109990000D02*
X137740000Y-109990000D01*
X140457000Y-109950000D02*
X137740000Y-109950000D01*
X140488000Y-109910000D02*
X137740000Y-109910000D01*
X140520000Y-109870000D02*
X137740000Y-109870000D01*
X140550000Y-109830000D02*
X137740000Y-109830000D01*
X140580000Y-109790000D02*
X137740000Y-109790000D01*
X140609000Y-109750000D02*
X137740000Y-109750000D01*
X140638000Y-109710000D02*
X137740000Y-109710000D01*
X140666000Y-109670000D02*
X137740000Y-109670000D01*
X140693000Y-109630000D02*
X137740000Y-109630000D01*
X140720000Y-109590000D02*
X137740000Y-109590000D01*
X140747000Y-109550000D02*
X137740000Y-109550000D01*
X140772000Y-109510000D02*
X137740000Y-109510000D01*
X140798000Y-109470000D02*
X137740000Y-109470000D01*
X140823000Y-109430000D02*
X137740000Y-109430000D01*
X140847000Y-109390000D02*
X137740000Y-109390000D01*
X140871000Y-109350000D02*
X137740000Y-109350000D01*
X140894000Y-109310000D02*
X137740000Y-109310000D01*
X140917000Y-109270000D02*
X137740000Y-109270000D01*
X140939000Y-109230000D02*
X132061000Y-109230000D01*
X140961000Y-109190000D02*
X132039000Y-109190000D01*
X140983000Y-109150000D02*
X132017000Y-109150000D01*
X141004000Y-109110000D02*
X131996000Y-109110000D01*
X141024000Y-109070000D02*
X131976000Y-109070000D01*
X141044000Y-109030000D02*
X131956000Y-109030000D01*
X141064000Y-108990000D02*
X131936000Y-108990000D01*
X141083000Y-108950000D02*
X131917000Y-108950000D01*
X141102000Y-108910000D02*
X131898000Y-108910000D01*
X141120000Y-108870000D02*
X131880000Y-108870000D01*
X141138000Y-108830000D02*
X131862000Y-108830000D01*
X141156000Y-108790000D02*
X131844000Y-108790000D01*
X141173000Y-108750000D02*
X131827000Y-108750000D01*
X141190000Y-108710000D02*
X131810000Y-108710000D01*
X141206000Y-108670000D02*
X131794000Y-108670000D01*
X141222000Y-108630000D02*
X131778000Y-108630000D01*
X141238000Y-108590000D02*
X131762000Y-108590000D01*
X141253000Y-108550000D02*
X131747000Y-108550000D01*
X141268000Y-108510000D02*
X131732000Y-108510000D01*
X141282000Y-108470000D02*
X131718000Y-108470000D01*
X141297000Y-108430000D02*
X131703000Y-108430000D01*
X141310000Y-108390000D02*
X131690000Y-108390000D01*
X141324000Y-108350000D02*
X131676000Y-108350000D01*
X141337000Y-108310000D02*
X131663000Y-108310000D01*
X141349000Y-108270000D02*
X131651000Y-108270000D01*
X141361000Y-108230000D02*
X131639000Y-108230000D01*
X141373000Y-108190000D02*
X131627000Y-108190000D01*
X141385000Y-108150000D02*
X131615000Y-108150000D01*
X141396000Y-108110000D02*
X131604000Y-108110000D01*
X141407000Y-108070000D02*
X131593000Y-108070000D01*
X141417000Y-108030000D02*
X131583000Y-108030000D01*
X141428000Y-107990000D02*
X131572000Y-107990000D01*
X141437000Y-107950000D02*
X131563000Y-107950000D01*
X141447000Y-107910000D02*
X131553000Y-107910000D01*
X141456000Y-107870000D02*
X131544000Y-107870000D01*
X141465000Y-107830000D02*
X131535000Y-107830000D01*
X141473000Y-107790000D02*
X131527000Y-107790000D01*
X141481000Y-107750000D02*
X131519000Y-107750000D01*
X141489000Y-107710000D02*
X131511000Y-107710000D01*
X141497000Y-107670000D02*
X131503000Y-107670000D01*
X141504000Y-107630000D02*
X131496000Y-107630000D01*
X141511000Y-107590000D02*
X131489000Y-107590000D01*
X141517000Y-107550000D02*
X131483000Y-107550000D01*
X141523000Y-107510000D02*
X131477000Y-107510000D01*
X141529000Y-107470000D02*
X131471000Y-107470000D01*
X141535000Y-107430000D02*
X131465000Y-107430000D01*
X141540000Y-107390000D02*
X131460000Y-107390000D01*
X141545000Y-107350000D02*
X131455000Y-107350000D01*
X141549000Y-107310000D02*
X131451000Y-107310000D01*
X141554000Y-107270000D02*
X131446000Y-107270000D01*
X141557000Y-107230000D02*
X131443000Y-107230000D01*
X141561000Y-107190000D02*
X131439000Y-107190000D01*
X141564000Y-107150000D02*
X131436000Y-107150000D01*
X141567000Y-107110000D02*
X131433000Y-107110000D01*
X141570000Y-107070000D02*
X131430000Y-107070000D01*
X141572000Y-107030000D02*
X131428000Y-107030000D01*
X141574000Y-106990000D02*
X131426000Y-106990000D01*
X141576000Y-106950000D02*
X131424000Y-106950000D01*
X141577000Y-106910000D02*
X131423000Y-106910000D01*
X141579000Y-106830000D02*
X131421000Y-106830000D01*
X141579000Y-106870000D02*
X131421000Y-106870000D01*
X141580000Y-106750000D02*
X131420000Y-106750000D01*
X141580000Y-106790000D02*
X131420000Y-106790000D01*
X137760000Y-101787460D02*
G75*
G02*
X135240000Y-101787460I-1260000J-4962540D01*
G01*
%TO.C,R21*%
X141587742Y-99977500D02*
X142062258Y-99977500D01*
X141587742Y-101022500D02*
X142062258Y-101022500D01*
%TO.C,R35*%
X122937742Y-105977500D02*
X123412258Y-105977500D01*
X122937742Y-107022500D02*
X123412258Y-107022500D01*
%TO.C,U2*%
X122508750Y-90407300D02*
X122508750Y-88457300D01*
X122508750Y-90407300D02*
X122508750Y-92357300D01*
X127628750Y-90407300D02*
X127628750Y-88457300D01*
X127628750Y-90407300D02*
X127628750Y-92357300D01*
X122603750Y-93107300D02*
X122273750Y-93347300D01*
X122273750Y-92867300D01*
X122603750Y-93107300D01*
G36*
X122603750Y-93107300D02*
G01*
X122273750Y-93347300D01*
X122273750Y-92867300D01*
X122603750Y-93107300D01*
G37*
%TO.C,R7*%
X123048992Y-94334800D02*
X123523508Y-94334800D01*
X123048992Y-95379800D02*
X123523508Y-95379800D01*
%TO.C,C13*%
X138265000Y-99238748D02*
X138265000Y-99761252D01*
X139735000Y-99238748D02*
X139735000Y-99761252D01*
%TO.C,U1*%
X124940000Y-102490000D02*
X125390000Y-102490000D01*
X124940000Y-102940000D02*
X124940000Y-102490000D01*
X124940000Y-105710000D02*
X124940000Y-105260000D01*
X125390000Y-105710000D02*
X124940000Y-105710000D01*
X127710000Y-102490000D02*
X128160000Y-102490000D01*
X128160000Y-102490000D02*
X128160000Y-102940000D01*
X128160000Y-105260000D02*
X128160000Y-105710000D01*
X128160000Y-105710000D02*
X127710000Y-105710000D01*
X125750000Y-106240000D02*
X125990000Y-106570000D01*
X125510000Y-106570000D01*
X125750000Y-106240000D01*
G36*
X125990000Y-106570000D02*
G01*
X125510000Y-106570000D01*
X125750000Y-106240000D01*
X125990000Y-106570000D01*
G37*
%TO.C,C8*%
X158490000Y-91365580D02*
X158490000Y-91084420D01*
X159510000Y-91365580D02*
X159510000Y-91084420D01*
%TO.C,U4*%
X135302500Y-97918750D02*
X136822500Y-97918750D01*
X135302500Y-97968750D02*
X135302500Y-97918750D01*
X135302500Y-99868750D02*
X135302500Y-99088750D01*
X135302500Y-101038750D02*
X135302500Y-100988750D01*
X136822500Y-97918750D02*
X136822500Y-98918750D01*
X136822500Y-100038750D02*
X136822500Y-101038750D01*
X136822500Y-101038750D02*
X135302500Y-101038750D01*
X134762500Y-99098750D02*
X135002500Y-99428750D01*
X134522500Y-99428750D01*
X134762500Y-99098750D01*
G36*
X135002500Y-99428750D02*
G01*
X134522500Y-99428750D01*
X134762500Y-99098750D01*
X135002500Y-99428750D01*
G37*
%TO.C,C18*%
X155915580Y-84490000D02*
X155634420Y-84490000D01*
X155915580Y-85510000D02*
X155634420Y-85510000D01*
%TO.C,R46*%
X121346359Y-109120000D02*
X121653641Y-109120000D01*
X121346359Y-109880000D02*
X121653641Y-109880000D01*
%TO.C,C15*%
X146765000Y-99365580D02*
X146765000Y-99084420D01*
X147785000Y-99365580D02*
X147785000Y-99084420D01*
%TD*%
%LPC*%
D16*
X124300000Y-102000000D02*
G75*
G02*
X123700000Y-102000000I-300000J0D01*
G01*
X123700000Y-102000000D02*
G75*
G02*
X124300000Y-102000000I300000J0D01*
G01*
D17*
X128250000Y-106500000D02*
G75*
G02*
X127750000Y-106500000I-250000J0D01*
G01*
X127750000Y-106500000D02*
G75*
G02*
X128250000Y-106500000I250000J0D01*
G01*
D18*
%TO.C,Q1*%
X155220000Y-79200000D03*
D19*
X157500000Y-72900000D03*
D18*
X159780000Y-79200000D03*
%TD*%
D20*
%TO.C,C5*%
X131000000Y-103550000D03*
X131000000Y-102000000D03*
%TD*%
D21*
%TO.C,R23*%
X144792500Y-81700000D03*
X146442500Y-81700000D03*
%TD*%
D22*
%TO.C,R13*%
X122650000Y-96500000D03*
X121000000Y-96500000D03*
%TD*%
D18*
%TO.C,Q3*%
X135037500Y-78975000D03*
D19*
X137317500Y-72675000D03*
D18*
X139597500Y-78975000D03*
%TD*%
D21*
%TO.C,R32*%
X150850000Y-81700000D03*
X152500000Y-81700000D03*
%TD*%
%TO.C,R29*%
X147792500Y-81700000D03*
X149442500Y-81700000D03*
%TD*%
D18*
%TO.C,Q2*%
X145245000Y-78625000D03*
D19*
X147525000Y-72325000D03*
D18*
X149805000Y-78625000D03*
%TD*%
D21*
%TO.C,R24*%
X154127500Y-81700000D03*
X155777500Y-81700000D03*
%TD*%
%TO.C,R28*%
X157350000Y-81700000D03*
X159000000Y-81700000D03*
%TD*%
%TO.C,R30*%
X136850000Y-81500000D03*
X138500000Y-81500000D03*
%TD*%
%TO.C,R15*%
X127568750Y-85407300D03*
X129218750Y-85407300D03*
%TD*%
D23*
%TO.C,C7*%
X149950000Y-105500000D03*
X151500000Y-105500000D03*
%TD*%
D24*
%TO.C,R20*%
X153500000Y-106325000D03*
X153500000Y-104675000D03*
%TD*%
D23*
%TO.C,C19*%
X120950000Y-98000000D03*
X122500000Y-98000000D03*
%TD*%
D24*
%TO.C,R27*%
X143000000Y-83650000D03*
X143000000Y-82000000D03*
%TD*%
D21*
%TO.C,R9*%
X121243750Y-85407300D03*
X122893750Y-85407300D03*
%TD*%
D25*
%TO.C,R44*%
X123500000Y-105000000D03*
X122480000Y-105000000D03*
%TD*%
D26*
%TO.C,R38*%
X120000000Y-102000000D03*
X121020000Y-102000000D03*
%TD*%
D27*
%TO.C,R18*%
X151962500Y-110500000D03*
X149037500Y-110500000D03*
%TD*%
D21*
%TO.C,R25*%
X158000000Y-85000000D03*
X159650000Y-85000000D03*
%TD*%
D28*
%TO.C,C14*%
X155500000Y-95000000D03*
X153950000Y-95000000D03*
%TD*%
%TO.C,C17*%
X153500000Y-85500000D03*
X151950000Y-85500000D03*
%TD*%
D26*
%TO.C,R47*%
X120990000Y-110500000D03*
X122010000Y-110500000D03*
%TD*%
D29*
%TO.C,R40*%
X162500000Y-111325000D03*
X162500000Y-109500000D03*
%TD*%
D26*
%TO.C,R45*%
X120990000Y-108500000D03*
X122010000Y-108500000D03*
%TD*%
D30*
%TO.C,EG1192L1*%
X158650000Y-111310000D03*
X158650000Y-110040000D03*
X158650000Y-108770000D03*
X158650000Y-107500000D03*
X153650000Y-107500000D03*
X153650000Y-108770000D03*
X153650000Y-110040000D03*
X153650000Y-111310000D03*
D31*
X156150000Y-109405000D03*
%TD*%
D22*
%TO.C,R33*%
X141500000Y-81500000D03*
X139850000Y-81500000D03*
%TD*%
%TO.C,R31*%
X161985000Y-81700000D03*
X160335000Y-81700000D03*
%TD*%
D21*
%TO.C,R11*%
X125568750Y-94907300D03*
X127218750Y-94907300D03*
%TD*%
D32*
%TO.C,L1*%
X145500000Y-108000000D03*
X145500000Y-101900000D03*
%TD*%
D24*
%TO.C,R17*%
X160500000Y-111150000D03*
X160500000Y-109500000D03*
%TD*%
D21*
%TO.C,R42*%
X141850000Y-67500000D03*
X143500000Y-67500000D03*
%TD*%
D33*
%TO.C,C6*%
X151500000Y-107000000D03*
X151500000Y-108550000D03*
%TD*%
D34*
%TO.C,C12*%
X133000000Y-98528750D03*
X133000000Y-100428750D03*
%TD*%
D24*
%TO.C,R16*%
X121111250Y-89007300D03*
X121111250Y-87357300D03*
%TD*%
D21*
%TO.C,R26*%
X154950000Y-83450000D03*
X156600000Y-83450000D03*
%TD*%
D22*
%TO.C,R22*%
X138500000Y-83000000D03*
X136850000Y-83000000D03*
%TD*%
D35*
%TO.C,C9*%
X159000000Y-105000000D03*
D36*
X159000000Y-97500000D03*
%TD*%
D26*
%TO.C,R36*%
X118480000Y-104500000D03*
X119500000Y-104500000D03*
%TD*%
D33*
%TO.C,C10*%
X150000000Y-98950000D03*
X150000000Y-100500000D03*
%TD*%
D21*
%TO.C,R14*%
X124000000Y-99000000D03*
X125650000Y-99000000D03*
%TD*%
D37*
%TO.C,R12*%
X121111250Y-90707300D03*
X121111250Y-92357300D03*
%TD*%
D38*
%TO.C,D1*%
X146987500Y-110500000D03*
X144012500Y-110500000D03*
%TD*%
D39*
%TO.C,U3*%
X149650000Y-93225000D03*
X150300000Y-93225000D03*
X150950000Y-93225000D03*
X151600000Y-93225000D03*
X152250000Y-93225000D03*
X152900000Y-93225000D03*
X153550000Y-93225000D03*
X154200000Y-93225000D03*
X154850000Y-93225000D03*
X155500000Y-93225000D03*
X155500000Y-87500000D03*
X154850000Y-87500000D03*
X154200000Y-87500000D03*
X153550000Y-87500000D03*
X152900000Y-87500000D03*
X152250000Y-87500000D03*
X151600000Y-87500000D03*
X150950000Y-87500000D03*
X150300000Y-87500000D03*
X149650000Y-87500000D03*
%TD*%
D26*
%TO.C,R37*%
X119500000Y-103500000D03*
X120520000Y-103500000D03*
%TD*%
D23*
%TO.C,C4*%
X124000000Y-96500000D03*
X125550000Y-96500000D03*
%TD*%
D22*
%TO.C,R19*%
X151550000Y-104000000D03*
X149900000Y-104000000D03*
%TD*%
D21*
%TO.C,R41*%
X129675000Y-68000000D03*
X131325000Y-68000000D03*
%TD*%
D23*
%TO.C,C3*%
X124518750Y-85407300D03*
X126068750Y-85407300D03*
%TD*%
D33*
%TO.C,C16*%
X150225000Y-84225000D03*
X150225000Y-85775000D03*
%TD*%
D21*
%TO.C,R43*%
X152675000Y-67500000D03*
X154325000Y-67500000D03*
%TD*%
D28*
%TO.C,C20*%
X124500000Y-100500000D03*
X122950000Y-100500000D03*
%TD*%
D40*
%TO.C,C11*%
X136500000Y-103000000D03*
D36*
X136500000Y-110500000D03*
%TD*%
D21*
%TO.C,R21*%
X141000000Y-100500000D03*
X142650000Y-100500000D03*
%TD*%
%TO.C,R35*%
X122350000Y-106500000D03*
X124000000Y-106500000D03*
%TD*%
D41*
%TO.C,U2*%
X123163750Y-93032300D03*
X124433750Y-93032300D03*
X125703750Y-93032300D03*
X126973750Y-93032300D03*
X126973750Y-87782300D03*
X125703750Y-87782300D03*
X124433750Y-87782300D03*
X123163750Y-87782300D03*
%TD*%
D21*
%TO.C,R7*%
X122461250Y-94857300D03*
X124111250Y-94857300D03*
%TD*%
D34*
%TO.C,C13*%
X139000000Y-98550000D03*
X139000000Y-100450000D03*
%TD*%
D42*
%TO.C,U1*%
X125750000Y-105550000D03*
X126150000Y-105550000D03*
X126550000Y-105550000D03*
X126950000Y-105550000D03*
X127350000Y-105550000D03*
D43*
X128000000Y-104900000D03*
X128000000Y-104500000D03*
X128000000Y-104100000D03*
X128000000Y-103700000D03*
X128000000Y-103300000D03*
D42*
X127350000Y-102650000D03*
X126950000Y-102650000D03*
X126550000Y-102650000D03*
X126150000Y-102650000D03*
X125750000Y-102650000D03*
D43*
X125100000Y-103300000D03*
X125100000Y-103700000D03*
X125100000Y-104100000D03*
X125100000Y-104500000D03*
X125100000Y-104900000D03*
D44*
X126550000Y-104100000D03*
%TD*%
D20*
%TO.C,C8*%
X159000000Y-92000000D03*
X159000000Y-90450000D03*
%TD*%
D45*
%TO.C,U4*%
X135125000Y-98528750D03*
X135125000Y-100428750D03*
X137000000Y-99478750D03*
%TD*%
D28*
%TO.C,C18*%
X156550000Y-85000000D03*
X155000000Y-85000000D03*
%TD*%
D26*
%TO.C,R46*%
X120990000Y-109500000D03*
X122010000Y-109500000D03*
%TD*%
D20*
%TO.C,C15*%
X147275000Y-100000000D03*
X147275000Y-98450000D03*
%TD*%
D46*
X161500000Y-87500000D03*
X157000000Y-66000000D03*
D47*
X129950000Y-107099999D03*
D48*
X129000000Y-111149997D03*
D49*
X165500000Y-65500000D03*
X166000000Y-110700000D03*
D48*
X126950000Y-106950000D03*
D46*
X161500000Y-94000000D03*
D49*
X119800000Y-65300000D03*
D47*
X125000000Y-111000000D03*
D46*
X134500000Y-66600000D03*
X147000000Y-66300000D03*
D50*
X119000000Y-108000000D03*
X119000000Y-111000000D03*
X119000000Y-109500000D03*
D48*
X126249997Y-111149997D03*
X127500000Y-111149997D03*
X131000000Y-111149997D03*
%LPD*%
M02*
