%TF.GenerationSoftware,KiCad,Pcbnew,10.0.5*%
%TF.CreationDate,2026-07-25T01:18:02+08:00*%
%TF.ProjectId,wfoc,77666f63-2e6b-4696-9361-645f70636258,rev?*%
%TF.SameCoordinates,Original*%
%TF.FileFunction,Copper,L2,Bot*%
%TF.FilePolarity,Positive*%
%FSLAX46Y46*%
G04 Gerber Fmt 4.6, Leading zero omitted, Abs format (unit mm)*
G04 Created by KiCad (PCBNEW 10.0.5) date 2026-07-25 01:18:02*
%MOMM*%
%LPD*%
G01*
G04 APERTURE LIST*
G04 Aperture macros list*
%AMRoundRect*
0 Rectangle with rounded corners*
0 $1 Rounding radius*
0 $2 $3 $4 $5 $6 $7 $8 $9 X,Y pos of 4 corners*
0 Add a 4 corners polygon primitive as box body*
4,1,4,$2,$3,$4,$5,$6,$7,$8,$9,$2,$3,0*
0 Add four circle primitives for the rounded corners*
1,1,$1+$1,$2,$3*
1,1,$1+$1,$4,$5*
1,1,$1+$1,$6,$7*
1,1,$1+$1,$8,$9*
0 Add four rect primitives between the rounded corners*
20,1,$1+$1,$2,$3,$4,$5,0*
20,1,$1+$1,$4,$5,$6,$7,0*
20,1,$1+$1,$6,$7,$8,$9,0*
20,1,$1+$1,$8,$9,$2,$3,0*%
G04 Aperture macros list end*
%TA.AperFunction,SMDPad,CuDef*%
%ADD10RoundRect,0.200000X0.200000X0.275000X-0.200000X0.275000X-0.200000X-0.275000X0.200000X-0.275000X0*%
%TD*%
%TA.AperFunction,ComponentPad*%
%ADD11RoundRect,0.250000X0.750000X-0.750000X0.750000X0.750000X-0.750000X0.750000X-0.750000X-0.750000X0*%
%TD*%
%TA.AperFunction,ComponentPad*%
%ADD12C,2.000000*%
%TD*%
%TA.AperFunction,ComponentPad*%
%ADD13RoundRect,0.250000X-0.750000X0.750000X-0.750000X-0.750000X0.750000X-0.750000X0.750000X0.750000X0*%
%TD*%
%TA.AperFunction,SMDPad,CuDef*%
%ADD14RoundRect,0.200000X0.275000X-0.200000X0.275000X0.200000X-0.275000X0.200000X-0.275000X-0.200000X0*%
%TD*%
%TA.AperFunction,SMDPad,CuDef*%
%ADD15RoundRect,0.250000X0.350000X-0.850000X0.350000X0.850000X-0.350000X0.850000X-0.350000X-0.850000X0*%
%TD*%
%TA.AperFunction,SMDPad,CuDef*%
%ADD16RoundRect,0.249997X2.650003X-2.950003X2.650003X2.950003X-2.650003X2.950003X-2.650003X-2.950003X0*%
%TD*%
%TA.AperFunction,SMDPad,CuDef*%
%ADD17RoundRect,0.250000X1.425000X-0.362500X1.425000X0.362500X-1.425000X0.362500X-1.425000X-0.362500X0*%
%TD*%
%TA.AperFunction,SMDPad,CuDef*%
%ADD18RoundRect,0.200000X-0.200000X-0.275000X0.200000X-0.275000X0.200000X0.275000X-0.200000X0.275000X0*%
%TD*%
%TA.AperFunction,ViaPad*%
%ADD19C,0.600000*%
%TD*%
%TA.AperFunction,ViaPad*%
%ADD20C,0.500000*%
%TD*%
%TA.AperFunction,ViaPad*%
%ADD21C,4.000000*%
%TD*%
%TA.AperFunction,ViaPad*%
%ADD22C,3.000000*%
%TD*%
%TA.AperFunction,ViaPad*%
%ADD23C,0.800000*%
%TD*%
%TA.AperFunction,Conductor*%
%ADD24C,0.600000*%
%TD*%
%TA.AperFunction,Conductor*%
%ADD25C,2.000000*%
%TD*%
%TA.AperFunction,Conductor*%
%ADD26C,6.000000*%
%TD*%
%TA.AperFunction,Conductor*%
%ADD27C,0.200000*%
%TD*%
%TA.AperFunction,Conductor*%
%ADD28C,1.000000*%
%TD*%
%TA.AperFunction,Conductor*%
%ADD29C,1.500000*%
%TD*%
%TA.AperFunction,Conductor*%
%ADD30C,0.500000*%
%TD*%
%TA.AperFunction,Conductor*%
%ADD31C,0.300000*%
%TD*%
G04 APERTURE END LIST*
D10*
%TO.P,R5,2*%
%TO.N,Net-(U2-+INA)*%
X129243750Y-88500000D03*
%TO.P,R5,1*%
%TO.N,Ib_P*%
X130893750Y-88500000D03*
%TD*%
%TO.P,R3,2*%
%TO.N,Net-(U2-+INB)*%
X129243750Y-87000000D03*
%TO.P,R3,1*%
%TO.N,Ia_P*%
X130893750Y-87000000D03*
%TD*%
D11*
%TO.P,C9,1*%
%TO.N,+BATT*%
X159000000Y-105000000D03*
D12*
%TO.P,C9,2*%
%TO.N,Ia_N*%
X159000000Y-97500000D03*
%TD*%
D13*
%TO.P,C11,1*%
%TO.N,+12V*%
X136500000Y-103000000D03*
D12*
%TO.P,C11,2*%
%TO.N,Ia_N*%
X136500000Y-110500000D03*
%TD*%
D14*
%TO.P,TH1,1*%
%TO.N,MotorTemp*%
X135500000Y-74500000D03*
%TO.P,TH1,2*%
%TO.N,+3.3V*%
X135500000Y-72850000D03*
%TD*%
D15*
%TO.P,Q5,1,G_1*%
%TO.N,LO3*%
X162220000Y-79200000D03*
D16*
%TO.P,Q5,2,D_2*%
%TO.N,Motor_W*%
X159940000Y-72900000D03*
D15*
%TO.P,Q5,3,S_3*%
%TO.N,Ia_N*%
X157660000Y-79200000D03*
%TD*%
D17*
%TO.P,R4,1*%
%TO.N,Ia_N*%
X143068750Y-91462500D03*
%TO.P,R4,2*%
%TO.N,Ib_P*%
X143068750Y-85537500D03*
%TD*%
%TO.P,R6,1*%
%TO.N,Ia_N*%
X134568750Y-91500000D03*
%TO.P,R6,2*%
%TO.N,Ia_P*%
X134568750Y-85575000D03*
%TD*%
D15*
%TO.P,Q6,1,G_1*%
%TO.N,LO2*%
X152572500Y-79200000D03*
D16*
%TO.P,Q6,2,D_2*%
%TO.N,Motor_V*%
X150292500Y-72900000D03*
D15*
%TO.P,Q6,3,S_3*%
%TO.N,Ib_P*%
X148012500Y-79200000D03*
%TD*%
D18*
%TO.P,R10,1*%
%TO.N,Net-(U2--INB)*%
X129243750Y-90000000D03*
%TO.P,R10,2*%
%TO.N,Ia_N*%
X130893750Y-90000000D03*
%TD*%
D10*
%TO.P,R8,1*%
%TO.N,Ia_N*%
X130893750Y-91500000D03*
%TO.P,R8,2*%
%TO.N,Net-(U2--INA)*%
X129243750Y-91500000D03*
%TD*%
D15*
%TO.P,Q4,1,G_1*%
%TO.N,LO1*%
X142072500Y-79200000D03*
D16*
%TO.P,Q4,2,D_2*%
%TO.N,Motor_U*%
X139792500Y-72900000D03*
D15*
%TO.P,Q4,3,S_3*%
%TO.N,Ia_P*%
X137512500Y-79200000D03*
%TD*%
D17*
%TO.P,R2,1*%
%TO.N,Ia_N*%
X138568750Y-91537500D03*
%TO.P,R2,2*%
%TO.N,Ia_P*%
X138568750Y-85612500D03*
%TD*%
%TO.P,R1,1*%
%TO.N,Ia_N*%
X147068750Y-91500000D03*
%TO.P,R1,2*%
%TO.N,Ib_P*%
X147068750Y-85575000D03*
%TD*%
D19*
%TO.N,Ia_N*%
X145000000Y-105000000D03*
X143000000Y-105000000D03*
X141000000Y-103000000D03*
X137000000Y-106000000D03*
X134500000Y-106000000D03*
X157000000Y-103500000D03*
X156000000Y-103000000D03*
X155000000Y-102500000D03*
%TO.N,+BATT*%
X164600000Y-75400000D03*
D20*
X144000000Y-72675000D03*
D19*
X166200000Y-74500000D03*
X166200000Y-71500000D03*
D20*
X164350000Y-75150000D03*
X145000000Y-72675000D03*
X165500000Y-72000000D03*
X166200000Y-75500000D03*
X155000000Y-74500000D03*
X135500000Y-76000000D03*
X155000000Y-76250848D03*
X145500000Y-72675000D03*
D21*
X161500000Y-87500000D03*
D20*
X165500000Y-70000000D03*
D19*
X164500000Y-72000000D03*
X164500000Y-70000000D03*
X166200000Y-73500000D03*
X166200000Y-72500000D03*
D21*
%TO.N,Motor_W*%
X157000000Y-66000000D03*
D20*
X159780000Y-79200000D03*
X159940000Y-78000000D03*
X159940000Y-78500000D03*
D19*
%TO.N,+3.3V*%
X121111250Y-92357300D03*
D20*
X129950000Y-107099999D03*
D19*
X129000000Y-111149997D03*
X122010000Y-108500000D03*
X132500000Y-73000000D03*
D20*
X121000000Y-84000000D03*
X120984275Y-87484275D03*
X131000000Y-103550000D03*
D19*
X121111250Y-95000000D03*
X121111250Y-94000000D03*
%TO.N,Ia_N*%
X131500000Y-93500000D03*
X126500000Y-75500000D03*
X150500000Y-97500000D03*
D20*
X163500000Y-96500000D03*
D19*
X158500000Y-88500000D03*
D20*
X131000000Y-102000000D03*
D19*
X128500000Y-72000000D03*
X154500000Y-97000000D03*
D20*
X118480000Y-104500000D03*
D19*
X129500000Y-78000000D03*
D20*
X153500000Y-104675000D03*
X131000000Y-90000000D03*
D19*
X134500000Y-91500000D03*
X138000000Y-92500000D03*
X129500000Y-65500000D03*
D20*
X166500000Y-104000000D03*
D19*
X139000000Y-92500000D03*
D20*
X120000000Y-102000000D03*
D19*
X143000000Y-65500000D03*
X152000000Y-91500000D03*
X143000000Y-91537500D03*
X123000000Y-111500000D03*
D20*
X127000000Y-109500000D03*
D19*
X130500000Y-66000000D03*
X125000000Y-71000000D03*
D20*
X131000000Y-102000000D03*
D19*
X123000000Y-110000000D03*
D20*
X166500000Y-101500000D03*
D19*
X121000000Y-75000000D03*
X128000000Y-83500000D03*
D20*
X132000000Y-101500000D03*
D19*
X123000000Y-69500000D03*
X132500000Y-111000000D03*
X128500000Y-93000000D03*
X163000000Y-66500000D03*
D20*
X129218750Y-85407300D03*
X166500000Y-102500000D03*
D19*
X154000000Y-91500000D03*
X120000000Y-106500000D03*
X126500000Y-73500000D03*
X129500000Y-66000000D03*
X133500000Y-82000000D03*
X134000000Y-92500000D03*
D20*
X126500000Y-109000000D03*
D19*
X165500000Y-67000000D03*
X123000000Y-69500000D03*
X126500000Y-98000000D03*
X153000000Y-91500000D03*
D20*
X157500000Y-94500000D03*
D19*
X124500000Y-77500000D03*
D20*
X147275000Y-98450000D03*
D19*
X135500000Y-91500000D03*
X160500000Y-90500000D03*
D22*
X165500000Y-65500000D03*
D20*
X157500000Y-93500000D03*
D19*
X140500000Y-66500000D03*
X151500000Y-65000000D03*
X121000000Y-100500000D03*
X135000000Y-82000000D03*
X142000000Y-64500000D03*
D20*
X133000000Y-98528750D03*
D19*
X142500000Y-98500000D03*
X157000000Y-92000000D03*
D20*
X120950000Y-98000000D03*
D19*
X145500000Y-92500000D03*
X135000000Y-92500000D03*
X150500000Y-91500000D03*
X153000000Y-65000000D03*
X133000000Y-92500000D03*
X147500000Y-92500000D03*
D20*
X127218750Y-94907300D03*
X161000000Y-107000000D03*
X157500000Y-95500000D03*
D19*
X146500000Y-92500000D03*
X147000000Y-91500000D03*
D20*
X135125000Y-98528750D03*
D19*
X152500000Y-101000000D03*
X121000000Y-81000000D03*
X131000000Y-79500000D03*
X139500000Y-91500000D03*
D20*
X162500000Y-107000000D03*
X164000000Y-107000000D03*
X159000000Y-92000000D03*
X127000000Y-109000000D03*
D19*
X141500000Y-92500000D03*
D20*
X122480000Y-105000000D03*
D22*
X166000000Y-110700000D03*
D19*
X126500000Y-81000000D03*
X133500000Y-81000000D03*
D20*
X122350000Y-106500000D03*
X125000000Y-108000000D03*
D19*
X126950000Y-106950000D03*
D20*
X150000000Y-98950000D03*
D19*
X151500000Y-102000000D03*
X142000000Y-91537500D03*
D20*
X141500000Y-110500000D03*
X163500000Y-92500000D03*
D19*
X133500000Y-83000000D03*
X157660000Y-79200000D03*
D20*
X158650000Y-110040000D03*
D19*
X148000000Y-91500000D03*
X147500000Y-95500000D03*
X124500000Y-83500000D03*
X133500000Y-91500000D03*
X142500000Y-92500000D03*
X133500000Y-95500000D03*
D20*
X159000000Y-83000000D03*
D19*
X129500000Y-82500000D03*
D20*
X142000000Y-110500000D03*
D19*
X138500000Y-91500000D03*
X162000000Y-91000000D03*
X136000000Y-95500000D03*
D20*
X119500000Y-103500000D03*
X131500000Y-101000000D03*
D19*
X119500000Y-107000000D03*
D20*
X131000000Y-91500000D03*
D19*
X146000000Y-91500000D03*
X151500000Y-97000000D03*
D20*
X126550000Y-104100000D03*
D19*
X127500000Y-97500000D03*
D21*
X161500000Y-94000000D03*
D19*
X130500000Y-81000000D03*
D20*
X155500000Y-95000000D03*
D19*
X123000000Y-108500000D03*
X125000000Y-82500000D03*
D20*
X164500000Y-96000000D03*
D19*
X144000000Y-98500000D03*
X157000000Y-90500000D03*
D20*
X160335000Y-81700000D03*
X139000000Y-98550000D03*
D19*
X122500000Y-79000000D03*
X145000000Y-95500000D03*
X145000000Y-98500000D03*
X128000000Y-65500000D03*
X121000000Y-111500000D03*
X127000000Y-69500000D03*
X141500000Y-95500000D03*
X161000000Y-64500000D03*
D20*
X166500000Y-105500000D03*
X127500000Y-109500000D03*
X122950000Y-100500000D03*
D19*
X143500000Y-65000000D03*
D22*
X119800000Y-65300000D03*
D19*
X135000000Y-81000000D03*
X126000000Y-83500000D03*
X122000000Y-111500000D03*
X129000000Y-74000000D03*
X131000000Y-65500000D03*
X137500000Y-91500000D03*
X129500000Y-79500000D03*
X143500000Y-92500000D03*
X137000000Y-92500000D03*
X138500000Y-95500000D03*
X125000000Y-68000000D03*
X126500000Y-82500000D03*
D20*
X127500000Y-109000000D03*
D19*
X124000000Y-75000000D03*
X130500000Y-78000000D03*
X135000000Y-83000000D03*
X128500000Y-81000000D03*
X122500000Y-73000000D03*
D20*
X125000000Y-108500000D03*
D19*
X139500000Y-65500000D03*
X128000000Y-79500000D03*
X122000000Y-76500000D03*
X120500000Y-100000000D03*
X123000000Y-102000000D03*
D20*
X125000000Y-111000000D03*
D19*
X120500000Y-78000000D03*
X144000000Y-91537500D03*
%TO.N,IC_ib*%
X122500000Y-96500000D03*
X128500000Y-101000000D03*
D20*
%TO.N,Motor_U*%
X139792500Y-78402500D03*
X139597500Y-78975000D03*
X139792500Y-77500000D03*
D21*
X134500000Y-66600000D03*
D20*
%TO.N,Ib_P*%
X150850000Y-81700000D03*
D19*
%TO.N,LO2*%
X152500000Y-81700000D03*
D21*
%TO.N,Motor_V*%
X147000000Y-66300000D03*
D20*
X149805000Y-77500000D03*
X149805000Y-78000000D03*
X149805000Y-78625000D03*
D19*
%TO.N,Net-(U2-+INB)*%
X124568750Y-89575000D03*
X129068750Y-87075000D03*
X127068750Y-88075000D03*
D20*
%TO.N,LO1*%
X142072500Y-79200000D03*
X141500000Y-79500000D03*
D19*
%TO.N,Net-(U2--INB)*%
X129000000Y-90075000D03*
D20*
%TO.N,MotorTemp*%
X123500000Y-105000000D03*
D19*
X132000000Y-74500000D03*
D20*
X129000000Y-96000000D03*
D23*
%TO.N,Vol_U*%
X119000000Y-108000000D03*
D19*
X121060000Y-105940000D03*
X121020000Y-102000000D03*
X121000000Y-108500000D03*
D20*
%TO.N,LO3*%
X162000000Y-79500000D03*
D23*
%TO.N,Vol_W*%
X119000000Y-111000000D03*
D20*
%TO.N,Ia_P*%
X139850000Y-81500000D03*
D19*
%TO.N,Net-(U2-+INA)*%
X125568750Y-92575000D03*
X121068750Y-90575000D03*
%TO.N,Vol_V*%
X121000000Y-109500000D03*
X120520000Y-103500000D03*
X120500000Y-105000000D03*
D23*
X119000000Y-109500000D03*
D19*
%TO.N,IC_ia*%
X127500000Y-101000000D03*
X124500000Y-100500000D03*
%TO.N,PWM_AH*%
X132500000Y-93500000D03*
X131500000Y-97500000D03*
%TO.N,PWM_BH*%
X130500000Y-94500000D03*
X129500000Y-106500000D03*
%TO.N,PWM_AL*%
X148000000Y-97500000D03*
X150000000Y-95500000D03*
%TO.N,PWM_BL*%
X129400000Y-98000000D03*
X129400000Y-105500000D03*
%TO.N,Net-(U2--INA)*%
X129068750Y-91575000D03*
%TO.N,UartTX*%
X126249997Y-111149997D03*
%TO.N,UartRX*%
X127500000Y-111149997D03*
%TO.N,PPM_IN*%
X131000000Y-111149997D03*
%TD*%
%TO.N,Motor_W*%
D24*
X159940000Y-72900000D02*
X159940000Y-68940000D01*
D25*
X159940000Y-78000000D02*
X159940000Y-78500000D01*
X159940000Y-79040000D02*
X159780000Y-79200000D01*
D26*
X159940000Y-68940000D02*
X157000000Y-66000000D01*
D25*
X159940000Y-72900000D02*
X159940000Y-78000000D01*
X159940000Y-78500000D02*
X159940000Y-79040000D01*
%TO.N,+3.3V*%
D27*
X129251470Y-107099999D02*
X129950000Y-107099999D01*
X121111250Y-97111250D02*
X122000000Y-98000000D01*
X131000000Y-106000000D02*
X129950000Y-107050000D01*
D24*
X121000000Y-84000000D02*
X121000000Y-87500000D01*
D27*
X121930000Y-105227818D02*
X123052182Y-106350000D01*
X122000000Y-104702182D02*
X121930000Y-104772182D01*
X131000000Y-103550000D02*
X131000000Y-106000000D01*
X123052182Y-106350000D02*
X128501471Y-106350000D01*
X129950000Y-107050000D02*
X129950000Y-107099999D01*
X122000000Y-98000000D02*
X122000000Y-104702182D01*
X121111250Y-95000000D02*
X121111250Y-97111250D01*
D24*
X135500000Y-72850000D02*
X132650000Y-72850000D01*
D27*
X123052182Y-107457818D02*
X123052182Y-106350000D01*
X128501471Y-106350000D02*
X129251470Y-107099999D01*
X121111250Y-92357300D02*
X121111250Y-94000000D01*
X121930000Y-104772182D02*
X121930000Y-105227818D01*
X121111250Y-94000000D02*
X121111250Y-95000000D01*
D24*
X132500000Y-73000000D02*
X132650000Y-72850000D01*
D27*
X122010000Y-108500000D02*
X123052182Y-107457818D01*
%TO.N,Ia_N*%
D28*
X139000000Y-91537500D02*
X141500000Y-91537500D01*
X135500000Y-91500000D02*
X136000000Y-91500000D01*
X119800000Y-65300000D02*
X120700000Y-65300000D01*
D29*
X161500000Y-94000000D02*
X163000000Y-95500000D01*
D28*
X165500000Y-65500000D02*
X167000000Y-65500000D01*
D27*
X119500000Y-103500000D02*
X118500000Y-104500000D01*
D28*
X164700000Y-110700000D02*
X164500000Y-110500000D01*
D30*
X150000000Y-98000000D02*
X150500000Y-97500000D01*
D28*
X145050000Y-98450000D02*
X145000000Y-98500000D01*
D30*
X160335000Y-81700000D02*
X160500000Y-81865000D01*
D24*
X134500000Y-91500000D02*
X134500000Y-92000000D01*
X132000000Y-101500000D02*
X133000000Y-100500000D01*
D28*
X154000000Y-92500000D02*
X154500000Y-92000000D01*
D27*
X122350000Y-106350000D02*
X122000000Y-106000000D01*
D31*
X118480000Y-104980000D02*
X118500000Y-105000000D01*
D28*
X166000000Y-110700000D02*
X166000000Y-109000000D01*
X144000000Y-94500000D02*
X145000000Y-95500000D01*
D27*
X129000000Y-85626050D02*
X129000000Y-86000000D01*
D28*
X154000000Y-91500000D02*
X156500000Y-91500000D01*
X155500000Y-91500000D02*
X157500000Y-93500000D01*
D24*
X128500000Y-93000000D02*
X129000000Y-92500000D01*
D27*
X122480000Y-105000000D02*
X122480000Y-102520000D01*
D30*
X148950000Y-98450000D02*
X149500000Y-99000000D01*
D28*
X134568750Y-91500000D02*
X135000000Y-91500000D01*
D24*
X141606250Y-90000000D02*
X143068750Y-91462500D01*
D30*
X150450000Y-98950000D02*
X152500000Y-101000000D01*
D28*
X156500000Y-91500000D02*
X157000000Y-92000000D01*
D24*
X134500000Y-92000000D02*
X135000000Y-92500000D01*
X128500000Y-93000000D02*
X129393750Y-93000000D01*
D27*
X120000000Y-102000000D02*
X120000000Y-101500000D01*
D28*
X157500000Y-94500000D02*
X161000000Y-94500000D01*
D24*
X129393750Y-93000000D02*
X130893750Y-91500000D01*
X120950000Y-99550000D02*
X120500000Y-100000000D01*
D28*
X135500000Y-91500000D02*
X135500000Y-93500000D01*
D30*
X157660000Y-79200000D02*
X157660000Y-80160000D01*
X160500000Y-81865000D02*
X160500000Y-83000000D01*
D28*
X148000000Y-91500000D02*
X149000000Y-91500000D01*
X153500000Y-104000000D02*
X151500000Y-102000000D01*
D27*
X129218750Y-85407300D02*
X129000000Y-85626050D01*
D24*
X127500000Y-95188550D02*
X127218750Y-94907300D01*
D28*
X154500000Y-92000000D02*
X157000000Y-94500000D01*
D29*
X147000000Y-91500000D02*
X147068750Y-91500000D01*
D27*
X122480000Y-105000000D02*
X122480000Y-104520000D01*
D24*
X129000000Y-92500000D02*
X133000000Y-92500000D01*
X143068750Y-91462500D02*
X143068750Y-93931250D01*
D28*
X141500000Y-91537500D02*
X142000000Y-91537500D01*
X136000000Y-91500000D02*
X137500000Y-91500000D01*
D30*
X159500000Y-82000000D02*
X160035000Y-82000000D01*
D27*
X126950000Y-106950000D02*
X126900000Y-107000000D01*
X126900000Y-107000000D02*
X126000000Y-107000000D01*
X122350000Y-106850000D02*
X122350000Y-106500000D01*
D30*
X149550000Y-98950000D02*
X150000000Y-98950000D01*
D28*
X144000000Y-91537500D02*
X144000000Y-94500000D01*
D27*
X129126050Y-85500000D02*
X128500000Y-85500000D01*
D29*
X147000000Y-91500000D02*
X152000000Y-91500000D01*
D27*
X127000000Y-107000000D02*
X127000000Y-109000000D01*
D28*
X155500000Y-95000000D02*
X156000000Y-95500000D01*
X154000000Y-91500000D02*
X156000000Y-91500000D01*
X149500000Y-92500000D02*
X150500000Y-91500000D01*
D27*
X126950000Y-106950000D02*
X127000000Y-107000000D01*
D28*
X155500000Y-95000000D02*
X156000000Y-94500000D01*
X154000000Y-91500000D02*
X154000000Y-93500000D01*
X157000000Y-94500000D02*
X157500000Y-94500000D01*
D29*
X139500000Y-94500000D02*
X138500000Y-95500000D01*
D30*
X150000000Y-100500000D02*
X151500000Y-102000000D01*
D27*
X122350000Y-106850000D02*
X122500000Y-107000000D01*
D29*
X136000000Y-95000000D02*
X136000000Y-95500000D01*
D30*
X160035000Y-82000000D02*
X160335000Y-81700000D01*
D29*
X130893750Y-91500000D02*
X139500000Y-91500000D01*
D28*
X142000000Y-91537500D02*
X142000000Y-95000000D01*
D30*
X152550000Y-98950000D02*
X154500000Y-97000000D01*
D28*
X135500000Y-93500000D02*
X133500000Y-95500000D01*
D24*
X133000000Y-100500000D02*
X133000000Y-98528750D01*
D28*
X150000000Y-90500000D02*
X151500000Y-90500000D01*
X138978750Y-98528750D02*
X139000000Y-98550000D01*
D24*
X127218750Y-94907300D02*
X127218750Y-97281250D01*
D28*
X119800000Y-65300000D02*
X119800000Y-66200000D01*
D27*
X119500000Y-103500000D02*
X120500000Y-102500000D01*
D24*
X127500000Y-97500000D02*
X127500000Y-95188550D01*
X143068750Y-93931250D02*
X141500000Y-95500000D01*
X133500000Y-92000000D02*
X133000000Y-92500000D01*
X131500000Y-102000000D02*
X132000000Y-101500000D01*
X133500000Y-91500000D02*
X134500000Y-91500000D01*
D28*
X138568750Y-91537500D02*
X139000000Y-91537500D01*
X147031250Y-91537500D02*
X147068750Y-91500000D01*
D29*
X139500000Y-91500000D02*
X139500000Y-94500000D01*
D28*
X161500000Y-94000000D02*
X161500000Y-91500000D01*
D24*
X120950000Y-98000000D02*
X120950000Y-99550000D01*
D28*
X147275000Y-98450000D02*
X145050000Y-98450000D01*
D24*
X132000000Y-91500000D02*
X133000000Y-92500000D01*
D28*
X156000000Y-95500000D02*
X157500000Y-95500000D01*
D29*
X146000000Y-94500000D02*
X145000000Y-95500000D01*
D30*
X150000000Y-98950000D02*
X150450000Y-98950000D01*
D24*
X131000000Y-102000000D02*
X131000000Y-102500000D01*
D28*
X142450000Y-98550000D02*
X142500000Y-98500000D01*
X161000000Y-94500000D02*
X161500000Y-94000000D01*
X145000000Y-91537500D02*
X147031250Y-91537500D01*
D27*
X122350000Y-106500000D02*
X122350000Y-106350000D01*
D24*
X133000000Y-92500000D02*
X145500000Y-92500000D01*
D29*
X161500000Y-94000000D02*
X160500000Y-94000000D01*
D28*
X137500000Y-91500000D02*
X138500000Y-91500000D01*
X138500000Y-91500000D02*
X138531250Y-91500000D01*
X142000000Y-91537500D02*
X143000000Y-91537500D01*
D24*
X130893750Y-91500000D02*
X131000000Y-91500000D01*
D28*
X122950000Y-100500000D02*
X122950000Y-101950000D01*
X153500000Y-88500000D02*
X158500000Y-88500000D01*
D29*
X139500000Y-91500000D02*
X136000000Y-95000000D01*
D30*
X157660000Y-80160000D02*
X159500000Y-82000000D01*
D28*
X143000000Y-91537500D02*
X144000000Y-91537500D01*
X147500000Y-92500000D02*
X149500000Y-92500000D01*
D24*
X134500000Y-91500000D02*
X134568750Y-91500000D01*
D30*
X159035000Y-83000000D02*
X159000000Y-83000000D01*
D27*
X119500000Y-103500000D02*
X119000000Y-103000000D01*
D29*
X161500000Y-94000000D02*
X159000000Y-94000000D01*
D28*
X163500000Y-96000000D02*
X164500000Y-96000000D01*
D31*
X118480000Y-104500000D02*
X119000000Y-104500000D01*
D27*
X119500000Y-103500000D02*
X119500000Y-104000000D01*
X129218750Y-84781250D02*
X129500000Y-84500000D01*
X119500000Y-104000000D02*
X119000000Y-104500000D01*
D28*
X156000000Y-91500000D02*
X157000000Y-90500000D01*
D24*
X127218750Y-94907300D02*
X127218750Y-94281250D01*
X133500000Y-92000000D02*
X134000000Y-92500000D01*
D28*
X119800000Y-66200000D02*
X119000000Y-67000000D01*
D27*
X131000000Y-101500000D02*
X131500000Y-101000000D01*
D24*
X133500000Y-91500000D02*
X133500000Y-92000000D01*
X127218750Y-94281250D02*
X128500000Y-93000000D01*
D28*
X154000000Y-91500000D02*
X155500000Y-91500000D01*
D27*
X122980000Y-105500000D02*
X122480000Y-105000000D01*
D28*
X161500000Y-94000000D02*
X163500000Y-96000000D01*
X154000000Y-91500000D02*
X154500000Y-92000000D01*
D27*
X122980000Y-105500000D02*
X123000000Y-105500000D01*
D29*
X146000000Y-91500000D02*
X146000000Y-94500000D01*
D27*
X118500000Y-104500000D02*
X118480000Y-104500000D01*
X122480000Y-102520000D02*
X123000000Y-102000000D01*
D28*
X147068750Y-91500000D02*
X148000000Y-91500000D01*
D27*
X129218750Y-85407300D02*
X129126050Y-85500000D01*
D28*
X142000000Y-95000000D02*
X141500000Y-95500000D01*
D24*
X155000000Y-88500000D02*
X158500000Y-88500000D01*
D27*
X129218750Y-85407300D02*
X129907300Y-85407300D01*
D28*
X144000000Y-91537500D02*
X145000000Y-91537500D01*
X165500000Y-65500000D02*
X163500000Y-65500000D01*
D30*
X147275000Y-98450000D02*
X148950000Y-98450000D01*
D28*
X165500000Y-65500000D02*
X165500000Y-67000000D01*
D29*
X146000000Y-91500000D02*
X147000000Y-91500000D01*
X147000000Y-95000000D02*
X147500000Y-95500000D01*
D28*
X126550000Y-104100000D02*
X126550000Y-103950000D01*
D30*
X160335000Y-81700000D02*
X159035000Y-83000000D01*
D24*
X131000000Y-102000000D02*
X131500000Y-102000000D01*
D28*
X154000000Y-93500000D02*
X155500000Y-95000000D01*
D29*
X139500000Y-91500000D02*
X146000000Y-91500000D01*
X125000000Y-110000000D02*
X125000000Y-111000000D01*
D27*
X120000000Y-101500000D02*
X121000000Y-100500000D01*
D28*
X135000000Y-91500000D02*
X135500000Y-91500000D01*
X153500000Y-104675000D02*
X153500000Y-104000000D01*
D30*
X160335000Y-81700000D02*
X161035000Y-81000000D01*
D28*
X149000000Y-91500000D02*
X150000000Y-90500000D01*
D27*
X130000000Y-85500000D02*
X129907300Y-85407300D01*
D28*
X151500000Y-90500000D02*
X153500000Y-88500000D01*
X138531250Y-91500000D02*
X138568750Y-91537500D01*
D29*
X161500000Y-92500000D02*
X161000000Y-92000000D01*
D27*
X122480000Y-104520000D02*
X123000000Y-104000000D01*
D28*
X139000000Y-98550000D02*
X142450000Y-98550000D01*
X133000000Y-98528750D02*
X138978750Y-98528750D01*
D29*
X161500000Y-94000000D02*
X161500000Y-92500000D01*
D28*
X126550000Y-103950000D02*
X127000000Y-103500000D01*
D24*
X131000000Y-90000000D02*
X141606250Y-90000000D01*
D30*
X160335000Y-81700000D02*
X160635000Y-82000000D01*
D24*
X127218750Y-97281250D02*
X126500000Y-98000000D01*
X130893750Y-90000000D02*
X131000000Y-90000000D01*
X131000000Y-91500000D02*
X132000000Y-91500000D01*
D30*
X160635000Y-82000000D02*
X161500000Y-82000000D01*
D27*
X121500000Y-106500000D02*
X122350000Y-106500000D01*
D31*
X118480000Y-104980000D02*
X118480000Y-104500000D01*
D24*
X131000000Y-91500000D02*
X133500000Y-91500000D01*
D28*
X122950000Y-101950000D02*
X123000000Y-102000000D01*
D29*
X160500000Y-94000000D02*
X159000000Y-92500000D01*
D28*
X153000000Y-91500000D02*
X154000000Y-90500000D01*
X150500000Y-91500000D02*
X151500000Y-90500000D01*
X154000000Y-90500000D02*
X157000000Y-90500000D01*
D30*
X150000000Y-98950000D02*
X152550000Y-98950000D01*
D28*
X147500000Y-92500000D02*
X154000000Y-92500000D01*
D30*
X150000000Y-98950000D02*
X150000000Y-98000000D01*
D28*
X161500000Y-91500000D02*
X162000000Y-91000000D01*
D24*
X152000000Y-91500000D02*
X155000000Y-88500000D01*
D29*
X147000000Y-91500000D02*
X147000000Y-95000000D01*
D28*
X154000000Y-91500000D02*
X147068750Y-91500000D01*
X166000000Y-110700000D02*
X164700000Y-110700000D01*
D30*
X149500000Y-99000000D02*
X149550000Y-98950000D01*
X150000000Y-98950000D02*
X150000000Y-100500000D01*
D28*
X148000000Y-91500000D02*
X152000000Y-91500000D01*
X156000000Y-94500000D02*
X157500000Y-94500000D01*
D27*
X120000000Y-102000000D02*
X120500000Y-102500000D01*
X131000000Y-102000000D02*
X131000000Y-101500000D01*
X127000000Y-107000000D02*
X128000000Y-107000000D01*
X120000000Y-102000000D02*
X119500000Y-101500000D01*
D28*
X120700000Y-65300000D02*
X121500000Y-64500000D01*
D24*
X131000000Y-102000000D02*
X130600000Y-102000000D01*
D27*
X129218750Y-85407300D02*
X129218750Y-84781250D01*
D30*
X161035000Y-81000000D02*
X161500000Y-81000000D01*
%TO.N,IC_ib*%
D27*
X124000000Y-96500000D02*
X122500000Y-96500000D01*
X128500000Y-101000000D02*
X124000000Y-96500000D01*
%TO.N,Motor_U*%
D26*
X139792500Y-71853632D02*
X134738868Y-66800000D01*
D28*
X139597500Y-78597500D02*
X139597500Y-78975000D01*
D26*
X134738868Y-66800000D02*
X134700000Y-66800000D01*
D25*
X139792500Y-72900000D02*
X139792500Y-77500000D01*
X139792500Y-78402500D02*
X139597500Y-78597500D01*
D26*
X139792500Y-72900000D02*
X139792500Y-71853632D01*
%TO.N,Ib_P*%
D28*
X143068750Y-85537500D02*
X147031250Y-85537500D01*
X148012500Y-79200000D02*
X148012500Y-81465000D01*
X130893750Y-88500000D02*
X140106250Y-88500000D01*
X148012500Y-81465000D02*
X148247500Y-81700000D01*
X148247500Y-84396250D02*
X147068750Y-85575000D01*
X147031250Y-85537500D02*
X147068750Y-85575000D01*
X148247500Y-81700000D02*
X148247500Y-84396250D01*
D27*
X150850000Y-81700000D02*
X148247500Y-81700000D01*
D28*
X140106250Y-88500000D02*
X143068750Y-85537500D01*
%TO.N,LO2*%
D24*
X152572500Y-79200000D02*
X152572500Y-81427500D01*
X152572500Y-81427500D02*
X152500000Y-81500000D01*
%TO.N,Motor_V*%
X150292500Y-72900000D02*
X149805000Y-73387500D01*
D26*
X150292500Y-69592500D02*
X147000000Y-66300000D01*
D25*
X150500000Y-78000000D02*
X150292500Y-77792500D01*
D24*
X149805000Y-73387500D02*
X149805000Y-77500000D01*
X149805000Y-78000000D02*
X149805000Y-78625000D01*
X149805000Y-77500000D02*
X149805000Y-78000000D01*
X150292500Y-72900000D02*
X150292500Y-69592500D01*
D25*
X150292500Y-72900000D02*
X150292500Y-77792500D01*
%TO.N,Net-(U2-+INB)*%
D24*
X124568750Y-89575000D02*
X125568750Y-89575000D01*
X125568750Y-89575000D02*
X127068750Y-88075000D01*
%TO.N,MotorTemp*%
D27*
X128348529Y-102000000D02*
X126500000Y-102000000D01*
X126500000Y-102000000D02*
X123500000Y-105000000D01*
X129000000Y-96000000D02*
X128800000Y-96200000D01*
D24*
X135500000Y-74500000D02*
X132000000Y-74500000D01*
D27*
X128800000Y-96200000D02*
X128800000Y-100451471D01*
X129100000Y-101248529D02*
X128348529Y-102000000D01*
X129100000Y-100751471D02*
X129100000Y-101248529D01*
X128800000Y-100451471D02*
X129100000Y-100751471D01*
%TO.N,Vol_U*%
X121120000Y-108380000D02*
X121000000Y-108500000D01*
X121120000Y-105880000D02*
X121120000Y-102100000D01*
X121060000Y-105940000D02*
X121120000Y-105880000D01*
X121000000Y-106000000D02*
X121060000Y-105940000D01*
X121120000Y-102100000D02*
X121020000Y-102000000D01*
%TO.N,Ia_P*%
D28*
X140000000Y-81650000D02*
X139850000Y-81500000D01*
D24*
X137512500Y-79200000D02*
X137550000Y-79200000D01*
D28*
X138568750Y-85612500D02*
X140000000Y-84181250D01*
X138531250Y-85575000D02*
X138568750Y-85612500D01*
X137181250Y-87000000D02*
X138568750Y-85612500D01*
D24*
X137550000Y-79200000D02*
X139850000Y-81500000D01*
D28*
X140000000Y-84181250D02*
X140000000Y-81650000D01*
X134568750Y-85575000D02*
X138531250Y-85575000D01*
X130893750Y-87000000D02*
X137181250Y-87000000D01*
%TO.N,Net-(U2-+INA)*%
D24*
X126568750Y-90575000D02*
X121068750Y-90575000D01*
X125568750Y-91575000D02*
X125568750Y-92575000D01*
X125568750Y-92575000D02*
X125568750Y-93075000D01*
X128643750Y-88500000D02*
X126568750Y-90575000D01*
X129243750Y-88500000D02*
X128643750Y-88500000D01*
X126568750Y-90575000D02*
X125568750Y-91575000D01*
%TO.N,Vol_V*%
D27*
X120520000Y-103500000D02*
X120520000Y-104980000D01*
X120500000Y-105000000D02*
X120500000Y-104500000D01*
X120520000Y-104980000D02*
X120500000Y-105000000D01*
%TO.N,IC_ia*%
X127500000Y-101000000D02*
X127000000Y-100500000D01*
X127000000Y-100500000D02*
X124500000Y-100500000D01*
%TO.N,PWM_AH*%
X131500000Y-94500000D02*
X131500000Y-97500000D01*
X132500000Y-93500000D02*
X131500000Y-94500000D01*
%TO.N,PWM_BH*%
X130500000Y-94500000D02*
X130000000Y-95000000D01*
X130000000Y-106000000D02*
X129500000Y-106500000D01*
X130000000Y-95000000D02*
X130000000Y-106000000D01*
%TO.N,PWM_AL*%
X150000000Y-95500000D02*
X148000000Y-97500000D01*
%TO.N,PWM_BL*%
X129400000Y-98900000D02*
X129500000Y-99000000D01*
X129500000Y-99000000D02*
X129500000Y-105000000D01*
X129500000Y-105000000D02*
X129400000Y-105100000D01*
X129400000Y-105100000D02*
X129400000Y-105500000D01*
X129400000Y-98000000D02*
X129400000Y-98900000D01*
%TD*%
%TA.AperFunction,Conductor*%
%TO.N,Ia_N*%
G36*
X145401957Y-63501374D02*
G01*
X145403100Y-63501847D01*
X145409326Y-63508069D01*
X145409329Y-63516870D01*
X145409329Y-63516871D01*
X145409192Y-63517202D01*
X145404684Y-63522541D01*
X145145056Y-63685673D01*
X144863995Y-63909812D01*
X144609812Y-64163995D01*
X144385673Y-64445056D01*
X144194436Y-64749410D01*
X144194424Y-64749437D01*
X144194393Y-64749501D01*
X144038516Y-65073181D01*
X144038464Y-65073285D01*
X143976805Y-65249501D01*
X143919737Y-65412594D01*
X143908221Y-65463052D01*
X143839748Y-65763052D01*
X143799500Y-66120264D01*
X143799500Y-66479736D01*
X143839748Y-66836948D01*
X143896374Y-67085044D01*
X143919736Y-67187402D01*
X144038534Y-67526912D01*
X144038745Y-67527293D01*
X144194389Y-67850489D01*
X144194421Y-67850557D01*
X144194438Y-67850593D01*
X144194507Y-67850700D01*
X144385673Y-68154942D01*
X144609812Y-68436003D01*
X145448677Y-69274868D01*
X145452045Y-69283000D01*
X145448677Y-69291132D01*
X145440545Y-69294500D01*
X142588162Y-69294500D01*
X142582216Y-69295170D01*
X142542435Y-69299652D01*
X142537445Y-69300790D01*
X142537444Y-69300791D01*
X142504531Y-69311281D01*
X142504530Y-69311281D01*
X142429938Y-69364208D01*
X142424079Y-69370764D01*
X142387446Y-69429071D01*
X142377109Y-69489926D01*
X142372426Y-69497379D01*
X142365771Y-69499500D01*
X141971610Y-69499500D01*
X141967208Y-69498624D01*
X141963303Y-69497006D01*
X141959573Y-69494514D01*
X136874871Y-64409812D01*
X136593810Y-64185673D01*
X136289568Y-63994507D01*
X136289461Y-63994438D01*
X136289425Y-63994421D01*
X136289357Y-63994389D01*
X135965659Y-63838503D01*
X135965591Y-63838469D01*
X135965574Y-63838462D01*
X135626270Y-63719736D01*
X135545590Y-63701322D01*
X135275816Y-63639748D01*
X134918604Y-63599500D01*
X134918603Y-63599500D01*
X134520265Y-63599500D01*
X134520264Y-63599500D01*
X134423626Y-63610388D01*
X134329783Y-63620961D01*
X134163286Y-63639721D01*
X134163156Y-63639733D01*
X134163062Y-63639746D01*
X134163055Y-63639747D01*
X134163052Y-63639748D01*
X133961841Y-63685673D01*
X133953166Y-63687653D01*
X133812596Y-63719736D01*
X133473286Y-63838464D01*
X133473182Y-63838516D01*
X133149501Y-63994393D01*
X133149437Y-63994424D01*
X133149410Y-63994436D01*
X132845056Y-64185673D01*
X132563995Y-64409812D01*
X132309812Y-64663995D01*
X132085673Y-64945056D01*
X131894436Y-65249410D01*
X131894424Y-65249437D01*
X131894393Y-65249501D01*
X131738516Y-65573182D01*
X131738464Y-65573286D01*
X131619736Y-65912596D01*
X131587990Y-66051687D01*
X131539748Y-66263052D01*
X131499500Y-66620264D01*
X131499500Y-66979736D01*
X131539748Y-67336948D01*
X131583106Y-67526912D01*
X131588509Y-67550585D01*
X131619736Y-67687402D01*
X131738534Y-68026911D01*
X131738745Y-68027292D01*
X131894389Y-68350489D01*
X131894421Y-68350557D01*
X131894438Y-68350593D01*
X131894507Y-68350700D01*
X132085673Y-68654942D01*
X132309812Y-68936003D01*
X132563995Y-69190186D01*
X132755143Y-69342622D01*
X132755624Y-69343028D01*
X132756111Y-69343462D01*
X132756592Y-69343915D01*
X135640927Y-72228250D01*
X135643419Y-72231980D01*
X135643893Y-72233124D01*
X135643894Y-72241926D01*
X135637674Y-72248149D01*
X135636531Y-72248623D01*
X135632126Y-72249500D01*
X135193477Y-72249500D01*
X135100592Y-72264211D01*
X135099911Y-72264264D01*
X135098568Y-72264821D01*
X135098074Y-72265180D01*
X135042140Y-72293680D01*
X134986656Y-72321950D01*
X134964092Y-72344514D01*
X134960364Y-72347005D01*
X134956461Y-72348623D01*
X134952057Y-72349500D01*
X132584108Y-72349500D01*
X132456830Y-72383602D01*
X132456819Y-72383606D01*
X132456804Y-72383612D01*
X132342686Y-72449498D01*
X132099498Y-72692686D01*
X132033612Y-72806804D01*
X132033606Y-72806819D01*
X132033602Y-72806830D01*
X132022335Y-72848884D01*
X131999500Y-72934108D01*
X131999500Y-73065892D01*
X132003687Y-73081519D01*
X132033281Y-73191968D01*
X132033608Y-73193186D01*
X132099500Y-73307314D01*
X132192686Y-73400500D01*
X132306814Y-73466392D01*
X132434108Y-73500500D01*
X132565892Y-73500500D01*
X132693186Y-73466392D01*
X132807314Y-73400500D01*
X132852331Y-73355482D01*
X132856058Y-73352993D01*
X132859965Y-73351374D01*
X132864365Y-73350500D01*
X133283000Y-73350500D01*
X133291132Y-73353868D01*
X133294500Y-73362000D01*
X133294500Y-73988000D01*
X133291132Y-73996132D01*
X133283000Y-73999500D01*
X131934108Y-73999500D01*
X131806830Y-74033602D01*
X131806819Y-74033606D01*
X131806804Y-74033612D01*
X131692686Y-74099498D01*
X131599498Y-74192686D01*
X131533612Y-74306804D01*
X131533606Y-74306819D01*
X131533602Y-74306830D01*
X131499500Y-74434108D01*
X131499500Y-74565890D01*
X131533602Y-74693168D01*
X131533604Y-74693176D01*
X131533606Y-74693180D01*
X131533610Y-74693190D01*
X131589220Y-74789510D01*
X131599500Y-74807314D01*
X131692686Y-74900500D01*
X131806814Y-74966392D01*
X131934108Y-75000500D01*
X133283000Y-75000500D01*
X133291132Y-75003868D01*
X133294500Y-75012000D01*
X133294500Y-75995235D01*
X133310139Y-76073870D01*
X133313283Y-76081459D01*
X133313508Y-76082002D01*
X133358058Y-76148678D01*
X134351322Y-77141942D01*
X134417998Y-77186492D01*
X134422985Y-77188557D01*
X134426129Y-77189860D01*
X134465447Y-77197680D01*
X134504764Y-77205500D01*
X134504765Y-77205500D01*
X138580500Y-77205500D01*
X138588632Y-77208868D01*
X138592000Y-77217000D01*
X138592000Y-77594485D01*
X138621558Y-77781112D01*
X138645361Y-77854374D01*
X138645889Y-77858827D01*
X138645612Y-77862359D01*
X138643451Y-77868219D01*
X138570746Y-77968291D01*
X138570744Y-77968293D01*
X138570743Y-77968296D01*
X138528732Y-78050745D01*
X138484949Y-78136674D01*
X138426558Y-78316386D01*
X138397000Y-78503013D01*
X138397000Y-78691985D01*
X138426558Y-78878612D01*
X138484935Y-79058281D01*
X138484983Y-79058426D01*
X138485167Y-79058752D01*
X138570740Y-79226699D01*
X138681810Y-79379574D01*
X138815426Y-79513190D01*
X138968301Y-79624260D01*
X139136668Y-79710047D01*
X139316382Y-79768440D01*
X139409700Y-79783220D01*
X139503015Y-79798000D01*
X139691983Y-79798000D01*
X139691985Y-79798000D01*
X139766635Y-79786176D01*
X139878618Y-79768440D01*
X140058332Y-79710047D01*
X140226699Y-79624260D01*
X140379574Y-79513190D01*
X140452073Y-79440691D01*
X141049500Y-79440691D01*
X141049500Y-79559308D01*
X141076815Y-79661252D01*
X141080201Y-79673886D01*
X141139511Y-79776613D01*
X141223387Y-79860489D01*
X141264273Y-79884093D01*
X141267639Y-79887046D01*
X141269623Y-79889631D01*
X141272000Y-79896631D01*
X141272000Y-80104276D01*
X141274854Y-80134704D01*
X141319706Y-80262882D01*
X141319937Y-80263249D01*
X141320220Y-80263578D01*
X141336396Y-80285495D01*
X141400350Y-80372150D01*
X141485046Y-80434658D01*
X141508921Y-80452279D01*
X141509458Y-80452741D01*
X141509930Y-80452921D01*
X141510977Y-80453355D01*
X141511457Y-80453436D01*
X141564294Y-80471925D01*
X141637797Y-80497645D01*
X141637798Y-80497645D01*
X141637801Y-80497646D01*
X141637802Y-80497646D01*
X141637822Y-80497653D01*
X141637945Y-80497677D01*
X141638317Y-80497694D01*
X141668234Y-80500500D01*
X141668242Y-80500500D01*
X142476758Y-80500500D01*
X142476766Y-80500500D01*
X142507199Y-80497646D01*
X142635382Y-80452793D01*
X142744650Y-80372150D01*
X142825293Y-80262882D01*
X142870146Y-80134699D01*
X142873000Y-80104266D01*
X142873000Y-78295734D01*
X142870146Y-78265301D01*
X142870144Y-78265294D01*
X142865956Y-78253327D01*
X142836713Y-78169755D01*
X142825292Y-78137116D01*
X142825291Y-78137115D01*
X142825291Y-78137114D01*
X142825062Y-78136751D01*
X142824780Y-78136422D01*
X142807158Y-78112546D01*
X142778426Y-78073615D01*
X142744650Y-78027850D01*
X142645676Y-77954804D01*
X142636078Y-77947720D01*
X142635749Y-77947437D01*
X142635382Y-77947206D01*
X142507204Y-77902354D01*
X142476776Y-77899500D01*
X142476771Y-77899500D01*
X142476766Y-77899500D01*
X141668234Y-77899500D01*
X141668228Y-77899500D01*
X141668222Y-77899500D01*
X141637794Y-77902354D01*
X141509616Y-77947206D01*
X141509247Y-77947438D01*
X141508920Y-77947720D01*
X141400352Y-78027848D01*
X141400348Y-78027852D01*
X141320220Y-78136420D01*
X141319938Y-78136747D01*
X141319706Y-78137116D01*
X141274854Y-78265294D01*
X141272000Y-78295722D01*
X141272000Y-79102516D01*
X141271124Y-79106919D01*
X141269878Y-79109925D01*
X141265004Y-79115481D01*
X141223387Y-79139509D01*
X141139509Y-79223387D01*
X141080202Y-79326110D01*
X141080198Y-79326120D01*
X141065876Y-79379574D01*
X141049500Y-79440691D01*
X140452073Y-79440691D01*
X140708190Y-79184573D01*
X140819260Y-79031699D01*
X140905047Y-78863332D01*
X140963440Y-78683618D01*
X140993000Y-78496981D01*
X140993000Y-78308018D01*
X140991054Y-78295734D01*
X140965932Y-78137115D01*
X140963440Y-78121382D01*
X140909877Y-77956533D01*
X140909314Y-77952979D01*
X140909314Y-77949519D01*
X140909877Y-77945965D01*
X140924047Y-77902354D01*
X140963440Y-77781118D01*
X140981176Y-77669135D01*
X140993000Y-77594483D01*
X140993000Y-77217000D01*
X140996368Y-77208868D01*
X141004500Y-77205500D01*
X149080500Y-77205500D01*
X149088632Y-77208868D01*
X149092000Y-77217000D01*
X149092000Y-77886985D01*
X149121558Y-78073612D01*
X149179935Y-78253281D01*
X149179983Y-78253426D01*
X149180167Y-78253752D01*
X149265740Y-78421699D01*
X149294169Y-78460828D01*
X149301234Y-78470552D01*
X149302866Y-78473754D01*
X149303937Y-78477052D01*
X149304500Y-78480603D01*
X149304500Y-78690892D01*
X149304793Y-78691985D01*
X149317435Y-78739168D01*
X149338602Y-78818168D01*
X149338606Y-78818179D01*
X149338612Y-78818194D01*
X149373496Y-78878615D01*
X149394901Y-78915689D01*
X149404500Y-78932314D01*
X149497686Y-79025500D01*
X149611814Y-79091392D01*
X149739108Y-79125500D01*
X149870891Y-79125500D01*
X149870892Y-79125500D01*
X149991513Y-79093178D01*
X149995685Y-79092850D01*
X149999642Y-79093265D01*
X150003660Y-79094454D01*
X150039168Y-79112547D01*
X150218882Y-79170940D01*
X150304952Y-79184572D01*
X150405514Y-79200500D01*
X150594483Y-79200500D01*
X150594485Y-79200500D01*
X150695041Y-79184573D01*
X150695047Y-79184572D01*
X150781118Y-79170940D01*
X150960832Y-79112547D01*
X151129199Y-79026760D01*
X151282073Y-78915690D01*
X151415690Y-78782073D01*
X151526760Y-78629199D01*
X151612547Y-78460832D01*
X151666195Y-78295722D01*
X151772000Y-78295722D01*
X151772000Y-80104276D01*
X151774854Y-80134704D01*
X151819706Y-80262882D01*
X151819937Y-80263249D01*
X151820220Y-80263578D01*
X151836396Y-80285495D01*
X151900350Y-80372150D01*
X152009618Y-80452793D01*
X152062142Y-80471171D01*
X152066006Y-80473451D01*
X152068128Y-80475348D01*
X152071666Y-80481320D01*
X152071702Y-80481475D01*
X152072000Y-80484077D01*
X152072000Y-81235721D01*
X152071607Y-81238700D01*
X152070849Y-81241526D01*
X152069701Y-81244297D01*
X152033612Y-81306804D01*
X152033606Y-81306819D01*
X152033602Y-81306830D01*
X152008773Y-81399500D01*
X151999500Y-81434108D01*
X151999500Y-81565891D01*
X152003550Y-81581007D01*
X152007449Y-81595560D01*
X152007841Y-81598536D01*
X152007841Y-81601463D01*
X152007448Y-81604439D01*
X151999500Y-81634108D01*
X151999500Y-81765891D01*
X152007785Y-81796811D01*
X152033602Y-81893168D01*
X152033604Y-81893176D01*
X152033606Y-81893180D01*
X152033609Y-81893186D01*
X152033612Y-81893194D01*
X152081774Y-81976613D01*
X152097004Y-82002992D01*
X152099500Y-82007314D01*
X152192686Y-82100500D01*
X152306814Y-82166392D01*
X152434108Y-82200500D01*
X152565892Y-82200500D01*
X152693186Y-82166392D01*
X152807314Y-82100500D01*
X152900500Y-82007314D01*
X152966392Y-81893186D01*
X153000500Y-81765892D01*
X153000500Y-81691774D01*
X153000890Y-81688805D01*
X153001650Y-81685968D01*
X153002795Y-81683204D01*
X153038892Y-81620686D01*
X153072389Y-81495672D01*
X153073000Y-81493393D01*
X153073000Y-81361608D01*
X153073000Y-80485067D01*
X153073873Y-80480671D01*
X153074966Y-80478032D01*
X153079493Y-80472684D01*
X153079626Y-80472600D01*
X153081916Y-80471500D01*
X153135382Y-80452793D01*
X153244650Y-80372150D01*
X153325293Y-80262882D01*
X153370146Y-80134699D01*
X153373000Y-80104266D01*
X153373000Y-79212501D01*
X157060000Y-79212501D01*
X157060000Y-80074622D01*
X157065896Y-80104266D01*
X157074503Y-80147538D01*
X157074504Y-80147543D01*
X157127432Y-80226758D01*
X157129758Y-80230238D01*
X157129761Y-80230241D01*
X157212453Y-80285493D01*
X157212457Y-80285495D01*
X157285378Y-80300000D01*
X157647497Y-80300000D01*
X157647499Y-80300000D01*
X157647500Y-80299999D01*
X157647500Y-79212501D01*
X157672500Y-79212501D01*
X157672500Y-80299999D01*
X157672501Y-80300000D01*
X158034620Y-80300000D01*
X158034622Y-80300000D01*
X158107542Y-80285495D01*
X158107546Y-80285493D01*
X158190238Y-80230241D01*
X158190241Y-80230238D01*
X158245493Y-80147546D01*
X158245495Y-80147542D01*
X158260000Y-80074622D01*
X158260000Y-79212501D01*
X158259999Y-79212500D01*
X158259998Y-79212500D01*
X157672501Y-79212500D01*
X157672500Y-79212501D01*
X157647500Y-79212501D01*
X157647499Y-79212500D01*
X157647498Y-79212500D01*
X157060001Y-79212500D01*
X157060000Y-79212501D01*
X153373000Y-79212501D01*
X153373000Y-78325377D01*
X157060000Y-78325377D01*
X157060000Y-79187499D01*
X157060001Y-79187500D01*
X157647497Y-79187500D01*
X157647499Y-79187500D01*
X157647500Y-79187499D01*
X157647500Y-78100001D01*
X157672500Y-78100001D01*
X157672500Y-79187499D01*
X157672501Y-79187500D01*
X158259997Y-79187500D01*
X158259999Y-79187500D01*
X158260000Y-79187499D01*
X158260000Y-78325377D01*
X158245495Y-78252457D01*
X158245493Y-78252453D01*
X158190241Y-78169761D01*
X158190238Y-78169758D01*
X158141383Y-78137115D01*
X158107543Y-78114504D01*
X158107538Y-78114503D01*
X158070583Y-78107152D01*
X158034622Y-78100000D01*
X158034621Y-78100000D01*
X157672501Y-78100000D01*
X157672500Y-78100001D01*
X157647500Y-78100001D01*
X157647499Y-78100000D01*
X157647498Y-78100000D01*
X157285379Y-78100000D01*
X157285378Y-78100000D01*
X157261294Y-78104790D01*
X157212460Y-78114503D01*
X157212455Y-78114504D01*
X157129764Y-78169755D01*
X157129755Y-78169764D01*
X157074504Y-78252455D01*
X157074503Y-78252460D01*
X157065898Y-78295722D01*
X157060000Y-78325377D01*
X153373000Y-78325377D01*
X153373000Y-78295734D01*
X153370146Y-78265301D01*
X153370144Y-78265294D01*
X153365956Y-78253327D01*
X153336713Y-78169755D01*
X153325292Y-78137116D01*
X153325291Y-78137115D01*
X153325291Y-78137114D01*
X153325062Y-78136751D01*
X153324780Y-78136422D01*
X153307158Y-78112546D01*
X153278426Y-78073615D01*
X153244650Y-78027850D01*
X153145676Y-77954804D01*
X153136078Y-77947720D01*
X153135749Y-77947437D01*
X153135382Y-77947206D01*
X153007204Y-77902354D01*
X152976776Y-77899500D01*
X152976771Y-77899500D01*
X152976766Y-77899500D01*
X152168234Y-77899500D01*
X152168228Y-77899500D01*
X152168222Y-77899500D01*
X152137794Y-77902354D01*
X152009616Y-77947206D01*
X152009247Y-77947438D01*
X152008920Y-77947720D01*
X151900352Y-78027848D01*
X151900348Y-78027852D01*
X151820220Y-78136420D01*
X151819938Y-78136747D01*
X151819706Y-78137116D01*
X151774854Y-78265294D01*
X151772000Y-78295722D01*
X151666195Y-78295722D01*
X151670940Y-78281118D01*
X151693747Y-78137118D01*
X151696239Y-78121384D01*
X151700500Y-78094485D01*
X151700500Y-77905512D01*
X151671082Y-77719780D01*
X151671081Y-77719774D01*
X151671081Y-77719775D01*
X151670940Y-77718884D01*
X151670940Y-77718882D01*
X151630519Y-77594481D01*
X151612548Y-77539171D01*
X151612547Y-77539170D01*
X151612547Y-77539168D01*
X151526760Y-77370801D01*
X151496265Y-77328828D01*
X151494633Y-77325625D01*
X151493561Y-77322326D01*
X151493000Y-77318775D01*
X151493000Y-77217000D01*
X151496368Y-77208868D01*
X151504500Y-77205500D01*
X158728000Y-77205500D01*
X158736132Y-77208868D01*
X158739500Y-77217000D01*
X158739500Y-78593646D01*
X158739182Y-78596332D01*
X158738565Y-78598901D01*
X158737630Y-78601436D01*
X158667449Y-78739174D01*
X158609058Y-78918886D01*
X158579500Y-79105513D01*
X158579500Y-79294485D01*
X158609058Y-79481112D01*
X158667435Y-79660781D01*
X158667483Y-79660926D01*
X158667667Y-79661252D01*
X158753240Y-79829199D01*
X158864310Y-79982074D01*
X158997926Y-80115690D01*
X159150801Y-80226760D01*
X159319168Y-80312547D01*
X159498882Y-80370940D01*
X159592200Y-80385720D01*
X159685515Y-80400500D01*
X159874483Y-80400500D01*
X159874485Y-80400500D01*
X159949135Y-80388676D01*
X160061118Y-80370940D01*
X160240832Y-80312547D01*
X160409199Y-80226760D01*
X160562074Y-80115690D01*
X160855690Y-79822074D01*
X160966760Y-79669199D01*
X161052547Y-79500832D01*
X161110940Y-79321118D01*
X161132103Y-79187499D01*
X161140500Y-79134484D01*
X161140500Y-78295722D01*
X161419500Y-78295722D01*
X161419500Y-80104276D01*
X161422354Y-80134704D01*
X161467206Y-80262882D01*
X161467437Y-80263249D01*
X161467720Y-80263578D01*
X161483896Y-80285495D01*
X161547850Y-80372150D01*
X161632546Y-80434658D01*
X161656421Y-80452279D01*
X161656958Y-80452741D01*
X161657430Y-80452921D01*
X161658477Y-80453355D01*
X161658957Y-80453436D01*
X161711794Y-80471925D01*
X161785297Y-80497645D01*
X161785298Y-80497645D01*
X161785301Y-80497646D01*
X161785302Y-80497646D01*
X161785322Y-80497653D01*
X161785445Y-80497677D01*
X161785817Y-80497694D01*
X161815734Y-80500500D01*
X161815742Y-80500500D01*
X162624258Y-80500500D01*
X162624266Y-80500500D01*
X162654699Y-80497646D01*
X162782882Y-80452793D01*
X162892150Y-80372150D01*
X162972793Y-80262882D01*
X163017646Y-80134699D01*
X163020500Y-80104266D01*
X163020500Y-78295734D01*
X163017646Y-78265301D01*
X163017644Y-78265294D01*
X163013456Y-78253327D01*
X162984213Y-78169755D01*
X162972792Y-78137116D01*
X162972791Y-78137115D01*
X162972791Y-78137114D01*
X162972562Y-78136751D01*
X162972280Y-78136422D01*
X162954658Y-78112546D01*
X162925926Y-78073615D01*
X162892150Y-78027850D01*
X162793176Y-77954804D01*
X162783578Y-77947720D01*
X162783249Y-77947437D01*
X162782882Y-77947206D01*
X162654704Y-77902354D01*
X162624276Y-77899500D01*
X162624271Y-77899500D01*
X162624266Y-77899500D01*
X161815734Y-77899500D01*
X161815728Y-77899500D01*
X161815722Y-77899500D01*
X161785294Y-77902354D01*
X161657116Y-77947206D01*
X161656747Y-77947438D01*
X161656420Y-77947720D01*
X161547852Y-78027848D01*
X161547848Y-78027852D01*
X161467720Y-78136420D01*
X161467438Y-78136747D01*
X161467206Y-78137116D01*
X161422354Y-78265294D01*
X161419500Y-78295722D01*
X161140500Y-78295722D01*
X161140500Y-77217000D01*
X161143868Y-77208868D01*
X161152000Y-77205500D01*
X166995235Y-77205500D01*
X166995236Y-77205500D01*
X167073870Y-77189860D01*
X167082002Y-77186492D01*
X167148678Y-77141942D01*
X167979869Y-76310750D01*
X167988000Y-76307383D01*
X167996132Y-76310751D01*
X167999500Y-76318883D01*
X167999500Y-111999031D01*
X167999482Y-111999664D01*
X167999447Y-112000299D01*
X167999446Y-112000317D01*
X167999392Y-112000954D01*
X167987193Y-112109221D01*
X167986976Y-112110496D01*
X167986690Y-112111747D01*
X167986334Y-112112982D01*
X167950674Y-112214894D01*
X167950179Y-112216088D01*
X167949621Y-112217246D01*
X167948998Y-112218372D01*
X167891558Y-112309786D01*
X167890816Y-112310833D01*
X167890021Y-112311831D01*
X167889158Y-112312798D01*
X167812798Y-112389158D01*
X167811831Y-112390021D01*
X167810833Y-112390816D01*
X167809786Y-112391558D01*
X167718372Y-112448998D01*
X167717246Y-112449621D01*
X167716088Y-112450179D01*
X167714894Y-112450674D01*
X167612982Y-112486334D01*
X167611747Y-112486690D01*
X167610496Y-112486976D01*
X167609221Y-112487193D01*
X167500954Y-112499392D01*
X167500317Y-112499446D01*
X167499664Y-112499482D01*
X167499031Y-112499500D01*
X118500969Y-112499500D01*
X118500334Y-112499482D01*
X118499683Y-112499446D01*
X118499045Y-112499392D01*
X118390777Y-112487193D01*
X118389502Y-112486976D01*
X118388251Y-112486690D01*
X118387016Y-112486334D01*
X118285104Y-112450674D01*
X118283910Y-112450179D01*
X118282752Y-112449621D01*
X118281626Y-112448998D01*
X118190212Y-112391558D01*
X118189165Y-112390816D01*
X118188167Y-112390021D01*
X118187200Y-112389158D01*
X118110840Y-112312798D01*
X118109982Y-112311837D01*
X118109179Y-112310830D01*
X118108440Y-112309786D01*
X118050998Y-112218368D01*
X118050377Y-112217246D01*
X118049816Y-112216081D01*
X118049329Y-112214907D01*
X118013663Y-112112980D01*
X118013308Y-112111747D01*
X118013020Y-112110487D01*
X118012806Y-112109232D01*
X118000605Y-112000936D01*
X118000554Y-112000317D01*
X118000516Y-111999646D01*
X118000500Y-111999031D01*
X118000500Y-110920943D01*
X118399500Y-110920943D01*
X118399500Y-111079057D01*
X118399501Y-111079060D01*
X118399853Y-111080374D01*
X118399853Y-111080375D01*
X118440417Y-111231766D01*
X118440419Y-111231774D01*
X118440421Y-111231778D01*
X118440425Y-111231788D01*
X118504738Y-111343183D01*
X118519480Y-111368716D01*
X118631284Y-111480520D01*
X118768216Y-111559577D01*
X118920943Y-111600500D01*
X119079057Y-111600500D01*
X119231784Y-111559577D01*
X119368716Y-111480520D01*
X119480520Y-111368716D01*
X119559577Y-111231784D01*
X119591844Y-111111361D01*
X119599148Y-111084105D01*
X125749497Y-111084105D01*
X125749497Y-111215889D01*
X125753751Y-111231766D01*
X125753756Y-111231784D01*
X125783599Y-111343165D01*
X125783601Y-111343173D01*
X125783603Y-111343177D01*
X125783607Y-111343187D01*
X125798346Y-111368716D01*
X125849497Y-111457311D01*
X125942683Y-111550497D01*
X126056811Y-111616389D01*
X126184105Y-111650497D01*
X126315889Y-111650497D01*
X126443183Y-111616389D01*
X126557311Y-111550497D01*
X126650497Y-111457311D01*
X126716389Y-111343183D01*
X126750497Y-111215889D01*
X126750497Y-111084105D01*
X126999500Y-111084105D01*
X126999500Y-111215889D01*
X127003754Y-111231766D01*
X127003759Y-111231784D01*
X127033602Y-111343165D01*
X127033604Y-111343173D01*
X127033606Y-111343177D01*
X127033610Y-111343187D01*
X127048349Y-111368716D01*
X127099500Y-111457311D01*
X127192686Y-111550497D01*
X127306814Y-111616389D01*
X127434108Y-111650497D01*
X127565892Y-111650497D01*
X127693186Y-111616389D01*
X127807314Y-111550497D01*
X127900500Y-111457311D01*
X127966392Y-111343183D01*
X128000500Y-111215889D01*
X128000500Y-111084105D01*
X128499500Y-111084105D01*
X128499500Y-111215889D01*
X128503754Y-111231766D01*
X128503759Y-111231784D01*
X128533602Y-111343165D01*
X128533604Y-111343173D01*
X128533606Y-111343177D01*
X128533610Y-111343187D01*
X128548349Y-111368716D01*
X128599500Y-111457311D01*
X128692686Y-111550497D01*
X128806814Y-111616389D01*
X128934108Y-111650497D01*
X129065892Y-111650497D01*
X129193186Y-111616389D01*
X129307314Y-111550497D01*
X129400500Y-111457311D01*
X129466392Y-111343183D01*
X129500500Y-111215889D01*
X129500500Y-111084105D01*
X130499500Y-111084105D01*
X130499500Y-111215889D01*
X130503754Y-111231766D01*
X130503759Y-111231784D01*
X130533602Y-111343165D01*
X130533604Y-111343173D01*
X130533606Y-111343177D01*
X130533610Y-111343187D01*
X130548349Y-111368716D01*
X130599500Y-111457311D01*
X130692686Y-111550497D01*
X130806814Y-111616389D01*
X130934108Y-111650497D01*
X131065892Y-111650497D01*
X131193186Y-111616389D01*
X131307314Y-111550497D01*
X131400500Y-111457311D01*
X131466392Y-111343183D01*
X131500500Y-111215889D01*
X131500500Y-111084105D01*
X131466392Y-110956811D01*
X131400500Y-110842683D01*
X131307314Y-110749497D01*
X131307313Y-110749496D01*
X131307312Y-110749495D01*
X131193195Y-110683610D01*
X131193193Y-110683609D01*
X131193190Y-110683607D01*
X131193188Y-110683606D01*
X131193186Y-110683605D01*
X131193184Y-110683604D01*
X131193173Y-110683599D01*
X131193102Y-110683581D01*
X131065892Y-110649497D01*
X130934108Y-110649497D01*
X130806830Y-110683599D01*
X130806819Y-110683603D01*
X130806817Y-110683604D01*
X130806812Y-110683606D01*
X130806804Y-110683609D01*
X130692686Y-110749495D01*
X130599498Y-110842683D01*
X130533612Y-110956801D01*
X130533606Y-110956816D01*
X130533602Y-110956827D01*
X130500897Y-111078887D01*
X130500886Y-111078932D01*
X130500853Y-111079056D01*
X130499500Y-111084105D01*
X129500500Y-111084105D01*
X129466392Y-110956811D01*
X129400500Y-110842683D01*
X129307314Y-110749497D01*
X129307313Y-110749496D01*
X129307312Y-110749495D01*
X129193195Y-110683610D01*
X129193193Y-110683609D01*
X129193190Y-110683607D01*
X129193188Y-110683606D01*
X129193186Y-110683605D01*
X129193184Y-110683604D01*
X129193173Y-110683599D01*
X129193102Y-110683581D01*
X129065892Y-110649497D01*
X128934108Y-110649497D01*
X128806830Y-110683599D01*
X128806819Y-110683603D01*
X128806817Y-110683604D01*
X128806812Y-110683606D01*
X128806804Y-110683609D01*
X128692686Y-110749495D01*
X128599498Y-110842683D01*
X128533612Y-110956801D01*
X128533606Y-110956816D01*
X128533602Y-110956827D01*
X128500897Y-111078887D01*
X128500886Y-111078932D01*
X128500853Y-111079056D01*
X128499500Y-111084105D01*
X128000500Y-111084105D01*
X127966392Y-110956811D01*
X127900500Y-110842683D01*
X127807314Y-110749497D01*
X127807313Y-110749496D01*
X127807312Y-110749495D01*
X127693195Y-110683610D01*
X127693193Y-110683609D01*
X127693190Y-110683607D01*
X127693188Y-110683606D01*
X127693186Y-110683605D01*
X127693184Y-110683604D01*
X127693173Y-110683599D01*
X127693102Y-110683581D01*
X127565892Y-110649497D01*
X127434108Y-110649497D01*
X127306830Y-110683599D01*
X127306819Y-110683603D01*
X127306817Y-110683604D01*
X127306812Y-110683606D01*
X127306804Y-110683609D01*
X127192686Y-110749495D01*
X127099498Y-110842683D01*
X127033612Y-110956801D01*
X127033606Y-110956816D01*
X127033602Y-110956827D01*
X127000897Y-111078887D01*
X127000886Y-111078932D01*
X127000853Y-111079056D01*
X126999500Y-111084105D01*
X126750497Y-111084105D01*
X126716389Y-110956811D01*
X126650497Y-110842683D01*
X126557311Y-110749497D01*
X126557310Y-110749496D01*
X126557309Y-110749495D01*
X126443192Y-110683610D01*
X126443190Y-110683609D01*
X126443187Y-110683607D01*
X126443185Y-110683606D01*
X126443183Y-110683605D01*
X126443181Y-110683604D01*
X126443170Y-110683599D01*
X126443099Y-110683581D01*
X126315889Y-110649497D01*
X126184105Y-110649497D01*
X126056827Y-110683599D01*
X126056816Y-110683603D01*
X126056814Y-110683604D01*
X126056809Y-110683606D01*
X126056801Y-110683609D01*
X125942683Y-110749495D01*
X125849495Y-110842683D01*
X125783609Y-110956801D01*
X125783603Y-110956816D01*
X125783599Y-110956827D01*
X125750895Y-111078887D01*
X125750850Y-111079056D01*
X125749497Y-111084105D01*
X119599148Y-111084105D01*
X119600147Y-111080375D01*
X119600147Y-111080374D01*
X119600500Y-111079058D01*
X119600500Y-110920943D01*
X119559668Y-110768559D01*
X119559607Y-110768298D01*
X119559576Y-110768214D01*
X119480520Y-110631284D01*
X119368714Y-110519478D01*
X119231793Y-110440428D01*
X119231791Y-110440427D01*
X119231788Y-110440425D01*
X119231786Y-110440424D01*
X119231784Y-110440423D01*
X119231782Y-110440422D01*
X119231771Y-110440417D01*
X119231700Y-110440399D01*
X119125902Y-110412052D01*
X119086555Y-110401509D01*
X135500000Y-110401509D01*
X135500000Y-110598489D01*
X135538423Y-110791665D01*
X135538426Y-110791681D01*
X135538427Y-110791683D01*
X135538428Y-110791688D01*
X135606821Y-110956801D01*
X135613813Y-110973682D01*
X135705808Y-111111362D01*
X135723246Y-111137459D01*
X135784054Y-111198267D01*
X136129475Y-110852844D01*
X136137607Y-110849477D01*
X136145739Y-110852845D01*
X136147154Y-110854260D01*
X136150522Y-110862392D01*
X136147154Y-110870524D01*
X135801733Y-111215945D01*
X135801733Y-111215946D01*
X135862540Y-111276753D01*
X136026319Y-111386187D01*
X136208311Y-111461571D01*
X136208314Y-111461571D01*
X136208315Y-111461572D01*
X136303576Y-111480520D01*
X136401510Y-111500000D01*
X136598489Y-111500000D01*
X136598490Y-111500000D01*
X136791683Y-111461572D01*
X136791688Y-111461571D01*
X136973680Y-111386187D01*
X137137459Y-111276753D01*
X137198267Y-111215946D01*
X136852843Y-110870522D01*
X136849476Y-110862392D01*
X136852843Y-110854261D01*
X136854261Y-110852843D01*
X136862392Y-110849476D01*
X136870522Y-110852843D01*
X137215946Y-111198267D01*
X137276753Y-111137459D01*
X137386187Y-110973680D01*
X137461571Y-110791688D01*
X137461572Y-110791683D01*
X137466241Y-110768214D01*
X137500000Y-110598489D01*
X137500000Y-110401509D01*
X137461572Y-110208315D01*
X137461571Y-110208314D01*
X137461571Y-110208311D01*
X137386187Y-110026319D01*
X137276753Y-109862540D01*
X137215946Y-109801733D01*
X137215945Y-109801733D01*
X136870524Y-110147154D01*
X136862392Y-110150522D01*
X136854260Y-110147154D01*
X136852845Y-110145739D01*
X136849477Y-110137607D01*
X136852845Y-110129475D01*
X137015931Y-109966389D01*
X137198267Y-109784054D01*
X137137459Y-109723246D01*
X137137455Y-109723243D01*
X136973682Y-109613813D01*
X136889775Y-109579057D01*
X136791688Y-109538428D01*
X136791687Y-109538427D01*
X136791683Y-109538426D01*
X136630540Y-109506375D01*
X136598490Y-109500000D01*
X136598489Y-109500000D01*
X136401511Y-109500000D01*
X136401510Y-109500000D01*
X136374019Y-109505467D01*
X136208315Y-109538426D01*
X136208308Y-109538429D01*
X136026316Y-109613813D01*
X135862543Y-109723243D01*
X135801733Y-109784053D01*
X135801733Y-109784054D01*
X136147154Y-110129475D01*
X136150522Y-110137606D01*
X136147154Y-110145738D01*
X136145738Y-110147154D01*
X136137606Y-110150522D01*
X136129475Y-110147154D01*
X135784054Y-109801733D01*
X135784053Y-109801733D01*
X135723243Y-109862543D01*
X135613813Y-110026316D01*
X135538429Y-110208308D01*
X135538426Y-110208315D01*
X135500000Y-110401509D01*
X119086555Y-110401509D01*
X119079057Y-110399500D01*
X118920943Y-110399500D01*
X118768232Y-110440417D01*
X118768221Y-110440421D01*
X118768219Y-110440422D01*
X118768214Y-110440424D01*
X118768206Y-110440427D01*
X118631284Y-110519478D01*
X118519478Y-110631284D01*
X118440427Y-110768206D01*
X118440421Y-110768221D01*
X118440417Y-110768232D01*
X118417746Y-110852845D01*
X118405085Y-110900099D01*
X118399500Y-110920943D01*
X118000500Y-110920943D01*
X118000500Y-109420943D01*
X118399500Y-109420943D01*
X118399500Y-109579056D01*
X118408813Y-109613812D01*
X118440417Y-109731766D01*
X118440419Y-109731774D01*
X118440421Y-109731778D01*
X118440424Y-109731784D01*
X118440427Y-109731792D01*
X118470600Y-109784054D01*
X118484029Y-109807314D01*
X118519480Y-109868716D01*
X118631284Y-109980520D01*
X118768216Y-110059577D01*
X118920943Y-110100500D01*
X119079057Y-110100500D01*
X119231784Y-110059577D01*
X119368716Y-109980520D01*
X119480520Y-109868716D01*
X119559577Y-109731784D01*
X119600500Y-109579057D01*
X119600500Y-109420943D01*
X119559577Y-109268216D01*
X119480520Y-109131284D01*
X119368716Y-109019480D01*
X119368715Y-109019479D01*
X119368714Y-109019478D01*
X119231793Y-108940428D01*
X119231791Y-108940427D01*
X119231788Y-108940425D01*
X119231786Y-108940424D01*
X119231784Y-108940423D01*
X119231782Y-108940422D01*
X119231771Y-108940417D01*
X119231700Y-108940399D01*
X119079057Y-108899500D01*
X118920943Y-108899500D01*
X118768232Y-108940417D01*
X118768221Y-108940421D01*
X118768219Y-108940422D01*
X118768214Y-108940424D01*
X118768206Y-108940427D01*
X118631284Y-109019478D01*
X118519478Y-109131284D01*
X118440427Y-109268206D01*
X118440421Y-109268221D01*
X118440417Y-109268232D01*
X118399500Y-109420943D01*
X118000500Y-109420943D01*
X118000500Y-107920943D01*
X118399500Y-107920943D01*
X118399500Y-108079057D01*
X118404978Y-108099500D01*
X118440421Y-108231778D01*
X118440425Y-108231788D01*
X118483952Y-108307180D01*
X118519480Y-108368716D01*
X118631284Y-108480520D01*
X118768216Y-108559577D01*
X118920943Y-108600500D01*
X119079057Y-108600500D01*
X119231784Y-108559577D01*
X119368716Y-108480520D01*
X119415128Y-108434108D01*
X120499500Y-108434108D01*
X120499500Y-108565892D01*
X120533608Y-108693186D01*
X120599500Y-108807314D01*
X120692686Y-108900500D01*
X120806814Y-108966392D01*
X120874655Y-108984570D01*
X120888574Y-108988299D01*
X120892596Y-108990282D01*
X120893579Y-108991036D01*
X120897981Y-108998658D01*
X120895705Y-109007160D01*
X120895702Y-109007164D01*
X120895540Y-109007375D01*
X120889394Y-109011480D01*
X120806830Y-109033602D01*
X120806819Y-109033606D01*
X120806817Y-109033607D01*
X120806812Y-109033609D01*
X120806804Y-109033612D01*
X120692686Y-109099498D01*
X120599498Y-109192686D01*
X120533612Y-109306804D01*
X120533606Y-109306819D01*
X120533602Y-109306830D01*
X120503027Y-109420943D01*
X120499500Y-109434108D01*
X120499500Y-109565891D01*
X120503028Y-109579057D01*
X120533602Y-109693168D01*
X120533604Y-109693176D01*
X120533606Y-109693180D01*
X120533609Y-109693186D01*
X120533612Y-109693194D01*
X120596276Y-109801733D01*
X120596277Y-109801733D01*
X120599500Y-109807314D01*
X120692686Y-109900500D01*
X120806814Y-109966392D01*
X120934108Y-110000500D01*
X121065892Y-110000500D01*
X121193186Y-109966392D01*
X121307314Y-109900500D01*
X121400500Y-109807314D01*
X121466392Y-109693186D01*
X121500500Y-109565892D01*
X121500500Y-109434108D01*
X121466392Y-109306814D01*
X121400500Y-109192686D01*
X121307314Y-109099500D01*
X121307313Y-109099499D01*
X121307312Y-109099498D01*
X121193195Y-109033613D01*
X121193193Y-109033612D01*
X121193190Y-109033610D01*
X121193188Y-109033609D01*
X121193186Y-109033608D01*
X121193184Y-109033607D01*
X121193173Y-109033602D01*
X121193102Y-109033584D01*
X121111425Y-109011700D01*
X121107402Y-109009717D01*
X121106419Y-109008963D01*
X121102017Y-109001341D01*
X121104293Y-108992839D01*
X121104296Y-108992835D01*
X121104458Y-108992624D01*
X121110602Y-108988519D01*
X121193186Y-108966392D01*
X121307314Y-108900500D01*
X121400500Y-108807314D01*
X121466392Y-108693186D01*
X121493301Y-108592756D01*
X121495282Y-108588739D01*
X121496040Y-108587752D01*
X121503661Y-108583354D01*
X121512162Y-108585634D01*
X121512163Y-108585634D01*
X121512374Y-108585796D01*
X121516479Y-108591942D01*
X121543606Y-108693180D01*
X121543608Y-108693186D01*
X121609500Y-108807314D01*
X121702686Y-108900500D01*
X121816814Y-108966392D01*
X121944108Y-109000500D01*
X122075892Y-109000500D01*
X122203186Y-108966392D01*
X122317314Y-108900500D01*
X122410500Y-108807314D01*
X122476392Y-108693186D01*
X122510500Y-108565892D01*
X122510500Y-108434108D01*
X122510498Y-108434103D01*
X122510460Y-108433811D01*
X122510459Y-108430811D01*
X122510902Y-108427429D01*
X122514171Y-108420797D01*
X123292642Y-107642329D01*
X123299019Y-107631284D01*
X123332203Y-107573807D01*
X123352682Y-107497380D01*
X123352682Y-106664287D01*
X123353555Y-106659893D01*
X123353764Y-106659385D01*
X123354225Y-106658273D01*
X123360440Y-106652049D01*
X123361567Y-106651582D01*
X123362075Y-106651373D01*
X123366469Y-106650500D01*
X128369949Y-106650500D01*
X128374347Y-106651374D01*
X128378255Y-106652993D01*
X128381985Y-106655485D01*
X129066959Y-107340459D01*
X129135482Y-107380021D01*
X129211908Y-107400499D01*
X129291032Y-107400499D01*
X129606347Y-107400499D01*
X129610745Y-107401373D01*
X129614653Y-107402992D01*
X129618383Y-107405484D01*
X129673387Y-107460488D01*
X129776114Y-107519798D01*
X129890691Y-107550499D01*
X130009309Y-107550499D01*
X130123886Y-107519798D01*
X130226613Y-107460488D01*
X130310489Y-107376612D01*
X130369799Y-107273885D01*
X130400500Y-107159308D01*
X130400500Y-107040690D01*
X130399381Y-107036518D01*
X130399088Y-107032044D01*
X130399512Y-107028817D01*
X130402781Y-107022187D01*
X131240460Y-106184511D01*
X131254599Y-106160021D01*
X131280021Y-106115989D01*
X131300500Y-106039562D01*
X131300500Y-103893653D01*
X131301375Y-103889253D01*
X131302992Y-103885348D01*
X131305482Y-103881619D01*
X131360489Y-103826613D01*
X131419799Y-103723886D01*
X131450500Y-103609309D01*
X131450500Y-103490691D01*
X131419799Y-103376114D01*
X131360489Y-103273387D01*
X131276613Y-103189511D01*
X131276612Y-103189510D01*
X131276611Y-103189509D01*
X131180539Y-103134042D01*
X131178549Y-103131449D01*
X131059309Y-103099500D01*
X130940691Y-103099500D01*
X130826120Y-103130198D01*
X130826110Y-103130202D01*
X130723387Y-103189509D01*
X130639509Y-103273387D01*
X130580202Y-103376110D01*
X130580198Y-103376120D01*
X130564661Y-103434108D01*
X130549500Y-103490691D01*
X130549500Y-103609308D01*
X130561957Y-103655800D01*
X130580198Y-103723878D01*
X130580202Y-103723888D01*
X130639509Y-103826611D01*
X130694514Y-103881616D01*
X130697006Y-103885346D01*
X130698624Y-103889251D01*
X130699500Y-103893653D01*
X130699500Y-105868476D01*
X130698624Y-105872878D01*
X130697006Y-105876783D01*
X130694514Y-105880513D01*
X130021749Y-106553278D01*
X130018019Y-106555770D01*
X130016875Y-106556244D01*
X130008073Y-106556245D01*
X130001849Y-106550022D01*
X130001846Y-106550014D01*
X130001373Y-106548870D01*
X130000500Y-106544476D01*
X130000500Y-106434113D01*
X130000500Y-106434109D01*
X130000500Y-106434108D01*
X130000498Y-106434103D01*
X130000460Y-106433811D01*
X130000459Y-106430811D01*
X130000902Y-106427429D01*
X130004171Y-106420797D01*
X130240460Y-106184511D01*
X130280022Y-106115988D01*
X130300500Y-106039562D01*
X130300500Y-105960438D01*
X130300500Y-102195722D01*
X135299500Y-102195722D01*
X135299500Y-103804276D01*
X135302354Y-103834704D01*
X135347206Y-103962882D01*
X135347437Y-103963249D01*
X135347720Y-103963578D01*
X135427850Y-104072150D01*
X135512546Y-104134658D01*
X135536421Y-104152279D01*
X135536958Y-104152741D01*
X135537430Y-104152921D01*
X135538477Y-104153355D01*
X135538957Y-104153436D01*
X135572853Y-104165297D01*
X135665297Y-104197645D01*
X135665298Y-104197645D01*
X135665301Y-104197646D01*
X135665302Y-104197646D01*
X135665322Y-104197653D01*
X135665445Y-104197677D01*
X135665817Y-104197694D01*
X135695734Y-104200500D01*
X135695742Y-104200500D01*
X137304258Y-104200500D01*
X137304266Y-104200500D01*
X137334699Y-104197646D01*
X137340198Y-104195722D01*
X157799500Y-104195722D01*
X157799500Y-105804276D01*
X157802354Y-105834704D01*
X157847206Y-105962882D01*
X157847437Y-105963249D01*
X157847720Y-105963578D01*
X157887528Y-106017516D01*
X157927850Y-106072150D01*
X157964910Y-106099501D01*
X157987249Y-106115988D01*
X158036421Y-106152279D01*
X158036958Y-106152741D01*
X158037430Y-106152921D01*
X158038477Y-106153355D01*
X158038958Y-106153436D01*
X158057775Y-106160021D01*
X158165297Y-106197645D01*
X158165298Y-106197645D01*
X158165301Y-106197646D01*
X158165302Y-106197646D01*
X158165322Y-106197653D01*
X158165445Y-106197677D01*
X158165817Y-106197694D01*
X158195734Y-106200500D01*
X158195742Y-106200500D01*
X159804258Y-106200500D01*
X159804266Y-106200500D01*
X159834699Y-106197646D01*
X159962882Y-106152793D01*
X160072150Y-106072150D01*
X160152793Y-105962882D01*
X160197646Y-105834699D01*
X160200500Y-105804266D01*
X160200500Y-104195734D01*
X160197646Y-104165301D01*
X160193269Y-104152793D01*
X160152792Y-104037116D01*
X160152791Y-104037115D01*
X160152561Y-104036749D01*
X160152278Y-104036420D01*
X160098005Y-103962883D01*
X160072151Y-103927852D01*
X160072150Y-103927850D01*
X160011697Y-103883234D01*
X159963578Y-103847720D01*
X159963249Y-103847437D01*
X159962882Y-103847206D01*
X159834704Y-103802354D01*
X159804276Y-103799500D01*
X159804271Y-103799500D01*
X159804266Y-103799500D01*
X158195734Y-103799500D01*
X158195728Y-103799500D01*
X158195722Y-103799500D01*
X158165294Y-103802354D01*
X158037116Y-103847206D01*
X158036747Y-103847438D01*
X158036420Y-103847720D01*
X157927852Y-103927848D01*
X157927848Y-103927852D01*
X157847720Y-104036420D01*
X157847438Y-104036747D01*
X157847206Y-104037116D01*
X157802354Y-104165294D01*
X157799500Y-104195722D01*
X137340198Y-104195722D01*
X137371971Y-104184604D01*
X137462882Y-104152793D01*
X137572150Y-104072150D01*
X137652793Y-103962882D01*
X137697646Y-103834699D01*
X137700500Y-103804266D01*
X137700500Y-102195734D01*
X137697646Y-102165301D01*
X137652793Y-102037118D01*
X137572150Y-101927850D01*
X137517516Y-101887528D01*
X137463578Y-101847720D01*
X137463249Y-101847437D01*
X137462882Y-101847206D01*
X137334704Y-101802354D01*
X137304276Y-101799500D01*
X137304271Y-101799500D01*
X137304266Y-101799500D01*
X135695734Y-101799500D01*
X135695728Y-101799500D01*
X135695722Y-101799500D01*
X135665294Y-101802354D01*
X135537116Y-101847206D01*
X135536747Y-101847438D01*
X135536420Y-101847720D01*
X135427852Y-101927848D01*
X135427848Y-101927852D01*
X135347720Y-102036420D01*
X135347438Y-102036747D01*
X135347206Y-102037116D01*
X135302354Y-102165294D01*
X135299500Y-102195722D01*
X130300500Y-102195722D01*
X130300500Y-97434108D01*
X130999500Y-97434108D01*
X130999500Y-97565891D01*
X131004935Y-97586177D01*
X131033602Y-97693168D01*
X131033604Y-97693176D01*
X131033606Y-97693180D01*
X131033609Y-97693186D01*
X131033612Y-97693194D01*
X131090479Y-97791690D01*
X131099322Y-97807007D01*
X131099500Y-97807314D01*
X131192686Y-97900500D01*
X131306814Y-97966392D01*
X131434108Y-98000500D01*
X131565892Y-98000500D01*
X131693186Y-97966392D01*
X131807314Y-97900500D01*
X131900500Y-97807314D01*
X131966392Y-97693186D01*
X132000500Y-97565892D01*
X132000500Y-97434108D01*
X147499500Y-97434108D01*
X147499500Y-97565891D01*
X147504935Y-97586177D01*
X147533602Y-97693168D01*
X147533604Y-97693176D01*
X147533606Y-97693180D01*
X147533609Y-97693186D01*
X147533612Y-97693194D01*
X147590479Y-97791690D01*
X147599322Y-97807007D01*
X147599500Y-97807314D01*
X147692686Y-97900500D01*
X147806814Y-97966392D01*
X147934108Y-98000500D01*
X148065892Y-98000500D01*
X148193186Y-97966392D01*
X148307314Y-97900500D01*
X148400500Y-97807314D01*
X148466392Y-97693186D01*
X148500500Y-97565892D01*
X148500500Y-97434108D01*
X148500498Y-97434103D01*
X148500460Y-97433811D01*
X148500459Y-97430811D01*
X148500902Y-97427429D01*
X148504171Y-97420797D01*
X148523459Y-97401509D01*
X158000000Y-97401509D01*
X158000000Y-97598489D01*
X158038423Y-97791665D01*
X158038426Y-97791681D01*
X158038427Y-97791683D01*
X158038428Y-97791688D01*
X158044774Y-97807007D01*
X158113813Y-97973682D01*
X158217751Y-98129235D01*
X158223246Y-98137459D01*
X158284054Y-98198267D01*
X158629475Y-97852844D01*
X158637607Y-97849477D01*
X158645739Y-97852845D01*
X158647154Y-97854260D01*
X158650522Y-97862392D01*
X158647154Y-97870524D01*
X158301733Y-98215945D01*
X158301733Y-98215946D01*
X158362540Y-98276753D01*
X158526319Y-98386187D01*
X158708311Y-98461571D01*
X158708314Y-98461571D01*
X158708315Y-98461572D01*
X158804913Y-98480786D01*
X158901510Y-98500000D01*
X159098489Y-98500000D01*
X159098490Y-98500000D01*
X159291683Y-98461572D01*
X159291688Y-98461571D01*
X159473680Y-98386187D01*
X159637459Y-98276753D01*
X159698267Y-98215946D01*
X159352843Y-97870522D01*
X159349476Y-97862392D01*
X159352843Y-97854261D01*
X159354261Y-97852843D01*
X159362392Y-97849476D01*
X159370522Y-97852843D01*
X159715946Y-98198267D01*
X159776753Y-98137459D01*
X159886187Y-97973680D01*
X159961571Y-97791688D01*
X159961572Y-97791683D01*
X159981163Y-97693194D01*
X160000000Y-97598489D01*
X160000000Y-97401509D01*
X159961572Y-97208315D01*
X159961571Y-97208314D01*
X159961571Y-97208311D01*
X159886187Y-97026319D01*
X159776753Y-96862540D01*
X159715946Y-96801733D01*
X159715945Y-96801733D01*
X159370524Y-97147154D01*
X159362392Y-97150522D01*
X159354260Y-97147154D01*
X159352845Y-97145739D01*
X159349477Y-97137607D01*
X159352845Y-97129475D01*
X159515931Y-96966389D01*
X159698267Y-96784054D01*
X159637459Y-96723246D01*
X159637455Y-96723243D01*
X159473682Y-96613813D01*
X159357987Y-96565890D01*
X159291688Y-96538428D01*
X159291687Y-96538427D01*
X159291683Y-96538426D01*
X159130540Y-96506375D01*
X159098490Y-96500000D01*
X159098489Y-96500000D01*
X158901511Y-96500000D01*
X158901510Y-96500000D01*
X158874019Y-96505467D01*
X158708315Y-96538426D01*
X158708308Y-96538429D01*
X158526316Y-96613813D01*
X158362543Y-96723243D01*
X158301733Y-96784053D01*
X158301733Y-96784054D01*
X158647154Y-97129475D01*
X158650522Y-97137606D01*
X158647154Y-97145738D01*
X158645738Y-97147154D01*
X158637606Y-97150522D01*
X158629475Y-97147154D01*
X158284054Y-96801733D01*
X158284053Y-96801733D01*
X158223243Y-96862543D01*
X158113813Y-97026316D01*
X158038429Y-97208308D01*
X158038426Y-97208315D01*
X158000000Y-97401509D01*
X148523459Y-97401509D01*
X149920198Y-96004770D01*
X149923924Y-96002281D01*
X149926932Y-96001035D01*
X149933333Y-96000617D01*
X149933362Y-96000402D01*
X149934106Y-96000500D01*
X149934108Y-96000500D01*
X149934110Y-96000500D01*
X150065892Y-96000500D01*
X150193186Y-95966392D01*
X150307314Y-95900500D01*
X150400500Y-95807314D01*
X150466392Y-95693186D01*
X150500500Y-95565892D01*
X150500500Y-95434108D01*
X150466392Y-95306814D01*
X150400500Y-95192686D01*
X150307314Y-95099500D01*
X150307313Y-95099499D01*
X150307312Y-95099498D01*
X150193195Y-95033613D01*
X150193193Y-95033612D01*
X150193190Y-95033610D01*
X150193188Y-95033609D01*
X150193186Y-95033608D01*
X150193184Y-95033607D01*
X150193173Y-95033602D01*
X150193102Y-95033584D01*
X150065892Y-94999500D01*
X149934108Y-94999500D01*
X149806830Y-95033602D01*
X149806819Y-95033606D01*
X149806817Y-95033607D01*
X149806812Y-95033609D01*
X149806804Y-95033612D01*
X149692686Y-95099498D01*
X149599498Y-95192686D01*
X149533612Y-95306804D01*
X149533606Y-95306819D01*
X149533602Y-95306830D01*
X149499500Y-95434108D01*
X149499500Y-95565894D01*
X149499540Y-95566200D01*
X149499538Y-95569197D01*
X149499092Y-95572576D01*
X149495823Y-95579203D01*
X148079803Y-96995223D01*
X148076073Y-96997715D01*
X148073066Y-96998961D01*
X148066667Y-96999381D01*
X148066639Y-96999598D01*
X148065893Y-96999500D01*
X148065892Y-96999500D01*
X147934108Y-96999500D01*
X147806830Y-97033602D01*
X147806819Y-97033606D01*
X147806804Y-97033612D01*
X147692686Y-97099498D01*
X147599498Y-97192686D01*
X147533612Y-97306804D01*
X147533607Y-97306816D01*
X147533601Y-97306834D01*
X147533556Y-97307005D01*
X147533550Y-97307027D01*
X147499500Y-97434108D01*
X132000500Y-97434108D01*
X131966392Y-97306814D01*
X131900500Y-97192686D01*
X131807314Y-97099500D01*
X131807311Y-97099498D01*
X131807310Y-97099497D01*
X131807064Y-97099308D01*
X131804945Y-97097186D01*
X131802874Y-97094485D01*
X131800500Y-97087488D01*
X131800500Y-94631520D01*
X131801375Y-94627121D01*
X131802991Y-94623218D01*
X131805481Y-94619488D01*
X132420198Y-94004770D01*
X132423924Y-94002281D01*
X132426932Y-94001035D01*
X132433333Y-94000617D01*
X132433362Y-94000402D01*
X132434106Y-94000500D01*
X132434108Y-94000500D01*
X132434110Y-94000500D01*
X132565892Y-94000500D01*
X132693186Y-93966392D01*
X132807314Y-93900500D01*
X132900500Y-93807314D01*
X132966392Y-93693186D01*
X133000500Y-93565892D01*
X133000500Y-93434108D01*
X132966392Y-93306814D01*
X132900500Y-93192686D01*
X132807314Y-93099500D01*
X132807313Y-93099499D01*
X132807312Y-93099498D01*
X132693195Y-93033613D01*
X132693193Y-93033612D01*
X132693190Y-93033610D01*
X132693188Y-93033609D01*
X132693186Y-93033608D01*
X132693184Y-93033607D01*
X132693173Y-93033602D01*
X132693102Y-93033584D01*
X132565892Y-92999500D01*
X132434108Y-92999500D01*
X132306830Y-93033602D01*
X132306819Y-93033606D01*
X132306817Y-93033607D01*
X132306812Y-93033609D01*
X132306804Y-93033612D01*
X132192686Y-93099498D01*
X132099498Y-93192686D01*
X132033612Y-93306804D01*
X132033606Y-93306819D01*
X131999500Y-93434108D01*
X131999500Y-93565894D01*
X131999540Y-93566200D01*
X131999538Y-93569197D01*
X131999092Y-93572576D01*
X131995823Y-93579203D01*
X131315489Y-94259540D01*
X131259538Y-94315489D01*
X131219980Y-94384007D01*
X131219976Y-94384017D01*
X131199500Y-94460438D01*
X131199500Y-97086638D01*
X131198624Y-97091041D01*
X131197378Y-97094047D01*
X131193156Y-97098870D01*
X131193287Y-97099040D01*
X131192689Y-97099497D01*
X131192687Y-97099499D01*
X131192685Y-97099500D01*
X131192681Y-97099504D01*
X131099498Y-97192686D01*
X131033612Y-97306804D01*
X131033607Y-97306816D01*
X131033601Y-97306834D01*
X131033556Y-97307005D01*
X131033550Y-97307027D01*
X130999500Y-97434108D01*
X130300500Y-97434108D01*
X130300500Y-95131520D01*
X130301375Y-95127121D01*
X130302991Y-95123218D01*
X130305482Y-95119487D01*
X130420198Y-95004770D01*
X130423924Y-95002281D01*
X130426932Y-95001035D01*
X130433333Y-95000617D01*
X130433362Y-95000402D01*
X130434106Y-95000500D01*
X130434108Y-95000500D01*
X130434110Y-95000500D01*
X130565892Y-95000500D01*
X130693186Y-94966392D01*
X130807314Y-94900500D01*
X130900500Y-94807314D01*
X130966392Y-94693186D01*
X131000500Y-94565892D01*
X131000500Y-94434108D01*
X130966392Y-94306814D01*
X130900500Y-94192686D01*
X130807314Y-94099500D01*
X130807313Y-94099499D01*
X130807312Y-94099498D01*
X130693195Y-94033613D01*
X130693193Y-94033612D01*
X130693190Y-94033610D01*
X130693188Y-94033609D01*
X130693186Y-94033608D01*
X130693184Y-94033607D01*
X130693173Y-94033602D01*
X130693102Y-94033584D01*
X130565892Y-93999500D01*
X130434108Y-93999500D01*
X130306830Y-94033602D01*
X130306819Y-94033606D01*
X130306817Y-94033607D01*
X130306812Y-94033609D01*
X130306804Y-94033612D01*
X130192686Y-94099498D01*
X130099498Y-94192686D01*
X130033612Y-94306804D01*
X130033606Y-94306819D01*
X130033602Y-94306830D01*
X129999500Y-94434108D01*
X129999500Y-94565894D01*
X129999540Y-94566200D01*
X129999538Y-94569197D01*
X129999092Y-94572576D01*
X129995823Y-94579203D01*
X129815489Y-94759540D01*
X129759538Y-94815489D01*
X129719980Y-94884007D01*
X129719976Y-94884017D01*
X129699500Y-94960438D01*
X129699500Y-97572781D01*
X129698625Y-97577181D01*
X129697955Y-97578799D01*
X129691732Y-97585023D01*
X129691704Y-97585035D01*
X129691580Y-97585086D01*
X129684226Y-97585557D01*
X129683708Y-97585418D01*
X129680938Y-97584270D01*
X129593202Y-97533616D01*
X129593195Y-97533612D01*
X129593195Y-97533613D01*
X129593190Y-97533610D01*
X129593188Y-97533609D01*
X129593186Y-97533608D01*
X129593184Y-97533607D01*
X129593173Y-97533602D01*
X129593102Y-97533584D01*
X129465892Y-97499500D01*
X129334108Y-97499500D01*
X129206830Y-97533602D01*
X129206819Y-97533606D01*
X129206817Y-97533607D01*
X129206812Y-97533609D01*
X129206804Y-97533612D01*
X129119732Y-97583883D01*
X129115484Y-97585325D01*
X129113746Y-97585554D01*
X129105262Y-97583291D01*
X129105155Y-97583208D01*
X129101026Y-97577032D01*
X129100888Y-97576514D01*
X129100500Y-97573554D01*
X129100500Y-96450573D01*
X129101374Y-96446175D01*
X129102373Y-96443762D01*
X129107239Y-96438208D01*
X129107709Y-96437936D01*
X129110480Y-96436787D01*
X129173886Y-96419799D01*
X129276613Y-96360489D01*
X129360489Y-96276613D01*
X129419799Y-96173886D01*
X129450500Y-96059309D01*
X129450500Y-95940691D01*
X129419799Y-95826114D01*
X129360489Y-95723387D01*
X129276613Y-95639511D01*
X129276612Y-95639510D01*
X129276611Y-95639509D01*
X129180539Y-95584042D01*
X129178549Y-95581449D01*
X129059309Y-95549500D01*
X128940691Y-95549500D01*
X128826120Y-95580198D01*
X128826110Y-95580202D01*
X128723387Y-95639509D01*
X128639509Y-95723387D01*
X128580202Y-95826110D01*
X128580198Y-95826120D01*
X128549500Y-95940691D01*
X128549500Y-96028282D01*
X128549107Y-96031261D01*
X128548349Y-96034087D01*
X128547201Y-96036858D01*
X128519980Y-96084007D01*
X128519976Y-96084017D01*
X128499500Y-96160438D01*
X128499500Y-100485712D01*
X128498625Y-100490112D01*
X128497955Y-100491730D01*
X128491732Y-100497954D01*
X128490115Y-100498624D01*
X128485713Y-100499500D01*
X128434106Y-100499500D01*
X128433801Y-100499540D01*
X128430807Y-100499539D01*
X128427426Y-100499094D01*
X128420795Y-100495824D01*
X124184509Y-96259538D01*
X124122642Y-96223820D01*
X124120652Y-96221227D01*
X124039562Y-96199500D01*
X122913360Y-96199500D01*
X122908960Y-96198625D01*
X122905954Y-96197380D01*
X122901136Y-96193150D01*
X122900959Y-96193286D01*
X122900504Y-96192693D01*
X122900500Y-96192686D01*
X122807314Y-96099500D01*
X122807313Y-96099499D01*
X122807312Y-96099498D01*
X122693195Y-96033613D01*
X122693193Y-96033612D01*
X122693190Y-96033610D01*
X122693188Y-96033609D01*
X122693186Y-96033608D01*
X122693184Y-96033607D01*
X122693173Y-96033602D01*
X122693102Y-96033584D01*
X122565892Y-95999500D01*
X122434108Y-95999500D01*
X122306830Y-96033602D01*
X122306819Y-96033606D01*
X122306817Y-96033607D01*
X122306812Y-96033609D01*
X122306804Y-96033612D01*
X122192686Y-96099498D01*
X122099498Y-96192686D01*
X122033612Y-96306804D01*
X122033606Y-96306819D01*
X122033602Y-96306830D01*
X121999500Y-96434108D01*
X121999500Y-96565890D01*
X122033602Y-96693168D01*
X122033606Y-96693179D01*
X122033612Y-96693194D01*
X122096276Y-96801733D01*
X122096277Y-96801733D01*
X122099366Y-96807083D01*
X122099500Y-96807314D01*
X122192686Y-96900500D01*
X122306814Y-96966392D01*
X122434108Y-97000500D01*
X122565892Y-97000500D01*
X122693186Y-96966392D01*
X122807314Y-96900500D01*
X122900500Y-96807314D01*
X122900505Y-96807304D01*
X122900676Y-96807083D01*
X122902804Y-96804952D01*
X122905359Y-96802992D01*
X122905512Y-96802875D01*
X122912511Y-96800500D01*
X123868478Y-96800500D01*
X123872876Y-96801374D01*
X123876784Y-96802993D01*
X123880514Y-96805485D01*
X127553279Y-100478250D01*
X127555771Y-100481980D01*
X127556245Y-100483124D01*
X127556246Y-100491926D01*
X127550026Y-100498149D01*
X127548883Y-100498623D01*
X127544478Y-100499500D01*
X127434106Y-100499500D01*
X127433801Y-100499540D01*
X127430807Y-100499539D01*
X127427426Y-100499094D01*
X127420795Y-100495824D01*
X127184509Y-100259538D01*
X127122642Y-100223820D01*
X127120652Y-100221227D01*
X127039562Y-100199500D01*
X124913360Y-100199500D01*
X124908960Y-100198625D01*
X124905954Y-100197380D01*
X124901136Y-100193150D01*
X124900959Y-100193286D01*
X124900504Y-100192693D01*
X124900500Y-100192686D01*
X124807314Y-100099500D01*
X124807313Y-100099499D01*
X124807312Y-100099498D01*
X124693195Y-100033613D01*
X124693193Y-100033612D01*
X124693190Y-100033610D01*
X124693188Y-100033609D01*
X124693186Y-100033608D01*
X124693184Y-100033607D01*
X124693173Y-100033602D01*
X124693102Y-100033584D01*
X124565892Y-99999500D01*
X124434108Y-99999500D01*
X124306830Y-100033602D01*
X124306819Y-100033606D01*
X124306817Y-100033607D01*
X124306812Y-100033609D01*
X124306804Y-100033612D01*
X124192686Y-100099498D01*
X124099498Y-100192686D01*
X124033612Y-100306804D01*
X124033606Y-100306819D01*
X124033602Y-100306830D01*
X123999500Y-100434108D01*
X123999500Y-100565891D01*
X124033606Y-100693180D01*
X124033610Y-100693190D01*
X124099366Y-100807083D01*
X124099500Y-100807314D01*
X124192686Y-100900500D01*
X124306814Y-100966392D01*
X124434108Y-101000500D01*
X124565892Y-101000500D01*
X124693186Y-100966392D01*
X124807314Y-100900500D01*
X124900500Y-100807314D01*
X124900505Y-100807304D01*
X124900676Y-100807083D01*
X124902804Y-100804952D01*
X124905359Y-100802992D01*
X124905512Y-100802875D01*
X124912511Y-100800500D01*
X126868478Y-100800500D01*
X126872876Y-100801374D01*
X126876784Y-100802993D01*
X126880514Y-100805485D01*
X126995224Y-100920195D01*
X126997717Y-100923927D01*
X126998962Y-100926933D01*
X126999385Y-100933331D01*
X126999598Y-100933359D01*
X126999500Y-100934105D01*
X126999500Y-100934108D01*
X126999500Y-101065892D01*
X127033608Y-101193186D01*
X127099500Y-101307314D01*
X127192686Y-101400500D01*
X127306814Y-101466392D01*
X127434108Y-101500500D01*
X127565892Y-101500500D01*
X127693186Y-101466392D01*
X127807314Y-101400500D01*
X127900500Y-101307314D01*
X127966392Y-101193186D01*
X127988301Y-101111417D01*
X127990282Y-101107400D01*
X127991040Y-101106413D01*
X127998661Y-101102015D01*
X128007162Y-101104295D01*
X128007163Y-101104295D01*
X128007374Y-101104457D01*
X128011479Y-101110603D01*
X128011698Y-101111422D01*
X128033608Y-101193186D01*
X128099500Y-101307314D01*
X128192686Y-101400500D01*
X128306814Y-101466392D01*
X128403946Y-101492416D01*
X128407966Y-101494399D01*
X128409358Y-101495467D01*
X128413753Y-101503068D01*
X128413771Y-101503203D01*
X128412334Y-101510468D01*
X128412067Y-101510931D01*
X128410237Y-101513318D01*
X128229043Y-101694514D01*
X128225314Y-101697006D01*
X128222749Y-101698068D01*
X128221408Y-101698624D01*
X128217007Y-101699500D01*
X126460438Y-101699500D01*
X126384028Y-101719972D01*
X126384017Y-101719976D01*
X126384002Y-101719982D01*
X126315489Y-101759538D01*
X123530514Y-104544514D01*
X123526785Y-104547006D01*
X123524220Y-104548068D01*
X123522879Y-104548624D01*
X123518478Y-104549500D01*
X123440691Y-104549500D01*
X123326120Y-104580198D01*
X123326110Y-104580202D01*
X123223387Y-104639509D01*
X123139509Y-104723387D01*
X123080202Y-104826110D01*
X123080198Y-104826120D01*
X123063968Y-104886695D01*
X123056253Y-104915489D01*
X123049500Y-104940691D01*
X123049500Y-105059309D01*
X123080201Y-105173886D01*
X123091344Y-105193186D01*
X123134179Y-105267379D01*
X123139511Y-105276613D01*
X123223387Y-105360489D01*
X123326114Y-105419799D01*
X123440691Y-105450500D01*
X123559309Y-105450500D01*
X123673886Y-105419799D01*
X123776613Y-105360489D01*
X123860489Y-105276613D01*
X123919799Y-105173886D01*
X123950500Y-105059309D01*
X123950500Y-104981522D01*
X123951375Y-104977122D01*
X123952992Y-104973217D01*
X123955482Y-104969488D01*
X126619488Y-102305482D01*
X126623215Y-102302993D01*
X126627122Y-102301374D01*
X126631522Y-102300500D01*
X128388091Y-102300500D01*
X128464518Y-102280021D01*
X128533040Y-102240460D01*
X128588989Y-102184511D01*
X129178253Y-101595246D01*
X129181978Y-101592757D01*
X129183125Y-101592282D01*
X129191926Y-101592282D01*
X129198150Y-101598505D01*
X129198624Y-101599649D01*
X129199500Y-101604051D01*
X129199500Y-104868477D01*
X129198624Y-104872880D01*
X129197006Y-104876784D01*
X129194514Y-104880513D01*
X129159539Y-104915488D01*
X129119980Y-104984007D01*
X129119976Y-104984017D01*
X129099500Y-105060438D01*
X129099500Y-105086638D01*
X129098624Y-105091041D01*
X129097378Y-105094047D01*
X129093156Y-105098870D01*
X129093287Y-105099040D01*
X129092689Y-105099497D01*
X129092687Y-105099499D01*
X129092685Y-105099500D01*
X129092681Y-105099504D01*
X128999498Y-105192686D01*
X128933612Y-105306804D01*
X128933606Y-105306819D01*
X128933602Y-105306830D01*
X128919225Y-105360489D01*
X128905053Y-105413382D01*
X128899500Y-105434108D01*
X128899500Y-105565892D01*
X128933608Y-105693186D01*
X128999500Y-105807314D01*
X129092686Y-105900500D01*
X129206814Y-105966392D01*
X129334108Y-106000500D01*
X129340738Y-106000500D01*
X129345136Y-106001374D01*
X129346013Y-106001737D01*
X129352237Y-106007961D01*
X129352237Y-106016763D01*
X129347443Y-106022274D01*
X129347392Y-106022304D01*
X129344537Y-106023500D01*
X129306830Y-106033602D01*
X129306819Y-106033606D01*
X129306804Y-106033612D01*
X129192686Y-106099498D01*
X129099498Y-106192686D01*
X129033612Y-106306804D01*
X129033606Y-106306819D01*
X129033602Y-106306830D01*
X129007582Y-106403940D01*
X129005596Y-106407966D01*
X129004529Y-106409356D01*
X128996949Y-106413750D01*
X128996816Y-106413768D01*
X128989529Y-106412334D01*
X128989066Y-106412067D01*
X128986679Y-106410237D01*
X128685979Y-106109537D01*
X128674388Y-106102846D01*
X128668592Y-106099500D01*
X128624113Y-106073820D01*
X128622123Y-106071227D01*
X128541033Y-106049500D01*
X123183704Y-106049500D01*
X123179302Y-106048624D01*
X123175397Y-106047006D01*
X123171667Y-106044514D01*
X122235485Y-105108332D01*
X122232992Y-105104600D01*
X122231375Y-105100695D01*
X122230500Y-105096295D01*
X122230500Y-104903704D01*
X122231375Y-104899304D01*
X122232992Y-104895399D01*
X122235486Y-104891667D01*
X122240458Y-104886695D01*
X122240460Y-104886693D01*
X122242008Y-104884012D01*
X122280021Y-104818171D01*
X122300500Y-104741744D01*
X122300500Y-97960438D01*
X122280021Y-97884011D01*
X122240460Y-97815489D01*
X122184511Y-97759540D01*
X121416735Y-96991764D01*
X121414242Y-96988032D01*
X121412625Y-96984127D01*
X121411750Y-96979727D01*
X121411750Y-95413360D01*
X121412623Y-95408964D01*
X121413870Y-95405953D01*
X121418098Y-95401141D01*
X121417961Y-95400962D01*
X121418556Y-95400504D01*
X121418564Y-95400500D01*
X121511750Y-95307314D01*
X121577642Y-95193186D01*
X121611750Y-95065892D01*
X121611750Y-94934108D01*
X121577642Y-94806814D01*
X121511750Y-94692686D01*
X121418564Y-94599500D01*
X121418561Y-94599498D01*
X121418560Y-94599497D01*
X121418314Y-94599308D01*
X121416195Y-94597186D01*
X121414124Y-94594485D01*
X121411750Y-94587488D01*
X121411750Y-94413360D01*
X121412623Y-94408964D01*
X121413870Y-94405953D01*
X121418098Y-94401141D01*
X121417961Y-94400962D01*
X121418556Y-94400504D01*
X121418564Y-94400500D01*
X121511750Y-94307314D01*
X121577642Y-94193186D01*
X121611750Y-94065892D01*
X121611750Y-93934108D01*
X121577642Y-93806814D01*
X121511750Y-93692686D01*
X121418564Y-93599500D01*
X121418561Y-93599498D01*
X121418560Y-93599497D01*
X121418314Y-93599308D01*
X121416195Y-93597186D01*
X121414124Y-93594485D01*
X121411750Y-93587488D01*
X121411750Y-92770660D01*
X121412623Y-92766264D01*
X121413870Y-92763253D01*
X121418098Y-92758441D01*
X121417961Y-92758262D01*
X121418556Y-92757804D01*
X121418564Y-92757800D01*
X121511750Y-92664614D01*
X121577642Y-92550486D01*
X121611750Y-92423192D01*
X121611750Y-92291408D01*
X121577642Y-92164114D01*
X121511750Y-92049986D01*
X121418564Y-91956800D01*
X121418563Y-91956799D01*
X121418562Y-91956798D01*
X121304445Y-91890913D01*
X121304443Y-91890912D01*
X121304440Y-91890910D01*
X121304438Y-91890909D01*
X121304436Y-91890908D01*
X121304434Y-91890907D01*
X121304423Y-91890902D01*
X121304352Y-91890884D01*
X121177142Y-91856800D01*
X121045358Y-91856800D01*
X120918080Y-91890902D01*
X120918069Y-91890906D01*
X120918067Y-91890907D01*
X120918062Y-91890909D01*
X120918054Y-91890912D01*
X120803936Y-91956798D01*
X120710748Y-92049986D01*
X120644862Y-92164104D01*
X120644856Y-92164119D01*
X120644852Y-92164130D01*
X120641807Y-92175499D01*
X120610750Y-92291408D01*
X120610750Y-92423192D01*
X120644858Y-92550486D01*
X120710750Y-92664614D01*
X120803936Y-92757800D01*
X120803938Y-92757801D01*
X120804170Y-92757979D01*
X120806294Y-92760101D01*
X120808371Y-92762806D01*
X120810750Y-92769810D01*
X120810750Y-93586638D01*
X120809874Y-93591041D01*
X120808628Y-93594047D01*
X120804406Y-93598870D01*
X120804537Y-93599040D01*
X120803939Y-93599497D01*
X120803937Y-93599499D01*
X120803935Y-93599500D01*
X120803931Y-93599504D01*
X120710748Y-93692686D01*
X120644862Y-93806804D01*
X120644856Y-93806819D01*
X120644852Y-93806830D01*
X120619755Y-93900500D01*
X120610750Y-93934108D01*
X120610750Y-94065891D01*
X120619430Y-94098287D01*
X120644852Y-94193168D01*
X120644854Y-94193176D01*
X120644856Y-94193180D01*
X120644859Y-94193186D01*
X120644862Y-94193194D01*
X120683167Y-94259540D01*
X120710470Y-94306830D01*
X120710750Y-94307314D01*
X120803936Y-94400500D01*
X120803938Y-94400501D01*
X120804170Y-94400679D01*
X120806294Y-94402801D01*
X120808371Y-94405506D01*
X120810750Y-94412510D01*
X120810750Y-94586638D01*
X120809874Y-94591041D01*
X120808628Y-94594047D01*
X120804406Y-94598870D01*
X120804537Y-94599040D01*
X120803939Y-94599497D01*
X120803937Y-94599499D01*
X120803935Y-94599500D01*
X120803931Y-94599504D01*
X120710748Y-94692686D01*
X120644862Y-94806804D01*
X120644856Y-94806819D01*
X120644852Y-94806830D01*
X120624173Y-94884011D01*
X120610750Y-94934108D01*
X120610750Y-95065891D01*
X120644856Y-95193180D01*
X120644860Y-95193190D01*
X120710470Y-95306830D01*
X120710750Y-95307314D01*
X120803936Y-95400500D01*
X120803938Y-95400501D01*
X120804170Y-95400679D01*
X120806294Y-95402801D01*
X120808371Y-95405506D01*
X120810750Y-95412510D01*
X120810750Y-97150810D01*
X120831226Y-97227231D01*
X120831230Y-97227241D01*
X120864455Y-97284788D01*
X120864456Y-97284789D01*
X120870788Y-97295759D01*
X121694514Y-98119485D01*
X121697006Y-98123215D01*
X121698624Y-98127120D01*
X121699500Y-98131522D01*
X121699500Y-104570659D01*
X121698625Y-104575060D01*
X121697007Y-104578966D01*
X121694514Y-104582696D01*
X121689539Y-104587671D01*
X121689537Y-104587673D01*
X121689536Y-104587675D01*
X121649980Y-104656189D01*
X121649976Y-104656199D01*
X121640200Y-104692686D01*
X121629500Y-104732620D01*
X121629500Y-105267379D01*
X121637809Y-105298390D01*
X121649976Y-105343799D01*
X121649980Y-105343809D01*
X121670887Y-105380021D01*
X121689538Y-105412327D01*
X122746696Y-106469485D01*
X122749188Y-106473215D01*
X122750806Y-106477120D01*
X122751682Y-106481522D01*
X122751682Y-107326294D01*
X122750806Y-107330696D01*
X122749188Y-107334601D01*
X122746696Y-107338331D01*
X122089803Y-107995223D01*
X122086073Y-107997715D01*
X122083066Y-107998961D01*
X122076667Y-107999381D01*
X122076639Y-107999598D01*
X122075893Y-107999500D01*
X122075892Y-107999500D01*
X121944108Y-107999500D01*
X121816830Y-108033602D01*
X121816819Y-108033606D01*
X121816817Y-108033607D01*
X121816812Y-108033609D01*
X121816804Y-108033612D01*
X121702686Y-108099498D01*
X121609498Y-108192686D01*
X121543612Y-108306804D01*
X121543606Y-108306819D01*
X121543602Y-108306830D01*
X121516700Y-108407234D01*
X121514717Y-108411257D01*
X121513963Y-108412240D01*
X121506341Y-108416642D01*
X121497839Y-108414366D01*
X121497835Y-108414363D01*
X121497624Y-108414201D01*
X121493519Y-108408055D01*
X121482978Y-108368715D01*
X121466483Y-108307157D01*
X121466422Y-108306896D01*
X121466391Y-108306812D01*
X121400500Y-108192686D01*
X121307312Y-108099498D01*
X121193195Y-108033613D01*
X121193193Y-108033612D01*
X121193190Y-108033610D01*
X121193188Y-108033609D01*
X121193186Y-108033608D01*
X121193184Y-108033607D01*
X121193173Y-108033602D01*
X121193102Y-108033584D01*
X121065892Y-107999500D01*
X120934108Y-107999500D01*
X120806830Y-108033602D01*
X120806819Y-108033606D01*
X120806817Y-108033607D01*
X120806812Y-108033609D01*
X120806804Y-108033612D01*
X120692686Y-108099498D01*
X120599498Y-108192686D01*
X120533612Y-108306804D01*
X120533606Y-108306819D01*
X120533602Y-108306830D01*
X120517021Y-108368716D01*
X120506108Y-108409446D01*
X120499500Y-108434108D01*
X119415128Y-108434108D01*
X119480520Y-108368716D01*
X119559577Y-108231784D01*
X119600500Y-108079057D01*
X119600500Y-107920943D01*
X119559577Y-107768216D01*
X119480520Y-107631284D01*
X119368716Y-107519480D01*
X119368715Y-107519479D01*
X119368714Y-107519478D01*
X119231793Y-107440428D01*
X119231791Y-107440427D01*
X119231788Y-107440425D01*
X119231786Y-107440424D01*
X119231784Y-107440423D01*
X119231782Y-107440422D01*
X119231771Y-107440417D01*
X119231700Y-107440399D01*
X119079057Y-107399500D01*
X118920943Y-107399500D01*
X118768232Y-107440417D01*
X118768221Y-107440421D01*
X118768219Y-107440422D01*
X118768214Y-107440424D01*
X118768206Y-107440427D01*
X118631284Y-107519478D01*
X118519478Y-107631284D01*
X118440427Y-107768206D01*
X118440421Y-107768221D01*
X118440417Y-107768232D01*
X118399500Y-107920943D01*
X118000500Y-107920943D01*
X118000500Y-104934108D01*
X119999500Y-104934108D01*
X119999500Y-105065891D01*
X120008340Y-105098884D01*
X120033602Y-105193168D01*
X120033604Y-105193176D01*
X120033606Y-105193180D01*
X120033609Y-105193186D01*
X120033612Y-105193194D01*
X120081774Y-105276613D01*
X120099220Y-105306830D01*
X120099500Y-105307314D01*
X120192686Y-105400500D01*
X120306814Y-105466392D01*
X120434108Y-105500500D01*
X120565892Y-105500500D01*
X120693186Y-105466392D01*
X120800271Y-105404564D01*
X120804517Y-105403123D01*
X120806255Y-105402895D01*
X120814756Y-105405175D01*
X120814761Y-105405179D01*
X120814869Y-105405262D01*
X120818965Y-105411389D01*
X120819104Y-105411905D01*
X120819500Y-105414896D01*
X120819500Y-105491996D01*
X120818624Y-105496399D01*
X120817378Y-105499405D01*
X120812504Y-105504961D01*
X120752686Y-105539498D01*
X120659498Y-105632686D01*
X120593612Y-105746804D01*
X120593606Y-105746819D01*
X120593602Y-105746830D01*
X120578211Y-105804276D01*
X120570059Y-105834702D01*
X120559500Y-105874108D01*
X120559500Y-106005892D01*
X120561137Y-106012000D01*
X120568522Y-106039562D01*
X120593602Y-106133168D01*
X120593604Y-106133176D01*
X120593606Y-106133180D01*
X120593609Y-106133186D01*
X120593612Y-106133194D01*
X120605252Y-106153355D01*
X120632471Y-106200500D01*
X120659500Y-106247314D01*
X120752686Y-106340500D01*
X120866814Y-106406392D01*
X120994108Y-106440500D01*
X121125892Y-106440500D01*
X121253186Y-106406392D01*
X121367314Y-106340500D01*
X121460500Y-106247314D01*
X121526392Y-106133186D01*
X121560500Y-106005892D01*
X121560500Y-105874108D01*
X121526392Y-105746814D01*
X121460500Y-105632686D01*
X121425485Y-105597671D01*
X121422992Y-105593939D01*
X121421375Y-105590034D01*
X121420500Y-105585634D01*
X121420500Y-102311906D01*
X121420890Y-102308937D01*
X121421650Y-102306100D01*
X121422797Y-102303333D01*
X121422994Y-102302992D01*
X121486392Y-102193186D01*
X121520500Y-102065892D01*
X121520500Y-101934108D01*
X121486392Y-101806814D01*
X121420500Y-101692686D01*
X121327314Y-101599500D01*
X121327313Y-101599499D01*
X121327312Y-101599498D01*
X121213195Y-101533613D01*
X121213193Y-101533612D01*
X121213190Y-101533610D01*
X121213188Y-101533609D01*
X121213186Y-101533608D01*
X121213184Y-101533607D01*
X121213173Y-101533602D01*
X121213102Y-101533584D01*
X121085892Y-101499500D01*
X120954108Y-101499500D01*
X120826830Y-101533602D01*
X120826819Y-101533606D01*
X120826817Y-101533607D01*
X120826812Y-101533609D01*
X120826804Y-101533612D01*
X120712686Y-101599498D01*
X120619498Y-101692686D01*
X120553612Y-101806804D01*
X120553606Y-101806819D01*
X120553602Y-101806830D01*
X120521176Y-101927852D01*
X120519500Y-101934108D01*
X120519500Y-102065891D01*
X120528180Y-102098287D01*
X120553602Y-102193168D01*
X120553604Y-102193176D01*
X120553606Y-102193180D01*
X120553609Y-102193186D01*
X120553612Y-102193194D01*
X120619498Y-102307312D01*
X120712686Y-102400500D01*
X120811767Y-102457704D01*
X120815140Y-102460662D01*
X120817123Y-102463246D01*
X120819500Y-102470247D01*
X120819500Y-103072781D01*
X120818625Y-103077181D01*
X120817955Y-103078799D01*
X120811732Y-103085023D01*
X120811704Y-103085035D01*
X120811580Y-103085086D01*
X120804226Y-103085557D01*
X120803708Y-103085418D01*
X120800938Y-103084270D01*
X120713202Y-103033616D01*
X120713195Y-103033612D01*
X120713195Y-103033613D01*
X120713190Y-103033610D01*
X120713188Y-103033609D01*
X120713186Y-103033608D01*
X120713184Y-103033607D01*
X120713173Y-103033602D01*
X120713102Y-103033584D01*
X120585892Y-102999500D01*
X120454108Y-102999500D01*
X120326830Y-103033602D01*
X120326819Y-103033606D01*
X120326817Y-103033607D01*
X120326812Y-103033609D01*
X120326804Y-103033612D01*
X120212686Y-103099498D01*
X120119498Y-103192686D01*
X120053612Y-103306804D01*
X120053606Y-103306819D01*
X120053602Y-103306830D01*
X120019500Y-103434108D01*
X120019500Y-103565890D01*
X120053602Y-103693168D01*
X120053606Y-103693179D01*
X120053612Y-103693194D01*
X120071327Y-103723878D01*
X120114988Y-103799500D01*
X120119500Y-103807314D01*
X120212686Y-103900500D01*
X120212688Y-103900501D01*
X120212920Y-103900679D01*
X120215044Y-103902801D01*
X120217121Y-103905506D01*
X120219500Y-103912510D01*
X120219500Y-104383526D01*
X120219401Y-104385033D01*
X120219204Y-104386523D01*
X120218911Y-104387992D01*
X120199500Y-104460438D01*
X120199500Y-104586638D01*
X120198624Y-104591041D01*
X120197378Y-104594047D01*
X120193156Y-104598870D01*
X120193287Y-104599040D01*
X120192689Y-104599497D01*
X120192687Y-104599499D01*
X120192685Y-104599500D01*
X120192681Y-104599504D01*
X120099498Y-104692686D01*
X120033612Y-104806804D01*
X120033606Y-104806819D01*
X120033602Y-104806830D01*
X120010438Y-104893285D01*
X119999500Y-104934108D01*
X118000500Y-104934108D01*
X118000500Y-90509108D01*
X120568250Y-90509108D01*
X120568250Y-90640891D01*
X120576930Y-90673287D01*
X120602352Y-90768168D01*
X120602354Y-90768176D01*
X120602356Y-90768180D01*
X120602360Y-90768190D01*
X120643445Y-90839352D01*
X120668250Y-90882314D01*
X120761436Y-90975500D01*
X120875564Y-91041392D01*
X121002858Y-91075500D01*
X125330385Y-91075500D01*
X125334782Y-91076374D01*
X125335925Y-91076847D01*
X125342151Y-91083069D01*
X125342154Y-91091870D01*
X125342152Y-91091875D01*
X125341678Y-91093019D01*
X125339186Y-91096749D01*
X125168248Y-91267686D01*
X125102362Y-91381804D01*
X125102356Y-91381819D01*
X125102352Y-91381830D01*
X125077388Y-91475002D01*
X125068250Y-91509108D01*
X125068250Y-93140891D01*
X125076930Y-93173287D01*
X125102352Y-93268168D01*
X125102354Y-93268176D01*
X125102356Y-93268180D01*
X125102360Y-93268190D01*
X125124662Y-93306819D01*
X125168250Y-93382314D01*
X125261436Y-93475500D01*
X125375564Y-93541392D01*
X125502858Y-93575500D01*
X125634642Y-93575500D01*
X125761936Y-93541392D01*
X125876064Y-93475500D01*
X125969250Y-93382314D01*
X126035142Y-93268186D01*
X126069250Y-93140892D01*
X126069250Y-92509108D01*
X126069250Y-91789365D01*
X126070125Y-91784965D01*
X126071742Y-91781060D01*
X126074232Y-91777331D01*
X126342455Y-91509108D01*
X128568250Y-91509108D01*
X128568250Y-91640890D01*
X128602352Y-91768168D01*
X128602356Y-91768179D01*
X128602362Y-91768194D01*
X128648748Y-91848538D01*
X128649627Y-91850444D01*
X128650323Y-91852411D01*
X128650840Y-91854445D01*
X128658100Y-91900289D01*
X128658103Y-91900302D01*
X128658103Y-91900303D01*
X128658104Y-91900304D01*
X128715700Y-92013342D01*
X128805408Y-92103050D01*
X128918446Y-92160646D01*
X129012231Y-92175500D01*
X129475268Y-92175499D01*
X129475270Y-92175499D01*
X129475272Y-92175499D01*
X129545103Y-92164439D01*
X129547218Y-92164104D01*
X129569054Y-92160646D01*
X129682092Y-92103050D01*
X129771800Y-92013342D01*
X129829396Y-91900304D01*
X129844250Y-91806519D01*
X129844249Y-91512501D01*
X130493750Y-91512501D01*
X130493750Y-91794696D01*
X130505351Y-91853027D01*
X130505355Y-91853037D01*
X130536935Y-91900302D01*
X130549556Y-91919190D01*
X130549559Y-91919193D01*
X130615712Y-91963394D01*
X130615717Y-91963396D01*
X130615719Y-91963396D01*
X130615721Y-91963397D01*
X130645279Y-91969276D01*
X130674053Y-91975000D01*
X130881247Y-91975000D01*
X130881249Y-91975000D01*
X130881250Y-91974999D01*
X130881250Y-91512501D01*
X130906250Y-91512501D01*
X130906250Y-91974999D01*
X130906251Y-91975000D01*
X131113445Y-91975000D01*
X131113447Y-91975000D01*
X131171782Y-91963396D01*
X131171787Y-91963394D01*
X131237940Y-91919193D01*
X131237943Y-91919190D01*
X131282144Y-91853037D01*
X131282146Y-91853032D01*
X131293750Y-91794697D01*
X131293750Y-91512501D01*
X132893750Y-91512501D01*
X132893750Y-91887122D01*
X132894504Y-91890912D01*
X132908253Y-91960038D01*
X132908254Y-91960043D01*
X132943866Y-92013342D01*
X132963508Y-92042738D01*
X132963511Y-92042741D01*
X133046203Y-92097993D01*
X133046207Y-92097995D01*
X133119128Y-92112500D01*
X134556247Y-92112500D01*
X134556249Y-92112500D01*
X134556250Y-92112499D01*
X134556250Y-91512501D01*
X134581250Y-91512501D01*
X134581250Y-92112499D01*
X134581251Y-92112500D01*
X136018370Y-92112500D01*
X136018372Y-92112500D01*
X136091292Y-92097995D01*
X136091296Y-92097993D01*
X136173988Y-92042741D01*
X136173991Y-92042738D01*
X136229243Y-91960046D01*
X136229245Y-91960042D01*
X136243750Y-91887122D01*
X136243750Y-91550001D01*
X136893750Y-91550001D01*
X136893750Y-91924621D01*
X136908253Y-91997538D01*
X136908254Y-91997543D01*
X136950315Y-92060494D01*
X136963508Y-92080238D01*
X136963511Y-92080241D01*
X137046203Y-92135493D01*
X137046207Y-92135495D01*
X137119128Y-92150000D01*
X138556247Y-92150000D01*
X138556249Y-92150000D01*
X138556250Y-92149999D01*
X138556250Y-91550001D01*
X138581250Y-91550001D01*
X138581250Y-92149999D01*
X138581251Y-92150000D01*
X140018370Y-92150000D01*
X140018372Y-92150000D01*
X140091292Y-92135495D01*
X140091296Y-92135493D01*
X140173988Y-92080241D01*
X140173991Y-92080238D01*
X140229243Y-91997546D01*
X140229245Y-91997542D01*
X140243750Y-91924622D01*
X140243750Y-91550001D01*
X140243749Y-91550000D01*
X140243748Y-91550000D01*
X138581251Y-91550000D01*
X138581250Y-91550001D01*
X138556250Y-91550001D01*
X138556249Y-91550000D01*
X138556248Y-91550000D01*
X136893751Y-91550000D01*
X136893750Y-91550001D01*
X136243750Y-91550001D01*
X136243750Y-91512501D01*
X136243749Y-91512500D01*
X136243748Y-91512500D01*
X134581251Y-91512500D01*
X134581250Y-91512501D01*
X134556250Y-91512501D01*
X134556249Y-91512500D01*
X134556248Y-91512500D01*
X132893751Y-91512500D01*
X132893750Y-91512501D01*
X131293750Y-91512501D01*
X131293749Y-91512500D01*
X131293748Y-91512500D01*
X130906251Y-91512500D01*
X130906250Y-91512501D01*
X130881250Y-91512501D01*
X130881249Y-91512500D01*
X130881248Y-91512500D01*
X130493751Y-91512500D01*
X130493750Y-91512501D01*
X129844249Y-91512501D01*
X129844249Y-91487500D01*
X129844249Y-91205302D01*
X130493750Y-91205302D01*
X130493750Y-91487499D01*
X130493751Y-91487500D01*
X130881247Y-91487500D01*
X130881249Y-91487500D01*
X130881250Y-91487499D01*
X130881250Y-91025001D01*
X130906250Y-91025001D01*
X130906250Y-91487499D01*
X130906251Y-91487500D01*
X131293747Y-91487500D01*
X131293749Y-91487500D01*
X131293750Y-91487499D01*
X131293750Y-91205302D01*
X131282146Y-91146967D01*
X131282144Y-91146962D01*
X131237943Y-91080809D01*
X131237940Y-91080806D01*
X131232932Y-91077460D01*
X131171787Y-91036605D01*
X131171777Y-91036601D01*
X131123079Y-91026915D01*
X131113447Y-91025000D01*
X131113446Y-91025000D01*
X130906251Y-91025000D01*
X130906250Y-91025001D01*
X130881250Y-91025001D01*
X130881249Y-91025000D01*
X130881248Y-91025000D01*
X130674054Y-91025000D01*
X130674053Y-91025000D01*
X130665786Y-91026644D01*
X130615721Y-91036601D01*
X130615711Y-91036605D01*
X130549562Y-91080803D01*
X130549553Y-91080812D01*
X130505355Y-91146961D01*
X130505351Y-91146971D01*
X130493862Y-91204737D01*
X130493750Y-91205302D01*
X129844249Y-91205302D01*
X129844249Y-91204737D01*
X129844249Y-91193479D01*
X129844248Y-91193475D01*
X129829538Y-91100591D01*
X129829502Y-91100144D01*
X129829501Y-91100137D01*
X129829498Y-91100119D01*
X129829449Y-91099919D01*
X129829436Y-91099862D01*
X129829396Y-91099697D01*
X129829396Y-91099696D01*
X129771800Y-90986658D01*
X129682092Y-90896950D01*
X129569054Y-90839354D01*
X129569051Y-90839353D01*
X129569048Y-90839352D01*
X129569047Y-90839352D01*
X129568850Y-90839320D01*
X129568187Y-90839213D01*
X129568158Y-90839211D01*
X129475273Y-90824500D01*
X129475271Y-90824500D01*
X129012229Y-90824500D01*
X129012227Y-90824500D01*
X128919342Y-90839211D01*
X128918661Y-90839264D01*
X128917318Y-90839821D01*
X128916824Y-90840180D01*
X128860890Y-90868680D01*
X128805406Y-90896950D01*
X128715700Y-90986656D01*
X128703042Y-91011500D01*
X128658930Y-91098074D01*
X128658571Y-91098568D01*
X128658014Y-91099912D01*
X128657961Y-91100591D01*
X128643250Y-91193475D01*
X128643250Y-91306390D01*
X128642857Y-91309369D01*
X128642099Y-91312195D01*
X128640951Y-91314966D01*
X128602362Y-91381804D01*
X128602356Y-91381819D01*
X128602352Y-91381830D01*
X128568250Y-91509108D01*
X126342455Y-91509108D01*
X127842455Y-90009108D01*
X128499500Y-90009108D01*
X128499500Y-90140890D01*
X128533602Y-90268168D01*
X128533606Y-90268179D01*
X128533612Y-90268194D01*
X128555740Y-90306521D01*
X128599499Y-90382313D01*
X128692687Y-90475501D01*
X128693579Y-90476016D01*
X128696170Y-90478058D01*
X128698369Y-90480375D01*
X128700274Y-90483071D01*
X128715697Y-90513339D01*
X128715700Y-90513342D01*
X128805408Y-90603050D01*
X128918446Y-90660646D01*
X129012231Y-90675500D01*
X129475268Y-90675499D01*
X129475270Y-90675499D01*
X129475272Y-90675499D01*
X129545103Y-90664439D01*
X129569054Y-90660646D01*
X129682092Y-90603050D01*
X129771800Y-90513342D01*
X129829396Y-90400304D01*
X129844250Y-90306519D01*
X129844249Y-89693482D01*
X129844249Y-89693479D01*
X129844215Y-89693207D01*
X129844169Y-89692982D01*
X129829538Y-89600591D01*
X129829502Y-89600144D01*
X129829501Y-89600137D01*
X129829498Y-89600119D01*
X129829449Y-89599919D01*
X129829436Y-89599862D01*
X129829396Y-89599697D01*
X129829396Y-89599696D01*
X129771800Y-89486658D01*
X129682092Y-89396950D01*
X129569054Y-89339354D01*
X129569051Y-89339353D01*
X129569048Y-89339352D01*
X129569047Y-89339352D01*
X129568850Y-89339320D01*
X129568187Y-89339213D01*
X129568158Y-89339211D01*
X129475273Y-89324500D01*
X129475271Y-89324500D01*
X129012229Y-89324500D01*
X129012227Y-89324500D01*
X128919342Y-89339211D01*
X128918661Y-89339264D01*
X128917318Y-89339821D01*
X128916824Y-89340180D01*
X128860890Y-89368680D01*
X128805406Y-89396950D01*
X128715700Y-89486656D01*
X128704261Y-89509108D01*
X128658930Y-89598074D01*
X128658571Y-89598568D01*
X128658014Y-89599912D01*
X128657961Y-89600591D01*
X128643250Y-89693475D01*
X128643250Y-89716883D01*
X128642374Y-89721286D01*
X128640756Y-89725190D01*
X128638264Y-89728919D01*
X128599498Y-89767684D01*
X128533612Y-89881804D01*
X128533606Y-89881819D01*
X128533602Y-89881830D01*
X128499500Y-90009108D01*
X127842455Y-90009108D01*
X128767214Y-89084349D01*
X128770941Y-89081860D01*
X128772561Y-89081189D01*
X128781363Y-89081190D01*
X128782980Y-89081860D01*
X128786710Y-89084352D01*
X128805408Y-89103050D01*
X128918446Y-89160646D01*
X129012231Y-89175500D01*
X129475268Y-89175499D01*
X129475270Y-89175499D01*
X129475272Y-89175499D01*
X129545103Y-89164439D01*
X129569054Y-89160646D01*
X129682092Y-89103050D01*
X129771800Y-89013342D01*
X129829396Y-88900304D01*
X129844250Y-88806519D01*
X129844249Y-88193482D01*
X129840243Y-88168189D01*
X129832489Y-88119225D01*
X129829538Y-88100591D01*
X129829502Y-88100144D01*
X129829501Y-88100137D01*
X129829496Y-88100107D01*
X129829401Y-88099715D01*
X129829396Y-88099697D01*
X129829396Y-88099696D01*
X129771800Y-87986658D01*
X129682092Y-87896950D01*
X129569054Y-87839354D01*
X129569051Y-87839353D01*
X129569048Y-87839352D01*
X129569047Y-87839352D01*
X129568850Y-87839320D01*
X129568187Y-87839213D01*
X129568158Y-87839211D01*
X129475273Y-87824500D01*
X129475271Y-87824500D01*
X129012229Y-87824500D01*
X129012227Y-87824500D01*
X128919342Y-87839211D01*
X128918661Y-87839264D01*
X128917318Y-87839821D01*
X128916824Y-87840180D01*
X128863833Y-87867181D01*
X128805406Y-87896950D01*
X128715697Y-87986659D01*
X128715696Y-87986661D01*
X128713392Y-87991183D01*
X128710616Y-87994705D01*
X128708230Y-87996743D01*
X128700761Y-87999500D01*
X128577857Y-87999500D01*
X128450580Y-88033602D01*
X128450569Y-88033606D01*
X128450554Y-88033612D01*
X128336436Y-88099498D01*
X126366421Y-90069514D01*
X126362692Y-90072006D01*
X126360393Y-90072959D01*
X126358786Y-90073624D01*
X126354385Y-90074500D01*
X125728012Y-90074500D01*
X125723605Y-90073622D01*
X125722730Y-90073259D01*
X125716510Y-90067032D01*
X125716515Y-90058230D01*
X125721306Y-90052725D01*
X125721316Y-90052719D01*
X125721359Y-90052693D01*
X125724205Y-90051501D01*
X125761936Y-90041392D01*
X125876064Y-89975500D01*
X127469249Y-88382315D01*
X127535142Y-88268186D01*
X127569250Y-88140893D01*
X127569250Y-88009108D01*
X127535142Y-87881814D01*
X127513751Y-87844764D01*
X127469250Y-87767686D01*
X127376064Y-87674500D01*
X127376063Y-87674499D01*
X127376062Y-87674498D01*
X127261945Y-87608613D01*
X127261943Y-87608612D01*
X127261940Y-87608610D01*
X127261938Y-87608609D01*
X127261936Y-87608608D01*
X127261934Y-87608607D01*
X127261923Y-87608602D01*
X127261852Y-87608584D01*
X127134642Y-87574500D01*
X127002857Y-87574500D01*
X126928287Y-87594481D01*
X126875580Y-87608602D01*
X126875569Y-87608606D01*
X126875567Y-87608607D01*
X126875562Y-87608609D01*
X126875554Y-87608612D01*
X126761436Y-87674498D01*
X125366421Y-89069514D01*
X125362692Y-89072006D01*
X125360127Y-89073068D01*
X125358786Y-89073624D01*
X125354385Y-89074500D01*
X124502858Y-89074500D01*
X124375580Y-89108602D01*
X124375569Y-89108606D01*
X124375554Y-89108612D01*
X124261436Y-89174498D01*
X124168248Y-89267686D01*
X124102362Y-89381804D01*
X124102356Y-89381819D01*
X124102352Y-89381830D01*
X124074265Y-89486658D01*
X124068250Y-89509108D01*
X124068250Y-89640891D01*
X124082034Y-89692338D01*
X124102221Y-89767679D01*
X124102357Y-89768184D01*
X124102357Y-89768186D01*
X124168249Y-89882313D01*
X124168250Y-89882314D01*
X124261436Y-89975500D01*
X124375564Y-90041392D01*
X124412540Y-90051299D01*
X124416565Y-90053285D01*
X124417318Y-90053863D01*
X124421718Y-90061486D01*
X124419438Y-90069987D01*
X124413341Y-90074080D01*
X124413285Y-90074095D01*
X124410261Y-90074500D01*
X121002858Y-90074500D01*
X120875580Y-90108602D01*
X120875569Y-90108606D01*
X120875554Y-90108612D01*
X120761436Y-90174498D01*
X120668248Y-90267686D01*
X120602362Y-90381804D01*
X120602356Y-90381819D01*
X120602352Y-90381830D01*
X120575949Y-90480375D01*
X120568250Y-90509108D01*
X118000500Y-90509108D01*
X118000500Y-83934108D01*
X120499500Y-83934108D01*
X120499500Y-87565892D01*
X120507160Y-87594481D01*
X120533602Y-87693168D01*
X120533604Y-87693176D01*
X120533606Y-87693180D01*
X120533610Y-87693190D01*
X120576620Y-87767686D01*
X120599500Y-87807314D01*
X120692686Y-87900500D01*
X120806814Y-87966392D01*
X120934108Y-88000500D01*
X121065892Y-88000500D01*
X121193186Y-87966392D01*
X121307314Y-87900500D01*
X121400500Y-87807314D01*
X121466392Y-87693186D01*
X121500500Y-87565892D01*
X121500500Y-87009108D01*
X128568250Y-87009108D01*
X128568250Y-87140890D01*
X128602352Y-87268168D01*
X128602356Y-87268179D01*
X128602362Y-87268194D01*
X128648748Y-87348538D01*
X128649627Y-87350444D01*
X128650323Y-87352411D01*
X128650840Y-87354445D01*
X128658100Y-87400289D01*
X128658103Y-87400302D01*
X128658103Y-87400303D01*
X128658104Y-87400304D01*
X128715700Y-87513342D01*
X128805408Y-87603050D01*
X128918446Y-87660646D01*
X129012231Y-87675500D01*
X129475268Y-87675499D01*
X129475270Y-87675499D01*
X129475272Y-87675499D01*
X129545103Y-87664439D01*
X129569054Y-87660646D01*
X129682092Y-87603050D01*
X129771800Y-87513342D01*
X129829396Y-87400304D01*
X129844250Y-87306519D01*
X129844249Y-86931007D01*
X130193250Y-86931007D01*
X130193250Y-87068993D01*
X130193423Y-87069862D01*
X130207552Y-87140891D01*
X130219948Y-87203211D01*
X130219948Y-87203215D01*
X130220168Y-87204325D01*
X130272977Y-87331815D01*
X130302705Y-87376306D01*
X130303853Y-87378506D01*
X130304739Y-87380771D01*
X130305387Y-87383161D01*
X130308100Y-87400292D01*
X130308103Y-87400304D01*
X130308135Y-87400400D01*
X130308318Y-87400724D01*
X130365700Y-87513342D01*
X130455408Y-87603050D01*
X130466270Y-87608584D01*
X130491684Y-87621533D01*
X130495206Y-87624309D01*
X130497243Y-87626694D01*
X130500000Y-87634164D01*
X130500000Y-87864893D01*
X130499124Y-87869296D01*
X130497923Y-87872194D01*
X130492520Y-87878037D01*
X130455412Y-87896944D01*
X130365700Y-87986656D01*
X130341780Y-88033602D01*
X130308102Y-88099699D01*
X130308101Y-88099700D01*
X130308101Y-88099702D01*
X130308100Y-88099705D01*
X130305387Y-88116836D01*
X130304739Y-88119225D01*
X130303853Y-88121491D01*
X130302705Y-88123692D01*
X130291213Y-88140893D01*
X130272976Y-88168186D01*
X130256137Y-88208839D01*
X130220168Y-88295673D01*
X130219948Y-88296784D01*
X130219948Y-88296785D01*
X130193250Y-88431008D01*
X130193250Y-88568990D01*
X130219948Y-88703213D01*
X130219948Y-88703215D01*
X130220168Y-88704325D01*
X130272977Y-88831815D01*
X130302705Y-88876306D01*
X130303853Y-88878506D01*
X130304739Y-88880771D01*
X130305387Y-88883161D01*
X130308100Y-88900292D01*
X130308103Y-88900304D01*
X130308135Y-88900400D01*
X130308318Y-88900724D01*
X130365700Y-89013342D01*
X130455408Y-89103050D01*
X130466305Y-89108602D01*
X130491684Y-89121533D01*
X130495206Y-89124309D01*
X130497243Y-89126694D01*
X130500000Y-89134164D01*
X130500000Y-89672178D01*
X130499944Y-89673313D01*
X130499832Y-89674442D01*
X130499667Y-89675550D01*
X130496101Y-89693482D01*
X130493750Y-89705302D01*
X130493750Y-89987499D01*
X130493751Y-89987501D01*
X130495015Y-89988765D01*
X130497507Y-89992495D01*
X130498793Y-89995600D01*
X130498792Y-90004401D01*
X130498792Y-90004402D01*
X130497506Y-90007506D01*
X130495017Y-90011233D01*
X130493751Y-90012499D01*
X130493750Y-90012502D01*
X130493750Y-90294696D01*
X130499667Y-90324448D01*
X130499832Y-90325556D01*
X130499944Y-90326685D01*
X130500000Y-90327820D01*
X130500000Y-91000000D01*
X130500001Y-91000000D01*
X132911150Y-91000000D01*
X132915552Y-91000876D01*
X132917123Y-91001527D01*
X132923346Y-91007752D01*
X132923728Y-91015481D01*
X132923496Y-91016248D01*
X132922051Y-91019307D01*
X132908254Y-91039955D01*
X132908253Y-91039960D01*
X132896339Y-91099862D01*
X132893750Y-91112877D01*
X132893750Y-91487499D01*
X132893751Y-91487500D01*
X136243747Y-91487500D01*
X136243749Y-91487500D01*
X136243750Y-91487499D01*
X136243750Y-91112877D01*
X136229245Y-91039957D01*
X136229243Y-91039953D01*
X136215770Y-91019789D01*
X136214055Y-91015648D01*
X136213722Y-91013974D01*
X136215439Y-91005343D01*
X136221671Y-91000725D01*
X136222445Y-91000490D01*
X136225769Y-91000000D01*
X136936207Y-91000000D01*
X136940609Y-91000876D01*
X136942180Y-91001527D01*
X136948403Y-91007752D01*
X136948785Y-91015481D01*
X136948553Y-91016248D01*
X136947108Y-91019307D01*
X136908254Y-91077455D01*
X136908253Y-91077460D01*
X136894429Y-91146961D01*
X136893750Y-91150377D01*
X136893750Y-91524999D01*
X136893751Y-91525000D01*
X140243747Y-91525000D01*
X140243749Y-91525000D01*
X140243750Y-91524999D01*
X140243750Y-91475001D01*
X141393750Y-91475001D01*
X141393750Y-91849622D01*
X141394428Y-91853032D01*
X141408253Y-91922538D01*
X141408254Y-91922543D01*
X141458365Y-91997542D01*
X141463508Y-92005238D01*
X141463511Y-92005241D01*
X141546203Y-92060493D01*
X141546207Y-92060495D01*
X141619128Y-92075000D01*
X143056247Y-92075000D01*
X143056249Y-92075000D01*
X143056250Y-92074999D01*
X143056250Y-91475001D01*
X143081250Y-91475001D01*
X143081250Y-92074999D01*
X143081251Y-92075000D01*
X144518370Y-92075000D01*
X144518372Y-92075000D01*
X144591292Y-92060495D01*
X144591296Y-92060493D01*
X144673988Y-92005241D01*
X144673991Y-92005238D01*
X144729243Y-91922546D01*
X144729245Y-91922542D01*
X144743750Y-91849622D01*
X144743750Y-91512501D01*
X145393750Y-91512501D01*
X145393750Y-91887122D01*
X145394504Y-91890912D01*
X145408253Y-91960038D01*
X145408254Y-91960043D01*
X145443866Y-92013342D01*
X145463508Y-92042738D01*
X145463511Y-92042741D01*
X145546203Y-92097993D01*
X145546207Y-92097995D01*
X145619128Y-92112500D01*
X147056247Y-92112500D01*
X147056249Y-92112500D01*
X147056250Y-92112499D01*
X147056250Y-91512501D01*
X147081250Y-91512501D01*
X147081250Y-92112499D01*
X147081251Y-92112500D01*
X148518370Y-92112500D01*
X148518372Y-92112500D01*
X148591292Y-92097995D01*
X148591296Y-92097993D01*
X148673988Y-92042741D01*
X148673991Y-92042738D01*
X148729243Y-91960046D01*
X148729245Y-91960042D01*
X148743750Y-91887122D01*
X148743750Y-91512501D01*
X148743749Y-91512500D01*
X148743748Y-91512500D01*
X147081251Y-91512500D01*
X147081250Y-91512501D01*
X147056250Y-91512501D01*
X147056249Y-91512500D01*
X147056248Y-91512500D01*
X145393751Y-91512500D01*
X145393750Y-91512501D01*
X144743750Y-91512501D01*
X144743750Y-91475001D01*
X144743749Y-91475000D01*
X144743748Y-91475000D01*
X143081251Y-91475000D01*
X143081250Y-91475001D01*
X143056250Y-91475001D01*
X143056249Y-91475000D01*
X143056248Y-91475000D01*
X141393751Y-91475000D01*
X141393750Y-91475001D01*
X140243750Y-91475001D01*
X140243750Y-91150377D01*
X140229245Y-91077457D01*
X140229243Y-91077453D01*
X140190713Y-91019789D01*
X140188998Y-91015648D01*
X140188665Y-91013974D01*
X140190382Y-91005343D01*
X140196614Y-91000725D01*
X140197388Y-91000490D01*
X140200712Y-91000000D01*
X141392444Y-91000000D01*
X141396840Y-91000874D01*
X141398457Y-91001543D01*
X141404684Y-91007764D01*
X141404689Y-91007777D01*
X141405051Y-91008653D01*
X141405702Y-91015288D01*
X141400510Y-91041392D01*
X141393750Y-91075378D01*
X141393750Y-91449999D01*
X141393751Y-91450000D01*
X144743747Y-91450000D01*
X144743749Y-91450000D01*
X144743750Y-91449999D01*
X144743750Y-91075378D01*
X144731935Y-91015986D01*
X144731935Y-91011506D01*
X144732277Y-91009783D01*
X144737162Y-91002467D01*
X144737960Y-91001934D01*
X144744344Y-91000000D01*
X145411150Y-91000000D01*
X145415552Y-91000876D01*
X145417123Y-91001527D01*
X145423346Y-91007752D01*
X145423728Y-91015481D01*
X145423496Y-91016248D01*
X145422051Y-91019307D01*
X145408254Y-91039955D01*
X145408253Y-91039960D01*
X145396339Y-91099862D01*
X145393750Y-91112877D01*
X145393750Y-91487499D01*
X145393751Y-91487500D01*
X148743747Y-91487500D01*
X148743749Y-91487500D01*
X148743750Y-91487499D01*
X148743750Y-91112877D01*
X148729245Y-91039957D01*
X148729243Y-91039953D01*
X148715770Y-91019789D01*
X148714055Y-91015648D01*
X148713722Y-91013974D01*
X148715439Y-91005343D01*
X148721671Y-91000725D01*
X148722445Y-91000490D01*
X148725769Y-91000000D01*
X148999999Y-91000000D01*
X149000000Y-91000000D01*
X149000000Y-87355769D01*
X159299500Y-87355769D01*
X159299500Y-87644230D01*
X159337152Y-87930226D01*
X159411708Y-88208470D01*
X159411777Y-88208766D01*
X159411806Y-88208837D01*
X159411807Y-88208839D01*
X159411807Y-88208840D01*
X159483662Y-88382315D01*
X159522198Y-88475351D01*
X159576261Y-88568990D01*
X159666422Y-88725152D01*
X159666424Y-88725155D01*
X159666425Y-88725156D01*
X159666429Y-88725161D01*
X159666449Y-88725192D01*
X159666536Y-88725301D01*
X159842026Y-88954004D01*
X160045996Y-89157974D01*
X160263019Y-89324501D01*
X160274844Y-89333575D01*
X160274850Y-89333579D01*
X160524338Y-89477621D01*
X160524491Y-89477716D01*
X160524812Y-89477895D01*
X160524869Y-89477928D01*
X160525339Y-89478087D01*
X160791155Y-89588191D01*
X160791159Y-89588192D01*
X160791162Y-89588192D01*
X160791165Y-89588194D01*
X160791217Y-89588207D01*
X161069723Y-89662833D01*
X161069735Y-89662842D01*
X161069756Y-89662845D01*
X161069756Y-89662842D01*
X161069771Y-89662846D01*
X161069772Y-89662846D01*
X161069783Y-89662849D01*
X161355772Y-89700500D01*
X161355776Y-89700500D01*
X161644224Y-89700500D01*
X161644228Y-89700500D01*
X161930217Y-89662849D01*
X161930228Y-89662846D01*
X161930229Y-89662846D01*
X161930243Y-89662842D01*
X161930243Y-89662845D01*
X161930256Y-89662843D01*
X161930272Y-89662834D01*
X162012162Y-89640892D01*
X162208845Y-89588191D01*
X162475345Y-89477804D01*
X162725156Y-89333575D01*
X162954004Y-89157974D01*
X163157974Y-88954004D01*
X163333575Y-88725156D01*
X163477804Y-88475345D01*
X163588191Y-88208845D01*
X163588191Y-88208841D01*
X163588193Y-88208839D01*
X163662846Y-87930229D01*
X163662846Y-87930228D01*
X163662845Y-87930228D01*
X163662849Y-87930217D01*
X163700500Y-87644228D01*
X163700500Y-87355772D01*
X163662849Y-87069783D01*
X163662637Y-87068993D01*
X163662636Y-87068988D01*
X163594220Y-86813655D01*
X163593829Y-86812195D01*
X163588191Y-86791155D01*
X163477804Y-86524655D01*
X163463569Y-86500000D01*
X163459196Y-86492426D01*
X163333580Y-86274851D01*
X163333578Y-86274849D01*
X163333577Y-86274847D01*
X163333575Y-86274844D01*
X163157974Y-86045996D01*
X162954004Y-85842026D01*
X162725301Y-85666536D01*
X162725192Y-85666449D01*
X162725161Y-85666429D01*
X162725156Y-85666425D01*
X162725155Y-85666424D01*
X162725152Y-85666422D01*
X162699718Y-85651738D01*
X162475351Y-85522198D01*
X162208835Y-85411805D01*
X162024881Y-85362515D01*
X161930228Y-85337153D01*
X161930225Y-85337152D01*
X161930223Y-85337152D01*
X161930218Y-85337151D01*
X161930217Y-85337151D01*
X161699318Y-85306752D01*
X161644231Y-85299500D01*
X161644229Y-85299500D01*
X161644228Y-85299500D01*
X161355772Y-85299500D01*
X161355770Y-85299500D01*
X161355767Y-85299500D01*
X161245591Y-85314005D01*
X161069862Y-85337140D01*
X161069781Y-85337149D01*
X160791528Y-85411708D01*
X160791232Y-85411777D01*
X160791160Y-85411807D01*
X160791159Y-85411807D01*
X160720491Y-85441078D01*
X160524647Y-85522198D01*
X160274850Y-85666419D01*
X160189026Y-85732275D01*
X160046119Y-85841932D01*
X160046006Y-85842015D01*
X159842015Y-86046006D01*
X159841940Y-86046107D01*
X159761928Y-86150382D01*
X159733153Y-86187882D01*
X159666419Y-86274850D01*
X159522198Y-86524647D01*
X159411777Y-86791232D01*
X159411708Y-86791528D01*
X159337149Y-87069781D01*
X159337140Y-87069862D01*
X159319438Y-87204327D01*
X159302655Y-87331811D01*
X159299500Y-87355769D01*
X149000000Y-87355769D01*
X149000000Y-86500000D01*
X148999999Y-86500000D01*
X143126958Y-86500000D01*
X143122556Y-86499124D01*
X143121412Y-86498650D01*
X143115189Y-86492426D01*
X143115190Y-86483624D01*
X143115664Y-86482480D01*
X143118153Y-86478753D01*
X143241424Y-86355482D01*
X143245151Y-86352993D01*
X143249058Y-86351374D01*
X143253458Y-86350500D01*
X144548008Y-86350500D01*
X144548016Y-86350500D01*
X144578449Y-86347646D01*
X144706632Y-86302793D01*
X144789898Y-86241338D01*
X144793129Y-86239670D01*
X144796460Y-86238574D01*
X144800050Y-86238000D01*
X145297529Y-86238000D01*
X145301928Y-86238874D01*
X145305224Y-86240239D01*
X145310075Y-86244034D01*
X145321600Y-86259650D01*
X145353737Y-86283368D01*
X145372411Y-86297150D01*
X145430171Y-86339779D01*
X145430708Y-86340241D01*
X145431180Y-86340421D01*
X145432227Y-86340855D01*
X145432707Y-86340936D01*
X145485845Y-86359530D01*
X145559047Y-86385145D01*
X145559048Y-86385145D01*
X145559051Y-86385146D01*
X145559052Y-86385146D01*
X145559072Y-86385153D01*
X145559195Y-86385177D01*
X145559567Y-86385194D01*
X145589484Y-86388000D01*
X145589492Y-86388000D01*
X148548008Y-86388000D01*
X148548016Y-86388000D01*
X148578449Y-86385146D01*
X148706632Y-86340293D01*
X148815900Y-86259650D01*
X148896543Y-86150382D01*
X148941396Y-86022199D01*
X148944250Y-85991766D01*
X148944250Y-85158234D01*
X148941396Y-85127801D01*
X148938923Y-85120734D01*
X148896542Y-84999616D01*
X148896541Y-84999615D01*
X148896311Y-84999249D01*
X148896028Y-84998920D01*
X148868865Y-84962115D01*
X148843576Y-84927850D01*
X148815900Y-84890350D01*
X148787154Y-84869134D01*
X148784134Y-84865818D01*
X148783230Y-84864318D01*
X148781918Y-84855617D01*
X148782183Y-84854548D01*
X148785210Y-84849195D01*
X148791614Y-84842793D01*
X148868275Y-84728061D01*
X148921080Y-84600579D01*
X148938488Y-84513061D01*
X148948000Y-84465243D01*
X148948000Y-82014287D01*
X148948873Y-82009893D01*
X148949082Y-82009385D01*
X148949543Y-82008273D01*
X148955758Y-82002049D01*
X148956885Y-82001582D01*
X148957393Y-82001373D01*
X148961787Y-82000500D01*
X150506347Y-82000500D01*
X150510745Y-82001374D01*
X150514653Y-82002993D01*
X150518383Y-82005485D01*
X150573387Y-82060489D01*
X150676114Y-82119799D01*
X150790691Y-82150500D01*
X150909309Y-82150500D01*
X151023886Y-82119799D01*
X151126613Y-82060489D01*
X151210489Y-81976613D01*
X151269799Y-81873886D01*
X151300500Y-81759309D01*
X151300500Y-81640691D01*
X151269799Y-81526114D01*
X151210489Y-81423387D01*
X151126613Y-81339511D01*
X151126612Y-81339510D01*
X151126611Y-81339509D01*
X151030539Y-81284042D01*
X151028549Y-81281449D01*
X150909309Y-81249500D01*
X150790691Y-81249500D01*
X150676120Y-81280198D01*
X150676110Y-81280202D01*
X150573387Y-81339509D01*
X150518383Y-81394514D01*
X150514654Y-81397006D01*
X150512089Y-81398068D01*
X150510748Y-81398624D01*
X150506347Y-81399500D01*
X148891215Y-81399500D01*
X148886813Y-81398624D01*
X148884052Y-81397480D01*
X148877829Y-81391256D01*
X148868276Y-81368191D01*
X148863877Y-81361608D01*
X148791614Y-81253457D01*
X148717985Y-81179828D01*
X148715492Y-81176096D01*
X148713875Y-81172191D01*
X148713000Y-81167791D01*
X148713000Y-80339363D01*
X148713576Y-80335770D01*
X148714670Y-80332444D01*
X148716339Y-80329210D01*
X148765293Y-80262882D01*
X148810146Y-80134699D01*
X148813000Y-80104266D01*
X148813000Y-78295734D01*
X148810146Y-78265301D01*
X148810144Y-78265294D01*
X148805956Y-78253327D01*
X148776713Y-78169755D01*
X148765292Y-78137116D01*
X148765291Y-78137115D01*
X148765291Y-78137114D01*
X148765062Y-78136751D01*
X148764780Y-78136422D01*
X148747158Y-78112546D01*
X148718426Y-78073615D01*
X148684650Y-78027850D01*
X148585676Y-77954804D01*
X148576078Y-77947720D01*
X148575749Y-77947437D01*
X148575382Y-77947206D01*
X148447204Y-77902354D01*
X148416776Y-77899500D01*
X148416771Y-77899500D01*
X148416766Y-77899500D01*
X147608234Y-77899500D01*
X147608228Y-77899500D01*
X147608222Y-77899500D01*
X147577794Y-77902354D01*
X147449616Y-77947206D01*
X147449247Y-77947438D01*
X147448920Y-77947720D01*
X147340352Y-78027848D01*
X147340348Y-78027852D01*
X147260220Y-78136420D01*
X147259938Y-78136747D01*
X147259706Y-78137116D01*
X147214854Y-78265294D01*
X147212000Y-78295722D01*
X147212000Y-80104276D01*
X147214854Y-80134704D01*
X147259706Y-80262882D01*
X147259937Y-80263249D01*
X147260220Y-80263578D01*
X147289335Y-80303026D01*
X147296362Y-80312548D01*
X147308658Y-80329208D01*
X147310328Y-80332441D01*
X147311423Y-80335767D01*
X147312000Y-80339363D01*
X147312000Y-81533992D01*
X147331914Y-81634108D01*
X147338698Y-81668212D01*
X147338698Y-81668215D01*
X147338918Y-81669325D01*
X147338919Y-81669327D01*
X147391726Y-81796813D01*
X147456116Y-81893180D01*
X147468386Y-81911543D01*
X147533455Y-81976612D01*
X147542014Y-81985171D01*
X147544506Y-81988901D01*
X147546124Y-81992806D01*
X147547000Y-81997208D01*
X147547000Y-84099041D01*
X147546124Y-84103443D01*
X147544506Y-84107348D01*
X147542014Y-84111078D01*
X146896078Y-84757014D01*
X146892349Y-84759506D01*
X146889784Y-84760568D01*
X146888443Y-84761124D01*
X146884042Y-84762000D01*
X145589472Y-84762000D01*
X145559044Y-84764854D01*
X145430866Y-84809707D01*
X145430865Y-84809708D01*
X145398414Y-84833658D01*
X145395182Y-84835328D01*
X145391857Y-84836423D01*
X145388260Y-84837000D01*
X144800051Y-84837000D01*
X144796458Y-84836424D01*
X144793128Y-84835328D01*
X144789895Y-84833658D01*
X144757444Y-84809708D01*
X144706634Y-84772208D01*
X144706633Y-84772207D01*
X144667837Y-84758632D01*
X144578454Y-84727354D01*
X144548026Y-84724500D01*
X144548021Y-84724500D01*
X144548016Y-84724500D01*
X141589484Y-84724500D01*
X141589478Y-84724500D01*
X141589472Y-84724500D01*
X141559044Y-84727354D01*
X141430866Y-84772206D01*
X141430497Y-84772438D01*
X141430170Y-84772720D01*
X141321602Y-84852848D01*
X141321598Y-84852852D01*
X141241470Y-84961420D01*
X141241188Y-84961747D01*
X141240956Y-84962116D01*
X141196104Y-85090294D01*
X141193250Y-85120722D01*
X141193250Y-85954276D01*
X141196104Y-85984704D01*
X141240956Y-86112882D01*
X141241187Y-86113249D01*
X141241470Y-86113578D01*
X141281278Y-86167516D01*
X141321600Y-86222150D01*
X141343076Y-86238000D01*
X141350341Y-86243362D01*
X141353364Y-86246684D01*
X141354267Y-86248184D01*
X141355578Y-86256879D01*
X141355316Y-86257937D01*
X141352285Y-86263305D01*
X141120577Y-86495014D01*
X141116848Y-86497506D01*
X141114283Y-86498568D01*
X141112942Y-86499124D01*
X141108541Y-86500000D01*
X138701957Y-86500000D01*
X138697555Y-86499124D01*
X138696411Y-86498650D01*
X138690188Y-86492426D01*
X138690189Y-86483624D01*
X138690663Y-86482480D01*
X138693152Y-86478753D01*
X138741423Y-86430482D01*
X138745150Y-86427993D01*
X138749057Y-86426374D01*
X138753457Y-86425500D01*
X140048008Y-86425500D01*
X140048016Y-86425500D01*
X140078449Y-86422646D01*
X140206632Y-86377793D01*
X140315900Y-86297150D01*
X140396543Y-86187882D01*
X140441396Y-86059699D01*
X140444250Y-86029266D01*
X140444250Y-85195734D01*
X140441396Y-85165301D01*
X140438923Y-85158234D01*
X140396542Y-85037116D01*
X140396541Y-85037115D01*
X140396311Y-85036749D01*
X140396028Y-85036420D01*
X140368865Y-84999615D01*
X140341189Y-84962116D01*
X140315900Y-84927850D01*
X140301050Y-84916890D01*
X140287156Y-84906635D01*
X140284133Y-84903313D01*
X140283230Y-84901813D01*
X140281919Y-84893118D01*
X140282181Y-84892060D01*
X140285210Y-84886694D01*
X140544114Y-84627793D01*
X140620775Y-84513061D01*
X140673580Y-84385579D01*
X140685309Y-84326614D01*
X140700500Y-84250243D01*
X140700500Y-81581007D01*
X140698110Y-81568994D01*
X140673580Y-81445672D01*
X140620775Y-81318189D01*
X140544114Y-81203457D01*
X140296543Y-80955886D01*
X140296539Y-80955883D01*
X140296538Y-80955882D01*
X140181815Y-80879227D01*
X140054325Y-80826418D01*
X140054320Y-80826417D01*
X139972833Y-80810209D01*
X139945913Y-80804854D01*
X139918994Y-80799500D01*
X139918993Y-80799500D01*
X139864364Y-80799500D01*
X139859962Y-80798624D01*
X139856057Y-80797006D01*
X139852327Y-80794514D01*
X138317985Y-79260171D01*
X138315492Y-79256439D01*
X138313875Y-79252534D01*
X138313000Y-79248134D01*
X138313000Y-78295734D01*
X138312999Y-78295728D01*
X138310146Y-78265301D01*
X138310144Y-78265294D01*
X138305956Y-78253327D01*
X138276713Y-78169755D01*
X138265292Y-78137116D01*
X138265291Y-78137115D01*
X138265291Y-78137114D01*
X138265062Y-78136751D01*
X138264780Y-78136422D01*
X138247158Y-78112546D01*
X138218426Y-78073615D01*
X138184650Y-78027850D01*
X138085676Y-77954804D01*
X138076078Y-77947720D01*
X138075749Y-77947437D01*
X138075382Y-77947206D01*
X137947204Y-77902354D01*
X137916776Y-77899500D01*
X137916771Y-77899500D01*
X137916766Y-77899500D01*
X137108234Y-77899500D01*
X137108228Y-77899500D01*
X137108222Y-77899500D01*
X137077794Y-77902354D01*
X136949616Y-77947206D01*
X136949247Y-77947438D01*
X136948920Y-77947720D01*
X136840352Y-78027848D01*
X136840348Y-78027852D01*
X136760220Y-78136420D01*
X136759938Y-78136747D01*
X136759706Y-78137116D01*
X136714854Y-78265294D01*
X136712000Y-78295722D01*
X136712000Y-80104276D01*
X136714854Y-80134704D01*
X136759706Y-80262882D01*
X136759937Y-80263249D01*
X136760220Y-80263578D01*
X136776396Y-80285495D01*
X136840350Y-80372150D01*
X136925046Y-80434658D01*
X136948921Y-80452279D01*
X136949458Y-80452741D01*
X136949930Y-80452921D01*
X136950977Y-80453355D01*
X136951457Y-80453436D01*
X137004294Y-80471925D01*
X137077797Y-80497645D01*
X137077798Y-80497645D01*
X137077801Y-80497646D01*
X137077802Y-80497646D01*
X137077822Y-80497653D01*
X137077945Y-80497677D01*
X137078317Y-80497694D01*
X137108234Y-80500500D01*
X137108242Y-80500500D01*
X137916758Y-80500500D01*
X137916766Y-80500500D01*
X137947199Y-80497646D01*
X138075382Y-80452793D01*
X138076853Y-80451706D01*
X138080913Y-80449796D01*
X138083097Y-80449255D01*
X138091045Y-80450151D01*
X138092014Y-80450640D01*
X138094958Y-80452772D01*
X139144514Y-81502327D01*
X139147006Y-81506057D01*
X139148624Y-81509962D01*
X139149500Y-81514364D01*
X139149500Y-81568992D01*
X139173331Y-81688799D01*
X139176198Y-81703212D01*
X139176198Y-81703215D01*
X139176418Y-81704325D01*
X139176419Y-81704327D01*
X139214728Y-81796811D01*
X139229225Y-81831811D01*
X139270234Y-81893186D01*
X139282497Y-81911539D01*
X139296614Y-81932665D01*
X139298057Y-81935716D01*
X139299005Y-81938841D01*
X139299500Y-81942179D01*
X139299500Y-83884041D01*
X139298624Y-83888443D01*
X139297006Y-83892348D01*
X139294514Y-83896078D01*
X138396078Y-84794514D01*
X138392349Y-84797006D01*
X138389784Y-84798068D01*
X138388443Y-84798624D01*
X138384042Y-84799500D01*
X137089472Y-84799500D01*
X137059044Y-84802354D01*
X136930866Y-84847207D01*
X136930865Y-84847208D01*
X136902997Y-84867777D01*
X136902996Y-84867778D01*
X136898414Y-84871159D01*
X136895182Y-84872828D01*
X136891856Y-84873923D01*
X136888260Y-84874500D01*
X136300051Y-84874500D01*
X136296458Y-84873924D01*
X136293128Y-84872828D01*
X136289895Y-84871158D01*
X136285315Y-84867778D01*
X136243613Y-84837000D01*
X136206634Y-84809708D01*
X136206633Y-84809707D01*
X136167837Y-84796132D01*
X136078454Y-84764854D01*
X136048026Y-84762000D01*
X136048021Y-84762000D01*
X136048016Y-84762000D01*
X133089484Y-84762000D01*
X133089478Y-84762000D01*
X133089472Y-84762000D01*
X133059044Y-84764854D01*
X132930866Y-84809706D01*
X132930497Y-84809938D01*
X132930170Y-84810220D01*
X132821602Y-84890348D01*
X132821598Y-84890352D01*
X132741470Y-84998920D01*
X132741188Y-84999247D01*
X132740956Y-84999616D01*
X132696104Y-85127794D01*
X132693250Y-85158222D01*
X132693250Y-85991776D01*
X132696104Y-86022204D01*
X132740956Y-86150382D01*
X132741187Y-86150749D01*
X132741470Y-86151078D01*
X132781278Y-86205016D01*
X132821600Y-86259650D01*
X132845308Y-86277147D01*
X132845635Y-86277388D01*
X132848655Y-86280704D01*
X132849294Y-86281764D01*
X132850607Y-86290467D01*
X132845400Y-86297539D01*
X132844906Y-86297838D01*
X132838951Y-86299500D01*
X130824757Y-86299500D01*
X130764919Y-86311401D01*
X130700736Y-86324167D01*
X130699630Y-86324332D01*
X130698503Y-86324444D01*
X130697366Y-86324500D01*
X130662227Y-86324500D01*
X130569342Y-86339211D01*
X130568661Y-86339264D01*
X130567315Y-86339822D01*
X130566824Y-86340179D01*
X130546573Y-86350498D01*
X130546573Y-86350499D01*
X130455406Y-86396950D01*
X130365700Y-86486656D01*
X130346343Y-86524647D01*
X130308102Y-86599699D01*
X130308101Y-86599700D01*
X130308101Y-86599702D01*
X130308100Y-86599705D01*
X130305387Y-86616836D01*
X130304739Y-86619225D01*
X130303853Y-86621491D01*
X130302705Y-86623692D01*
X130272974Y-86668191D01*
X130250218Y-86723128D01*
X130220168Y-86795673D01*
X130219948Y-86796784D01*
X130219948Y-86796786D01*
X130217737Y-86807905D01*
X130216593Y-86813655D01*
X130193250Y-86931007D01*
X129844249Y-86931007D01*
X129844249Y-86693482D01*
X129844249Y-86693479D01*
X129844215Y-86693207D01*
X129844169Y-86692982D01*
X129832305Y-86618067D01*
X129829538Y-86600591D01*
X129829502Y-86600144D01*
X129829501Y-86600137D01*
X129829496Y-86600107D01*
X129829401Y-86599715D01*
X129829396Y-86599697D01*
X129829396Y-86599696D01*
X129771800Y-86486658D01*
X129682092Y-86396950D01*
X129569054Y-86339354D01*
X129569051Y-86339353D01*
X129569048Y-86339352D01*
X129569047Y-86339352D01*
X129568850Y-86339320D01*
X129568187Y-86339213D01*
X129568158Y-86339211D01*
X129475273Y-86324500D01*
X129475271Y-86324500D01*
X129012229Y-86324500D01*
X129012227Y-86324500D01*
X128919342Y-86339211D01*
X128918661Y-86339264D01*
X128917315Y-86339822D01*
X128916824Y-86340179D01*
X128896573Y-86350498D01*
X128896573Y-86350499D01*
X128805406Y-86396950D01*
X128715700Y-86486656D01*
X128696339Y-86524655D01*
X128658930Y-86598074D01*
X128658571Y-86598568D01*
X128658014Y-86599912D01*
X128657961Y-86600591D01*
X128643250Y-86693475D01*
X128643250Y-86806390D01*
X128642857Y-86809369D01*
X128642099Y-86812195D01*
X128640951Y-86814966D01*
X128602362Y-86881804D01*
X128602356Y-86881819D01*
X128602352Y-86881830D01*
X128568250Y-87009108D01*
X121500500Y-87009108D01*
X121500500Y-83934108D01*
X121466392Y-83806814D01*
X121400500Y-83692686D01*
X121307314Y-83599500D01*
X121307313Y-83599499D01*
X121307312Y-83599498D01*
X121193195Y-83533613D01*
X121193193Y-83533612D01*
X121193190Y-83533610D01*
X121193188Y-83533609D01*
X121193186Y-83533608D01*
X121193184Y-83533607D01*
X121193173Y-83533602D01*
X121193102Y-83533584D01*
X121065892Y-83499500D01*
X120934108Y-83499500D01*
X120806830Y-83533602D01*
X120806819Y-83533606D01*
X120806817Y-83533607D01*
X120806812Y-83533609D01*
X120806804Y-83533612D01*
X120692686Y-83599498D01*
X120599498Y-83692686D01*
X120533612Y-83806804D01*
X120533606Y-83806819D01*
X120533602Y-83806830D01*
X120512915Y-83884041D01*
X120512302Y-83886329D01*
X120499500Y-83934108D01*
X118000500Y-83934108D01*
X118000500Y-64000968D01*
X118000517Y-64000336D01*
X118000518Y-64000318D01*
X118000554Y-63999664D01*
X118000605Y-63999064D01*
X118012807Y-63890763D01*
X118013019Y-63889514D01*
X118013309Y-63888245D01*
X118013664Y-63887016D01*
X118049332Y-63785082D01*
X118049821Y-63783905D01*
X118050379Y-63782749D01*
X118050992Y-63781640D01*
X118108443Y-63690206D01*
X118109182Y-63689165D01*
X118109981Y-63688161D01*
X118110831Y-63687209D01*
X118187209Y-63610831D01*
X118188161Y-63609981D01*
X118189166Y-63609181D01*
X118190206Y-63608443D01*
X118281640Y-63550992D01*
X118282749Y-63550379D01*
X118282828Y-63550340D01*
X118283905Y-63549821D01*
X118285082Y-63549332D01*
X118387036Y-63513656D01*
X118388258Y-63513306D01*
X118388913Y-63513156D01*
X118389510Y-63513021D01*
X118390770Y-63512806D01*
X118499065Y-63500605D01*
X118499665Y-63500554D01*
X118500352Y-63500516D01*
X118500969Y-63500500D01*
X145397560Y-63500500D01*
X145401957Y-63501374D01*
G37*
%TD.AperFunction*%
%TA.AperFunction,Conductor*%
G36*
X167499646Y-63500516D02*
G01*
X167500334Y-63500554D01*
X167500936Y-63500605D01*
X167609232Y-63512806D01*
X167610487Y-63513020D01*
X167611747Y-63513308D01*
X167612983Y-63513665D01*
X167618313Y-63515530D01*
X167618314Y-63515530D01*
X167714907Y-63549329D01*
X167716081Y-63549816D01*
X167717250Y-63550379D01*
X167718363Y-63550995D01*
X167795558Y-63599500D01*
X167809786Y-63608440D01*
X167810830Y-63609179D01*
X167811837Y-63609982D01*
X167812798Y-63610840D01*
X167889158Y-63687200D01*
X167890021Y-63688167D01*
X167890816Y-63689165D01*
X167891558Y-63690212D01*
X167948998Y-63781626D01*
X167949621Y-63782752D01*
X167950179Y-63783910D01*
X167950674Y-63785104D01*
X167986334Y-63887016D01*
X167986690Y-63888251D01*
X167986976Y-63889502D01*
X167987193Y-63890777D01*
X167999392Y-63999044D01*
X167999446Y-63999682D01*
X167999482Y-64000318D01*
X167999500Y-64000968D01*
X167999500Y-70181116D01*
X167996132Y-70189248D01*
X167988000Y-70192616D01*
X167979868Y-70189248D01*
X167971736Y-70181116D01*
X167148678Y-69358058D01*
X167127511Y-69343915D01*
X167082004Y-69313509D01*
X167081997Y-69313506D01*
X167073870Y-69310139D01*
X167007242Y-69296888D01*
X166995236Y-69294500D01*
X166995235Y-69294500D01*
X163133678Y-69294500D01*
X163125546Y-69291132D01*
X163122178Y-69283000D01*
X163122250Y-69281712D01*
X163140500Y-69119734D01*
X163140500Y-68760265D01*
X163134284Y-68705094D01*
X163100252Y-68403052D01*
X163020262Y-68052592D01*
X162901536Y-67713291D01*
X162745566Y-67389418D01*
X162712597Y-67336948D01*
X162643697Y-67227293D01*
X162554325Y-67085056D01*
X162396706Y-66887408D01*
X162396701Y-66887402D01*
X162330188Y-66803997D01*
X159136003Y-63609812D01*
X159026412Y-63522416D01*
X159023518Y-63518988D01*
X159022919Y-63517904D01*
X159021934Y-63509158D01*
X159027421Y-63502277D01*
X159028051Y-63501929D01*
X159033604Y-63500500D01*
X167499031Y-63500500D01*
X167499646Y-63500516D01*
G37*
%TD.AperFunction*%
%TA.AperFunction,Conductor*%
G36*
X154970315Y-63501374D02*
G01*
X154971458Y-63501847D01*
X154977684Y-63508069D01*
X154977687Y-63516870D01*
X154977416Y-63517525D01*
X154973960Y-63522119D01*
X154863995Y-63609812D01*
X154609812Y-63863995D01*
X154385673Y-64145056D01*
X154194436Y-64449410D01*
X154194424Y-64449437D01*
X154194393Y-64449501D01*
X154038516Y-64773181D01*
X154038464Y-64773285D01*
X153919736Y-65112596D01*
X153888510Y-65249410D01*
X153888510Y-65249411D01*
X153839748Y-65463052D01*
X153799500Y-65820264D01*
X153799500Y-66179736D01*
X153839748Y-66536948D01*
X153858765Y-66620264D01*
X153858765Y-66620265D01*
X153919736Y-66887402D01*
X154038534Y-67226912D01*
X154038745Y-67227293D01*
X154194389Y-67550489D01*
X154194421Y-67550557D01*
X154194438Y-67550593D01*
X154194507Y-67550700D01*
X154385673Y-67854942D01*
X154609812Y-68136003D01*
X155748677Y-69274868D01*
X155752045Y-69283000D01*
X155748677Y-69291132D01*
X155740545Y-69294500D01*
X153504500Y-69294500D01*
X153492488Y-69296888D01*
X153483856Y-69295170D01*
X153478967Y-69287851D01*
X153478818Y-69286897D01*
X153477463Y-69274868D01*
X153452752Y-69055552D01*
X153372762Y-68705092D01*
X153254036Y-68365791D01*
X153098066Y-68041918D01*
X153098062Y-68041911D01*
X153098051Y-68041893D01*
X152906825Y-67737556D01*
X152757723Y-67550588D01*
X152682687Y-67456496D01*
X149136003Y-63909812D01*
X149078553Y-63863997D01*
X148854942Y-63685673D01*
X148595972Y-63522954D01*
X148592713Y-63519874D01*
X148591996Y-63518864D01*
X148590035Y-63510283D01*
X148594715Y-63502830D01*
X148594901Y-63502699D01*
X148595030Y-63502608D01*
X148601666Y-63500500D01*
X154965918Y-63500500D01*
X154970315Y-63501374D01*
G37*
%TD.AperFunction*%
%TD*%
%TA.AperFunction,Conductor*%
%TO.N,+BATT*%
G36*
X136195131Y-72782454D02*
G01*
X136601799Y-73189122D01*
X136605095Y-73195966D01*
X136632247Y-73436939D01*
X136632246Y-73436939D01*
X136691712Y-73697477D01*
X136692000Y-73700036D01*
X136692000Y-75904276D01*
X136694853Y-75934702D01*
X136694853Y-75934704D01*
X136694854Y-75934705D01*
X136739706Y-76062885D01*
X136739707Y-76062886D01*
X136820349Y-76172151D01*
X136905043Y-76234658D01*
X136929613Y-76252792D01*
X136929614Y-76252793D01*
X136929615Y-76252793D01*
X136929616Y-76252794D01*
X137057798Y-76297647D01*
X137088224Y-76300500D01*
X138580500Y-76300500D01*
X138588632Y-76303868D01*
X138592000Y-76312000D01*
X138592000Y-76988500D01*
X138588632Y-76996632D01*
X138580500Y-77000000D01*
X134504764Y-77000000D01*
X134496632Y-76996632D01*
X133503368Y-76003368D01*
X133500000Y-75995236D01*
X133500000Y-75012000D01*
X133503368Y-75003868D01*
X133511500Y-75000500D01*
X134954344Y-75000500D01*
X134962476Y-75003868D01*
X134986658Y-75028050D01*
X135099696Y-75085646D01*
X135193481Y-75100500D01*
X135806518Y-75100499D01*
X135806520Y-75100499D01*
X135876353Y-75089439D01*
X135900304Y-75085646D01*
X136013342Y-75028050D01*
X136103050Y-74938342D01*
X136160646Y-74825304D01*
X136175500Y-74731519D01*
X136175499Y-74268482D01*
X136160646Y-74174696D01*
X136103050Y-74061658D01*
X136013342Y-73971950D01*
X135900304Y-73914354D01*
X135900301Y-73914353D01*
X135900300Y-73914353D01*
X135900297Y-73914352D01*
X135806521Y-73899500D01*
X135193479Y-73899500D01*
X135099702Y-73914352D01*
X135099699Y-73914353D01*
X135099697Y-73914353D01*
X135099696Y-73914354D01*
X135042140Y-73943680D01*
X134986657Y-73971950D01*
X134962476Y-73996132D01*
X134954344Y-73999500D01*
X133511500Y-73999500D01*
X133503368Y-73996132D01*
X133500000Y-73988000D01*
X133500000Y-73362000D01*
X133503368Y-73353868D01*
X133511500Y-73350500D01*
X134954344Y-73350500D01*
X134962476Y-73353868D01*
X134986658Y-73378050D01*
X135099696Y-73435646D01*
X135193481Y-73450500D01*
X135806518Y-73450499D01*
X135806520Y-73450499D01*
X135876353Y-73439439D01*
X135900304Y-73435646D01*
X136013342Y-73378050D01*
X136103050Y-73288342D01*
X136160646Y-73175304D01*
X136175500Y-73081519D01*
X136175499Y-72790585D01*
X136178867Y-72782454D01*
X136186999Y-72779086D01*
X136195131Y-72782454D01*
G37*
%TD.AperFunction*%
%TA.AperFunction,Conductor*%
G36*
X145677177Y-69503368D02*
G01*
X147188632Y-71014823D01*
X147192000Y-71022955D01*
X147192000Y-75904276D01*
X147194853Y-75934702D01*
X147194853Y-75934704D01*
X147194854Y-75934705D01*
X147239706Y-76062885D01*
X147239707Y-76062886D01*
X147320349Y-76172151D01*
X147405043Y-76234658D01*
X147429613Y-76252792D01*
X147429614Y-76252793D01*
X147429615Y-76252793D01*
X147429616Y-76252794D01*
X147557798Y-76297647D01*
X147588224Y-76300500D01*
X149080500Y-76300500D01*
X149088632Y-76303868D01*
X149092000Y-76312000D01*
X149092000Y-76988500D01*
X149088632Y-76996632D01*
X149080500Y-77000000D01*
X141004500Y-77000000D01*
X140996368Y-76996632D01*
X140993000Y-76988500D01*
X140993000Y-76312000D01*
X140996368Y-76303868D01*
X141004500Y-76300500D01*
X142496768Y-76300500D01*
X142496776Y-76300500D01*
X142527202Y-76297647D01*
X142655384Y-76252794D01*
X142764651Y-76172151D01*
X142845294Y-76062884D01*
X142890147Y-75934702D01*
X142893000Y-75904276D01*
X142893000Y-73700036D01*
X142893288Y-73697477D01*
X142952752Y-73436948D01*
X142993000Y-73079736D01*
X142993000Y-71673896D01*
X142952752Y-71316684D01*
X142893288Y-71056153D01*
X142893000Y-71053594D01*
X142893000Y-69895732D01*
X142893000Y-69895724D01*
X142890147Y-69865298D01*
X142845294Y-69737116D01*
X142764651Y-69627849D01*
X142710017Y-69587527D01*
X142655386Y-69547207D01*
X142655385Y-69547206D01*
X142584364Y-69522355D01*
X142577801Y-69516490D01*
X142577307Y-69507702D01*
X142583172Y-69501139D01*
X142588162Y-69500000D01*
X145669045Y-69500000D01*
X145677177Y-69503368D01*
G37*
%TD.AperFunction*%
%TA.AperFunction,Conductor*%
G36*
X155977177Y-69503368D02*
G01*
X156836132Y-70362323D01*
X156839500Y-70370455D01*
X156839500Y-75904276D01*
X156842353Y-75934702D01*
X156842353Y-75934704D01*
X156842354Y-75934705D01*
X156887206Y-76062885D01*
X156887207Y-76062886D01*
X156967849Y-76172151D01*
X157052543Y-76234658D01*
X157077113Y-76252792D01*
X157077114Y-76252793D01*
X157077115Y-76252793D01*
X157077116Y-76252794D01*
X157205298Y-76297647D01*
X157235724Y-76300500D01*
X158728000Y-76300500D01*
X158736132Y-76303868D01*
X158739500Y-76312000D01*
X158739500Y-76988500D01*
X158736132Y-76996632D01*
X158728000Y-77000000D01*
X151504500Y-77000000D01*
X151496368Y-76996632D01*
X151493000Y-76988500D01*
X151493000Y-76312000D01*
X151496368Y-76303868D01*
X151504500Y-76300500D01*
X152996768Y-76300500D01*
X152996776Y-76300500D01*
X153027202Y-76297647D01*
X153155384Y-76252794D01*
X153264651Y-76172151D01*
X153345294Y-76062884D01*
X153390147Y-75934702D01*
X153393000Y-75904276D01*
X153393000Y-70392536D01*
X153393288Y-70389977D01*
X153413415Y-70301793D01*
X153452752Y-70129448D01*
X153493000Y-69772236D01*
X153493000Y-69511500D01*
X153496368Y-69503368D01*
X153504500Y-69500000D01*
X155969045Y-69500000D01*
X155977177Y-69503368D01*
G37*
%TD.AperFunction*%
%TA.AperFunction,Conductor*%
G36*
X167003368Y-69503368D02*
G01*
X167996132Y-70496132D01*
X167999500Y-70504264D01*
X167999500Y-75995736D01*
X167996132Y-76003868D01*
X167003368Y-76996632D01*
X166995236Y-77000000D01*
X161152000Y-77000000D01*
X161143868Y-76996632D01*
X161140500Y-76988500D01*
X161140500Y-76312000D01*
X161143868Y-76303868D01*
X161152000Y-76300500D01*
X162644268Y-76300500D01*
X162644276Y-76300500D01*
X162674702Y-76297647D01*
X162802884Y-76252794D01*
X162912151Y-76172151D01*
X162992794Y-76062884D01*
X163037647Y-75934702D01*
X163040500Y-75904276D01*
X163040500Y-69895724D01*
X163037647Y-69865298D01*
X163022984Y-69823396D01*
X163022628Y-69817040D01*
X163092950Y-69508941D01*
X163098044Y-69501763D01*
X163104162Y-69500000D01*
X166995236Y-69500000D01*
X167003368Y-69503368D01*
G37*
%TD.AperFunction*%
%TD*%
M02*
